%TF.GenerationSoftware,KiCad,Pcbnew,(6.0.2-0)*%
%TF.CreationDate,2022-05-09T22:27:37+02:00*%
%TF.ProjectId,modelh,6d6f6465-6c68-42e6-9b69-6361645f7063,v0.1*%
%TF.SameCoordinates,PX3dc4fd0PY2cd02b0*%
%TF.FileFunction,Legend,Top*%
%TF.FilePolarity,Positive*%
%FSLAX46Y46*%
G04 Gerber Fmt 4.6, Leading zero omitted, Abs format (unit mm)*
G04 Created by KiCad (PCBNEW (6.0.2-0)) date 2022-05-09 22:27:37*
%MOMM*%
%LPD*%
G01*
G04 APERTURE LIST*
%ADD10C,0.120000*%
%ADD11C,0.200000*%
%ADD12C,0.300000*%
%ADD13C,0.150000*%
%ADD14C,0.010000*%
G04 APERTURE END LIST*
D10*
X92685000Y-65490000D02*
X95285000Y-65490000D01*
X95285000Y-65490000D02*
X95285000Y-72990000D01*
X95285000Y-72990000D02*
X92685000Y-72990000D01*
X92685000Y-72990000D02*
X92685000Y-65490000D01*
X187940000Y-66750000D02*
X205850000Y-66750000D01*
X205850000Y-66750000D02*
X205850000Y-80020000D01*
X205850000Y-80020000D02*
X187940000Y-80020000D01*
X187940000Y-80020000D02*
X187940000Y-66750000D01*
X94580000Y-65630000D02*
X95280000Y-65630000D01*
X95280000Y-65630000D02*
X95280000Y-67410000D01*
X95280000Y-67410000D02*
X94580000Y-67410000D01*
X94580000Y-67410000D02*
X94580000Y-65630000D01*
G36*
X94580000Y-65630000D02*
G01*
X95280000Y-65630000D01*
X95280000Y-67410000D01*
X94580000Y-67410000D01*
X94580000Y-65630000D01*
G37*
X92690000Y-65540000D02*
X95280000Y-65540000D01*
X95280000Y-65540000D02*
X95280000Y-65800000D01*
X95280000Y-65800000D02*
X92690000Y-65800000D01*
X92690000Y-65800000D02*
X92690000Y-65540000D01*
G36*
X92690000Y-65540000D02*
G01*
X95280000Y-65540000D01*
X95280000Y-65800000D01*
X92690000Y-65800000D01*
X92690000Y-65540000D01*
G37*
X92685000Y-72750000D02*
X95285000Y-72750000D01*
X95285000Y-72750000D02*
X95285000Y-72990000D01*
X95285000Y-72990000D02*
X92685000Y-72990000D01*
X92685000Y-72990000D02*
X92685000Y-72750000D01*
G36*
X92685000Y-72750000D02*
G01*
X95285000Y-72750000D01*
X95285000Y-72990000D01*
X92685000Y-72990000D01*
X92685000Y-72750000D01*
G37*
X90090000Y-72750000D02*
X90090000Y-72990000D01*
X92685000Y-67300000D02*
X95285000Y-67300000D01*
X95285000Y-67300000D02*
X95285000Y-67560000D01*
X95285000Y-67560000D02*
X92685000Y-67560000D01*
X92685000Y-67560000D02*
X92685000Y-67300000D01*
G36*
X92685000Y-67300000D02*
G01*
X95285000Y-67300000D01*
X95285000Y-67560000D01*
X92685000Y-67560000D01*
X92685000Y-67300000D01*
G37*
X95270000Y-67240000D02*
X102770000Y-67240000D01*
X92690000Y-67520000D02*
X93370000Y-67520000D01*
X93370000Y-67520000D02*
X93370000Y-65530000D01*
X93370000Y-65530000D02*
X92690000Y-65530000D01*
X92690000Y-65530000D02*
X92690000Y-67520000D01*
G36*
X92690000Y-67520000D02*
G01*
X93370000Y-67520000D01*
X93370000Y-65530000D01*
X92690000Y-65530000D01*
X92690000Y-67520000D01*
G37*
X87270000Y-65490000D02*
X95280000Y-65490000D01*
X90090000Y-67520000D02*
X90090000Y-65540000D01*
X102770000Y-67240000D02*
X102770000Y-72990000D01*
X102770000Y-72990000D02*
X87270000Y-72990000D01*
X95280000Y-65490000D02*
X95280000Y-67240000D01*
X87270000Y-72990000D02*
X87270000Y-65490000D01*
D11*
X131267619Y-80745476D02*
X131267619Y-79495476D01*
X131267619Y-79971666D02*
X131386666Y-79912142D01*
X131624761Y-79912142D01*
X131743809Y-79971666D01*
X131803333Y-80031190D01*
X131862857Y-80150238D01*
X131862857Y-80507380D01*
X131803333Y-80626428D01*
X131743809Y-80685952D01*
X131624761Y-80745476D01*
X131386666Y-80745476D01*
X131267619Y-80685952D01*
X132279523Y-79912142D02*
X132577142Y-80745476D01*
X132874761Y-79912142D02*
X132577142Y-80745476D01*
X132458095Y-81043095D01*
X132398571Y-81102619D01*
X132279523Y-81162142D01*
X134660476Y-79495476D02*
X134660476Y-80388333D01*
X134600952Y-80566904D01*
X134481904Y-80685952D01*
X134303333Y-80745476D01*
X134184285Y-80745476D01*
X135434285Y-80745476D02*
X135315238Y-80685952D01*
X135255714Y-80626428D01*
X135196190Y-80507380D01*
X135196190Y-80150238D01*
X135255714Y-80031190D01*
X135315238Y-79971666D01*
X135434285Y-79912142D01*
X135612857Y-79912142D01*
X135731904Y-79971666D01*
X135791428Y-80031190D01*
X135850952Y-80150238D01*
X135850952Y-80507380D01*
X135791428Y-80626428D01*
X135731904Y-80685952D01*
X135612857Y-80745476D01*
X135434285Y-80745476D01*
X136386666Y-80745476D02*
X136386666Y-79495476D01*
X136922380Y-80745476D02*
X136922380Y-80090714D01*
X136862857Y-79971666D01*
X136743809Y-79912142D01*
X136565238Y-79912142D01*
X136446190Y-79971666D01*
X136386666Y-80031190D01*
X137517619Y-79912142D02*
X137517619Y-80745476D01*
X137517619Y-80031190D02*
X137577142Y-79971666D01*
X137696190Y-79912142D01*
X137874761Y-79912142D01*
X137993809Y-79971666D01*
X138053333Y-80090714D01*
X138053333Y-80745476D01*
X139600952Y-80745476D02*
X139600952Y-79495476D01*
X139600952Y-80090714D02*
X140315238Y-80090714D01*
X140315238Y-80745476D02*
X140315238Y-79495476D01*
X141446190Y-80745476D02*
X141446190Y-80090714D01*
X141386666Y-79971666D01*
X141267619Y-79912142D01*
X141029523Y-79912142D01*
X140910476Y-79971666D01*
X141446190Y-80685952D02*
X141327142Y-80745476D01*
X141029523Y-80745476D01*
X140910476Y-80685952D01*
X140850952Y-80566904D01*
X140850952Y-80447857D01*
X140910476Y-80328809D01*
X141029523Y-80269285D01*
X141327142Y-80269285D01*
X141446190Y-80209761D01*
X141922380Y-79912142D02*
X142160476Y-80745476D01*
X142398571Y-80150238D01*
X142636666Y-80745476D01*
X142874761Y-79912142D01*
X143172380Y-79912142D02*
X143648571Y-79912142D01*
X143350952Y-79495476D02*
X143350952Y-80566904D01*
X143410476Y-80685952D01*
X143529523Y-80745476D01*
X143648571Y-80745476D01*
X144065238Y-80745476D02*
X144065238Y-79495476D01*
X144600952Y-80745476D02*
X144600952Y-80090714D01*
X144541428Y-79971666D01*
X144422380Y-79912142D01*
X144243809Y-79912142D01*
X144124761Y-79971666D01*
X144065238Y-80031190D01*
X145374761Y-80745476D02*
X145255714Y-80685952D01*
X145196190Y-80626428D01*
X145136666Y-80507380D01*
X145136666Y-80150238D01*
X145196190Y-80031190D01*
X145255714Y-79971666D01*
X145374761Y-79912142D01*
X145553333Y-79912142D01*
X145672380Y-79971666D01*
X145731904Y-80031190D01*
X145791428Y-80150238D01*
X145791428Y-80507380D01*
X145731904Y-80626428D01*
X145672380Y-80685952D01*
X145553333Y-80745476D01*
X145374761Y-80745476D01*
X146327142Y-80745476D02*
X146327142Y-79912142D01*
X146327142Y-80150238D02*
X146386666Y-80031190D01*
X146446190Y-79971666D01*
X146565238Y-79912142D01*
X146684285Y-79912142D01*
X147100952Y-79912142D02*
X147100952Y-80745476D01*
X147100952Y-80031190D02*
X147160476Y-79971666D01*
X147279523Y-79912142D01*
X147458095Y-79912142D01*
X147577142Y-79971666D01*
X147636666Y-80090714D01*
X147636666Y-80745476D01*
X149720000Y-80745476D02*
X149720000Y-80090714D01*
X149660476Y-79971666D01*
X149541428Y-79912142D01*
X149303333Y-79912142D01*
X149184285Y-79971666D01*
X149720000Y-80685952D02*
X149600952Y-80745476D01*
X149303333Y-80745476D01*
X149184285Y-80685952D01*
X149124761Y-80566904D01*
X149124761Y-80447857D01*
X149184285Y-80328809D01*
X149303333Y-80269285D01*
X149600952Y-80269285D01*
X149720000Y-80209761D01*
X150315238Y-79912142D02*
X150315238Y-80745476D01*
X150315238Y-80031190D02*
X150374761Y-79971666D01*
X150493809Y-79912142D01*
X150672380Y-79912142D01*
X150791428Y-79971666D01*
X150850952Y-80090714D01*
X150850952Y-80745476D01*
X151981904Y-80745476D02*
X151981904Y-79495476D01*
X151981904Y-80685952D02*
X151862857Y-80745476D01*
X151624761Y-80745476D01*
X151505714Y-80685952D01*
X151446190Y-80626428D01*
X151386666Y-80507380D01*
X151386666Y-80150238D01*
X151446190Y-80031190D01*
X151505714Y-79971666D01*
X151624761Y-79912142D01*
X151862857Y-79912142D01*
X151981904Y-79971666D01*
X154243809Y-80745476D02*
X153827142Y-80150238D01*
X153529523Y-80745476D02*
X153529523Y-79495476D01*
X154005714Y-79495476D01*
X154124761Y-79555000D01*
X154184285Y-79614523D01*
X154243809Y-79733571D01*
X154243809Y-79912142D01*
X154184285Y-80031190D01*
X154124761Y-80090714D01*
X154005714Y-80150238D01*
X153529523Y-80150238D01*
X154779523Y-80745476D02*
X154779523Y-79912142D01*
X154779523Y-79495476D02*
X154720000Y-79555000D01*
X154779523Y-79614523D01*
X154839047Y-79555000D01*
X154779523Y-79495476D01*
X154779523Y-79614523D01*
X155910476Y-80685952D02*
X155791428Y-80745476D01*
X155553333Y-80745476D01*
X155434285Y-80685952D01*
X155374761Y-80626428D01*
X155315238Y-80507380D01*
X155315238Y-80150238D01*
X155374761Y-80031190D01*
X155434285Y-79971666D01*
X155553333Y-79912142D01*
X155791428Y-79912142D01*
X155910476Y-79971666D01*
X156981904Y-80745476D02*
X156981904Y-80090714D01*
X156922380Y-79971666D01*
X156803333Y-79912142D01*
X156565238Y-79912142D01*
X156446190Y-79971666D01*
X156981904Y-80685952D02*
X156862857Y-80745476D01*
X156565238Y-80745476D01*
X156446190Y-80685952D01*
X156386666Y-80566904D01*
X156386666Y-80447857D01*
X156446190Y-80328809D01*
X156565238Y-80269285D01*
X156862857Y-80269285D01*
X156981904Y-80209761D01*
X157577142Y-80745476D02*
X157577142Y-79912142D01*
X157577142Y-80150238D02*
X157636666Y-80031190D01*
X157696190Y-79971666D01*
X157815238Y-79912142D01*
X157934285Y-79912142D01*
X158886666Y-80745476D02*
X158886666Y-79495476D01*
X158886666Y-80685952D02*
X158767619Y-80745476D01*
X158529523Y-80745476D01*
X158410476Y-80685952D01*
X158350952Y-80626428D01*
X158291428Y-80507380D01*
X158291428Y-80150238D01*
X158350952Y-80031190D01*
X158410476Y-79971666D01*
X158529523Y-79912142D01*
X158767619Y-79912142D01*
X158886666Y-79971666D01*
X159660476Y-80745476D02*
X159541428Y-80685952D01*
X159481904Y-80626428D01*
X159422380Y-80507380D01*
X159422380Y-80150238D01*
X159481904Y-80031190D01*
X159541428Y-79971666D01*
X159660476Y-79912142D01*
X159839047Y-79912142D01*
X159958095Y-79971666D01*
X160017619Y-80031190D01*
X160077142Y-80150238D01*
X160077142Y-80507380D01*
X160017619Y-80626428D01*
X159958095Y-80685952D01*
X159839047Y-80745476D01*
X159660476Y-80745476D01*
X161505714Y-80685952D02*
X161684285Y-80745476D01*
X161981904Y-80745476D01*
X162100952Y-80685952D01*
X162160476Y-80626428D01*
X162220000Y-80507380D01*
X162220000Y-80388333D01*
X162160476Y-80269285D01*
X162100952Y-80209761D01*
X161981904Y-80150238D01*
X161743809Y-80090714D01*
X161624761Y-80031190D01*
X161565238Y-79971666D01*
X161505714Y-79852619D01*
X161505714Y-79733571D01*
X161565238Y-79614523D01*
X161624761Y-79555000D01*
X161743809Y-79495476D01*
X162041428Y-79495476D01*
X162220000Y-79555000D01*
X163291428Y-80745476D02*
X163291428Y-80090714D01*
X163231904Y-79971666D01*
X163112857Y-79912142D01*
X162874761Y-79912142D01*
X162755714Y-79971666D01*
X163291428Y-80685952D02*
X163172380Y-80745476D01*
X162874761Y-80745476D01*
X162755714Y-80685952D01*
X162696190Y-80566904D01*
X162696190Y-80447857D01*
X162755714Y-80328809D01*
X162874761Y-80269285D01*
X163172380Y-80269285D01*
X163291428Y-80209761D01*
X163886666Y-79912142D02*
X163886666Y-80745476D01*
X163886666Y-80031190D02*
X163946190Y-79971666D01*
X164065238Y-79912142D01*
X164243809Y-79912142D01*
X164362857Y-79971666D01*
X164422380Y-80090714D01*
X164422380Y-80745476D01*
X164898571Y-79912142D02*
X165553333Y-79912142D01*
X164898571Y-80745476D01*
X165553333Y-80745476D01*
D12*
X88622857Y-67038571D02*
X88480000Y-66967142D01*
X88408571Y-66895714D01*
X88337142Y-66752857D01*
X88337142Y-66324285D01*
X88408571Y-66181428D01*
X88480000Y-66110000D01*
X88622857Y-66038571D01*
X88837142Y-66038571D01*
X88980000Y-66110000D01*
X89051428Y-66181428D01*
X89122857Y-66324285D01*
X89122857Y-66752857D01*
X89051428Y-66895714D01*
X88980000Y-66967142D01*
X88837142Y-67038571D01*
X88622857Y-67038571D01*
D13*
%TO.C,LEDs1*%
X213676080Y-59133809D02*
X213676080Y-59610000D01*
X212676080Y-59610000D01*
X213152271Y-58800476D02*
X213152271Y-58467142D01*
X213676080Y-58324285D02*
X213676080Y-58800476D01*
X212676080Y-58800476D01*
X212676080Y-58324285D01*
X213676080Y-57895714D02*
X212676080Y-57895714D01*
X212676080Y-57657619D01*
X212723700Y-57514761D01*
X212818938Y-57419523D01*
X212914176Y-57371904D01*
X213104652Y-57324285D01*
X213247509Y-57324285D01*
X213437985Y-57371904D01*
X213533223Y-57419523D01*
X213628461Y-57514761D01*
X213676080Y-57657619D01*
X213676080Y-57895714D01*
X213628461Y-56943333D02*
X213676080Y-56848095D01*
X213676080Y-56657619D01*
X213628461Y-56562380D01*
X213533223Y-56514761D01*
X213485604Y-56514761D01*
X213390366Y-56562380D01*
X213342747Y-56657619D01*
X213342747Y-56800476D01*
X213295128Y-56895714D01*
X213199890Y-56943333D01*
X213152271Y-56943333D01*
X213057033Y-56895714D01*
X213009414Y-56800476D01*
X213009414Y-56657619D01*
X213057033Y-56562380D01*
X213676080Y-55562380D02*
X213676080Y-56133809D01*
X213676080Y-55848095D02*
X212676080Y-55848095D01*
X212818938Y-55943333D01*
X212914176Y-56038571D01*
X212961795Y-56133809D01*
X210586080Y-63104285D02*
X210586080Y-63675714D01*
X210586080Y-63390000D02*
X209586080Y-63390000D01*
X209728938Y-63485238D01*
X209824176Y-63580476D01*
X209871795Y-63675714D01*
X209919414Y-51029523D02*
X210586080Y-51029523D01*
X209538461Y-51267619D02*
X210252747Y-51505714D01*
X210252747Y-50886666D01*
%TO.C,Rows1*%
X187039930Y-56501880D02*
X186706597Y-56025690D01*
X186468502Y-56501880D02*
X186468502Y-55501880D01*
X186849454Y-55501880D01*
X186944692Y-55549500D01*
X186992311Y-55597119D01*
X187039930Y-55692357D01*
X187039930Y-55835214D01*
X186992311Y-55930452D01*
X186944692Y-55978071D01*
X186849454Y-56025690D01*
X186468502Y-56025690D01*
X187611359Y-56501880D02*
X187516121Y-56454261D01*
X187468502Y-56406642D01*
X187420883Y-56311404D01*
X187420883Y-56025690D01*
X187468502Y-55930452D01*
X187516121Y-55882833D01*
X187611359Y-55835214D01*
X187754216Y-55835214D01*
X187849454Y-55882833D01*
X187897073Y-55930452D01*
X187944692Y-56025690D01*
X187944692Y-56311404D01*
X187897073Y-56406642D01*
X187849454Y-56454261D01*
X187754216Y-56501880D01*
X187611359Y-56501880D01*
X188278026Y-55835214D02*
X188468502Y-56501880D01*
X188658978Y-56025690D01*
X188849454Y-56501880D01*
X189039930Y-55835214D01*
X189373264Y-56454261D02*
X189468502Y-56501880D01*
X189658978Y-56501880D01*
X189754216Y-56454261D01*
X189801835Y-56359023D01*
X189801835Y-56311404D01*
X189754216Y-56216166D01*
X189658978Y-56168547D01*
X189516121Y-56168547D01*
X189420883Y-56120928D01*
X189373264Y-56025690D01*
X189373264Y-55978071D01*
X189420883Y-55882833D01*
X189516121Y-55835214D01*
X189658978Y-55835214D01*
X189754216Y-55882833D01*
X190754216Y-56501880D02*
X190182788Y-56501880D01*
X190468502Y-56501880D02*
X190468502Y-55501880D01*
X190373264Y-55644738D01*
X190278026Y-55739976D01*
X190182788Y-55787595D01*
X171963264Y-53701880D02*
X171391835Y-53701880D01*
X171677550Y-53701880D02*
X171677550Y-52701880D01*
X171582311Y-52844738D01*
X171487073Y-52939976D01*
X171391835Y-52987595D01*
X204237073Y-53711880D02*
X203665645Y-53711880D01*
X203951359Y-53711880D02*
X203951359Y-52711880D01*
X203856121Y-52854738D01*
X203760883Y-52949976D01*
X203665645Y-52997595D01*
X205094216Y-52711880D02*
X204903740Y-52711880D01*
X204808502Y-52759500D01*
X204760883Y-52807119D01*
X204665645Y-52949976D01*
X204618026Y-53140452D01*
X204618026Y-53521404D01*
X204665645Y-53616642D01*
X204713264Y-53664261D01*
X204808502Y-53711880D01*
X204998978Y-53711880D01*
X205094216Y-53664261D01*
X205141835Y-53616642D01*
X205189454Y-53521404D01*
X205189454Y-53283309D01*
X205141835Y-53188071D01*
X205094216Y-53140452D01*
X204998978Y-53092833D01*
X204808502Y-53092833D01*
X204713264Y-53140452D01*
X204665645Y-53188071D01*
X204618026Y-53283309D01*
%TO.C,Columns1*%
X114419523Y-51717980D02*
X113848095Y-51717980D01*
X114133809Y-51717980D02*
X114133809Y-50717980D01*
X114038571Y-50860838D01*
X113943333Y-50956076D01*
X113848095Y-51003695D01*
X115276666Y-50717980D02*
X115086190Y-50717980D01*
X114990952Y-50765600D01*
X114943333Y-50813219D01*
X114848095Y-50956076D01*
X114800476Y-51146552D01*
X114800476Y-51527504D01*
X114848095Y-51622742D01*
X114895714Y-51670361D01*
X114990952Y-51717980D01*
X115181428Y-51717980D01*
X115276666Y-51670361D01*
X115324285Y-51622742D01*
X115371904Y-51527504D01*
X115371904Y-51289409D01*
X115324285Y-51194171D01*
X115276666Y-51146552D01*
X115181428Y-51098933D01*
X114990952Y-51098933D01*
X114895714Y-51146552D01*
X114848095Y-51194171D01*
X114800476Y-51289409D01*
X156925714Y-51712380D02*
X156354285Y-51712380D01*
X156640000Y-51712380D02*
X156640000Y-50712380D01*
X156544761Y-50855238D01*
X156449523Y-50950476D01*
X156354285Y-50998095D01*
D10*
%TO.C,R3*%
X88520000Y-59517221D02*
X88520000Y-59842779D01*
X89540000Y-59517221D02*
X89540000Y-59842779D01*
%TO.C,C3*%
X82150000Y-72447221D02*
X82150000Y-72772779D01*
X83170000Y-72447221D02*
X83170000Y-72772779D01*
%TO.C,U2*%
X79150000Y-64790000D02*
X79150000Y-68550000D01*
X79150000Y-68550000D02*
X80410000Y-68550000D01*
X85970000Y-68550000D02*
X84710000Y-68550000D01*
X85970000Y-62540000D02*
X85970000Y-68550000D01*
%TO.C,R4*%
X87520000Y-59517221D02*
X87520000Y-59842779D01*
X86500000Y-59517221D02*
X86500000Y-59842779D01*
%TO.C,R5*%
X98957221Y-64430000D02*
X99282779Y-64430000D01*
X98957221Y-65450000D02*
X99282779Y-65450000D01*
%TO.C,R10*%
X99282779Y-63850000D02*
X98957221Y-63850000D01*
X99282779Y-62830000D02*
X98957221Y-62830000D01*
%TO.C,Debug1*%
X95280000Y-83545000D02*
X74420000Y-83545000D01*
X95280000Y-74195000D02*
X95280000Y-83545000D01*
X74170000Y-83795000D02*
X76710000Y-83795000D01*
X74170000Y-83795000D02*
X74170000Y-81255000D01*
X74420000Y-83545000D02*
X74420000Y-74195000D01*
X74420000Y-74195000D02*
X95280000Y-74195000D01*
%TO.C,C5*%
X119030000Y-73077221D02*
X119030000Y-73402779D01*
X118010000Y-73077221D02*
X118010000Y-73402779D01*
%TO.C,R6*%
X114682779Y-74750000D02*
X114357221Y-74750000D01*
X114682779Y-73730000D02*
X114357221Y-73730000D01*
%TO.C,SW1*%
X104010000Y-79110000D02*
X104010000Y-81810000D01*
X97710000Y-83560000D02*
X97710000Y-83110000D01*
X104010000Y-83110000D02*
X104010000Y-83560000D01*
X104010000Y-77360000D02*
X97710000Y-77360000D01*
X104010000Y-83560000D02*
X97710000Y-83560000D01*
X97710000Y-81810000D02*
X97710000Y-79110000D01*
X104010000Y-77810000D02*
X104010000Y-77360000D01*
X97710000Y-77360000D02*
X97710000Y-77760000D01*
%TO.C,boot_selector1*%
X95285000Y-72745000D02*
X87545000Y-72745000D01*
X95285000Y-70145000D02*
X95285000Y-72745000D01*
X87545000Y-67545000D02*
X87545000Y-72745000D01*
X92685000Y-70145000D02*
X95285000Y-70145000D01*
X92685000Y-67545000D02*
X92685000Y-70145000D01*
X95285000Y-67545000D02*
X95285000Y-68875000D01*
X92685000Y-67545000D02*
X87545000Y-67545000D01*
X93955000Y-67545000D02*
X95285000Y-67545000D01*
%TO.C,U1*%
X108270000Y-57884689D02*
X107951802Y-58202887D01*
X113057113Y-62671802D02*
X113375311Y-62990000D01*
X103164689Y-62990000D02*
X103482887Y-62671802D01*
X108588198Y-67777113D02*
X109500366Y-68689281D01*
X103482887Y-63308198D02*
X103164689Y-62990000D01*
X113375311Y-62990000D02*
X113057113Y-63308198D01*
X108588198Y-58202887D02*
X108270000Y-57884689D01*
X107951802Y-67777113D02*
X108270000Y-68095311D01*
X108270000Y-68095311D02*
X108588198Y-67777113D01*
%TO.C,C6*%
X110010000Y-73077221D02*
X110010000Y-73402779D01*
X111030000Y-73077221D02*
X111030000Y-73402779D01*
%TO.C,Y1*%
X117570000Y-69690000D02*
X111820000Y-69690000D01*
X117570000Y-73290000D02*
X117570000Y-69690000D01*
X111820000Y-73290000D02*
X117570000Y-73290000D01*
%TO.C,LED2*%
X103900000Y-76665000D02*
X103900000Y-73980000D01*
X101980000Y-73980000D02*
X101980000Y-76665000D01*
X101980000Y-76665000D02*
X103900000Y-76665000D01*
%TO.C,R2*%
X101470000Y-74677221D02*
X101470000Y-75002779D01*
X100450000Y-74677221D02*
X100450000Y-75002779D01*
%TO.C,R17*%
X99282779Y-67050000D02*
X98957221Y-67050000D01*
X99282779Y-66030000D02*
X98957221Y-66030000D01*
%TO.C,R18*%
X99282779Y-61230000D02*
X98957221Y-61230000D01*
X99282779Y-62250000D02*
X98957221Y-62250000D01*
%TO.C,R13*%
X196100000Y-57838748D02*
X196100000Y-58361252D01*
X197520000Y-57838748D02*
X197520000Y-58361252D01*
%TO.C,R12*%
X193560000Y-57813748D02*
X193560000Y-58336252D01*
X194980000Y-57813748D02*
X194980000Y-58336252D01*
%TO.C,R15*%
X202600000Y-57783748D02*
X202600000Y-58306252D01*
X201180000Y-57783748D02*
X201180000Y-58306252D01*
%TO.C,R14*%
X200060000Y-57838748D02*
X200060000Y-58361252D01*
X198640000Y-57838748D02*
X198640000Y-58361252D01*
%TO.C,R7*%
X191018578Y-61410000D02*
X190501422Y-61410000D01*
X191018578Y-59990000D02*
X190501422Y-59990000D01*
%TO.C,R8*%
X191018578Y-62020000D02*
X190501422Y-62020000D01*
X191018578Y-63440000D02*
X190501422Y-63440000D01*
%TO.C,R9*%
X191018578Y-65510000D02*
X190501422Y-65510000D01*
X191018578Y-64090000D02*
X190501422Y-64090000D01*
%TO.C,C1*%
X77245279Y-61030000D02*
X76919721Y-61030000D01*
X77245279Y-62050000D02*
X76919721Y-62050000D01*
%TO.C,LED1*%
X70730000Y-52740000D02*
X70730000Y-50055000D01*
X68810000Y-50055000D02*
X68810000Y-52740000D01*
X70730000Y-50055000D02*
X68810000Y-50055000D01*
%TO.C,R1*%
X76907221Y-59230000D02*
X77232779Y-59230000D01*
X76907221Y-60250000D02*
X77232779Y-60250000D01*
D14*
%TO.C,MODELH_LOGO*%
X133670367Y-72284416D02*
X133823886Y-72614104D01*
X133823886Y-72614104D02*
X133972263Y-72933090D01*
X133972263Y-72933090D02*
X134110120Y-73229784D01*
X134110120Y-73229784D02*
X134232075Y-73492595D01*
X134232075Y-73492595D02*
X134332749Y-73709931D01*
X134332749Y-73709931D02*
X134406763Y-73870201D01*
X134406763Y-73870201D02*
X134439708Y-73941967D01*
X134439708Y-73941967D02*
X134516004Y-74095170D01*
X134516004Y-74095170D02*
X134577436Y-74191061D01*
X134577436Y-74191061D02*
X134617280Y-74219460D01*
X134617280Y-74219460D02*
X134621383Y-74216883D01*
X134621383Y-74216883D02*
X134643404Y-74173939D01*
X134643404Y-74173939D02*
X134694946Y-74063298D01*
X134694946Y-74063298D02*
X134771633Y-73894851D01*
X134771633Y-73894851D02*
X134869088Y-73678485D01*
X134869088Y-73678485D02*
X134982934Y-73424088D01*
X134982934Y-73424088D02*
X135108793Y-73141549D01*
X135108793Y-73141549D02*
X135242289Y-72840756D01*
X135242289Y-72840756D02*
X135379045Y-72531599D01*
X135379045Y-72531599D02*
X135514683Y-72223964D01*
X135514683Y-72223964D02*
X135644827Y-71927742D01*
X135644827Y-71927742D02*
X135765099Y-71652819D01*
X135765099Y-71652819D02*
X135871123Y-71409085D01*
X135871123Y-71409085D02*
X135958521Y-71206428D01*
X135958521Y-71206428D02*
X136022916Y-71054736D01*
X136022916Y-71054736D02*
X136048306Y-70993250D01*
X136048306Y-70993250D02*
X136074270Y-70977342D01*
X136074270Y-70977342D02*
X136142642Y-70964707D01*
X136142642Y-70964707D02*
X136260561Y-70955050D01*
X136260561Y-70955050D02*
X136435167Y-70948079D01*
X136435167Y-70948079D02*
X136673598Y-70943499D01*
X136673598Y-70943499D02*
X136982996Y-70941016D01*
X136982996Y-70941016D02*
X137335196Y-70940333D01*
X137335196Y-70940333D02*
X138600667Y-70940333D01*
X138600667Y-70940333D02*
X138600667Y-71617667D01*
X138600667Y-71617667D02*
X137923333Y-71617667D01*
X137923333Y-71617667D02*
X137923333Y-77205667D01*
X137923333Y-77205667D02*
X138600667Y-77205667D01*
X138600667Y-77205667D02*
X138600667Y-77840667D01*
X138600667Y-77840667D02*
X135595000Y-77840667D01*
X135595000Y-77840667D02*
X135595000Y-77209091D01*
X135595000Y-77209091D02*
X135944250Y-77196795D01*
X135944250Y-77196795D02*
X136293500Y-77184500D01*
X136293500Y-77184500D02*
X136304419Y-74676250D01*
X136304419Y-74676250D02*
X136305861Y-74224157D01*
X136305861Y-74224157D02*
X136306201Y-73798252D01*
X136306201Y-73798252D02*
X136305500Y-73405897D01*
X136305500Y-73405897D02*
X136303820Y-73054452D01*
X136303820Y-73054452D02*
X136301224Y-72751278D01*
X136301224Y-72751278D02*
X136297774Y-72503738D01*
X136297774Y-72503738D02*
X136293531Y-72319192D01*
X136293531Y-72319192D02*
X136288559Y-72205001D01*
X136288559Y-72205001D02*
X136283252Y-72168389D01*
X136283252Y-72168389D02*
X136258086Y-72205926D01*
X136258086Y-72205926D02*
X136208168Y-72309809D01*
X136208168Y-72309809D02*
X136139091Y-72467344D01*
X136139091Y-72467344D02*
X136056452Y-72665834D01*
X136056452Y-72665834D02*
X135980102Y-72856306D01*
X135980102Y-72856306D02*
X135906011Y-73037129D01*
X135906011Y-73037129D02*
X135807825Y-73265960D01*
X135807825Y-73265960D02*
X135689553Y-73534284D01*
X135689553Y-73534284D02*
X135555202Y-73833586D01*
X135555202Y-73833586D02*
X135408780Y-74155351D01*
X135408780Y-74155351D02*
X135254294Y-74491064D01*
X135254294Y-74491064D02*
X135095753Y-74832211D01*
X135095753Y-74832211D02*
X134937163Y-75170277D01*
X134937163Y-75170277D02*
X134782532Y-75496747D01*
X134782532Y-75496747D02*
X134635868Y-75803105D01*
X134635868Y-75803105D02*
X134501179Y-76080838D01*
X134501179Y-76080838D02*
X134382473Y-76321429D01*
X134382473Y-76321429D02*
X134283756Y-76516366D01*
X134283756Y-76516366D02*
X134209036Y-76657132D01*
X134209036Y-76657132D02*
X134162322Y-76735212D01*
X134162322Y-76735212D02*
X134148419Y-76747999D01*
X134148419Y-76747999D02*
X134118189Y-76697071D01*
X134118189Y-76697071D02*
X134057331Y-76578096D01*
X134057331Y-76578096D02*
X133970068Y-76400186D01*
X133970068Y-76400186D02*
X133860625Y-76172455D01*
X133860625Y-76172455D02*
X133733224Y-75904016D01*
X133733224Y-75904016D02*
X133592090Y-75603982D01*
X133592090Y-75603982D02*
X133441446Y-75281467D01*
X133441446Y-75281467D02*
X133285515Y-74945584D01*
X133285515Y-74945584D02*
X133128522Y-74605445D01*
X133128522Y-74605445D02*
X132974690Y-74270165D01*
X132974690Y-74270165D02*
X132828242Y-73948856D01*
X132828242Y-73948856D02*
X132693402Y-73650631D01*
X132693402Y-73650631D02*
X132574393Y-73384605D01*
X132574393Y-73384605D02*
X132475440Y-73159890D01*
X132475440Y-73159890D02*
X132400766Y-72985599D01*
X132400766Y-72985599D02*
X132370334Y-72911432D01*
X132370334Y-72911432D02*
X132281774Y-72691314D01*
X132281774Y-72691314D02*
X132201862Y-72495967D01*
X132201862Y-72495967D02*
X132136795Y-72340287D01*
X132136795Y-72340287D02*
X132092769Y-72239171D01*
X132092769Y-72239171D02*
X132078709Y-72210333D01*
X132078709Y-72210333D02*
X132071499Y-72238982D01*
X132071499Y-72238982D02*
X132064815Y-72346563D01*
X132064815Y-72346563D02*
X132058746Y-72527346D01*
X132058746Y-72527346D02*
X132053382Y-72775599D01*
X132053382Y-72775599D02*
X132048813Y-73085588D01*
X132048813Y-73085588D02*
X132045127Y-73451581D01*
X132045127Y-73451581D02*
X132042414Y-73867848D01*
X132042414Y-73867848D02*
X132040764Y-74328655D01*
X132040764Y-74328655D02*
X132040287Y-74676250D01*
X132040287Y-74676250D02*
X132039000Y-77205667D01*
X132039000Y-77205667D02*
X132716333Y-77205667D01*
X132716333Y-77205667D02*
X132716333Y-77840667D01*
X132716333Y-77840667D02*
X130557333Y-77840667D01*
X130557333Y-77840667D02*
X130557333Y-77205667D01*
X130557333Y-77205667D02*
X131234667Y-77205667D01*
X131234667Y-77205667D02*
X131234667Y-71617667D01*
X131234667Y-71617667D02*
X130557333Y-71617667D01*
X130557333Y-71617667D02*
X130557333Y-70940333D01*
X130557333Y-70940333D02*
X133044151Y-70940333D01*
X133044151Y-70940333D02*
X133670367Y-72284416D01*
X133670367Y-72284416D02*
X133670367Y-72284416D01*
G36*
X133670367Y-72284416D02*
G01*
X133823886Y-72614104D01*
X133972263Y-72933090D01*
X134110120Y-73229784D01*
X134232075Y-73492595D01*
X134332749Y-73709931D01*
X134406763Y-73870201D01*
X134439708Y-73941967D01*
X134516004Y-74095170D01*
X134577436Y-74191061D01*
X134617280Y-74219460D01*
X134621383Y-74216883D01*
X134643404Y-74173939D01*
X134694946Y-74063298D01*
X134771633Y-73894851D01*
X134869088Y-73678485D01*
X134982934Y-73424088D01*
X135108793Y-73141549D01*
X135242289Y-72840756D01*
X135379045Y-72531599D01*
X135514683Y-72223964D01*
X135644827Y-71927742D01*
X135765099Y-71652819D01*
X135871123Y-71409085D01*
X135958521Y-71206428D01*
X136022916Y-71054736D01*
X136048306Y-70993250D01*
X136074270Y-70977342D01*
X136142642Y-70964707D01*
X136260561Y-70955050D01*
X136435167Y-70948079D01*
X136673598Y-70943499D01*
X136982996Y-70941016D01*
X137335196Y-70940333D01*
X138600667Y-70940333D01*
X138600667Y-71617667D01*
X137923333Y-71617667D01*
X137923333Y-77205667D01*
X138600667Y-77205667D01*
X138600667Y-77840667D01*
X135595000Y-77840667D01*
X135595000Y-77209091D01*
X135944250Y-77196795D01*
X136293500Y-77184500D01*
X136304419Y-74676250D01*
X136305861Y-74224157D01*
X136306201Y-73798252D01*
X136305500Y-73405897D01*
X136303820Y-73054452D01*
X136301224Y-72751278D01*
X136297774Y-72503738D01*
X136293531Y-72319192D01*
X136288559Y-72205001D01*
X136283252Y-72168389D01*
X136258086Y-72205926D01*
X136208168Y-72309809D01*
X136139091Y-72467344D01*
X136056452Y-72665834D01*
X135980102Y-72856306D01*
X135906011Y-73037129D01*
X135807825Y-73265960D01*
X135689553Y-73534284D01*
X135555202Y-73833586D01*
X135408780Y-74155351D01*
X135254294Y-74491064D01*
X135095753Y-74832211D01*
X134937163Y-75170277D01*
X134782532Y-75496747D01*
X134635868Y-75803105D01*
X134501179Y-76080838D01*
X134382473Y-76321429D01*
X134283756Y-76516366D01*
X134209036Y-76657132D01*
X134162322Y-76735212D01*
X134148419Y-76747999D01*
X134118189Y-76697071D01*
X134057331Y-76578096D01*
X133970068Y-76400186D01*
X133860625Y-76172455D01*
X133733224Y-75904016D01*
X133592090Y-75603982D01*
X133441446Y-75281467D01*
X133285515Y-74945584D01*
X133128522Y-74605445D01*
X132974690Y-74270165D01*
X132828242Y-73948856D01*
X132693402Y-73650631D01*
X132574393Y-73384605D01*
X132475440Y-73159890D01*
X132400766Y-72985599D01*
X132370334Y-72911432D01*
X132281774Y-72691314D01*
X132201862Y-72495967D01*
X132136795Y-72340287D01*
X132092769Y-72239171D01*
X132078709Y-72210333D01*
X132071499Y-72238982D01*
X132064815Y-72346563D01*
X132058746Y-72527346D01*
X132053382Y-72775599D01*
X132048813Y-73085588D01*
X132045127Y-73451581D01*
X132042414Y-73867848D01*
X132040764Y-74328655D01*
X132040287Y-74676250D01*
X132039000Y-77205667D01*
X132716333Y-77205667D01*
X132716333Y-77840667D01*
X130557333Y-77840667D01*
X130557333Y-77205667D01*
X131234667Y-77205667D01*
X131234667Y-71617667D01*
X130557333Y-71617667D01*
X130557333Y-70940333D01*
X133044151Y-70940333D01*
X133670367Y-72284416D01*
G37*
X133670367Y-72284416D02*
X133823886Y-72614104D01*
X133972263Y-72933090D01*
X134110120Y-73229784D01*
X134232075Y-73492595D01*
X134332749Y-73709931D01*
X134406763Y-73870201D01*
X134439708Y-73941967D01*
X134516004Y-74095170D01*
X134577436Y-74191061D01*
X134617280Y-74219460D01*
X134621383Y-74216883D01*
X134643404Y-74173939D01*
X134694946Y-74063298D01*
X134771633Y-73894851D01*
X134869088Y-73678485D01*
X134982934Y-73424088D01*
X135108793Y-73141549D01*
X135242289Y-72840756D01*
X135379045Y-72531599D01*
X135514683Y-72223964D01*
X135644827Y-71927742D01*
X135765099Y-71652819D01*
X135871123Y-71409085D01*
X135958521Y-71206428D01*
X136022916Y-71054736D01*
X136048306Y-70993250D01*
X136074270Y-70977342D01*
X136142642Y-70964707D01*
X136260561Y-70955050D01*
X136435167Y-70948079D01*
X136673598Y-70943499D01*
X136982996Y-70941016D01*
X137335196Y-70940333D01*
X138600667Y-70940333D01*
X138600667Y-71617667D01*
X137923333Y-71617667D01*
X137923333Y-77205667D01*
X138600667Y-77205667D01*
X138600667Y-77840667D01*
X135595000Y-77840667D01*
X135595000Y-77209091D01*
X135944250Y-77196795D01*
X136293500Y-77184500D01*
X136304419Y-74676250D01*
X136305861Y-74224157D01*
X136306201Y-73798252D01*
X136305500Y-73405897D01*
X136303820Y-73054452D01*
X136301224Y-72751278D01*
X136297774Y-72503738D01*
X136293531Y-72319192D01*
X136288559Y-72205001D01*
X136283252Y-72168389D01*
X136258086Y-72205926D01*
X136208168Y-72309809D01*
X136139091Y-72467344D01*
X136056452Y-72665834D01*
X135980102Y-72856306D01*
X135906011Y-73037129D01*
X135807825Y-73265960D01*
X135689553Y-73534284D01*
X135555202Y-73833586D01*
X135408780Y-74155351D01*
X135254294Y-74491064D01*
X135095753Y-74832211D01*
X134937163Y-75170277D01*
X134782532Y-75496747D01*
X134635868Y-75803105D01*
X134501179Y-76080838D01*
X134382473Y-76321429D01*
X134283756Y-76516366D01*
X134209036Y-76657132D01*
X134162322Y-76735212D01*
X134148419Y-76747999D01*
X134118189Y-76697071D01*
X134057331Y-76578096D01*
X133970068Y-76400186D01*
X133860625Y-76172455D01*
X133733224Y-75904016D01*
X133592090Y-75603982D01*
X133441446Y-75281467D01*
X133285515Y-74945584D01*
X133128522Y-74605445D01*
X132974690Y-74270165D01*
X132828242Y-73948856D01*
X132693402Y-73650631D01*
X132574393Y-73384605D01*
X132475440Y-73159890D01*
X132400766Y-72985599D01*
X132370334Y-72911432D01*
X132281774Y-72691314D01*
X132201862Y-72495967D01*
X132136795Y-72340287D01*
X132092769Y-72239171D01*
X132078709Y-72210333D01*
X132071499Y-72238982D01*
X132064815Y-72346563D01*
X132058746Y-72527346D01*
X132053382Y-72775599D01*
X132048813Y-73085588D01*
X132045127Y-73451581D01*
X132042414Y-73867848D01*
X132040764Y-74328655D01*
X132040287Y-74676250D01*
X132039000Y-77205667D01*
X132716333Y-77205667D01*
X132716333Y-77840667D01*
X130557333Y-77840667D01*
X130557333Y-77205667D01*
X131234667Y-77205667D01*
X131234667Y-71617667D01*
X130557333Y-71617667D01*
X130557333Y-70940333D01*
X133044151Y-70940333D01*
X133670367Y-72284416D01*
X142378681Y-72588227D02*
X142814878Y-72699425D01*
X142814878Y-72699425D02*
X143207206Y-72880949D01*
X143207206Y-72880949D02*
X143551613Y-73129688D01*
X143551613Y-73129688D02*
X143844046Y-73442529D01*
X143844046Y-73442529D02*
X144080454Y-73816359D01*
X144080454Y-73816359D02*
X144256784Y-74248065D01*
X144256784Y-74248065D02*
X144297916Y-74390500D01*
X144297916Y-74390500D02*
X144342852Y-74632014D01*
X144342852Y-74632014D02*
X144369972Y-74928898D01*
X144369972Y-74928898D02*
X144379259Y-75253748D01*
X144379259Y-75253748D02*
X144370700Y-75579160D01*
X144370700Y-75579160D02*
X144344277Y-75877730D01*
X144344277Y-75877730D02*
X144299975Y-76122053D01*
X144299975Y-76122053D02*
X144298915Y-76126167D01*
X144298915Y-76126167D02*
X144153537Y-76543630D01*
X144153537Y-76543630D02*
X143947699Y-76922943D01*
X143947699Y-76922943D02*
X143689580Y-77253431D01*
X143689580Y-77253431D02*
X143387357Y-77524420D01*
X143387357Y-77524420D02*
X143088000Y-77706865D01*
X143088000Y-77706865D02*
X142700108Y-77853421D01*
X142700108Y-77853421D02*
X142271423Y-77939509D01*
X142271423Y-77939509D02*
X141822526Y-77962985D01*
X141822526Y-77962985D02*
X141373997Y-77921705D01*
X141373997Y-77921705D02*
X141251026Y-77898196D01*
X141251026Y-77898196D02*
X140828499Y-77767402D01*
X140828499Y-77767402D02*
X140454236Y-77567927D01*
X140454236Y-77567927D02*
X140130818Y-77302371D01*
X140130818Y-77302371D02*
X139860825Y-76973338D01*
X139860825Y-76973338D02*
X139646837Y-76583430D01*
X139646837Y-76583430D02*
X139491434Y-76135248D01*
X139491434Y-76135248D02*
X139487329Y-76119476D01*
X139487329Y-76119476D02*
X139430419Y-75809130D01*
X139430419Y-75809130D02*
X139401773Y-75450726D01*
X139401773Y-75450726D02*
X139401576Y-75257761D01*
X139401576Y-75257761D02*
X140988562Y-75257761D01*
X140988562Y-75257761D02*
X140989931Y-75571308D01*
X140989931Y-75571308D02*
X140994597Y-75871207D01*
X140994597Y-75871207D02*
X141002564Y-76143654D01*
X141002564Y-76143654D02*
X141013832Y-76374845D01*
X141013832Y-76374845D02*
X141028405Y-76550976D01*
X141028405Y-76550976D02*
X141046284Y-76658245D01*
X141046284Y-76658245D02*
X141049054Y-76666992D01*
X141049054Y-76666992D02*
X141172493Y-76898746D01*
X141172493Y-76898746D02*
X141355291Y-77084216D01*
X141355291Y-77084216D02*
X141498748Y-77171109D01*
X141498748Y-77171109D02*
X141705148Y-77230011D01*
X141705148Y-77230011D02*
X141943752Y-77240013D01*
X141943752Y-77240013D02*
X142180781Y-77203458D01*
X142180781Y-77203458D02*
X142382457Y-77122684D01*
X142382457Y-77122684D02*
X142405492Y-77108282D01*
X142405492Y-77108282D02*
X142554386Y-76971549D01*
X142554386Y-76971549D02*
X142670121Y-76795710D01*
X142670121Y-76795710D02*
X142699038Y-76734291D01*
X142699038Y-76734291D02*
X142721926Y-76673814D01*
X142721926Y-76673814D02*
X142739616Y-76603703D01*
X142739616Y-76603703D02*
X142752937Y-76513382D01*
X142752937Y-76513382D02*
X142762720Y-76392273D01*
X142762720Y-76392273D02*
X142769793Y-76229801D01*
X142769793Y-76229801D02*
X142774988Y-76015389D01*
X142774988Y-76015389D02*
X142779134Y-75738461D01*
X142779134Y-75738461D02*
X142783060Y-75388440D01*
X142783060Y-75388440D02*
X142783448Y-75351384D01*
X142783448Y-75351384D02*
X142786546Y-74938772D01*
X142786546Y-74938772D02*
X142785476Y-74601212D01*
X142785476Y-74601212D02*
X142778883Y-74329134D01*
X142778883Y-74329134D02*
X142765413Y-74112968D01*
X142765413Y-74112968D02*
X142743711Y-73943145D01*
X142743711Y-73943145D02*
X142712424Y-73810098D01*
X142712424Y-73810098D02*
X142670196Y-73704255D01*
X142670196Y-73704255D02*
X142615674Y-73616050D01*
X142615674Y-73616050D02*
X142547504Y-73535911D01*
X142547504Y-73535911D02*
X142522963Y-73510786D01*
X142522963Y-73510786D02*
X142322794Y-73364694D01*
X142322794Y-73364694D02*
X142094660Y-73285798D01*
X142094660Y-73285798D02*
X141854297Y-73270338D01*
X141854297Y-73270338D02*
X141617436Y-73314556D01*
X141617436Y-73314556D02*
X141399813Y-73414692D01*
X141399813Y-73414692D02*
X141217160Y-73566985D01*
X141217160Y-73566985D02*
X141085211Y-73767678D01*
X141085211Y-73767678D02*
X141049485Y-73862868D01*
X141049485Y-73862868D02*
X141031111Y-73968428D01*
X141031111Y-73968428D02*
X141016023Y-74143162D01*
X141016023Y-74143162D02*
X141004222Y-74373266D01*
X141004222Y-74373266D02*
X140995710Y-74644936D01*
X140995710Y-74644936D02*
X140990489Y-74944369D01*
X140990489Y-74944369D02*
X140988562Y-75257761D01*
X140988562Y-75257761D02*
X139401576Y-75257761D01*
X139401576Y-75257761D02*
X139401390Y-75076016D01*
X139401390Y-75076016D02*
X139429271Y-74716752D01*
X139429271Y-74716752D02*
X139485415Y-74404686D01*
X139485415Y-74404686D02*
X139487329Y-74397190D01*
X139487329Y-74397190D02*
X139642050Y-73945793D01*
X139642050Y-73945793D02*
X139856798Y-73553180D01*
X139856798Y-73553180D02*
X140128455Y-73221738D01*
X140128455Y-73221738D02*
X140453902Y-72953850D01*
X140453902Y-72953850D02*
X140830020Y-72751900D01*
X140830020Y-72751900D02*
X141253692Y-72618273D01*
X141253692Y-72618273D02*
X141721798Y-72555353D01*
X141721798Y-72555353D02*
X141902667Y-72550470D01*
X141902667Y-72550470D02*
X142378681Y-72588227D01*
X142378681Y-72588227D02*
X142378681Y-72588227D01*
G36*
X139429271Y-74716752D02*
G01*
X139485415Y-74404686D01*
X139487329Y-74397190D01*
X139642050Y-73945793D01*
X139856798Y-73553180D01*
X140128455Y-73221738D01*
X140453902Y-72953850D01*
X140830020Y-72751900D01*
X141253692Y-72618273D01*
X141721798Y-72555353D01*
X141902667Y-72550470D01*
X142378681Y-72588227D01*
X142814878Y-72699425D01*
X143207206Y-72880949D01*
X143551613Y-73129688D01*
X143844046Y-73442529D01*
X144080454Y-73816359D01*
X144256784Y-74248065D01*
X144297916Y-74390500D01*
X144342852Y-74632014D01*
X144369972Y-74928898D01*
X144379259Y-75253748D01*
X144370700Y-75579160D01*
X144344277Y-75877730D01*
X144299975Y-76122053D01*
X144298915Y-76126167D01*
X144153537Y-76543630D01*
X143947699Y-76922943D01*
X143689580Y-77253431D01*
X143387357Y-77524420D01*
X143088000Y-77706865D01*
X142700108Y-77853421D01*
X142271423Y-77939509D01*
X141822526Y-77962985D01*
X141373997Y-77921705D01*
X141251026Y-77898196D01*
X140828499Y-77767402D01*
X140454236Y-77567927D01*
X140130818Y-77302371D01*
X139860825Y-76973338D01*
X139646837Y-76583430D01*
X139491434Y-76135248D01*
X139487329Y-76119476D01*
X139430419Y-75809130D01*
X139401773Y-75450726D01*
X139401576Y-75257761D01*
X140988562Y-75257761D01*
X140989931Y-75571308D01*
X140994597Y-75871207D01*
X141002564Y-76143654D01*
X141013832Y-76374845D01*
X141028405Y-76550976D01*
X141046284Y-76658245D01*
X141049054Y-76666992D01*
X141172493Y-76898746D01*
X141355291Y-77084216D01*
X141498748Y-77171109D01*
X141705148Y-77230011D01*
X141943752Y-77240013D01*
X142180781Y-77203458D01*
X142382457Y-77122684D01*
X142405492Y-77108282D01*
X142554386Y-76971549D01*
X142670121Y-76795710D01*
X142699038Y-76734291D01*
X142721926Y-76673814D01*
X142739616Y-76603703D01*
X142752937Y-76513382D01*
X142762720Y-76392273D01*
X142769793Y-76229801D01*
X142774988Y-76015389D01*
X142779134Y-75738461D01*
X142783060Y-75388440D01*
X142783448Y-75351384D01*
X142786546Y-74938772D01*
X142785476Y-74601212D01*
X142778883Y-74329134D01*
X142765413Y-74112968D01*
X142743711Y-73943145D01*
X142712424Y-73810098D01*
X142670196Y-73704255D01*
X142615674Y-73616050D01*
X142547504Y-73535911D01*
X142522963Y-73510786D01*
X142322794Y-73364694D01*
X142094660Y-73285798D01*
X141854297Y-73270338D01*
X141617436Y-73314556D01*
X141399813Y-73414692D01*
X141217160Y-73566985D01*
X141085211Y-73767678D01*
X141049485Y-73862868D01*
X141031111Y-73968428D01*
X141016023Y-74143162D01*
X141004222Y-74373266D01*
X140995710Y-74644936D01*
X140990489Y-74944369D01*
X140988562Y-75257761D01*
X139401576Y-75257761D01*
X139401390Y-75076016D01*
X139429271Y-74716752D01*
G37*
X139429271Y-74716752D02*
X139485415Y-74404686D01*
X139487329Y-74397190D01*
X139642050Y-73945793D01*
X139856798Y-73553180D01*
X140128455Y-73221738D01*
X140453902Y-72953850D01*
X140830020Y-72751900D01*
X141253692Y-72618273D01*
X141721798Y-72555353D01*
X141902667Y-72550470D01*
X142378681Y-72588227D01*
X142814878Y-72699425D01*
X143207206Y-72880949D01*
X143551613Y-73129688D01*
X143844046Y-73442529D01*
X144080454Y-73816359D01*
X144256784Y-74248065D01*
X144297916Y-74390500D01*
X144342852Y-74632014D01*
X144369972Y-74928898D01*
X144379259Y-75253748D01*
X144370700Y-75579160D01*
X144344277Y-75877730D01*
X144299975Y-76122053D01*
X144298915Y-76126167D01*
X144153537Y-76543630D01*
X143947699Y-76922943D01*
X143689580Y-77253431D01*
X143387357Y-77524420D01*
X143088000Y-77706865D01*
X142700108Y-77853421D01*
X142271423Y-77939509D01*
X141822526Y-77962985D01*
X141373997Y-77921705D01*
X141251026Y-77898196D01*
X140828499Y-77767402D01*
X140454236Y-77567927D01*
X140130818Y-77302371D01*
X139860825Y-76973338D01*
X139646837Y-76583430D01*
X139491434Y-76135248D01*
X139487329Y-76119476D01*
X139430419Y-75809130D01*
X139401773Y-75450726D01*
X139401576Y-75257761D01*
X140988562Y-75257761D01*
X140989931Y-75571308D01*
X140994597Y-75871207D01*
X141002564Y-76143654D01*
X141013832Y-76374845D01*
X141028405Y-76550976D01*
X141046284Y-76658245D01*
X141049054Y-76666992D01*
X141172493Y-76898746D01*
X141355291Y-77084216D01*
X141498748Y-77171109D01*
X141705148Y-77230011D01*
X141943752Y-77240013D01*
X142180781Y-77203458D01*
X142382457Y-77122684D01*
X142405492Y-77108282D01*
X142554386Y-76971549D01*
X142670121Y-76795710D01*
X142699038Y-76734291D01*
X142721926Y-76673814D01*
X142739616Y-76603703D01*
X142752937Y-76513382D01*
X142762720Y-76392273D01*
X142769793Y-76229801D01*
X142774988Y-76015389D01*
X142779134Y-75738461D01*
X142783060Y-75388440D01*
X142783448Y-75351384D01*
X142786546Y-74938772D01*
X142785476Y-74601212D01*
X142778883Y-74329134D01*
X142765413Y-74112968D01*
X142743711Y-73943145D01*
X142712424Y-73810098D01*
X142670196Y-73704255D01*
X142615674Y-73616050D01*
X142547504Y-73535911D01*
X142522963Y-73510786D01*
X142322794Y-73364694D01*
X142094660Y-73285798D01*
X141854297Y-73270338D01*
X141617436Y-73314556D01*
X141399813Y-73414692D01*
X141217160Y-73566985D01*
X141085211Y-73767678D01*
X141049485Y-73862868D01*
X141031111Y-73968428D01*
X141016023Y-74143162D01*
X141004222Y-74373266D01*
X140995710Y-74644936D01*
X140990489Y-74944369D01*
X140988562Y-75257761D01*
X139401576Y-75257761D01*
X139401390Y-75076016D01*
X139429271Y-74716752D01*
X165651667Y-71617667D02*
X164974333Y-71617667D01*
X164974333Y-71617667D02*
X164974333Y-73946000D01*
X164974333Y-73946000D02*
X167556667Y-73946000D01*
X167556667Y-73946000D02*
X167556667Y-71617667D01*
X167556667Y-71617667D02*
X166879333Y-71617667D01*
X166879333Y-71617667D02*
X166879333Y-70940333D01*
X166879333Y-70940333D02*
X169885000Y-70940333D01*
X169885000Y-70940333D02*
X169885000Y-71617667D01*
X169885000Y-71617667D02*
X169207667Y-71617667D01*
X169207667Y-71617667D02*
X169207667Y-77205667D01*
X169207667Y-77205667D02*
X169885000Y-77205667D01*
X169885000Y-77205667D02*
X169885000Y-77840667D01*
X169885000Y-77840667D02*
X166879333Y-77840667D01*
X166879333Y-77840667D02*
X166879333Y-77205667D01*
X166879333Y-77205667D02*
X167556667Y-77205667D01*
X167556667Y-77205667D02*
X167556667Y-74665667D01*
X167556667Y-74665667D02*
X164974333Y-74665667D01*
X164974333Y-74665667D02*
X164974333Y-77205667D01*
X164974333Y-77205667D02*
X165651667Y-77205667D01*
X165651667Y-77205667D02*
X165651667Y-77840667D01*
X165651667Y-77840667D02*
X162646000Y-77840667D01*
X162646000Y-77840667D02*
X162646000Y-77205667D01*
X162646000Y-77205667D02*
X163323333Y-77205667D01*
X163323333Y-77205667D02*
X163323333Y-71617667D01*
X163323333Y-71617667D02*
X162646000Y-71617667D01*
X162646000Y-71617667D02*
X162646000Y-70940333D01*
X162646000Y-70940333D02*
X165651667Y-70940333D01*
X165651667Y-70940333D02*
X165651667Y-71617667D01*
X165651667Y-71617667D02*
X165651667Y-71617667D01*
G36*
X165651667Y-71617667D02*
G01*
X164974333Y-71617667D01*
X164974333Y-73946000D01*
X167556667Y-73946000D01*
X167556667Y-71617667D01*
X166879333Y-71617667D01*
X166879333Y-70940333D01*
X169885000Y-70940333D01*
X169885000Y-71617667D01*
X169207667Y-71617667D01*
X169207667Y-77205667D01*
X169885000Y-77205667D01*
X169885000Y-77840667D01*
X166879333Y-77840667D01*
X166879333Y-77205667D01*
X167556667Y-77205667D01*
X167556667Y-74665667D01*
X164974333Y-74665667D01*
X164974333Y-77205667D01*
X165651667Y-77205667D01*
X165651667Y-77840667D01*
X162646000Y-77840667D01*
X162646000Y-77205667D01*
X163323333Y-77205667D01*
X163323333Y-71617667D01*
X162646000Y-71617667D01*
X162646000Y-70940333D01*
X165651667Y-70940333D01*
X165651667Y-71617667D01*
G37*
X165651667Y-71617667D02*
X164974333Y-71617667D01*
X164974333Y-73946000D01*
X167556667Y-73946000D01*
X167556667Y-71617667D01*
X166879333Y-71617667D01*
X166879333Y-70940333D01*
X169885000Y-70940333D01*
X169885000Y-71617667D01*
X169207667Y-71617667D01*
X169207667Y-77205667D01*
X169885000Y-77205667D01*
X169885000Y-77840667D01*
X166879333Y-77840667D01*
X166879333Y-77205667D01*
X167556667Y-77205667D01*
X167556667Y-74665667D01*
X164974333Y-74665667D01*
X164974333Y-77205667D01*
X165651667Y-77205667D01*
X165651667Y-77840667D01*
X162646000Y-77840667D01*
X162646000Y-77205667D01*
X163323333Y-77205667D01*
X163323333Y-71617667D01*
X162646000Y-71617667D01*
X162646000Y-70940333D01*
X165651667Y-70940333D01*
X165651667Y-71617667D01*
X150241911Y-70364572D02*
X150250772Y-70415242D01*
X150250772Y-70415242D02*
X150258408Y-70505590D01*
X150258408Y-70505590D02*
X150264896Y-70640304D01*
X150264896Y-70640304D02*
X150270313Y-70824073D01*
X150270313Y-70824073D02*
X150274734Y-71061586D01*
X150274734Y-71061586D02*
X150278235Y-71357532D01*
X150278235Y-71357532D02*
X150280894Y-71716598D01*
X150280894Y-71716598D02*
X150282787Y-72143474D01*
X150282787Y-72143474D02*
X150283989Y-72642849D01*
X150283989Y-72642849D02*
X150284577Y-73219411D01*
X150284577Y-73219411D02*
X150284667Y-73600975D01*
X150284667Y-73600975D02*
X150284667Y-76854284D01*
X150284667Y-76854284D02*
X150570417Y-76913559D01*
X150570417Y-76913559D02*
X150856167Y-76972833D01*
X150856167Y-76972833D02*
X150868569Y-77253537D01*
X150868569Y-77253537D02*
X150873540Y-77403648D01*
X150873540Y-77403648D02*
X150866988Y-77490211D01*
X150866988Y-77490211D02*
X150841754Y-77534231D01*
X150841754Y-77534231D02*
X150790678Y-77556714D01*
X150790678Y-77556714D02*
X150762736Y-77564048D01*
X150762736Y-77564048D02*
X150696931Y-77578691D01*
X150696931Y-77578691D02*
X150566079Y-77606300D01*
X150566079Y-77606300D02*
X150384284Y-77644012D01*
X150384284Y-77644012D02*
X150165650Y-77688962D01*
X150165650Y-77688962D02*
X149924282Y-77738285D01*
X149924282Y-77738285D02*
X149674283Y-77789117D01*
X149674283Y-77789117D02*
X149429757Y-77838594D01*
X149429757Y-77838594D02*
X149204808Y-77883851D01*
X149204808Y-77883851D02*
X149013541Y-77922024D01*
X149013541Y-77922024D02*
X148870060Y-77950248D01*
X148870060Y-77950248D02*
X148788467Y-77965660D01*
X148788467Y-77965660D02*
X148775343Y-77967667D01*
X148775343Y-77967667D02*
X148769505Y-77928222D01*
X148769505Y-77928222D02*
X148762825Y-77821410D01*
X148762825Y-77821410D02*
X148756208Y-77664510D01*
X148756208Y-77664510D02*
X148751515Y-77512583D01*
X148751515Y-77512583D02*
X148739500Y-77057500D01*
X148739500Y-77057500D02*
X148647837Y-77226833D01*
X148647837Y-77226833D02*
X148530923Y-77395368D01*
X148530923Y-77395368D02*
X148368141Y-77570260D01*
X148368141Y-77570260D02*
X148189638Y-77720586D01*
X148189638Y-77720586D02*
X148122385Y-77765806D01*
X148122385Y-77765806D02*
X147876905Y-77875647D01*
X147876905Y-77875647D02*
X147582539Y-77941227D01*
X147582539Y-77941227D02*
X147264072Y-77960009D01*
X147264072Y-77960009D02*
X146946290Y-77929456D01*
X146946290Y-77929456D02*
X146813333Y-77899800D01*
X146813333Y-77899800D02*
X146466709Y-77764112D01*
X146466709Y-77764112D02*
X146154495Y-77554387D01*
X146154495Y-77554387D02*
X145881299Y-77275834D01*
X145881299Y-77275834D02*
X145651730Y-76933664D01*
X145651730Y-76933664D02*
X145470395Y-76533087D01*
X145470395Y-76533087D02*
X145394478Y-76295500D01*
X145394478Y-76295500D02*
X145350872Y-76079197D01*
X145350872Y-76079197D02*
X145319548Y-75803316D01*
X145319548Y-75803316D02*
X145301077Y-75492131D01*
X145301077Y-75492131D02*
X145296033Y-75169918D01*
X145296033Y-75169918D02*
X145304989Y-74860952D01*
X145304989Y-74860952D02*
X145310225Y-74800534D01*
X145310225Y-74800534D02*
X146902291Y-74800534D01*
X146902291Y-74800534D02*
X146903606Y-75126182D01*
X146903606Y-75126182D02*
X146905837Y-75324547D01*
X146905837Y-75324547D02*
X146910404Y-75653451D01*
X146910404Y-75653451D02*
X146915430Y-75909164D01*
X146915430Y-75909164D02*
X146921895Y-76103161D01*
X146921895Y-76103161D02*
X146930775Y-76246916D01*
X146930775Y-76246916D02*
X146943051Y-76351904D01*
X146943051Y-76351904D02*
X146959699Y-76429598D01*
X146959699Y-76429598D02*
X146981700Y-76491474D01*
X146981700Y-76491474D02*
X147010030Y-76549005D01*
X147010030Y-76549005D02*
X147010297Y-76549500D01*
X147010297Y-76549500D02*
X147166497Y-76773002D01*
X147166497Y-76773002D02*
X147360072Y-76924978D01*
X147360072Y-76924978D02*
X147599781Y-77010463D01*
X147599781Y-77010463D02*
X147854425Y-77034676D01*
X147854425Y-77034676D02*
X148062959Y-77020528D01*
X148062959Y-77020528D02*
X148235258Y-76968652D01*
X148235258Y-76968652D02*
X148298925Y-76937796D01*
X148298925Y-76937796D02*
X148494595Y-76787831D01*
X148494595Y-76787831D02*
X148612500Y-76634340D01*
X148612500Y-76634340D02*
X148739500Y-76429420D01*
X148739500Y-76429420D02*
X148752838Y-75369194D01*
X148752838Y-75369194D02*
X148756193Y-74989850D01*
X148756193Y-74989850D02*
X148754826Y-74684359D01*
X148754826Y-74684359D02*
X148747438Y-74441976D01*
X148747438Y-74441976D02*
X148732731Y-74251955D01*
X148732731Y-74251955D02*
X148709406Y-74103552D01*
X148709406Y-74103552D02*
X148676164Y-73986022D01*
X148676164Y-73986022D02*
X148631705Y-73888620D01*
X148631705Y-73888620D02*
X148574732Y-73800601D01*
X148574732Y-73800601D02*
X148560992Y-73782219D01*
X148560992Y-73782219D02*
X148389896Y-73623218D01*
X148389896Y-73623218D02*
X148174199Y-73520637D01*
X148174199Y-73520637D02*
X147932536Y-73474594D01*
X147932536Y-73474594D02*
X147683541Y-73485209D01*
X147683541Y-73485209D02*
X147445851Y-73552600D01*
X147445851Y-73552600D02*
X147238098Y-73676886D01*
X147238098Y-73676886D02*
X147140298Y-73773138D01*
X147140298Y-73773138D02*
X147067806Y-73865176D01*
X147067806Y-73865176D02*
X147011003Y-73956547D01*
X147011003Y-73956547D02*
X146968173Y-74058598D01*
X146968173Y-74058598D02*
X146937601Y-74182676D01*
X146937601Y-74182676D02*
X146917573Y-74340127D01*
X146917573Y-74340127D02*
X146906375Y-74542297D01*
X146906375Y-74542297D02*
X146902291Y-74800534D01*
X146902291Y-74800534D02*
X145310225Y-74800534D01*
X145310225Y-74800534D02*
X145328517Y-74589508D01*
X145328517Y-74589508D02*
X145350917Y-74449496D01*
X145350917Y-74449496D02*
X145478080Y-73983235D01*
X145478080Y-73983235D02*
X145658617Y-73575189D01*
X145658617Y-73575189D02*
X145890245Y-73229314D01*
X145890245Y-73229314D02*
X146170678Y-72949567D01*
X146170678Y-72949567D02*
X146253312Y-72886711D01*
X146253312Y-72886711D02*
X146480659Y-72742887D01*
X146480659Y-72742887D02*
X146703700Y-72647458D01*
X146703700Y-72647458D02*
X146948356Y-72592905D01*
X146948356Y-72592905D02*
X147240551Y-72571706D01*
X147240551Y-72571706D02*
X147342500Y-72570728D01*
X147342500Y-72570728D02*
X147551852Y-72573957D01*
X147551852Y-72573957D02*
X147703404Y-72585990D01*
X147703404Y-72585990D02*
X147823911Y-72611329D01*
X147823911Y-72611329D02*
X147940131Y-72654476D01*
X147940131Y-72654476D02*
X147998667Y-72681141D01*
X147998667Y-72681141D02*
X148188032Y-72793033D01*
X148188032Y-72793033D02*
X148371180Y-72940066D01*
X148371180Y-72940066D02*
X148525147Y-73100875D01*
X148525147Y-73100875D02*
X148626972Y-73254093D01*
X148626972Y-73254093D02*
X148635922Y-73274112D01*
X148635922Y-73274112D02*
X148681812Y-73359128D01*
X148681812Y-73359128D02*
X148722692Y-73395641D01*
X148722692Y-73395641D02*
X148723469Y-73395667D01*
X148723469Y-73395667D02*
X148734079Y-73355310D01*
X148734079Y-73355310D02*
X148743511Y-73242143D01*
X148743511Y-73242143D02*
X148751308Y-73068019D01*
X148751308Y-73068019D02*
X148757016Y-72844791D01*
X148757016Y-72844791D02*
X148760178Y-72584312D01*
X148760178Y-72584312D02*
X148760667Y-72427896D01*
X148760667Y-72427896D02*
X148760667Y-71460125D01*
X148760667Y-71460125D02*
X148189167Y-71338261D01*
X148189167Y-71338261D02*
X148189167Y-70755285D01*
X148189167Y-70755285D02*
X149184000Y-70552700D01*
X149184000Y-70552700D02*
X149465025Y-70495858D01*
X149465025Y-70495858D02*
X149719714Y-70445073D01*
X149719714Y-70445073D02*
X149935916Y-70402710D01*
X149935916Y-70402710D02*
X150101480Y-70371132D01*
X150101480Y-70371132D02*
X150204255Y-70352703D01*
X150204255Y-70352703D02*
X150231750Y-70348891D01*
X150231750Y-70348891D02*
X150241911Y-70364572D01*
X150241911Y-70364572D02*
X150241911Y-70364572D01*
G36*
X145350917Y-74449496D02*
G01*
X145478080Y-73983235D01*
X145658617Y-73575189D01*
X145890245Y-73229314D01*
X146170678Y-72949567D01*
X146253312Y-72886711D01*
X146480659Y-72742887D01*
X146703700Y-72647458D01*
X146948356Y-72592905D01*
X147240551Y-72571706D01*
X147342500Y-72570728D01*
X147551852Y-72573957D01*
X147703404Y-72585990D01*
X147823911Y-72611329D01*
X147940131Y-72654476D01*
X147998667Y-72681141D01*
X148188032Y-72793033D01*
X148371180Y-72940066D01*
X148525147Y-73100875D01*
X148626972Y-73254093D01*
X148635922Y-73274112D01*
X148681812Y-73359128D01*
X148722692Y-73395641D01*
X148723469Y-73395667D01*
X148734079Y-73355310D01*
X148743511Y-73242143D01*
X148751308Y-73068019D01*
X148757016Y-72844791D01*
X148760178Y-72584312D01*
X148760667Y-72427896D01*
X148760667Y-71460125D01*
X148189167Y-71338261D01*
X148189167Y-70755285D01*
X149184000Y-70552700D01*
X149465025Y-70495858D01*
X149719714Y-70445073D01*
X149935916Y-70402710D01*
X150101480Y-70371132D01*
X150204255Y-70352703D01*
X150231750Y-70348891D01*
X150241911Y-70364572D01*
X150250772Y-70415242D01*
X150258408Y-70505590D01*
X150264896Y-70640304D01*
X150270313Y-70824073D01*
X150274734Y-71061586D01*
X150278235Y-71357532D01*
X150280894Y-71716598D01*
X150282787Y-72143474D01*
X150283989Y-72642849D01*
X150284577Y-73219411D01*
X150284667Y-73600975D01*
X150284667Y-76854284D01*
X150570417Y-76913559D01*
X150856167Y-76972833D01*
X150868569Y-77253537D01*
X150873540Y-77403648D01*
X150866988Y-77490211D01*
X150841754Y-77534231D01*
X150790678Y-77556714D01*
X150762736Y-77564048D01*
X150696931Y-77578691D01*
X150566079Y-77606300D01*
X150384284Y-77644012D01*
X150165650Y-77688962D01*
X149924282Y-77738285D01*
X149674283Y-77789117D01*
X149429757Y-77838594D01*
X149204808Y-77883851D01*
X149013541Y-77922024D01*
X148870060Y-77950248D01*
X148788467Y-77965660D01*
X148775343Y-77967667D01*
X148769505Y-77928222D01*
X148762825Y-77821410D01*
X148756208Y-77664510D01*
X148751515Y-77512583D01*
X148739500Y-77057500D01*
X148647837Y-77226833D01*
X148530923Y-77395368D01*
X148368141Y-77570260D01*
X148189638Y-77720586D01*
X148122385Y-77765806D01*
X147876905Y-77875647D01*
X147582539Y-77941227D01*
X147264072Y-77960009D01*
X146946290Y-77929456D01*
X146813333Y-77899800D01*
X146466709Y-77764112D01*
X146154495Y-77554387D01*
X145881299Y-77275834D01*
X145651730Y-76933664D01*
X145470395Y-76533087D01*
X145394478Y-76295500D01*
X145350872Y-76079197D01*
X145319548Y-75803316D01*
X145301077Y-75492131D01*
X145296033Y-75169918D01*
X145304989Y-74860952D01*
X145310225Y-74800534D01*
X146902291Y-74800534D01*
X146903606Y-75126182D01*
X146905837Y-75324547D01*
X146910404Y-75653451D01*
X146915430Y-75909164D01*
X146921895Y-76103161D01*
X146930775Y-76246916D01*
X146943051Y-76351904D01*
X146959699Y-76429598D01*
X146981700Y-76491474D01*
X147010030Y-76549005D01*
X147010297Y-76549500D01*
X147166497Y-76773002D01*
X147360072Y-76924978D01*
X147599781Y-77010463D01*
X147854425Y-77034676D01*
X148062959Y-77020528D01*
X148235258Y-76968652D01*
X148298925Y-76937796D01*
X148494595Y-76787831D01*
X148612500Y-76634340D01*
X148739500Y-76429420D01*
X148752838Y-75369194D01*
X148756193Y-74989850D01*
X148754826Y-74684359D01*
X148747438Y-74441976D01*
X148732731Y-74251955D01*
X148709406Y-74103552D01*
X148676164Y-73986022D01*
X148631705Y-73888620D01*
X148574732Y-73800601D01*
X148560992Y-73782219D01*
X148389896Y-73623218D01*
X148174199Y-73520637D01*
X147932536Y-73474594D01*
X147683541Y-73485209D01*
X147445851Y-73552600D01*
X147238098Y-73676886D01*
X147140298Y-73773138D01*
X147067806Y-73865176D01*
X147011003Y-73956547D01*
X146968173Y-74058598D01*
X146937601Y-74182676D01*
X146917573Y-74340127D01*
X146906375Y-74542297D01*
X146902291Y-74800534D01*
X145310225Y-74800534D01*
X145328517Y-74589508D01*
X145350917Y-74449496D01*
G37*
X145350917Y-74449496D02*
X145478080Y-73983235D01*
X145658617Y-73575189D01*
X145890245Y-73229314D01*
X146170678Y-72949567D01*
X146253312Y-72886711D01*
X146480659Y-72742887D01*
X146703700Y-72647458D01*
X146948356Y-72592905D01*
X147240551Y-72571706D01*
X147342500Y-72570728D01*
X147551852Y-72573957D01*
X147703404Y-72585990D01*
X147823911Y-72611329D01*
X147940131Y-72654476D01*
X147998667Y-72681141D01*
X148188032Y-72793033D01*
X148371180Y-72940066D01*
X148525147Y-73100875D01*
X148626972Y-73254093D01*
X148635922Y-73274112D01*
X148681812Y-73359128D01*
X148722692Y-73395641D01*
X148723469Y-73395667D01*
X148734079Y-73355310D01*
X148743511Y-73242143D01*
X148751308Y-73068019D01*
X148757016Y-72844791D01*
X148760178Y-72584312D01*
X148760667Y-72427896D01*
X148760667Y-71460125D01*
X148189167Y-71338261D01*
X148189167Y-70755285D01*
X149184000Y-70552700D01*
X149465025Y-70495858D01*
X149719714Y-70445073D01*
X149935916Y-70402710D01*
X150101480Y-70371132D01*
X150204255Y-70352703D01*
X150231750Y-70348891D01*
X150241911Y-70364572D01*
X150250772Y-70415242D01*
X150258408Y-70505590D01*
X150264896Y-70640304D01*
X150270313Y-70824073D01*
X150274734Y-71061586D01*
X150278235Y-71357532D01*
X150280894Y-71716598D01*
X150282787Y-72143474D01*
X150283989Y-72642849D01*
X150284577Y-73219411D01*
X150284667Y-73600975D01*
X150284667Y-76854284D01*
X150570417Y-76913559D01*
X150856167Y-76972833D01*
X150868569Y-77253537D01*
X150873540Y-77403648D01*
X150866988Y-77490211D01*
X150841754Y-77534231D01*
X150790678Y-77556714D01*
X150762736Y-77564048D01*
X150696931Y-77578691D01*
X150566079Y-77606300D01*
X150384284Y-77644012D01*
X150165650Y-77688962D01*
X149924282Y-77738285D01*
X149674283Y-77789117D01*
X149429757Y-77838594D01*
X149204808Y-77883851D01*
X149013541Y-77922024D01*
X148870060Y-77950248D01*
X148788467Y-77965660D01*
X148775343Y-77967667D01*
X148769505Y-77928222D01*
X148762825Y-77821410D01*
X148756208Y-77664510D01*
X148751515Y-77512583D01*
X148739500Y-77057500D01*
X148647837Y-77226833D01*
X148530923Y-77395368D01*
X148368141Y-77570260D01*
X148189638Y-77720586D01*
X148122385Y-77765806D01*
X147876905Y-77875647D01*
X147582539Y-77941227D01*
X147264072Y-77960009D01*
X146946290Y-77929456D01*
X146813333Y-77899800D01*
X146466709Y-77764112D01*
X146154495Y-77554387D01*
X145881299Y-77275834D01*
X145651730Y-76933664D01*
X145470395Y-76533087D01*
X145394478Y-76295500D01*
X145350872Y-76079197D01*
X145319548Y-75803316D01*
X145301077Y-75492131D01*
X145296033Y-75169918D01*
X145304989Y-74860952D01*
X145310225Y-74800534D01*
X146902291Y-74800534D01*
X146903606Y-75126182D01*
X146905837Y-75324547D01*
X146910404Y-75653451D01*
X146915430Y-75909164D01*
X146921895Y-76103161D01*
X146930775Y-76246916D01*
X146943051Y-76351904D01*
X146959699Y-76429598D01*
X146981700Y-76491474D01*
X147010030Y-76549005D01*
X147010297Y-76549500D01*
X147166497Y-76773002D01*
X147360072Y-76924978D01*
X147599781Y-77010463D01*
X147854425Y-77034676D01*
X148062959Y-77020528D01*
X148235258Y-76968652D01*
X148298925Y-76937796D01*
X148494595Y-76787831D01*
X148612500Y-76634340D01*
X148739500Y-76429420D01*
X148752838Y-75369194D01*
X148756193Y-74989850D01*
X148754826Y-74684359D01*
X148747438Y-74441976D01*
X148732731Y-74251955D01*
X148709406Y-74103552D01*
X148676164Y-73986022D01*
X148631705Y-73888620D01*
X148574732Y-73800601D01*
X148560992Y-73782219D01*
X148389896Y-73623218D01*
X148174199Y-73520637D01*
X147932536Y-73474594D01*
X147683541Y-73485209D01*
X147445851Y-73552600D01*
X147238098Y-73676886D01*
X147140298Y-73773138D01*
X147067806Y-73865176D01*
X147011003Y-73956547D01*
X146968173Y-74058598D01*
X146937601Y-74182676D01*
X146917573Y-74340127D01*
X146906375Y-74542297D01*
X146902291Y-74800534D01*
X145310225Y-74800534D01*
X145328517Y-74589508D01*
X145350917Y-74449496D01*
X159046994Y-70365149D02*
X159055670Y-70415343D01*
X159055670Y-70415343D02*
X159063181Y-70504860D01*
X159063181Y-70504860D02*
X159069597Y-70638273D01*
X159069597Y-70638273D02*
X159074989Y-70820154D01*
X159074989Y-70820154D02*
X159079428Y-71055076D01*
X159079428Y-71055076D02*
X159082984Y-71347612D01*
X159082984Y-71347612D02*
X159085729Y-71702335D01*
X159085729Y-71702335D02*
X159087732Y-72123817D01*
X159087732Y-72123817D02*
X159089064Y-72616631D01*
X159089064Y-72616631D02*
X159089796Y-73185350D01*
X159089796Y-73185350D02*
X159090000Y-73776667D01*
X159090000Y-73776667D02*
X159090000Y-77205667D01*
X159090000Y-77205667D02*
X159682667Y-77205667D01*
X159682667Y-77205667D02*
X159682667Y-77840667D01*
X159682667Y-77840667D02*
X156973333Y-77840667D01*
X156973333Y-77840667D02*
X156973333Y-77205667D01*
X156973333Y-77205667D02*
X157566000Y-77205667D01*
X157566000Y-77205667D02*
X157566000Y-71454336D01*
X157566000Y-71454336D02*
X157322583Y-71406501D01*
X157322583Y-71406501D02*
X157151622Y-71372457D01*
X157151622Y-71372457D02*
X157047381Y-71341432D01*
X157047381Y-71341432D02*
X156994279Y-71296569D01*
X156994279Y-71296569D02*
X156976736Y-71221012D01*
X156976736Y-71221012D02*
X156979171Y-71097904D01*
X156979171Y-71097904D02*
X156981969Y-71037992D01*
X156981969Y-71037992D02*
X156994500Y-70753488D01*
X156994500Y-70753488D02*
X157989333Y-70552615D01*
X157989333Y-70552615D02*
X158270409Y-70496209D01*
X158270409Y-70496209D02*
X158525137Y-70445753D01*
X158525137Y-70445753D02*
X158741359Y-70403601D01*
X158741359Y-70403601D02*
X158906916Y-70372107D01*
X158906916Y-70372107D02*
X159009652Y-70353627D01*
X159009652Y-70353627D02*
X159037083Y-70349704D01*
X159037083Y-70349704D02*
X159046994Y-70365149D01*
X159046994Y-70365149D02*
X159046994Y-70365149D01*
G36*
X159046994Y-70365149D02*
G01*
X159055670Y-70415343D01*
X159063181Y-70504860D01*
X159069597Y-70638273D01*
X159074989Y-70820154D01*
X159079428Y-71055076D01*
X159082984Y-71347612D01*
X159085729Y-71702335D01*
X159087732Y-72123817D01*
X159089064Y-72616631D01*
X159089796Y-73185350D01*
X159090000Y-73776667D01*
X159090000Y-77205667D01*
X159682667Y-77205667D01*
X159682667Y-77840667D01*
X156973333Y-77840667D01*
X156973333Y-77205667D01*
X157566000Y-77205667D01*
X157566000Y-71454336D01*
X157322583Y-71406501D01*
X157151622Y-71372457D01*
X157047381Y-71341432D01*
X156994279Y-71296569D01*
X156976736Y-71221012D01*
X156979171Y-71097904D01*
X156981969Y-71037992D01*
X156994500Y-70753488D01*
X157989333Y-70552615D01*
X158270409Y-70496209D01*
X158525137Y-70445753D01*
X158741359Y-70403601D01*
X158906916Y-70372107D01*
X159009652Y-70353627D01*
X159037083Y-70349704D01*
X159046994Y-70365149D01*
G37*
X159046994Y-70365149D02*
X159055670Y-70415343D01*
X159063181Y-70504860D01*
X159069597Y-70638273D01*
X159074989Y-70820154D01*
X159079428Y-71055076D01*
X159082984Y-71347612D01*
X159085729Y-71702335D01*
X159087732Y-72123817D01*
X159089064Y-72616631D01*
X159089796Y-73185350D01*
X159090000Y-73776667D01*
X159090000Y-77205667D01*
X159682667Y-77205667D01*
X159682667Y-77840667D01*
X156973333Y-77840667D01*
X156973333Y-77205667D01*
X157566000Y-77205667D01*
X157566000Y-71454336D01*
X157322583Y-71406501D01*
X157151622Y-71372457D01*
X157047381Y-71341432D01*
X156994279Y-71296569D01*
X156976736Y-71221012D01*
X156979171Y-71097904D01*
X156981969Y-71037992D01*
X156994500Y-70753488D01*
X157989333Y-70552615D01*
X158270409Y-70496209D01*
X158525137Y-70445753D01*
X158741359Y-70403601D01*
X158906916Y-70372107D01*
X159009652Y-70353627D01*
X159037083Y-70349704D01*
X159046994Y-70365149D01*
X154253954Y-72564414D02*
X154681630Y-72642712D01*
X154681630Y-72642712D02*
X155078848Y-72785466D01*
X155078848Y-72785466D02*
X155433958Y-72989730D01*
X155433958Y-72989730D02*
X155687277Y-73202778D01*
X155687277Y-73202778D02*
X155955578Y-73529301D01*
X155955578Y-73529301D02*
X156153106Y-73902189D01*
X156153106Y-73902189D02*
X156279767Y-74321193D01*
X156279767Y-74321193D02*
X156335466Y-74786063D01*
X156335466Y-74786063D02*
X156338333Y-74926438D01*
X156338333Y-74926438D02*
X156338333Y-75300667D01*
X156338333Y-75300667D02*
X153067023Y-75300667D01*
X153067023Y-75300667D02*
X153095674Y-75671083D01*
X153095674Y-75671083D02*
X153129490Y-75973448D01*
X153129490Y-75973448D02*
X153182866Y-76211146D01*
X153182866Y-76211146D02*
X153262838Y-76403247D01*
X153262838Y-76403247D02*
X153376439Y-76568817D01*
X153376439Y-76568817D02*
X153460563Y-76660262D01*
X153460563Y-76660262D02*
X153693846Y-76836713D01*
X153693846Y-76836713D02*
X153965818Y-76949107D01*
X153965818Y-76949107D02*
X154261675Y-76999012D01*
X154261675Y-76999012D02*
X154566612Y-76987997D01*
X154566612Y-76987997D02*
X154865827Y-76917632D01*
X154865827Y-76917632D02*
X155144514Y-76789486D01*
X155144514Y-76789486D02*
X155387869Y-76605129D01*
X155387869Y-76605129D02*
X155531233Y-76440768D01*
X155531233Y-76440768D02*
X155606757Y-76331679D01*
X155606757Y-76331679D02*
X155659241Y-76246938D01*
X155659241Y-76246938D02*
X155671602Y-76221360D01*
X155671602Y-76221360D02*
X155710935Y-76218615D01*
X155710935Y-76218615D02*
X155797921Y-76252796D01*
X155797921Y-76252796D02*
X155911367Y-76311548D01*
X155911367Y-76311548D02*
X156030082Y-76382514D01*
X156030082Y-76382514D02*
X156132873Y-76453338D01*
X156132873Y-76453338D02*
X156198548Y-76511663D01*
X156198548Y-76511663D02*
X156211333Y-76536056D01*
X156211333Y-76536056D02*
X156192611Y-76593946D01*
X156192611Y-76593946D02*
X156143784Y-76701430D01*
X156143784Y-76701430D02*
X156082865Y-76821013D01*
X156082865Y-76821013D02*
X155863053Y-77147294D01*
X155863053Y-77147294D02*
X155578262Y-77433842D01*
X155578262Y-77433842D02*
X155243757Y-77667935D01*
X155243757Y-77667935D02*
X154874800Y-77836850D01*
X154874800Y-77836850D02*
X154856667Y-77843040D01*
X154856667Y-77843040D02*
X154612904Y-77902511D01*
X154612904Y-77902511D02*
X154317078Y-77940514D01*
X154317078Y-77940514D02*
X153999338Y-77955805D01*
X153999338Y-77955805D02*
X153689836Y-77947142D01*
X153689836Y-77947142D02*
X153418723Y-77913282D01*
X153418723Y-77913282D02*
X153375000Y-77904115D01*
X153375000Y-77904115D02*
X152962112Y-77768647D01*
X152962112Y-77768647D02*
X152588130Y-77561663D01*
X152588130Y-77561663D02*
X152259444Y-77289822D01*
X152259444Y-77289822D02*
X151982439Y-76959781D01*
X151982439Y-76959781D02*
X151763504Y-76578198D01*
X151763504Y-76578198D02*
X151609025Y-76151729D01*
X151609025Y-76151729D02*
X151579946Y-76033143D01*
X151579946Y-76033143D02*
X151534963Y-75744353D01*
X151534963Y-75744353D02*
X151513342Y-75409922D01*
X151513342Y-75409922D02*
X151514780Y-75060336D01*
X151514780Y-75060336D02*
X151538973Y-74726080D01*
X151538973Y-74726080D02*
X151570335Y-74532149D01*
X151570335Y-74532149D02*
X153095055Y-74532149D01*
X153095055Y-74532149D02*
X153097999Y-74614202D01*
X153097999Y-74614202D02*
X153101559Y-74626125D01*
X153101559Y-74626125D02*
X153150059Y-74638728D01*
X153150059Y-74638728D02*
X153270920Y-74649553D01*
X153270920Y-74649553D02*
X153451846Y-74658031D01*
X153451846Y-74658031D02*
X153680540Y-74663592D01*
X153680540Y-74663592D02*
X153944705Y-74665664D01*
X153944705Y-74665664D02*
X153954176Y-74665667D01*
X153954176Y-74665667D02*
X154782356Y-74665667D01*
X154782356Y-74665667D02*
X154764335Y-74295250D01*
X154764335Y-74295250D02*
X154723994Y-73949741D01*
X154723994Y-73949741D02*
X154639273Y-73675489D01*
X154639273Y-73675489D02*
X154508918Y-73470890D01*
X154508918Y-73470890D02*
X154331676Y-73334342D01*
X154331676Y-73334342D02*
X154106294Y-73264240D01*
X154106294Y-73264240D02*
X153949827Y-73253399D01*
X153949827Y-73253399D02*
X153703602Y-73277105D01*
X153703602Y-73277105D02*
X153507285Y-73351178D01*
X153507285Y-73351178D02*
X153355443Y-73481986D01*
X153355443Y-73481986D02*
X153242640Y-73675896D01*
X153242640Y-73675896D02*
X153163444Y-73939275D01*
X153163444Y-73939275D02*
X153117827Y-74228343D01*
X153117827Y-74228343D02*
X153101967Y-74396141D01*
X153101967Y-74396141D02*
X153095055Y-74532149D01*
X153095055Y-74532149D02*
X151570335Y-74532149D01*
X151570335Y-74532149D02*
X151585619Y-74437639D01*
X151585619Y-74437639D02*
X151596263Y-74393379D01*
X151596263Y-74393379D02*
X151748398Y-73945438D01*
X151748398Y-73945438D02*
X151959623Y-73553870D01*
X151959623Y-73553870D02*
X152226636Y-73222021D01*
X152226636Y-73222021D02*
X152546135Y-72953237D01*
X152546135Y-72953237D02*
X152914815Y-72750865D01*
X152914815Y-72750865D02*
X153329373Y-72618249D01*
X153329373Y-72618249D02*
X153353833Y-72612962D01*
X153353833Y-72612962D02*
X153807472Y-72553515D01*
X153807472Y-72553515D02*
X154253954Y-72564414D01*
X154253954Y-72564414D02*
X154253954Y-72564414D01*
G36*
X151596263Y-74393379D02*
G01*
X151748398Y-73945438D01*
X151959623Y-73553870D01*
X152226636Y-73222021D01*
X152546135Y-72953237D01*
X152914815Y-72750865D01*
X153329373Y-72618249D01*
X153353833Y-72612962D01*
X153807472Y-72553515D01*
X154253954Y-72564414D01*
X154681630Y-72642712D01*
X155078848Y-72785466D01*
X155433958Y-72989730D01*
X155687277Y-73202778D01*
X155955578Y-73529301D01*
X156153106Y-73902189D01*
X156279767Y-74321193D01*
X156335466Y-74786063D01*
X156338333Y-74926438D01*
X156338333Y-75300667D01*
X153067023Y-75300667D01*
X153095674Y-75671083D01*
X153129490Y-75973448D01*
X153182866Y-76211146D01*
X153262838Y-76403247D01*
X153376439Y-76568817D01*
X153460563Y-76660262D01*
X153693846Y-76836713D01*
X153965818Y-76949107D01*
X154261675Y-76999012D01*
X154566612Y-76987997D01*
X154865827Y-76917632D01*
X155144514Y-76789486D01*
X155387869Y-76605129D01*
X155531233Y-76440768D01*
X155606757Y-76331679D01*
X155659241Y-76246938D01*
X155671602Y-76221360D01*
X155710935Y-76218615D01*
X155797921Y-76252796D01*
X155911367Y-76311548D01*
X156030082Y-76382514D01*
X156132873Y-76453338D01*
X156198548Y-76511663D01*
X156211333Y-76536056D01*
X156192611Y-76593946D01*
X156143784Y-76701430D01*
X156082865Y-76821013D01*
X155863053Y-77147294D01*
X155578262Y-77433842D01*
X155243757Y-77667935D01*
X154874800Y-77836850D01*
X154856667Y-77843040D01*
X154612904Y-77902511D01*
X154317078Y-77940514D01*
X153999338Y-77955805D01*
X153689836Y-77947142D01*
X153418723Y-77913282D01*
X153375000Y-77904115D01*
X152962112Y-77768647D01*
X152588130Y-77561663D01*
X152259444Y-77289822D01*
X151982439Y-76959781D01*
X151763504Y-76578198D01*
X151609025Y-76151729D01*
X151579946Y-76033143D01*
X151534963Y-75744353D01*
X151513342Y-75409922D01*
X151514780Y-75060336D01*
X151538973Y-74726080D01*
X151570335Y-74532149D01*
X153095055Y-74532149D01*
X153097999Y-74614202D01*
X153101559Y-74626125D01*
X153150059Y-74638728D01*
X153270920Y-74649553D01*
X153451846Y-74658031D01*
X153680540Y-74663592D01*
X153944705Y-74665664D01*
X153954176Y-74665667D01*
X154782356Y-74665667D01*
X154764335Y-74295250D01*
X154723994Y-73949741D01*
X154639273Y-73675489D01*
X154508918Y-73470890D01*
X154331676Y-73334342D01*
X154106294Y-73264240D01*
X153949827Y-73253399D01*
X153703602Y-73277105D01*
X153507285Y-73351178D01*
X153355443Y-73481986D01*
X153242640Y-73675896D01*
X153163444Y-73939275D01*
X153117827Y-74228343D01*
X153101967Y-74396141D01*
X153095055Y-74532149D01*
X151570335Y-74532149D01*
X151585619Y-74437639D01*
X151596263Y-74393379D01*
G37*
X151596263Y-74393379D02*
X151748398Y-73945438D01*
X151959623Y-73553870D01*
X152226636Y-73222021D01*
X152546135Y-72953237D01*
X152914815Y-72750865D01*
X153329373Y-72618249D01*
X153353833Y-72612962D01*
X153807472Y-72553515D01*
X154253954Y-72564414D01*
X154681630Y-72642712D01*
X155078848Y-72785466D01*
X155433958Y-72989730D01*
X155687277Y-73202778D01*
X155955578Y-73529301D01*
X156153106Y-73902189D01*
X156279767Y-74321193D01*
X156335466Y-74786063D01*
X156338333Y-74926438D01*
X156338333Y-75300667D01*
X153067023Y-75300667D01*
X153095674Y-75671083D01*
X153129490Y-75973448D01*
X153182866Y-76211146D01*
X153262838Y-76403247D01*
X153376439Y-76568817D01*
X153460563Y-76660262D01*
X153693846Y-76836713D01*
X153965818Y-76949107D01*
X154261675Y-76999012D01*
X154566612Y-76987997D01*
X154865827Y-76917632D01*
X155144514Y-76789486D01*
X155387869Y-76605129D01*
X155531233Y-76440768D01*
X155606757Y-76331679D01*
X155659241Y-76246938D01*
X155671602Y-76221360D01*
X155710935Y-76218615D01*
X155797921Y-76252796D01*
X155911367Y-76311548D01*
X156030082Y-76382514D01*
X156132873Y-76453338D01*
X156198548Y-76511663D01*
X156211333Y-76536056D01*
X156192611Y-76593946D01*
X156143784Y-76701430D01*
X156082865Y-76821013D01*
X155863053Y-77147294D01*
X155578262Y-77433842D01*
X155243757Y-77667935D01*
X154874800Y-77836850D01*
X154856667Y-77843040D01*
X154612904Y-77902511D01*
X154317078Y-77940514D01*
X153999338Y-77955805D01*
X153689836Y-77947142D01*
X153418723Y-77913282D01*
X153375000Y-77904115D01*
X152962112Y-77768647D01*
X152588130Y-77561663D01*
X152259444Y-77289822D01*
X151982439Y-76959781D01*
X151763504Y-76578198D01*
X151609025Y-76151729D01*
X151579946Y-76033143D01*
X151534963Y-75744353D01*
X151513342Y-75409922D01*
X151514780Y-75060336D01*
X151538973Y-74726080D01*
X151570335Y-74532149D01*
X153095055Y-74532149D01*
X153097999Y-74614202D01*
X153101559Y-74626125D01*
X153150059Y-74638728D01*
X153270920Y-74649553D01*
X153451846Y-74658031D01*
X153680540Y-74663592D01*
X153944705Y-74665664D01*
X153954176Y-74665667D01*
X154782356Y-74665667D01*
X154764335Y-74295250D01*
X154723994Y-73949741D01*
X154639273Y-73675489D01*
X154508918Y-73470890D01*
X154331676Y-73334342D01*
X154106294Y-73264240D01*
X153949827Y-73253399D01*
X153703602Y-73277105D01*
X153507285Y-73351178D01*
X153355443Y-73481986D01*
X153242640Y-73675896D01*
X153163444Y-73939275D01*
X153117827Y-74228343D01*
X153101967Y-74396141D01*
X153095055Y-74532149D01*
X151570335Y-74532149D01*
X151585619Y-74437639D01*
X151596263Y-74393379D01*
D10*
%TO.C,R16*%
X91322500Y-59917258D02*
X91322500Y-59442742D01*
X90277500Y-59917258D02*
X90277500Y-59442742D01*
%TO.C,kibuzzard-61E84BB4*%
G36*
X97306130Y-68547106D02*
G01*
X97332324Y-68602669D01*
X97327561Y-68659819D01*
X97251361Y-68693156D01*
X97153730Y-68715381D01*
X97124361Y-68806662D01*
X97152936Y-68897944D01*
X97238661Y-68920169D01*
X97327561Y-68932869D01*
X97356930Y-68964619D01*
X97365661Y-69024944D01*
X97340658Y-69105906D01*
X97265649Y-69132894D01*
X97005299Y-69132894D01*
X97005299Y-68531231D01*
X97227549Y-68531231D01*
X97306130Y-68547106D01*
G37*
G36*
X99221449Y-68877306D02*
G01*
X99258358Y-68925328D01*
X99270661Y-68993194D01*
X99257564Y-69061456D01*
X99218274Y-69110669D01*
X99113499Y-69150356D01*
X99010311Y-69111463D01*
X98972211Y-69063044D01*
X98959511Y-68995575D01*
X98971814Y-68927908D01*
X99008724Y-68878894D01*
X99115086Y-68839206D01*
X99221449Y-68877306D01*
G37*
G36*
X98268949Y-68877306D02*
G01*
X98305858Y-68925328D01*
X98318161Y-68993194D01*
X98305064Y-69061456D01*
X98265774Y-69110669D01*
X98160999Y-69150356D01*
X98057811Y-69111463D01*
X98019711Y-69063044D01*
X98007011Y-68995575D01*
X98019314Y-68927908D01*
X98056224Y-68878894D01*
X98162586Y-68839206D01*
X98268949Y-68877306D01*
G37*
G36*
X102363243Y-69942386D02*
G01*
X96211681Y-69942386D01*
X95764094Y-69271006D01*
X96724311Y-69271006D01*
X96733836Y-69353556D01*
X96775905Y-69398800D01*
X96864011Y-69413881D01*
X97281524Y-69413881D01*
X97377038Y-69401975D01*
X97462499Y-69366256D01*
X97537905Y-69306725D01*
X97596907Y-69229555D01*
X97633155Y-69140919D01*
X97646649Y-69040819D01*
X97641641Y-68997956D01*
X97726024Y-68997956D01*
X97742891Y-69118408D01*
X97793492Y-69225763D01*
X97868700Y-69314266D01*
X97959386Y-69378163D01*
X98059399Y-69416858D01*
X98162586Y-69429756D01*
X98265575Y-69417652D01*
X98364992Y-69381338D01*
X98455281Y-69319425D01*
X98530886Y-69230525D01*
X98582083Y-69120789D01*
X98598931Y-68997956D01*
X98678524Y-68997956D01*
X98695391Y-69118408D01*
X98745992Y-69225763D01*
X98821200Y-69314266D01*
X98911886Y-69378163D01*
X99011899Y-69416858D01*
X99115086Y-69429756D01*
X99218075Y-69417652D01*
X99317492Y-69381338D01*
X99407781Y-69319425D01*
X99483386Y-69230525D01*
X99534583Y-69120789D01*
X99551649Y-68996369D01*
X99537008Y-68876865D01*
X99493087Y-68772355D01*
X99465970Y-68739194D01*
X99615149Y-68739194D01*
X99638167Y-68831269D01*
X99696111Y-68858256D01*
X99761199Y-68853494D01*
X99761199Y-69088444D01*
X99770724Y-69195512D01*
X99799299Y-69279649D01*
X99846924Y-69340856D01*
X99912893Y-69382308D01*
X99996501Y-69407178D01*
X100097749Y-69415469D01*
X100150930Y-69413088D01*
X100192999Y-69399594D01*
X100226336Y-69357922D01*
X100237449Y-69277356D01*
X100200936Y-69170994D01*
X100158867Y-69155913D01*
X100101717Y-69153531D01*
X100050917Y-69134481D01*
X100037424Y-69072569D01*
X100037424Y-68853494D01*
X100140611Y-68859844D01*
X100195380Y-68857463D01*
X100237449Y-68843969D01*
X100269595Y-68802297D01*
X100280311Y-68721731D01*
X100269992Y-68640372D01*
X100257068Y-68623306D01*
X100729574Y-68623306D01*
X100779580Y-68721731D01*
X100875624Y-68777294D01*
X100986749Y-68728081D01*
X101007386Y-68709031D01*
X101007386Y-69275769D01*
X101009767Y-69333713D01*
X101024849Y-69377369D01*
X101067314Y-69408325D01*
X101147086Y-69418644D01*
X101228842Y-69407928D01*
X101270911Y-69375781D01*
X101285992Y-69333713D01*
X101288374Y-69278944D01*
X101288374Y-68394706D01*
X101280436Y-68310569D01*
X101258211Y-68276437D01*
X101216936Y-68258181D01*
X101141530Y-68250244D01*
X101051836Y-68291519D01*
X101047074Y-68294694D01*
X100786724Y-68529644D01*
X100729574Y-68623306D01*
X100257068Y-68623306D01*
X100239036Y-68599494D01*
X100196967Y-68584412D01*
X100142992Y-68582031D01*
X100037424Y-68588381D01*
X100037424Y-68432806D01*
X100029486Y-68351844D01*
X99987020Y-68307791D01*
X99900899Y-68293106D01*
X99819539Y-68303028D01*
X99778661Y-68332794D01*
X99763580Y-68370894D01*
X99761199Y-68424869D01*
X99761199Y-68588381D01*
X99708811Y-68582031D01*
X99645311Y-68602669D01*
X99623086Y-68644737D01*
X99615149Y-68739194D01*
X99465970Y-68739194D01*
X99419886Y-68682837D01*
X99327635Y-68614487D01*
X99226564Y-68573476D01*
X99116674Y-68559806D01*
X99006607Y-68573565D01*
X98905007Y-68614840D01*
X98811874Y-68683631D01*
X98737790Y-68773590D01*
X98693340Y-68878365D01*
X98678524Y-68997956D01*
X98598931Y-68997956D01*
X98599149Y-68996369D01*
X98584508Y-68876865D01*
X98540587Y-68772355D01*
X98467386Y-68682837D01*
X98375135Y-68614487D01*
X98274064Y-68573476D01*
X98164174Y-68559806D01*
X98054107Y-68573565D01*
X97952507Y-68614840D01*
X97859374Y-68683631D01*
X97785290Y-68773590D01*
X97740840Y-68878365D01*
X97726024Y-68997956D01*
X97641641Y-68997956D01*
X97636242Y-68951742D01*
X97605021Y-68868663D01*
X97552986Y-68791581D01*
X97598230Y-68699903D01*
X97613311Y-68599494D01*
X97601846Y-68507772D01*
X97567450Y-68425222D01*
X97510124Y-68351844D01*
X97439215Y-68295399D01*
X97357724Y-68261533D01*
X97265649Y-68250244D01*
X96865599Y-68250244D01*
X96783842Y-68260959D01*
X96741774Y-68293106D01*
X96726692Y-68334381D01*
X96724311Y-68389944D01*
X96724311Y-69271006D01*
X95764094Y-69271006D01*
X95476757Y-68840000D01*
X96211681Y-67737614D01*
X102363243Y-67737614D01*
X102363243Y-69942386D01*
G37*
%TO.C,kibuzzard-61E18CD3*%
G36*
X114302760Y-54903776D02*
G01*
X123212340Y-54903776D01*
X122530905Y-57175224D01*
X114984195Y-57175224D01*
X114649431Y-56059344D01*
X115496825Y-56059344D01*
X115507342Y-56178605D01*
X115538894Y-56288738D01*
X115586717Y-56384781D01*
X115646050Y-56461775D01*
X115715305Y-56524084D01*
X115792894Y-56576075D01*
X115873459Y-56616159D01*
X115951644Y-56642750D01*
X116028241Y-56657633D01*
X116104044Y-56662594D01*
X116180839Y-56656244D01*
X116260412Y-56637194D01*
X116367569Y-56595919D01*
X116422337Y-56562581D01*
X116472344Y-56522894D01*
X116493775Y-56467331D01*
X116458850Y-56378431D01*
X116403684Y-56311756D01*
X116352487Y-56289531D01*
X116276287Y-56321281D01*
X116247712Y-56341919D01*
X116185006Y-56367319D01*
X116092137Y-56380019D01*
X115989347Y-56362556D01*
X115890525Y-56310169D01*
X115824983Y-56229206D01*
X116574737Y-56229206D01*
X116591605Y-56349658D01*
X116642206Y-56457013D01*
X116717414Y-56545516D01*
X116808100Y-56609413D01*
X116908112Y-56648108D01*
X117011300Y-56661006D01*
X117114289Y-56648902D01*
X117213706Y-56612588D01*
X117303995Y-56550675D01*
X117379600Y-56461775D01*
X117430797Y-56352039D01*
X117436322Y-56311756D01*
X117551050Y-56311756D01*
X117562162Y-56458600D01*
X117595500Y-56559406D01*
X117653444Y-56612191D01*
X117754250Y-56640369D01*
X117881250Y-56647513D01*
X117951100Y-56630844D01*
X117974912Y-56589172D01*
X117982850Y-56508606D01*
X117951100Y-56395894D01*
X117924112Y-56382400D01*
X117880456Y-56380019D01*
X117838387Y-56364938D01*
X117828862Y-56292706D01*
X117828862Y-56226031D01*
X118070162Y-56226031D01*
X118081892Y-56336539D01*
X118117082Y-56435228D01*
X118175731Y-56522100D01*
X118252196Y-56589569D01*
X118340831Y-56630050D01*
X118441637Y-56643544D01*
X118559112Y-56608619D01*
X118601975Y-56573694D01*
X118630550Y-56541944D01*
X118646425Y-56607031D01*
X118687303Y-56635606D01*
X118765488Y-56645131D01*
X118845259Y-56634813D01*
X118887725Y-56603856D01*
X118902806Y-56563375D01*
X118905188Y-56510194D01*
X118905188Y-56507019D01*
X119032188Y-56507019D01*
X119034569Y-56562581D01*
X119048063Y-56603856D01*
X119089734Y-56636003D01*
X119170300Y-56646719D01*
X119251263Y-56636400D01*
X119294125Y-56605444D01*
X119309206Y-56563375D01*
X119311588Y-56508606D01*
X119311588Y-56227619D01*
X119335400Y-56124034D01*
X119406838Y-56089506D01*
X119480656Y-56124034D01*
X119505263Y-56227619D01*
X119505263Y-56505431D01*
X119507644Y-56560200D01*
X119521138Y-56602269D01*
X119562809Y-56635606D01*
X119643375Y-56646719D01*
X119725131Y-56636003D01*
X119767200Y-56603856D01*
X119782281Y-56562581D01*
X119784663Y-56507019D01*
X119784663Y-56229206D01*
X119804506Y-56126019D01*
X119879913Y-56089506D01*
X119953731Y-56124034D01*
X119978338Y-56227619D01*
X119978338Y-56505431D01*
X119980719Y-56560200D01*
X119994213Y-56602269D01*
X120035884Y-56635606D01*
X120116450Y-56646719D01*
X120197809Y-56636003D01*
X120238688Y-56603856D01*
X120253769Y-56561788D01*
X120256150Y-56507019D01*
X120256150Y-56505431D01*
X120383150Y-56505431D01*
X120385531Y-56560200D01*
X120399025Y-56602269D01*
X120440697Y-56634416D01*
X120521263Y-56645131D01*
X120602622Y-56634416D01*
X120643500Y-56602269D01*
X120658581Y-56561788D01*
X120660963Y-56507019D01*
X120660963Y-56226031D01*
X120699856Y-56126019D01*
X120801456Y-56087919D01*
X120901469Y-56124431D01*
X120938775Y-56226031D01*
X120938775Y-56505431D01*
X120948300Y-56586394D01*
X120989575Y-56630447D01*
X121078475Y-56645131D01*
X121160231Y-56634416D01*
X121202300Y-56602269D01*
X121215794Y-56561788D01*
X121217968Y-56511781D01*
X121321363Y-56511781D01*
X121351525Y-56572106D01*
X121447040Y-56621495D01*
X121545200Y-56651128D01*
X121646006Y-56661006D01*
X121742403Y-56655538D01*
X121827334Y-56639134D01*
X121900800Y-56611794D01*
X121987319Y-56525275D01*
X122010536Y-56461180D01*
X122018275Y-56384781D01*
X122010536Y-56309177D01*
X121987319Y-56247463D01*
X121910325Y-56170469D01*
X121810313Y-56130781D01*
X121707125Y-56110144D01*
X121626163Y-56087522D01*
X121599175Y-56048231D01*
X121692838Y-56013306D01*
X121804756Y-56037119D01*
X121875400Y-56060931D01*
X121946838Y-56005369D01*
X121981763Y-55911706D01*
X121926200Y-55848206D01*
X121808725Y-55807725D01*
X121694425Y-55794231D01*
X121570410Y-55804264D01*
X121473953Y-55834363D01*
X121405056Y-55884528D01*
X121363717Y-55954759D01*
X121349938Y-56045056D01*
X121357478Y-56123439D01*
X121380100Y-56190313D01*
X121456300Y-56280006D01*
X121555122Y-56328822D01*
X121654738Y-56354619D01*
X121734509Y-56372875D01*
X121761100Y-56399069D01*
X121736891Y-56427644D01*
X121664263Y-56437169D01*
X121543613Y-56398275D01*
X121438044Y-56359381D01*
X121381688Y-56386369D01*
X121336444Y-56459791D01*
X121321363Y-56511781D01*
X121217968Y-56511781D01*
X121218175Y-56507019D01*
X121218175Y-56227619D01*
X121206445Y-56117111D01*
X121171256Y-56018422D01*
X121112606Y-55931550D01*
X121036318Y-55864081D01*
X120948212Y-55823600D01*
X120848288Y-55810106D01*
X120729225Y-55846619D01*
X120686363Y-55879956D01*
X120657788Y-55911706D01*
X120641913Y-55846619D01*
X120601034Y-55819234D01*
X120522850Y-55810106D01*
X120442284Y-55820028D01*
X120400613Y-55849794D01*
X120385531Y-55890275D01*
X120383150Y-55943456D01*
X120383150Y-56505431D01*
X120256150Y-56505431D01*
X120256150Y-56229206D01*
X120246625Y-56093122D01*
X120218050Y-55985437D01*
X120170425Y-55906150D01*
X120074381Y-55832927D01*
X119957700Y-55808519D01*
X119846575Y-55839475D01*
X119767994Y-55896625D01*
X119725925Y-55946631D01*
X119663836Y-55869902D01*
X119583403Y-55823865D01*
X119484625Y-55808519D01*
X119387391Y-55836697D01*
X119305238Y-55921231D01*
X119278250Y-55838681D01*
X119162363Y-55810106D01*
X119089734Y-55820822D01*
X119049650Y-55852969D01*
X119034569Y-55893450D01*
X119032188Y-55948219D01*
X119032188Y-56507019D01*
X118905188Y-56507019D01*
X118905188Y-55948219D01*
X118902806Y-55893450D01*
X118889313Y-55851381D01*
X118847641Y-55819234D01*
X118767075Y-55808519D01*
X118685716Y-55818837D01*
X118644837Y-55849794D01*
X118629756Y-55891862D01*
X118627375Y-55946631D01*
X118627375Y-56227619D01*
X118588481Y-56327631D01*
X118486881Y-56365731D01*
X118386869Y-56329219D01*
X118349562Y-56227619D01*
X118349562Y-55949806D01*
X118340037Y-55868844D01*
X118297969Y-55823600D01*
X118209862Y-55808519D01*
X118128106Y-55819234D01*
X118086037Y-55851381D01*
X118072544Y-55892656D01*
X118070162Y-55948219D01*
X118070162Y-56226031D01*
X117828862Y-56226031D01*
X117828862Y-55557694D01*
X117826481Y-55502131D01*
X117811400Y-55459269D01*
X117769331Y-55427122D01*
X117690750Y-55416406D01*
X117608994Y-55427122D01*
X117566925Y-55459269D01*
X117553431Y-55501337D01*
X117551050Y-55556106D01*
X117551050Y-56311756D01*
X117436322Y-56311756D01*
X117447862Y-56227619D01*
X117433222Y-56108115D01*
X117389301Y-56003605D01*
X117316100Y-55914087D01*
X117223849Y-55845737D01*
X117122778Y-55804726D01*
X117012887Y-55791056D01*
X116902821Y-55804815D01*
X116801221Y-55846090D01*
X116708087Y-55914881D01*
X116634004Y-56004840D01*
X116589554Y-56109615D01*
X116574737Y-56229206D01*
X115824983Y-56229206D01*
X115809562Y-56210156D01*
X115785750Y-56142489D01*
X115777812Y-56066488D01*
X115785750Y-55990486D01*
X115809562Y-55922819D01*
X115888937Y-55824394D01*
X115989744Y-55770816D01*
X116092137Y-55752956D01*
X116192150Y-55766450D01*
X116269937Y-55806931D01*
X116350900Y-55841856D01*
X116403287Y-55820425D01*
X116462025Y-55756131D01*
X116495362Y-55668025D01*
X116454087Y-55592619D01*
X116409637Y-55564044D01*
X116371537Y-55541819D01*
X116254856Y-55494987D01*
X116178458Y-55477723D01*
X116103250Y-55471969D01*
X115998651Y-55481494D01*
X115894406Y-55510069D01*
X115790512Y-55557694D01*
X115712527Y-55607502D01*
X115643669Y-55668025D01*
X115585130Y-55742637D01*
X115538100Y-55834712D01*
X115507144Y-55941273D01*
X115496825Y-56059344D01*
X114649431Y-56059344D01*
X114302760Y-54903776D01*
G37*
G36*
X117117662Y-56108556D02*
G01*
X117154572Y-56156578D01*
X117166875Y-56224444D01*
X117153778Y-56292706D01*
X117114487Y-56341919D01*
X117009712Y-56381606D01*
X116906525Y-56342713D01*
X116868425Y-56294294D01*
X116855725Y-56226825D01*
X116868028Y-56159158D01*
X116904937Y-56110144D01*
X117011300Y-56070456D01*
X117117662Y-56108556D01*
G37*
%TO.C,kibuzzard-61E67D4F*%
G36*
X108182625Y-80580475D02*
G01*
X108210406Y-80639213D01*
X108150081Y-80690013D01*
X107950056Y-80690013D01*
X108000856Y-80600319D01*
X108103250Y-80558250D01*
X108182625Y-80580475D01*
G37*
G36*
X107253143Y-80314569D02*
G01*
X107299181Y-80420137D01*
X107253143Y-80524912D01*
X107161068Y-80559837D01*
X106957868Y-80559837D01*
X106957868Y-80278850D01*
X107157893Y-80278850D01*
X107253143Y-80314569D01*
G37*
G36*
X111412261Y-81694768D02*
G01*
X106164251Y-81694768D01*
X105713489Y-81018625D01*
X106676881Y-81018625D01*
X106686406Y-81101175D01*
X106728475Y-81145228D01*
X106816581Y-81159913D01*
X106898337Y-81149197D01*
X106940406Y-81117050D01*
X106955487Y-81074981D01*
X106957868Y-81020213D01*
X106957868Y-80840825D01*
X107157893Y-80840825D01*
X107207106Y-80837650D01*
X107268842Y-80983876D01*
X107310117Y-81079656D01*
X107330931Y-81124988D01*
X107360300Y-81155944D01*
X107411100Y-81171025D01*
X107492856Y-81148800D01*
X107566675Y-81102763D01*
X107591281Y-81047200D01*
X107567468Y-80964650D01*
X107523018Y-80863579D01*
X107487035Y-80780500D01*
X107472941Y-80747163D01*
X107654781Y-80747163D01*
X107665893Y-80849644D01*
X107699231Y-80945424D01*
X107754793Y-81034500D01*
X107815714Y-81094627D01*
X107896875Y-81141656D01*
X107994704Y-81172017D01*
X108105631Y-81182138D01*
X108253566Y-81173307D01*
X108359234Y-81146816D01*
X108422635Y-81102663D01*
X108443768Y-81040850D01*
X108439730Y-81026563D01*
X108564418Y-81026563D01*
X108594581Y-81086888D01*
X108690095Y-81136276D01*
X108788256Y-81165910D01*
X108889062Y-81175788D01*
X108985459Y-81170319D01*
X109070390Y-81153915D01*
X109143856Y-81126575D01*
X109230375Y-81040056D01*
X109253592Y-80975961D01*
X109261331Y-80899563D01*
X109253592Y-80823958D01*
X109230375Y-80762244D01*
X109215294Y-80747163D01*
X109340706Y-80747163D01*
X109351818Y-80849644D01*
X109385156Y-80945424D01*
X109440718Y-81034500D01*
X109501639Y-81094627D01*
X109582800Y-81141656D01*
X109680629Y-81172017D01*
X109791556Y-81182138D01*
X109939491Y-81173307D01*
X110045159Y-81146816D01*
X110108560Y-81102663D01*
X110129693Y-81040850D01*
X110109056Y-80967825D01*
X110021743Y-80896388D01*
X109958243Y-80913850D01*
X109940781Y-80920200D01*
X109878472Y-80934488D01*
X109796318Y-80939250D01*
X109691543Y-80909088D01*
X109639156Y-80834475D01*
X110015393Y-80834475D01*
X110122550Y-80787644D01*
X110158864Y-80728113D01*
X110170968Y-80643181D01*
X110157475Y-80549320D01*
X110127416Y-80485225D01*
X110234468Y-80485225D01*
X110257487Y-80577300D01*
X110315431Y-80604288D01*
X110380518Y-80599525D01*
X110380518Y-80834475D01*
X110390043Y-80941543D01*
X110418618Y-81025681D01*
X110466243Y-81086888D01*
X110532213Y-81128339D01*
X110615821Y-81153210D01*
X110717068Y-81161500D01*
X110770250Y-81159119D01*
X110812318Y-81145625D01*
X110845656Y-81103953D01*
X110856768Y-81023388D01*
X110820256Y-80917025D01*
X110778187Y-80901944D01*
X110721037Y-80899563D01*
X110670237Y-80880513D01*
X110656743Y-80818600D01*
X110656743Y-80599525D01*
X110759931Y-80605875D01*
X110814700Y-80603494D01*
X110856768Y-80590000D01*
X110888915Y-80548328D01*
X110899631Y-80467762D01*
X110889312Y-80386403D01*
X110858356Y-80345525D01*
X110816287Y-80330444D01*
X110762312Y-80328062D01*
X110656743Y-80334412D01*
X110656743Y-80178837D01*
X110648806Y-80097875D01*
X110606340Y-80053822D01*
X110520218Y-80039137D01*
X110438859Y-80049059D01*
X110397981Y-80078825D01*
X110382900Y-80116925D01*
X110380518Y-80170900D01*
X110380518Y-80334412D01*
X110328131Y-80328062D01*
X110264631Y-80348700D01*
X110242406Y-80390769D01*
X110234468Y-80485225D01*
X110127416Y-80485225D01*
X110116993Y-80463000D01*
X110058057Y-80394936D01*
X109984437Y-80346319D01*
X109896132Y-80317148D01*
X109793143Y-80307425D01*
X109671170Y-80320742D01*
X109563485Y-80360694D01*
X109470087Y-80427281D01*
X109398209Y-80516093D01*
X109355082Y-80622720D01*
X109340706Y-80747163D01*
X109215294Y-80747163D01*
X109153381Y-80685250D01*
X109053368Y-80645563D01*
X108950181Y-80624925D01*
X108869218Y-80602303D01*
X108842231Y-80563012D01*
X108935893Y-80528087D01*
X109047812Y-80551900D01*
X109118456Y-80575712D01*
X109189893Y-80520150D01*
X109224818Y-80426487D01*
X109169256Y-80362987D01*
X109051781Y-80322506D01*
X108937481Y-80309012D01*
X108813465Y-80319045D01*
X108717009Y-80349144D01*
X108648111Y-80399309D01*
X108606773Y-80469540D01*
X108592993Y-80559837D01*
X108600534Y-80638220D01*
X108623156Y-80705094D01*
X108699356Y-80794788D01*
X108798178Y-80843603D01*
X108897793Y-80869400D01*
X108977565Y-80887656D01*
X109004156Y-80913850D01*
X108979947Y-80942425D01*
X108907318Y-80951950D01*
X108786668Y-80913056D01*
X108681100Y-80874163D01*
X108624743Y-80901150D01*
X108579500Y-80974572D01*
X108564418Y-81026563D01*
X108439730Y-81026563D01*
X108423131Y-80967825D01*
X108335818Y-80896388D01*
X108272318Y-80913850D01*
X108254856Y-80920200D01*
X108192547Y-80934488D01*
X108110393Y-80939250D01*
X108005618Y-80909088D01*
X107953231Y-80834475D01*
X108329468Y-80834475D01*
X108436625Y-80787644D01*
X108472939Y-80728113D01*
X108485043Y-80643181D01*
X108471550Y-80549320D01*
X108431068Y-80463000D01*
X108372132Y-80394936D01*
X108298512Y-80346319D01*
X108210207Y-80317148D01*
X108107218Y-80307425D01*
X107985245Y-80320742D01*
X107877560Y-80360694D01*
X107784162Y-80427281D01*
X107712284Y-80516093D01*
X107669157Y-80622720D01*
X107654781Y-80747163D01*
X107472941Y-80747163D01*
X107459518Y-80715413D01*
X107525664Y-80631099D01*
X107565352Y-80532674D01*
X107578581Y-80420137D01*
X107568262Y-80321712D01*
X107537306Y-80232812D01*
X107490475Y-80157406D01*
X107432531Y-80099462D01*
X107343807Y-80043018D01*
X107253320Y-80009151D01*
X107161068Y-79997862D01*
X106818168Y-79997862D01*
X106736412Y-80008578D01*
X106694343Y-80040725D01*
X106679262Y-80082794D01*
X106676881Y-80137562D01*
X106676881Y-81018625D01*
X105713489Y-81018625D01*
X105427739Y-80590000D01*
X106164251Y-79485232D01*
X111412261Y-79485232D01*
X111412261Y-81694768D01*
G37*
G36*
X109868550Y-80580475D02*
G01*
X109896331Y-80639213D01*
X109836006Y-80690013D01*
X109635981Y-80690013D01*
X109686781Y-80600319D01*
X109789175Y-80558250D01*
X109868550Y-80580475D01*
G37*
%TO.C,kibuzzard-61E19345*%
G36*
X191855163Y-78073180D02*
G01*
X191952596Y-78138069D01*
X192019866Y-78235105D01*
X192042290Y-78353175D01*
X192019271Y-78470848D01*
X191950215Y-78566694D01*
X191852584Y-78630392D01*
X191743840Y-78651625D01*
X191589852Y-78651625D01*
X191589852Y-78051550D01*
X191742252Y-78051550D01*
X191855163Y-78073180D01*
G37*
G36*
X188495947Y-77237295D02*
G01*
X193622249Y-77237295D01*
X194364053Y-78350000D01*
X193622249Y-79462705D01*
X188495947Y-79462705D01*
X188495947Y-78340475D01*
X189008577Y-78340475D01*
X189019491Y-78462068D01*
X189052234Y-78574433D01*
X189106804Y-78677571D01*
X189183202Y-78771481D01*
X189274384Y-78849616D01*
X189373306Y-78905427D01*
X189479966Y-78938913D01*
X189594365Y-78950075D01*
X189719381Y-78941443D01*
X189827727Y-78915547D01*
X189919406Y-78872387D01*
X189994415Y-78811963D01*
X190003159Y-78792913D01*
X190165865Y-78792913D01*
X190168246Y-78848475D01*
X190183327Y-78891338D01*
X190224602Y-78923484D01*
X190303977Y-78934200D01*
X190385734Y-78923484D01*
X190427802Y-78891338D01*
X190442884Y-78850062D01*
X190445265Y-78794500D01*
X190445265Y-78272212D01*
X190489627Y-78330068D01*
X190547570Y-78406268D01*
X190619096Y-78500813D01*
X190704204Y-78613701D01*
X190802893Y-78744935D01*
X190915165Y-78894513D01*
X190954852Y-78924675D01*
X191040577Y-78934200D01*
X191122334Y-78923484D01*
X191164402Y-78891338D01*
X191179484Y-78850062D01*
X191181865Y-78794500D01*
X191181865Y-78791325D01*
X191308865Y-78791325D01*
X191327915Y-78892925D01*
X191369984Y-78922691D01*
X191448565Y-78932613D01*
X191739077Y-78932613D01*
X191856007Y-78921798D01*
X191963907Y-78889353D01*
X192062779Y-78835279D01*
X192152621Y-78759575D01*
X192227283Y-78668740D01*
X192280613Y-78569273D01*
X192312611Y-78461175D01*
X192323277Y-78344444D01*
X192312363Y-78228159D01*
X192279621Y-78121400D01*
X192225051Y-78024166D01*
X192148652Y-77936456D01*
X192057867Y-77863878D01*
X191960137Y-77812036D01*
X191855461Y-77780931D01*
X191743840Y-77770562D01*
X191450152Y-77768975D01*
X191368396Y-77779691D01*
X191326327Y-77811837D01*
X191311246Y-77853112D01*
X191308865Y-77908675D01*
X191308865Y-78791325D01*
X191181865Y-78791325D01*
X191181865Y-77913437D01*
X191172340Y-77832475D01*
X191152496Y-77799137D01*
X191111221Y-77780087D01*
X191038196Y-77772150D01*
X190962790Y-77781675D01*
X190917546Y-77818981D01*
X190902465Y-77907087D01*
X190902465Y-78443663D01*
X190858720Y-78386380D01*
X190802629Y-78311900D01*
X190734190Y-78220222D01*
X190653404Y-78111346D01*
X190560270Y-77985272D01*
X190454790Y-77842000D01*
X190418277Y-77800725D01*
X190379384Y-77780881D01*
X190303977Y-77772150D01*
X190226190Y-77781675D01*
X190180946Y-77818981D01*
X190165865Y-77907087D01*
X190165865Y-78792913D01*
X190003159Y-78792913D01*
X190038865Y-78715125D01*
X190038865Y-78365875D01*
X190022990Y-78276975D01*
X189918215Y-78232525D01*
X189638815Y-78232525D01*
X189562615Y-78246812D01*
X189536421Y-78281737D01*
X189529277Y-78349206D01*
X189535627Y-78415881D01*
X189562615Y-78453188D01*
X189632465Y-78465888D01*
X189757877Y-78465888D01*
X189757877Y-78638925D01*
X189683662Y-78660356D01*
X189600715Y-78667500D01*
X189486415Y-78643489D01*
X189384815Y-78571456D01*
X189331898Y-78502841D01*
X189300148Y-78425053D01*
X189289565Y-78338094D01*
X189312981Y-78213872D01*
X189383227Y-78115844D01*
X189483637Y-78052145D01*
X189597540Y-78030912D01*
X189683265Y-78041827D01*
X189756290Y-78074569D01*
X189853127Y-78118225D01*
X189906706Y-78097191D01*
X189965840Y-78034087D01*
X190002352Y-77944394D01*
X189959490Y-77873750D01*
X189846072Y-77804958D01*
X189728068Y-77763683D01*
X189605477Y-77749925D01*
X189488796Y-77760492D01*
X189380052Y-77792192D01*
X189279246Y-77845026D01*
X189186377Y-77918994D01*
X189108590Y-78008737D01*
X189053027Y-78108898D01*
X189019690Y-78219478D01*
X189008577Y-78340475D01*
X188495947Y-78340475D01*
X188495947Y-77237295D01*
G37*
%TO.C,kibuzzard-61E19361*%
G36*
X191499034Y-68068417D02*
G01*
X191596467Y-68133306D01*
X191663737Y-68230342D01*
X191686161Y-68348412D01*
X191663142Y-68466086D01*
X191594086Y-68561931D01*
X191496455Y-68625630D01*
X191387711Y-68646863D01*
X191233723Y-68646863D01*
X191233723Y-68046787D01*
X191386123Y-68046787D01*
X191499034Y-68068417D01*
G37*
G36*
X192560278Y-68049268D02*
G01*
X192610880Y-68109097D01*
X192641240Y-68208812D01*
X192651361Y-68348412D01*
X192651361Y-68357938D01*
X192641141Y-68494066D01*
X192610483Y-68591300D01*
X192559385Y-68649641D01*
X192487848Y-68669088D01*
X192417701Y-68649095D01*
X192367595Y-68589117D01*
X192337532Y-68489154D01*
X192327511Y-68349206D01*
X192337631Y-68209258D01*
X192367992Y-68109295D01*
X192418594Y-68049318D01*
X192489436Y-68029325D01*
X192560278Y-68049268D01*
G37*
G36*
X194364582Y-68350000D02*
G01*
X193621720Y-69464293D01*
X188495418Y-69464293D01*
X188495418Y-68788150D01*
X189008048Y-68788150D01*
X189017573Y-68869113D01*
X189059642Y-68914356D01*
X189147748Y-68929438D01*
X189719248Y-68929438D01*
X189801798Y-68913563D01*
X189828786Y-68878638D01*
X189836723Y-68811169D01*
X189834015Y-68788150D01*
X189939911Y-68788150D01*
X189949436Y-68869113D01*
X189991505Y-68914356D01*
X190079611Y-68929438D01*
X190708261Y-68929438D01*
X190790811Y-68919913D01*
X190834864Y-68877844D01*
X190849548Y-68789738D01*
X190849132Y-68786563D01*
X190952736Y-68786563D01*
X190971786Y-68888163D01*
X191013855Y-68917928D01*
X191092436Y-68927850D01*
X191382948Y-68927850D01*
X191499878Y-68917035D01*
X191607778Y-68884591D01*
X191706649Y-68830516D01*
X191796492Y-68754813D01*
X191871154Y-68663978D01*
X191924484Y-68564511D01*
X191956482Y-68456412D01*
X191966350Y-68348412D01*
X192046523Y-68348412D01*
X192051639Y-68459714D01*
X192066984Y-68562901D01*
X192092561Y-68657975D01*
X192126890Y-68737747D01*
X192169555Y-68805613D01*
X192225514Y-68862564D01*
X192299730Y-68909594D01*
X192389225Y-68941145D01*
X192491023Y-68951663D01*
X192592425Y-68941344D01*
X192680730Y-68910388D01*
X192753556Y-68863556D01*
X192808523Y-68805613D01*
X192862697Y-68714034D01*
X192901392Y-68607572D01*
X192924609Y-68486227D01*
X192932348Y-68350000D01*
X192927057Y-68245049D01*
X192911182Y-68143978D01*
X192884723Y-68046787D01*
X192851584Y-67966619D01*
X192809317Y-67897562D01*
X192753755Y-67839222D01*
X192680730Y-67791200D01*
X192592028Y-67759053D01*
X192489436Y-67748337D01*
X192386447Y-67759252D01*
X192296555Y-67791994D01*
X192222537Y-67840809D01*
X192167173Y-67899944D01*
X192123319Y-67976342D01*
X192083830Y-68076950D01*
X192063104Y-68157207D01*
X192050668Y-68247694D01*
X192046523Y-68348412D01*
X191966350Y-68348412D01*
X191967148Y-68339681D01*
X191956234Y-68223397D01*
X191923492Y-68116637D01*
X191868922Y-68019403D01*
X191792523Y-67931694D01*
X191701738Y-67859115D01*
X191604008Y-67807273D01*
X191499332Y-67776168D01*
X191387711Y-67765800D01*
X191094023Y-67764212D01*
X191012267Y-67774928D01*
X190970198Y-67807075D01*
X190955117Y-67848350D01*
X190952736Y-67903912D01*
X190952736Y-68786563D01*
X190849132Y-68786563D01*
X190838833Y-68707981D01*
X190806686Y-68665913D01*
X190764617Y-68650831D01*
X190709848Y-68648450D01*
X190220898Y-68648450D01*
X190220898Y-68488113D01*
X190532048Y-68488113D01*
X190614598Y-68478588D01*
X190659842Y-68436519D01*
X190674923Y-68348412D01*
X190664208Y-68266656D01*
X190632061Y-68224587D01*
X190589992Y-68209506D01*
X190535223Y-68207125D01*
X190220898Y-68207125D01*
X190220898Y-68046787D01*
X190708261Y-68046787D01*
X190790811Y-68037262D01*
X190834864Y-67995194D01*
X190849548Y-67907087D01*
X190838833Y-67825331D01*
X190806686Y-67783262D01*
X190764617Y-67768181D01*
X190709848Y-67765800D01*
X190084373Y-67765800D01*
X189970073Y-67795169D01*
X189939911Y-67905500D01*
X189939911Y-68788150D01*
X189834015Y-68788150D01*
X189828786Y-68743700D01*
X189797036Y-68706394D01*
X189720836Y-68694488D01*
X189289036Y-68694488D01*
X189289036Y-67907087D01*
X189281098Y-67824537D01*
X189237839Y-67780484D01*
X189149336Y-67765800D01*
X189067580Y-67776516D01*
X189025511Y-67808662D01*
X189010430Y-67850731D01*
X189008048Y-67905500D01*
X189008048Y-68788150D01*
X188495418Y-68788150D01*
X188495418Y-67235707D01*
X193621720Y-67235707D01*
X194364582Y-68350000D01*
G37*
%TO.C,LEDs1*%
X211642300Y-49751900D02*
X208043700Y-49755950D01*
X206563000Y-51310000D02*
X208044400Y-51310000D01*
X211642300Y-65068100D02*
X211642300Y-49751900D01*
X208043700Y-51304050D02*
X208043700Y-49755950D01*
X208043700Y-65068100D02*
X208043700Y-63520000D01*
X206563000Y-51310000D02*
X206562300Y-63520000D01*
X208043700Y-65068100D02*
X211642300Y-65068100D01*
X206562300Y-63520000D02*
X208043700Y-63520000D01*
%TO.C,kibuzzard-61E84BBD*%
G36*
X102367212Y-72604293D02*
G01*
X96215650Y-72604293D01*
X95762771Y-71924975D01*
X96728280Y-71924975D01*
X96737805Y-72007525D01*
X96779874Y-72052769D01*
X96867980Y-72067850D01*
X97285492Y-72067850D01*
X97381007Y-72055944D01*
X97466467Y-72020225D01*
X97541874Y-71960694D01*
X97600876Y-71883524D01*
X97637124Y-71794888D01*
X97650617Y-71694788D01*
X97645609Y-71651925D01*
X97729992Y-71651925D01*
X97746860Y-71772377D01*
X97797461Y-71879731D01*
X97872669Y-71968234D01*
X97963355Y-72032131D01*
X98063367Y-72070827D01*
X98166555Y-72083725D01*
X98269544Y-72071620D01*
X98368961Y-72035306D01*
X98459250Y-71973394D01*
X98534855Y-71884494D01*
X98586052Y-71774758D01*
X98602899Y-71651925D01*
X98682492Y-71651925D01*
X98699360Y-71772377D01*
X98749961Y-71879731D01*
X98825169Y-71968234D01*
X98915855Y-72032131D01*
X99015867Y-72070827D01*
X99119055Y-72083725D01*
X99222044Y-72071620D01*
X99321461Y-72035306D01*
X99411750Y-71973394D01*
X99487355Y-71884494D01*
X99538552Y-71774758D01*
X99555617Y-71650338D01*
X99540977Y-71530834D01*
X99497056Y-71426324D01*
X99469939Y-71393162D01*
X99619117Y-71393162D01*
X99642136Y-71485237D01*
X99700080Y-71512225D01*
X99765167Y-71507463D01*
X99765167Y-71742412D01*
X99774692Y-71849481D01*
X99803267Y-71933618D01*
X99850892Y-71994825D01*
X99916862Y-72036276D01*
X100000470Y-72061147D01*
X100101717Y-72069438D01*
X100154899Y-72067056D01*
X100196967Y-72053563D01*
X100230305Y-72011891D01*
X100241417Y-71931325D01*
X100204905Y-71824963D01*
X100162836Y-71809881D01*
X100105686Y-71807500D01*
X100054886Y-71788450D01*
X100041392Y-71726538D01*
X100041392Y-71507463D01*
X100144580Y-71513813D01*
X100199349Y-71511431D01*
X100241417Y-71497938D01*
X100248766Y-71488412D01*
X100749417Y-71488412D01*
X100754533Y-71599714D01*
X100769878Y-71702901D01*
X100795455Y-71797975D01*
X100829785Y-71877747D01*
X100872449Y-71945613D01*
X100928408Y-72002564D01*
X101002624Y-72049594D01*
X101092119Y-72081145D01*
X101193917Y-72091663D01*
X101295319Y-72081344D01*
X101383624Y-72050388D01*
X101456450Y-72003556D01*
X101511417Y-71945613D01*
X101565591Y-71854034D01*
X101604286Y-71747572D01*
X101627503Y-71626227D01*
X101635242Y-71490000D01*
X101629951Y-71385049D01*
X101614076Y-71283978D01*
X101587617Y-71186787D01*
X101554478Y-71106619D01*
X101512211Y-71037562D01*
X101456649Y-70979222D01*
X101383624Y-70931200D01*
X101294922Y-70899053D01*
X101192330Y-70888337D01*
X101089341Y-70899252D01*
X100999449Y-70931994D01*
X100925431Y-70980809D01*
X100870067Y-71039944D01*
X100826213Y-71116342D01*
X100786724Y-71216950D01*
X100765998Y-71297207D01*
X100753562Y-71387694D01*
X100749417Y-71488412D01*
X100248766Y-71488412D01*
X100273564Y-71456266D01*
X100284280Y-71375700D01*
X100273961Y-71294341D01*
X100243005Y-71253462D01*
X100200936Y-71238381D01*
X100146961Y-71236000D01*
X100041392Y-71242350D01*
X100041392Y-71086775D01*
X100033455Y-71005812D01*
X99990989Y-70961759D01*
X99904867Y-70947075D01*
X99823508Y-70956997D01*
X99782630Y-70986762D01*
X99767549Y-71024862D01*
X99765167Y-71078837D01*
X99765167Y-71242350D01*
X99712780Y-71236000D01*
X99649280Y-71256637D01*
X99627055Y-71298706D01*
X99619117Y-71393162D01*
X99469939Y-71393162D01*
X99423855Y-71336806D01*
X99331603Y-71268456D01*
X99230533Y-71227445D01*
X99120642Y-71213775D01*
X99010576Y-71227533D01*
X98908976Y-71268808D01*
X98815842Y-71337600D01*
X98741759Y-71427558D01*
X98697309Y-71532333D01*
X98682492Y-71651925D01*
X98602899Y-71651925D01*
X98603117Y-71650338D01*
X98588477Y-71530834D01*
X98544556Y-71426324D01*
X98471355Y-71336806D01*
X98379103Y-71268456D01*
X98278033Y-71227445D01*
X98168142Y-71213775D01*
X98058076Y-71227533D01*
X97956476Y-71268808D01*
X97863342Y-71337600D01*
X97789259Y-71427558D01*
X97744809Y-71532333D01*
X97729992Y-71651925D01*
X97645609Y-71651925D01*
X97640210Y-71605711D01*
X97608990Y-71522632D01*
X97556955Y-71445550D01*
X97602199Y-71353872D01*
X97617280Y-71253462D01*
X97605815Y-71161740D01*
X97571419Y-71079190D01*
X97514092Y-71005812D01*
X97443184Y-70949368D01*
X97361692Y-70915501D01*
X97269617Y-70904212D01*
X96869567Y-70904212D01*
X96787811Y-70914928D01*
X96745742Y-70947075D01*
X96730661Y-70988350D01*
X96728280Y-71043912D01*
X96728280Y-71924975D01*
X95762771Y-71924975D01*
X95472788Y-71490000D01*
X96215650Y-70375707D01*
X102367212Y-70375707D01*
X102367212Y-72604293D01*
G37*
G36*
X98272917Y-71531275D02*
G01*
X98309827Y-71579297D01*
X98322130Y-71647163D01*
X98309033Y-71715425D01*
X98269742Y-71764638D01*
X98164967Y-71804325D01*
X98061780Y-71765431D01*
X98023680Y-71717013D01*
X98010980Y-71649544D01*
X98023283Y-71581877D01*
X98060192Y-71532863D01*
X98166555Y-71493175D01*
X98272917Y-71531275D01*
G37*
G36*
X99225417Y-71531275D02*
G01*
X99262327Y-71579297D01*
X99274630Y-71647163D01*
X99261533Y-71715425D01*
X99222242Y-71764638D01*
X99117467Y-71804325D01*
X99014280Y-71765431D01*
X98976180Y-71717013D01*
X98963480Y-71649544D01*
X98975783Y-71581877D01*
X99012692Y-71532863D01*
X99119055Y-71493175D01*
X99225417Y-71531275D01*
G37*
G36*
X97310099Y-71201075D02*
G01*
X97336292Y-71256637D01*
X97331530Y-71313787D01*
X97255330Y-71347125D01*
X97157699Y-71369350D01*
X97128330Y-71460631D01*
X97156905Y-71551913D01*
X97242630Y-71574138D01*
X97331530Y-71586838D01*
X97360899Y-71618588D01*
X97369630Y-71678913D01*
X97344627Y-71759875D01*
X97269617Y-71786863D01*
X97009267Y-71786863D01*
X97009267Y-71185200D01*
X97231517Y-71185200D01*
X97310099Y-71201075D01*
G37*
G36*
X101263172Y-71189268D02*
G01*
X101313774Y-71249097D01*
X101344135Y-71348812D01*
X101354255Y-71488412D01*
X101354255Y-71497938D01*
X101344035Y-71634066D01*
X101313377Y-71731300D01*
X101262279Y-71789641D01*
X101190742Y-71809088D01*
X101120595Y-71789095D01*
X101070489Y-71729117D01*
X101040426Y-71629154D01*
X101030405Y-71489206D01*
X101040525Y-71349258D01*
X101070886Y-71249295D01*
X101121488Y-71189318D01*
X101192330Y-71169325D01*
X101263172Y-71189268D01*
G37*
%TO.C,kibuzzard-61E846DB*%
G36*
X94552168Y-65765883D02*
G01*
X94552168Y-67294117D01*
X93307832Y-67294117D01*
X93307832Y-67063400D01*
X93820462Y-67063400D01*
X93833162Y-67131663D01*
X93866500Y-67154681D01*
X93930000Y-67161825D01*
X93993500Y-67153888D01*
X94039538Y-67064988D01*
X94039538Y-65996600D01*
X94026838Y-65928337D01*
X93993500Y-65905319D01*
X93930794Y-65898175D01*
X93868087Y-65906112D01*
X93820462Y-65995012D01*
X93820462Y-67063400D01*
X93307832Y-67063400D01*
X93307832Y-65765883D01*
X94552168Y-65765883D01*
G37*
%TO.C,USB_C1*%
X93495000Y-47020000D02*
X84095000Y-47020000D01*
X84095000Y-48920000D02*
X84095000Y-47020000D01*
X93495000Y-48920000D02*
X93495000Y-47020000D01*
X93495000Y-52820000D02*
X93495000Y-50820000D01*
X84095000Y-52820000D02*
X84095000Y-50820000D01*
%TO.C,kibuzzard-61E1928B*%
G36*
X211671040Y-65147614D02*
G01*
X211009608Y-67352386D01*
X206248960Y-67352386D01*
X206248960Y-66684181D01*
X206761590Y-66684181D01*
X206771115Y-66765144D01*
X206813184Y-66810388D01*
X206901290Y-66825469D01*
X207472790Y-66825469D01*
X207555340Y-66809594D01*
X207582328Y-66774669D01*
X207590265Y-66707200D01*
X207587557Y-66684181D01*
X207693453Y-66684181D01*
X207702978Y-66765144D01*
X207745047Y-66810388D01*
X207833153Y-66825469D01*
X208461803Y-66825469D01*
X208544353Y-66815944D01*
X208588406Y-66773875D01*
X208603090Y-66685769D01*
X208602674Y-66682594D01*
X208706278Y-66682594D01*
X208725328Y-66784194D01*
X208767397Y-66813959D01*
X208845978Y-66823881D01*
X209136490Y-66823881D01*
X209253420Y-66813066D01*
X209361320Y-66780622D01*
X209460191Y-66726548D01*
X209502935Y-66690531D01*
X209800065Y-66690531D01*
X209830228Y-66750856D01*
X209925742Y-66800245D01*
X210023903Y-66829878D01*
X210124709Y-66839756D01*
X210221106Y-66834288D01*
X210306037Y-66817884D01*
X210379503Y-66790544D01*
X210466022Y-66704025D01*
X210489239Y-66639930D01*
X210496978Y-66563531D01*
X210489239Y-66487927D01*
X210466022Y-66426213D01*
X210389028Y-66349219D01*
X210289015Y-66309531D01*
X210185828Y-66288894D01*
X210104865Y-66266272D01*
X210077878Y-66226981D01*
X210171540Y-66192056D01*
X210283459Y-66215869D01*
X210354103Y-66239681D01*
X210425540Y-66184119D01*
X210460465Y-66090456D01*
X210404903Y-66026956D01*
X210287428Y-65986475D01*
X210173128Y-65972981D01*
X210049112Y-65983014D01*
X209952656Y-66013113D01*
X209883758Y-66063278D01*
X209842420Y-66133509D01*
X209828640Y-66223806D01*
X209836181Y-66302189D01*
X209858803Y-66369063D01*
X209935003Y-66458756D01*
X210033825Y-66507572D01*
X210133440Y-66533369D01*
X210213212Y-66551625D01*
X210239803Y-66577819D01*
X210215593Y-66606394D01*
X210142965Y-66615919D01*
X210022315Y-66577025D01*
X209916747Y-66538131D01*
X209860390Y-66565119D01*
X209815147Y-66638541D01*
X209800065Y-66690531D01*
X209502935Y-66690531D01*
X209550034Y-66650844D01*
X209624696Y-66560009D01*
X209678026Y-66460542D01*
X209710024Y-66352443D01*
X209720690Y-66235712D01*
X209709776Y-66119428D01*
X209677034Y-66012669D01*
X209622464Y-65915434D01*
X209546065Y-65827725D01*
X209455280Y-65755146D01*
X209357550Y-65703305D01*
X209252874Y-65672200D01*
X209141253Y-65661831D01*
X208847565Y-65660244D01*
X208765809Y-65670959D01*
X208723740Y-65703106D01*
X208708659Y-65744381D01*
X208706278Y-65799944D01*
X208706278Y-66682594D01*
X208602674Y-66682594D01*
X208592375Y-66604013D01*
X208560228Y-66561944D01*
X208518159Y-66546863D01*
X208463390Y-66544481D01*
X207974440Y-66544481D01*
X207974440Y-66384144D01*
X208285590Y-66384144D01*
X208368140Y-66374619D01*
X208413384Y-66332550D01*
X208428465Y-66244444D01*
X208417750Y-66162687D01*
X208385603Y-66120619D01*
X208343534Y-66105537D01*
X208288765Y-66103156D01*
X207974440Y-66103156D01*
X207974440Y-65942819D01*
X208461803Y-65942819D01*
X208544353Y-65933294D01*
X208588406Y-65891225D01*
X208603090Y-65803119D01*
X208592375Y-65721362D01*
X208560228Y-65679294D01*
X208518159Y-65664212D01*
X208463390Y-65661831D01*
X207837915Y-65661831D01*
X207723615Y-65691200D01*
X207693453Y-65801531D01*
X207693453Y-66684181D01*
X207587557Y-66684181D01*
X207582328Y-66639731D01*
X207550578Y-66602425D01*
X207474378Y-66590519D01*
X207042578Y-66590519D01*
X207042578Y-65803119D01*
X207034640Y-65720569D01*
X206991381Y-65676516D01*
X206902878Y-65661831D01*
X206821122Y-65672547D01*
X206779053Y-65704694D01*
X206763972Y-65746762D01*
X206761590Y-65801531D01*
X206761590Y-66684181D01*
X206248960Y-66684181D01*
X206248960Y-65147614D01*
X211671040Y-65147614D01*
G37*
G36*
X209252576Y-65964448D02*
G01*
X209350009Y-66029337D01*
X209417279Y-66126373D01*
X209439703Y-66244444D01*
X209416684Y-66362117D01*
X209347628Y-66457963D01*
X209249997Y-66521661D01*
X209141253Y-66542894D01*
X208987265Y-66542894D01*
X208987265Y-65942819D01*
X209139665Y-65942819D01*
X209252576Y-65964448D01*
G37*
%TO.C,kibuzzard-61E18CE3*%
G36*
X172797725Y-55956513D02*
G01*
X172834634Y-56004534D01*
X172846937Y-56072400D01*
X172833841Y-56140663D01*
X172794550Y-56189875D01*
X172689775Y-56229563D01*
X172586587Y-56190669D01*
X172548487Y-56142250D01*
X172535787Y-56074781D01*
X172548091Y-56007114D01*
X172585000Y-55958100D01*
X172691362Y-55918412D01*
X172797725Y-55956513D01*
G37*
G36*
X171853162Y-55647744D02*
G01*
X171899200Y-55753312D01*
X171853162Y-55858087D01*
X171761087Y-55893012D01*
X171557887Y-55893012D01*
X171557887Y-55612025D01*
X171757912Y-55612025D01*
X171853162Y-55647744D01*
G37*
G36*
X175675730Y-57021593D02*
G01*
X170764270Y-57021593D01*
X170563332Y-56351800D01*
X171276900Y-56351800D01*
X171286425Y-56434350D01*
X171328494Y-56478403D01*
X171416600Y-56493088D01*
X171498356Y-56482372D01*
X171540425Y-56450225D01*
X171555506Y-56408156D01*
X171557887Y-56353388D01*
X171557887Y-56174000D01*
X171757912Y-56174000D01*
X171807125Y-56170825D01*
X171868861Y-56317051D01*
X171910136Y-56412831D01*
X171930950Y-56458163D01*
X171960319Y-56489119D01*
X172011119Y-56504200D01*
X172092875Y-56481975D01*
X172166694Y-56435938D01*
X172191300Y-56380375D01*
X172167487Y-56297825D01*
X172123037Y-56196754D01*
X172087054Y-56113675D01*
X172071618Y-56077163D01*
X172254800Y-56077163D01*
X172271667Y-56197614D01*
X172322269Y-56304969D01*
X172397477Y-56393472D01*
X172488162Y-56457369D01*
X172588175Y-56496064D01*
X172691362Y-56508963D01*
X172794352Y-56496858D01*
X172893769Y-56460544D01*
X172984058Y-56398631D01*
X173059662Y-56309731D01*
X173110859Y-56199995D01*
X173127925Y-56075575D01*
X173113285Y-55956072D01*
X173069364Y-55851561D01*
X173002003Y-55769187D01*
X173191425Y-55769187D01*
X173207300Y-55831100D01*
X173447013Y-56415300D01*
X173491463Y-56471656D01*
X173574013Y-56499438D01*
X173661325Y-56461338D01*
X173686725Y-56428000D01*
X173700219Y-56401806D01*
X173711331Y-56373231D01*
X173751019Y-56265281D01*
X173778205Y-56190867D01*
X173797850Y-56140663D01*
X173844240Y-56264135D01*
X173875461Y-56346685D01*
X173891513Y-56388313D01*
X173904213Y-56415300D01*
X173949456Y-56471656D01*
X174020100Y-56499438D01*
X174080425Y-56488325D01*
X174128050Y-56449431D01*
X174159800Y-56389900D01*
X174172180Y-56359738D01*
X174466188Y-56359738D01*
X174496350Y-56420062D01*
X174591865Y-56469451D01*
X174690025Y-56499085D01*
X174790831Y-56508963D01*
X174887228Y-56503494D01*
X174972159Y-56487090D01*
X175045625Y-56459750D01*
X175132144Y-56373231D01*
X175155361Y-56309136D01*
X175163100Y-56232738D01*
X175155361Y-56157133D01*
X175132144Y-56095419D01*
X175055150Y-56018425D01*
X174955138Y-55978738D01*
X174851950Y-55958100D01*
X174770988Y-55935478D01*
X174744000Y-55896187D01*
X174837663Y-55861262D01*
X174949581Y-55885075D01*
X175020225Y-55908887D01*
X175091663Y-55853325D01*
X175126588Y-55759662D01*
X175071025Y-55696162D01*
X174953550Y-55655681D01*
X174839250Y-55642187D01*
X174715235Y-55652220D01*
X174618778Y-55682319D01*
X174549881Y-55732484D01*
X174508542Y-55802715D01*
X174494763Y-55893012D01*
X174502303Y-55971395D01*
X174524925Y-56038269D01*
X174601125Y-56127963D01*
X174699947Y-56176778D01*
X174799563Y-56202575D01*
X174879334Y-56220831D01*
X174905925Y-56247025D01*
X174881716Y-56275600D01*
X174809088Y-56285125D01*
X174688438Y-56246231D01*
X174582869Y-56207338D01*
X174526513Y-56234325D01*
X174481269Y-56307747D01*
X174466188Y-56359738D01*
X174172180Y-56359738D01*
X174334425Y-55964450D01*
X174377288Y-55860469D01*
X174402688Y-55773950D01*
X174377288Y-55714022D01*
X174301088Y-55664412D01*
X174237588Y-55648537D01*
X174170913Y-55673937D01*
X174123288Y-55750137D01*
X174026450Y-56013663D01*
X174009693Y-55971329D01*
X173978472Y-55886662D01*
X173932788Y-55759662D01*
X173920088Y-55732675D01*
X173873256Y-55681875D01*
X173791500Y-55656475D01*
X173697838Y-55702512D01*
X173662913Y-55758075D01*
X173569250Y-56015250D01*
X173518626Y-55877667D01*
X173481056Y-55778183D01*
X173456538Y-55716800D01*
X173443838Y-55689019D01*
X173416056Y-55662031D01*
X173364463Y-55648537D01*
X173281913Y-55669175D01*
X173214047Y-55712434D01*
X173191425Y-55769187D01*
X173002003Y-55769187D01*
X172996162Y-55762044D01*
X172903911Y-55693693D01*
X172802840Y-55652683D01*
X172692950Y-55639012D01*
X172582883Y-55652771D01*
X172481283Y-55694046D01*
X172388150Y-55762837D01*
X172314067Y-55852796D01*
X172269617Y-55957571D01*
X172254800Y-56077163D01*
X172071618Y-56077163D01*
X172059537Y-56048588D01*
X172125683Y-55964274D01*
X172165371Y-55865849D01*
X172178600Y-55753312D01*
X172168281Y-55654887D01*
X172137325Y-55565987D01*
X172090494Y-55490581D01*
X172032550Y-55432637D01*
X171943826Y-55376193D01*
X171853339Y-55342326D01*
X171761087Y-55331037D01*
X171418187Y-55331037D01*
X171336431Y-55341753D01*
X171294362Y-55373900D01*
X171279281Y-55415969D01*
X171276900Y-55470737D01*
X171276900Y-56351800D01*
X170563332Y-56351800D01*
X170103314Y-54818407D01*
X176336686Y-54818407D01*
X175675730Y-57021593D01*
G37*
%TO.C,kibuzzard-61E19354*%
G36*
X191502209Y-73077942D02*
G01*
X191599642Y-73142831D01*
X191666912Y-73239867D01*
X191689336Y-73357938D01*
X191666317Y-73475611D01*
X191597261Y-73571456D01*
X191499630Y-73635155D01*
X191390886Y-73656388D01*
X191236898Y-73656388D01*
X191236898Y-73056312D01*
X191389298Y-73056312D01*
X191502209Y-73077942D01*
G37*
G36*
X194361407Y-73350000D02*
G01*
X193624895Y-74454768D01*
X188498593Y-74454768D01*
X188498593Y-73797675D01*
X189011223Y-73797675D01*
X189020748Y-73878638D01*
X189062817Y-73923881D01*
X189150923Y-73938963D01*
X189722423Y-73938963D01*
X189804973Y-73923088D01*
X189831961Y-73888163D01*
X189839898Y-73820694D01*
X189837190Y-73797675D01*
X189943086Y-73797675D01*
X189952611Y-73878638D01*
X189994680Y-73923881D01*
X190082786Y-73938963D01*
X190711436Y-73938963D01*
X190793986Y-73929438D01*
X190838039Y-73887369D01*
X190852723Y-73799263D01*
X190852307Y-73796088D01*
X190955911Y-73796088D01*
X190974961Y-73897688D01*
X191017030Y-73927453D01*
X191095611Y-73937375D01*
X191386123Y-73937375D01*
X191503053Y-73926560D01*
X191610953Y-73894116D01*
X191709824Y-73840041D01*
X191758219Y-73799263D01*
X192049698Y-73799263D01*
X192090973Y-73899275D01*
X192189398Y-73942138D01*
X192810111Y-73942138D01*
X192908536Y-73923088D01*
X192942667Y-73881813D01*
X192952986Y-73801644D01*
X192943461Y-73720681D01*
X192906155Y-73674644D01*
X192813286Y-73659563D01*
X192522773Y-73659563D01*
X192522773Y-73651625D01*
X192562461Y-73635750D01*
X192660886Y-73582172D01*
X192772011Y-73494463D01*
X192823605Y-73437313D01*
X192867261Y-73364288D01*
X192897026Y-73280944D01*
X192906948Y-73192837D01*
X192893719Y-73083741D01*
X192854032Y-72982935D01*
X192787886Y-72890419D01*
X192700485Y-72816776D01*
X192597033Y-72772591D01*
X192477530Y-72757862D01*
X192358114Y-72772415D01*
X192254927Y-72816071D01*
X192167967Y-72888831D01*
X192102262Y-72979936D01*
X192062839Y-73078626D01*
X192049698Y-73184900D01*
X192057636Y-73265862D01*
X192100895Y-73311106D01*
X192189398Y-73326187D01*
X192270361Y-73316662D01*
X192313223Y-73288087D01*
X192328305Y-73248400D01*
X192330686Y-73196012D01*
X192330686Y-73186487D01*
X192337036Y-73149975D01*
X192379105Y-73076156D01*
X192467211Y-73038850D01*
X192546586Y-73053137D01*
X192588655Y-73084094D01*
X192613261Y-73126956D01*
X192624373Y-73167437D01*
X192609490Y-73236891D01*
X192564842Y-73302375D01*
X192499159Y-73362502D01*
X192421173Y-73415881D01*
X192337036Y-73466284D01*
X192252898Y-73517481D01*
X192174912Y-73574234D01*
X192109230Y-73641306D01*
X192064581Y-73716911D01*
X192049698Y-73799263D01*
X191758219Y-73799263D01*
X191799667Y-73764338D01*
X191874329Y-73673503D01*
X191927659Y-73574036D01*
X191959657Y-73465937D01*
X191970323Y-73349206D01*
X191959409Y-73232922D01*
X191926667Y-73126162D01*
X191872097Y-73028928D01*
X191795698Y-72941219D01*
X191704913Y-72868640D01*
X191607183Y-72816798D01*
X191502507Y-72785693D01*
X191390886Y-72775325D01*
X191097198Y-72773737D01*
X191015442Y-72784453D01*
X190973373Y-72816600D01*
X190958292Y-72857875D01*
X190955911Y-72913437D01*
X190955911Y-73796088D01*
X190852307Y-73796088D01*
X190842008Y-73717506D01*
X190809861Y-73675438D01*
X190767792Y-73660356D01*
X190713023Y-73657975D01*
X190224073Y-73657975D01*
X190224073Y-73497638D01*
X190535223Y-73497638D01*
X190617773Y-73488113D01*
X190663017Y-73446044D01*
X190678098Y-73357938D01*
X190667383Y-73276181D01*
X190635236Y-73234112D01*
X190593167Y-73219031D01*
X190538398Y-73216650D01*
X190224073Y-73216650D01*
X190224073Y-73056312D01*
X190711436Y-73056312D01*
X190793986Y-73046787D01*
X190838039Y-73004719D01*
X190852723Y-72916612D01*
X190842008Y-72834856D01*
X190809861Y-72792787D01*
X190767792Y-72777706D01*
X190713023Y-72775325D01*
X190087548Y-72775325D01*
X189973248Y-72804694D01*
X189943086Y-72915025D01*
X189943086Y-73797675D01*
X189837190Y-73797675D01*
X189831961Y-73753225D01*
X189800211Y-73715919D01*
X189724011Y-73704013D01*
X189292211Y-73704013D01*
X189292211Y-72916612D01*
X189284273Y-72834062D01*
X189241014Y-72790009D01*
X189152511Y-72775325D01*
X189070755Y-72786041D01*
X189028686Y-72818187D01*
X189013605Y-72860256D01*
X189011223Y-72915025D01*
X189011223Y-73797675D01*
X188498593Y-73797675D01*
X188498593Y-72245232D01*
X193624895Y-72245232D01*
X194361407Y-73350000D01*
G37*
%TO.C,kibuzzard-61E1917D*%
G36*
X80167875Y-72720306D02*
G01*
X80204388Y-72813969D01*
X80166288Y-72906044D01*
X80070244Y-72948113D01*
X79971819Y-72906838D01*
X79931338Y-72813969D01*
X79969438Y-72719512D01*
X80069450Y-72676650D01*
X80167875Y-72720306D01*
G37*
G36*
X77376256Y-72662362D02*
G01*
X77404037Y-72721100D01*
X77343712Y-72771900D01*
X77143687Y-72771900D01*
X77194487Y-72682206D01*
X77296881Y-72640137D01*
X77376256Y-72662362D01*
G37*
G36*
X76300923Y-72382367D02*
G01*
X76398356Y-72447256D01*
X76465627Y-72544292D01*
X76488050Y-72662362D01*
X76465031Y-72780036D01*
X76395975Y-72875881D01*
X76298344Y-72939580D01*
X76189600Y-72960813D01*
X76035612Y-72960813D01*
X76035612Y-72360737D01*
X76188012Y-72360737D01*
X76300923Y-72382367D01*
G37*
G36*
X75241995Y-71503620D02*
G01*
X80998005Y-71503620D01*
X81781833Y-74116380D01*
X74458167Y-74116380D01*
X74762927Y-73100513D01*
X75754625Y-73100513D01*
X75773675Y-73202113D01*
X75815744Y-73231878D01*
X75894325Y-73241800D01*
X76184837Y-73241800D01*
X76301767Y-73230985D01*
X76409667Y-73198541D01*
X76508539Y-73144466D01*
X76598381Y-73068763D01*
X76673043Y-72977928D01*
X76726373Y-72878461D01*
X76740999Y-72829050D01*
X76848412Y-72829050D01*
X76859525Y-72931532D01*
X76892862Y-73027311D01*
X76948425Y-73116388D01*
X77009345Y-73176514D01*
X77090506Y-73223544D01*
X77188336Y-73253905D01*
X77299262Y-73264025D01*
X77447198Y-73255195D01*
X77552866Y-73228703D01*
X77616266Y-73184551D01*
X77637400Y-73122738D01*
X77631567Y-73102100D01*
X77781862Y-73102100D01*
X77784244Y-73156869D01*
X77797737Y-73198938D01*
X77839409Y-73231084D01*
X77919975Y-73241800D01*
X78016019Y-73222353D01*
X78056500Y-73164013D01*
X78133097Y-73221163D01*
X78248588Y-73240213D01*
X78336606Y-73226366D01*
X78420743Y-73184826D01*
X78501000Y-73115594D01*
X78566264Y-73027928D01*
X78605422Y-72931091D01*
X78618475Y-72825081D01*
X78618180Y-72822700D01*
X78721663Y-72822700D01*
X78733392Y-72933208D01*
X78768582Y-73031897D01*
X78827231Y-73118769D01*
X78903696Y-73186238D01*
X78992331Y-73226719D01*
X79093138Y-73240213D01*
X79210613Y-73205288D01*
X79253475Y-73170363D01*
X79282050Y-73138613D01*
X79297925Y-73203700D01*
X79338803Y-73232275D01*
X79416988Y-73241800D01*
X79496759Y-73231481D01*
X79539225Y-73200525D01*
X79554306Y-73160044D01*
X79556688Y-73106863D01*
X79556688Y-72813175D01*
X79659875Y-72813175D01*
X79672663Y-72916627D01*
X79711028Y-73011083D01*
X79774969Y-73096544D01*
X79853550Y-73164013D01*
X79935835Y-73204494D01*
X80021825Y-73217988D01*
X80135728Y-73198144D01*
X80213913Y-73138613D01*
X80213913Y-73186238D01*
X80175813Y-73300538D01*
X80077388Y-73348163D01*
X79991663Y-73333478D01*
X79912288Y-73289425D01*
X79866250Y-73270375D01*
X79827356Y-73283075D01*
X79780525Y-73329113D01*
X79732900Y-73438650D01*
X79760284Y-73489053D01*
X79842438Y-73545013D01*
X79954753Y-73589066D01*
X80072625Y-73603750D01*
X80174931Y-73591315D01*
X80270181Y-73554008D01*
X80358375Y-73491831D01*
X80428931Y-73409369D01*
X80471264Y-73311209D01*
X80485375Y-73197350D01*
X80485375Y-72540125D01*
X80482994Y-72486150D01*
X80468706Y-72445669D01*
X80428225Y-72413125D01*
X80337738Y-72403600D01*
X80248044Y-72426619D01*
X80215500Y-72494087D01*
X80189306Y-72463131D01*
X80128188Y-72426619D01*
X80029763Y-72406775D01*
X79940157Y-72420357D01*
X79855490Y-72461103D01*
X79775763Y-72529012D01*
X79711381Y-72614914D01*
X79672751Y-72709635D01*
X79659875Y-72813175D01*
X79556688Y-72813175D01*
X79556688Y-72544887D01*
X79554306Y-72490119D01*
X79540813Y-72448050D01*
X79499141Y-72415903D01*
X79418575Y-72405187D01*
X79337216Y-72415506D01*
X79296338Y-72446462D01*
X79281256Y-72488531D01*
X79278875Y-72543300D01*
X79278875Y-72824288D01*
X79239981Y-72924300D01*
X79138381Y-72962400D01*
X79038369Y-72925888D01*
X79001063Y-72824288D01*
X79001063Y-72546475D01*
X78991538Y-72465512D01*
X78949469Y-72420269D01*
X78861363Y-72405187D01*
X78779606Y-72415903D01*
X78737538Y-72448050D01*
X78724044Y-72489325D01*
X78721663Y-72544887D01*
X78721663Y-72822700D01*
X78618180Y-72822700D01*
X78605334Y-72718983D01*
X78565911Y-72621881D01*
X78500206Y-72533775D01*
X78418803Y-72464101D01*
X78332284Y-72422297D01*
X78240650Y-72408362D01*
X78136669Y-72427809D01*
X78059675Y-72486150D01*
X78059675Y-72155950D01*
X78057294Y-72101181D01*
X78042212Y-72059112D01*
X78001731Y-72026966D01*
X77921562Y-72016250D01*
X77839806Y-72026966D01*
X77797737Y-72059112D01*
X77784244Y-72099594D01*
X77781862Y-72154362D01*
X77781862Y-73102100D01*
X77631567Y-73102100D01*
X77616762Y-73049713D01*
X77529450Y-72978275D01*
X77465950Y-72995738D01*
X77448487Y-73002088D01*
X77386178Y-73016375D01*
X77304025Y-73021138D01*
X77199250Y-72990975D01*
X77146862Y-72916363D01*
X77523100Y-72916363D01*
X77630256Y-72869531D01*
X77666570Y-72810000D01*
X77678675Y-72725069D01*
X77665181Y-72631208D01*
X77624700Y-72544887D01*
X77565764Y-72476823D01*
X77492144Y-72428206D01*
X77403839Y-72399036D01*
X77300850Y-72389312D01*
X77178877Y-72402630D01*
X77071192Y-72442582D01*
X76977794Y-72509169D01*
X76905915Y-72597981D01*
X76862788Y-72704608D01*
X76848412Y-72829050D01*
X76740999Y-72829050D01*
X76758371Y-72770362D01*
X76769037Y-72653631D01*
X76758123Y-72537347D01*
X76725381Y-72430587D01*
X76670811Y-72333353D01*
X76594412Y-72245644D01*
X76503627Y-72173065D01*
X76405897Y-72121223D01*
X76301221Y-72090118D01*
X76189600Y-72079750D01*
X75895912Y-72078162D01*
X75814156Y-72088878D01*
X75772087Y-72121025D01*
X75757006Y-72162300D01*
X75754625Y-72217862D01*
X75754625Y-73100513D01*
X74762927Y-73100513D01*
X75241995Y-71503620D01*
G37*
G36*
X78302563Y-72729831D02*
G01*
X78340663Y-72825875D01*
X78299388Y-72921125D01*
X78199375Y-72963988D01*
X78101744Y-72921125D01*
X78062850Y-72826669D01*
X78100156Y-72730625D01*
X78200963Y-72686175D01*
X78302563Y-72729831D01*
G37*
%TO.C,kibuzzard-61E1935A*%
G36*
X191504855Y-70570005D02*
G01*
X191602288Y-70634894D01*
X191669558Y-70731930D01*
X191691982Y-70850000D01*
X191668963Y-70967673D01*
X191599907Y-71063519D01*
X191502275Y-71127217D01*
X191393532Y-71148450D01*
X191239544Y-71148450D01*
X191239544Y-70548375D01*
X191391944Y-70548375D01*
X191504855Y-70570005D01*
G37*
G36*
X194358761Y-70850000D02*
G01*
X193627541Y-71946830D01*
X188501239Y-71946830D01*
X188501239Y-71289738D01*
X189013869Y-71289738D01*
X189023394Y-71370700D01*
X189065463Y-71415944D01*
X189153569Y-71431025D01*
X189725069Y-71431025D01*
X189807619Y-71415150D01*
X189834607Y-71380225D01*
X189842544Y-71312756D01*
X189839836Y-71289738D01*
X189945732Y-71289738D01*
X189955257Y-71370700D01*
X189997325Y-71415944D01*
X190085432Y-71431025D01*
X190714082Y-71431025D01*
X190796632Y-71421500D01*
X190840685Y-71379431D01*
X190855369Y-71291325D01*
X190854953Y-71288150D01*
X190958557Y-71288150D01*
X190977607Y-71389750D01*
X191019675Y-71419516D01*
X191098257Y-71429438D01*
X191388769Y-71429438D01*
X191505698Y-71418623D01*
X191613599Y-71386178D01*
X191712470Y-71332104D01*
X191802313Y-71256400D01*
X191876975Y-71165565D01*
X191930305Y-71066098D01*
X191962303Y-70958000D01*
X191972969Y-70841269D01*
X191962055Y-70724984D01*
X191935642Y-70638862D01*
X192036469Y-70638862D01*
X192086475Y-70737287D01*
X192182519Y-70792850D01*
X192293644Y-70743637D01*
X192314282Y-70724587D01*
X192314282Y-71291325D01*
X192316663Y-71349269D01*
X192331744Y-71392925D01*
X192374210Y-71423881D01*
X192453982Y-71434200D01*
X192535738Y-71423484D01*
X192577807Y-71391338D01*
X192592888Y-71349269D01*
X192595269Y-71294500D01*
X192595269Y-70410262D01*
X192587332Y-70326125D01*
X192565107Y-70291994D01*
X192523832Y-70273737D01*
X192448425Y-70265800D01*
X192358732Y-70307075D01*
X192353969Y-70310250D01*
X192093619Y-70545200D01*
X192036469Y-70638862D01*
X191935642Y-70638862D01*
X191929313Y-70618225D01*
X191874743Y-70520991D01*
X191798344Y-70433281D01*
X191707559Y-70360703D01*
X191609828Y-70308861D01*
X191505153Y-70277756D01*
X191393532Y-70267387D01*
X191099844Y-70265800D01*
X191018088Y-70276516D01*
X190976019Y-70308662D01*
X190960938Y-70349938D01*
X190958557Y-70405500D01*
X190958557Y-71288150D01*
X190854953Y-71288150D01*
X190844653Y-71209569D01*
X190812507Y-71167500D01*
X190770438Y-71152419D01*
X190715669Y-71150038D01*
X190226719Y-71150038D01*
X190226719Y-70989700D01*
X190537869Y-70989700D01*
X190620419Y-70980175D01*
X190665663Y-70938106D01*
X190680744Y-70850000D01*
X190670028Y-70768244D01*
X190637882Y-70726175D01*
X190595813Y-70711094D01*
X190541044Y-70708712D01*
X190226719Y-70708712D01*
X190226719Y-70548375D01*
X190714082Y-70548375D01*
X190796632Y-70538850D01*
X190840685Y-70496781D01*
X190855369Y-70408675D01*
X190844653Y-70326919D01*
X190812507Y-70284850D01*
X190770438Y-70269769D01*
X190715669Y-70267387D01*
X190090194Y-70267387D01*
X189975894Y-70296756D01*
X189945732Y-70407087D01*
X189945732Y-71289738D01*
X189839836Y-71289738D01*
X189834607Y-71245288D01*
X189802857Y-71207981D01*
X189726657Y-71196075D01*
X189294857Y-71196075D01*
X189294857Y-70408675D01*
X189286919Y-70326125D01*
X189243660Y-70282072D01*
X189155157Y-70267387D01*
X189073400Y-70278103D01*
X189031332Y-70310250D01*
X189016250Y-70352319D01*
X189013869Y-70407087D01*
X189013869Y-71289738D01*
X188501239Y-71289738D01*
X188501239Y-69753170D01*
X193627541Y-69753170D01*
X194358761Y-70850000D01*
G37*
%TO.C,R11*%
X93212500Y-59917258D02*
X93212500Y-59442742D01*
X92167500Y-59917258D02*
X92167500Y-59442742D01*
%TO.C,kibuzzard-61E6F754*%
G36*
X178401113Y-76501869D02*
G01*
X178427306Y-76557431D01*
X178422544Y-76614581D01*
X178346344Y-76647919D01*
X178248713Y-76670144D01*
X178219344Y-76761425D01*
X178247919Y-76852706D01*
X178333644Y-76874931D01*
X178422544Y-76887631D01*
X178451913Y-76919381D01*
X178460644Y-76979706D01*
X178435641Y-77060669D01*
X178360631Y-77087656D01*
X178100281Y-77087656D01*
X178100281Y-76485994D01*
X178322531Y-76485994D01*
X178401113Y-76501869D01*
G37*
G36*
X174043623Y-76490062D02*
G01*
X174094225Y-76549891D01*
X174124586Y-76649605D01*
X174134706Y-76789206D01*
X174134706Y-76798731D01*
X174124487Y-76934859D01*
X174093828Y-77032094D01*
X174042730Y-77090434D01*
X173971194Y-77109881D01*
X173901046Y-77089889D01*
X173850941Y-77029911D01*
X173820877Y-76929948D01*
X173810856Y-76790000D01*
X173820977Y-76650052D01*
X173851337Y-76550089D01*
X173901939Y-76490111D01*
X173972781Y-76470119D01*
X174043623Y-76490062D01*
G37*
G36*
X180733811Y-77905086D02*
G01*
X170966189Y-77905086D01*
X170966189Y-76659031D01*
X171478819Y-76659031D01*
X171510569Y-76744756D01*
X171840769Y-77309906D01*
X171855056Y-77327369D01*
X171898712Y-77361500D01*
X171963800Y-77378169D01*
X172032856Y-77356738D01*
X172083656Y-77308319D01*
X172412269Y-76744756D01*
X172444019Y-76657444D01*
X172423381Y-76603469D01*
X172392425Y-76578069D01*
X172491644Y-76578069D01*
X172541650Y-76676494D01*
X172637694Y-76732056D01*
X172748819Y-76682844D01*
X172769456Y-76663794D01*
X172769456Y-77230531D01*
X172771837Y-77288475D01*
X172786919Y-77332131D01*
X172829384Y-77363088D01*
X172909156Y-77373406D01*
X172990912Y-77362691D01*
X173032981Y-77330544D01*
X173048062Y-77288475D01*
X173050444Y-77233706D01*
X173050444Y-77227356D01*
X173153631Y-77227356D01*
X173184587Y-77341656D01*
X173231816Y-77364278D01*
X173311587Y-77371819D01*
X173389573Y-77360309D01*
X173431444Y-77325781D01*
X173448112Y-77282125D01*
X173450494Y-77225769D01*
X173450494Y-77219419D01*
X173423506Y-77108294D01*
X173372111Y-77083291D01*
X173290950Y-77074956D01*
X173212964Y-77086863D01*
X173171094Y-77122581D01*
X173156012Y-77165444D01*
X173153631Y-77221006D01*
X173153631Y-77227356D01*
X173050444Y-77227356D01*
X173050444Y-76789206D01*
X173529869Y-76789206D01*
X173534984Y-76900508D01*
X173550330Y-77003695D01*
X173575906Y-77098769D01*
X173610236Y-77178541D01*
X173652900Y-77246406D01*
X173708859Y-77303358D01*
X173783075Y-77350388D01*
X173872570Y-77381939D01*
X173974369Y-77392456D01*
X174075770Y-77382138D01*
X174164075Y-77351181D01*
X174236902Y-77304350D01*
X174291869Y-77246406D01*
X174346042Y-77154827D01*
X174384737Y-77048366D01*
X174403797Y-76948750D01*
X174495069Y-76948750D01*
X174505387Y-77046778D01*
X174536344Y-77136075D01*
X174583572Y-77212473D01*
X174642706Y-77271806D01*
X174734958Y-77330897D01*
X174829678Y-77366351D01*
X174926869Y-77378169D01*
X175048312Y-77362294D01*
X175149119Y-77314669D01*
X175214603Y-77260297D01*
X175236431Y-77201956D01*
X175199919Y-77119406D01*
X175136816Y-77056303D01*
X175084031Y-77035269D01*
X175013387Y-77064638D01*
X174919725Y-77094006D01*
X174825269Y-77056700D01*
X174780819Y-76951925D01*
X174826856Y-76846356D01*
X174926075Y-76808256D01*
X175007831Y-76835244D01*
X175093556Y-76870169D01*
X175147134Y-76848341D01*
X175167823Y-76824131D01*
X175741256Y-76824131D01*
X175749293Y-76927716D01*
X175773403Y-77025744D01*
X175813587Y-77118216D01*
X175869844Y-77205131D01*
X175941083Y-77279744D01*
X176030975Y-77338481D01*
X176135750Y-77376581D01*
X176251638Y-77389281D01*
X176367723Y-77376780D01*
X176473094Y-77339275D01*
X176563978Y-77281530D01*
X176636606Y-77208306D01*
X176693558Y-77120200D01*
X176695644Y-77115438D01*
X176869969Y-77115438D01*
X176911244Y-77206719D01*
X176925531Y-77224181D01*
X176971569Y-77272600D01*
X177043006Y-77322606D01*
X177150956Y-77367850D01*
X177219616Y-77381542D01*
X177292244Y-77386106D01*
X177387670Y-77376758D01*
X177479216Y-77348712D01*
X177566881Y-77301969D01*
X177627206Y-77250177D01*
X177643895Y-77225769D01*
X177819294Y-77225769D01*
X177828819Y-77308319D01*
X177870888Y-77353563D01*
X177958994Y-77368644D01*
X178376506Y-77368644D01*
X178472021Y-77356738D01*
X178557481Y-77321019D01*
X178632888Y-77261488D01*
X178691890Y-77184317D01*
X178728138Y-77095682D01*
X178741631Y-76995581D01*
X178731224Y-76906505D01*
X178700003Y-76823426D01*
X178672616Y-76782856D01*
X179222644Y-76782856D01*
X179233161Y-76902117D01*
X179264713Y-77012250D01*
X179312536Y-77108294D01*
X179371869Y-77185288D01*
X179441123Y-77247597D01*
X179518713Y-77299588D01*
X179599278Y-77339672D01*
X179677463Y-77366263D01*
X179754059Y-77381145D01*
X179829863Y-77386106D01*
X179906658Y-77379756D01*
X179986231Y-77360706D01*
X180093388Y-77319431D01*
X180148156Y-77286094D01*
X180198163Y-77246406D01*
X180219594Y-77190844D01*
X180184669Y-77101944D01*
X180129503Y-77035269D01*
X180078306Y-77013044D01*
X180002106Y-77044794D01*
X179973531Y-77065431D01*
X179910825Y-77090831D01*
X179817956Y-77103531D01*
X179715166Y-77086069D01*
X179616344Y-77033681D01*
X179535381Y-76933669D01*
X179511569Y-76866002D01*
X179503631Y-76790000D01*
X179511569Y-76713998D01*
X179535381Y-76646331D01*
X179614756Y-76547906D01*
X179715563Y-76494328D01*
X179817956Y-76476469D01*
X179917969Y-76489962D01*
X179995756Y-76530444D01*
X180076719Y-76565369D01*
X180129106Y-76543937D01*
X180187844Y-76479644D01*
X180221181Y-76391537D01*
X180179906Y-76316131D01*
X180135456Y-76287556D01*
X180097356Y-76265331D01*
X179980675Y-76218500D01*
X179904277Y-76201236D01*
X179829069Y-76195481D01*
X179724470Y-76205006D01*
X179620224Y-76233581D01*
X179516331Y-76281206D01*
X179438345Y-76331014D01*
X179369488Y-76391537D01*
X179310948Y-76466150D01*
X179263919Y-76558225D01*
X179232963Y-76664786D01*
X179222644Y-76782856D01*
X178672616Y-76782856D01*
X178647969Y-76746344D01*
X178693213Y-76654666D01*
X178708294Y-76554256D01*
X178696828Y-76462534D01*
X178662433Y-76379984D01*
X178605106Y-76306606D01*
X178534198Y-76250162D01*
X178452706Y-76216295D01*
X178360631Y-76205006D01*
X177960581Y-76205006D01*
X177878825Y-76215722D01*
X177836756Y-76247869D01*
X177821675Y-76289144D01*
X177819294Y-76344706D01*
X177819294Y-77225769D01*
X177643895Y-77225769D01*
X177674831Y-77180525D01*
X177705788Y-77095792D01*
X177716106Y-76998756D01*
X177705986Y-76903705D01*
X177675625Y-76824925D01*
X177630183Y-76764798D01*
X177574819Y-76725706D01*
X177511716Y-76699314D01*
X177443056Y-76677287D01*
X177374397Y-76660023D01*
X177311294Y-76647919D01*
X177210488Y-76611406D01*
X177170006Y-76540762D01*
X177204138Y-76472500D01*
X177289863Y-76447894D01*
X177374794Y-76468531D01*
X177399400Y-76489169D01*
X177417656Y-76505044D01*
X177500206Y-76536794D01*
X177556563Y-76516950D01*
X177611331Y-76457419D01*
X177649431Y-76370106D01*
X177600219Y-76292319D01*
X177560531Y-76262156D01*
X177451788Y-76212150D01*
X177369039Y-76193695D01*
X177277956Y-76187544D01*
X177166743Y-76199097D01*
X177072287Y-76233758D01*
X176994588Y-76291525D01*
X176936820Y-76364815D01*
X176902160Y-76446042D01*
X176890606Y-76535206D01*
X176900727Y-76629464D01*
X176931088Y-76709037D01*
X176976530Y-76771545D01*
X177031894Y-76814606D01*
X177094600Y-76845761D01*
X177162069Y-76872550D01*
X177229538Y-76893783D01*
X177292244Y-76908269D01*
X177393050Y-76943988D01*
X177433531Y-77005106D01*
X177417127Y-77072134D01*
X177367915Y-77112351D01*
X177285894Y-77125756D01*
X177209694Y-77101150D01*
X177146194Y-77049556D01*
X177075550Y-76990025D01*
X177022369Y-76970181D01*
X176938231Y-77008281D01*
X176887034Y-77068408D01*
X176869969Y-77115438D01*
X176695644Y-77115438D01*
X176734238Y-77027331D01*
X176758645Y-76929700D01*
X176766781Y-76827306D01*
X176766781Y-76347881D01*
X176757256Y-76265331D01*
X176736619Y-76231994D01*
X176695344Y-76212944D01*
X176623113Y-76205006D01*
X176547706Y-76214531D01*
X176501669Y-76249456D01*
X176485794Y-76336769D01*
X176485794Y-76822544D01*
X176471506Y-76928509D01*
X176428644Y-77020981D01*
X176356809Y-77085275D01*
X176255606Y-77106706D01*
X176142894Y-77079719D01*
X176071456Y-77008281D01*
X176035738Y-76918588D01*
X176023831Y-76824131D01*
X176023831Y-76347881D01*
X176004781Y-76247869D01*
X175963506Y-76214531D01*
X175882544Y-76205006D01*
X175801581Y-76214531D01*
X175758719Y-76247869D01*
X175743637Y-76289938D01*
X175741256Y-76346294D01*
X175741256Y-76824131D01*
X175167823Y-76824131D01*
X175203094Y-76782856D01*
X175236431Y-76691575D01*
X175195156Y-76619344D01*
X175150706Y-76589181D01*
X175125306Y-76573306D01*
X175041169Y-76540762D01*
X174923694Y-76524094D01*
X174826151Y-76535735D01*
X174732488Y-76570660D01*
X174642706Y-76628869D01*
X174583572Y-76687805D01*
X174536344Y-76763012D01*
X174505387Y-76851119D01*
X174495069Y-76948750D01*
X174403797Y-76948750D01*
X174407955Y-76927021D01*
X174415694Y-76790794D01*
X174410402Y-76685842D01*
X174394527Y-76584772D01*
X174368069Y-76487581D01*
X174334930Y-76407412D01*
X174292662Y-76338356D01*
X174237100Y-76280016D01*
X174164075Y-76231994D01*
X174075373Y-76199847D01*
X173972781Y-76189131D01*
X173869792Y-76200045D01*
X173779900Y-76232787D01*
X173705883Y-76281603D01*
X173650519Y-76340737D01*
X173606664Y-76417136D01*
X173567175Y-76517744D01*
X173546449Y-76598001D01*
X173534014Y-76688488D01*
X173529869Y-76789206D01*
X173050444Y-76789206D01*
X173050444Y-76349469D01*
X173042506Y-76265331D01*
X173020281Y-76231200D01*
X172979006Y-76212944D01*
X172903600Y-76205006D01*
X172813906Y-76246281D01*
X172809144Y-76249456D01*
X172548794Y-76484406D01*
X172491644Y-76578069D01*
X172392425Y-76578069D01*
X172361469Y-76552669D01*
X172274156Y-76519331D01*
X172223356Y-76532825D01*
X172195575Y-76559812D01*
X172169381Y-76603469D01*
X171961419Y-77003519D01*
X171753456Y-76603469D01*
X171711387Y-76539175D01*
X171656619Y-76517744D01*
X171561369Y-76552669D01*
X171499456Y-76603866D01*
X171478819Y-76659031D01*
X170966189Y-76659031D01*
X170966189Y-75674914D01*
X180733811Y-75674914D01*
X180733811Y-77905086D01*
G37*
%TO.C,Rows1*%
X204252488Y-51159500D02*
X205742613Y-51159500D01*
X204252488Y-49679500D02*
X204252488Y-51159500D01*
X170099450Y-54749500D02*
X205740550Y-54749500D01*
X170099450Y-51159500D02*
X170099450Y-54749500D01*
X204252488Y-49679500D02*
X171589575Y-49679500D01*
X171589575Y-49679500D02*
X171589575Y-51159500D01*
X170099450Y-51159500D02*
X171589575Y-51159500D01*
X205740550Y-54749500D02*
X205742613Y-51159500D01*
%TO.C,kibuzzard-61E6F38C*%
G36*
X191594092Y-80102057D02*
G01*
X203165908Y-80102057D01*
X202501143Y-82317943D01*
X192258857Y-82317943D01*
X191924093Y-81202062D01*
X192771487Y-81202062D01*
X192782005Y-81321323D01*
X192813556Y-81431456D01*
X192861380Y-81527500D01*
X192920712Y-81604494D01*
X192989967Y-81666803D01*
X193067556Y-81718794D01*
X193148122Y-81758878D01*
X193226306Y-81785469D01*
X193302903Y-81800352D01*
X193378706Y-81805313D01*
X193455502Y-81798963D01*
X193535075Y-81779913D01*
X193642231Y-81738638D01*
X193697000Y-81705300D01*
X193747006Y-81665613D01*
X193768437Y-81610050D01*
X193733512Y-81521150D01*
X193678347Y-81454475D01*
X193627150Y-81432250D01*
X193550950Y-81464000D01*
X193522375Y-81484638D01*
X193459669Y-81510038D01*
X193366800Y-81522738D01*
X193264009Y-81505275D01*
X193165187Y-81452888D01*
X193097076Y-81368750D01*
X193873212Y-81368750D01*
X193884942Y-81479258D01*
X193920132Y-81577947D01*
X193978781Y-81664819D01*
X194055246Y-81732288D01*
X194143881Y-81772769D01*
X194244687Y-81786263D01*
X194362162Y-81751338D01*
X194405025Y-81716413D01*
X194433600Y-81684663D01*
X194449475Y-81749750D01*
X194490353Y-81778325D01*
X194568537Y-81787850D01*
X194648309Y-81777531D01*
X194690775Y-81746575D01*
X194705856Y-81706094D01*
X194708166Y-81654500D01*
X194811425Y-81654500D01*
X194841587Y-81714825D01*
X194937102Y-81764214D01*
X195035262Y-81793847D01*
X195136069Y-81803725D01*
X195232465Y-81798257D01*
X195317397Y-81781853D01*
X195390862Y-81754513D01*
X195477381Y-81667994D01*
X195500598Y-81603898D01*
X195508337Y-81527500D01*
X195500598Y-81451895D01*
X195477381Y-81390181D01*
X195400387Y-81313188D01*
X195300375Y-81273500D01*
X195197187Y-81252863D01*
X195116225Y-81230241D01*
X195089237Y-81190950D01*
X195182900Y-81156025D01*
X195294819Y-81179837D01*
X195365463Y-81203650D01*
X195436900Y-81148087D01*
X195449923Y-81113162D01*
X195571837Y-81113162D01*
X195594856Y-81205237D01*
X195652800Y-81232225D01*
X195717887Y-81227463D01*
X195717887Y-81462412D01*
X195727412Y-81569481D01*
X195755987Y-81653618D01*
X195803612Y-81714825D01*
X195869582Y-81756276D01*
X195953190Y-81781147D01*
X196054437Y-81789438D01*
X196107619Y-81787056D01*
X196149687Y-81773563D01*
X196183025Y-81731891D01*
X196194137Y-81651325D01*
X196157625Y-81544963D01*
X196115556Y-81529881D01*
X196058406Y-81527500D01*
X196007606Y-81508450D01*
X195994112Y-81446538D01*
X195994112Y-81371925D01*
X196300500Y-81371925D01*
X196317367Y-81492377D01*
X196367969Y-81599731D01*
X196443177Y-81688234D01*
X196533862Y-81752131D01*
X196633875Y-81790827D01*
X196737062Y-81803725D01*
X196840052Y-81791620D01*
X196939469Y-81755306D01*
X197029758Y-81693394D01*
X197066885Y-81649738D01*
X197276812Y-81649738D01*
X197279194Y-81705300D01*
X197292687Y-81746575D01*
X197334359Y-81778722D01*
X197414925Y-81789438D01*
X197495888Y-81779119D01*
X197538750Y-81748163D01*
X197553831Y-81706094D01*
X197556213Y-81651325D01*
X197556213Y-81370338D01*
X197580025Y-81266753D01*
X197651463Y-81232225D01*
X197725281Y-81266753D01*
X197749888Y-81370338D01*
X197749888Y-81648150D01*
X197752269Y-81702919D01*
X197765763Y-81744988D01*
X197807434Y-81778325D01*
X197888000Y-81789438D01*
X197969756Y-81778722D01*
X198011825Y-81746575D01*
X198026906Y-81705300D01*
X198029288Y-81649738D01*
X198029288Y-81371925D01*
X198049131Y-81268738D01*
X198124538Y-81232225D01*
X198198356Y-81266753D01*
X198222963Y-81370338D01*
X198222963Y-81648150D01*
X198225344Y-81702919D01*
X198238838Y-81744988D01*
X198280509Y-81778325D01*
X198361075Y-81789438D01*
X198442434Y-81778722D01*
X198483313Y-81746575D01*
X198498394Y-81704506D01*
X198500775Y-81649738D01*
X198500775Y-81648150D01*
X199029413Y-81648150D01*
X199038938Y-81729113D01*
X199081006Y-81774356D01*
X199169113Y-81789438D01*
X199740613Y-81789438D01*
X199823163Y-81773563D01*
X199850150Y-81738638D01*
X199858088Y-81671169D01*
X199855380Y-81648150D01*
X199961275Y-81648150D01*
X199970800Y-81729113D01*
X200012869Y-81774356D01*
X200100975Y-81789438D01*
X200729625Y-81789438D01*
X200812175Y-81779913D01*
X200856228Y-81737844D01*
X200870913Y-81649738D01*
X200870497Y-81646563D01*
X200974100Y-81646563D01*
X200993150Y-81748163D01*
X201035219Y-81777928D01*
X201113800Y-81787850D01*
X201404312Y-81787850D01*
X201521242Y-81777035D01*
X201629142Y-81744591D01*
X201728014Y-81690516D01*
X201817856Y-81614813D01*
X201892518Y-81523978D01*
X201945848Y-81424511D01*
X201977846Y-81316412D01*
X201988513Y-81199681D01*
X201977598Y-81083397D01*
X201944856Y-80976637D01*
X201890286Y-80879403D01*
X201813888Y-80791694D01*
X201723102Y-80719115D01*
X201625372Y-80667273D01*
X201520696Y-80636168D01*
X201409075Y-80625800D01*
X201115388Y-80624212D01*
X201033631Y-80634928D01*
X200991563Y-80667075D01*
X200976481Y-80708350D01*
X200974100Y-80763912D01*
X200974100Y-81646563D01*
X200870497Y-81646563D01*
X200860197Y-81567981D01*
X200828050Y-81525913D01*
X200785981Y-81510831D01*
X200731213Y-81508450D01*
X200242263Y-81508450D01*
X200242263Y-81348113D01*
X200553413Y-81348113D01*
X200635963Y-81338588D01*
X200681206Y-81296519D01*
X200696288Y-81208412D01*
X200685572Y-81126656D01*
X200653425Y-81084587D01*
X200611356Y-81069506D01*
X200556588Y-81067125D01*
X200242263Y-81067125D01*
X200242263Y-80906787D01*
X200729625Y-80906787D01*
X200812175Y-80897262D01*
X200856228Y-80855194D01*
X200870913Y-80767087D01*
X200860197Y-80685331D01*
X200828050Y-80643262D01*
X200785981Y-80628181D01*
X200731213Y-80625800D01*
X200105738Y-80625800D01*
X199991438Y-80655169D01*
X199961275Y-80765500D01*
X199961275Y-81648150D01*
X199855380Y-81648150D01*
X199850150Y-81603700D01*
X199818400Y-81566394D01*
X199742200Y-81554488D01*
X199310400Y-81554488D01*
X199310400Y-80767087D01*
X199302463Y-80684537D01*
X199259203Y-80640484D01*
X199170700Y-80625800D01*
X199088944Y-80636516D01*
X199046875Y-80668662D01*
X199031794Y-80710731D01*
X199029413Y-80765500D01*
X199029413Y-81648150D01*
X198500775Y-81648150D01*
X198500775Y-81371925D01*
X198491250Y-81235841D01*
X198462675Y-81128156D01*
X198415050Y-81048869D01*
X198319006Y-80975645D01*
X198202325Y-80951237D01*
X198091200Y-80982194D01*
X198012619Y-81039344D01*
X197970550Y-81089350D01*
X197908461Y-81012621D01*
X197828028Y-80966583D01*
X197729250Y-80951237D01*
X197632016Y-80979416D01*
X197549863Y-81063950D01*
X197522875Y-80981400D01*
X197406988Y-80952825D01*
X197334359Y-80963541D01*
X197294275Y-80995687D01*
X197279194Y-81036169D01*
X197276812Y-81090937D01*
X197276812Y-81649738D01*
X197066885Y-81649738D01*
X197105362Y-81604494D01*
X197156559Y-81494758D01*
X197173625Y-81370338D01*
X197158985Y-81250834D01*
X197115064Y-81146324D01*
X197041862Y-81056806D01*
X196949611Y-80988456D01*
X196848540Y-80947445D01*
X196738650Y-80933775D01*
X196628583Y-80947533D01*
X196526983Y-80988808D01*
X196433850Y-81057600D01*
X196359767Y-81147558D01*
X196315317Y-81252333D01*
X196300500Y-81371925D01*
X195994112Y-81371925D01*
X195994112Y-81227463D01*
X196097300Y-81233813D01*
X196152069Y-81231431D01*
X196194137Y-81217938D01*
X196226284Y-81176266D01*
X196237000Y-81095700D01*
X196226681Y-81014341D01*
X196195725Y-80973462D01*
X196153656Y-80958381D01*
X196099681Y-80956000D01*
X195994112Y-80962350D01*
X195994112Y-80806775D01*
X195986175Y-80725812D01*
X195943709Y-80681759D01*
X195857587Y-80667075D01*
X195776228Y-80676997D01*
X195735350Y-80706762D01*
X195720269Y-80744862D01*
X195717887Y-80798837D01*
X195717887Y-80962350D01*
X195665500Y-80956000D01*
X195602000Y-80976637D01*
X195579775Y-81018706D01*
X195571837Y-81113162D01*
X195449923Y-81113162D01*
X195471825Y-81054425D01*
X195416262Y-80990925D01*
X195298787Y-80950444D01*
X195184487Y-80936950D01*
X195060472Y-80946983D01*
X194964015Y-80977082D01*
X194895118Y-81027247D01*
X194853779Y-81097478D01*
X194840000Y-81187775D01*
X194847541Y-81266158D01*
X194870162Y-81333031D01*
X194946362Y-81422725D01*
X195045184Y-81471541D01*
X195144800Y-81497338D01*
X195224572Y-81515594D01*
X195251162Y-81541788D01*
X195226953Y-81570363D01*
X195154325Y-81579888D01*
X195033675Y-81540994D01*
X194928106Y-81502100D01*
X194871750Y-81529088D01*
X194826506Y-81602509D01*
X194811425Y-81654500D01*
X194708166Y-81654500D01*
X194708237Y-81652913D01*
X194708237Y-81090937D01*
X194705856Y-81036169D01*
X194692362Y-80994100D01*
X194650691Y-80961953D01*
X194570125Y-80951237D01*
X194488766Y-80961556D01*
X194447887Y-80992512D01*
X194432806Y-81034581D01*
X194430425Y-81089350D01*
X194430425Y-81370338D01*
X194391531Y-81470350D01*
X194289931Y-81508450D01*
X194189919Y-81471938D01*
X194152612Y-81370338D01*
X194152612Y-81092525D01*
X194143087Y-81011562D01*
X194101019Y-80966319D01*
X194012912Y-80951237D01*
X193931156Y-80961953D01*
X193889087Y-80994100D01*
X193875594Y-81035375D01*
X193873212Y-81090937D01*
X193873212Y-81368750D01*
X193097076Y-81368750D01*
X193084225Y-81352875D01*
X193060412Y-81285208D01*
X193052475Y-81209206D01*
X193060412Y-81133205D01*
X193084225Y-81065537D01*
X193163600Y-80967112D01*
X193264406Y-80913534D01*
X193366800Y-80895675D01*
X193466812Y-80909169D01*
X193544600Y-80949650D01*
X193625562Y-80984575D01*
X193677950Y-80963144D01*
X193736687Y-80898850D01*
X193770025Y-80810744D01*
X193728750Y-80735337D01*
X193684300Y-80706762D01*
X193646200Y-80684537D01*
X193529519Y-80637706D01*
X193453120Y-80620442D01*
X193377912Y-80614687D01*
X193273314Y-80624212D01*
X193169068Y-80652787D01*
X193065175Y-80700412D01*
X192987189Y-80750220D01*
X192918331Y-80810744D01*
X192859792Y-80885356D01*
X192812762Y-80977431D01*
X192781806Y-81083992D01*
X192771487Y-81202062D01*
X191924093Y-81202062D01*
X191594092Y-80102057D01*
G37*
G36*
X196843425Y-81251275D02*
G01*
X196880334Y-81299297D01*
X196892637Y-81367163D01*
X196879541Y-81435425D01*
X196840250Y-81484638D01*
X196735475Y-81524325D01*
X196632287Y-81485431D01*
X196594187Y-81437013D01*
X196581487Y-81369544D01*
X196593791Y-81301877D01*
X196630700Y-81252863D01*
X196737062Y-81213175D01*
X196843425Y-81251275D01*
G37*
G36*
X201520398Y-80928417D02*
G01*
X201617831Y-80993306D01*
X201685102Y-81090342D01*
X201707525Y-81208412D01*
X201684506Y-81326086D01*
X201615450Y-81421931D01*
X201517819Y-81485630D01*
X201409075Y-81506863D01*
X201255088Y-81506863D01*
X201255088Y-80906787D01*
X201407488Y-80906787D01*
X201520398Y-80928417D01*
G37*
%TO.C,Columns1*%
X157147975Y-54840000D02*
X157147975Y-53360000D01*
X114325062Y-54840000D02*
X114325062Y-53360000D01*
X158638100Y-53360000D02*
X158638100Y-49770000D01*
X158638100Y-49770000D02*
X112837000Y-49770000D01*
X114325062Y-53360000D02*
X112834937Y-53360000D01*
X158638100Y-53360000D02*
X157147975Y-53360000D01*
X112837000Y-49770000D02*
X112834937Y-53360000D01*
X114325062Y-54840000D02*
X157147975Y-54840000D01*
%TO.C,kibuzzard-61E83ADE*%
G36*
X90058367Y-63177219D02*
G01*
X90087895Y-63215636D01*
X90097737Y-63269929D01*
X90087260Y-63324539D01*
X90055827Y-63363909D01*
X89972007Y-63395659D01*
X89889457Y-63364544D01*
X89858977Y-63325809D01*
X89848817Y-63271834D01*
X89858660Y-63217700D01*
X89888187Y-63178489D01*
X89973277Y-63146739D01*
X90058367Y-63177219D01*
G37*
G36*
X88697305Y-62516819D02*
G01*
X93962695Y-62516819D01*
X94834604Y-65423181D01*
X87825396Y-65423181D01*
X87954023Y-64994426D01*
X88803138Y-64994426D01*
X88835670Y-65066372D01*
X88846931Y-65080135D01*
X88883217Y-65118298D01*
X88939522Y-65157712D01*
X89024606Y-65193372D01*
X89078722Y-65204164D01*
X89135966Y-65207761D01*
X89211178Y-65200393D01*
X89283333Y-65178288D01*
X89352429Y-65141446D01*
X89399975Y-65100624D01*
X89437512Y-65045726D01*
X89461911Y-64978942D01*
X89470044Y-64902460D01*
X89466447Y-64868677D01*
X89532606Y-64868677D01*
X89541365Y-64949451D01*
X89567640Y-65024942D01*
X89611433Y-65095150D01*
X89659450Y-65142541D01*
X89723419Y-65179608D01*
X89800526Y-65203538D01*
X89887956Y-65211515D01*
X90004555Y-65204555D01*
X90087840Y-65183675D01*
X90137811Y-65148875D01*
X90154468Y-65100155D01*
X90138202Y-65042598D01*
X90069384Y-64986293D01*
X90019335Y-65000057D01*
X90005571Y-65005061D01*
X89956461Y-65016323D01*
X89891709Y-65020076D01*
X89809128Y-64996303D01*
X89767837Y-64937495D01*
X90064379Y-64937495D01*
X90078694Y-64931239D01*
X90268330Y-64931239D01*
X90277089Y-65046978D01*
X90303365Y-65126431D01*
X90349034Y-65168034D01*
X90428488Y-65190244D01*
X90528586Y-65195874D01*
X90583640Y-65182736D01*
X90602409Y-65149892D01*
X90608665Y-65086392D01*
X90583640Y-64997554D01*
X90562369Y-64986919D01*
X90527961Y-64985042D01*
X90494803Y-64973155D01*
X90487296Y-64916224D01*
X90487296Y-64868677D01*
X90658714Y-64868677D01*
X90667473Y-64949451D01*
X90693749Y-65024942D01*
X90737542Y-65095150D01*
X90785558Y-65142541D01*
X90849527Y-65179608D01*
X90926634Y-65203538D01*
X91014064Y-65211515D01*
X91130663Y-65204555D01*
X91213948Y-65183675D01*
X91263919Y-65148875D01*
X91280576Y-65100155D01*
X91264310Y-65042598D01*
X91195493Y-64986293D01*
X91145443Y-65000057D01*
X91131680Y-65005061D01*
X91082569Y-65016323D01*
X91017818Y-65020076D01*
X90935236Y-64996303D01*
X90893946Y-64937495D01*
X91190488Y-64937495D01*
X91274946Y-64900584D01*
X91297843Y-64863047D01*
X91375670Y-64863047D01*
X91383803Y-64940310D01*
X91408202Y-65010692D01*
X91445426Y-65070908D01*
X91492034Y-65117672D01*
X91564745Y-65164246D01*
X91639402Y-65192190D01*
X91716005Y-65201505D01*
X91811724Y-65188993D01*
X91891177Y-65151456D01*
X91942791Y-65108601D01*
X91959995Y-65062618D01*
X91931217Y-64997554D01*
X91881480Y-64947818D01*
X91839877Y-64931239D01*
X91784197Y-64954387D01*
X91710374Y-64977534D01*
X91635926Y-64948130D01*
X91600892Y-64865549D01*
X91637177Y-64782342D01*
X91715379Y-64752313D01*
X91779818Y-64773584D01*
X91847384Y-64801111D01*
X91889613Y-64783906D01*
X91933719Y-64732293D01*
X91959309Y-64662224D01*
X92010044Y-64662224D01*
X92028187Y-64734795D01*
X92073857Y-64756066D01*
X92125158Y-64752313D01*
X92125158Y-64937495D01*
X92132665Y-65021884D01*
X92155187Y-65088199D01*
X92192724Y-65136441D01*
X92244720Y-65169112D01*
X92310618Y-65188714D01*
X92390419Y-65195249D01*
X92432335Y-65193372D01*
X92465493Y-65182736D01*
X92491768Y-65149892D01*
X92500527Y-65086392D01*
X92471749Y-65002559D01*
X92438591Y-64990672D01*
X92393547Y-64988795D01*
X92353507Y-64973781D01*
X92342872Y-64924983D01*
X92342872Y-64866175D01*
X92584360Y-64866175D01*
X92597654Y-64961112D01*
X92637537Y-65045726D01*
X92696814Y-65115483D01*
X92768291Y-65165845D01*
X92847118Y-65196343D01*
X92928448Y-65206510D01*
X93009622Y-65196969D01*
X93087980Y-65168347D01*
X93158231Y-65120175D01*
X93353867Y-65120175D01*
X93376389Y-65173978D01*
X93462724Y-65195249D01*
X93526537Y-65187116D01*
X93560320Y-65162717D01*
X93572207Y-65129559D01*
X93574084Y-65086392D01*
X93574084Y-64823633D01*
X93603488Y-64766076D01*
X93666675Y-64742303D01*
X93721103Y-64752313D01*
X93764271Y-64762323D01*
X93833089Y-64714776D01*
X93856862Y-64627190D01*
X93841222Y-64569007D01*
X93801808Y-64543357D01*
X93758015Y-64532722D01*
X93708591Y-64529593D01*
X93640399Y-64550864D01*
X93589724Y-64584648D01*
X93571581Y-64605919D01*
X93557818Y-64564628D01*
X93524973Y-64543044D01*
X93463975Y-64535850D01*
X93399537Y-64544295D01*
X93366379Y-64569633D01*
X93355744Y-64601539D01*
X93353867Y-64644707D01*
X93353867Y-65120175D01*
X93158231Y-65120175D01*
X93159144Y-65119549D01*
X93218734Y-65049480D01*
X93259086Y-64962989D01*
X93272537Y-64864924D01*
X93260998Y-64770734D01*
X93226380Y-64688361D01*
X93168685Y-64617805D01*
X93095974Y-64563933D01*
X93016313Y-64531609D01*
X92929700Y-64520835D01*
X92842947Y-64531679D01*
X92762869Y-64564211D01*
X92689463Y-64618431D01*
X92631072Y-64689334D01*
X92596038Y-64771915D01*
X92584360Y-64866175D01*
X92342872Y-64866175D01*
X92342872Y-64752313D01*
X92424202Y-64757318D01*
X92467369Y-64755441D01*
X92500527Y-64744805D01*
X92525865Y-64711960D01*
X92534310Y-64648460D01*
X92526177Y-64584335D01*
X92501778Y-64552116D01*
X92468621Y-64540229D01*
X92426079Y-64538352D01*
X92342872Y-64543357D01*
X92342872Y-64420736D01*
X92336616Y-64356924D01*
X92303145Y-64322202D01*
X92235266Y-64310628D01*
X92171140Y-64318448D01*
X92138921Y-64341909D01*
X92127034Y-64371938D01*
X92125158Y-64414480D01*
X92125158Y-64543357D01*
X92083867Y-64538352D01*
X92033818Y-64554618D01*
X92016300Y-64587776D01*
X92010044Y-64662224D01*
X91959309Y-64662224D01*
X91959995Y-64660347D01*
X91927463Y-64603416D01*
X91892429Y-64579643D01*
X91872409Y-64567130D01*
X91806094Y-64541480D01*
X91713502Y-64528342D01*
X91636621Y-64537518D01*
X91562799Y-64565045D01*
X91492034Y-64610924D01*
X91445426Y-64657376D01*
X91408202Y-64716653D01*
X91383803Y-64786096D01*
X91375670Y-64863047D01*
X91297843Y-64863047D01*
X91303568Y-64853662D01*
X91313108Y-64786722D01*
X91302473Y-64712743D01*
X91270567Y-64644707D01*
X91224115Y-64591060D01*
X91166089Y-64552741D01*
X91096489Y-64529750D01*
X91015315Y-64522086D01*
X90919179Y-64532583D01*
X90834304Y-64564072D01*
X90760690Y-64616554D01*
X90704037Y-64686554D01*
X90670045Y-64770595D01*
X90658714Y-64868677D01*
X90487296Y-64868677D01*
X90487296Y-64336904D01*
X90485419Y-64293111D01*
X90473532Y-64259327D01*
X90440374Y-64233990D01*
X90378438Y-64225544D01*
X90314000Y-64233990D01*
X90280842Y-64259327D01*
X90270207Y-64292485D01*
X90268330Y-64335653D01*
X90268330Y-64931239D01*
X90078694Y-64931239D01*
X90148837Y-64900584D01*
X90177459Y-64853662D01*
X90187000Y-64786722D01*
X90176365Y-64712743D01*
X90144458Y-64644707D01*
X90098006Y-64591060D01*
X90039980Y-64552741D01*
X89970381Y-64529750D01*
X89889207Y-64522086D01*
X89793071Y-64532583D01*
X89708195Y-64564072D01*
X89634581Y-64616554D01*
X89577928Y-64686554D01*
X89543937Y-64770595D01*
X89532606Y-64868677D01*
X89466447Y-64868677D01*
X89462068Y-64827543D01*
X89438138Y-64765451D01*
X89402321Y-64718060D01*
X89358685Y-64687249D01*
X89308948Y-64666447D01*
X89254833Y-64649086D01*
X89200717Y-64635479D01*
X89150980Y-64625938D01*
X89071527Y-64597160D01*
X89039621Y-64541480D01*
X89066522Y-64487677D01*
X89134089Y-64468283D01*
X89201030Y-64484549D01*
X89220424Y-64500815D01*
X89234813Y-64513327D01*
X89299877Y-64538352D01*
X89344296Y-64522712D01*
X89387463Y-64475791D01*
X89417493Y-64406973D01*
X89378704Y-64345662D01*
X89347424Y-64321889D01*
X89261714Y-64282475D01*
X89196494Y-64267930D01*
X89124704Y-64263081D01*
X89037049Y-64272187D01*
X88962600Y-64299506D01*
X88901360Y-64345037D01*
X88855829Y-64402802D01*
X88828510Y-64466823D01*
X88819404Y-64537101D01*
X88827381Y-64611393D01*
X88851310Y-64674111D01*
X88887127Y-64723378D01*
X88930764Y-64757318D01*
X88980187Y-64781873D01*
X89033365Y-64802988D01*
X89086542Y-64819723D01*
X89135966Y-64831140D01*
X89215419Y-64859293D01*
X89247325Y-64907465D01*
X89218234Y-64978786D01*
X89130961Y-65002559D01*
X89070901Y-64983165D01*
X89020852Y-64942500D01*
X88965172Y-64895579D01*
X88923256Y-64879938D01*
X88856941Y-64909968D01*
X88816589Y-64957358D01*
X88803138Y-64994426D01*
X87954023Y-64994426D01*
X88404697Y-63492179D01*
X88822657Y-63492179D01*
X88830277Y-63558219D01*
X88863932Y-63594414D01*
X88934417Y-63606479D01*
X89268427Y-63606479D01*
X89344839Y-63596954D01*
X89413207Y-63568379D01*
X89473532Y-63520754D01*
X89520734Y-63459018D01*
X89549732Y-63388109D01*
X89560527Y-63308029D01*
X89556521Y-63273739D01*
X89624027Y-63273739D01*
X89637521Y-63370100D01*
X89678002Y-63455984D01*
X89738168Y-63526786D01*
X89810717Y-63577904D01*
X89890727Y-63608860D01*
X89973277Y-63619179D01*
X90055668Y-63609495D01*
X90135202Y-63580444D01*
X90207433Y-63530914D01*
X90267917Y-63459794D01*
X90308875Y-63372005D01*
X90322353Y-63273739D01*
X90386027Y-63273739D01*
X90399521Y-63370100D01*
X90440002Y-63455984D01*
X90500168Y-63526786D01*
X90572717Y-63577904D01*
X90652727Y-63608860D01*
X90735277Y-63619179D01*
X90817668Y-63609495D01*
X90897202Y-63580444D01*
X90969433Y-63530914D01*
X91029917Y-63459794D01*
X91070875Y-63372005D01*
X91084527Y-63272469D01*
X91072815Y-63176866D01*
X91037678Y-63093258D01*
X91015984Y-63066729D01*
X91135327Y-63066729D01*
X91153742Y-63140389D01*
X91200097Y-63161979D01*
X91252167Y-63158169D01*
X91252167Y-63346129D01*
X91259787Y-63431783D01*
X91282647Y-63499093D01*
X91320747Y-63548059D01*
X91373523Y-63581220D01*
X91440409Y-63601116D01*
X91521407Y-63607749D01*
X91563952Y-63605844D01*
X91597607Y-63595049D01*
X91624277Y-63561711D01*
X91633167Y-63497259D01*
X91603957Y-63412169D01*
X91570302Y-63400104D01*
X91524582Y-63398199D01*
X91483942Y-63382959D01*
X91473147Y-63333429D01*
X91473147Y-63158169D01*
X91555697Y-63163249D01*
X91599512Y-63161344D01*
X91633167Y-63150549D01*
X91658885Y-63117211D01*
X91667457Y-63052759D01*
X91659202Y-62987671D01*
X91634437Y-62954969D01*
X91600782Y-62942904D01*
X91557602Y-62940999D01*
X91473147Y-62946079D01*
X91473147Y-62821619D01*
X91466797Y-62756849D01*
X91432825Y-62721606D01*
X91363927Y-62709859D01*
X91298840Y-62717796D01*
X91266137Y-62741609D01*
X91254072Y-62772089D01*
X91252167Y-62815269D01*
X91252167Y-62946079D01*
X91210257Y-62940999D01*
X91159457Y-62957509D01*
X91141677Y-62991164D01*
X91135327Y-63066729D01*
X91015984Y-63066729D01*
X90979117Y-63021644D01*
X90905316Y-62966963D01*
X90824459Y-62934155D01*
X90736547Y-62923219D01*
X90648494Y-62934225D01*
X90567214Y-62967245D01*
X90492707Y-63022279D01*
X90433440Y-63094245D01*
X90397880Y-63178065D01*
X90386027Y-63273739D01*
X90322353Y-63273739D01*
X90322527Y-63272469D01*
X90310815Y-63176866D01*
X90275678Y-63093258D01*
X90217117Y-63021644D01*
X90143316Y-62966963D01*
X90062459Y-62934155D01*
X89974547Y-62923219D01*
X89886494Y-62934225D01*
X89805214Y-62967245D01*
X89730707Y-63022279D01*
X89671440Y-63094245D01*
X89635880Y-63178065D01*
X89624027Y-63273739D01*
X89556521Y-63273739D01*
X89552202Y-63236768D01*
X89527225Y-63170304D01*
X89485597Y-63108639D01*
X89521792Y-63035296D01*
X89533857Y-62954969D01*
X89524685Y-62881591D01*
X89497168Y-62815551D01*
X89451307Y-62756849D01*
X89394580Y-62711693D01*
X89329387Y-62684600D01*
X89255727Y-62675569D01*
X88935687Y-62675569D01*
X88870282Y-62684141D01*
X88836627Y-62709859D01*
X88824562Y-62742879D01*
X88822657Y-62787329D01*
X88822657Y-63492179D01*
X88404697Y-63492179D01*
X88697305Y-62516819D01*
G37*
G36*
X93012281Y-64771081D02*
G01*
X93041372Y-64808931D01*
X93051069Y-64862421D01*
X93040746Y-64916224D01*
X93009778Y-64955012D01*
X92927197Y-64986293D01*
X92845867Y-64955638D01*
X92815837Y-64917475D01*
X92805828Y-64864298D01*
X92815525Y-64810964D01*
X92844616Y-64772332D01*
X92928448Y-64741052D01*
X93012281Y-64771081D01*
G37*
G36*
X91074749Y-64737298D02*
G01*
X91096645Y-64783593D01*
X91049099Y-64823633D01*
X90891443Y-64823633D01*
X90931483Y-64752938D01*
X91012187Y-64719781D01*
X91074749Y-64737298D01*
G37*
G36*
X89288112Y-62913059D02*
G01*
X89309067Y-62957509D01*
X89305257Y-63003229D01*
X89244297Y-63029899D01*
X89166192Y-63047679D01*
X89142697Y-63120704D01*
X89165557Y-63193729D01*
X89234137Y-63211509D01*
X89305257Y-63221669D01*
X89328752Y-63247069D01*
X89335737Y-63295329D01*
X89315735Y-63360099D01*
X89255727Y-63381689D01*
X89047447Y-63381689D01*
X89047447Y-62900359D01*
X89225247Y-62900359D01*
X89288112Y-62913059D01*
G37*
G36*
X89948640Y-64737298D02*
G01*
X89970537Y-64783593D01*
X89922990Y-64823633D01*
X89765335Y-64823633D01*
X89805374Y-64752938D01*
X89886079Y-64719781D01*
X89948640Y-64737298D01*
G37*
G36*
X90820367Y-63177219D02*
G01*
X90849895Y-63215636D01*
X90859737Y-63269929D01*
X90849260Y-63324539D01*
X90817827Y-63363909D01*
X90734007Y-63395659D01*
X90651457Y-63364544D01*
X90620977Y-63325809D01*
X90610817Y-63271834D01*
X90620660Y-63217700D01*
X90650187Y-63178489D01*
X90735277Y-63146739D01*
X90820367Y-63177219D01*
G37*
%TO.C,kibuzzard-61E1934D*%
G36*
X193621985Y-74736501D02*
G01*
X194364317Y-75850000D01*
X193621985Y-76963499D01*
X188495683Y-76963499D01*
X188495683Y-76084156D01*
X189008313Y-76084156D01*
X189025775Y-76169881D01*
X189028950Y-76185756D01*
X189046413Y-76227031D01*
X189085703Y-76290134D01*
X189130550Y-76339744D01*
X189222273Y-76401480D01*
X189328106Y-76438522D01*
X189448050Y-76450869D01*
X189568877Y-76438610D01*
X189675239Y-76401833D01*
X189767138Y-76340538D01*
X189813942Y-76287356D01*
X189973513Y-76287356D01*
X190004469Y-76401656D01*
X190051697Y-76424278D01*
X190131469Y-76431819D01*
X190209455Y-76420309D01*
X190251325Y-76385781D01*
X190267994Y-76342125D01*
X190270375Y-76285769D01*
X190270375Y-76279419D01*
X190243388Y-76168294D01*
X190191993Y-76143291D01*
X190110832Y-76134956D01*
X190032846Y-76146863D01*
X189990975Y-76182581D01*
X189975894Y-76225444D01*
X189973513Y-76281006D01*
X189973513Y-76287356D01*
X189813942Y-76287356D01*
X189837693Y-76260369D01*
X189880027Y-76166971D01*
X189890987Y-76084156D01*
X190349750Y-76084156D01*
X190367213Y-76169881D01*
X190370388Y-76185756D01*
X190387850Y-76227031D01*
X190427141Y-76290134D01*
X190471988Y-76339744D01*
X190563710Y-76401480D01*
X190669543Y-76438522D01*
X190789488Y-76450869D01*
X190910314Y-76438610D01*
X191016677Y-76401833D01*
X191108575Y-76340538D01*
X191179131Y-76260369D01*
X191221464Y-76166971D01*
X191235575Y-76060344D01*
X191222478Y-75979381D01*
X191183188Y-75907944D01*
X191133182Y-75856350D01*
X191086350Y-75822219D01*
X191086350Y-75811106D01*
X191155142Y-75761276D01*
X191196417Y-75694337D01*
X191210175Y-75610287D01*
X191197652Y-75520770D01*
X191160081Y-75437426D01*
X191118073Y-75385656D01*
X191299075Y-75385656D01*
X191322888Y-75461856D01*
X191761038Y-76350856D01*
X191814219Y-76407213D01*
X191889625Y-76428644D01*
X191905500Y-76428644D01*
X191979319Y-76407213D01*
X192032500Y-76350856D01*
X192470650Y-75461856D01*
X192494463Y-75385656D01*
X192471047Y-75332475D01*
X192400800Y-75284056D01*
X192307138Y-75257069D01*
X192237288Y-75299931D01*
X192215063Y-75347556D01*
X191897563Y-76042881D01*
X191880299Y-76006170D01*
X191841207Y-75921438D01*
X191789613Y-75809320D01*
X191734844Y-75690456D01*
X191680274Y-75571592D01*
X191629275Y-75459475D01*
X191589389Y-75372162D01*
X191568157Y-75327712D01*
X191541963Y-75285644D01*
X191514975Y-75263419D01*
X191472907Y-75257069D01*
X191392738Y-75284056D01*
X191322491Y-75332475D01*
X191299075Y-75385656D01*
X191118073Y-75385656D01*
X191097463Y-75360256D01*
X191013149Y-75298520D01*
X190910491Y-75261478D01*
X190789488Y-75249131D01*
X190710708Y-75254687D01*
X190639469Y-75271356D01*
X190534694Y-75320569D01*
X190468813Y-75383275D01*
X190433888Y-75433281D01*
X190397375Y-75541231D01*
X190417219Y-75597984D01*
X190476750Y-75647594D01*
X190564063Y-75676169D01*
X190624388Y-75656325D01*
X190668838Y-75596794D01*
X190678363Y-75577744D01*
X190719638Y-75539644D01*
X190809332Y-75520594D01*
X190897438Y-75550756D01*
X190929188Y-75614256D01*
X190899025Y-75660691D01*
X190808538Y-75676169D01*
X190725988Y-75684106D01*
X190681935Y-75727366D01*
X190667250Y-75815869D01*
X190677966Y-75897228D01*
X190710113Y-75938106D01*
X190751388Y-75953981D01*
X190823619Y-75957156D01*
X190915694Y-75989700D01*
X190954588Y-76065106D01*
X190914900Y-76142100D01*
X190864100Y-76167698D01*
X190791075Y-76176231D01*
X190724400Y-76166706D01*
X190637088Y-76090506D01*
X190589463Y-76007956D01*
X190505325Y-75992081D01*
X190388644Y-76015100D01*
X190349750Y-76084156D01*
X189890987Y-76084156D01*
X189894138Y-76060344D01*
X189881041Y-75979381D01*
X189841750Y-75907944D01*
X189791744Y-75856350D01*
X189744913Y-75822219D01*
X189744913Y-75811106D01*
X189813705Y-75761276D01*
X189854980Y-75694337D01*
X189868738Y-75610287D01*
X189856214Y-75520770D01*
X189818643Y-75437426D01*
X189756025Y-75360256D01*
X189671711Y-75298520D01*
X189569053Y-75261478D01*
X189448050Y-75249131D01*
X189369271Y-75254687D01*
X189298032Y-75271356D01*
X189193257Y-75320569D01*
X189127375Y-75383275D01*
X189092450Y-75433281D01*
X189055938Y-75541231D01*
X189075782Y-75597984D01*
X189135313Y-75647594D01*
X189222625Y-75676169D01*
X189282950Y-75656325D01*
X189327400Y-75596794D01*
X189336925Y-75577744D01*
X189378200Y-75539644D01*
X189467894Y-75520594D01*
X189556000Y-75550756D01*
X189587750Y-75614256D01*
X189557588Y-75660691D01*
X189467100Y-75676169D01*
X189384550Y-75684106D01*
X189340497Y-75727366D01*
X189325813Y-75815869D01*
X189336528Y-75897228D01*
X189368675Y-75938106D01*
X189409950Y-75953981D01*
X189482182Y-75957156D01*
X189574257Y-75989700D01*
X189613150Y-76065106D01*
X189573463Y-76142100D01*
X189522663Y-76167698D01*
X189449638Y-76176231D01*
X189382963Y-76166706D01*
X189295650Y-76090506D01*
X189248025Y-76007956D01*
X189163888Y-75992081D01*
X189047207Y-76015100D01*
X189008313Y-76084156D01*
X188495683Y-76084156D01*
X188495683Y-74736501D01*
X193621985Y-74736501D01*
G37*
%TO.C,kibuzzard-61E19404*%
G36*
X77181119Y-57380000D02*
G01*
X76440903Y-58490324D01*
X73378881Y-58490324D01*
X73378881Y-57766556D01*
X73891511Y-57766556D01*
X73951836Y-57861806D01*
X73964536Y-57872919D01*
X74004223Y-57903081D01*
X74086773Y-57944533D01*
X74175673Y-57969403D01*
X74270923Y-57977694D01*
X74377991Y-57964553D01*
X74472712Y-57925130D01*
X74555086Y-57859425D01*
X74618586Y-57775464D01*
X74656686Y-57681272D01*
X74669386Y-57576850D01*
X74655980Y-57472957D01*
X74615764Y-57380353D01*
X74548736Y-57299037D01*
X74464951Y-57235978D01*
X74374464Y-57198143D01*
X74277273Y-57185531D01*
X74221711Y-57188706D01*
X74237586Y-57068056D01*
X74515398Y-57068056D01*
X74566992Y-57065675D01*
X74605886Y-57050594D01*
X74635651Y-57011303D01*
X74645573Y-56934706D01*
X74642540Y-56910894D01*
X74732886Y-56910894D01*
X74756698Y-56987094D01*
X75194848Y-57876094D01*
X75248030Y-57932450D01*
X75323436Y-57953881D01*
X75339311Y-57953881D01*
X75413130Y-57932450D01*
X75466311Y-57876094D01*
X75904461Y-56987094D01*
X75928273Y-56910894D01*
X75904858Y-56857712D01*
X75834611Y-56809294D01*
X75740948Y-56782306D01*
X75671098Y-56825169D01*
X75648873Y-56872794D01*
X75331373Y-57568119D01*
X75314109Y-57531408D01*
X75275017Y-57446675D01*
X75223423Y-57334558D01*
X75168655Y-57215694D01*
X75114084Y-57096830D01*
X75063086Y-56984712D01*
X75023200Y-56897400D01*
X75001967Y-56852950D01*
X74975773Y-56810881D01*
X74948786Y-56788656D01*
X74906717Y-56782306D01*
X74826548Y-56809294D01*
X74756301Y-56857712D01*
X74732886Y-56910894D01*
X74642540Y-56910894D01*
X74634858Y-56850569D01*
X74602711Y-56807706D01*
X74561436Y-56792625D01*
X74505873Y-56790244D01*
X74356648Y-56790244D01*
X74115348Y-56788656D01*
X74051055Y-56803737D01*
X74009780Y-56837869D01*
X73986761Y-56880731D01*
X73975648Y-56914069D01*
X73966520Y-56979950D01*
X73942311Y-57158544D01*
X73918498Y-57339916D01*
X73910561Y-57414131D01*
X73928023Y-57453025D01*
X74001842Y-57501444D01*
X74101855Y-57531606D01*
X74188373Y-57495094D01*
X74264573Y-57466519D01*
X74349505Y-57497475D01*
X74386811Y-57581613D01*
X74352680Y-57664956D01*
X74247905Y-57695119D01*
X74148686Y-57661781D01*
X74042323Y-57610981D01*
X73950248Y-57663369D01*
X73891511Y-57766556D01*
X73378881Y-57766556D01*
X73378881Y-56269676D01*
X76440903Y-56269676D01*
X77181119Y-57380000D01*
G37*
%TD*%
M02*
