%TF.GenerationSoftware,KiCad,Pcbnew,(6.0.1-0)*%
%TF.CreationDate,2022-01-19T18:39:32+01:00*%
%TF.ProjectId,modelh,6d6f6465-6c68-42e6-9b69-6361645f7063,v0.1*%
%TF.SameCoordinates,PX3dc4fd0PY2cd02b0*%
%TF.FileFunction,Soldermask,Top*%
%TF.FilePolarity,Negative*%
%FSLAX46Y46*%
G04 Gerber Fmt 4.6, Leading zero omitted, Abs format (unit mm)*
G04 Created by KiCad (PCBNEW (6.0.1-0)) date 2022-01-19 18:39:32*
%MOMM*%
%LPD*%
G01*
G04 APERTURE LIST*
G04 Aperture macros list*
%AMRoundRect*
0 Rectangle with rounded corners*
0 $1 Rounding radius*
0 $2 $3 $4 $5 $6 $7 $8 $9 X,Y pos of 4 corners*
0 Add a 4 corners polygon primitive as box body*
4,1,4,$2,$3,$4,$5,$6,$7,$8,$9,$2,$3,0*
0 Add four circle primitives for the rounded corners*
1,1,$1+$1,$2,$3*
1,1,$1+$1,$4,$5*
1,1,$1+$1,$6,$7*
1,1,$1+$1,$8,$9*
0 Add four rect primitives between the rounded corners*
20,1,$1+$1,$2,$3,$4,$5,0*
20,1,$1+$1,$4,$5,$6,$7,0*
20,1,$1+$1,$6,$7,$8,$9,0*
20,1,$1+$1,$8,$9,$2,$3,0*%
G04 Aperture macros list end*
%ADD10RoundRect,0.050800X-0.850000X0.850000X-0.850000X-0.850000X0.850000X-0.850000X0.850000X0.850000X0*%
%ADD11O,1.801600X1.801600*%
%ADD12C,1.625600*%
%ADD13C,3.601600*%
%ADD14C,4.101600*%
%ADD15RoundRect,0.269550X-0.256250X0.218750X-0.256250X-0.218750X0.256250X-0.218750X0.256250X0.218750X0*%
%ADD16RoundRect,0.050800X-0.750000X1.000000X-0.750000X-1.000000X0.750000X-1.000000X0.750000X1.000000X0*%
%ADD17RoundRect,0.050800X-1.900000X1.000000X-1.900000X-1.000000X1.900000X-1.000000X1.900000X1.000000X0*%
%ADD18RoundRect,0.269550X-0.218750X-0.256250X0.218750X-0.256250X0.218750X0.256250X-0.218750X0.256250X0*%
%ADD19RoundRect,0.269550X0.218750X0.256250X-0.218750X0.256250X-0.218750X-0.256250X0.218750X-0.256250X0*%
%ADD20O,1.828800X1.828800*%
%ADD21RoundRect,0.050800X0.863600X-0.863600X0.863600X0.863600X-0.863600X0.863600X-0.863600X-0.863600X0*%
%ADD22RoundRect,0.198300X0.172500X-0.147500X0.172500X0.147500X-0.172500X0.147500X-0.172500X-0.147500X0*%
%ADD23RoundRect,0.198300X0.147500X0.172500X-0.147500X0.172500X-0.147500X-0.172500X0.147500X-0.172500X0*%
%ADD24RoundRect,0.050800X1.375000X0.500000X-1.375000X0.500000X-1.375000X-0.500000X1.375000X-0.500000X0*%
%ADD25RoundRect,0.198300X-0.172500X0.147500X-0.172500X-0.147500X0.172500X-0.147500X0.172500X0.147500X0*%
%ADD26RoundRect,0.125800X0.521491X0.415425X0.415425X0.521491X-0.521491X-0.415425X-0.415425X-0.521491X0*%
%ADD27RoundRect,0.125800X0.521491X-0.415425X-0.415425X0.521491X-0.521491X0.415425X0.415425X-0.521491X0*%
%ADD28C,1.801600*%
%ADD29RoundRect,0.050800X1.000000X1.200000X-1.000000X1.200000X-1.000000X-1.200000X1.000000X-1.200000X0*%
%ADD30RoundRect,0.294550X0.456250X-0.243750X0.456250X0.243750X-0.456250X0.243750X-0.456250X-0.243750X0*%
%ADD31RoundRect,0.300800X-0.450000X0.325000X-0.450000X-0.325000X0.450000X-0.325000X0.450000X0.325000X0*%
%ADD32RoundRect,0.294550X0.243750X0.456250X-0.243750X0.456250X-0.243750X-0.456250X0.243750X-0.456250X0*%
%ADD33RoundRect,0.198300X-0.147500X-0.172500X0.147500X-0.172500X0.147500X0.172500X-0.147500X0.172500X0*%
%ADD34RoundRect,0.294550X-0.456250X0.243750X-0.456250X-0.243750X0.456250X-0.243750X0.456250X0.243750X0*%
%ADD35C,0.751600*%
%ADD36RoundRect,0.050800X0.300000X0.725000X-0.300000X0.725000X-0.300000X-0.725000X0.300000X-0.725000X0*%
%ADD37RoundRect,0.050800X0.150000X0.725000X-0.150000X0.725000X-0.150000X-0.725000X0.150000X-0.725000X0*%
%ADD38O,1.101600X1.701600*%
%ADD39O,1.101600X2.201600*%
%ADD40RoundRect,0.250800X0.275000X-0.200000X0.275000X0.200000X-0.275000X0.200000X-0.275000X-0.200000X0*%
G04 APERTURE END LIST*
D10*
%TO.C,boot_selector1*%
X93955000Y-68875000D03*
D11*
X93955000Y-71415000D03*
X91415000Y-68875000D03*
X91415000Y-71415000D03*
X88875000Y-68875000D03*
X88875000Y-71415000D03*
%TD*%
D12*
%TO.C,Columns1*%
X116690000Y-51260000D03*
X119230000Y-51260000D03*
X121770000Y-51260000D03*
X124310000Y-51260000D03*
X126850000Y-51260000D03*
X129390000Y-51260000D03*
X131930000Y-51260000D03*
X134470000Y-51260000D03*
X137010000Y-51260000D03*
X139550000Y-51260000D03*
X142090000Y-51260000D03*
X144630000Y-51260000D03*
X147170000Y-51260000D03*
X149710000Y-51260000D03*
X152250000Y-51260000D03*
X154790000Y-51260000D03*
%TD*%
%TO.C,Rows1*%
X201887550Y-53259500D03*
X199347550Y-53259500D03*
X196807550Y-53259500D03*
X194267550Y-53259500D03*
X191727550Y-53259500D03*
X189187550Y-53259500D03*
X186647550Y-53259500D03*
X184107550Y-53259500D03*
X181567550Y-53259500D03*
X179027550Y-53259500D03*
X176487550Y-53259500D03*
X173947550Y-53259500D03*
%TD*%
%TO.C,LEDs1*%
X210143700Y-53600000D03*
X210143700Y-56140000D03*
X210143700Y-58680000D03*
X210143700Y-61220000D03*
%TD*%
D13*
%TO.C,HOLE1*%
X76770000Y-51990000D03*
%TD*%
%TO.C,HOLE2*%
X100770000Y-51990000D03*
%TD*%
D14*
%TO.C,HOLE3*%
X69770000Y-71990000D03*
%TD*%
%TO.C,HOLE4*%
X209770000Y-79990000D03*
%TD*%
D15*
%TO.C,R3*%
X89770000Y-60465000D03*
X89770000Y-58890000D03*
%TD*%
%TO.C,C3*%
X82660000Y-73397500D03*
X82660000Y-71822500D03*
%TD*%
D16*
%TO.C,U2*%
X80260000Y-63490000D03*
X82560000Y-63490000D03*
D17*
X82560000Y-69790000D03*
D16*
X84860000Y-63490000D03*
%TD*%
D15*
%TO.C,R4*%
X86970000Y-60477500D03*
X86970000Y-58902500D03*
%TD*%
D18*
%TO.C,R5*%
X98332500Y-64940000D03*
X99907500Y-64940000D03*
%TD*%
D19*
%TO.C,R10*%
X98332500Y-63340000D03*
X99907500Y-63340000D03*
%TD*%
D20*
%TO.C,Debug1*%
X89930000Y-77600000D03*
X89930000Y-80140000D03*
X87390000Y-77600000D03*
X87390000Y-80140000D03*
X84850000Y-77600000D03*
X84850000Y-80140000D03*
X82310000Y-77600000D03*
X82310000Y-80140000D03*
X79770000Y-77600000D03*
D21*
X79770000Y-80140000D03*
%TD*%
D15*
%TO.C,C5*%
X118520000Y-74027500D03*
X118520000Y-72452500D03*
%TD*%
D19*
%TO.C,R6*%
X113732500Y-74240000D03*
X115307500Y-74240000D03*
%TD*%
D22*
%TO.C,C10*%
X101870000Y-61325000D03*
X101870000Y-60355000D03*
%TD*%
D23*
%TO.C,C12*%
X107535000Y-69440000D03*
X108505000Y-69440000D03*
%TD*%
D24*
%TO.C,SW1*%
X97980000Y-78460000D03*
X103740000Y-78460000D03*
X103740000Y-82460000D03*
X97980000Y-82460000D03*
%TD*%
D23*
%TO.C,C2*%
X77070000Y-63240000D03*
X78040000Y-63240000D03*
%TD*%
D25*
%TO.C,C4*%
X84040000Y-73245000D03*
X84040000Y-72275000D03*
%TD*%
D26*
%TO.C,U1*%
X107271212Y-67877876D03*
X106917658Y-67524322D03*
X106564105Y-67170769D03*
X106210551Y-66817215D03*
X105856998Y-66463662D03*
X105503445Y-66110109D03*
X105149891Y-65756555D03*
X104796338Y-65403002D03*
X104442785Y-65049449D03*
X104089231Y-64695895D03*
X103735678Y-64342342D03*
X103382124Y-63988788D03*
D27*
X103382124Y-61991212D03*
X103735678Y-61637658D03*
X104089231Y-61284105D03*
X104442785Y-60930551D03*
X104796338Y-60576998D03*
X105149891Y-60223445D03*
X105503445Y-59869891D03*
X105856998Y-59516338D03*
X106210551Y-59162785D03*
X106564105Y-58809231D03*
X106917658Y-58455678D03*
X107271212Y-58102124D03*
D26*
X109268788Y-58102124D03*
X109622342Y-58455678D03*
X109975895Y-58809231D03*
X110329449Y-59162785D03*
X110683002Y-59516338D03*
X111036555Y-59869891D03*
X111390109Y-60223445D03*
X111743662Y-60576998D03*
X112097215Y-60930551D03*
X112450769Y-61284105D03*
X112804322Y-61637658D03*
X113157876Y-61991212D03*
D27*
X113157876Y-63988788D03*
X112804322Y-64342342D03*
X112450769Y-64695895D03*
X112097215Y-65049449D03*
X111743662Y-65403002D03*
X111390109Y-65756555D03*
X111036555Y-66110109D03*
X110683002Y-66463662D03*
X110329449Y-66817215D03*
X109975895Y-67170769D03*
X109622342Y-67524322D03*
X109268788Y-67877876D03*
%TD*%
D23*
%TO.C,C14*%
X105385000Y-69440000D03*
X106355000Y-69440000D03*
%TD*%
D11*
%TO.C,custom_leds_C1*%
X204130000Y-78360000D03*
X204130000Y-75820000D03*
X204130000Y-73280000D03*
X204130000Y-70740000D03*
D28*
X204130000Y-68200000D03*
%TD*%
D15*
%TO.C,C6*%
X110520000Y-74027500D03*
X110520000Y-72452500D03*
%TD*%
D11*
%TO.C,custom_leds_B1*%
X200030000Y-78360000D03*
X200030000Y-75820000D03*
X200030000Y-73280000D03*
X200030000Y-70740000D03*
D28*
X200030000Y-68200000D03*
%TD*%
D11*
%TO.C,custom_leds_A1*%
X196330000Y-78360000D03*
X196330000Y-75820000D03*
X196330000Y-73280000D03*
X196330000Y-70740000D03*
D28*
X196330000Y-68200000D03*
%TD*%
D29*
%TO.C,Y1*%
X112670000Y-71490000D03*
X116370000Y-71490000D03*
%TD*%
D30*
%TO.C,LED2*%
X102940000Y-74042500D03*
X102940000Y-75917500D03*
%TD*%
D15*
%TO.C,R2*%
X100960000Y-75627500D03*
X100960000Y-74052500D03*
%TD*%
D19*
%TO.C,R17*%
X99907500Y-66540000D03*
X98332500Y-66540000D03*
%TD*%
%TO.C,R18*%
X98332500Y-61740000D03*
X99907500Y-61740000D03*
%TD*%
D25*
%TO.C,C9*%
X99500000Y-74785000D03*
X99500000Y-73815000D03*
%TD*%
D31*
%TO.C,R13*%
X196810000Y-59125000D03*
X196810000Y-57075000D03*
%TD*%
%TO.C,R12*%
X194270000Y-59100000D03*
X194270000Y-57050000D03*
%TD*%
%TO.C,R15*%
X201890000Y-59070000D03*
X201890000Y-57020000D03*
%TD*%
%TO.C,R14*%
X199350000Y-59125000D03*
X199350000Y-57075000D03*
%TD*%
D32*
%TO.C,R7*%
X189822500Y-60700000D03*
X191697500Y-60700000D03*
%TD*%
%TO.C,R8*%
X189822500Y-62730000D03*
X191697500Y-62730000D03*
%TD*%
%TO.C,R9*%
X189822500Y-64800000D03*
X191697500Y-64800000D03*
%TD*%
D33*
%TO.C,C13*%
X111355000Y-56740000D03*
X110385000Y-56740000D03*
%TD*%
D28*
%TO.C,TP1*%
X78670000Y-57340000D03*
%TD*%
D19*
%TO.C,C1*%
X76295000Y-61540000D03*
X77870000Y-61540000D03*
%TD*%
D34*
%TO.C,LED1*%
X69770000Y-52677500D03*
X69770000Y-50802500D03*
%TD*%
D18*
%TO.C,R1*%
X77857500Y-59740000D03*
X76282500Y-59740000D03*
%TD*%
D25*
%TO.C,C11*%
X113800000Y-66785000D03*
X113800000Y-65815000D03*
%TD*%
D35*
%TO.C,USB_C1*%
X85880000Y-52190000D03*
X91660000Y-52190000D03*
D36*
X92020000Y-53635000D03*
X91220000Y-53635000D03*
D37*
X90020000Y-53635000D03*
X89020000Y-53635000D03*
X88520000Y-53635000D03*
X87520000Y-53635000D03*
D36*
X86320000Y-53635000D03*
X85520000Y-53635000D03*
X85520000Y-53635000D03*
X86320000Y-53635000D03*
D37*
X87020000Y-53635000D03*
X88020000Y-53635000D03*
X89520000Y-53635000D03*
X90520000Y-53635000D03*
D36*
X91220000Y-53635000D03*
X92020000Y-53635000D03*
D38*
X84450000Y-48540000D03*
D39*
X84450000Y-52720000D03*
X93090000Y-52720000D03*
D38*
X93090000Y-48540000D03*
%TD*%
D40*
%TO.C,R11*%
X92670000Y-58765000D03*
X92670000Y-60415000D03*
%TD*%
G36*
X107527335Y-67200033D02*
G01*
X107527365Y-67200941D01*
X107520101Y-67237456D01*
X107540652Y-67268215D01*
X107577153Y-67275476D01*
X107594006Y-67268495D01*
X107595989Y-67268756D01*
X107596754Y-67270604D01*
X107596185Y-67271757D01*
X106664881Y-68203061D01*
X106662949Y-68203579D01*
X106661535Y-68202165D01*
X106661505Y-68201257D01*
X106668769Y-68164742D01*
X106648218Y-68133983D01*
X106611717Y-68126722D01*
X106594864Y-68133703D01*
X106592881Y-68133442D01*
X106592116Y-68131594D01*
X106592685Y-68130441D01*
X107523989Y-67199137D01*
X107525921Y-67198619D01*
X107527335Y-67200033D01*
G37*
G36*
X109016223Y-67199349D02*
G01*
X109947527Y-68130653D01*
X109948045Y-68132585D01*
X109946631Y-68133999D01*
X109945723Y-68134029D01*
X109909208Y-68126765D01*
X109878449Y-68147316D01*
X109871188Y-68183817D01*
X109878169Y-68200670D01*
X109877908Y-68202653D01*
X109876060Y-68203418D01*
X109874907Y-68202849D01*
X108943603Y-67271545D01*
X108943085Y-67269613D01*
X108944499Y-67268199D01*
X108945407Y-67268169D01*
X108981922Y-67275433D01*
X109012681Y-67254882D01*
X109019942Y-67218381D01*
X109012961Y-67201528D01*
X109013222Y-67199545D01*
X109015070Y-67198780D01*
X109016223Y-67199349D01*
G37*
G36*
X107173783Y-66846479D02*
G01*
X107173813Y-66847387D01*
X107166549Y-66883900D01*
X107187101Y-66914659D01*
X107223602Y-66921920D01*
X107240453Y-66914940D01*
X107242436Y-66915201D01*
X107243201Y-66917049D01*
X107242632Y-66918202D01*
X106311326Y-67849508D01*
X106309394Y-67850026D01*
X106307980Y-67848612D01*
X106307950Y-67847704D01*
X106315214Y-67811191D01*
X106294662Y-67780432D01*
X106258161Y-67773171D01*
X106241310Y-67780151D01*
X106239327Y-67779890D01*
X106238562Y-67778042D01*
X106239131Y-67776889D01*
X107170437Y-66845583D01*
X107172369Y-66845065D01*
X107173783Y-66846479D01*
G37*
G36*
X109369775Y-66845795D02*
G01*
X110301081Y-67777101D01*
X110301599Y-67779033D01*
X110300185Y-67780447D01*
X110299277Y-67780477D01*
X110262764Y-67773213D01*
X110232005Y-67793765D01*
X110224744Y-67830266D01*
X110231724Y-67847117D01*
X110231463Y-67849100D01*
X110229615Y-67849865D01*
X110228462Y-67849296D01*
X109297156Y-66917990D01*
X109296638Y-66916058D01*
X109298052Y-66914644D01*
X109298960Y-66914614D01*
X109335473Y-66921878D01*
X109366232Y-66901326D01*
X109373493Y-66864825D01*
X109366513Y-66847974D01*
X109366774Y-66845991D01*
X109368622Y-66845226D01*
X109369775Y-66845795D01*
G37*
G36*
X106820228Y-66492926D02*
G01*
X106820258Y-66493834D01*
X106812994Y-66530349D01*
X106833545Y-66561108D01*
X106870046Y-66568369D01*
X106886899Y-66561388D01*
X106888882Y-66561649D01*
X106889647Y-66563497D01*
X106889078Y-66564650D01*
X105957774Y-67495954D01*
X105955842Y-67496472D01*
X105954428Y-67495058D01*
X105954398Y-67494150D01*
X105961662Y-67457635D01*
X105941111Y-67426876D01*
X105904610Y-67419615D01*
X105887757Y-67426596D01*
X105885774Y-67426335D01*
X105885009Y-67424487D01*
X105885578Y-67423334D01*
X106816882Y-66492030D01*
X106818814Y-66491512D01*
X106820228Y-66492926D01*
G37*
G36*
X109723330Y-66492242D02*
G01*
X110654634Y-67423546D01*
X110655152Y-67425478D01*
X110653738Y-67426892D01*
X110652830Y-67426922D01*
X110616315Y-67419658D01*
X110585556Y-67440209D01*
X110578295Y-67476710D01*
X110585276Y-67493563D01*
X110585015Y-67495546D01*
X110583167Y-67496311D01*
X110582014Y-67495742D01*
X109650710Y-66564438D01*
X109650192Y-66562506D01*
X109651606Y-66561092D01*
X109652514Y-66561062D01*
X109689029Y-66568326D01*
X109719788Y-66547775D01*
X109727049Y-66511274D01*
X109720068Y-66494421D01*
X109720329Y-66492438D01*
X109722177Y-66491673D01*
X109723330Y-66492242D01*
G37*
G36*
X106466676Y-66139372D02*
G01*
X106466706Y-66140280D01*
X106459442Y-66176793D01*
X106479994Y-66207552D01*
X106516495Y-66214813D01*
X106533346Y-66207833D01*
X106535329Y-66208094D01*
X106536094Y-66209942D01*
X106535525Y-66211095D01*
X105604219Y-67142401D01*
X105602287Y-67142919D01*
X105600873Y-67141505D01*
X105600843Y-67140597D01*
X105608107Y-67104084D01*
X105587555Y-67073325D01*
X105551054Y-67066064D01*
X105534203Y-67073044D01*
X105532220Y-67072783D01*
X105531455Y-67070935D01*
X105532024Y-67069782D01*
X106463330Y-66138476D01*
X106465262Y-66137958D01*
X106466676Y-66139372D01*
G37*
G36*
X110076882Y-66138688D02*
G01*
X111008188Y-67069994D01*
X111008706Y-67071926D01*
X111007292Y-67073340D01*
X111006384Y-67073370D01*
X110969871Y-67066106D01*
X110939112Y-67086658D01*
X110931851Y-67123159D01*
X110938831Y-67140010D01*
X110938570Y-67141993D01*
X110936722Y-67142758D01*
X110935569Y-67142189D01*
X110004263Y-66210883D01*
X110003745Y-66208951D01*
X110005159Y-66207537D01*
X110006067Y-66207507D01*
X110042580Y-66214771D01*
X110073339Y-66194219D01*
X110080600Y-66157718D01*
X110073620Y-66140867D01*
X110073881Y-66138884D01*
X110075729Y-66138119D01*
X110076882Y-66138688D01*
G37*
G36*
X106113123Y-65785819D02*
G01*
X106113153Y-65786727D01*
X106105889Y-65823240D01*
X106126441Y-65853999D01*
X106162942Y-65861260D01*
X106179793Y-65854280D01*
X106181776Y-65854541D01*
X106182541Y-65856389D01*
X106181972Y-65857542D01*
X105250666Y-66788848D01*
X105248734Y-66789366D01*
X105247320Y-66787952D01*
X105247290Y-66787044D01*
X105254554Y-66750531D01*
X105234002Y-66719772D01*
X105197501Y-66712511D01*
X105180650Y-66719491D01*
X105178667Y-66719230D01*
X105177902Y-66717382D01*
X105178471Y-66716229D01*
X106109777Y-65784923D01*
X106111709Y-65784405D01*
X106113123Y-65785819D01*
G37*
G36*
X110430435Y-65785135D02*
G01*
X111361741Y-66716441D01*
X111362259Y-66718373D01*
X111360845Y-66719787D01*
X111359937Y-66719817D01*
X111323424Y-66712553D01*
X111292665Y-66733105D01*
X111285404Y-66769606D01*
X111292384Y-66786457D01*
X111292123Y-66788440D01*
X111290275Y-66789205D01*
X111289122Y-66788636D01*
X110357816Y-65857330D01*
X110357298Y-65855398D01*
X110358712Y-65853984D01*
X110359620Y-65853954D01*
X110396133Y-65861218D01*
X110426892Y-65840666D01*
X110434153Y-65804165D01*
X110427173Y-65787314D01*
X110427434Y-65785331D01*
X110429282Y-65784566D01*
X110430435Y-65785135D01*
G37*
G36*
X105759568Y-65432266D02*
G01*
X105759598Y-65433174D01*
X105752334Y-65469689D01*
X105772885Y-65500448D01*
X105809386Y-65507709D01*
X105826239Y-65500728D01*
X105828222Y-65500989D01*
X105828987Y-65502837D01*
X105828418Y-65503990D01*
X104897114Y-66435294D01*
X104895182Y-66435812D01*
X104893768Y-66434398D01*
X104893738Y-66433490D01*
X104901002Y-66396975D01*
X104880451Y-66366216D01*
X104843950Y-66358955D01*
X104827097Y-66365936D01*
X104825114Y-66365675D01*
X104824349Y-66363827D01*
X104824918Y-66362674D01*
X105756222Y-65431370D01*
X105758154Y-65430852D01*
X105759568Y-65432266D01*
G37*
G36*
X110783990Y-65431582D02*
G01*
X111715294Y-66362886D01*
X111715812Y-66364818D01*
X111714398Y-66366232D01*
X111713490Y-66366262D01*
X111676975Y-66358998D01*
X111646216Y-66379549D01*
X111638955Y-66416050D01*
X111645936Y-66432903D01*
X111645675Y-66434886D01*
X111643827Y-66435651D01*
X111642674Y-66435082D01*
X110711370Y-65503778D01*
X110710852Y-65501846D01*
X110712266Y-65500432D01*
X110713174Y-65500402D01*
X110749689Y-65507666D01*
X110780448Y-65487115D01*
X110787709Y-65450614D01*
X110780728Y-65433761D01*
X110780989Y-65431778D01*
X110782837Y-65431013D01*
X110783990Y-65431582D01*
G37*
G36*
X105406016Y-65078712D02*
G01*
X105406046Y-65079620D01*
X105398782Y-65116133D01*
X105419334Y-65146892D01*
X105455835Y-65154153D01*
X105472686Y-65147173D01*
X105474669Y-65147434D01*
X105475434Y-65149282D01*
X105474865Y-65150435D01*
X104543559Y-66081741D01*
X104541627Y-66082259D01*
X104540213Y-66080845D01*
X104540183Y-66079937D01*
X104547447Y-66043424D01*
X104526895Y-66012665D01*
X104490394Y-66005404D01*
X104473543Y-66012384D01*
X104471560Y-66012123D01*
X104470795Y-66010275D01*
X104471364Y-66009122D01*
X105402670Y-65077816D01*
X105404602Y-65077298D01*
X105406016Y-65078712D01*
G37*
G36*
X111137542Y-65078028D02*
G01*
X112068848Y-66009334D01*
X112069366Y-66011266D01*
X112067952Y-66012680D01*
X112067044Y-66012710D01*
X112030531Y-66005446D01*
X111999772Y-66025998D01*
X111992511Y-66062499D01*
X111999491Y-66079350D01*
X111999230Y-66081333D01*
X111997382Y-66082098D01*
X111996229Y-66081529D01*
X111064923Y-65150223D01*
X111064405Y-65148291D01*
X111065819Y-65146877D01*
X111066727Y-65146847D01*
X111103240Y-65154111D01*
X111133999Y-65133559D01*
X111141260Y-65097058D01*
X111134280Y-65080207D01*
X111134541Y-65078224D01*
X111136389Y-65077459D01*
X111137542Y-65078028D01*
G37*
G36*
X105052463Y-64725159D02*
G01*
X105052493Y-64726067D01*
X105045229Y-64762580D01*
X105065781Y-64793339D01*
X105102282Y-64800600D01*
X105119133Y-64793620D01*
X105121116Y-64793881D01*
X105121881Y-64795729D01*
X105121312Y-64796882D01*
X104190006Y-65728188D01*
X104188074Y-65728706D01*
X104186660Y-65727292D01*
X104186630Y-65726384D01*
X104193894Y-65689871D01*
X104173342Y-65659112D01*
X104136841Y-65651851D01*
X104119990Y-65658831D01*
X104118007Y-65658570D01*
X104117242Y-65656722D01*
X104117811Y-65655569D01*
X105049117Y-64724263D01*
X105051049Y-64723745D01*
X105052463Y-64725159D01*
G37*
G36*
X111491095Y-64724475D02*
G01*
X112422401Y-65655781D01*
X112422919Y-65657713D01*
X112421505Y-65659127D01*
X112420597Y-65659157D01*
X112384084Y-65651893D01*
X112353325Y-65672445D01*
X112346064Y-65708946D01*
X112353044Y-65725797D01*
X112352783Y-65727780D01*
X112350935Y-65728545D01*
X112349782Y-65727976D01*
X111418476Y-64796670D01*
X111417958Y-64794738D01*
X111419372Y-64793324D01*
X111420280Y-64793294D01*
X111456793Y-64800558D01*
X111487552Y-64780006D01*
X111494813Y-64743505D01*
X111487833Y-64726654D01*
X111488094Y-64724671D01*
X111489942Y-64723906D01*
X111491095Y-64724475D01*
G37*
G36*
X104698908Y-64371606D02*
G01*
X104698938Y-64372514D01*
X104691674Y-64409029D01*
X104712225Y-64439788D01*
X104748726Y-64447049D01*
X104765579Y-64440068D01*
X104767562Y-64440329D01*
X104768327Y-64442177D01*
X104767758Y-64443330D01*
X103836454Y-65374634D01*
X103834522Y-65375152D01*
X103833108Y-65373738D01*
X103833078Y-65372830D01*
X103840342Y-65336315D01*
X103819791Y-65305556D01*
X103783290Y-65298295D01*
X103766437Y-65305276D01*
X103764454Y-65305015D01*
X103763689Y-65303167D01*
X103764258Y-65302014D01*
X104695562Y-64370710D01*
X104697494Y-64370192D01*
X104698908Y-64371606D01*
G37*
G36*
X111844650Y-64370922D02*
G01*
X112775954Y-65302226D01*
X112776472Y-65304158D01*
X112775058Y-65305572D01*
X112774150Y-65305602D01*
X112737635Y-65298338D01*
X112706876Y-65318889D01*
X112699615Y-65355390D01*
X112706596Y-65372243D01*
X112706335Y-65374226D01*
X112704487Y-65374991D01*
X112703334Y-65374422D01*
X111772030Y-64443118D01*
X111771512Y-64441186D01*
X111772926Y-64439772D01*
X111773834Y-64439742D01*
X111810349Y-64447006D01*
X111841108Y-64426455D01*
X111848369Y-64389954D01*
X111841388Y-64373101D01*
X111841649Y-64371118D01*
X111843497Y-64370353D01*
X111844650Y-64370922D01*
G37*
G36*
X104345356Y-64018052D02*
G01*
X104345386Y-64018960D01*
X104338122Y-64055473D01*
X104358674Y-64086232D01*
X104395175Y-64093493D01*
X104412026Y-64086513D01*
X104414009Y-64086774D01*
X104414774Y-64088622D01*
X104414205Y-64089775D01*
X103482899Y-65021081D01*
X103480967Y-65021599D01*
X103479553Y-65020185D01*
X103479523Y-65019277D01*
X103486787Y-64982764D01*
X103466235Y-64952005D01*
X103429734Y-64944744D01*
X103412883Y-64951724D01*
X103410900Y-64951463D01*
X103410135Y-64949615D01*
X103410704Y-64948462D01*
X104342010Y-64017156D01*
X104343942Y-64016638D01*
X104345356Y-64018052D01*
G37*
G36*
X112198202Y-64017368D02*
G01*
X113129508Y-64948674D01*
X113130026Y-64950606D01*
X113128612Y-64952020D01*
X113127704Y-64952050D01*
X113091191Y-64944786D01*
X113060432Y-64965338D01*
X113053171Y-65001839D01*
X113060151Y-65018690D01*
X113059890Y-65020673D01*
X113058042Y-65021438D01*
X113056889Y-65020869D01*
X112125583Y-64089563D01*
X112125065Y-64087631D01*
X112126479Y-64086217D01*
X112127387Y-64086187D01*
X112163900Y-64093451D01*
X112194659Y-64072899D01*
X112201920Y-64036398D01*
X112194940Y-64019547D01*
X112195201Y-64017564D01*
X112197049Y-64016799D01*
X112198202Y-64017368D01*
G37*
G36*
X103991801Y-63664499D02*
G01*
X103991831Y-63665407D01*
X103984567Y-63701922D01*
X104005118Y-63732681D01*
X104041619Y-63739942D01*
X104058472Y-63732961D01*
X104060455Y-63733222D01*
X104061220Y-63735070D01*
X104060651Y-63736223D01*
X103129347Y-64667527D01*
X103127415Y-64668045D01*
X103126001Y-64666631D01*
X103125971Y-64665723D01*
X103133235Y-64629208D01*
X103112684Y-64598449D01*
X103076183Y-64591188D01*
X103059330Y-64598169D01*
X103057347Y-64597908D01*
X103056582Y-64596060D01*
X103057151Y-64594907D01*
X103988455Y-63663603D01*
X103990387Y-63663085D01*
X103991801Y-63664499D01*
G37*
G36*
X112551757Y-63663815D02*
G01*
X113483061Y-64595119D01*
X113483579Y-64597051D01*
X113482165Y-64598465D01*
X113481257Y-64598495D01*
X113444742Y-64591231D01*
X113413983Y-64611782D01*
X113406722Y-64648283D01*
X113413703Y-64665136D01*
X113413442Y-64667119D01*
X113411594Y-64667884D01*
X113410441Y-64667315D01*
X112479137Y-63736011D01*
X112478619Y-63734079D01*
X112480033Y-63732665D01*
X112480941Y-63732635D01*
X112517456Y-63739899D01*
X112548215Y-63719348D01*
X112555476Y-63682847D01*
X112548495Y-63665994D01*
X112548756Y-63664011D01*
X112550604Y-63663246D01*
X112551757Y-63663815D01*
G37*
G36*
X113413999Y-61313369D02*
G01*
X113414029Y-61314277D01*
X113406765Y-61350792D01*
X113427316Y-61381551D01*
X113463817Y-61388812D01*
X113480670Y-61381831D01*
X113482653Y-61382092D01*
X113483418Y-61383940D01*
X113482849Y-61385093D01*
X112551545Y-62316397D01*
X112549613Y-62316915D01*
X112548199Y-62315501D01*
X112548169Y-62314593D01*
X112555433Y-62278078D01*
X112534882Y-62247319D01*
X112498381Y-62240058D01*
X112481528Y-62247039D01*
X112479545Y-62246778D01*
X112478780Y-62244930D01*
X112479349Y-62243777D01*
X113410653Y-61312473D01*
X113412585Y-61311955D01*
X113413999Y-61313369D01*
G37*
G36*
X103129559Y-61312685D02*
G01*
X104060863Y-62243989D01*
X104061381Y-62245921D01*
X104059967Y-62247335D01*
X104059059Y-62247365D01*
X104022544Y-62240101D01*
X103991785Y-62260652D01*
X103984524Y-62297153D01*
X103991505Y-62314006D01*
X103991244Y-62315989D01*
X103989396Y-62316754D01*
X103988243Y-62316185D01*
X103056939Y-61384881D01*
X103056421Y-61382949D01*
X103057835Y-61381535D01*
X103058743Y-61381505D01*
X103095258Y-61388769D01*
X103126017Y-61368218D01*
X103133278Y-61331717D01*
X103126297Y-61314864D01*
X103126558Y-61312881D01*
X103128406Y-61312116D01*
X103129559Y-61312685D01*
G37*
G36*
X113060447Y-60959815D02*
G01*
X113060477Y-60960723D01*
X113053213Y-60997236D01*
X113073765Y-61027995D01*
X113110266Y-61035256D01*
X113127117Y-61028276D01*
X113129100Y-61028537D01*
X113129865Y-61030385D01*
X113129296Y-61031538D01*
X112197990Y-61962844D01*
X112196058Y-61963362D01*
X112194644Y-61961948D01*
X112194614Y-61961040D01*
X112201878Y-61924527D01*
X112181326Y-61893768D01*
X112144825Y-61886507D01*
X112127974Y-61893487D01*
X112125991Y-61893226D01*
X112125226Y-61891378D01*
X112125795Y-61890225D01*
X113057101Y-60958919D01*
X113059033Y-60958401D01*
X113060447Y-60959815D01*
G37*
G36*
X103483111Y-60959131D02*
G01*
X104414417Y-61890437D01*
X104414935Y-61892369D01*
X104413521Y-61893783D01*
X104412613Y-61893813D01*
X104376100Y-61886549D01*
X104345341Y-61907101D01*
X104338080Y-61943602D01*
X104345060Y-61960453D01*
X104344799Y-61962436D01*
X104342951Y-61963201D01*
X104341798Y-61962632D01*
X103410492Y-61031326D01*
X103409974Y-61029394D01*
X103411388Y-61027980D01*
X103412296Y-61027950D01*
X103448809Y-61035214D01*
X103479568Y-61014662D01*
X103486829Y-60978161D01*
X103479849Y-60961310D01*
X103480110Y-60959327D01*
X103481958Y-60958562D01*
X103483111Y-60959131D01*
G37*
G36*
X112706892Y-60606262D02*
G01*
X112706922Y-60607170D01*
X112699658Y-60643685D01*
X112720209Y-60674444D01*
X112756710Y-60681705D01*
X112773563Y-60674724D01*
X112775546Y-60674985D01*
X112776311Y-60676833D01*
X112775742Y-60677986D01*
X111844438Y-61609290D01*
X111842506Y-61609808D01*
X111841092Y-61608394D01*
X111841062Y-61607486D01*
X111848326Y-61570971D01*
X111827775Y-61540212D01*
X111791274Y-61532951D01*
X111774421Y-61539932D01*
X111772438Y-61539671D01*
X111771673Y-61537823D01*
X111772242Y-61536670D01*
X112703546Y-60605366D01*
X112705478Y-60604848D01*
X112706892Y-60606262D01*
G37*
G36*
X103836666Y-60605578D02*
G01*
X104767970Y-61536882D01*
X104768488Y-61538814D01*
X104767074Y-61540228D01*
X104766166Y-61540258D01*
X104729651Y-61532994D01*
X104698892Y-61553545D01*
X104691631Y-61590046D01*
X104698612Y-61606899D01*
X104698351Y-61608882D01*
X104696503Y-61609647D01*
X104695350Y-61609078D01*
X103764046Y-60677774D01*
X103763528Y-60675842D01*
X103764942Y-60674428D01*
X103765850Y-60674398D01*
X103802365Y-60681662D01*
X103833124Y-60661111D01*
X103840385Y-60624610D01*
X103833404Y-60607757D01*
X103833665Y-60605774D01*
X103835513Y-60605009D01*
X103836666Y-60605578D01*
G37*
G36*
X112353340Y-60252708D02*
G01*
X112353370Y-60253616D01*
X112346106Y-60290129D01*
X112366658Y-60320888D01*
X112403159Y-60328149D01*
X112420010Y-60321169D01*
X112421993Y-60321430D01*
X112422758Y-60323278D01*
X112422189Y-60324431D01*
X111490883Y-61255737D01*
X111488951Y-61256255D01*
X111487537Y-61254841D01*
X111487507Y-61253933D01*
X111494771Y-61217420D01*
X111474219Y-61186661D01*
X111437718Y-61179400D01*
X111420867Y-61186380D01*
X111418884Y-61186119D01*
X111418119Y-61184271D01*
X111418688Y-61183118D01*
X112349994Y-60251812D01*
X112351926Y-60251294D01*
X112353340Y-60252708D01*
G37*
G36*
X104190218Y-60252024D02*
G01*
X105121524Y-61183330D01*
X105122042Y-61185262D01*
X105120628Y-61186676D01*
X105119720Y-61186706D01*
X105083207Y-61179442D01*
X105052448Y-61199994D01*
X105045187Y-61236495D01*
X105052167Y-61253346D01*
X105051906Y-61255329D01*
X105050058Y-61256094D01*
X105048905Y-61255525D01*
X104117599Y-60324219D01*
X104117081Y-60322287D01*
X104118495Y-60320873D01*
X104119403Y-60320843D01*
X104155916Y-60328107D01*
X104186675Y-60307555D01*
X104193936Y-60271054D01*
X104186956Y-60254203D01*
X104187217Y-60252220D01*
X104189065Y-60251455D01*
X104190218Y-60252024D01*
G37*
G36*
X111999787Y-59899155D02*
G01*
X111999817Y-59900063D01*
X111992553Y-59936576D01*
X112013105Y-59967335D01*
X112049606Y-59974596D01*
X112066457Y-59967616D01*
X112068440Y-59967877D01*
X112069205Y-59969725D01*
X112068636Y-59970878D01*
X111137330Y-60902184D01*
X111135398Y-60902702D01*
X111133984Y-60901288D01*
X111133954Y-60900380D01*
X111141218Y-60863867D01*
X111120666Y-60833108D01*
X111084165Y-60825847D01*
X111067314Y-60832827D01*
X111065331Y-60832566D01*
X111064566Y-60830718D01*
X111065135Y-60829565D01*
X111996441Y-59898259D01*
X111998373Y-59897741D01*
X111999787Y-59899155D01*
G37*
G36*
X104543771Y-59898471D02*
G01*
X105475077Y-60829777D01*
X105475595Y-60831709D01*
X105474181Y-60833123D01*
X105473273Y-60833153D01*
X105436760Y-60825889D01*
X105406001Y-60846441D01*
X105398740Y-60882942D01*
X105405720Y-60899793D01*
X105405459Y-60901776D01*
X105403611Y-60902541D01*
X105402458Y-60901972D01*
X104471152Y-59970666D01*
X104470634Y-59968734D01*
X104472048Y-59967320D01*
X104472956Y-59967290D01*
X104509469Y-59974554D01*
X104540228Y-59954002D01*
X104547489Y-59917501D01*
X104540509Y-59900650D01*
X104540770Y-59898667D01*
X104542618Y-59897902D01*
X104543771Y-59898471D01*
G37*
G36*
X111646232Y-59545602D02*
G01*
X111646262Y-59546510D01*
X111638998Y-59583025D01*
X111659549Y-59613784D01*
X111696050Y-59621045D01*
X111712903Y-59614064D01*
X111714886Y-59614325D01*
X111715651Y-59616173D01*
X111715082Y-59617326D01*
X110783778Y-60548630D01*
X110781846Y-60549148D01*
X110780432Y-60547734D01*
X110780402Y-60546826D01*
X110787666Y-60510311D01*
X110767115Y-60479552D01*
X110730614Y-60472291D01*
X110713761Y-60479272D01*
X110711778Y-60479011D01*
X110711013Y-60477163D01*
X110711582Y-60476010D01*
X111642886Y-59544706D01*
X111644818Y-59544188D01*
X111646232Y-59545602D01*
G37*
G36*
X104897326Y-59544918D02*
G01*
X105828630Y-60476222D01*
X105829148Y-60478154D01*
X105827734Y-60479568D01*
X105826826Y-60479598D01*
X105790311Y-60472334D01*
X105759552Y-60492885D01*
X105752291Y-60529386D01*
X105759272Y-60546239D01*
X105759011Y-60548222D01*
X105757163Y-60548987D01*
X105756010Y-60548418D01*
X104824706Y-59617114D01*
X104824188Y-59615182D01*
X104825602Y-59613768D01*
X104826510Y-59613738D01*
X104863025Y-59621002D01*
X104893784Y-59600451D01*
X104901045Y-59563950D01*
X104894064Y-59547097D01*
X104894325Y-59545114D01*
X104896173Y-59544349D01*
X104897326Y-59544918D01*
G37*
G36*
X111292680Y-59192048D02*
G01*
X111292710Y-59192956D01*
X111285446Y-59229469D01*
X111305998Y-59260228D01*
X111342499Y-59267489D01*
X111359350Y-59260509D01*
X111361333Y-59260770D01*
X111362098Y-59262618D01*
X111361529Y-59263771D01*
X110430223Y-60195077D01*
X110428291Y-60195595D01*
X110426877Y-60194181D01*
X110426847Y-60193273D01*
X110434111Y-60156760D01*
X110413559Y-60126001D01*
X110377058Y-60118740D01*
X110360207Y-60125720D01*
X110358224Y-60125459D01*
X110357459Y-60123611D01*
X110358028Y-60122458D01*
X111289334Y-59191152D01*
X111291266Y-59190634D01*
X111292680Y-59192048D01*
G37*
G36*
X105250878Y-59191364D02*
G01*
X106182184Y-60122670D01*
X106182702Y-60124602D01*
X106181288Y-60126016D01*
X106180380Y-60126046D01*
X106143867Y-60118782D01*
X106113108Y-60139334D01*
X106105847Y-60175835D01*
X106112827Y-60192686D01*
X106112566Y-60194669D01*
X106110718Y-60195434D01*
X106109565Y-60194865D01*
X105178259Y-59263559D01*
X105177741Y-59261627D01*
X105179155Y-59260213D01*
X105180063Y-59260183D01*
X105216576Y-59267447D01*
X105247335Y-59246895D01*
X105254596Y-59210394D01*
X105247616Y-59193543D01*
X105247877Y-59191560D01*
X105249725Y-59190795D01*
X105250878Y-59191364D01*
G37*
G36*
X110939127Y-58838495D02*
G01*
X110939157Y-58839403D01*
X110931893Y-58875916D01*
X110952445Y-58906675D01*
X110988946Y-58913936D01*
X111005797Y-58906956D01*
X111007780Y-58907217D01*
X111008545Y-58909065D01*
X111007976Y-58910218D01*
X110076670Y-59841524D01*
X110074738Y-59842042D01*
X110073324Y-59840628D01*
X110073294Y-59839720D01*
X110080558Y-59803207D01*
X110060006Y-59772448D01*
X110023505Y-59765187D01*
X110006654Y-59772167D01*
X110004671Y-59771906D01*
X110003906Y-59770058D01*
X110004475Y-59768905D01*
X110935781Y-58837599D01*
X110937713Y-58837081D01*
X110939127Y-58838495D01*
G37*
G36*
X105604431Y-58837811D02*
G01*
X106535737Y-59769117D01*
X106536255Y-59771049D01*
X106534841Y-59772463D01*
X106533933Y-59772493D01*
X106497420Y-59765229D01*
X106466661Y-59785781D01*
X106459400Y-59822282D01*
X106466380Y-59839133D01*
X106466119Y-59841116D01*
X106464271Y-59841881D01*
X106463118Y-59841312D01*
X105531812Y-58910006D01*
X105531294Y-58908074D01*
X105532708Y-58906660D01*
X105533616Y-58906630D01*
X105570129Y-58913894D01*
X105600888Y-58893342D01*
X105608149Y-58856841D01*
X105601169Y-58839990D01*
X105601430Y-58838007D01*
X105603278Y-58837242D01*
X105604431Y-58837811D01*
G37*
G36*
X110585572Y-58484942D02*
G01*
X110585602Y-58485850D01*
X110578338Y-58522365D01*
X110598889Y-58553124D01*
X110635390Y-58560385D01*
X110652243Y-58553404D01*
X110654226Y-58553665D01*
X110654991Y-58555513D01*
X110654422Y-58556666D01*
X109723118Y-59487970D01*
X109721186Y-59488488D01*
X109719772Y-59487074D01*
X109719742Y-59486166D01*
X109727006Y-59449651D01*
X109706455Y-59418892D01*
X109669954Y-59411631D01*
X109653101Y-59418612D01*
X109651118Y-59418351D01*
X109650353Y-59416503D01*
X109650922Y-59415350D01*
X110582226Y-58484046D01*
X110584158Y-58483528D01*
X110585572Y-58484942D01*
G37*
G36*
X105957986Y-58484258D02*
G01*
X106889290Y-59415562D01*
X106889808Y-59417494D01*
X106888394Y-59418908D01*
X106887486Y-59418938D01*
X106850971Y-59411674D01*
X106820212Y-59432225D01*
X106812951Y-59468726D01*
X106819932Y-59485579D01*
X106819671Y-59487562D01*
X106817823Y-59488327D01*
X106816670Y-59487758D01*
X105885366Y-58556454D01*
X105884848Y-58554522D01*
X105886262Y-58553108D01*
X105887170Y-58553078D01*
X105923685Y-58560342D01*
X105954444Y-58539791D01*
X105961705Y-58503290D01*
X105954724Y-58486437D01*
X105954985Y-58484454D01*
X105956833Y-58483689D01*
X105957986Y-58484258D01*
G37*
G36*
X110232020Y-58131388D02*
G01*
X110232050Y-58132296D01*
X110224786Y-58168809D01*
X110245338Y-58199568D01*
X110281839Y-58206829D01*
X110298690Y-58199849D01*
X110300673Y-58200110D01*
X110301438Y-58201958D01*
X110300869Y-58203111D01*
X109369563Y-59134417D01*
X109367631Y-59134935D01*
X109366217Y-59133521D01*
X109366187Y-59132613D01*
X109373451Y-59096100D01*
X109352899Y-59065341D01*
X109316398Y-59058080D01*
X109299547Y-59065060D01*
X109297564Y-59064799D01*
X109296799Y-59062951D01*
X109297368Y-59061798D01*
X110228674Y-58130492D01*
X110230606Y-58129974D01*
X110232020Y-58131388D01*
G37*
G36*
X106311538Y-58130704D02*
G01*
X107242844Y-59062010D01*
X107243362Y-59063942D01*
X107241948Y-59065356D01*
X107241040Y-59065386D01*
X107204527Y-59058122D01*
X107173768Y-59078674D01*
X107166507Y-59115175D01*
X107173487Y-59132026D01*
X107173226Y-59134009D01*
X107171378Y-59134774D01*
X107170225Y-59134205D01*
X106238919Y-58202899D01*
X106238401Y-58200967D01*
X106239815Y-58199553D01*
X106240723Y-58199523D01*
X106277236Y-58206787D01*
X106307995Y-58186235D01*
X106315256Y-58149734D01*
X106308276Y-58132883D01*
X106308537Y-58130900D01*
X106310385Y-58130135D01*
X106311538Y-58130704D01*
G37*
G36*
X109878465Y-57777835D02*
G01*
X109878495Y-57778743D01*
X109871231Y-57815258D01*
X109891782Y-57846017D01*
X109928283Y-57853278D01*
X109945136Y-57846297D01*
X109947119Y-57846558D01*
X109947884Y-57848406D01*
X109947315Y-57849559D01*
X109016011Y-58780863D01*
X109014079Y-58781381D01*
X109012665Y-58779967D01*
X109012635Y-58779059D01*
X109019899Y-58742544D01*
X108999348Y-58711785D01*
X108962847Y-58704524D01*
X108945994Y-58711505D01*
X108944011Y-58711244D01*
X108943246Y-58709396D01*
X108943815Y-58708243D01*
X109875119Y-57776939D01*
X109877051Y-57776421D01*
X109878465Y-57777835D01*
G37*
G36*
X106665093Y-57777151D02*
G01*
X107596397Y-58708455D01*
X107596915Y-58710387D01*
X107595501Y-58711801D01*
X107594593Y-58711831D01*
X107558078Y-58704567D01*
X107527319Y-58725118D01*
X107520058Y-58761619D01*
X107527039Y-58778472D01*
X107526778Y-58780455D01*
X107524930Y-58781220D01*
X107523777Y-58780651D01*
X106592473Y-57849347D01*
X106591955Y-57847415D01*
X106593369Y-57846001D01*
X106594277Y-57845971D01*
X106630792Y-57853235D01*
X106661551Y-57832684D01*
X106668812Y-57796183D01*
X106661831Y-57779330D01*
X106662092Y-57777347D01*
X106663940Y-57776582D01*
X106665093Y-57777151D01*
G37*
G36*
X87222463Y-52912704D02*
G01*
X87243146Y-52943660D01*
X87279429Y-52950878D01*
X87310372Y-52930202D01*
X87317352Y-52913352D01*
X87318939Y-52912134D01*
X87320787Y-52912899D01*
X87321200Y-52914117D01*
X87321200Y-54356185D01*
X87320200Y-54357917D01*
X87318200Y-54357917D01*
X87317537Y-54357296D01*
X87296854Y-54326340D01*
X87260571Y-54319122D01*
X87229628Y-54339798D01*
X87222648Y-54356648D01*
X87221061Y-54357866D01*
X87219213Y-54357101D01*
X87218800Y-54355883D01*
X87218800Y-52913815D01*
X87219800Y-52912083D01*
X87221800Y-52912083D01*
X87222463Y-52912704D01*
G37*
G36*
X87722463Y-52912704D02*
G01*
X87743146Y-52943660D01*
X87779429Y-52950878D01*
X87810372Y-52930202D01*
X87817352Y-52913352D01*
X87818939Y-52912134D01*
X87820787Y-52912899D01*
X87821200Y-52914117D01*
X87821200Y-54356185D01*
X87820200Y-54357917D01*
X87818200Y-54357917D01*
X87817537Y-54357296D01*
X87796854Y-54326340D01*
X87760571Y-54319122D01*
X87729628Y-54339798D01*
X87722648Y-54356648D01*
X87721061Y-54357866D01*
X87719213Y-54357101D01*
X87718800Y-54355883D01*
X87718800Y-52913815D01*
X87719800Y-52912083D01*
X87721800Y-52912083D01*
X87722463Y-52912704D01*
G37*
G36*
X88222463Y-52912704D02*
G01*
X88243146Y-52943660D01*
X88279429Y-52950878D01*
X88310372Y-52930202D01*
X88317352Y-52913352D01*
X88318939Y-52912134D01*
X88320787Y-52912899D01*
X88321200Y-52914117D01*
X88321200Y-54356185D01*
X88320200Y-54357917D01*
X88318200Y-54357917D01*
X88317537Y-54357296D01*
X88296854Y-54326340D01*
X88260571Y-54319122D01*
X88229628Y-54339798D01*
X88222648Y-54356648D01*
X88221061Y-54357866D01*
X88219213Y-54357101D01*
X88218800Y-54355883D01*
X88218800Y-52913815D01*
X88219800Y-52912083D01*
X88221800Y-52912083D01*
X88222463Y-52912704D01*
G37*
G36*
X89222463Y-52912704D02*
G01*
X89243146Y-52943660D01*
X89279429Y-52950878D01*
X89310372Y-52930202D01*
X89317352Y-52913352D01*
X89318939Y-52912134D01*
X89320787Y-52912899D01*
X89321200Y-52914117D01*
X89321200Y-54356185D01*
X89320200Y-54357917D01*
X89318200Y-54357917D01*
X89317537Y-54357296D01*
X89296854Y-54326340D01*
X89260571Y-54319122D01*
X89229628Y-54339798D01*
X89222648Y-54356648D01*
X89221061Y-54357866D01*
X89219213Y-54357101D01*
X89218800Y-54355883D01*
X89218800Y-52913815D01*
X89219800Y-52912083D01*
X89221800Y-52912083D01*
X89222463Y-52912704D01*
G37*
G36*
X89722463Y-52912704D02*
G01*
X89743146Y-52943660D01*
X89779429Y-52950878D01*
X89810372Y-52930202D01*
X89817352Y-52913352D01*
X89818939Y-52912134D01*
X89820787Y-52912899D01*
X89821200Y-52914117D01*
X89821200Y-54356185D01*
X89820200Y-54357917D01*
X89818200Y-54357917D01*
X89817537Y-54357296D01*
X89796854Y-54326340D01*
X89760571Y-54319122D01*
X89729628Y-54339798D01*
X89722648Y-54356648D01*
X89721061Y-54357866D01*
X89719213Y-54357101D01*
X89718800Y-54355883D01*
X89718800Y-52913815D01*
X89719800Y-52912083D01*
X89721800Y-52912083D01*
X89722463Y-52912704D01*
G37*
G36*
X91572463Y-52912704D02*
G01*
X91593146Y-52943660D01*
X91629429Y-52950878D01*
X91660372Y-52930202D01*
X91667352Y-52913352D01*
X91668939Y-52912134D01*
X91670787Y-52912899D01*
X91671200Y-52914117D01*
X91671200Y-54356185D01*
X91670200Y-54357917D01*
X91668200Y-54357917D01*
X91667537Y-54357296D01*
X91646854Y-54326340D01*
X91610571Y-54319122D01*
X91579628Y-54339798D01*
X91572648Y-54356648D01*
X91571061Y-54357866D01*
X91569213Y-54357101D01*
X91568800Y-54355883D01*
X91568800Y-52913815D01*
X91569800Y-52912083D01*
X91571800Y-52912083D01*
X91572463Y-52912704D01*
G37*
G36*
X85872463Y-52912704D02*
G01*
X85893146Y-52943660D01*
X85929429Y-52950878D01*
X85960372Y-52930202D01*
X85967352Y-52913352D01*
X85968939Y-52912134D01*
X85970787Y-52912899D01*
X85971200Y-52914117D01*
X85971200Y-54356185D01*
X85970200Y-54357917D01*
X85968200Y-54357917D01*
X85967537Y-54357296D01*
X85946854Y-54326340D01*
X85910571Y-54319122D01*
X85879628Y-54339798D01*
X85872648Y-54356648D01*
X85871061Y-54357866D01*
X85869213Y-54357101D01*
X85868800Y-54355883D01*
X85868800Y-52913815D01*
X85869800Y-52912083D01*
X85871800Y-52912083D01*
X85872463Y-52912704D01*
G37*
G36*
X88722463Y-52912704D02*
G01*
X88743146Y-52943660D01*
X88779429Y-52950878D01*
X88810372Y-52930202D01*
X88817352Y-52913352D01*
X88818939Y-52912134D01*
X88820787Y-52912899D01*
X88821200Y-52914117D01*
X88821200Y-54356185D01*
X88820200Y-54357917D01*
X88818200Y-54357917D01*
X88817537Y-54357296D01*
X88796854Y-54326340D01*
X88760571Y-54319122D01*
X88729628Y-54339798D01*
X88722648Y-54356648D01*
X88721061Y-54357866D01*
X88719213Y-54357101D01*
X88718800Y-54355883D01*
X88718800Y-52913815D01*
X88719800Y-52912083D01*
X88721800Y-52912083D01*
X88722463Y-52912704D01*
G37*
G36*
X90222463Y-52912704D02*
G01*
X90243146Y-52943660D01*
X90279429Y-52950878D01*
X90310372Y-52930202D01*
X90317352Y-52913352D01*
X90318939Y-52912134D01*
X90320787Y-52912899D01*
X90321200Y-52914117D01*
X90321200Y-54356185D01*
X90320200Y-54357917D01*
X90318200Y-54357917D01*
X90317537Y-54357296D01*
X90296854Y-54326340D01*
X90260571Y-54319122D01*
X90229628Y-54339798D01*
X90222648Y-54356648D01*
X90221061Y-54357866D01*
X90219213Y-54357101D01*
X90218800Y-54355883D01*
X90218800Y-52913815D01*
X90219800Y-52912083D01*
X90221800Y-52912083D01*
X90222463Y-52912704D01*
G37*
M02*
