%TF.GenerationSoftware,KiCad,Pcbnew,(6.0.1-0)*%
%TF.CreationDate,2022-01-17T22:32:28+01:00*%
%TF.ProjectId,modelh,6d6f6465-6c68-42e6-9b69-6361645f7063,v0.1*%
%TF.SameCoordinates,Original*%
%TF.FileFunction,Copper,L2,Bot*%
%TF.FilePolarity,Positive*%
%FSLAX46Y46*%
G04 Gerber Fmt 4.6, Leading zero omitted, Abs format (unit mm)*
G04 Created by KiCad (PCBNEW (6.0.1-0)) date 2022-01-17 22:32:28*
%MOMM*%
%LPD*%
G01*
G04 APERTURE LIST*
%TA.AperFunction,ComponentPad*%
%ADD10C,2.000000*%
%TD*%
%TA.AperFunction,ComponentPad*%
%ADD11R,1.727200X1.727200*%
%TD*%
%TA.AperFunction,ComponentPad*%
%ADD12O,1.727200X1.727200*%
%TD*%
%TA.AperFunction,ComponentPad*%
%ADD13R,1.700000X1.700000*%
%TD*%
%TA.AperFunction,ComponentPad*%
%ADD14O,1.700000X1.700000*%
%TD*%
%TA.AperFunction,ComponentPad*%
%ADD15C,1.700000*%
%TD*%
%TA.AperFunction,ComponentPad*%
%ADD16O,1.000000X1.600000*%
%TD*%
%TA.AperFunction,ComponentPad*%
%ADD17O,1.000000X2.100000*%
%TD*%
%TA.AperFunction,ViaPad*%
%ADD18C,0.800000*%
%TD*%
%TA.AperFunction,ViaPad*%
%ADD19C,0.600000*%
%TD*%
%TA.AperFunction,Conductor*%
%ADD20C,1.000000*%
%TD*%
%TA.AperFunction,Conductor*%
%ADD21C,0.800000*%
%TD*%
%TA.AperFunction,Conductor*%
%ADD22C,0.250000*%
%TD*%
%TA.AperFunction,Conductor*%
%ADD23C,0.500000*%
%TD*%
G04 APERTURE END LIST*
D10*
%TO.P,LEDs1,1,Pin_1*%
%TO.N,Net-(LEDs1-Pad1)*%
X208750000Y-53300000D03*
%TO.P,LEDs1,2,Pin_2*%
%TO.N,Net-(LEDs1-Pad2)*%
X208750000Y-55840000D03*
%TO.P,LEDs1,3,Pin_3*%
%TO.N,+3V3*%
X208750000Y-58380000D03*
%TO.P,LEDs1,4,Pin_4*%
%TO.N,Net-(LEDs1-Pad4)*%
X208750000Y-60920000D03*
%TD*%
D11*
%TO.P,Debug1,1,Pin_1*%
%TO.N,+3V3*%
X79770000Y-80140000D03*
D12*
%TO.P,Debug1,2,Pin_2*%
%TO.N,SWDIO*%
X79770000Y-77600000D03*
%TO.P,Debug1,3,Pin_3*%
%TO.N,GND*%
X82310000Y-80140000D03*
%TO.P,Debug1,4,Pin_4*%
%TO.N,SWCLK*%
X82310000Y-77600000D03*
%TO.P,Debug1,5,Pin_5*%
%TO.N,unconnected-(Debug1-Pad5)*%
X84850000Y-80140000D03*
%TO.P,Debug1,6,Pin_6*%
%TO.N,unconnected-(Debug1-Pad6)*%
X84850000Y-77600000D03*
%TO.P,Debug1,7,Pin_7*%
%TO.N,GND*%
X87390000Y-80140000D03*
%TO.P,Debug1,8,Pin_8*%
%TO.N,unconnected-(Debug1-Pad8)*%
X87390000Y-77600000D03*
%TO.P,Debug1,9,Pin_9*%
%TO.N,GND*%
X89930000Y-80140000D03*
%TO.P,Debug1,10,Pin_10*%
%TO.N,nRST*%
X89930000Y-77600000D03*
%TD*%
D13*
%TO.P,boot_selector1,1,Pin_1*%
%TO.N,+3V3*%
X95610000Y-70340000D03*
%TO.P,boot_selector1,2,Pin_2*%
X93070000Y-70340000D03*
D14*
%TO.P,boot_selector1,3,Pin_3*%
%TO.N,Net-(boot_selector1-Pad3)*%
X95610000Y-67800000D03*
%TO.P,boot_selector1,4,Pin_4*%
%TO.N,Net-(boot_selector1-Pad4)*%
X93070000Y-67800000D03*
%TO.P,boot_selector1,5,Pin_5*%
%TO.N,GND*%
X95610000Y-65260000D03*
%TO.P,boot_selector1,6,Pin_6*%
X93070000Y-65260000D03*
%TD*%
D15*
%TO.P,custom_leds_C1,1,Pin_1*%
%TO.N,Net-(custom_leds_C1-Pad1)*%
X204170000Y-67940000D03*
D14*
%TO.P,custom_leds_C1,2,Pin_2*%
%TO.N,Net-(custom_leds_C1-Pad2)*%
X204170000Y-70480000D03*
%TO.P,custom_leds_C1,3,Pin_3*%
%TO.N,Net-(custom_leds_C1-Pad3)*%
X204170000Y-73020000D03*
%TO.P,custom_leds_C1,4,Pin_4*%
%TO.N,Net-(custom_leds_C1-Pad4)*%
X204170000Y-75560000D03*
%TO.P,custom_leds_C1,5,Pin_5*%
%TO.N,Net-(custom_leds_C1-Pad5)*%
X204170000Y-78100000D03*
%TD*%
D15*
%TO.P,custom_leds_B1,1,Pin_1*%
%TO.N,Net-(custom_leds_C1-Pad1)*%
X200070000Y-67940000D03*
D14*
%TO.P,custom_leds_B1,2,Pin_2*%
%TO.N,Net-(custom_leds_C1-Pad2)*%
X200070000Y-70480000D03*
%TO.P,custom_leds_B1,3,Pin_3*%
%TO.N,Net-(custom_leds_C1-Pad3)*%
X200070000Y-73020000D03*
%TO.P,custom_leds_B1,4,Pin_4*%
%TO.N,Net-(custom_leds_C1-Pad4)*%
X200070000Y-75560000D03*
%TO.P,custom_leds_B1,5,Pin_5*%
%TO.N,Net-(custom_leds_C1-Pad5)*%
X200070000Y-78100000D03*
%TD*%
D15*
%TO.P,custom_leds_A1,1,Pin_1*%
%TO.N,led0*%
X196370000Y-67940000D03*
D14*
%TO.P,custom_leds_A1,2,Pin_2*%
%TO.N,led1*%
X196370000Y-70480000D03*
%TO.P,custom_leds_A1,3,Pin_3*%
%TO.N,led2*%
X196370000Y-73020000D03*
%TO.P,custom_leds_A1,4,Pin_4*%
%TO.N,+3V3*%
X196370000Y-75560000D03*
%TO.P,custom_leds_A1,5,Pin_5*%
%TO.N,GND*%
X196370000Y-78100000D03*
%TD*%
D10*
%TO.P,Rows1,1,Pin_1*%
%TO.N,row0*%
X173990000Y-51000000D03*
%TO.P,Rows1,2,Pin_2*%
%TO.N,row1*%
X176530000Y-51000000D03*
%TO.P,Rows1,3,Pin_3*%
%TO.N,row2*%
X179070000Y-51000000D03*
%TO.P,Rows1,4,Pin_4*%
%TO.N,row3*%
X181610000Y-51000000D03*
%TO.P,Rows1,5,Pin_5*%
%TO.N,row4*%
X184150000Y-51000000D03*
%TO.P,Rows1,6,Pin_6*%
%TO.N,row5*%
X186690000Y-51000000D03*
%TO.P,Rows1,7,Pin_7*%
%TO.N,row6*%
X189230000Y-51000000D03*
%TO.P,Rows1,8,Pin_8*%
%TO.N,row7*%
X191770000Y-51000000D03*
%TO.P,Rows1,9,Pin_9*%
%TO.N,Net-(Rows1-Pad9)*%
X194310000Y-51000000D03*
%TO.P,Rows1,10,Pin_10*%
%TO.N,Net-(Rows1-Pad10)*%
X196850000Y-51000000D03*
%TO.P,Rows1,11,Pin_11*%
%TO.N,Net-(Rows1-Pad11)*%
X199390000Y-51000000D03*
%TO.P,Rows1,12,Pin_12*%
%TO.N,Net-(Rows1-Pad12)*%
X201930000Y-51000000D03*
%TD*%
%TO.P,Columns1,1,Pin_1*%
%TO.N,col0*%
X116700000Y-51000000D03*
%TO.P,Columns1,2,Pin_2*%
%TO.N,col1*%
X119240000Y-51000000D03*
%TO.P,Columns1,3,Pin_3*%
%TO.N,col2*%
X121780000Y-51000000D03*
%TO.P,Columns1,4,Pin_4*%
%TO.N,col3*%
X124320000Y-51000000D03*
%TO.P,Columns1,5,Pin_5*%
%TO.N,col4*%
X126860000Y-51000000D03*
%TO.P,Columns1,6,Pin_6*%
%TO.N,col5*%
X129400000Y-51000000D03*
%TO.P,Columns1,7,Pin_7*%
%TO.N,col6*%
X131940000Y-51000000D03*
%TO.P,Columns1,8,Pin_8*%
%TO.N,col7*%
X134480000Y-51000000D03*
%TO.P,Columns1,9,Pin_9*%
%TO.N,col8*%
X137020000Y-51000000D03*
%TO.P,Columns1,10,Pin_10*%
%TO.N,col9*%
X139560000Y-51000000D03*
%TO.P,Columns1,11,Pin_11*%
%TO.N,col10*%
X142100000Y-51000000D03*
%TO.P,Columns1,12,Pin_12*%
%TO.N,col11*%
X144640000Y-51000000D03*
%TO.P,Columns1,13,Pin_13*%
%TO.N,col12*%
X147180000Y-51000000D03*
%TO.P,Columns1,14,Pin_14*%
%TO.N,col13*%
X149720000Y-51000000D03*
%TO.P,Columns1,15,Pin_15*%
%TO.N,col14*%
X152260000Y-51000000D03*
%TO.P,Columns1,16,Pin_16*%
%TO.N,col15*%
X154800000Y-51000000D03*
%TD*%
D15*
%TO.P,TP1,1,1*%
%TO.N,+5V*%
X78670000Y-57340000D03*
%TD*%
D16*
%TO.P,USB_C1,S1,SHIELD*%
%TO.N,Net-(USB_C1-PadS1)*%
X84450000Y-48540000D03*
D17*
X84450000Y-52720000D03*
X93090000Y-52720000D03*
D16*
X93090000Y-48540000D03*
%TD*%
D18*
%TO.N,GND*%
X102270000Y-69110000D03*
X138000000Y-69000000D03*
X136000000Y-69000000D03*
X134000000Y-69000000D03*
X130000000Y-69000000D03*
X132000000Y-69000000D03*
X148000000Y-69000000D03*
X146000000Y-69000000D03*
X150000000Y-69000000D03*
X158000000Y-69000000D03*
X156000000Y-69000000D03*
X152000000Y-69000000D03*
X154000000Y-69000000D03*
X144000000Y-69000000D03*
X140000000Y-69000000D03*
X142000000Y-69000000D03*
X178000000Y-69000000D03*
X170000000Y-69000000D03*
X176000000Y-69000000D03*
X164000000Y-69000000D03*
X172000000Y-69000000D03*
X174000000Y-69000000D03*
X166000000Y-69000000D03*
X168000000Y-69000000D03*
X162000000Y-69000000D03*
X160000000Y-69000000D03*
X148000000Y-83000000D03*
X170000000Y-83000000D03*
X154000000Y-83000000D03*
X168000000Y-83000000D03*
X156000000Y-83000000D03*
X116000000Y-83000000D03*
X162000000Y-83000000D03*
X166000000Y-83000000D03*
X160000000Y-83000000D03*
X114000000Y-83000000D03*
X152000000Y-83000000D03*
X150000000Y-83000000D03*
X164000000Y-83000000D03*
X158000000Y-83000000D03*
X172000000Y-83000000D03*
X118000000Y-83000000D03*
X146000000Y-83000000D03*
X138000000Y-83000000D03*
X144000000Y-83000000D03*
X132000000Y-83000000D03*
X140000000Y-83000000D03*
X126000000Y-83000000D03*
X142000000Y-83000000D03*
X174000000Y-83000000D03*
X134000000Y-83000000D03*
X124000000Y-83000000D03*
X120000000Y-83000000D03*
X122000000Y-83000000D03*
X136000000Y-83000000D03*
X130000000Y-83000000D03*
X128000000Y-83000000D03*
X112000000Y-83000000D03*
X176000000Y-83000000D03*
X108000000Y-83000000D03*
X110000000Y-83000000D03*
X178000000Y-83000000D03*
X182000000Y-83000000D03*
X186000000Y-83000000D03*
X190000000Y-83000000D03*
X184000000Y-83000000D03*
X194000000Y-83000000D03*
X192000000Y-83000000D03*
X188000000Y-83000000D03*
X180000000Y-83000000D03*
X211000000Y-49000000D03*
X199000000Y-49000000D03*
X207000000Y-49000000D03*
X203000000Y-49000000D03*
X209000000Y-49000000D03*
X205000000Y-49000000D03*
X201000000Y-49000000D03*
X195000000Y-49000000D03*
X193000000Y-49000000D03*
X197000000Y-49000000D03*
X181000000Y-49000000D03*
X177000000Y-49000000D03*
X185000000Y-49000000D03*
X183000000Y-49000000D03*
X187000000Y-49000000D03*
X179000000Y-49000000D03*
X191000000Y-49000000D03*
X175000000Y-49000000D03*
X189000000Y-49000000D03*
X173000000Y-49000000D03*
X171000000Y-49000000D03*
X167000000Y-49000000D03*
X163000000Y-49000000D03*
X159000000Y-49000000D03*
X153000000Y-49000000D03*
X161000000Y-49000000D03*
X155000000Y-49000000D03*
X157000000Y-49000000D03*
X169000000Y-49000000D03*
X165000000Y-49000000D03*
X143000000Y-49000000D03*
X151000000Y-49000000D03*
X133000000Y-49000000D03*
X145000000Y-49000000D03*
X139000000Y-49000000D03*
X149000000Y-49000000D03*
X141000000Y-49000000D03*
X135000000Y-49000000D03*
X147000000Y-49000000D03*
X137000000Y-49000000D03*
X113000000Y-49000000D03*
X131000000Y-49000000D03*
X115000000Y-49000000D03*
X123000000Y-49000000D03*
X117000000Y-49000000D03*
X127000000Y-49000000D03*
X121000000Y-49000000D03*
X129000000Y-49000000D03*
X119000000Y-49000000D03*
X125000000Y-49000000D03*
X67000000Y-81000000D03*
X67000000Y-79000000D03*
X89000000Y-83000000D03*
X180000000Y-69000000D03*
X86870000Y-64440000D03*
X95000000Y-49000000D03*
X67000000Y-77000000D03*
X67000000Y-61000000D03*
X183970000Y-81000000D03*
X71000000Y-83000000D03*
X77000000Y-49000000D03*
X83000000Y-49000000D03*
X186000000Y-69000000D03*
X86870000Y-63440000D03*
X103270000Y-69110010D03*
X205000000Y-53000000D03*
X151000000Y-59000000D03*
X122000000Y-69000000D03*
X67000000Y-55000000D03*
X128000000Y-69000000D03*
X201000000Y-65000000D03*
X71000000Y-49000000D03*
X198000000Y-83000000D03*
X157000000Y-59000000D03*
X213000000Y-71000000D03*
X213000000Y-59000000D03*
X117800000Y-66700000D03*
X67000000Y-75000000D03*
X213000000Y-79000000D03*
X81000000Y-49000000D03*
X213000000Y-73000000D03*
X97000000Y-49000000D03*
X213000000Y-63000000D03*
X87870000Y-64440000D03*
X98250000Y-76000000D03*
X87870000Y-63440000D03*
X67000000Y-65000000D03*
X98250000Y-74500000D03*
X67000000Y-67000000D03*
X67000000Y-69000000D03*
X115570000Y-77140000D03*
X213000000Y-57000000D03*
X109000000Y-49000000D03*
X124000000Y-69000000D03*
X196000000Y-83000000D03*
X81000000Y-83000000D03*
X213000000Y-65000000D03*
X203000000Y-65000000D03*
X100670000Y-60459990D03*
X120000000Y-69000000D03*
X107794990Y-68540000D03*
X126000000Y-81000000D03*
X79000000Y-49000000D03*
X126000000Y-79000000D03*
X108700000Y-59900004D03*
X67000000Y-51000000D03*
X79000000Y-83000000D03*
X213000000Y-69000000D03*
X126000000Y-75000000D03*
X96500000Y-74500000D03*
X213000000Y-53000000D03*
X83000000Y-83000000D03*
X103000000Y-49000000D03*
X205000000Y-55000000D03*
X108000000Y-73750000D03*
X126000000Y-73000000D03*
X208000000Y-83000000D03*
X213000000Y-61000000D03*
X202000000Y-83000000D03*
X116700000Y-66700000D03*
X114570000Y-77140000D03*
X84170000Y-56490000D03*
X92270000Y-56190000D03*
X106000000Y-83000000D03*
X213000000Y-77000000D03*
X161000000Y-59000000D03*
X85000000Y-83000000D03*
X197000000Y-65000000D03*
X213000000Y-55000000D03*
X107000000Y-49000000D03*
X88870000Y-64440000D03*
X77370000Y-65940000D03*
X183970000Y-71000000D03*
X149000000Y-59000000D03*
X155000000Y-59000000D03*
X159000000Y-59000000D03*
X183970000Y-73000000D03*
X115570000Y-66690000D03*
X67000000Y-57000000D03*
X182000000Y-69000000D03*
X184000000Y-69000000D03*
X75000000Y-49000000D03*
X88870000Y-63440000D03*
X85870000Y-49590000D03*
X126000000Y-71000000D03*
X126000000Y-69000000D03*
X188000000Y-69000000D03*
X101000000Y-49000000D03*
X111000000Y-49000000D03*
X67000000Y-53000000D03*
X96500000Y-76000000D03*
X76370000Y-64340000D03*
X213000000Y-67000000D03*
X199000000Y-65000000D03*
X91000000Y-83000000D03*
X73000000Y-83000000D03*
X87000000Y-83000000D03*
X206000000Y-83000000D03*
X126000000Y-77000000D03*
X183970000Y-75000000D03*
X76370000Y-65440000D03*
X205000000Y-65000000D03*
X77000000Y-83000000D03*
X183970000Y-77000000D03*
X104270000Y-69110010D03*
X69000000Y-83000000D03*
X99000000Y-49000000D03*
X200000000Y-83000000D03*
X204000000Y-83000000D03*
X77370000Y-64840000D03*
X213000000Y-51000000D03*
X67000000Y-59000000D03*
X213000000Y-75000000D03*
X163000000Y-59000000D03*
X91670000Y-49590000D03*
X190000000Y-69000000D03*
X104500000Y-73750000D03*
X67000000Y-63000000D03*
X153000000Y-59000000D03*
X73000000Y-49000000D03*
X69000000Y-49000000D03*
X108000000Y-60600000D03*
X93000000Y-83000000D03*
X205000000Y-51000000D03*
X106250000Y-73750000D03*
X105000000Y-49000000D03*
X113570000Y-77140000D03*
X183970000Y-79000000D03*
%TO.N,+5V*%
X91470000Y-58390000D03*
X84820000Y-57540000D03*
%TO.N,+3V3*%
X109370000Y-70140000D03*
X114770000Y-65439499D03*
X115720000Y-65440000D03*
X109370000Y-68990000D03*
D19*
%TO.N,nRST*%
X108520000Y-71540004D03*
X109528158Y-65366699D03*
%TO.N,row4*%
X107770000Y-62140000D03*
X117670000Y-62140000D03*
%TO.N,row3*%
X106970000Y-62140000D03*
X118470000Y-62140000D03*
%TO.N,row2*%
X108570000Y-62140000D03*
X116870000Y-62140000D03*
%TO.N,row1*%
X109370000Y-62140000D03*
X116070000Y-62140000D03*
%TO.N,row0*%
X110170000Y-62140000D03*
X115270000Y-62140000D03*
%TO.N,SWCLK*%
X101270000Y-67215000D03*
X98020000Y-72490000D03*
%TO.N,SWDIO*%
X89800000Y-66300000D03*
X89200000Y-69300000D03*
D18*
%TO.N,D-*%
X89293563Y-57177770D03*
X92470000Y-57190000D03*
D19*
%TO.N,led0*%
X120470000Y-65340000D03*
X108670000Y-65340000D03*
D18*
X188590000Y-60420000D03*
D19*
%TO.N,led1*%
X107870000Y-65340000D03*
D18*
X188540000Y-62470000D03*
D19*
X121270000Y-65340000D03*
%TO.N,led2*%
X122170000Y-65290000D03*
D18*
X188570000Y-64540000D03*
D19*
X107028051Y-65298051D03*
%TO.N,BOOT1*%
X107400000Y-61400000D03*
X102100000Y-62700000D03*
D18*
%TO.N,Net-(USB_C1-PadS1)*%
X93870000Y-57890000D03*
X93870000Y-54890000D03*
%TO.N,Net-(LEDs1-Pad1)*%
X199470000Y-60440000D03*
X194170161Y-60427411D03*
%TO.N,Net-(LEDs1-Pad2)*%
X199470000Y-61440000D03*
X194157340Y-61427340D03*
%TO.N,Net-(LEDs1-Pad4)*%
X194170000Y-62440000D03*
%TD*%
D20*
%TO.N,+5V*%
X91470000Y-58390000D02*
X85670000Y-58390000D01*
X85670000Y-58390000D02*
X84820000Y-57540000D01*
D21*
%TO.N,+3V3*%
X109370000Y-68990000D02*
X109370000Y-67740000D01*
X111670000Y-65440000D02*
X115700000Y-65440000D01*
X109370000Y-67740000D02*
X111670000Y-65440000D01*
X109370000Y-68990000D02*
X109370000Y-70140000D01*
D22*
%TO.N,nRST*%
X108520000Y-69290000D02*
X108520000Y-71540004D01*
X108520000Y-66374857D02*
X108520000Y-69290000D01*
X109528158Y-65366699D02*
X108520000Y-66374857D01*
%TO.N,row4*%
X116569244Y-60614980D02*
X117670000Y-61715736D01*
X109085020Y-60614980D02*
X116569244Y-60614980D01*
X107770000Y-61930000D02*
X109085020Y-60614980D01*
X107770000Y-62140000D02*
X107770000Y-61930000D01*
X117670000Y-61715736D02*
X117670000Y-62140000D01*
%TO.N,row3*%
X106970000Y-62564264D02*
X107170737Y-62765001D01*
X107170737Y-62765001D02*
X118269263Y-62765001D01*
X106970000Y-62140000D02*
X106970000Y-62564264D01*
X118470000Y-62564264D02*
X118470000Y-62140000D01*
X118269263Y-62765001D02*
X118470000Y-62564264D01*
%TO.N,row2*%
X108570000Y-61872868D02*
X108570000Y-62140000D01*
X116870000Y-62140000D02*
X116870000Y-61715736D01*
X116219253Y-61064989D02*
X109377879Y-61064989D01*
X116870000Y-61715736D02*
X116219253Y-61064989D01*
X109377879Y-61064989D02*
X108570000Y-61872868D01*
%TO.N,row1*%
X109869999Y-61514999D02*
X115692131Y-61514999D01*
X109370000Y-62014998D02*
X109869999Y-61514999D01*
X109370000Y-62140000D02*
X109370000Y-62014998D01*
X116070000Y-61892868D02*
X116070000Y-62140000D01*
X115692131Y-61514999D02*
X116070000Y-61892868D01*
X116070000Y-62014998D02*
X116070000Y-62140000D01*
%TO.N,row0*%
X115270000Y-62140000D02*
X110170000Y-62140000D01*
%TO.N,SWCLK*%
X101270000Y-67215000D02*
X101270000Y-69240000D01*
X101270000Y-69240000D02*
X98020000Y-72490000D01*
%TO.N,SWDIO*%
X89800000Y-66300000D02*
X89800000Y-68700000D01*
X89800000Y-68700000D02*
X89200000Y-69300000D01*
%TO.N,D-*%
X89305793Y-57190000D02*
X92470000Y-57190000D01*
X89293563Y-57177770D02*
X89305793Y-57190000D01*
%TO.N,led0*%
X120470000Y-65340000D02*
X119844999Y-64714999D01*
X188590000Y-60420000D02*
X196110000Y-67940000D01*
X108969999Y-65040001D02*
X108670000Y-65340000D01*
X119844999Y-64714999D02*
X109295001Y-64714999D01*
X196110000Y-67940000D02*
X196370000Y-67940000D01*
X109295001Y-64714999D02*
X108969999Y-65040001D01*
%TO.N,led1*%
X108727879Y-64264989D02*
X107870000Y-65122868D01*
X107870000Y-65122868D02*
X107870000Y-65340000D01*
X196370000Y-70300000D02*
X196370000Y-70480000D01*
X121270000Y-65340000D02*
X121270000Y-64915736D01*
X121270000Y-64915736D02*
X120619253Y-64264989D01*
X188540000Y-62470000D02*
X196370000Y-70300000D01*
X120619253Y-64264989D02*
X108727879Y-64264989D01*
%TO.N,led2*%
X122170000Y-65290000D02*
X122170000Y-65052868D01*
X120932112Y-63814980D02*
X108385020Y-63814980D01*
X108385020Y-63814980D02*
X107028051Y-65171949D01*
X188570000Y-64540000D02*
X188570000Y-65220000D01*
X122170000Y-65052868D02*
X120932112Y-63814980D01*
X107028051Y-65171949D02*
X107028051Y-65298051D01*
X188570000Y-65220000D02*
X196370000Y-73020000D01*
%TO.N,BOOT1*%
X106975736Y-61400000D02*
X107400000Y-61400000D01*
X102100000Y-62700000D02*
X103400000Y-61400000D01*
X103400000Y-61400000D02*
X106975736Y-61400000D01*
D23*
%TO.N,Net-(USB_C1-PadS1)*%
X91970000Y-50890000D02*
X93090000Y-52010000D01*
X84450000Y-52110000D02*
X85670000Y-50890000D01*
X93870000Y-54890000D02*
X93870000Y-57890000D01*
X85670000Y-50890000D02*
X91970000Y-50890000D01*
X84450000Y-52720000D02*
X84450000Y-52110000D01*
X93090000Y-52010000D02*
X93090000Y-52720000D01*
D22*
%TO.N,Net-(LEDs1-Pad1)*%
X199470000Y-60440000D02*
X194182750Y-60440000D01*
X194182750Y-60440000D02*
X194170161Y-60427411D01*
%TO.N,Net-(LEDs1-Pad2)*%
X199470000Y-61440000D02*
X194170000Y-61440000D01*
X194170000Y-61440000D02*
X194157340Y-61427340D01*
%TO.N,Net-(LEDs1-Pad4)*%
X194170000Y-62440000D02*
X207250000Y-62440000D01*
X207250000Y-62440000D02*
X208770000Y-60920000D01*
%TD*%
%TA.AperFunction,Conductor*%
%TO.N,GND*%
G36*
X83390371Y-48010002D02*
G01*
X83436864Y-48063658D01*
X83447465Y-48130044D01*
X83441500Y-48183227D01*
X83441500Y-48889769D01*
X83441800Y-48892825D01*
X83441800Y-48892832D01*
X83442530Y-48900273D01*
X83455920Y-49036833D01*
X83513084Y-49226169D01*
X83605934Y-49400796D01*
X83676106Y-49486835D01*
X83727040Y-49549287D01*
X83727043Y-49549290D01*
X83730935Y-49554062D01*
X83735682Y-49557989D01*
X83735684Y-49557991D01*
X83878575Y-49676201D01*
X83878579Y-49676203D01*
X83883325Y-49680130D01*
X84057299Y-49774198D01*
X84246232Y-49832682D01*
X84252357Y-49833326D01*
X84252358Y-49833326D01*
X84436796Y-49852711D01*
X84436798Y-49852711D01*
X84442925Y-49853355D01*
X84525424Y-49845847D01*
X84633749Y-49835989D01*
X84633752Y-49835988D01*
X84639888Y-49835430D01*
X84645794Y-49833692D01*
X84645798Y-49833691D01*
X84815015Y-49783888D01*
X84829619Y-49779590D01*
X84835077Y-49776737D01*
X84835081Y-49776735D01*
X84988426Y-49696567D01*
X85004890Y-49687960D01*
X85159025Y-49564032D01*
X85286154Y-49412526D01*
X85289121Y-49407128D01*
X85289125Y-49407123D01*
X85378467Y-49244608D01*
X85381433Y-49239213D01*
X85383846Y-49231608D01*
X85439373Y-49056564D01*
X85439373Y-49056563D01*
X85441235Y-49050694D01*
X85458500Y-48896773D01*
X85458500Y-48190231D01*
X85457814Y-48183227D01*
X85453906Y-48143382D01*
X85452427Y-48128296D01*
X85465686Y-48058548D01*
X85514549Y-48007041D01*
X85577826Y-47990000D01*
X91962250Y-47990000D01*
X92030371Y-48010002D01*
X92076864Y-48063658D01*
X92087465Y-48130044D01*
X92081500Y-48183227D01*
X92081500Y-48889769D01*
X92081800Y-48892825D01*
X92081800Y-48892832D01*
X92082530Y-48900273D01*
X92095920Y-49036833D01*
X92153084Y-49226169D01*
X92245934Y-49400796D01*
X92316106Y-49486835D01*
X92367040Y-49549287D01*
X92367043Y-49549290D01*
X92370935Y-49554062D01*
X92375682Y-49557989D01*
X92375684Y-49557991D01*
X92518575Y-49676201D01*
X92518579Y-49676203D01*
X92523325Y-49680130D01*
X92697299Y-49774198D01*
X92886232Y-49832682D01*
X92892357Y-49833326D01*
X92892358Y-49833326D01*
X93076796Y-49852711D01*
X93076798Y-49852711D01*
X93082925Y-49853355D01*
X93165424Y-49845847D01*
X93273749Y-49835989D01*
X93273752Y-49835988D01*
X93279888Y-49835430D01*
X93285794Y-49833692D01*
X93285798Y-49833691D01*
X93455015Y-49783888D01*
X93469619Y-49779590D01*
X93475077Y-49776737D01*
X93475081Y-49776735D01*
X93628426Y-49696567D01*
X93644890Y-49687960D01*
X93799025Y-49564032D01*
X93926154Y-49412526D01*
X93929121Y-49407128D01*
X93929125Y-49407123D01*
X94018467Y-49244608D01*
X94021433Y-49239213D01*
X94023846Y-49231608D01*
X94079373Y-49056564D01*
X94079373Y-49056563D01*
X94081235Y-49050694D01*
X94098500Y-48896773D01*
X94098500Y-48190231D01*
X94097814Y-48183227D01*
X94093906Y-48143382D01*
X94092427Y-48128296D01*
X94105686Y-48058548D01*
X94154549Y-48007041D01*
X94217826Y-47990000D01*
X211765499Y-47990000D01*
X211774487Y-47990321D01*
X211823871Y-47993853D01*
X212045650Y-48009715D01*
X212063433Y-48012272D01*
X212324658Y-48069098D01*
X212341900Y-48074160D01*
X212592393Y-48167589D01*
X212608738Y-48175054D01*
X212630923Y-48187168D01*
X212843375Y-48303176D01*
X212858498Y-48312895D01*
X213072510Y-48473103D01*
X213086096Y-48484876D01*
X213275124Y-48673904D01*
X213286897Y-48687490D01*
X213447105Y-48901502D01*
X213456824Y-48916625D01*
X213584945Y-49151260D01*
X213592411Y-49167607D01*
X213681167Y-49405572D01*
X213685839Y-49418097D01*
X213690902Y-49435342D01*
X213747728Y-49696567D01*
X213750285Y-49714350D01*
X213761427Y-49870127D01*
X213769679Y-49985513D01*
X213770000Y-49994501D01*
X213770000Y-81985499D01*
X213769679Y-81994487D01*
X213767457Y-82025558D01*
X213755665Y-82190438D01*
X213750286Y-82265645D01*
X213747728Y-82283433D01*
X213700943Y-82498500D01*
X213690903Y-82544654D01*
X213685840Y-82561900D01*
X213592411Y-82812393D01*
X213584945Y-82828740D01*
X213456824Y-83063375D01*
X213447105Y-83078498D01*
X213286897Y-83292510D01*
X213275124Y-83306096D01*
X213086096Y-83495124D01*
X213072510Y-83506897D01*
X212858498Y-83667105D01*
X212843375Y-83676824D01*
X212608740Y-83804945D01*
X212592393Y-83812411D01*
X212341900Y-83905840D01*
X212324658Y-83910902D01*
X212063433Y-83967728D01*
X212045650Y-83970285D01*
X211823871Y-83986147D01*
X211774487Y-83989679D01*
X211765499Y-83990000D01*
X67774501Y-83990000D01*
X67765513Y-83989679D01*
X67716129Y-83986147D01*
X67494350Y-83970285D01*
X67476567Y-83967728D01*
X67215342Y-83910902D01*
X67198100Y-83905840D01*
X66947607Y-83812411D01*
X66931260Y-83804945D01*
X66696625Y-83676824D01*
X66681502Y-83667105D01*
X66467490Y-83506897D01*
X66453904Y-83495124D01*
X66264876Y-83306096D01*
X66253103Y-83292510D01*
X66092895Y-83078498D01*
X66083176Y-83063375D01*
X65955055Y-82828740D01*
X65947589Y-82812393D01*
X65854160Y-82561900D01*
X65849097Y-82544654D01*
X65839057Y-82498500D01*
X65792272Y-82283433D01*
X65789714Y-82265645D01*
X65784336Y-82190438D01*
X65772543Y-82025558D01*
X65770321Y-81994487D01*
X65770000Y-81985499D01*
X65770000Y-77566362D01*
X78393609Y-77566362D01*
X78393906Y-77571514D01*
X78393906Y-77571518D01*
X78399618Y-77670578D01*
X78406597Y-77791614D01*
X78407734Y-77796660D01*
X78407735Y-77796666D01*
X78428984Y-77890952D01*
X78456200Y-78011720D01*
X78458142Y-78016502D01*
X78458143Y-78016506D01*
X78516677Y-78160658D01*
X78541086Y-78220769D01*
X78543785Y-78225173D01*
X78645443Y-78391064D01*
X78658975Y-78413147D01*
X78803909Y-78580462D01*
X78803909Y-78580463D01*
X78806702Y-78583687D01*
X78806036Y-78584264D01*
X78838456Y-78642187D01*
X78834131Y-78713052D01*
X78792181Y-78770330D01*
X78759851Y-78788238D01*
X78668105Y-78822632D01*
X78668104Y-78822633D01*
X78659695Y-78825785D01*
X78543139Y-78913139D01*
X78455785Y-79029695D01*
X78404655Y-79166084D01*
X78397900Y-79228266D01*
X78397900Y-81051734D01*
X78404655Y-81113916D01*
X78455785Y-81250305D01*
X78543139Y-81366861D01*
X78659695Y-81454215D01*
X78796084Y-81505345D01*
X78858266Y-81512100D01*
X80681734Y-81512100D01*
X80743916Y-81505345D01*
X80880305Y-81454215D01*
X80996861Y-81366861D01*
X81084215Y-81250305D01*
X81107735Y-81187567D01*
X81122413Y-81148412D01*
X81165054Y-81091647D01*
X81231616Y-81066947D01*
X81300965Y-81082154D01*
X81335633Y-81110145D01*
X81343666Y-81119419D01*
X81351032Y-81126633D01*
X81516606Y-81264095D01*
X81525053Y-81270010D01*
X81710859Y-81378586D01*
X81720146Y-81383036D01*
X81921198Y-81459810D01*
X81931091Y-81462684D01*
X82038248Y-81484485D01*
X82052300Y-81483290D01*
X82056000Y-81472945D01*
X82056000Y-80012000D01*
X82076002Y-79943879D01*
X82129658Y-79897386D01*
X82182000Y-79886000D01*
X82438000Y-79886000D01*
X82506121Y-79906002D01*
X82552614Y-79959658D01*
X82564000Y-80012000D01*
X82564000Y-81472229D01*
X82568064Y-81486071D01*
X82581479Y-81488105D01*
X82591025Y-81486882D01*
X82601095Y-81484742D01*
X82807225Y-81422900D01*
X82816832Y-81419134D01*
X83010076Y-81324464D01*
X83018934Y-81319185D01*
X83194141Y-81194211D01*
X83202003Y-81187567D01*
X83354445Y-81035656D01*
X83361122Y-81027811D01*
X83479086Y-80863646D01*
X83535081Y-80819998D01*
X83605784Y-80813552D01*
X83668749Y-80846355D01*
X83688842Y-80871337D01*
X83736091Y-80948440D01*
X83738975Y-80953147D01*
X83886702Y-81123687D01*
X84060299Y-81267810D01*
X84064751Y-81270412D01*
X84064756Y-81270415D01*
X84183804Y-81339981D01*
X84255103Y-81381645D01*
X84465884Y-81462134D01*
X84470952Y-81463165D01*
X84470955Y-81463166D01*
X84519021Y-81472945D01*
X84686981Y-81507117D01*
X84692156Y-81507307D01*
X84692158Y-81507307D01*
X84907292Y-81515196D01*
X84907296Y-81515196D01*
X84912456Y-81515385D01*
X84917576Y-81514729D01*
X84917578Y-81514729D01*
X85012485Y-81502571D01*
X85136253Y-81486716D01*
X85141202Y-81485231D01*
X85141208Y-81485230D01*
X85347413Y-81423365D01*
X85347412Y-81423365D01*
X85352363Y-81421880D01*
X85519540Y-81339981D01*
X85550331Y-81324897D01*
X85550336Y-81324894D01*
X85554982Y-81322618D01*
X85559192Y-81319615D01*
X85559197Y-81319612D01*
X85734455Y-81194601D01*
X85734459Y-81194597D01*
X85738667Y-81191596D01*
X85898487Y-81032333D01*
X86019686Y-80863667D01*
X86075680Y-80820019D01*
X86146384Y-80813573D01*
X86209348Y-80846376D01*
X86229441Y-80871358D01*
X86276682Y-80948448D01*
X86282765Y-80956759D01*
X86423665Y-81119417D01*
X86431032Y-81126633D01*
X86596606Y-81264095D01*
X86605053Y-81270010D01*
X86790859Y-81378586D01*
X86800146Y-81383036D01*
X87001198Y-81459810D01*
X87011091Y-81462684D01*
X87118248Y-81484485D01*
X87132300Y-81483290D01*
X87136000Y-81472945D01*
X87136000Y-81472229D01*
X87644000Y-81472229D01*
X87648064Y-81486071D01*
X87661479Y-81488105D01*
X87671025Y-81486882D01*
X87681095Y-81484742D01*
X87887225Y-81422900D01*
X87896832Y-81419134D01*
X88090076Y-81324464D01*
X88098934Y-81319185D01*
X88274141Y-81194211D01*
X88282003Y-81187567D01*
X88434445Y-81035656D01*
X88441122Y-81027811D01*
X88559402Y-80863206D01*
X88615397Y-80819558D01*
X88686100Y-80813112D01*
X88749065Y-80845915D01*
X88769157Y-80870897D01*
X88816676Y-80948440D01*
X88822765Y-80956759D01*
X88963665Y-81119417D01*
X88971032Y-81126633D01*
X89136606Y-81264095D01*
X89145053Y-81270010D01*
X89330859Y-81378586D01*
X89340146Y-81383036D01*
X89541198Y-81459810D01*
X89551091Y-81462684D01*
X89658248Y-81484485D01*
X89672300Y-81483290D01*
X89676000Y-81472945D01*
X89676000Y-81472229D01*
X90184000Y-81472229D01*
X90188064Y-81486071D01*
X90201479Y-81488105D01*
X90211025Y-81486882D01*
X90221095Y-81484742D01*
X90427225Y-81422900D01*
X90436832Y-81419134D01*
X90630076Y-81324464D01*
X90638934Y-81319185D01*
X90814141Y-81194211D01*
X90822003Y-81187567D01*
X90974445Y-81035656D01*
X90981122Y-81027811D01*
X91106702Y-80853047D01*
X91112013Y-80844208D01*
X91207358Y-80651292D01*
X91211156Y-80641699D01*
X91273716Y-80435791D01*
X91275893Y-80425721D01*
X91277705Y-80411960D01*
X91275493Y-80397778D01*
X91262336Y-80394000D01*
X90202115Y-80394000D01*
X90186876Y-80398475D01*
X90185671Y-80399865D01*
X90184000Y-80407548D01*
X90184000Y-81472229D01*
X89676000Y-81472229D01*
X89676000Y-80412115D01*
X89671525Y-80396876D01*
X89670135Y-80395671D01*
X89662452Y-80394000D01*
X87662115Y-80394000D01*
X87646876Y-80398475D01*
X87645671Y-80399865D01*
X87644000Y-80407548D01*
X87644000Y-81472229D01*
X87136000Y-81472229D01*
X87136000Y-80147821D01*
X207261500Y-80147821D01*
X207301060Y-80460975D01*
X207379557Y-80766702D01*
X207381010Y-80770371D01*
X207381010Y-80770372D01*
X207486044Y-81035656D01*
X207495753Y-81060179D01*
X207497659Y-81063647D01*
X207497660Y-81063648D01*
X207641046Y-81324464D01*
X207647816Y-81336779D01*
X207833346Y-81592140D01*
X208049418Y-81822233D01*
X208292625Y-82023432D01*
X208559131Y-82192562D01*
X208562710Y-82194246D01*
X208562717Y-82194250D01*
X208841144Y-82325267D01*
X208841148Y-82325269D01*
X208844734Y-82326956D01*
X209144928Y-82424495D01*
X209454980Y-82483641D01*
X209691162Y-82498500D01*
X209848838Y-82498500D01*
X210085020Y-82483641D01*
X210395072Y-82424495D01*
X210695266Y-82326956D01*
X210698852Y-82325269D01*
X210698856Y-82325267D01*
X210977283Y-82194250D01*
X210977290Y-82194246D01*
X210980869Y-82192562D01*
X211247375Y-82023432D01*
X211490582Y-81822233D01*
X211706654Y-81592140D01*
X211892184Y-81336779D01*
X211898955Y-81324464D01*
X212042340Y-81063648D01*
X212042341Y-81063647D01*
X212044247Y-81060179D01*
X212053957Y-81035656D01*
X212158990Y-80770372D01*
X212158990Y-80770371D01*
X212160443Y-80766702D01*
X212238940Y-80460975D01*
X212278500Y-80147821D01*
X212278500Y-79832179D01*
X212238940Y-79519025D01*
X212160443Y-79213298D01*
X212130337Y-79137260D01*
X212045702Y-78923495D01*
X212045700Y-78923490D01*
X212044247Y-78919821D01*
X212037615Y-78907758D01*
X211894093Y-78646693D01*
X211894091Y-78646690D01*
X211892184Y-78643221D01*
X211706654Y-78387860D01*
X211498867Y-78166590D01*
X211493297Y-78160658D01*
X211493296Y-78160657D01*
X211490582Y-78157767D01*
X211424822Y-78103365D01*
X211250427Y-77959093D01*
X211247375Y-77956568D01*
X210980869Y-77787438D01*
X210977290Y-77785754D01*
X210977283Y-77785750D01*
X210698856Y-77654733D01*
X210698852Y-77654731D01*
X210695266Y-77653044D01*
X210395072Y-77555505D01*
X210085020Y-77496359D01*
X209848838Y-77481500D01*
X209691162Y-77481500D01*
X209454980Y-77496359D01*
X209144928Y-77555505D01*
X208844734Y-77653044D01*
X208841148Y-77654731D01*
X208841144Y-77654733D01*
X208562717Y-77785750D01*
X208562710Y-77785754D01*
X208559131Y-77787438D01*
X208292625Y-77956568D01*
X208289573Y-77959093D01*
X208115179Y-78103365D01*
X208049418Y-78157767D01*
X208046704Y-78160657D01*
X208046703Y-78160658D01*
X208041133Y-78166590D01*
X207833346Y-78387860D01*
X207647816Y-78643221D01*
X207645909Y-78646690D01*
X207645907Y-78646693D01*
X207502385Y-78907758D01*
X207495753Y-78919821D01*
X207494300Y-78923490D01*
X207494298Y-78923495D01*
X207409663Y-79137260D01*
X207379557Y-79213298D01*
X207301060Y-79519025D01*
X207261500Y-79832179D01*
X207261500Y-80147821D01*
X87136000Y-80147821D01*
X87136000Y-80012000D01*
X87156002Y-79943879D01*
X87209658Y-79897386D01*
X87262000Y-79886000D01*
X91262367Y-79886000D01*
X91275898Y-79882027D01*
X91277203Y-79872947D01*
X91234133Y-79701477D01*
X91230813Y-79691726D01*
X91144999Y-79494365D01*
X91140133Y-79485290D01*
X91023239Y-79304601D01*
X91016947Y-79296430D01*
X90872113Y-79137260D01*
X90864580Y-79130234D01*
X90695691Y-78996855D01*
X90687104Y-78991150D01*
X90668082Y-78980649D01*
X90618111Y-78930216D01*
X90603340Y-78860773D01*
X90628457Y-78794368D01*
X90655801Y-78767768D01*
X90818667Y-78651596D01*
X90978487Y-78492333D01*
X91067854Y-78367966D01*
X195038257Y-78367966D01*
X195068565Y-78502446D01*
X195071645Y-78512275D01*
X195151770Y-78709603D01*
X195156413Y-78718794D01*
X195267694Y-78900388D01*
X195273777Y-78908699D01*
X195413213Y-79069667D01*
X195420580Y-79076883D01*
X195584434Y-79212916D01*
X195592881Y-79218831D01*
X195776756Y-79326279D01*
X195786042Y-79330729D01*
X195985001Y-79406703D01*
X195994899Y-79409579D01*
X196098250Y-79430606D01*
X196112299Y-79429410D01*
X196116000Y-79419065D01*
X196116000Y-79418517D01*
X196624000Y-79418517D01*
X196628064Y-79432359D01*
X196641478Y-79434393D01*
X196648184Y-79433534D01*
X196658262Y-79431392D01*
X196862255Y-79370191D01*
X196871842Y-79366433D01*
X197063095Y-79272739D01*
X197071945Y-79267464D01*
X197245328Y-79143792D01*
X197253200Y-79137139D01*
X197404052Y-78986812D01*
X197410730Y-78978965D01*
X197535003Y-78806020D01*
X197540313Y-78797183D01*
X197634670Y-78606267D01*
X197638469Y-78596672D01*
X197700377Y-78392910D01*
X197702555Y-78382837D01*
X197703986Y-78371962D01*
X197701775Y-78357778D01*
X197688617Y-78354000D01*
X196642115Y-78354000D01*
X196626876Y-78358475D01*
X196625671Y-78359865D01*
X196624000Y-78367548D01*
X196624000Y-79418517D01*
X196116000Y-79418517D01*
X196116000Y-78372115D01*
X196111525Y-78356876D01*
X196110135Y-78355671D01*
X196102452Y-78354000D01*
X195053225Y-78354000D01*
X195039694Y-78357973D01*
X195038257Y-78367966D01*
X91067854Y-78367966D01*
X91110150Y-78309105D01*
X91210118Y-78106835D01*
X91222313Y-78066695D01*
X198707251Y-78066695D01*
X198707548Y-78071848D01*
X198707548Y-78071851D01*
X198713011Y-78166590D01*
X198720110Y-78289715D01*
X198721247Y-78294761D01*
X198721248Y-78294767D01*
X198735449Y-78357778D01*
X198769222Y-78507639D01*
X198853266Y-78714616D01*
X198890058Y-78774655D01*
X198948776Y-78870474D01*
X198969987Y-78905088D01*
X199116250Y-79073938D01*
X199288126Y-79216632D01*
X199481000Y-79329338D01*
X199689692Y-79409030D01*
X199694760Y-79410061D01*
X199694763Y-79410062D01*
X199789862Y-79429410D01*
X199908597Y-79453567D01*
X199913772Y-79453757D01*
X199913774Y-79453757D01*
X200126673Y-79461564D01*
X200126677Y-79461564D01*
X200131837Y-79461753D01*
X200136957Y-79461097D01*
X200136959Y-79461097D01*
X200348288Y-79434025D01*
X200348289Y-79434025D01*
X200353416Y-79433368D01*
X200358366Y-79431883D01*
X200562429Y-79370661D01*
X200562434Y-79370659D01*
X200567384Y-79369174D01*
X200767994Y-79270896D01*
X200949860Y-79141173D01*
X200957991Y-79133071D01*
X201094683Y-78996855D01*
X201108096Y-78983489D01*
X201114254Y-78974920D01*
X201235435Y-78806277D01*
X201238453Y-78802077D01*
X201246092Y-78786622D01*
X201335136Y-78606453D01*
X201335137Y-78606451D01*
X201337430Y-78601811D01*
X201402370Y-78388069D01*
X201431529Y-78166590D01*
X201433156Y-78100000D01*
X201430418Y-78066695D01*
X202807251Y-78066695D01*
X202807548Y-78071848D01*
X202807548Y-78071851D01*
X202813011Y-78166590D01*
X202820110Y-78289715D01*
X202821247Y-78294761D01*
X202821248Y-78294767D01*
X202835449Y-78357778D01*
X202869222Y-78507639D01*
X202953266Y-78714616D01*
X202990058Y-78774655D01*
X203048776Y-78870474D01*
X203069987Y-78905088D01*
X203216250Y-79073938D01*
X203388126Y-79216632D01*
X203581000Y-79329338D01*
X203789692Y-79409030D01*
X203794760Y-79410061D01*
X203794763Y-79410062D01*
X203889862Y-79429410D01*
X204008597Y-79453567D01*
X204013772Y-79453757D01*
X204013774Y-79453757D01*
X204226673Y-79461564D01*
X204226677Y-79461564D01*
X204231837Y-79461753D01*
X204236957Y-79461097D01*
X204236959Y-79461097D01*
X204448288Y-79434025D01*
X204448289Y-79434025D01*
X204453416Y-79433368D01*
X204458366Y-79431883D01*
X204662429Y-79370661D01*
X204662434Y-79370659D01*
X204667384Y-79369174D01*
X204867994Y-79270896D01*
X205049860Y-79141173D01*
X205057991Y-79133071D01*
X205194683Y-78996855D01*
X205208096Y-78983489D01*
X205214254Y-78974920D01*
X205335435Y-78806277D01*
X205338453Y-78802077D01*
X205346092Y-78786622D01*
X205435136Y-78606453D01*
X205435137Y-78606451D01*
X205437430Y-78601811D01*
X205502370Y-78388069D01*
X205531529Y-78166590D01*
X205533156Y-78100000D01*
X205514852Y-77877361D01*
X205460431Y-77660702D01*
X205371354Y-77455840D01*
X205250014Y-77268277D01*
X205099670Y-77103051D01*
X205095619Y-77099852D01*
X205095615Y-77099848D01*
X204928414Y-76967800D01*
X204928410Y-76967798D01*
X204924359Y-76964598D01*
X204883053Y-76941796D01*
X204833084Y-76891364D01*
X204818312Y-76821921D01*
X204843428Y-76755516D01*
X204870780Y-76728909D01*
X204914603Y-76697650D01*
X205049860Y-76601173D01*
X205057991Y-76593071D01*
X205131209Y-76520107D01*
X205208096Y-76443489D01*
X205267594Y-76360689D01*
X205335435Y-76266277D01*
X205338453Y-76262077D01*
X205354649Y-76229308D01*
X205435136Y-76066453D01*
X205435137Y-76066451D01*
X205437430Y-76061811D01*
X205502370Y-75848069D01*
X205531529Y-75626590D01*
X205533156Y-75560000D01*
X205514852Y-75337361D01*
X205460431Y-75120702D01*
X205371354Y-74915840D01*
X205250014Y-74728277D01*
X205099670Y-74563051D01*
X205095619Y-74559852D01*
X205095615Y-74559848D01*
X204928414Y-74427800D01*
X204928410Y-74427798D01*
X204924359Y-74424598D01*
X204883053Y-74401796D01*
X204833084Y-74351364D01*
X204818312Y-74281921D01*
X204843428Y-74215516D01*
X204870780Y-74188909D01*
X204914603Y-74157650D01*
X205049860Y-74061173D01*
X205208096Y-73903489D01*
X205267594Y-73820689D01*
X205335435Y-73726277D01*
X205338453Y-73722077D01*
X205402672Y-73592140D01*
X205435136Y-73526453D01*
X205435137Y-73526451D01*
X205437430Y-73521811D01*
X205502370Y-73308069D01*
X205531529Y-73086590D01*
X205533156Y-73020000D01*
X205514852Y-72797361D01*
X205460431Y-72580702D01*
X205371354Y-72375840D01*
X205302031Y-72268683D01*
X205252822Y-72192617D01*
X205252820Y-72192614D01*
X205250014Y-72188277D01*
X205099670Y-72023051D01*
X205095619Y-72019852D01*
X205095615Y-72019848D01*
X204928414Y-71887800D01*
X204928410Y-71887798D01*
X204924359Y-71884598D01*
X204883053Y-71861796D01*
X204833084Y-71811364D01*
X204818312Y-71741921D01*
X204843428Y-71675516D01*
X204870780Y-71648909D01*
X204914603Y-71617650D01*
X205049860Y-71521173D01*
X205208096Y-71363489D01*
X205248174Y-71307715D01*
X205335435Y-71186277D01*
X205338453Y-71182077D01*
X205403323Y-71050823D01*
X205435136Y-70986453D01*
X205435137Y-70986451D01*
X205437430Y-70981811D01*
X205488429Y-70813955D01*
X205500865Y-70773023D01*
X205500865Y-70773021D01*
X205502370Y-70768069D01*
X205531529Y-70546590D01*
X205533156Y-70480000D01*
X205514852Y-70257361D01*
X205460431Y-70040702D01*
X205371354Y-69835840D01*
X205272056Y-69682349D01*
X205252822Y-69652617D01*
X205252820Y-69652614D01*
X205250014Y-69648277D01*
X205099670Y-69483051D01*
X205095619Y-69479852D01*
X205095615Y-69479848D01*
X204928414Y-69347800D01*
X204928410Y-69347798D01*
X204924359Y-69344598D01*
X204883053Y-69321796D01*
X204833084Y-69271364D01*
X204818312Y-69201921D01*
X204843428Y-69135516D01*
X204870780Y-69108909D01*
X204927611Y-69068372D01*
X205049860Y-68981173D01*
X205096135Y-68935060D01*
X205191437Y-68840090D01*
X205208096Y-68823489D01*
X205233794Y-68787727D01*
X205335435Y-68646277D01*
X205338453Y-68642077D01*
X205406021Y-68505364D01*
X205435136Y-68446453D01*
X205435137Y-68446451D01*
X205437430Y-68441811D01*
X205502370Y-68228069D01*
X205531529Y-68006590D01*
X205533156Y-67940000D01*
X205514852Y-67717361D01*
X205460431Y-67500702D01*
X205371354Y-67295840D01*
X205311707Y-67203640D01*
X205252822Y-67112617D01*
X205252820Y-67112614D01*
X205250014Y-67108277D01*
X205099670Y-66943051D01*
X205095619Y-66939852D01*
X205095615Y-66939848D01*
X204928414Y-66807800D01*
X204928410Y-66807798D01*
X204924359Y-66804598D01*
X204915755Y-66799848D01*
X204872136Y-66775769D01*
X204728789Y-66696638D01*
X204723920Y-66694914D01*
X204723916Y-66694912D01*
X204523087Y-66623795D01*
X204523083Y-66623794D01*
X204518212Y-66622069D01*
X204513119Y-66621162D01*
X204513116Y-66621161D01*
X204303373Y-66583800D01*
X204303367Y-66583799D01*
X204298284Y-66582894D01*
X204224452Y-66581992D01*
X204080081Y-66580228D01*
X204080079Y-66580228D01*
X204074911Y-66580165D01*
X203854091Y-66613955D01*
X203641756Y-66683357D01*
X203611443Y-66699137D01*
X203460852Y-66777530D01*
X203443607Y-66786507D01*
X203439474Y-66789610D01*
X203439471Y-66789612D01*
X203349094Y-66857469D01*
X203264965Y-66920635D01*
X203261393Y-66924373D01*
X203162278Y-67028091D01*
X203110629Y-67082138D01*
X203107715Y-67086410D01*
X203107714Y-67086411D01*
X203077042Y-67131375D01*
X202984743Y-67266680D01*
X202890688Y-67469305D01*
X202830989Y-67684570D01*
X202807251Y-67906695D01*
X202807548Y-67911848D01*
X202807548Y-67911851D01*
X202813011Y-68006590D01*
X202820110Y-68129715D01*
X202821247Y-68134761D01*
X202821248Y-68134767D01*
X202837671Y-68207639D01*
X202869222Y-68347639D01*
X202953266Y-68554616D01*
X202984195Y-68605088D01*
X203059446Y-68727886D01*
X203069987Y-68745088D01*
X203216250Y-68913938D01*
X203388126Y-69056632D01*
X203408217Y-69068372D01*
X203461445Y-69099476D01*
X203510169Y-69151114D01*
X203523240Y-69220897D01*
X203496509Y-69286669D01*
X203456055Y-69320027D01*
X203443607Y-69326507D01*
X203439474Y-69329610D01*
X203439471Y-69329612D01*
X203269100Y-69457530D01*
X203264965Y-69460635D01*
X203256818Y-69469160D01*
X203134111Y-69597566D01*
X203110629Y-69622138D01*
X203107715Y-69626410D01*
X203107714Y-69626411D01*
X203031998Y-69737407D01*
X202984743Y-69806680D01*
X202969003Y-69840590D01*
X202913996Y-69959093D01*
X202890688Y-70009305D01*
X202830989Y-70224570D01*
X202807251Y-70446695D01*
X202807548Y-70451848D01*
X202807548Y-70451851D01*
X202813011Y-70546590D01*
X202820110Y-70669715D01*
X202821247Y-70674761D01*
X202821248Y-70674767D01*
X202821739Y-70676944D01*
X202869222Y-70887639D01*
X202953266Y-71094616D01*
X203000879Y-71172314D01*
X203041214Y-71238134D01*
X203069987Y-71285088D01*
X203216250Y-71453938D01*
X203388126Y-71596632D01*
X203454177Y-71635229D01*
X203461445Y-71639476D01*
X203510169Y-71691114D01*
X203523240Y-71760897D01*
X203496509Y-71826669D01*
X203456055Y-71860027D01*
X203443607Y-71866507D01*
X203439474Y-71869610D01*
X203439471Y-71869612D01*
X203290193Y-71981693D01*
X203264965Y-72000635D01*
X203261393Y-72004373D01*
X203136696Y-72134861D01*
X203110629Y-72162138D01*
X202984743Y-72346680D01*
X202890688Y-72549305D01*
X202830989Y-72764570D01*
X202807251Y-72986695D01*
X202807548Y-72991848D01*
X202807548Y-72991851D01*
X202814981Y-73120760D01*
X202820110Y-73209715D01*
X202821247Y-73214761D01*
X202821248Y-73214767D01*
X202835271Y-73276990D01*
X202869222Y-73427639D01*
X202953266Y-73634616D01*
X203069987Y-73825088D01*
X203216250Y-73993938D01*
X203388126Y-74136632D01*
X203458595Y-74177811D01*
X203461445Y-74179476D01*
X203510169Y-74231114D01*
X203523240Y-74300897D01*
X203496509Y-74366669D01*
X203456055Y-74400027D01*
X203443607Y-74406507D01*
X203439474Y-74409610D01*
X203439471Y-74409612D01*
X203269100Y-74537530D01*
X203264965Y-74540635D01*
X203110629Y-74702138D01*
X202984743Y-74886680D01*
X202890688Y-75089305D01*
X202830989Y-75304570D01*
X202807251Y-75526695D01*
X202807548Y-75531848D01*
X202807548Y-75531851D01*
X202813011Y-75626590D01*
X202820110Y-75749715D01*
X202821247Y-75754761D01*
X202821248Y-75754767D01*
X202841119Y-75842939D01*
X202869222Y-75967639D01*
X202953266Y-76174616D01*
X203069987Y-76365088D01*
X203216250Y-76533938D01*
X203388126Y-76676632D01*
X203458595Y-76717811D01*
X203461445Y-76719476D01*
X203510169Y-76771114D01*
X203523240Y-76840897D01*
X203496509Y-76906669D01*
X203456055Y-76940027D01*
X203443607Y-76946507D01*
X203439474Y-76949610D01*
X203439471Y-76949612D01*
X203415247Y-76967800D01*
X203264965Y-77080635D01*
X203110629Y-77242138D01*
X203107715Y-77246410D01*
X203107714Y-77246411D01*
X203095404Y-77264457D01*
X202984743Y-77426680D01*
X202969003Y-77460590D01*
X202905848Y-77596646D01*
X202890688Y-77629305D01*
X202830989Y-77844570D01*
X202807251Y-78066695D01*
X201430418Y-78066695D01*
X201414852Y-77877361D01*
X201360431Y-77660702D01*
X201271354Y-77455840D01*
X201150014Y-77268277D01*
X200999670Y-77103051D01*
X200995619Y-77099852D01*
X200995615Y-77099848D01*
X200828414Y-76967800D01*
X200828410Y-76967798D01*
X200824359Y-76964598D01*
X200783053Y-76941796D01*
X200733084Y-76891364D01*
X200718312Y-76821921D01*
X200743428Y-76755516D01*
X200770780Y-76728909D01*
X200814603Y-76697650D01*
X200949860Y-76601173D01*
X200957991Y-76593071D01*
X201031209Y-76520107D01*
X201108096Y-76443489D01*
X201167594Y-76360689D01*
X201235435Y-76266277D01*
X201238453Y-76262077D01*
X201254649Y-76229308D01*
X201335136Y-76066453D01*
X201335137Y-76066451D01*
X201337430Y-76061811D01*
X201402370Y-75848069D01*
X201431529Y-75626590D01*
X201433156Y-75560000D01*
X201414852Y-75337361D01*
X201360431Y-75120702D01*
X201271354Y-74915840D01*
X201150014Y-74728277D01*
X200999670Y-74563051D01*
X200995619Y-74559852D01*
X200995615Y-74559848D01*
X200828414Y-74427800D01*
X200828410Y-74427798D01*
X200824359Y-74424598D01*
X200783053Y-74401796D01*
X200733084Y-74351364D01*
X200718312Y-74281921D01*
X200743428Y-74215516D01*
X200770780Y-74188909D01*
X200814603Y-74157650D01*
X200949860Y-74061173D01*
X201108096Y-73903489D01*
X201167594Y-73820689D01*
X201235435Y-73726277D01*
X201238453Y-73722077D01*
X201302672Y-73592140D01*
X201335136Y-73526453D01*
X201335137Y-73526451D01*
X201337430Y-73521811D01*
X201402370Y-73308069D01*
X201431529Y-73086590D01*
X201433156Y-73020000D01*
X201414852Y-72797361D01*
X201360431Y-72580702D01*
X201271354Y-72375840D01*
X201202031Y-72268683D01*
X201152822Y-72192617D01*
X201152820Y-72192614D01*
X201150014Y-72188277D01*
X200999670Y-72023051D01*
X200995619Y-72019852D01*
X200995615Y-72019848D01*
X200828414Y-71887800D01*
X200828410Y-71887798D01*
X200824359Y-71884598D01*
X200783053Y-71861796D01*
X200733084Y-71811364D01*
X200718312Y-71741921D01*
X200743428Y-71675516D01*
X200770780Y-71648909D01*
X200814603Y-71617650D01*
X200949860Y-71521173D01*
X201108096Y-71363489D01*
X201148174Y-71307715D01*
X201235435Y-71186277D01*
X201238453Y-71182077D01*
X201303323Y-71050823D01*
X201335136Y-70986453D01*
X201335137Y-70986451D01*
X201337430Y-70981811D01*
X201388429Y-70813955D01*
X201400865Y-70773023D01*
X201400865Y-70773021D01*
X201402370Y-70768069D01*
X201431529Y-70546590D01*
X201433156Y-70480000D01*
X201414852Y-70257361D01*
X201360431Y-70040702D01*
X201271354Y-69835840D01*
X201172056Y-69682349D01*
X201152822Y-69652617D01*
X201152820Y-69652614D01*
X201150014Y-69648277D01*
X200999670Y-69483051D01*
X200995619Y-69479852D01*
X200995615Y-69479848D01*
X200828414Y-69347800D01*
X200828410Y-69347798D01*
X200824359Y-69344598D01*
X200783053Y-69321796D01*
X200733084Y-69271364D01*
X200718312Y-69201921D01*
X200743428Y-69135516D01*
X200770780Y-69108909D01*
X200827611Y-69068372D01*
X200949860Y-68981173D01*
X200996135Y-68935060D01*
X201091437Y-68840090D01*
X201108096Y-68823489D01*
X201133794Y-68787727D01*
X201235435Y-68646277D01*
X201238453Y-68642077D01*
X201306021Y-68505364D01*
X201335136Y-68446453D01*
X201335137Y-68446451D01*
X201337430Y-68441811D01*
X201402370Y-68228069D01*
X201431529Y-68006590D01*
X201433156Y-67940000D01*
X201414852Y-67717361D01*
X201360431Y-67500702D01*
X201271354Y-67295840D01*
X201211707Y-67203640D01*
X201152822Y-67112617D01*
X201152820Y-67112614D01*
X201150014Y-67108277D01*
X200999670Y-66943051D01*
X200995619Y-66939852D01*
X200995615Y-66939848D01*
X200828414Y-66807800D01*
X200828410Y-66807798D01*
X200824359Y-66804598D01*
X200815755Y-66799848D01*
X200772136Y-66775769D01*
X200628789Y-66696638D01*
X200623920Y-66694914D01*
X200623916Y-66694912D01*
X200423087Y-66623795D01*
X200423083Y-66623794D01*
X200418212Y-66622069D01*
X200413119Y-66621162D01*
X200413116Y-66621161D01*
X200203373Y-66583800D01*
X200203367Y-66583799D01*
X200198284Y-66582894D01*
X200124452Y-66581992D01*
X199980081Y-66580228D01*
X199980079Y-66580228D01*
X199974911Y-66580165D01*
X199754091Y-66613955D01*
X199541756Y-66683357D01*
X199511443Y-66699137D01*
X199360852Y-66777530D01*
X199343607Y-66786507D01*
X199339474Y-66789610D01*
X199339471Y-66789612D01*
X199249094Y-66857469D01*
X199164965Y-66920635D01*
X199161393Y-66924373D01*
X199062278Y-67028091D01*
X199010629Y-67082138D01*
X199007715Y-67086410D01*
X199007714Y-67086411D01*
X198977042Y-67131375D01*
X198884743Y-67266680D01*
X198790688Y-67469305D01*
X198730989Y-67684570D01*
X198707251Y-67906695D01*
X198707548Y-67911848D01*
X198707548Y-67911851D01*
X198713011Y-68006590D01*
X198720110Y-68129715D01*
X198721247Y-68134761D01*
X198721248Y-68134767D01*
X198737671Y-68207639D01*
X198769222Y-68347639D01*
X198853266Y-68554616D01*
X198884195Y-68605088D01*
X198959446Y-68727886D01*
X198969987Y-68745088D01*
X199116250Y-68913938D01*
X199288126Y-69056632D01*
X199308217Y-69068372D01*
X199361445Y-69099476D01*
X199410169Y-69151114D01*
X199423240Y-69220897D01*
X199396509Y-69286669D01*
X199356055Y-69320027D01*
X199343607Y-69326507D01*
X199339474Y-69329610D01*
X199339471Y-69329612D01*
X199169100Y-69457530D01*
X199164965Y-69460635D01*
X199156818Y-69469160D01*
X199034111Y-69597566D01*
X199010629Y-69622138D01*
X199007715Y-69626410D01*
X199007714Y-69626411D01*
X198931998Y-69737407D01*
X198884743Y-69806680D01*
X198869003Y-69840590D01*
X198813996Y-69959093D01*
X198790688Y-70009305D01*
X198730989Y-70224570D01*
X198707251Y-70446695D01*
X198707548Y-70451848D01*
X198707548Y-70451851D01*
X198713011Y-70546590D01*
X198720110Y-70669715D01*
X198721247Y-70674761D01*
X198721248Y-70674767D01*
X198721739Y-70676944D01*
X198769222Y-70887639D01*
X198853266Y-71094616D01*
X198900879Y-71172314D01*
X198941214Y-71238134D01*
X198969987Y-71285088D01*
X199116250Y-71453938D01*
X199288126Y-71596632D01*
X199354177Y-71635229D01*
X199361445Y-71639476D01*
X199410169Y-71691114D01*
X199423240Y-71760897D01*
X199396509Y-71826669D01*
X199356055Y-71860027D01*
X199343607Y-71866507D01*
X199339474Y-71869610D01*
X199339471Y-71869612D01*
X199190193Y-71981693D01*
X199164965Y-72000635D01*
X199161393Y-72004373D01*
X199036696Y-72134861D01*
X199010629Y-72162138D01*
X198884743Y-72346680D01*
X198790688Y-72549305D01*
X198730989Y-72764570D01*
X198707251Y-72986695D01*
X198707548Y-72991848D01*
X198707548Y-72991851D01*
X198714981Y-73120760D01*
X198720110Y-73209715D01*
X198721247Y-73214761D01*
X198721248Y-73214767D01*
X198735271Y-73276990D01*
X198769222Y-73427639D01*
X198853266Y-73634616D01*
X198969987Y-73825088D01*
X199116250Y-73993938D01*
X199288126Y-74136632D01*
X199358595Y-74177811D01*
X199361445Y-74179476D01*
X199410169Y-74231114D01*
X199423240Y-74300897D01*
X199396509Y-74366669D01*
X199356055Y-74400027D01*
X199343607Y-74406507D01*
X199339474Y-74409610D01*
X199339471Y-74409612D01*
X199169100Y-74537530D01*
X199164965Y-74540635D01*
X199010629Y-74702138D01*
X198884743Y-74886680D01*
X198790688Y-75089305D01*
X198730989Y-75304570D01*
X198707251Y-75526695D01*
X198707548Y-75531848D01*
X198707548Y-75531851D01*
X198713011Y-75626590D01*
X198720110Y-75749715D01*
X198721247Y-75754761D01*
X198721248Y-75754767D01*
X198741119Y-75842939D01*
X198769222Y-75967639D01*
X198853266Y-76174616D01*
X198969987Y-76365088D01*
X199116250Y-76533938D01*
X199288126Y-76676632D01*
X199358595Y-76717811D01*
X199361445Y-76719476D01*
X199410169Y-76771114D01*
X199423240Y-76840897D01*
X199396509Y-76906669D01*
X199356055Y-76940027D01*
X199343607Y-76946507D01*
X199339474Y-76949610D01*
X199339471Y-76949612D01*
X199315247Y-76967800D01*
X199164965Y-77080635D01*
X199010629Y-77242138D01*
X199007715Y-77246410D01*
X199007714Y-77246411D01*
X198995404Y-77264457D01*
X198884743Y-77426680D01*
X198869003Y-77460590D01*
X198805848Y-77596646D01*
X198790688Y-77629305D01*
X198730989Y-77844570D01*
X198707251Y-78066695D01*
X91222313Y-78066695D01*
X91275708Y-77890952D01*
X91283182Y-77834183D01*
X91304721Y-77670578D01*
X91304722Y-77670572D01*
X91305158Y-77667256D01*
X91305535Y-77651818D01*
X91306720Y-77603364D01*
X91306720Y-77603360D01*
X91306802Y-77600000D01*
X91288315Y-77375132D01*
X91233349Y-77156304D01*
X91143380Y-76949391D01*
X91095282Y-76875043D01*
X91023634Y-76764291D01*
X91023632Y-76764288D01*
X91020826Y-76759951D01*
X90868977Y-76593071D01*
X90864926Y-76589872D01*
X90864922Y-76589868D01*
X90695966Y-76456434D01*
X90695962Y-76456432D01*
X90691911Y-76453232D01*
X90494383Y-76344191D01*
X90281698Y-76268876D01*
X90217487Y-76257438D01*
X90064657Y-76230214D01*
X90064653Y-76230214D01*
X90059569Y-76229308D01*
X89987574Y-76228429D01*
X89839129Y-76226615D01*
X89839127Y-76226615D01*
X89833959Y-76226552D01*
X89610929Y-76260680D01*
X89396468Y-76330777D01*
X89196335Y-76434960D01*
X89192202Y-76438063D01*
X89192199Y-76438065D01*
X89064508Y-76533938D01*
X89015905Y-76570430D01*
X88860024Y-76733550D01*
X88857112Y-76737819D01*
X88857106Y-76737827D01*
X88763503Y-76875043D01*
X88708592Y-76920046D01*
X88638067Y-76928217D01*
X88574320Y-76896963D01*
X88553623Y-76872479D01*
X88543376Y-76856638D01*
X88499837Y-76789338D01*
X88483634Y-76764291D01*
X88483632Y-76764288D01*
X88480826Y-76759951D01*
X88328977Y-76593071D01*
X88324926Y-76589872D01*
X88324922Y-76589868D01*
X88155966Y-76456434D01*
X88155962Y-76456432D01*
X88151911Y-76453232D01*
X87954383Y-76344191D01*
X87741698Y-76268876D01*
X87677487Y-76257438D01*
X87524657Y-76230214D01*
X87524653Y-76230214D01*
X87519569Y-76229308D01*
X87447574Y-76228429D01*
X87299129Y-76226615D01*
X87299127Y-76226615D01*
X87293959Y-76226552D01*
X87070929Y-76260680D01*
X86856468Y-76330777D01*
X86656335Y-76434960D01*
X86652202Y-76438063D01*
X86652199Y-76438065D01*
X86524508Y-76533938D01*
X86475905Y-76570430D01*
X86320024Y-76733550D01*
X86317112Y-76737819D01*
X86317106Y-76737827D01*
X86223503Y-76875043D01*
X86168592Y-76920046D01*
X86098067Y-76928217D01*
X86034320Y-76896963D01*
X86013623Y-76872479D01*
X86003376Y-76856638D01*
X85959837Y-76789338D01*
X85943634Y-76764291D01*
X85943632Y-76764288D01*
X85940826Y-76759951D01*
X85788977Y-76593071D01*
X85784926Y-76589872D01*
X85784922Y-76589868D01*
X85615966Y-76456434D01*
X85615962Y-76456432D01*
X85611911Y-76453232D01*
X85414383Y-76344191D01*
X85201698Y-76268876D01*
X85137487Y-76257438D01*
X84984657Y-76230214D01*
X84984653Y-76230214D01*
X84979569Y-76229308D01*
X84907574Y-76228429D01*
X84759129Y-76226615D01*
X84759127Y-76226615D01*
X84753959Y-76226552D01*
X84530929Y-76260680D01*
X84316468Y-76330777D01*
X84116335Y-76434960D01*
X84112202Y-76438063D01*
X84112199Y-76438065D01*
X83984508Y-76533938D01*
X83935905Y-76570430D01*
X83780024Y-76733550D01*
X83777112Y-76737819D01*
X83777106Y-76737827D01*
X83683503Y-76875043D01*
X83628592Y-76920046D01*
X83558067Y-76928217D01*
X83494320Y-76896963D01*
X83473623Y-76872479D01*
X83463376Y-76856638D01*
X83419837Y-76789338D01*
X83403634Y-76764291D01*
X83403632Y-76764288D01*
X83400826Y-76759951D01*
X83248977Y-76593071D01*
X83244926Y-76589872D01*
X83244922Y-76589868D01*
X83075966Y-76456434D01*
X83075962Y-76456432D01*
X83071911Y-76453232D01*
X82874383Y-76344191D01*
X82661698Y-76268876D01*
X82597487Y-76257438D01*
X82444657Y-76230214D01*
X82444653Y-76230214D01*
X82439569Y-76229308D01*
X82367574Y-76228429D01*
X82219129Y-76226615D01*
X82219127Y-76226615D01*
X82213959Y-76226552D01*
X81990929Y-76260680D01*
X81776468Y-76330777D01*
X81576335Y-76434960D01*
X81572202Y-76438063D01*
X81572199Y-76438065D01*
X81444508Y-76533938D01*
X81395905Y-76570430D01*
X81240024Y-76733550D01*
X81237112Y-76737819D01*
X81237106Y-76737827D01*
X81143503Y-76875043D01*
X81088592Y-76920046D01*
X81018067Y-76928217D01*
X80954320Y-76896963D01*
X80933623Y-76872479D01*
X80923376Y-76856638D01*
X80879837Y-76789338D01*
X80863634Y-76764291D01*
X80863632Y-76764288D01*
X80860826Y-76759951D01*
X80708977Y-76593071D01*
X80704926Y-76589872D01*
X80704922Y-76589868D01*
X80535966Y-76456434D01*
X80535962Y-76456432D01*
X80531911Y-76453232D01*
X80334383Y-76344191D01*
X80121698Y-76268876D01*
X80057487Y-76257438D01*
X79904657Y-76230214D01*
X79904653Y-76230214D01*
X79899569Y-76229308D01*
X79827574Y-76228429D01*
X79679129Y-76226615D01*
X79679127Y-76226615D01*
X79673959Y-76226552D01*
X79450929Y-76260680D01*
X79236468Y-76330777D01*
X79036335Y-76434960D01*
X79032202Y-76438063D01*
X79032199Y-76438065D01*
X78904508Y-76533938D01*
X78855905Y-76570430D01*
X78700024Y-76733550D01*
X78572878Y-76919940D01*
X78570704Y-76924624D01*
X78570702Y-76924627D01*
X78486108Y-77106870D01*
X78477881Y-77124593D01*
X78417585Y-77342013D01*
X78393609Y-77566362D01*
X65770000Y-77566362D01*
X65770000Y-72147821D01*
X67261500Y-72147821D01*
X67301060Y-72460975D01*
X67379557Y-72766702D01*
X67381010Y-72770371D01*
X67381010Y-72770372D01*
X67466659Y-72986695D01*
X67495753Y-73060179D01*
X67497659Y-73063647D01*
X67497660Y-73063648D01*
X67629487Y-73303438D01*
X67647816Y-73336779D01*
X67833346Y-73592140D01*
X68049418Y-73822233D01*
X68292625Y-74023432D01*
X68559131Y-74192562D01*
X68562710Y-74194246D01*
X68562717Y-74194250D01*
X68841144Y-74325267D01*
X68841148Y-74325269D01*
X68844734Y-74326956D01*
X69144928Y-74424495D01*
X69454980Y-74483641D01*
X69691162Y-74498500D01*
X69848838Y-74498500D01*
X70085020Y-74483641D01*
X70395072Y-74424495D01*
X70695266Y-74326956D01*
X70698852Y-74325269D01*
X70698856Y-74325267D01*
X70977283Y-74194250D01*
X70977290Y-74194246D01*
X70980869Y-74192562D01*
X71247375Y-74023432D01*
X71490582Y-73822233D01*
X71706654Y-73592140D01*
X71892184Y-73336779D01*
X71910514Y-73303438D01*
X72042340Y-73063648D01*
X72042341Y-73063647D01*
X72044247Y-73060179D01*
X72073342Y-72986695D01*
X72158990Y-72770372D01*
X72158990Y-72770371D01*
X72160443Y-72766702D01*
X72234404Y-72478640D01*
X97206463Y-72478640D01*
X97224163Y-72659160D01*
X97281418Y-72831273D01*
X97285065Y-72837295D01*
X97285066Y-72837297D01*
X97295978Y-72855314D01*
X97375380Y-72986424D01*
X97501382Y-73116902D01*
X97507278Y-73120760D01*
X97635318Y-73204547D01*
X97653159Y-73216222D01*
X97659763Y-73218678D01*
X97659765Y-73218679D01*
X97816558Y-73276990D01*
X97816560Y-73276990D01*
X97823168Y-73279448D01*
X97906995Y-73290633D01*
X97995980Y-73302507D01*
X97995984Y-73302507D01*
X98002961Y-73303438D01*
X98009972Y-73302800D01*
X98009976Y-73302800D01*
X98152459Y-73289832D01*
X98183600Y-73286998D01*
X98190302Y-73284820D01*
X98190304Y-73284820D01*
X98349409Y-73233124D01*
X98349412Y-73233123D01*
X98356108Y-73230947D01*
X98511912Y-73138069D01*
X98643266Y-73012982D01*
X98743643Y-72861902D01*
X98808055Y-72692338D01*
X98811779Y-72665844D01*
X98817639Y-72624145D01*
X98846927Y-72559471D01*
X98853318Y-72552586D01*
X101662253Y-69743652D01*
X101670539Y-69736112D01*
X101677018Y-69732000D01*
X101723644Y-69682348D01*
X101726398Y-69679507D01*
X101746135Y-69659770D01*
X101748615Y-69656573D01*
X101756320Y-69647551D01*
X101756559Y-69647297D01*
X101786586Y-69615321D01*
X101790405Y-69608375D01*
X101790407Y-69608372D01*
X101796348Y-69597566D01*
X101807199Y-69581047D01*
X101814758Y-69571301D01*
X101819614Y-69565041D01*
X101822759Y-69557772D01*
X101822762Y-69557768D01*
X101837174Y-69524463D01*
X101842391Y-69513813D01*
X101863695Y-69475060D01*
X101867010Y-69462151D01*
X101868733Y-69455438D01*
X101875137Y-69436734D01*
X101880033Y-69425420D01*
X101880033Y-69425419D01*
X101883181Y-69418145D01*
X101884420Y-69410322D01*
X101884423Y-69410312D01*
X101890099Y-69374476D01*
X101892505Y-69362856D01*
X101901528Y-69327711D01*
X101901528Y-69327710D01*
X101903500Y-69320030D01*
X101903500Y-69299776D01*
X101905051Y-69280065D01*
X101906980Y-69267886D01*
X101908220Y-69260057D01*
X101904059Y-69216038D01*
X101903500Y-69204181D01*
X101903500Y-67760620D01*
X101924552Y-67690893D01*
X101989742Y-67592773D01*
X101993643Y-67586902D01*
X102058055Y-67417338D01*
X102059035Y-67410366D01*
X102082748Y-67241639D01*
X102082748Y-67241636D01*
X102083299Y-67237717D01*
X102083616Y-67215000D01*
X102063397Y-67034745D01*
X102061080Y-67028091D01*
X102006064Y-66870106D01*
X102006062Y-66870103D01*
X102003745Y-66863448D01*
X101992605Y-66845620D01*
X101911359Y-66715598D01*
X101907626Y-66709624D01*
X101897212Y-66699137D01*
X101784778Y-66585915D01*
X101784774Y-66585912D01*
X101779815Y-66580918D01*
X101768697Y-66573862D01*
X101716323Y-66540625D01*
X101626666Y-66483727D01*
X101585757Y-66469160D01*
X101462425Y-66425243D01*
X101462420Y-66425242D01*
X101455790Y-66422881D01*
X101448802Y-66422048D01*
X101448799Y-66422047D01*
X101303589Y-66404732D01*
X101275680Y-66401404D01*
X101268677Y-66402140D01*
X101268676Y-66402140D01*
X101102288Y-66419628D01*
X101102286Y-66419629D01*
X101095288Y-66420364D01*
X100923579Y-66478818D01*
X100917575Y-66482512D01*
X100775095Y-66570166D01*
X100775092Y-66570168D01*
X100769088Y-66573862D01*
X100764053Y-66578793D01*
X100764050Y-66578795D01*
X100656355Y-66684258D01*
X100639493Y-66700771D01*
X100541235Y-66853238D01*
X100538826Y-66859858D01*
X100538824Y-66859861D01*
X100500754Y-66964457D01*
X100479197Y-67023685D01*
X100456463Y-67203640D01*
X100474163Y-67384160D01*
X100531418Y-67556273D01*
X100535065Y-67562295D01*
X100535066Y-67562297D01*
X100618276Y-67699694D01*
X100636500Y-67764965D01*
X100636500Y-68925406D01*
X100616498Y-68993527D01*
X100599595Y-69014501D01*
X97958908Y-71655187D01*
X97896596Y-71689213D01*
X97882986Y-71691402D01*
X97879720Y-71691745D01*
X97852288Y-71694628D01*
X97852286Y-71694628D01*
X97845288Y-71695364D01*
X97673579Y-71753818D01*
X97658074Y-71763357D01*
X97525095Y-71845166D01*
X97525092Y-71845168D01*
X97519088Y-71848862D01*
X97514053Y-71853793D01*
X97514050Y-71853795D01*
X97448714Y-71917777D01*
X97389493Y-71975771D01*
X97291235Y-72128238D01*
X97288826Y-72134858D01*
X97288824Y-72134861D01*
X97235652Y-72280951D01*
X97229197Y-72298685D01*
X97206463Y-72478640D01*
X72234404Y-72478640D01*
X72238940Y-72460975D01*
X72278500Y-72147821D01*
X72278500Y-71832179D01*
X72238940Y-71519025D01*
X72160443Y-71213298D01*
X72115197Y-71099020D01*
X72045702Y-70923495D01*
X72045700Y-70923490D01*
X72044247Y-70919821D01*
X71988746Y-70818866D01*
X71894093Y-70646693D01*
X71894091Y-70646690D01*
X71892184Y-70643221D01*
X71706654Y-70387860D01*
X71490582Y-70157767D01*
X71469106Y-70140000D01*
X71250427Y-69959093D01*
X71247375Y-69956568D01*
X70980869Y-69787438D01*
X70977290Y-69785754D01*
X70977283Y-69785750D01*
X70698856Y-69654733D01*
X70698852Y-69654731D01*
X70695266Y-69653044D01*
X70678361Y-69647551D01*
X70424421Y-69565041D01*
X70395072Y-69555505D01*
X70085020Y-69496359D01*
X69848838Y-69481500D01*
X69691162Y-69481500D01*
X69454980Y-69496359D01*
X69144928Y-69555505D01*
X69115579Y-69565041D01*
X68861640Y-69647551D01*
X68844734Y-69653044D01*
X68841148Y-69654731D01*
X68841144Y-69654733D01*
X68562717Y-69785750D01*
X68562710Y-69785754D01*
X68559131Y-69787438D01*
X68292625Y-69956568D01*
X68289573Y-69959093D01*
X68070895Y-70140000D01*
X68049418Y-70157767D01*
X67833346Y-70387860D01*
X67647816Y-70643221D01*
X67645909Y-70646690D01*
X67645907Y-70646693D01*
X67551254Y-70818866D01*
X67495753Y-70919821D01*
X67494300Y-70923490D01*
X67494298Y-70923495D01*
X67424803Y-71099020D01*
X67379557Y-71213298D01*
X67301060Y-71519025D01*
X67261500Y-71832179D01*
X67261500Y-72147821D01*
X65770000Y-72147821D01*
X65770000Y-69288640D01*
X88386463Y-69288640D01*
X88404163Y-69469160D01*
X88461418Y-69641273D01*
X88465065Y-69647295D01*
X88465066Y-69647297D01*
X88548916Y-69785750D01*
X88555380Y-69796424D01*
X88681382Y-69926902D01*
X88730575Y-69959093D01*
X88814936Y-70014297D01*
X88833159Y-70026222D01*
X88839763Y-70028678D01*
X88839765Y-70028679D01*
X88996558Y-70086990D01*
X88996560Y-70086990D01*
X89003168Y-70089448D01*
X89086995Y-70100633D01*
X89175980Y-70112507D01*
X89175984Y-70112507D01*
X89182961Y-70113438D01*
X89189972Y-70112800D01*
X89189976Y-70112800D01*
X89342097Y-70098955D01*
X89363600Y-70096998D01*
X89370302Y-70094820D01*
X89370304Y-70094820D01*
X89529409Y-70043124D01*
X89529412Y-70043123D01*
X89536108Y-70040947D01*
X89677655Y-69956568D01*
X89685860Y-69951677D01*
X89685862Y-69951676D01*
X89691912Y-69948069D01*
X89823266Y-69822982D01*
X89923643Y-69671902D01*
X89968141Y-69554761D01*
X89985555Y-69508920D01*
X89985556Y-69508918D01*
X89988055Y-69502338D01*
X89991779Y-69475844D01*
X89997639Y-69434145D01*
X90026927Y-69369471D01*
X90033318Y-69362586D01*
X90192247Y-69203657D01*
X90200537Y-69196113D01*
X90207018Y-69192000D01*
X90253659Y-69142332D01*
X90256413Y-69139491D01*
X90276134Y-69119770D01*
X90278612Y-69116575D01*
X90286318Y-69107553D01*
X90311158Y-69081101D01*
X90316586Y-69075321D01*
X90322732Y-69064142D01*
X90326346Y-69057568D01*
X90337199Y-69041045D01*
X90339863Y-69037610D01*
X90349613Y-69025041D01*
X90367176Y-68984457D01*
X90372383Y-68973827D01*
X90393695Y-68935060D01*
X90395666Y-68927383D01*
X90395668Y-68927378D01*
X90398732Y-68915442D01*
X90405138Y-68896730D01*
X90410033Y-68885419D01*
X90413181Y-68878145D01*
X90414421Y-68870317D01*
X90414423Y-68870310D01*
X90420099Y-68834476D01*
X90422505Y-68822856D01*
X90431528Y-68787711D01*
X90431528Y-68787710D01*
X90433500Y-68780030D01*
X90433500Y-68759776D01*
X90435051Y-68740065D01*
X90436980Y-68727886D01*
X90438220Y-68720057D01*
X90434059Y-68676038D01*
X90433500Y-68664181D01*
X90433500Y-67766695D01*
X91707251Y-67766695D01*
X91707548Y-67771848D01*
X91707548Y-67771851D01*
X91719812Y-67984547D01*
X91720110Y-67989715D01*
X91721247Y-67994761D01*
X91721248Y-67994767D01*
X91733602Y-68049585D01*
X91769222Y-68207639D01*
X91853266Y-68414616D01*
X91900494Y-68491685D01*
X91967291Y-68600688D01*
X91969987Y-68605088D01*
X92116250Y-68773938D01*
X92120230Y-68777242D01*
X92124981Y-68781187D01*
X92164616Y-68840090D01*
X92166113Y-68911071D01*
X92128997Y-68971593D01*
X92088725Y-68996112D01*
X91995542Y-69031045D01*
X91973295Y-69039385D01*
X91856739Y-69126739D01*
X91769385Y-69243295D01*
X91718255Y-69379684D01*
X91717402Y-69387540D01*
X91712058Y-69436734D01*
X91711500Y-69441866D01*
X91711500Y-71238134D01*
X91718255Y-71300316D01*
X91769385Y-71436705D01*
X91856739Y-71553261D01*
X91973295Y-71640615D01*
X92109684Y-71691745D01*
X92171866Y-71698500D01*
X93968134Y-71698500D01*
X94030316Y-71691745D01*
X94166705Y-71640615D01*
X94264436Y-71567370D01*
X94330941Y-71542522D01*
X94400324Y-71557575D01*
X94415562Y-71567368D01*
X94513295Y-71640615D01*
X94649684Y-71691745D01*
X94711866Y-71698500D01*
X96508134Y-71698500D01*
X96570316Y-71691745D01*
X96706705Y-71640615D01*
X96823261Y-71553261D01*
X96910615Y-71436705D01*
X96961745Y-71300316D01*
X96968500Y-71238134D01*
X96968500Y-69441866D01*
X96967943Y-69436734D01*
X96962598Y-69387540D01*
X96961745Y-69379684D01*
X96910615Y-69243295D01*
X96823261Y-69126739D01*
X96706705Y-69039385D01*
X96684458Y-69031045D01*
X96588203Y-68994960D01*
X96531439Y-68952318D01*
X96506739Y-68885756D01*
X96521947Y-68816408D01*
X96543493Y-68787727D01*
X96591322Y-68740065D01*
X96648096Y-68683489D01*
X96653450Y-68676039D01*
X96775435Y-68506277D01*
X96778453Y-68502077D01*
X96799320Y-68459857D01*
X96875136Y-68306453D01*
X96875137Y-68306451D01*
X96877430Y-68301811D01*
X96942370Y-68088069D01*
X96971529Y-67866590D01*
X96973156Y-67800000D01*
X96954852Y-67577361D01*
X96900431Y-67360702D01*
X96811354Y-67155840D01*
X96730381Y-67030675D01*
X96692822Y-66972617D01*
X96692820Y-66972614D01*
X96690014Y-66968277D01*
X96539670Y-66803051D01*
X96535619Y-66799852D01*
X96535615Y-66799848D01*
X96368414Y-66667800D01*
X96368410Y-66667798D01*
X96364359Y-66664598D01*
X96322569Y-66641529D01*
X96272598Y-66591097D01*
X96257826Y-66521654D01*
X96282942Y-66455248D01*
X96310294Y-66428641D01*
X96485328Y-66303792D01*
X96493200Y-66297139D01*
X96644052Y-66146812D01*
X96650730Y-66138965D01*
X96775003Y-65966020D01*
X96780313Y-65957183D01*
X96874670Y-65766267D01*
X96878469Y-65756672D01*
X96940377Y-65552910D01*
X96942555Y-65542837D01*
X96943986Y-65531962D01*
X96941775Y-65517778D01*
X96928617Y-65514000D01*
X91753225Y-65514000D01*
X91739694Y-65517973D01*
X91738257Y-65527966D01*
X91768565Y-65662446D01*
X91771645Y-65672275D01*
X91851770Y-65869603D01*
X91856413Y-65878794D01*
X91967694Y-66060388D01*
X91973777Y-66068699D01*
X92113213Y-66229667D01*
X92120580Y-66236883D01*
X92284434Y-66372916D01*
X92292881Y-66378831D01*
X92361969Y-66419203D01*
X92410693Y-66470842D01*
X92423764Y-66540625D01*
X92397033Y-66606396D01*
X92356584Y-66639752D01*
X92343607Y-66646507D01*
X92339474Y-66649610D01*
X92339471Y-66649612D01*
X92169100Y-66777530D01*
X92164965Y-66780635D01*
X92010629Y-66942138D01*
X91884743Y-67126680D01*
X91790688Y-67329305D01*
X91730989Y-67544570D01*
X91707251Y-67766695D01*
X90433500Y-67766695D01*
X90433500Y-66845620D01*
X90454552Y-66775893D01*
X90456069Y-66773610D01*
X90523643Y-66671902D01*
X90573511Y-66540625D01*
X90585555Y-66508920D01*
X90585556Y-66508918D01*
X90588055Y-66502338D01*
X90589035Y-66495366D01*
X90612748Y-66326639D01*
X90612748Y-66326636D01*
X90613299Y-66322717D01*
X90613616Y-66300000D01*
X90593397Y-66119745D01*
X90590198Y-66110558D01*
X90536064Y-65955106D01*
X90536062Y-65955103D01*
X90533745Y-65948448D01*
X90459982Y-65830401D01*
X90441359Y-65800598D01*
X90437626Y-65794624D01*
X90423941Y-65780843D01*
X90314778Y-65670915D01*
X90314774Y-65670912D01*
X90309815Y-65665918D01*
X90298697Y-65658862D01*
X90223848Y-65611362D01*
X90156666Y-65568727D01*
X90112247Y-65552910D01*
X89992425Y-65510243D01*
X89992420Y-65510242D01*
X89985790Y-65507881D01*
X89978802Y-65507048D01*
X89978799Y-65507047D01*
X89855444Y-65492338D01*
X89805680Y-65486404D01*
X89798677Y-65487140D01*
X89798676Y-65487140D01*
X89632288Y-65504628D01*
X89632286Y-65504629D01*
X89625288Y-65505364D01*
X89453579Y-65563818D01*
X89445600Y-65568727D01*
X89305095Y-65655166D01*
X89305092Y-65655168D01*
X89299088Y-65658862D01*
X89294053Y-65663793D01*
X89294050Y-65663795D01*
X89174525Y-65780843D01*
X89169493Y-65785771D01*
X89071235Y-65938238D01*
X89068826Y-65944858D01*
X89068824Y-65944861D01*
X89011606Y-66102066D01*
X89009197Y-66108685D01*
X88986463Y-66288640D01*
X89004163Y-66469160D01*
X89061418Y-66641273D01*
X89065065Y-66647295D01*
X89065066Y-66647297D01*
X89148276Y-66784694D01*
X89166500Y-66849965D01*
X89166500Y-68377071D01*
X89146498Y-68445192D01*
X89092842Y-68491685D01*
X89053671Y-68502381D01*
X89043368Y-68503464D01*
X89032289Y-68504628D01*
X89032288Y-68504628D01*
X89025288Y-68505364D01*
X88853579Y-68563818D01*
X88847575Y-68567512D01*
X88705095Y-68655166D01*
X88705092Y-68655168D01*
X88699088Y-68658862D01*
X88694053Y-68663793D01*
X88694050Y-68663795D01*
X88574525Y-68780843D01*
X88569493Y-68785771D01*
X88471235Y-68938238D01*
X88468826Y-68944858D01*
X88468824Y-68944861D01*
X88419237Y-69081101D01*
X88409197Y-69108685D01*
X88386463Y-69288640D01*
X65770000Y-69288640D01*
X65770000Y-64994183D01*
X91734389Y-64994183D01*
X91735912Y-65002607D01*
X91748292Y-65006000D01*
X92797885Y-65006000D01*
X92813124Y-65001525D01*
X92814329Y-65000135D01*
X92816000Y-64992452D01*
X92816000Y-64987885D01*
X93324000Y-64987885D01*
X93328475Y-65003124D01*
X93329865Y-65004329D01*
X93337548Y-65006000D01*
X95337885Y-65006000D01*
X95353124Y-65001525D01*
X95354329Y-65000135D01*
X95356000Y-64992452D01*
X95356000Y-64987885D01*
X95864000Y-64987885D01*
X95868475Y-65003124D01*
X95869865Y-65004329D01*
X95877548Y-65006000D01*
X96928344Y-65006000D01*
X96941875Y-65002027D01*
X96943180Y-64992947D01*
X96901214Y-64825875D01*
X96897894Y-64816124D01*
X96812972Y-64620814D01*
X96808105Y-64611739D01*
X96692426Y-64432926D01*
X96686136Y-64424757D01*
X96542806Y-64267240D01*
X96535273Y-64260215D01*
X96368139Y-64128222D01*
X96359552Y-64122517D01*
X96173117Y-64019599D01*
X96163705Y-64015369D01*
X95962959Y-63944280D01*
X95952988Y-63941646D01*
X95881837Y-63928972D01*
X95868540Y-63930432D01*
X95864000Y-63944989D01*
X95864000Y-64987885D01*
X95356000Y-64987885D01*
X95356000Y-63943102D01*
X95352082Y-63929758D01*
X95337806Y-63927771D01*
X95299324Y-63933660D01*
X95289288Y-63936051D01*
X95086868Y-64002212D01*
X95077359Y-64006209D01*
X94888463Y-64104542D01*
X94879738Y-64110036D01*
X94709433Y-64237905D01*
X94701726Y-64244748D01*
X94554590Y-64398717D01*
X94548104Y-64406727D01*
X94443193Y-64560521D01*
X94388282Y-64605524D01*
X94317757Y-64613695D01*
X94254010Y-64582441D01*
X94233313Y-64557957D01*
X94152427Y-64432926D01*
X94146136Y-64424757D01*
X94002806Y-64267240D01*
X93995273Y-64260215D01*
X93828139Y-64128222D01*
X93819552Y-64122517D01*
X93633117Y-64019599D01*
X93623705Y-64015369D01*
X93422959Y-63944280D01*
X93412988Y-63941646D01*
X93341837Y-63928972D01*
X93328540Y-63930432D01*
X93324000Y-63944989D01*
X93324000Y-64987885D01*
X92816000Y-64987885D01*
X92816000Y-63943102D01*
X92812082Y-63929758D01*
X92797806Y-63927771D01*
X92759324Y-63933660D01*
X92749288Y-63936051D01*
X92546868Y-64002212D01*
X92537359Y-64006209D01*
X92348463Y-64104542D01*
X92339738Y-64110036D01*
X92169433Y-64237905D01*
X92161726Y-64244748D01*
X92014590Y-64398717D01*
X92008104Y-64406727D01*
X91888098Y-64582649D01*
X91883000Y-64591623D01*
X91793338Y-64784783D01*
X91789775Y-64794470D01*
X91734389Y-64994183D01*
X65770000Y-64994183D01*
X65770000Y-62688640D01*
X101286463Y-62688640D01*
X101304163Y-62869160D01*
X101361418Y-63041273D01*
X101365065Y-63047295D01*
X101365066Y-63047297D01*
X101446330Y-63181480D01*
X101455380Y-63196424D01*
X101460269Y-63201487D01*
X101460270Y-63201488D01*
X101479388Y-63221285D01*
X101581382Y-63326902D01*
X101631955Y-63359996D01*
X101718275Y-63416482D01*
X101733159Y-63426222D01*
X101739763Y-63428678D01*
X101739765Y-63428679D01*
X101896558Y-63486990D01*
X101896560Y-63486990D01*
X101903168Y-63489448D01*
X101986995Y-63500633D01*
X102075980Y-63512507D01*
X102075984Y-63512507D01*
X102082961Y-63513438D01*
X102089972Y-63512800D01*
X102089976Y-63512800D01*
X102232459Y-63499832D01*
X102263600Y-63496998D01*
X102270302Y-63494820D01*
X102270304Y-63494820D01*
X102429409Y-63443124D01*
X102429412Y-63443123D01*
X102436108Y-63440947D01*
X102570779Y-63360667D01*
X102585860Y-63351677D01*
X102585862Y-63351676D01*
X102591912Y-63348069D01*
X102723266Y-63222982D01*
X102823643Y-63071902D01*
X102873906Y-62939585D01*
X102885555Y-62908920D01*
X102885556Y-62908918D01*
X102888055Y-62902338D01*
X102891779Y-62875844D01*
X102897639Y-62834145D01*
X102926927Y-62769471D01*
X102933318Y-62762586D01*
X103625499Y-62070405D01*
X103687811Y-62036379D01*
X103714594Y-62033500D01*
X106032884Y-62033500D01*
X106101005Y-62053502D01*
X106147498Y-62107158D01*
X106158283Y-62147204D01*
X106162065Y-62185771D01*
X106174163Y-62309160D01*
X106231418Y-62481273D01*
X106235065Y-62487295D01*
X106235066Y-62487297D01*
X106325380Y-62636424D01*
X106324400Y-62637017D01*
X106340882Y-62669505D01*
X106344978Y-62683604D01*
X106348987Y-62702964D01*
X106351526Y-62723061D01*
X106354445Y-62730432D01*
X106354445Y-62730434D01*
X106367804Y-62764176D01*
X106371649Y-62775406D01*
X106380614Y-62806265D01*
X106383982Y-62817857D01*
X106388015Y-62824676D01*
X106388017Y-62824681D01*
X106394293Y-62835292D01*
X106402988Y-62853040D01*
X106410448Y-62871881D01*
X106415110Y-62878297D01*
X106415110Y-62878298D01*
X106436436Y-62907651D01*
X106442952Y-62917571D01*
X106461291Y-62948580D01*
X106465458Y-62955626D01*
X106479782Y-62969950D01*
X106492617Y-62984977D01*
X106504528Y-63001371D01*
X106511339Y-63007006D01*
X106538597Y-63029556D01*
X106547375Y-63037544D01*
X106667089Y-63157257D01*
X106674625Y-63165539D01*
X106678737Y-63172019D01*
X106684516Y-63177446D01*
X106684517Y-63177447D01*
X106728389Y-63218645D01*
X106731231Y-63221400D01*
X106750967Y-63241136D01*
X106754164Y-63243616D01*
X106763184Y-63251319D01*
X106795416Y-63281587D01*
X106802362Y-63285406D01*
X106802365Y-63285408D01*
X106813171Y-63291349D01*
X106829690Y-63302200D01*
X106845696Y-63314615D01*
X106852965Y-63317760D01*
X106852969Y-63317763D01*
X106886274Y-63332175D01*
X106896924Y-63337392D01*
X106935677Y-63358696D01*
X106943352Y-63360667D01*
X106943353Y-63360667D01*
X106955299Y-63363734D01*
X106974004Y-63370138D01*
X106992592Y-63378182D01*
X107000415Y-63379421D01*
X107000425Y-63379424D01*
X107036261Y-63385100D01*
X107047881Y-63387506D01*
X107083026Y-63396529D01*
X107090707Y-63398501D01*
X107110961Y-63398501D01*
X107130671Y-63400052D01*
X107150680Y-63403221D01*
X107158572Y-63402475D01*
X107194698Y-63399060D01*
X107206556Y-63398501D01*
X107601405Y-63398501D01*
X107669526Y-63418503D01*
X107716019Y-63472159D01*
X107726123Y-63542433D01*
X107696629Y-63607013D01*
X107690516Y-63613580D01*
X106794232Y-64509863D01*
X106745746Y-64540043D01*
X106681630Y-64561869D01*
X106639854Y-64587570D01*
X106533146Y-64653217D01*
X106533143Y-64653219D01*
X106527139Y-64656913D01*
X106522104Y-64661844D01*
X106522101Y-64661846D01*
X106402576Y-64778894D01*
X106397544Y-64783822D01*
X106299286Y-64936289D01*
X106296877Y-64942909D01*
X106296875Y-64942912D01*
X106248091Y-65076944D01*
X106237248Y-65106736D01*
X106214514Y-65286691D01*
X106232214Y-65467211D01*
X106289469Y-65639324D01*
X106293116Y-65645346D01*
X106293117Y-65645348D01*
X106378160Y-65785771D01*
X106383431Y-65794475D01*
X106388320Y-65799538D01*
X106388321Y-65799539D01*
X106423941Y-65836424D01*
X106509433Y-65924953D01*
X106580146Y-65971226D01*
X106648907Y-66016222D01*
X106661210Y-66024273D01*
X106667814Y-66026729D01*
X106667816Y-66026730D01*
X106824609Y-66085041D01*
X106824611Y-66085041D01*
X106831219Y-66087499D01*
X106915046Y-66098684D01*
X107004031Y-66110558D01*
X107004035Y-66110558D01*
X107011012Y-66111489D01*
X107018023Y-66110851D01*
X107018027Y-66110851D01*
X107160510Y-66097883D01*
X107191651Y-66095049D01*
X107198353Y-66092871D01*
X107198355Y-66092871D01*
X107357460Y-66041175D01*
X107357463Y-66041174D01*
X107364159Y-66038998D01*
X107364506Y-66040067D01*
X107428123Y-66031086D01*
X107478863Y-66050324D01*
X107497260Y-66062362D01*
X107503159Y-66066222D01*
X107509763Y-66068678D01*
X107509765Y-66068679D01*
X107666558Y-66126990D01*
X107666560Y-66126990D01*
X107673168Y-66129448D01*
X107729602Y-66136978D01*
X107780471Y-66143766D01*
X107845348Y-66172602D01*
X107884336Y-66231936D01*
X107888812Y-66284452D01*
X107888471Y-66287149D01*
X107886500Y-66294827D01*
X107886500Y-66315081D01*
X107884949Y-66334791D01*
X107881780Y-66354800D01*
X107882526Y-66362692D01*
X107885941Y-66398818D01*
X107886500Y-66410676D01*
X107886500Y-70993335D01*
X107866411Y-71061590D01*
X107795054Y-71172314D01*
X107795050Y-71172323D01*
X107791235Y-71178242D01*
X107788826Y-71184862D01*
X107788825Y-71184863D01*
X107753947Y-71280689D01*
X107729197Y-71348689D01*
X107706463Y-71528644D01*
X107724163Y-71709164D01*
X107781418Y-71881277D01*
X107785065Y-71887299D01*
X107785066Y-71887301D01*
X107799967Y-71911906D01*
X107875380Y-72036428D01*
X108001382Y-72166906D01*
X108153159Y-72266226D01*
X108159763Y-72268682D01*
X108159765Y-72268683D01*
X108316558Y-72326994D01*
X108316560Y-72326994D01*
X108323168Y-72329452D01*
X108406995Y-72340637D01*
X108495980Y-72352511D01*
X108495984Y-72352511D01*
X108502961Y-72353442D01*
X108509972Y-72352804D01*
X108509976Y-72352804D01*
X108652459Y-72339836D01*
X108683600Y-72337002D01*
X108690302Y-72334824D01*
X108690304Y-72334824D01*
X108849409Y-72283128D01*
X108849412Y-72283127D01*
X108856108Y-72280951D01*
X108952513Y-72223482D01*
X109005860Y-72191681D01*
X109005862Y-72191680D01*
X109011912Y-72188073D01*
X109143266Y-72062986D01*
X109243643Y-71911906D01*
X109301007Y-71760897D01*
X109305555Y-71748924D01*
X109305556Y-71748922D01*
X109308055Y-71742342D01*
X109309035Y-71735370D01*
X109332748Y-71566643D01*
X109332748Y-71566640D01*
X109333299Y-71562721D01*
X109333616Y-71540004D01*
X109313397Y-71359749D01*
X109309546Y-71348689D01*
X109263316Y-71215937D01*
X109259802Y-71145028D01*
X109295183Y-71083475D01*
X109358226Y-71050823D01*
X109382307Y-71048500D01*
X109465487Y-71048500D01*
X109471939Y-71047128D01*
X109471944Y-71047128D01*
X109558887Y-71028647D01*
X109652288Y-71008794D01*
X109702467Y-70986453D01*
X109820722Y-70933803D01*
X109820724Y-70933802D01*
X109826752Y-70931118D01*
X109981253Y-70818866D01*
X110109040Y-70676944D01*
X110204527Y-70511556D01*
X110263542Y-70329928D01*
X110267484Y-70292422D01*
X110283504Y-70140000D01*
X110279190Y-70098955D01*
X110278500Y-70085784D01*
X110278500Y-69044216D01*
X110279190Y-69031045D01*
X110282814Y-68996565D01*
X110283504Y-68990000D01*
X110279190Y-68948955D01*
X110278500Y-68935784D01*
X110278500Y-68168503D01*
X110298502Y-68100382D01*
X110315405Y-68079408D01*
X112009408Y-66385405D01*
X112071720Y-66351379D01*
X112098503Y-66348500D01*
X115815487Y-66348500D01*
X115821942Y-66347128D01*
X115821951Y-66347127D01*
X115875421Y-66335761D01*
X115878349Y-66335297D01*
X115883359Y-66334232D01*
X115889928Y-66333542D01*
X115896206Y-66331502D01*
X115901205Y-66330440D01*
X115904068Y-66329672D01*
X116002288Y-66308794D01*
X116030885Y-66296062D01*
X116170722Y-66233803D01*
X116170724Y-66233802D01*
X116176752Y-66231118D01*
X116331253Y-66118866D01*
X116340420Y-66108685D01*
X116454621Y-65981852D01*
X116454622Y-65981851D01*
X116459040Y-65976944D01*
X116517314Y-65876010D01*
X116551223Y-65817279D01*
X116551224Y-65817278D01*
X116554527Y-65811556D01*
X116613542Y-65629928D01*
X116615494Y-65611362D01*
X116623621Y-65534034D01*
X116631262Y-65461328D01*
X116658275Y-65395672D01*
X116716497Y-65355042D01*
X116756572Y-65348499D01*
X119530405Y-65348499D01*
X119598526Y-65368501D01*
X119619500Y-65385404D01*
X119634750Y-65400654D01*
X119668776Y-65462966D01*
X119671054Y-65477453D01*
X119674163Y-65509160D01*
X119731418Y-65681273D01*
X119735065Y-65687295D01*
X119735066Y-65687297D01*
X119814126Y-65817841D01*
X119825380Y-65836424D01*
X119830269Y-65841487D01*
X119830270Y-65841488D01*
X119905004Y-65918876D01*
X119951382Y-65966902D01*
X119957278Y-65970760D01*
X120094244Y-66060388D01*
X120103159Y-66066222D01*
X120109763Y-66068678D01*
X120109765Y-66068679D01*
X120266558Y-66126990D01*
X120266560Y-66126990D01*
X120273168Y-66129448D01*
X120356995Y-66140633D01*
X120445980Y-66152507D01*
X120445984Y-66152507D01*
X120452961Y-66153438D01*
X120459972Y-66152800D01*
X120459976Y-66152800D01*
X120611987Y-66138965D01*
X120633600Y-66136998D01*
X120640302Y-66134820D01*
X120640304Y-66134820D01*
X120799409Y-66083124D01*
X120799412Y-66083123D01*
X120806108Y-66080947D01*
X120812159Y-66077340D01*
X120818574Y-66074430D01*
X120819826Y-66077190D01*
X120875550Y-66062866D01*
X120915185Y-66070694D01*
X121073168Y-66129448D01*
X121156995Y-66140633D01*
X121245980Y-66152507D01*
X121245984Y-66152507D01*
X121252961Y-66153438D01*
X121259972Y-66152800D01*
X121259976Y-66152800D01*
X121411987Y-66138965D01*
X121433600Y-66136998D01*
X121440302Y-66134820D01*
X121440304Y-66134820D01*
X121599409Y-66083124D01*
X121599412Y-66083123D01*
X121606108Y-66080947D01*
X121612159Y-66077340D01*
X121696822Y-66026871D01*
X121765577Y-66009171D01*
X121805259Y-66017003D01*
X121966558Y-66076990D01*
X121966560Y-66076990D01*
X121973168Y-66079448D01*
X122056995Y-66090633D01*
X122145980Y-66102507D01*
X122145984Y-66102507D01*
X122152961Y-66103438D01*
X122159972Y-66102800D01*
X122159976Y-66102800D01*
X122302459Y-66089832D01*
X122333600Y-66086998D01*
X122340302Y-66084820D01*
X122340304Y-66084820D01*
X122499409Y-66033124D01*
X122499412Y-66033123D01*
X122506108Y-66030947D01*
X122613544Y-65966902D01*
X122655860Y-65941677D01*
X122655862Y-65941676D01*
X122661912Y-65938069D01*
X122793266Y-65812982D01*
X122893643Y-65661902D01*
X122949126Y-65515844D01*
X122955555Y-65498920D01*
X122955556Y-65498918D01*
X122958055Y-65492338D01*
X122959035Y-65485366D01*
X122982748Y-65316639D01*
X122982748Y-65316636D01*
X122983299Y-65312717D01*
X122983616Y-65290000D01*
X122963397Y-65109745D01*
X122953682Y-65081847D01*
X122906064Y-64945106D01*
X122906062Y-64945103D01*
X122903745Y-64938448D01*
X122807626Y-64784624D01*
X122679815Y-64655918D01*
X122673871Y-64652146D01*
X122673866Y-64652142D01*
X122671964Y-64650935D01*
X122669578Y-64648694D01*
X122668376Y-64647728D01*
X122668450Y-64647636D01*
X122646524Y-64627046D01*
X122645558Y-64627953D01*
X122640131Y-64622173D01*
X122635472Y-64615761D01*
X122601395Y-64587570D01*
X122592616Y-64579580D01*
X121435764Y-63422727D01*
X121428224Y-63414441D01*
X121424112Y-63407962D01*
X121400755Y-63386028D01*
X121374461Y-63361337D01*
X121371619Y-63358582D01*
X121351882Y-63338845D01*
X121348685Y-63336365D01*
X121339663Y-63328660D01*
X121319969Y-63310166D01*
X121307433Y-63298394D01*
X121300487Y-63294575D01*
X121300484Y-63294573D01*
X121289678Y-63288632D01*
X121273159Y-63277781D01*
X121271069Y-63276160D01*
X121257153Y-63265366D01*
X121249884Y-63262221D01*
X121249880Y-63262218D01*
X121216575Y-63247806D01*
X121205925Y-63242589D01*
X121167172Y-63221285D01*
X121147549Y-63216247D01*
X121128846Y-63209843D01*
X121117532Y-63204947D01*
X121117531Y-63204947D01*
X121110257Y-63201799D01*
X121102434Y-63200560D01*
X121102424Y-63200557D01*
X121066588Y-63194881D01*
X121054968Y-63192475D01*
X121019823Y-63183452D01*
X121019822Y-63183452D01*
X121012142Y-63181480D01*
X120991888Y-63181480D01*
X120972177Y-63179929D01*
X120959998Y-63178000D01*
X120952169Y-63176760D01*
X120944277Y-63177506D01*
X120908151Y-63180921D01*
X120896293Y-63181480D01*
X119050600Y-63181480D01*
X118982479Y-63161478D01*
X118935986Y-63107822D01*
X118925882Y-63037548D01*
X118958750Y-62969227D01*
X118960797Y-62967048D01*
X118986586Y-62939585D01*
X118990405Y-62932639D01*
X118990407Y-62932636D01*
X118996348Y-62921830D01*
X119007199Y-62905311D01*
X119014758Y-62895565D01*
X119019614Y-62889305D01*
X119022759Y-62882036D01*
X119022762Y-62882032D01*
X119037174Y-62848727D01*
X119042391Y-62838077D01*
X119063695Y-62799324D01*
X119068733Y-62779701D01*
X119075137Y-62760998D01*
X119080033Y-62749684D01*
X119080033Y-62749683D01*
X119083181Y-62742409D01*
X119084420Y-62734586D01*
X119084423Y-62734576D01*
X119090100Y-62698734D01*
X119092506Y-62687115D01*
X119096825Y-62670292D01*
X119113919Y-62631897D01*
X119189742Y-62517775D01*
X119189746Y-62517768D01*
X119193643Y-62511902D01*
X119196145Y-62505316D01*
X119209560Y-62470000D01*
X187626496Y-62470000D01*
X187627186Y-62476565D01*
X187645459Y-62650419D01*
X187646458Y-62659928D01*
X187705473Y-62841556D01*
X187708776Y-62847278D01*
X187708777Y-62847279D01*
X187722981Y-62871881D01*
X187800960Y-63006944D01*
X187805378Y-63011851D01*
X187805379Y-63011852D01*
X187905231Y-63122749D01*
X187928747Y-63148866D01*
X188021489Y-63216247D01*
X188069764Y-63251321D01*
X188083248Y-63261118D01*
X188089276Y-63263802D01*
X188089278Y-63263803D01*
X188251681Y-63336109D01*
X188257712Y-63338794D01*
X188350807Y-63358582D01*
X188438056Y-63377128D01*
X188438061Y-63377128D01*
X188444513Y-63378500D01*
X188500406Y-63378500D01*
X188568527Y-63398502D01*
X188589501Y-63415405D01*
X188590501Y-63416405D01*
X188624527Y-63478717D01*
X188619462Y-63549532D01*
X188576915Y-63606368D01*
X188510395Y-63631179D01*
X188501406Y-63631500D01*
X188474513Y-63631500D01*
X188468061Y-63632872D01*
X188468056Y-63632872D01*
X188381112Y-63651353D01*
X188287712Y-63671206D01*
X188281682Y-63673891D01*
X188281681Y-63673891D01*
X188119278Y-63746197D01*
X188119276Y-63746198D01*
X188113248Y-63748882D01*
X187958747Y-63861134D01*
X187954326Y-63866044D01*
X187954325Y-63866045D01*
X187891292Y-63936051D01*
X187830960Y-64003056D01*
X187735473Y-64168444D01*
X187676458Y-64350072D01*
X187675768Y-64356633D01*
X187675768Y-64356635D01*
X187659664Y-64509861D01*
X187656496Y-64540000D01*
X187657186Y-64546565D01*
X187668156Y-64650935D01*
X187676458Y-64729928D01*
X187735473Y-64911556D01*
X187830960Y-65076944D01*
X187904137Y-65158215D01*
X187934853Y-65222221D01*
X187936500Y-65242524D01*
X187936500Y-65259856D01*
X187936997Y-65263790D01*
X187936997Y-65263791D01*
X187937005Y-65263856D01*
X187937938Y-65275693D01*
X187939327Y-65319889D01*
X187944978Y-65339339D01*
X187948987Y-65358700D01*
X187951526Y-65378797D01*
X187954445Y-65386168D01*
X187954445Y-65386170D01*
X187967804Y-65419912D01*
X187971649Y-65431142D01*
X187980092Y-65460202D01*
X187983982Y-65473593D01*
X187988015Y-65480412D01*
X187988017Y-65480417D01*
X187994293Y-65491028D01*
X188002988Y-65508776D01*
X188010448Y-65527617D01*
X188015110Y-65534033D01*
X188015110Y-65534034D01*
X188036436Y-65563387D01*
X188042952Y-65573307D01*
X188065458Y-65611362D01*
X188079779Y-65625683D01*
X188092619Y-65640716D01*
X188104528Y-65657107D01*
X188115179Y-65665918D01*
X188138605Y-65685298D01*
X188147384Y-65693288D01*
X195019777Y-72565682D01*
X195053803Y-72627994D01*
X195052100Y-72688446D01*
X195030989Y-72764570D01*
X195007251Y-72986695D01*
X195007548Y-72991848D01*
X195007548Y-72991851D01*
X195014981Y-73120760D01*
X195020110Y-73209715D01*
X195021247Y-73214761D01*
X195021248Y-73214767D01*
X195035271Y-73276990D01*
X195069222Y-73427639D01*
X195153266Y-73634616D01*
X195269987Y-73825088D01*
X195416250Y-73993938D01*
X195588126Y-74136632D01*
X195658595Y-74177811D01*
X195661445Y-74179476D01*
X195710169Y-74231114D01*
X195723240Y-74300897D01*
X195696509Y-74366669D01*
X195656055Y-74400027D01*
X195643607Y-74406507D01*
X195639474Y-74409610D01*
X195639471Y-74409612D01*
X195469100Y-74537530D01*
X195464965Y-74540635D01*
X195310629Y-74702138D01*
X195184743Y-74886680D01*
X195090688Y-75089305D01*
X195030989Y-75304570D01*
X195007251Y-75526695D01*
X195007548Y-75531848D01*
X195007548Y-75531851D01*
X195013011Y-75626590D01*
X195020110Y-75749715D01*
X195021247Y-75754761D01*
X195021248Y-75754767D01*
X195041119Y-75842939D01*
X195069222Y-75967639D01*
X195153266Y-76174616D01*
X195269987Y-76365088D01*
X195416250Y-76533938D01*
X195588126Y-76676632D01*
X195661445Y-76719476D01*
X195661955Y-76719774D01*
X195710679Y-76771412D01*
X195723750Y-76841195D01*
X195697019Y-76906967D01*
X195656562Y-76940327D01*
X195648457Y-76944546D01*
X195639738Y-76950036D01*
X195469433Y-77077905D01*
X195461726Y-77084748D01*
X195314590Y-77238717D01*
X195308104Y-77246727D01*
X195188098Y-77422649D01*
X195183000Y-77431623D01*
X195093338Y-77624783D01*
X195089775Y-77634470D01*
X195034389Y-77834183D01*
X195035912Y-77842607D01*
X195048292Y-77846000D01*
X197688344Y-77846000D01*
X197701875Y-77842027D01*
X197703180Y-77832947D01*
X197661214Y-77665875D01*
X197657894Y-77656124D01*
X197572972Y-77460814D01*
X197568105Y-77451739D01*
X197452426Y-77272926D01*
X197446136Y-77264757D01*
X197302806Y-77107240D01*
X197295273Y-77100215D01*
X197128139Y-76968222D01*
X197119556Y-76962520D01*
X197082602Y-76942120D01*
X197032631Y-76891687D01*
X197017859Y-76822245D01*
X197042975Y-76755839D01*
X197070327Y-76729232D01*
X197093797Y-76712491D01*
X197249860Y-76601173D01*
X197257991Y-76593071D01*
X197331209Y-76520107D01*
X197408096Y-76443489D01*
X197467594Y-76360689D01*
X197535435Y-76266277D01*
X197538453Y-76262077D01*
X197554649Y-76229308D01*
X197635136Y-76066453D01*
X197635137Y-76066451D01*
X197637430Y-76061811D01*
X197702370Y-75848069D01*
X197731529Y-75626590D01*
X197733156Y-75560000D01*
X197714852Y-75337361D01*
X197660431Y-75120702D01*
X197571354Y-74915840D01*
X197450014Y-74728277D01*
X197299670Y-74563051D01*
X197295619Y-74559852D01*
X197295615Y-74559848D01*
X197128414Y-74427800D01*
X197128410Y-74427798D01*
X197124359Y-74424598D01*
X197083053Y-74401796D01*
X197033084Y-74351364D01*
X197018312Y-74281921D01*
X197043428Y-74215516D01*
X197070780Y-74188909D01*
X197114603Y-74157650D01*
X197249860Y-74061173D01*
X197408096Y-73903489D01*
X197467594Y-73820689D01*
X197535435Y-73726277D01*
X197538453Y-73722077D01*
X197602672Y-73592140D01*
X197635136Y-73526453D01*
X197635137Y-73526451D01*
X197637430Y-73521811D01*
X197702370Y-73308069D01*
X197731529Y-73086590D01*
X197733156Y-73020000D01*
X197714852Y-72797361D01*
X197660431Y-72580702D01*
X197571354Y-72375840D01*
X197502031Y-72268683D01*
X197452822Y-72192617D01*
X197452820Y-72192614D01*
X197450014Y-72188277D01*
X197299670Y-72023051D01*
X197295619Y-72019852D01*
X197295615Y-72019848D01*
X197128414Y-71887800D01*
X197128410Y-71887798D01*
X197124359Y-71884598D01*
X197083053Y-71861796D01*
X197033084Y-71811364D01*
X197018312Y-71741921D01*
X197043428Y-71675516D01*
X197070780Y-71648909D01*
X197114603Y-71617650D01*
X197249860Y-71521173D01*
X197408096Y-71363489D01*
X197448174Y-71307715D01*
X197535435Y-71186277D01*
X197538453Y-71182077D01*
X197603323Y-71050823D01*
X197635136Y-70986453D01*
X197635137Y-70986451D01*
X197637430Y-70981811D01*
X197688429Y-70813955D01*
X197700865Y-70773023D01*
X197700865Y-70773021D01*
X197702370Y-70768069D01*
X197731529Y-70546590D01*
X197733156Y-70480000D01*
X197714852Y-70257361D01*
X197660431Y-70040702D01*
X197571354Y-69835840D01*
X197472056Y-69682349D01*
X197452822Y-69652617D01*
X197452820Y-69652614D01*
X197450014Y-69648277D01*
X197299670Y-69483051D01*
X197295619Y-69479852D01*
X197295615Y-69479848D01*
X197128414Y-69347800D01*
X197128410Y-69347798D01*
X197124359Y-69344598D01*
X197083053Y-69321796D01*
X197033084Y-69271364D01*
X197018312Y-69201921D01*
X197043428Y-69135516D01*
X197070780Y-69108909D01*
X197127611Y-69068372D01*
X197249860Y-68981173D01*
X197296135Y-68935060D01*
X197391437Y-68840090D01*
X197408096Y-68823489D01*
X197433794Y-68787727D01*
X197535435Y-68646277D01*
X197538453Y-68642077D01*
X197606021Y-68505364D01*
X197635136Y-68446453D01*
X197635137Y-68446451D01*
X197637430Y-68441811D01*
X197702370Y-68228069D01*
X197731529Y-68006590D01*
X197733156Y-67940000D01*
X197714852Y-67717361D01*
X197660431Y-67500702D01*
X197571354Y-67295840D01*
X197511707Y-67203640D01*
X197452822Y-67112617D01*
X197452820Y-67112614D01*
X197450014Y-67108277D01*
X197299670Y-66943051D01*
X197295619Y-66939852D01*
X197295615Y-66939848D01*
X197128414Y-66807800D01*
X197128410Y-66807798D01*
X197124359Y-66804598D01*
X197115755Y-66799848D01*
X197072136Y-66775769D01*
X196928789Y-66696638D01*
X196923920Y-66694914D01*
X196923916Y-66694912D01*
X196723087Y-66623795D01*
X196723083Y-66623794D01*
X196718212Y-66622069D01*
X196713119Y-66621162D01*
X196713116Y-66621161D01*
X196503373Y-66583800D01*
X196503367Y-66583799D01*
X196498284Y-66582894D01*
X196424452Y-66581992D01*
X196280081Y-66580228D01*
X196280079Y-66580228D01*
X196274911Y-66580165D01*
X196054091Y-66613955D01*
X195845580Y-66682107D01*
X195774617Y-66684258D01*
X195717341Y-66651437D01*
X190493245Y-61427340D01*
X193243836Y-61427340D01*
X193244526Y-61433905D01*
X193261966Y-61599834D01*
X193263798Y-61617268D01*
X193322813Y-61798896D01*
X193326116Y-61804618D01*
X193326117Y-61804619D01*
X193370582Y-61881634D01*
X193387320Y-61950629D01*
X193370582Y-62007633D01*
X193335473Y-62068444D01*
X193276458Y-62250072D01*
X193275768Y-62256633D01*
X193275768Y-62256635D01*
X193259294Y-62413380D01*
X193256496Y-62440000D01*
X193257186Y-62446565D01*
X193260132Y-62474590D01*
X193276458Y-62629928D01*
X193335473Y-62811556D01*
X193338776Y-62817278D01*
X193338777Y-62817279D01*
X193353786Y-62843275D01*
X193430960Y-62976944D01*
X193435378Y-62981851D01*
X193435379Y-62981852D01*
X193517452Y-63073003D01*
X193558747Y-63118866D01*
X193647642Y-63183452D01*
X193683966Y-63209843D01*
X193713248Y-63231118D01*
X193719276Y-63233802D01*
X193719278Y-63233803D01*
X193876542Y-63303821D01*
X193887712Y-63308794D01*
X193972903Y-63326902D01*
X194068056Y-63347128D01*
X194068061Y-63347128D01*
X194074513Y-63348500D01*
X194265487Y-63348500D01*
X194271939Y-63347128D01*
X194271944Y-63347128D01*
X194367097Y-63326902D01*
X194452288Y-63308794D01*
X194463458Y-63303821D01*
X194620722Y-63233803D01*
X194620724Y-63233802D01*
X194626752Y-63231118D01*
X194656035Y-63209843D01*
X194759671Y-63134546D01*
X194781253Y-63118866D01*
X194785668Y-63113963D01*
X194790580Y-63109540D01*
X194791705Y-63110789D01*
X194845014Y-63077949D01*
X194878200Y-63073500D01*
X207171233Y-63073500D01*
X207182416Y-63074027D01*
X207189909Y-63075702D01*
X207197835Y-63075453D01*
X207197836Y-63075453D01*
X207257986Y-63073562D01*
X207261945Y-63073500D01*
X207289856Y-63073500D01*
X207293791Y-63073003D01*
X207293856Y-63072995D01*
X207305693Y-63072062D01*
X207337951Y-63071048D01*
X207341970Y-63070922D01*
X207349889Y-63070673D01*
X207369343Y-63065021D01*
X207388700Y-63061013D01*
X207400930Y-63059468D01*
X207400931Y-63059468D01*
X207408797Y-63058474D01*
X207416168Y-63055555D01*
X207416170Y-63055555D01*
X207449912Y-63042196D01*
X207461142Y-63038351D01*
X207495983Y-63028229D01*
X207495984Y-63028229D01*
X207503593Y-63026018D01*
X207510412Y-63021985D01*
X207510417Y-63021983D01*
X207521028Y-63015707D01*
X207538776Y-63007012D01*
X207557617Y-62999552D01*
X207593387Y-62973564D01*
X207603307Y-62967048D01*
X207634535Y-62948580D01*
X207634538Y-62948578D01*
X207641362Y-62944542D01*
X207655683Y-62930221D01*
X207670717Y-62917380D01*
X207680694Y-62910131D01*
X207687107Y-62905472D01*
X207715298Y-62871395D01*
X207723288Y-62862616D01*
X208187668Y-62398236D01*
X208249980Y-62364210D01*
X208306177Y-62364812D01*
X208508476Y-62413380D01*
X208508482Y-62413381D01*
X208513289Y-62414535D01*
X208750000Y-62433165D01*
X208986711Y-62414535D01*
X208991518Y-62413381D01*
X208991524Y-62413380D01*
X209137391Y-62378360D01*
X209217594Y-62359105D01*
X209242183Y-62348920D01*
X209432389Y-62270135D01*
X209432393Y-62270133D01*
X209436963Y-62268240D01*
X209455901Y-62256635D01*
X209635202Y-62146759D01*
X209635208Y-62146755D01*
X209639416Y-62144176D01*
X209819969Y-61989969D01*
X209974176Y-61809416D01*
X209976755Y-61805208D01*
X209976759Y-61805202D01*
X210095654Y-61611183D01*
X210098240Y-61606963D01*
X210117072Y-61561500D01*
X210187211Y-61392167D01*
X210187212Y-61392165D01*
X210189105Y-61387594D01*
X210216478Y-61273578D01*
X210243380Y-61161524D01*
X210243381Y-61161518D01*
X210244535Y-61156711D01*
X210263165Y-60920000D01*
X210244535Y-60683289D01*
X210241947Y-60672506D01*
X210190260Y-60457218D01*
X210189105Y-60452406D01*
X210183966Y-60440000D01*
X210100135Y-60237611D01*
X210100133Y-60237607D01*
X210098240Y-60233037D01*
X210082874Y-60207962D01*
X209976759Y-60034798D01*
X209976755Y-60034792D01*
X209974176Y-60030584D01*
X209819969Y-59850031D01*
X209816213Y-59846823D01*
X209816208Y-59846818D01*
X209697944Y-59745811D01*
X209659134Y-59686361D01*
X209658628Y-59615366D01*
X209697944Y-59554189D01*
X209816208Y-59453182D01*
X209816213Y-59453177D01*
X209819969Y-59449969D01*
X209974176Y-59269416D01*
X209976755Y-59265208D01*
X209976759Y-59265202D01*
X210095654Y-59071183D01*
X210098240Y-59066963D01*
X210101380Y-59059384D01*
X210187211Y-58852167D01*
X210187212Y-58852165D01*
X210189105Y-58847594D01*
X210228428Y-58683803D01*
X210243380Y-58621524D01*
X210243381Y-58621518D01*
X210244535Y-58616711D01*
X210263165Y-58380000D01*
X210244535Y-58143289D01*
X210236996Y-58111883D01*
X210190260Y-57917218D01*
X210189105Y-57912406D01*
X210187211Y-57907833D01*
X210100135Y-57697611D01*
X210100133Y-57697607D01*
X210098240Y-57693037D01*
X210061463Y-57633023D01*
X209976759Y-57494798D01*
X209976755Y-57494792D01*
X209974176Y-57490584D01*
X209819969Y-57310031D01*
X209816213Y-57306823D01*
X209816208Y-57306818D01*
X209697944Y-57205811D01*
X209659134Y-57146361D01*
X209658628Y-57075366D01*
X209697944Y-57014189D01*
X209816208Y-56913182D01*
X209816213Y-56913177D01*
X209819969Y-56909969D01*
X209974176Y-56729416D01*
X209976755Y-56725208D01*
X209976759Y-56725202D01*
X210095654Y-56531183D01*
X210098240Y-56526963D01*
X210103274Y-56514811D01*
X210187211Y-56312167D01*
X210187212Y-56312165D01*
X210189105Y-56307594D01*
X210217430Y-56189612D01*
X210243380Y-56081524D01*
X210243381Y-56081518D01*
X210244535Y-56076711D01*
X210263165Y-55840000D01*
X210244535Y-55603289D01*
X210189105Y-55372406D01*
X210185623Y-55363999D01*
X210100135Y-55157611D01*
X210100133Y-55157607D01*
X210098240Y-55153037D01*
X210049417Y-55073365D01*
X209976759Y-54954798D01*
X209976755Y-54954792D01*
X209974176Y-54950584D01*
X209819969Y-54770031D01*
X209816213Y-54766823D01*
X209816208Y-54766818D01*
X209697944Y-54665811D01*
X209659134Y-54606361D01*
X209658628Y-54535366D01*
X209697944Y-54474189D01*
X209816208Y-54373182D01*
X209816213Y-54373177D01*
X209819969Y-54369969D01*
X209974176Y-54189416D01*
X209976755Y-54185208D01*
X209976759Y-54185202D01*
X210095654Y-53991183D01*
X210098240Y-53986963D01*
X210101420Y-53979287D01*
X210187211Y-53772167D01*
X210187212Y-53772165D01*
X210189105Y-53767594D01*
X210244535Y-53536711D01*
X210263165Y-53300000D01*
X210244535Y-53063289D01*
X210233369Y-53016777D01*
X210206954Y-52906751D01*
X210189105Y-52832406D01*
X210187211Y-52827833D01*
X210100135Y-52617611D01*
X210100133Y-52617607D01*
X210098240Y-52613037D01*
X210054458Y-52541591D01*
X209976759Y-52414798D01*
X209976755Y-52414792D01*
X209974176Y-52410584D01*
X209830461Y-52242316D01*
X209823177Y-52233787D01*
X209819969Y-52230031D01*
X209639416Y-52075824D01*
X209635208Y-52073245D01*
X209635202Y-52073241D01*
X209441183Y-51954346D01*
X209436963Y-51951760D01*
X209432393Y-51949867D01*
X209432389Y-51949865D01*
X209222167Y-51862789D01*
X209222165Y-51862788D01*
X209217594Y-51860895D01*
X209102507Y-51833265D01*
X208991524Y-51806620D01*
X208991518Y-51806619D01*
X208986711Y-51805465D01*
X208750000Y-51786835D01*
X208513289Y-51805465D01*
X208508482Y-51806619D01*
X208508476Y-51806620D01*
X208397493Y-51833265D01*
X208282406Y-51860895D01*
X208277835Y-51862788D01*
X208277833Y-51862789D01*
X208067611Y-51949865D01*
X208067607Y-51949867D01*
X208063037Y-51951760D01*
X208058817Y-51954346D01*
X207864798Y-52073241D01*
X207864792Y-52073245D01*
X207860584Y-52075824D01*
X207680031Y-52230031D01*
X207676823Y-52233787D01*
X207669539Y-52242316D01*
X207525824Y-52410584D01*
X207523245Y-52414792D01*
X207523241Y-52414798D01*
X207445542Y-52541591D01*
X207401760Y-52613037D01*
X207399867Y-52617607D01*
X207399865Y-52617611D01*
X207312789Y-52827833D01*
X207310895Y-52832406D01*
X207293046Y-52906751D01*
X207266632Y-53016777D01*
X207255465Y-53063289D01*
X207236835Y-53300000D01*
X207255465Y-53536711D01*
X207310895Y-53767594D01*
X207312788Y-53772165D01*
X207312789Y-53772167D01*
X207398581Y-53979287D01*
X207401760Y-53986963D01*
X207404346Y-53991183D01*
X207523241Y-54185202D01*
X207523245Y-54185208D01*
X207525824Y-54189416D01*
X207680031Y-54369969D01*
X207683787Y-54373177D01*
X207683792Y-54373182D01*
X207802056Y-54474189D01*
X207840866Y-54533639D01*
X207841372Y-54604634D01*
X207802056Y-54665811D01*
X207683792Y-54766818D01*
X207683787Y-54766823D01*
X207680031Y-54770031D01*
X207525824Y-54950584D01*
X207523245Y-54954792D01*
X207523241Y-54954798D01*
X207450583Y-55073365D01*
X207401760Y-55153037D01*
X207399867Y-55157607D01*
X207399865Y-55157611D01*
X207314377Y-55363999D01*
X207310895Y-55372406D01*
X207255465Y-55603289D01*
X207236835Y-55840000D01*
X207255465Y-56076711D01*
X207256619Y-56081518D01*
X207256620Y-56081524D01*
X207282570Y-56189612D01*
X207310895Y-56307594D01*
X207312788Y-56312165D01*
X207312789Y-56312167D01*
X207396727Y-56514811D01*
X207401760Y-56526963D01*
X207404346Y-56531183D01*
X207523241Y-56725202D01*
X207523245Y-56725208D01*
X207525824Y-56729416D01*
X207680031Y-56909969D01*
X207683787Y-56913177D01*
X207683792Y-56913182D01*
X207802056Y-57014189D01*
X207840866Y-57073639D01*
X207841372Y-57144634D01*
X207802056Y-57205811D01*
X207683792Y-57306818D01*
X207683787Y-57306823D01*
X207680031Y-57310031D01*
X207525824Y-57490584D01*
X207523245Y-57494792D01*
X207523241Y-57494798D01*
X207438537Y-57633023D01*
X207401760Y-57693037D01*
X207399867Y-57697607D01*
X207399865Y-57697611D01*
X207312789Y-57907833D01*
X207310895Y-57912406D01*
X207309740Y-57917218D01*
X207263005Y-58111883D01*
X207255465Y-58143289D01*
X207236835Y-58380000D01*
X207255465Y-58616711D01*
X207256619Y-58621518D01*
X207256620Y-58621524D01*
X207271572Y-58683803D01*
X207310895Y-58847594D01*
X207312788Y-58852165D01*
X207312789Y-58852167D01*
X207398621Y-59059384D01*
X207401760Y-59066963D01*
X207404346Y-59071183D01*
X207523241Y-59265202D01*
X207523245Y-59265208D01*
X207525824Y-59269416D01*
X207680031Y-59449969D01*
X207683787Y-59453177D01*
X207683792Y-59453182D01*
X207802056Y-59554189D01*
X207840866Y-59613639D01*
X207841372Y-59684634D01*
X207802056Y-59745811D01*
X207683792Y-59846818D01*
X207683787Y-59846823D01*
X207680031Y-59850031D01*
X207525824Y-60030584D01*
X207523245Y-60034792D01*
X207523241Y-60034798D01*
X207417126Y-60207962D01*
X207401760Y-60233037D01*
X207399867Y-60237607D01*
X207399865Y-60237611D01*
X207316034Y-60440000D01*
X207310895Y-60452406D01*
X207309740Y-60457218D01*
X207258054Y-60672506D01*
X207255465Y-60683289D01*
X207236835Y-60920000D01*
X207255465Y-61156711D01*
X207256619Y-61161518D01*
X207256620Y-61161524D01*
X207301361Y-61347881D01*
X207310827Y-61387311D01*
X207310895Y-61387594D01*
X207310835Y-61387608D01*
X207312816Y-61456983D01*
X207280051Y-61514044D01*
X207024500Y-61769595D01*
X206962188Y-61803621D01*
X206935405Y-61806500D01*
X200479594Y-61806500D01*
X200411473Y-61786498D01*
X200364980Y-61732842D01*
X200354876Y-61662568D01*
X200359762Y-61641562D01*
X200361502Y-61636208D01*
X200361503Y-61636203D01*
X200363542Y-61629928D01*
X200365563Y-61610705D01*
X200382814Y-61446565D01*
X200383504Y-61440000D01*
X200373626Y-61346016D01*
X200364232Y-61256635D01*
X200364232Y-61256633D01*
X200363542Y-61250072D01*
X200304527Y-61068444D01*
X200300847Y-61062069D01*
X200266743Y-61003000D01*
X200250005Y-60934005D01*
X200266743Y-60877000D01*
X200301223Y-60817279D01*
X200301224Y-60817278D01*
X200304527Y-60811556D01*
X200363542Y-60629928D01*
X200383504Y-60440000D01*
X200363542Y-60250072D01*
X200304527Y-60068444D01*
X200300933Y-60062218D01*
X200261527Y-59993966D01*
X200209040Y-59903056D01*
X200202854Y-59896185D01*
X200085675Y-59766045D01*
X200085674Y-59766044D01*
X200081253Y-59761134D01*
X199926752Y-59648882D01*
X199920724Y-59646198D01*
X199920722Y-59646197D01*
X199758319Y-59573891D01*
X199758318Y-59573891D01*
X199752288Y-59571206D01*
X199651741Y-59549834D01*
X199571944Y-59532872D01*
X199571939Y-59532872D01*
X199565487Y-59531500D01*
X199374513Y-59531500D01*
X199368061Y-59532872D01*
X199368056Y-59532872D01*
X199288259Y-59549834D01*
X199187712Y-59571206D01*
X199181682Y-59573891D01*
X199181681Y-59573891D01*
X199019278Y-59646197D01*
X199019276Y-59646198D01*
X199013248Y-59648882D01*
X198858747Y-59761134D01*
X198854332Y-59766037D01*
X198849420Y-59770460D01*
X198848295Y-59769211D01*
X198794986Y-59802051D01*
X198761800Y-59806500D01*
X194889696Y-59806500D01*
X194821575Y-59786498D01*
X194796060Y-59764811D01*
X194785829Y-59753448D01*
X194785827Y-59753447D01*
X194781414Y-59748545D01*
X194708850Y-59695824D01*
X194632255Y-59640174D01*
X194632254Y-59640173D01*
X194626913Y-59636293D01*
X194620885Y-59633609D01*
X194620883Y-59633608D01*
X194458480Y-59561302D01*
X194458479Y-59561302D01*
X194452449Y-59558617D01*
X194359048Y-59538764D01*
X194272105Y-59520283D01*
X194272100Y-59520283D01*
X194265648Y-59518911D01*
X194074674Y-59518911D01*
X194068222Y-59520283D01*
X194068217Y-59520283D01*
X193981274Y-59538764D01*
X193887873Y-59558617D01*
X193881843Y-59561302D01*
X193881842Y-59561302D01*
X193719439Y-59633608D01*
X193719437Y-59633609D01*
X193713409Y-59636293D01*
X193558908Y-59748545D01*
X193431121Y-59890467D01*
X193381300Y-59976760D01*
X193345208Y-60039273D01*
X193335634Y-60055855D01*
X193276619Y-60237483D01*
X193256657Y-60427411D01*
X193257347Y-60433976D01*
X193273368Y-60586404D01*
X193276619Y-60617339D01*
X193335634Y-60798967D01*
X193338937Y-60804689D01*
X193338938Y-60804690D01*
X193366987Y-60853272D01*
X193383725Y-60922267D01*
X193366987Y-60979272D01*
X193322813Y-61055784D01*
X193263798Y-61237412D01*
X193263108Y-61243973D01*
X193263108Y-61243975D01*
X193258253Y-61290166D01*
X193243836Y-61427340D01*
X190493245Y-61427340D01*
X189537122Y-60471217D01*
X189503096Y-60408905D01*
X189500907Y-60395292D01*
X189484232Y-60236635D01*
X189484232Y-60236633D01*
X189483542Y-60230072D01*
X189424527Y-60048444D01*
X189416649Y-60034798D01*
X189336620Y-59896185D01*
X189329040Y-59883056D01*
X189215769Y-59757255D01*
X189205675Y-59746045D01*
X189205674Y-59746044D01*
X189201253Y-59741134D01*
X189062294Y-59640174D01*
X189052094Y-59632763D01*
X189052093Y-59632762D01*
X189046752Y-59628882D01*
X189040724Y-59626198D01*
X189040722Y-59626197D01*
X188878319Y-59553891D01*
X188878318Y-59553891D01*
X188872288Y-59551206D01*
X188778888Y-59531353D01*
X188691944Y-59512872D01*
X188691939Y-59512872D01*
X188685487Y-59511500D01*
X188494513Y-59511500D01*
X188488061Y-59512872D01*
X188488056Y-59512872D01*
X188401112Y-59531353D01*
X188307712Y-59551206D01*
X188301682Y-59553891D01*
X188301681Y-59553891D01*
X188139278Y-59626197D01*
X188139276Y-59626198D01*
X188133248Y-59628882D01*
X188127907Y-59632762D01*
X188127906Y-59632763D01*
X188117706Y-59640174D01*
X187978747Y-59741134D01*
X187974326Y-59746044D01*
X187974325Y-59746045D01*
X187964232Y-59757255D01*
X187850960Y-59883056D01*
X187843380Y-59896185D01*
X187763352Y-60034798D01*
X187755473Y-60048444D01*
X187696458Y-60230072D01*
X187695768Y-60236633D01*
X187695768Y-60236635D01*
X187695016Y-60243794D01*
X187676496Y-60420000D01*
X187677186Y-60426565D01*
X187693986Y-60586404D01*
X187696458Y-60609928D01*
X187755473Y-60791556D01*
X187758776Y-60797278D01*
X187758777Y-60797279D01*
X187768420Y-60813981D01*
X187850960Y-60956944D01*
X187855378Y-60961851D01*
X187855379Y-60961852D01*
X187869360Y-60977379D01*
X187978747Y-61098866D01*
X188133248Y-61211118D01*
X188139276Y-61213802D01*
X188139278Y-61213803D01*
X188301681Y-61286109D01*
X188307712Y-61288794D01*
X188437771Y-61316439D01*
X188500244Y-61350168D01*
X188534566Y-61412317D01*
X188529838Y-61483156D01*
X188487562Y-61540194D01*
X188437771Y-61562933D01*
X188257712Y-61601206D01*
X188251682Y-61603891D01*
X188251681Y-61603891D01*
X188089278Y-61676197D01*
X188089276Y-61676198D01*
X188083248Y-61678882D01*
X187928747Y-61791134D01*
X187924326Y-61796044D01*
X187924325Y-61796045D01*
X187826557Y-61904628D01*
X187800960Y-61933056D01*
X187790814Y-61950629D01*
X187722794Y-62068444D01*
X187705473Y-62098444D01*
X187646458Y-62280072D01*
X187645768Y-62286633D01*
X187645768Y-62286635D01*
X187632285Y-62414923D01*
X187626496Y-62470000D01*
X119209560Y-62470000D01*
X119255555Y-62348920D01*
X119255556Y-62348918D01*
X119258055Y-62342338D01*
X119259464Y-62332312D01*
X119282748Y-62166639D01*
X119282748Y-62166636D01*
X119283299Y-62162717D01*
X119283452Y-62151738D01*
X119283561Y-62143962D01*
X119283561Y-62143957D01*
X119283616Y-62140000D01*
X119263397Y-61959745D01*
X119261080Y-61953091D01*
X119206064Y-61795106D01*
X119206062Y-61795103D01*
X119203745Y-61788448D01*
X119200009Y-61782469D01*
X119111359Y-61640598D01*
X119107626Y-61634624D01*
X119096625Y-61623546D01*
X118984778Y-61510915D01*
X118984774Y-61510912D01*
X118979815Y-61505918D01*
X118826666Y-61408727D01*
X118767357Y-61387608D01*
X118662425Y-61350243D01*
X118662420Y-61350242D01*
X118655790Y-61347881D01*
X118648802Y-61347048D01*
X118648799Y-61347047D01*
X118493257Y-61328500D01*
X118475680Y-61326404D01*
X118468677Y-61327140D01*
X118468676Y-61327140D01*
X118302290Y-61344628D01*
X118302289Y-61344628D01*
X118295288Y-61345364D01*
X118288621Y-61347634D01*
X118281743Y-61349146D01*
X118281055Y-61346016D01*
X118224217Y-61348452D01*
X118165410Y-61315242D01*
X118160221Y-61310053D01*
X118147380Y-61295019D01*
X118142857Y-61288794D01*
X118135472Y-61278629D01*
X118101395Y-61250438D01*
X118092616Y-61242448D01*
X117072896Y-60222727D01*
X117065356Y-60214441D01*
X117061244Y-60207962D01*
X117035278Y-60183578D01*
X117011593Y-60161337D01*
X117008751Y-60158582D01*
X116989014Y-60138845D01*
X116985817Y-60136365D01*
X116976795Y-60128660D01*
X116963366Y-60116049D01*
X116944565Y-60098394D01*
X116937619Y-60094575D01*
X116937616Y-60094573D01*
X116926810Y-60088632D01*
X116910291Y-60077781D01*
X116906356Y-60074729D01*
X116894285Y-60065366D01*
X116887016Y-60062221D01*
X116887012Y-60062218D01*
X116853707Y-60047806D01*
X116843057Y-60042589D01*
X116804304Y-60021285D01*
X116784681Y-60016247D01*
X116765978Y-60009843D01*
X116754664Y-60004947D01*
X116754663Y-60004947D01*
X116747389Y-60001799D01*
X116739566Y-60000560D01*
X116739556Y-60000557D01*
X116703720Y-59994881D01*
X116692100Y-59992475D01*
X116656955Y-59983452D01*
X116656954Y-59983452D01*
X116649274Y-59981480D01*
X116629020Y-59981480D01*
X116609309Y-59979929D01*
X116597130Y-59978000D01*
X116589301Y-59976760D01*
X116560030Y-59979527D01*
X116545283Y-59980921D01*
X116533425Y-59981480D01*
X109163787Y-59981480D01*
X109152604Y-59980953D01*
X109145111Y-59979278D01*
X109137185Y-59979527D01*
X109137184Y-59979527D01*
X109077034Y-59981418D01*
X109073075Y-59981480D01*
X109045164Y-59981480D01*
X109041230Y-59981977D01*
X109041229Y-59981977D01*
X109041164Y-59981985D01*
X109029327Y-59982918D01*
X108997510Y-59983918D01*
X108993049Y-59984058D01*
X108985130Y-59984307D01*
X108967474Y-59989436D01*
X108965678Y-59989958D01*
X108946326Y-59993966D01*
X108939255Y-59994860D01*
X108926223Y-59996506D01*
X108918854Y-59999423D01*
X108918852Y-59999424D01*
X108885117Y-60012780D01*
X108873889Y-60016625D01*
X108831427Y-60028962D01*
X108824604Y-60032997D01*
X108824602Y-60032998D01*
X108813992Y-60039273D01*
X108796244Y-60047968D01*
X108777403Y-60055428D01*
X108770987Y-60060090D01*
X108770986Y-60060090D01*
X108741633Y-60081416D01*
X108731713Y-60087932D01*
X108700485Y-60106400D01*
X108700482Y-60106402D01*
X108693658Y-60110438D01*
X108679337Y-60124759D01*
X108664304Y-60137599D01*
X108647913Y-60149508D01*
X108642863Y-60155612D01*
X108642858Y-60155617D01*
X108619727Y-60183578D01*
X108611737Y-60192359D01*
X108059720Y-60744375D01*
X107997408Y-60778400D01*
X107926592Y-60773335D01*
X107903114Y-60761666D01*
X107756666Y-60668727D01*
X107727463Y-60658328D01*
X107592425Y-60610243D01*
X107592420Y-60610242D01*
X107585790Y-60607881D01*
X107578802Y-60607048D01*
X107578799Y-60607047D01*
X107455698Y-60592368D01*
X107405680Y-60586404D01*
X107398677Y-60587140D01*
X107398676Y-60587140D01*
X107232288Y-60604628D01*
X107232286Y-60604629D01*
X107225288Y-60605364D01*
X107053579Y-60663818D01*
X106917039Y-60747819D01*
X106851019Y-60766500D01*
X103478768Y-60766500D01*
X103467585Y-60765973D01*
X103460092Y-60764298D01*
X103452166Y-60764547D01*
X103452165Y-60764547D01*
X103392002Y-60766438D01*
X103388044Y-60766500D01*
X103360144Y-60766500D01*
X103356154Y-60767004D01*
X103344320Y-60767936D01*
X103300111Y-60769326D01*
X103292495Y-60771539D01*
X103292493Y-60771539D01*
X103280652Y-60774979D01*
X103261293Y-60778988D01*
X103259983Y-60779154D01*
X103241203Y-60781526D01*
X103233837Y-60784442D01*
X103233831Y-60784444D01*
X103200098Y-60797800D01*
X103188868Y-60801645D01*
X103154754Y-60811556D01*
X103146407Y-60813981D01*
X103139584Y-60818016D01*
X103128966Y-60824295D01*
X103111213Y-60832992D01*
X103103568Y-60836019D01*
X103092383Y-60840448D01*
X103085968Y-60845109D01*
X103056612Y-60866437D01*
X103046695Y-60872951D01*
X103008638Y-60895458D01*
X102994317Y-60909779D01*
X102979284Y-60922619D01*
X102962893Y-60934528D01*
X102957843Y-60940632D01*
X102957838Y-60940637D01*
X102934707Y-60968598D01*
X102926717Y-60977379D01*
X102038907Y-61865188D01*
X101976595Y-61899213D01*
X101962983Y-61901402D01*
X101932288Y-61904628D01*
X101932286Y-61904628D01*
X101925288Y-61905364D01*
X101753579Y-61963818D01*
X101705857Y-61993177D01*
X101605095Y-62055166D01*
X101605092Y-62055168D01*
X101599088Y-62058862D01*
X101594053Y-62063793D01*
X101594050Y-62063795D01*
X101493035Y-62162717D01*
X101469493Y-62185771D01*
X101371235Y-62338238D01*
X101368826Y-62344858D01*
X101368824Y-62344861D01*
X101311606Y-62502066D01*
X101309197Y-62508685D01*
X101286463Y-62688640D01*
X65770000Y-62688640D01*
X65770000Y-57306695D01*
X77307251Y-57306695D01*
X77307548Y-57311848D01*
X77307548Y-57311851D01*
X77313011Y-57406590D01*
X77320110Y-57529715D01*
X77321247Y-57534761D01*
X77321248Y-57534767D01*
X77341119Y-57622939D01*
X77369222Y-57747639D01*
X77453266Y-57954616D01*
X77569987Y-58145088D01*
X77716250Y-58313938D01*
X77888126Y-58456632D01*
X78081000Y-58569338D01*
X78289692Y-58649030D01*
X78294760Y-58650061D01*
X78294763Y-58650062D01*
X78402017Y-58671883D01*
X78508597Y-58693567D01*
X78513772Y-58693757D01*
X78513774Y-58693757D01*
X78726673Y-58701564D01*
X78726677Y-58701564D01*
X78731837Y-58701753D01*
X78736957Y-58701097D01*
X78736959Y-58701097D01*
X78948288Y-58674025D01*
X78948289Y-58674025D01*
X78953416Y-58673368D01*
X78958366Y-58671883D01*
X79162429Y-58610661D01*
X79162434Y-58610659D01*
X79167384Y-58609174D01*
X79367994Y-58510896D01*
X79549860Y-58381173D01*
X79555985Y-58375070D01*
X79704435Y-58227137D01*
X79708096Y-58223489D01*
X79715653Y-58212973D01*
X79835435Y-58046277D01*
X79838453Y-58042077D01*
X79881699Y-57954576D01*
X79935136Y-57846453D01*
X79935137Y-57846451D01*
X79937430Y-57841811D01*
X79980494Y-57700072D01*
X80000865Y-57633023D01*
X80000865Y-57633021D01*
X80002370Y-57628069D01*
X80031529Y-57406590D01*
X80031611Y-57403240D01*
X80033074Y-57343365D01*
X80033074Y-57343361D01*
X80033156Y-57340000D01*
X80014852Y-57117361D01*
X79960431Y-56900702D01*
X79871354Y-56695840D01*
X79775981Y-56548416D01*
X79752822Y-56512617D01*
X79752820Y-56512614D01*
X79750014Y-56508277D01*
X79599670Y-56343051D01*
X79595619Y-56339852D01*
X79595615Y-56339848D01*
X79428414Y-56207800D01*
X79428410Y-56207798D01*
X79424359Y-56204598D01*
X79228789Y-56096638D01*
X79223920Y-56094914D01*
X79223916Y-56094912D01*
X79023087Y-56023795D01*
X79023083Y-56023794D01*
X79018212Y-56022069D01*
X79013119Y-56021162D01*
X79013116Y-56021161D01*
X78803373Y-55983800D01*
X78803367Y-55983799D01*
X78798284Y-55982894D01*
X78724452Y-55981992D01*
X78580081Y-55980228D01*
X78580079Y-55980228D01*
X78574911Y-55980165D01*
X78354091Y-56013955D01*
X78141756Y-56083357D01*
X77943607Y-56186507D01*
X77939474Y-56189610D01*
X77939471Y-56189612D01*
X77780493Y-56308976D01*
X77764965Y-56320635D01*
X77610629Y-56482138D01*
X77607715Y-56486410D01*
X77607714Y-56486411D01*
X77583172Y-56522389D01*
X77484743Y-56666680D01*
X77390688Y-56869305D01*
X77330989Y-57084570D01*
X77307251Y-57306695D01*
X65770000Y-57306695D01*
X65770000Y-52037404D01*
X74506941Y-52037404D01*
X74507304Y-52041552D01*
X74507304Y-52041556D01*
X74516197Y-52143198D01*
X74533091Y-52336292D01*
X74534001Y-52340364D01*
X74534002Y-52340369D01*
X74595973Y-52617611D01*
X74598540Y-52629095D01*
X74599984Y-52633018D01*
X74599984Y-52633020D01*
X74611402Y-52664053D01*
X74702140Y-52910671D01*
X74704084Y-52914359D01*
X74704088Y-52914367D01*
X74800805Y-53097807D01*
X74842069Y-53176071D01*
X75015871Y-53420633D01*
X75220490Y-53640061D01*
X75452333Y-53830498D01*
X75707325Y-53988600D01*
X75711142Y-53990316D01*
X75711145Y-53990317D01*
X75776824Y-54019834D01*
X75980988Y-54111589D01*
X76155368Y-54163574D01*
X76264514Y-54196112D01*
X76264516Y-54196112D01*
X76268513Y-54197304D01*
X76272633Y-54197957D01*
X76272635Y-54197957D01*
X76355832Y-54211134D01*
X76564848Y-54244239D01*
X76607577Y-54246179D01*
X76657262Y-54248436D01*
X76657281Y-54248436D01*
X76658681Y-54248500D01*
X76846107Y-54248500D01*
X77069370Y-54233671D01*
X77073464Y-54232846D01*
X77073468Y-54232845D01*
X77230071Y-54201268D01*
X77363480Y-54174368D01*
X77647163Y-54076688D01*
X77650896Y-54074819D01*
X77650900Y-54074817D01*
X77911691Y-53944222D01*
X77911693Y-53944221D01*
X77915435Y-53942347D01*
X78070268Y-53837123D01*
X78160125Y-53776057D01*
X78160128Y-53776055D01*
X78163584Y-53773706D01*
X78387248Y-53573726D01*
X78389966Y-53570555D01*
X78579779Y-53349097D01*
X78579782Y-53349093D01*
X78582499Y-53345923D01*
X78584773Y-53342421D01*
X78584777Y-53342416D01*
X78599484Y-53319769D01*
X83441500Y-53319769D01*
X83441800Y-53322825D01*
X83441800Y-53322832D01*
X83444064Y-53345923D01*
X83455920Y-53466833D01*
X83513084Y-53656169D01*
X83605934Y-53830796D01*
X83661454Y-53898870D01*
X83727040Y-53979287D01*
X83727043Y-53979290D01*
X83730935Y-53984062D01*
X83735682Y-53987989D01*
X83735684Y-53987991D01*
X83878575Y-54106201D01*
X83878579Y-54106203D01*
X83883325Y-54110130D01*
X84057299Y-54204198D01*
X84246232Y-54262682D01*
X84252357Y-54263326D01*
X84252358Y-54263326D01*
X84436796Y-54282711D01*
X84436798Y-54282711D01*
X84442925Y-54283355D01*
X84525424Y-54275847D01*
X84633749Y-54265989D01*
X84633752Y-54265988D01*
X84639888Y-54265430D01*
X84645794Y-54263692D01*
X84645798Y-54263691D01*
X84807686Y-54216045D01*
X84829619Y-54209590D01*
X84835077Y-54206737D01*
X84835081Y-54206735D01*
X84925853Y-54159280D01*
X85004890Y-54117960D01*
X85159025Y-53994032D01*
X85286154Y-53842526D01*
X85289121Y-53837128D01*
X85289125Y-53837123D01*
X85378467Y-53674608D01*
X85381433Y-53669213D01*
X85383846Y-53661608D01*
X85439373Y-53486564D01*
X85439373Y-53486563D01*
X85441235Y-53480694D01*
X85458500Y-53326773D01*
X85458500Y-53107138D01*
X85478502Y-53039017D01*
X85532158Y-52992524D01*
X85602432Y-52982420D01*
X85611986Y-52984172D01*
X85616460Y-52985172D01*
X85786543Y-53023190D01*
X85792088Y-53023500D01*
X85925244Y-53023500D01*
X86060037Y-53008857D01*
X86178190Y-52969094D01*
X86225204Y-52953272D01*
X86225206Y-52953271D01*
X86231675Y-52951094D01*
X86386905Y-52857823D01*
X86391862Y-52853135D01*
X86391865Y-52853133D01*
X86513527Y-52738082D01*
X86513529Y-52738080D01*
X86518485Y-52733393D01*
X86522317Y-52727755D01*
X86522320Y-52727751D01*
X86616442Y-52589255D01*
X86620277Y-52583612D01*
X86687530Y-52415466D01*
X86688644Y-52408738D01*
X86688645Y-52408734D01*
X86715993Y-52243539D01*
X86715993Y-52243536D01*
X86717108Y-52236802D01*
X86716447Y-52224176D01*
X86707987Y-52062766D01*
X86707630Y-52055953D01*
X86703665Y-52041556D01*
X86661352Y-51887941D01*
X86659539Y-51881359D01*
X86634182Y-51833265D01*
X86620105Y-51763678D01*
X86645884Y-51697527D01*
X86703335Y-51655814D01*
X86745639Y-51648500D01*
X90792773Y-51648500D01*
X90860894Y-51668502D01*
X90907387Y-51722158D01*
X90917491Y-51792432D01*
X90909762Y-51821292D01*
X90852470Y-51964534D01*
X90851356Y-51971262D01*
X90851355Y-51971266D01*
X90827270Y-52116751D01*
X90822892Y-52143198D01*
X90823249Y-52150015D01*
X90823249Y-52150019D01*
X90828151Y-52243539D01*
X90832370Y-52324047D01*
X90834181Y-52330620D01*
X90834181Y-52330623D01*
X90856206Y-52410584D01*
X90880461Y-52498641D01*
X90964922Y-52658836D01*
X90969327Y-52664049D01*
X90969330Y-52664053D01*
X91077406Y-52791943D01*
X91077410Y-52791947D01*
X91081813Y-52797157D01*
X91087237Y-52801304D01*
X91087238Y-52801305D01*
X91220257Y-52903006D01*
X91220261Y-52903009D01*
X91225678Y-52907150D01*
X91312372Y-52947576D01*
X91383631Y-52980805D01*
X91383634Y-52980806D01*
X91389808Y-52983685D01*
X91396456Y-52985171D01*
X91396459Y-52985172D01*
X91492686Y-53006681D01*
X91566543Y-53023190D01*
X91572088Y-53023500D01*
X91705244Y-53023500D01*
X91840037Y-53008857D01*
X91915312Y-52983524D01*
X91986253Y-52980754D01*
X92047432Y-53016777D01*
X92079423Y-53080158D01*
X92081500Y-53102943D01*
X92081500Y-53319769D01*
X92081800Y-53322825D01*
X92081800Y-53322832D01*
X92084064Y-53345923D01*
X92095920Y-53466833D01*
X92153084Y-53656169D01*
X92245934Y-53830796D01*
X92301454Y-53898870D01*
X92367040Y-53979287D01*
X92367043Y-53979290D01*
X92370935Y-53984062D01*
X92375682Y-53987989D01*
X92375684Y-53987991D01*
X92518575Y-54106201D01*
X92518579Y-54106203D01*
X92523325Y-54110130D01*
X92697299Y-54204198D01*
X92886232Y-54262682D01*
X92892355Y-54263325D01*
X92892357Y-54263326D01*
X92973192Y-54271822D01*
X93038849Y-54298835D01*
X93079478Y-54357057D01*
X93082181Y-54428002D01*
X93069143Y-54460127D01*
X93035473Y-54518444D01*
X92976458Y-54700072D01*
X92956496Y-54890000D01*
X92957186Y-54896565D01*
X92962864Y-54950584D01*
X92976458Y-55079928D01*
X93035473Y-55261556D01*
X93038776Y-55267278D01*
X93038777Y-55267279D01*
X93094619Y-55363999D01*
X93111500Y-55426999D01*
X93111500Y-56288105D01*
X93091498Y-56356226D01*
X93037842Y-56402719D01*
X92967568Y-56412823D01*
X92926824Y-56398720D01*
X92926752Y-56398882D01*
X92920724Y-56396198D01*
X92920722Y-56396197D01*
X92758319Y-56323891D01*
X92758318Y-56323891D01*
X92752288Y-56321206D01*
X92658888Y-56301353D01*
X92571944Y-56282872D01*
X92571939Y-56282872D01*
X92565487Y-56281500D01*
X92374513Y-56281500D01*
X92368061Y-56282872D01*
X92368056Y-56282872D01*
X92281112Y-56301353D01*
X92187712Y-56321206D01*
X92181682Y-56323891D01*
X92181681Y-56323891D01*
X92019278Y-56396197D01*
X92019276Y-56396198D01*
X92013248Y-56398882D01*
X91858747Y-56511134D01*
X91854332Y-56516037D01*
X91849420Y-56520460D01*
X91848295Y-56519211D01*
X91794986Y-56552051D01*
X91761800Y-56556500D01*
X90012775Y-56556500D01*
X89944654Y-56536498D01*
X89919140Y-56514811D01*
X89909237Y-56503812D01*
X89909228Y-56503803D01*
X89904816Y-56498904D01*
X89750315Y-56386652D01*
X89744287Y-56383968D01*
X89744285Y-56383967D01*
X89581882Y-56311661D01*
X89581881Y-56311661D01*
X89575851Y-56308976D01*
X89477661Y-56288105D01*
X89395507Y-56270642D01*
X89395502Y-56270642D01*
X89389050Y-56269270D01*
X89198076Y-56269270D01*
X89191624Y-56270642D01*
X89191619Y-56270642D01*
X89109465Y-56288105D01*
X89011275Y-56308976D01*
X89005245Y-56311661D01*
X89005244Y-56311661D01*
X88842841Y-56383967D01*
X88842839Y-56383968D01*
X88836811Y-56386652D01*
X88682310Y-56498904D01*
X88677891Y-56503812D01*
X88677888Y-56503815D01*
X88639914Y-56545990D01*
X88554523Y-56640826D01*
X88459036Y-56806214D01*
X88400021Y-56987842D01*
X88399331Y-56994403D01*
X88399331Y-56994405D01*
X88389315Y-57089707D01*
X88380059Y-57177770D01*
X88380749Y-57184335D01*
X88386844Y-57242330D01*
X88374071Y-57312169D01*
X88325569Y-57364015D01*
X88261534Y-57381500D01*
X86139924Y-57381500D01*
X86071803Y-57361498D01*
X86050829Y-57344595D01*
X85497925Y-56791691D01*
X85383739Y-56697897D01*
X85209437Y-56604438D01*
X85038089Y-56552051D01*
X85026200Y-56548416D01*
X85026198Y-56548416D01*
X85020302Y-56546613D01*
X84962449Y-56540736D01*
X84829666Y-56527248D01*
X84829661Y-56527248D01*
X84823538Y-56526626D01*
X84699475Y-56538354D01*
X84632771Y-56544659D01*
X84632769Y-56544659D01*
X84626638Y-56545239D01*
X84531871Y-56573490D01*
X84443007Y-56599981D01*
X84443005Y-56599982D01*
X84437104Y-56601741D01*
X84262154Y-56693982D01*
X84257368Y-56697858D01*
X84257366Y-56697859D01*
X84218397Y-56729416D01*
X84108453Y-56818447D01*
X83981854Y-56970396D01*
X83887178Y-57144041D01*
X83876608Y-57177770D01*
X83836206Y-57306695D01*
X83828035Y-57332768D01*
X83827370Y-57338891D01*
X83827369Y-57338895D01*
X83807341Y-57523263D01*
X83806676Y-57529388D01*
X83823913Y-57726413D01*
X83825632Y-57732330D01*
X83825633Y-57732335D01*
X83831470Y-57752425D01*
X83879091Y-57916336D01*
X83970108Y-58091926D01*
X83973948Y-58096736D01*
X84064542Y-58210223D01*
X84064549Y-58210230D01*
X84066738Y-58212973D01*
X84913149Y-59059384D01*
X84922251Y-59069527D01*
X84945968Y-59099025D01*
X84984450Y-59131315D01*
X84988062Y-59134467D01*
X84989888Y-59136123D01*
X84992075Y-59138310D01*
X84994458Y-59140267D01*
X84994463Y-59140272D01*
X85025268Y-59165576D01*
X85026252Y-59166393D01*
X85097474Y-59226154D01*
X85102147Y-59228723D01*
X85106262Y-59232103D01*
X85111691Y-59235014D01*
X85111694Y-59235016D01*
X85188180Y-59276028D01*
X85189338Y-59276657D01*
X85265388Y-59318465D01*
X85270787Y-59321433D01*
X85275865Y-59323044D01*
X85280563Y-59325563D01*
X85369498Y-59352753D01*
X85370702Y-59353128D01*
X85459306Y-59381235D01*
X85464597Y-59381828D01*
X85469698Y-59383388D01*
X85562311Y-59392795D01*
X85563431Y-59392915D01*
X85613227Y-59398500D01*
X85616756Y-59398500D01*
X85617739Y-59398555D01*
X85623426Y-59399003D01*
X85643683Y-59401060D01*
X85660336Y-59402752D01*
X85660339Y-59402752D01*
X85666463Y-59403374D01*
X85712112Y-59399059D01*
X85723969Y-59398500D01*
X91519769Y-59398500D01*
X91522825Y-59398200D01*
X91522832Y-59398200D01*
X91581340Y-59392463D01*
X91666833Y-59384080D01*
X91672734Y-59382298D01*
X91672736Y-59382298D01*
X91769324Y-59353136D01*
X91856169Y-59326916D01*
X92030796Y-59234066D01*
X92145799Y-59140272D01*
X92179287Y-59112960D01*
X92179290Y-59112957D01*
X92184062Y-59109065D01*
X92218892Y-59066963D01*
X92306201Y-58961425D01*
X92306203Y-58961421D01*
X92310130Y-58956675D01*
X92404198Y-58782701D01*
X92462682Y-58593768D01*
X92465524Y-58566731D01*
X92482711Y-58403204D01*
X92482711Y-58403202D01*
X92483355Y-58397075D01*
X92468396Y-58232701D01*
X92482141Y-58163047D01*
X92531363Y-58111883D01*
X92567680Y-58098034D01*
X92623325Y-58086206D01*
X92752288Y-58058794D01*
X92758321Y-58056108D01*
X92758327Y-58056106D01*
X92814289Y-58031190D01*
X92884656Y-58021755D01*
X92948953Y-58051861D01*
X92985371Y-58107359D01*
X93035473Y-58261556D01*
X93130960Y-58426944D01*
X93135378Y-58431851D01*
X93135379Y-58431852D01*
X93208601Y-58513173D01*
X93258747Y-58568866D01*
X93413248Y-58681118D01*
X93419276Y-58683802D01*
X93419278Y-58683803D01*
X93459595Y-58701753D01*
X93587712Y-58758794D01*
X93672489Y-58776814D01*
X93768056Y-58797128D01*
X93768061Y-58797128D01*
X93774513Y-58798500D01*
X93965487Y-58798500D01*
X93971939Y-58797128D01*
X93971944Y-58797128D01*
X94067511Y-58776814D01*
X94152288Y-58758794D01*
X94280405Y-58701753D01*
X94320722Y-58683803D01*
X94320724Y-58683802D01*
X94326752Y-58681118D01*
X94481253Y-58568866D01*
X94531399Y-58513173D01*
X94604621Y-58431852D01*
X94604622Y-58431851D01*
X94609040Y-58426944D01*
X94704527Y-58261556D01*
X94763542Y-58079928D01*
X94783504Y-57890000D01*
X94777919Y-57836857D01*
X94764232Y-57706635D01*
X94764232Y-57706633D01*
X94763542Y-57700072D01*
X94704527Y-57518444D01*
X94645381Y-57416000D01*
X94628500Y-57353001D01*
X94628500Y-55426999D01*
X94645381Y-55363999D01*
X94701223Y-55267279D01*
X94701224Y-55267278D01*
X94704527Y-55261556D01*
X94763542Y-55079928D01*
X94777137Y-54950584D01*
X94782814Y-54896565D01*
X94783504Y-54890000D01*
X94763542Y-54700072D01*
X94704527Y-54518444D01*
X94609040Y-54353056D01*
X94528576Y-54263691D01*
X94485675Y-54216045D01*
X94485674Y-54216044D01*
X94481253Y-54211134D01*
X94344242Y-54111589D01*
X94332094Y-54102763D01*
X94332093Y-54102762D01*
X94326752Y-54098882D01*
X94320724Y-54096198D01*
X94320722Y-54096197D01*
X94158319Y-54023891D01*
X94158318Y-54023891D01*
X94152288Y-54021206D01*
X94027813Y-53994748D01*
X93965340Y-53961020D01*
X93931018Y-53898870D01*
X93935746Y-53828031D01*
X93943595Y-53810800D01*
X94018467Y-53674608D01*
X94021433Y-53669213D01*
X94023846Y-53661608D01*
X94079373Y-53486564D01*
X94079373Y-53486563D01*
X94081235Y-53480694D01*
X94098500Y-53326773D01*
X94098500Y-52120231D01*
X94097814Y-52113227D01*
X94090786Y-52041556D01*
X94090379Y-52037404D01*
X98506941Y-52037404D01*
X98507304Y-52041552D01*
X98507304Y-52041556D01*
X98516197Y-52143198D01*
X98533091Y-52336292D01*
X98534001Y-52340364D01*
X98534002Y-52340369D01*
X98595973Y-52617611D01*
X98598540Y-52629095D01*
X98599984Y-52633018D01*
X98599984Y-52633020D01*
X98611402Y-52664053D01*
X98702140Y-52910671D01*
X98704084Y-52914359D01*
X98704088Y-52914367D01*
X98800805Y-53097807D01*
X98842069Y-53176071D01*
X99015871Y-53420633D01*
X99220490Y-53640061D01*
X99452333Y-53830498D01*
X99707325Y-53988600D01*
X99711142Y-53990316D01*
X99711145Y-53990317D01*
X99776824Y-54019834D01*
X99980988Y-54111589D01*
X100155368Y-54163574D01*
X100264514Y-54196112D01*
X100264516Y-54196112D01*
X100268513Y-54197304D01*
X100272633Y-54197957D01*
X100272635Y-54197957D01*
X100355832Y-54211134D01*
X100564848Y-54244239D01*
X100607577Y-54246179D01*
X100657262Y-54248436D01*
X100657281Y-54248436D01*
X100658681Y-54248500D01*
X100846107Y-54248500D01*
X101069370Y-54233671D01*
X101073464Y-54232846D01*
X101073468Y-54232845D01*
X101230071Y-54201268D01*
X101363480Y-54174368D01*
X101647163Y-54076688D01*
X101650896Y-54074819D01*
X101650900Y-54074817D01*
X101911691Y-53944222D01*
X101911693Y-53944221D01*
X101915435Y-53942347D01*
X102070268Y-53837123D01*
X102160125Y-53776057D01*
X102160128Y-53776055D01*
X102163584Y-53773706D01*
X102387248Y-53573726D01*
X102389966Y-53570555D01*
X102579779Y-53349097D01*
X102579782Y-53349093D01*
X102582499Y-53345923D01*
X102584773Y-53342421D01*
X102584777Y-53342416D01*
X102743628Y-53097807D01*
X102743631Y-53097802D01*
X102745907Y-53094297D01*
X102874600Y-52823270D01*
X102925720Y-52664053D01*
X102965038Y-52541591D01*
X102965038Y-52541590D01*
X102966318Y-52537604D01*
X103003559Y-52330623D01*
X103018709Y-52246425D01*
X103018710Y-52246420D01*
X103019448Y-52242316D01*
X103019699Y-52236802D01*
X103032870Y-51946766D01*
X103032870Y-51946760D01*
X103033059Y-51942596D01*
X103030132Y-51909134D01*
X103007273Y-51647870D01*
X103006909Y-51643708D01*
X102999197Y-51609204D01*
X102942372Y-51354984D01*
X102942371Y-51354981D01*
X102941460Y-51350905D01*
X102837860Y-51069329D01*
X102835916Y-51065641D01*
X102835912Y-51065633D01*
X102801308Y-51000000D01*
X115186835Y-51000000D01*
X115205465Y-51236711D01*
X115206619Y-51241518D01*
X115206620Y-51241524D01*
X115233860Y-51354984D01*
X115260895Y-51467594D01*
X115262788Y-51472165D01*
X115262789Y-51472167D01*
X115338858Y-51655814D01*
X115351760Y-51686963D01*
X115354346Y-51691183D01*
X115473241Y-51885202D01*
X115473245Y-51885208D01*
X115475824Y-51889416D01*
X115630031Y-52069969D01*
X115810584Y-52224176D01*
X115814792Y-52226755D01*
X115814798Y-52226759D01*
X115962440Y-52317234D01*
X116013037Y-52348240D01*
X116017607Y-52350133D01*
X116017611Y-52350135D01*
X116227833Y-52437211D01*
X116232406Y-52439105D01*
X116312609Y-52458360D01*
X116458476Y-52493380D01*
X116458482Y-52493381D01*
X116463289Y-52494535D01*
X116700000Y-52513165D01*
X116936711Y-52494535D01*
X116941518Y-52493381D01*
X116941524Y-52493380D01*
X117087391Y-52458360D01*
X117167594Y-52439105D01*
X117172167Y-52437211D01*
X117382389Y-52350135D01*
X117382393Y-52350133D01*
X117386963Y-52348240D01*
X117437560Y-52317234D01*
X117585202Y-52226759D01*
X117585208Y-52226755D01*
X117589416Y-52224176D01*
X117769969Y-52069969D01*
X117773177Y-52066213D01*
X117773182Y-52066208D01*
X117874189Y-51947944D01*
X117933639Y-51909134D01*
X118004634Y-51908628D01*
X118065811Y-51947944D01*
X118166818Y-52066208D01*
X118166823Y-52066213D01*
X118170031Y-52069969D01*
X118350584Y-52224176D01*
X118354792Y-52226755D01*
X118354798Y-52226759D01*
X118502440Y-52317234D01*
X118553037Y-52348240D01*
X118557607Y-52350133D01*
X118557611Y-52350135D01*
X118767833Y-52437211D01*
X118772406Y-52439105D01*
X118852609Y-52458360D01*
X118998476Y-52493380D01*
X118998482Y-52493381D01*
X119003289Y-52494535D01*
X119240000Y-52513165D01*
X119476711Y-52494535D01*
X119481518Y-52493381D01*
X119481524Y-52493380D01*
X119627391Y-52458360D01*
X119707594Y-52439105D01*
X119712167Y-52437211D01*
X119922389Y-52350135D01*
X119922393Y-52350133D01*
X119926963Y-52348240D01*
X119977560Y-52317234D01*
X120125202Y-52226759D01*
X120125208Y-52226755D01*
X120129416Y-52224176D01*
X120309969Y-52069969D01*
X120313177Y-52066213D01*
X120313182Y-52066208D01*
X120414189Y-51947944D01*
X120473639Y-51909134D01*
X120544634Y-51908628D01*
X120605811Y-51947944D01*
X120706818Y-52066208D01*
X120706823Y-52066213D01*
X120710031Y-52069969D01*
X120890584Y-52224176D01*
X120894792Y-52226755D01*
X120894798Y-52226759D01*
X121042440Y-52317234D01*
X121093037Y-52348240D01*
X121097607Y-52350133D01*
X121097611Y-52350135D01*
X121307833Y-52437211D01*
X121312406Y-52439105D01*
X121392609Y-52458360D01*
X121538476Y-52493380D01*
X121538482Y-52493381D01*
X121543289Y-52494535D01*
X121780000Y-52513165D01*
X122016711Y-52494535D01*
X122021518Y-52493381D01*
X122021524Y-52493380D01*
X122167391Y-52458360D01*
X122247594Y-52439105D01*
X122252167Y-52437211D01*
X122462389Y-52350135D01*
X122462393Y-52350133D01*
X122466963Y-52348240D01*
X122517560Y-52317234D01*
X122665202Y-52226759D01*
X122665208Y-52226755D01*
X122669416Y-52224176D01*
X122849969Y-52069969D01*
X122853177Y-52066213D01*
X122853182Y-52066208D01*
X122954189Y-51947944D01*
X123013639Y-51909134D01*
X123084634Y-51908628D01*
X123145811Y-51947944D01*
X123246818Y-52066208D01*
X123246823Y-52066213D01*
X123250031Y-52069969D01*
X123430584Y-52224176D01*
X123434792Y-52226755D01*
X123434798Y-52226759D01*
X123582440Y-52317234D01*
X123633037Y-52348240D01*
X123637607Y-52350133D01*
X123637611Y-52350135D01*
X123847833Y-52437211D01*
X123852406Y-52439105D01*
X123932609Y-52458360D01*
X124078476Y-52493380D01*
X124078482Y-52493381D01*
X124083289Y-52494535D01*
X124320000Y-52513165D01*
X124556711Y-52494535D01*
X124561518Y-52493381D01*
X124561524Y-52493380D01*
X124707391Y-52458360D01*
X124787594Y-52439105D01*
X124792167Y-52437211D01*
X125002389Y-52350135D01*
X125002393Y-52350133D01*
X125006963Y-52348240D01*
X125057560Y-52317234D01*
X125205202Y-52226759D01*
X125205208Y-52226755D01*
X125209416Y-52224176D01*
X125389969Y-52069969D01*
X125393177Y-52066213D01*
X125393182Y-52066208D01*
X125494189Y-51947944D01*
X125553639Y-51909134D01*
X125624634Y-51908628D01*
X125685811Y-51947944D01*
X125786818Y-52066208D01*
X125786823Y-52066213D01*
X125790031Y-52069969D01*
X125970584Y-52224176D01*
X125974792Y-52226755D01*
X125974798Y-52226759D01*
X126122440Y-52317234D01*
X126173037Y-52348240D01*
X126177607Y-52350133D01*
X126177611Y-52350135D01*
X126387833Y-52437211D01*
X126392406Y-52439105D01*
X126472609Y-52458360D01*
X126618476Y-52493380D01*
X126618482Y-52493381D01*
X126623289Y-52494535D01*
X126860000Y-52513165D01*
X127096711Y-52494535D01*
X127101518Y-52493381D01*
X127101524Y-52493380D01*
X127247391Y-52458360D01*
X127327594Y-52439105D01*
X127332167Y-52437211D01*
X127542389Y-52350135D01*
X127542393Y-52350133D01*
X127546963Y-52348240D01*
X127597560Y-52317234D01*
X127745202Y-52226759D01*
X127745208Y-52226755D01*
X127749416Y-52224176D01*
X127929969Y-52069969D01*
X127933177Y-52066213D01*
X127933182Y-52066208D01*
X128034189Y-51947944D01*
X128093639Y-51909134D01*
X128164634Y-51908628D01*
X128225811Y-51947944D01*
X128326818Y-52066208D01*
X128326823Y-52066213D01*
X128330031Y-52069969D01*
X128510584Y-52224176D01*
X128514792Y-52226755D01*
X128514798Y-52226759D01*
X128662440Y-52317234D01*
X128713037Y-52348240D01*
X128717607Y-52350133D01*
X128717611Y-52350135D01*
X128927833Y-52437211D01*
X128932406Y-52439105D01*
X129012609Y-52458360D01*
X129158476Y-52493380D01*
X129158482Y-52493381D01*
X129163289Y-52494535D01*
X129400000Y-52513165D01*
X129636711Y-52494535D01*
X129641518Y-52493381D01*
X129641524Y-52493380D01*
X129787391Y-52458360D01*
X129867594Y-52439105D01*
X129872167Y-52437211D01*
X130082389Y-52350135D01*
X130082393Y-52350133D01*
X130086963Y-52348240D01*
X130137560Y-52317234D01*
X130285202Y-52226759D01*
X130285208Y-52226755D01*
X130289416Y-52224176D01*
X130469969Y-52069969D01*
X130473177Y-52066213D01*
X130473182Y-52066208D01*
X130574189Y-51947944D01*
X130633639Y-51909134D01*
X130704634Y-51908628D01*
X130765811Y-51947944D01*
X130866818Y-52066208D01*
X130866823Y-52066213D01*
X130870031Y-52069969D01*
X131050584Y-52224176D01*
X131054792Y-52226755D01*
X131054798Y-52226759D01*
X131202440Y-52317234D01*
X131253037Y-52348240D01*
X131257607Y-52350133D01*
X131257611Y-52350135D01*
X131467833Y-52437211D01*
X131472406Y-52439105D01*
X131552609Y-52458360D01*
X131698476Y-52493380D01*
X131698482Y-52493381D01*
X131703289Y-52494535D01*
X131940000Y-52513165D01*
X132176711Y-52494535D01*
X132181518Y-52493381D01*
X132181524Y-52493380D01*
X132327391Y-52458360D01*
X132407594Y-52439105D01*
X132412167Y-52437211D01*
X132622389Y-52350135D01*
X132622393Y-52350133D01*
X132626963Y-52348240D01*
X132677560Y-52317234D01*
X132825202Y-52226759D01*
X132825208Y-52226755D01*
X132829416Y-52224176D01*
X133009969Y-52069969D01*
X133013177Y-52066213D01*
X133013182Y-52066208D01*
X133114189Y-51947944D01*
X133173639Y-51909134D01*
X133244634Y-51908628D01*
X133305811Y-51947944D01*
X133406818Y-52066208D01*
X133406823Y-52066213D01*
X133410031Y-52069969D01*
X133590584Y-52224176D01*
X133594792Y-52226755D01*
X133594798Y-52226759D01*
X133742440Y-52317234D01*
X133793037Y-52348240D01*
X133797607Y-52350133D01*
X133797611Y-52350135D01*
X134007833Y-52437211D01*
X134012406Y-52439105D01*
X134092609Y-52458360D01*
X134238476Y-52493380D01*
X134238482Y-52493381D01*
X134243289Y-52494535D01*
X134480000Y-52513165D01*
X134716711Y-52494535D01*
X134721518Y-52493381D01*
X134721524Y-52493380D01*
X134867391Y-52458360D01*
X134947594Y-52439105D01*
X134952167Y-52437211D01*
X135162389Y-52350135D01*
X135162393Y-52350133D01*
X135166963Y-52348240D01*
X135217560Y-52317234D01*
X135365202Y-52226759D01*
X135365208Y-52226755D01*
X135369416Y-52224176D01*
X135549969Y-52069969D01*
X135553177Y-52066213D01*
X135553182Y-52066208D01*
X135654189Y-51947944D01*
X135713639Y-51909134D01*
X135784634Y-51908628D01*
X135845811Y-51947944D01*
X135946818Y-52066208D01*
X135946823Y-52066213D01*
X135950031Y-52069969D01*
X136130584Y-52224176D01*
X136134792Y-52226755D01*
X136134798Y-52226759D01*
X136282440Y-52317234D01*
X136333037Y-52348240D01*
X136337607Y-52350133D01*
X136337611Y-52350135D01*
X136547833Y-52437211D01*
X136552406Y-52439105D01*
X136632609Y-52458360D01*
X136778476Y-52493380D01*
X136778482Y-52493381D01*
X136783289Y-52494535D01*
X137020000Y-52513165D01*
X137256711Y-52494535D01*
X137261518Y-52493381D01*
X137261524Y-52493380D01*
X137407391Y-52458360D01*
X137487594Y-52439105D01*
X137492167Y-52437211D01*
X137702389Y-52350135D01*
X137702393Y-52350133D01*
X137706963Y-52348240D01*
X137757560Y-52317234D01*
X137905202Y-52226759D01*
X137905208Y-52226755D01*
X137909416Y-52224176D01*
X138089969Y-52069969D01*
X138093177Y-52066213D01*
X138093182Y-52066208D01*
X138194189Y-51947944D01*
X138253639Y-51909134D01*
X138324634Y-51908628D01*
X138385811Y-51947944D01*
X138486818Y-52066208D01*
X138486823Y-52066213D01*
X138490031Y-52069969D01*
X138670584Y-52224176D01*
X138674792Y-52226755D01*
X138674798Y-52226759D01*
X138822440Y-52317234D01*
X138873037Y-52348240D01*
X138877607Y-52350133D01*
X138877611Y-52350135D01*
X139087833Y-52437211D01*
X139092406Y-52439105D01*
X139172609Y-52458360D01*
X139318476Y-52493380D01*
X139318482Y-52493381D01*
X139323289Y-52494535D01*
X139560000Y-52513165D01*
X139796711Y-52494535D01*
X139801518Y-52493381D01*
X139801524Y-52493380D01*
X139947391Y-52458360D01*
X140027594Y-52439105D01*
X140032167Y-52437211D01*
X140242389Y-52350135D01*
X140242393Y-52350133D01*
X140246963Y-52348240D01*
X140297560Y-52317234D01*
X140445202Y-52226759D01*
X140445208Y-52226755D01*
X140449416Y-52224176D01*
X140629969Y-52069969D01*
X140633177Y-52066213D01*
X140633182Y-52066208D01*
X140734189Y-51947944D01*
X140793639Y-51909134D01*
X140864634Y-51908628D01*
X140925811Y-51947944D01*
X141026818Y-52066208D01*
X141026823Y-52066213D01*
X141030031Y-52069969D01*
X141210584Y-52224176D01*
X141214792Y-52226755D01*
X141214798Y-52226759D01*
X141362440Y-52317234D01*
X141413037Y-52348240D01*
X141417607Y-52350133D01*
X141417611Y-52350135D01*
X141627833Y-52437211D01*
X141632406Y-52439105D01*
X141712609Y-52458360D01*
X141858476Y-52493380D01*
X141858482Y-52493381D01*
X141863289Y-52494535D01*
X142100000Y-52513165D01*
X142336711Y-52494535D01*
X142341518Y-52493381D01*
X142341524Y-52493380D01*
X142487391Y-52458360D01*
X142567594Y-52439105D01*
X142572167Y-52437211D01*
X142782389Y-52350135D01*
X142782393Y-52350133D01*
X142786963Y-52348240D01*
X142837560Y-52317234D01*
X142985202Y-52226759D01*
X142985208Y-52226755D01*
X142989416Y-52224176D01*
X143169969Y-52069969D01*
X143173177Y-52066213D01*
X143173182Y-52066208D01*
X143274189Y-51947944D01*
X143333639Y-51909134D01*
X143404634Y-51908628D01*
X143465811Y-51947944D01*
X143566818Y-52066208D01*
X143566823Y-52066213D01*
X143570031Y-52069969D01*
X143750584Y-52224176D01*
X143754792Y-52226755D01*
X143754798Y-52226759D01*
X143902440Y-52317234D01*
X143953037Y-52348240D01*
X143957607Y-52350133D01*
X143957611Y-52350135D01*
X144167833Y-52437211D01*
X144172406Y-52439105D01*
X144252609Y-52458360D01*
X144398476Y-52493380D01*
X144398482Y-52493381D01*
X144403289Y-52494535D01*
X144640000Y-52513165D01*
X144876711Y-52494535D01*
X144881518Y-52493381D01*
X144881524Y-52493380D01*
X145027391Y-52458360D01*
X145107594Y-52439105D01*
X145112167Y-52437211D01*
X145322389Y-52350135D01*
X145322393Y-52350133D01*
X145326963Y-52348240D01*
X145377560Y-52317234D01*
X145525202Y-52226759D01*
X145525208Y-52226755D01*
X145529416Y-52224176D01*
X145709969Y-52069969D01*
X145713177Y-52066213D01*
X145713182Y-52066208D01*
X145814189Y-51947944D01*
X145873639Y-51909134D01*
X145944634Y-51908628D01*
X146005811Y-51947944D01*
X146106818Y-52066208D01*
X146106823Y-52066213D01*
X146110031Y-52069969D01*
X146290584Y-52224176D01*
X146294792Y-52226755D01*
X146294798Y-52226759D01*
X146442440Y-52317234D01*
X146493037Y-52348240D01*
X146497607Y-52350133D01*
X146497611Y-52350135D01*
X146707833Y-52437211D01*
X146712406Y-52439105D01*
X146792609Y-52458360D01*
X146938476Y-52493380D01*
X146938482Y-52493381D01*
X146943289Y-52494535D01*
X147180000Y-52513165D01*
X147416711Y-52494535D01*
X147421518Y-52493381D01*
X147421524Y-52493380D01*
X147567391Y-52458360D01*
X147647594Y-52439105D01*
X147652167Y-52437211D01*
X147862389Y-52350135D01*
X147862393Y-52350133D01*
X147866963Y-52348240D01*
X147917560Y-52317234D01*
X148065202Y-52226759D01*
X148065208Y-52226755D01*
X148069416Y-52224176D01*
X148249969Y-52069969D01*
X148253177Y-52066213D01*
X148253182Y-52066208D01*
X148354189Y-51947944D01*
X148413639Y-51909134D01*
X148484634Y-51908628D01*
X148545811Y-51947944D01*
X148646818Y-52066208D01*
X148646823Y-52066213D01*
X148650031Y-52069969D01*
X148830584Y-52224176D01*
X148834792Y-52226755D01*
X148834798Y-52226759D01*
X148982440Y-52317234D01*
X149033037Y-52348240D01*
X149037607Y-52350133D01*
X149037611Y-52350135D01*
X149247833Y-52437211D01*
X149252406Y-52439105D01*
X149332609Y-52458360D01*
X149478476Y-52493380D01*
X149478482Y-52493381D01*
X149483289Y-52494535D01*
X149720000Y-52513165D01*
X149956711Y-52494535D01*
X149961518Y-52493381D01*
X149961524Y-52493380D01*
X150107391Y-52458360D01*
X150187594Y-52439105D01*
X150192167Y-52437211D01*
X150402389Y-52350135D01*
X150402393Y-52350133D01*
X150406963Y-52348240D01*
X150457560Y-52317234D01*
X150605202Y-52226759D01*
X150605208Y-52226755D01*
X150609416Y-52224176D01*
X150789969Y-52069969D01*
X150793177Y-52066213D01*
X150793182Y-52066208D01*
X150894189Y-51947944D01*
X150953639Y-51909134D01*
X151024634Y-51908628D01*
X151085811Y-51947944D01*
X151186818Y-52066208D01*
X151186823Y-52066213D01*
X151190031Y-52069969D01*
X151370584Y-52224176D01*
X151374792Y-52226755D01*
X151374798Y-52226759D01*
X151522440Y-52317234D01*
X151573037Y-52348240D01*
X151577607Y-52350133D01*
X151577611Y-52350135D01*
X151787833Y-52437211D01*
X151792406Y-52439105D01*
X151872609Y-52458360D01*
X152018476Y-52493380D01*
X152018482Y-52493381D01*
X152023289Y-52494535D01*
X152260000Y-52513165D01*
X152496711Y-52494535D01*
X152501518Y-52493381D01*
X152501524Y-52493380D01*
X152647391Y-52458360D01*
X152727594Y-52439105D01*
X152732167Y-52437211D01*
X152942389Y-52350135D01*
X152942393Y-52350133D01*
X152946963Y-52348240D01*
X152997560Y-52317234D01*
X153145202Y-52226759D01*
X153145208Y-52226755D01*
X153149416Y-52224176D01*
X153329969Y-52069969D01*
X153333177Y-52066213D01*
X153333182Y-52066208D01*
X153434189Y-51947944D01*
X153493639Y-51909134D01*
X153564634Y-51908628D01*
X153625811Y-51947944D01*
X153726818Y-52066208D01*
X153726823Y-52066213D01*
X153730031Y-52069969D01*
X153910584Y-52224176D01*
X153914792Y-52226755D01*
X153914798Y-52226759D01*
X154062440Y-52317234D01*
X154113037Y-52348240D01*
X154117607Y-52350133D01*
X154117611Y-52350135D01*
X154327833Y-52437211D01*
X154332406Y-52439105D01*
X154412609Y-52458360D01*
X154558476Y-52493380D01*
X154558482Y-52493381D01*
X154563289Y-52494535D01*
X154800000Y-52513165D01*
X155036711Y-52494535D01*
X155041518Y-52493381D01*
X155041524Y-52493380D01*
X155187391Y-52458360D01*
X155267594Y-52439105D01*
X155272167Y-52437211D01*
X155482389Y-52350135D01*
X155482393Y-52350133D01*
X155486963Y-52348240D01*
X155537560Y-52317234D01*
X155685202Y-52226759D01*
X155685208Y-52226755D01*
X155689416Y-52224176D01*
X155869969Y-52069969D01*
X156024176Y-51889416D01*
X156026755Y-51885208D01*
X156026759Y-51885202D01*
X156145654Y-51691183D01*
X156148240Y-51686963D01*
X156161143Y-51655814D01*
X156237211Y-51472167D01*
X156237212Y-51472165D01*
X156239105Y-51467594D01*
X156266140Y-51354984D01*
X156293380Y-51241524D01*
X156293381Y-51241518D01*
X156294535Y-51236711D01*
X156313165Y-51000000D01*
X172476835Y-51000000D01*
X172495465Y-51236711D01*
X172496619Y-51241518D01*
X172496620Y-51241524D01*
X172523860Y-51354984D01*
X172550895Y-51467594D01*
X172552788Y-51472165D01*
X172552789Y-51472167D01*
X172628858Y-51655814D01*
X172641760Y-51686963D01*
X172644346Y-51691183D01*
X172763241Y-51885202D01*
X172763245Y-51885208D01*
X172765824Y-51889416D01*
X172920031Y-52069969D01*
X173100584Y-52224176D01*
X173104792Y-52226755D01*
X173104798Y-52226759D01*
X173252440Y-52317234D01*
X173303037Y-52348240D01*
X173307607Y-52350133D01*
X173307611Y-52350135D01*
X173517833Y-52437211D01*
X173522406Y-52439105D01*
X173602609Y-52458360D01*
X173748476Y-52493380D01*
X173748482Y-52493381D01*
X173753289Y-52494535D01*
X173990000Y-52513165D01*
X174226711Y-52494535D01*
X174231518Y-52493381D01*
X174231524Y-52493380D01*
X174377391Y-52458360D01*
X174457594Y-52439105D01*
X174462167Y-52437211D01*
X174672389Y-52350135D01*
X174672393Y-52350133D01*
X174676963Y-52348240D01*
X174727560Y-52317234D01*
X174875202Y-52226759D01*
X174875208Y-52226755D01*
X174879416Y-52224176D01*
X175059969Y-52069969D01*
X175063177Y-52066213D01*
X175063182Y-52066208D01*
X175164189Y-51947944D01*
X175223639Y-51909134D01*
X175294634Y-51908628D01*
X175355811Y-51947944D01*
X175456818Y-52066208D01*
X175456823Y-52066213D01*
X175460031Y-52069969D01*
X175640584Y-52224176D01*
X175644792Y-52226755D01*
X175644798Y-52226759D01*
X175792440Y-52317234D01*
X175843037Y-52348240D01*
X175847607Y-52350133D01*
X175847611Y-52350135D01*
X176057833Y-52437211D01*
X176062406Y-52439105D01*
X176142609Y-52458360D01*
X176288476Y-52493380D01*
X176288482Y-52493381D01*
X176293289Y-52494535D01*
X176530000Y-52513165D01*
X176766711Y-52494535D01*
X176771518Y-52493381D01*
X176771524Y-52493380D01*
X176917391Y-52458360D01*
X176997594Y-52439105D01*
X177002167Y-52437211D01*
X177212389Y-52350135D01*
X177212393Y-52350133D01*
X177216963Y-52348240D01*
X177267560Y-52317234D01*
X177415202Y-52226759D01*
X177415208Y-52226755D01*
X177419416Y-52224176D01*
X177599969Y-52069969D01*
X177603177Y-52066213D01*
X177603182Y-52066208D01*
X177704189Y-51947944D01*
X177763639Y-51909134D01*
X177834634Y-51908628D01*
X177895811Y-51947944D01*
X177996818Y-52066208D01*
X177996823Y-52066213D01*
X178000031Y-52069969D01*
X178180584Y-52224176D01*
X178184792Y-52226755D01*
X178184798Y-52226759D01*
X178332440Y-52317234D01*
X178383037Y-52348240D01*
X178387607Y-52350133D01*
X178387611Y-52350135D01*
X178597833Y-52437211D01*
X178602406Y-52439105D01*
X178682609Y-52458360D01*
X178828476Y-52493380D01*
X178828482Y-52493381D01*
X178833289Y-52494535D01*
X179070000Y-52513165D01*
X179306711Y-52494535D01*
X179311518Y-52493381D01*
X179311524Y-52493380D01*
X179457391Y-52458360D01*
X179537594Y-52439105D01*
X179542167Y-52437211D01*
X179752389Y-52350135D01*
X179752393Y-52350133D01*
X179756963Y-52348240D01*
X179807560Y-52317234D01*
X179955202Y-52226759D01*
X179955208Y-52226755D01*
X179959416Y-52224176D01*
X180139969Y-52069969D01*
X180143177Y-52066213D01*
X180143182Y-52066208D01*
X180244189Y-51947944D01*
X180303639Y-51909134D01*
X180374634Y-51908628D01*
X180435811Y-51947944D01*
X180536818Y-52066208D01*
X180536823Y-52066213D01*
X180540031Y-52069969D01*
X180720584Y-52224176D01*
X180724792Y-52226755D01*
X180724798Y-52226759D01*
X180872440Y-52317234D01*
X180923037Y-52348240D01*
X180927607Y-52350133D01*
X180927611Y-52350135D01*
X181137833Y-52437211D01*
X181142406Y-52439105D01*
X181222609Y-52458360D01*
X181368476Y-52493380D01*
X181368482Y-52493381D01*
X181373289Y-52494535D01*
X181610000Y-52513165D01*
X181846711Y-52494535D01*
X181851518Y-52493381D01*
X181851524Y-52493380D01*
X181997391Y-52458360D01*
X182077594Y-52439105D01*
X182082167Y-52437211D01*
X182292389Y-52350135D01*
X182292393Y-52350133D01*
X182296963Y-52348240D01*
X182347560Y-52317234D01*
X182495202Y-52226759D01*
X182495208Y-52226755D01*
X182499416Y-52224176D01*
X182679969Y-52069969D01*
X182683177Y-52066213D01*
X182683182Y-52066208D01*
X182784189Y-51947944D01*
X182843639Y-51909134D01*
X182914634Y-51908628D01*
X182975811Y-51947944D01*
X183076818Y-52066208D01*
X183076823Y-52066213D01*
X183080031Y-52069969D01*
X183260584Y-52224176D01*
X183264792Y-52226755D01*
X183264798Y-52226759D01*
X183412440Y-52317234D01*
X183463037Y-52348240D01*
X183467607Y-52350133D01*
X183467611Y-52350135D01*
X183677833Y-52437211D01*
X183682406Y-52439105D01*
X183762609Y-52458360D01*
X183908476Y-52493380D01*
X183908482Y-52493381D01*
X183913289Y-52494535D01*
X184150000Y-52513165D01*
X184386711Y-52494535D01*
X184391518Y-52493381D01*
X184391524Y-52493380D01*
X184537391Y-52458360D01*
X184617594Y-52439105D01*
X184622167Y-52437211D01*
X184832389Y-52350135D01*
X184832393Y-52350133D01*
X184836963Y-52348240D01*
X184887560Y-52317234D01*
X185035202Y-52226759D01*
X185035208Y-52226755D01*
X185039416Y-52224176D01*
X185219969Y-52069969D01*
X185223177Y-52066213D01*
X185223182Y-52066208D01*
X185324189Y-51947944D01*
X185383639Y-51909134D01*
X185454634Y-51908628D01*
X185515811Y-51947944D01*
X185616818Y-52066208D01*
X185616823Y-52066213D01*
X185620031Y-52069969D01*
X185800584Y-52224176D01*
X185804792Y-52226755D01*
X185804798Y-52226759D01*
X185952440Y-52317234D01*
X186003037Y-52348240D01*
X186007607Y-52350133D01*
X186007611Y-52350135D01*
X186217833Y-52437211D01*
X186222406Y-52439105D01*
X186302609Y-52458360D01*
X186448476Y-52493380D01*
X186448482Y-52493381D01*
X186453289Y-52494535D01*
X186690000Y-52513165D01*
X186926711Y-52494535D01*
X186931518Y-52493381D01*
X186931524Y-52493380D01*
X187077391Y-52458360D01*
X187157594Y-52439105D01*
X187162167Y-52437211D01*
X187372389Y-52350135D01*
X187372393Y-52350133D01*
X187376963Y-52348240D01*
X187427560Y-52317234D01*
X187575202Y-52226759D01*
X187575208Y-52226755D01*
X187579416Y-52224176D01*
X187759969Y-52069969D01*
X187763177Y-52066213D01*
X187763182Y-52066208D01*
X187864189Y-51947944D01*
X187923639Y-51909134D01*
X187994634Y-51908628D01*
X188055811Y-51947944D01*
X188156818Y-52066208D01*
X188156823Y-52066213D01*
X188160031Y-52069969D01*
X188340584Y-52224176D01*
X188344792Y-52226755D01*
X188344798Y-52226759D01*
X188492440Y-52317234D01*
X188543037Y-52348240D01*
X188547607Y-52350133D01*
X188547611Y-52350135D01*
X188757833Y-52437211D01*
X188762406Y-52439105D01*
X188842609Y-52458360D01*
X188988476Y-52493380D01*
X188988482Y-52493381D01*
X188993289Y-52494535D01*
X189230000Y-52513165D01*
X189466711Y-52494535D01*
X189471518Y-52493381D01*
X189471524Y-52493380D01*
X189617391Y-52458360D01*
X189697594Y-52439105D01*
X189702167Y-52437211D01*
X189912389Y-52350135D01*
X189912393Y-52350133D01*
X189916963Y-52348240D01*
X189967560Y-52317234D01*
X190115202Y-52226759D01*
X190115208Y-52226755D01*
X190119416Y-52224176D01*
X190299969Y-52069969D01*
X190303177Y-52066213D01*
X190303182Y-52066208D01*
X190404189Y-51947944D01*
X190463639Y-51909134D01*
X190534634Y-51908628D01*
X190595811Y-51947944D01*
X190696818Y-52066208D01*
X190696823Y-52066213D01*
X190700031Y-52069969D01*
X190880584Y-52224176D01*
X190884792Y-52226755D01*
X190884798Y-52226759D01*
X191032440Y-52317234D01*
X191083037Y-52348240D01*
X191087607Y-52350133D01*
X191087611Y-52350135D01*
X191297833Y-52437211D01*
X191302406Y-52439105D01*
X191382609Y-52458360D01*
X191528476Y-52493380D01*
X191528482Y-52493381D01*
X191533289Y-52494535D01*
X191770000Y-52513165D01*
X192006711Y-52494535D01*
X192011518Y-52493381D01*
X192011524Y-52493380D01*
X192157391Y-52458360D01*
X192237594Y-52439105D01*
X192242167Y-52437211D01*
X192452389Y-52350135D01*
X192452393Y-52350133D01*
X192456963Y-52348240D01*
X192507560Y-52317234D01*
X192655202Y-52226759D01*
X192655208Y-52226755D01*
X192659416Y-52224176D01*
X192839969Y-52069969D01*
X192843177Y-52066213D01*
X192843182Y-52066208D01*
X192944189Y-51947944D01*
X193003639Y-51909134D01*
X193074634Y-51908628D01*
X193135811Y-51947944D01*
X193236818Y-52066208D01*
X193236823Y-52066213D01*
X193240031Y-52069969D01*
X193420584Y-52224176D01*
X193424792Y-52226755D01*
X193424798Y-52226759D01*
X193572440Y-52317234D01*
X193623037Y-52348240D01*
X193627607Y-52350133D01*
X193627611Y-52350135D01*
X193837833Y-52437211D01*
X193842406Y-52439105D01*
X193922609Y-52458360D01*
X194068476Y-52493380D01*
X194068482Y-52493381D01*
X194073289Y-52494535D01*
X194310000Y-52513165D01*
X194546711Y-52494535D01*
X194551518Y-52493381D01*
X194551524Y-52493380D01*
X194697391Y-52458360D01*
X194777594Y-52439105D01*
X194782167Y-52437211D01*
X194992389Y-52350135D01*
X194992393Y-52350133D01*
X194996963Y-52348240D01*
X195047560Y-52317234D01*
X195195202Y-52226759D01*
X195195208Y-52226755D01*
X195199416Y-52224176D01*
X195379969Y-52069969D01*
X195383177Y-52066213D01*
X195383182Y-52066208D01*
X195484189Y-51947944D01*
X195543639Y-51909134D01*
X195614634Y-51908628D01*
X195675811Y-51947944D01*
X195776818Y-52066208D01*
X195776823Y-52066213D01*
X195780031Y-52069969D01*
X195960584Y-52224176D01*
X195964792Y-52226755D01*
X195964798Y-52226759D01*
X196112440Y-52317234D01*
X196163037Y-52348240D01*
X196167607Y-52350133D01*
X196167611Y-52350135D01*
X196377833Y-52437211D01*
X196382406Y-52439105D01*
X196462609Y-52458360D01*
X196608476Y-52493380D01*
X196608482Y-52493381D01*
X196613289Y-52494535D01*
X196850000Y-52513165D01*
X197086711Y-52494535D01*
X197091518Y-52493381D01*
X197091524Y-52493380D01*
X197237391Y-52458360D01*
X197317594Y-52439105D01*
X197322167Y-52437211D01*
X197532389Y-52350135D01*
X197532393Y-52350133D01*
X197536963Y-52348240D01*
X197587560Y-52317234D01*
X197735202Y-52226759D01*
X197735208Y-52226755D01*
X197739416Y-52224176D01*
X197919969Y-52069969D01*
X197923177Y-52066213D01*
X197923182Y-52066208D01*
X198024189Y-51947944D01*
X198083639Y-51909134D01*
X198154634Y-51908628D01*
X198215811Y-51947944D01*
X198316818Y-52066208D01*
X198316823Y-52066213D01*
X198320031Y-52069969D01*
X198500584Y-52224176D01*
X198504792Y-52226755D01*
X198504798Y-52226759D01*
X198652440Y-52317234D01*
X198703037Y-52348240D01*
X198707607Y-52350133D01*
X198707611Y-52350135D01*
X198917833Y-52437211D01*
X198922406Y-52439105D01*
X199002609Y-52458360D01*
X199148476Y-52493380D01*
X199148482Y-52493381D01*
X199153289Y-52494535D01*
X199390000Y-52513165D01*
X199626711Y-52494535D01*
X199631518Y-52493381D01*
X199631524Y-52493380D01*
X199777391Y-52458360D01*
X199857594Y-52439105D01*
X199862167Y-52437211D01*
X200072389Y-52350135D01*
X200072393Y-52350133D01*
X200076963Y-52348240D01*
X200127560Y-52317234D01*
X200275202Y-52226759D01*
X200275208Y-52226755D01*
X200279416Y-52224176D01*
X200459969Y-52069969D01*
X200463177Y-52066213D01*
X200463182Y-52066208D01*
X200564189Y-51947944D01*
X200623639Y-51909134D01*
X200694634Y-51908628D01*
X200755811Y-51947944D01*
X200856818Y-52066208D01*
X200856823Y-52066213D01*
X200860031Y-52069969D01*
X201040584Y-52224176D01*
X201044792Y-52226755D01*
X201044798Y-52226759D01*
X201192440Y-52317234D01*
X201243037Y-52348240D01*
X201247607Y-52350133D01*
X201247611Y-52350135D01*
X201457833Y-52437211D01*
X201462406Y-52439105D01*
X201542609Y-52458360D01*
X201688476Y-52493380D01*
X201688482Y-52493381D01*
X201693289Y-52494535D01*
X201930000Y-52513165D01*
X202166711Y-52494535D01*
X202171518Y-52493381D01*
X202171524Y-52493380D01*
X202317391Y-52458360D01*
X202397594Y-52439105D01*
X202402167Y-52437211D01*
X202612389Y-52350135D01*
X202612393Y-52350133D01*
X202616963Y-52348240D01*
X202667560Y-52317234D01*
X202815202Y-52226759D01*
X202815208Y-52226755D01*
X202819416Y-52224176D01*
X202999969Y-52069969D01*
X203154176Y-51889416D01*
X203156755Y-51885208D01*
X203156759Y-51885202D01*
X203275654Y-51691183D01*
X203278240Y-51686963D01*
X203291143Y-51655814D01*
X203367211Y-51472167D01*
X203367212Y-51472165D01*
X203369105Y-51467594D01*
X203396140Y-51354984D01*
X203423380Y-51241524D01*
X203423381Y-51241518D01*
X203424535Y-51236711D01*
X203443165Y-51000000D01*
X203424535Y-50763289D01*
X203369105Y-50532406D01*
X203339534Y-50461014D01*
X203280135Y-50317611D01*
X203280133Y-50317607D01*
X203278240Y-50313037D01*
X203262533Y-50287405D01*
X203156759Y-50114798D01*
X203156755Y-50114792D01*
X203154176Y-50110584D01*
X202999969Y-49930031D01*
X202819416Y-49775824D01*
X202815208Y-49773245D01*
X202815202Y-49773241D01*
X202621183Y-49654346D01*
X202616963Y-49651760D01*
X202612393Y-49649867D01*
X202612389Y-49649865D01*
X202402167Y-49562789D01*
X202402165Y-49562788D01*
X202397594Y-49560895D01*
X202317391Y-49541640D01*
X202171524Y-49506620D01*
X202171518Y-49506619D01*
X202166711Y-49505465D01*
X201930000Y-49486835D01*
X201693289Y-49505465D01*
X201688482Y-49506619D01*
X201688476Y-49506620D01*
X201542609Y-49541640D01*
X201462406Y-49560895D01*
X201457835Y-49562788D01*
X201457833Y-49562789D01*
X201247611Y-49649865D01*
X201247607Y-49649867D01*
X201243037Y-49651760D01*
X201238817Y-49654346D01*
X201044798Y-49773241D01*
X201044792Y-49773245D01*
X201040584Y-49775824D01*
X200860031Y-49930031D01*
X200856823Y-49933787D01*
X200856818Y-49933792D01*
X200755811Y-50052056D01*
X200696361Y-50090866D01*
X200625366Y-50091372D01*
X200564189Y-50052056D01*
X200463182Y-49933792D01*
X200463177Y-49933787D01*
X200459969Y-49930031D01*
X200279416Y-49775824D01*
X200275208Y-49773245D01*
X200275202Y-49773241D01*
X200081183Y-49654346D01*
X200076963Y-49651760D01*
X200072393Y-49649867D01*
X200072389Y-49649865D01*
X199862167Y-49562789D01*
X199862165Y-49562788D01*
X199857594Y-49560895D01*
X199777391Y-49541640D01*
X199631524Y-49506620D01*
X199631518Y-49506619D01*
X199626711Y-49505465D01*
X199390000Y-49486835D01*
X199153289Y-49505465D01*
X199148482Y-49506619D01*
X199148476Y-49506620D01*
X199002609Y-49541640D01*
X198922406Y-49560895D01*
X198917835Y-49562788D01*
X198917833Y-49562789D01*
X198707611Y-49649865D01*
X198707607Y-49649867D01*
X198703037Y-49651760D01*
X198698817Y-49654346D01*
X198504798Y-49773241D01*
X198504792Y-49773245D01*
X198500584Y-49775824D01*
X198320031Y-49930031D01*
X198316823Y-49933787D01*
X198316818Y-49933792D01*
X198215811Y-50052056D01*
X198156361Y-50090866D01*
X198085366Y-50091372D01*
X198024189Y-50052056D01*
X197923182Y-49933792D01*
X197923177Y-49933787D01*
X197919969Y-49930031D01*
X197739416Y-49775824D01*
X197735208Y-49773245D01*
X197735202Y-49773241D01*
X197541183Y-49654346D01*
X197536963Y-49651760D01*
X197532393Y-49649867D01*
X197532389Y-49649865D01*
X197322167Y-49562789D01*
X197322165Y-49562788D01*
X197317594Y-49560895D01*
X197237391Y-49541640D01*
X197091524Y-49506620D01*
X197091518Y-49506619D01*
X197086711Y-49505465D01*
X196850000Y-49486835D01*
X196613289Y-49505465D01*
X196608482Y-49506619D01*
X196608476Y-49506620D01*
X196462609Y-49541640D01*
X196382406Y-49560895D01*
X196377835Y-49562788D01*
X196377833Y-49562789D01*
X196167611Y-49649865D01*
X196167607Y-49649867D01*
X196163037Y-49651760D01*
X196158817Y-49654346D01*
X195964798Y-49773241D01*
X195964792Y-49773245D01*
X195960584Y-49775824D01*
X195780031Y-49930031D01*
X195776823Y-49933787D01*
X195776818Y-49933792D01*
X195675811Y-50052056D01*
X195616361Y-50090866D01*
X195545366Y-50091372D01*
X195484189Y-50052056D01*
X195383182Y-49933792D01*
X195383177Y-49933787D01*
X195379969Y-49930031D01*
X195199416Y-49775824D01*
X195195208Y-49773245D01*
X195195202Y-49773241D01*
X195001183Y-49654346D01*
X194996963Y-49651760D01*
X194992393Y-49649867D01*
X194992389Y-49649865D01*
X194782167Y-49562789D01*
X194782165Y-49562788D01*
X194777594Y-49560895D01*
X194697391Y-49541640D01*
X194551524Y-49506620D01*
X194551518Y-49506619D01*
X194546711Y-49505465D01*
X194310000Y-49486835D01*
X194073289Y-49505465D01*
X194068482Y-49506619D01*
X194068476Y-49506620D01*
X193922609Y-49541640D01*
X193842406Y-49560895D01*
X193837835Y-49562788D01*
X193837833Y-49562789D01*
X193627611Y-49649865D01*
X193627607Y-49649867D01*
X193623037Y-49651760D01*
X193618817Y-49654346D01*
X193424798Y-49773241D01*
X193424792Y-49773245D01*
X193420584Y-49775824D01*
X193240031Y-49930031D01*
X193236823Y-49933787D01*
X193236818Y-49933792D01*
X193135811Y-50052056D01*
X193076361Y-50090866D01*
X193005366Y-50091372D01*
X192944189Y-50052056D01*
X192843182Y-49933792D01*
X192843177Y-49933787D01*
X192839969Y-49930031D01*
X192659416Y-49775824D01*
X192655208Y-49773245D01*
X192655202Y-49773241D01*
X192461183Y-49654346D01*
X192456963Y-49651760D01*
X192452393Y-49649867D01*
X192452389Y-49649865D01*
X192242167Y-49562789D01*
X192242165Y-49562788D01*
X192237594Y-49560895D01*
X192157391Y-49541640D01*
X192011524Y-49506620D01*
X192011518Y-49506619D01*
X192006711Y-49505465D01*
X191770000Y-49486835D01*
X191533289Y-49505465D01*
X191528482Y-49506619D01*
X191528476Y-49506620D01*
X191382609Y-49541640D01*
X191302406Y-49560895D01*
X191297835Y-49562788D01*
X191297833Y-49562789D01*
X191087611Y-49649865D01*
X191087607Y-49649867D01*
X191083037Y-49651760D01*
X191078817Y-49654346D01*
X190884798Y-49773241D01*
X190884792Y-49773245D01*
X190880584Y-49775824D01*
X190700031Y-49930031D01*
X190696823Y-49933787D01*
X190696818Y-49933792D01*
X190595811Y-50052056D01*
X190536361Y-50090866D01*
X190465366Y-50091372D01*
X190404189Y-50052056D01*
X190303182Y-49933792D01*
X190303177Y-49933787D01*
X190299969Y-49930031D01*
X190119416Y-49775824D01*
X190115208Y-49773245D01*
X190115202Y-49773241D01*
X189921183Y-49654346D01*
X189916963Y-49651760D01*
X189912393Y-49649867D01*
X189912389Y-49649865D01*
X189702167Y-49562789D01*
X189702165Y-49562788D01*
X189697594Y-49560895D01*
X189617391Y-49541640D01*
X189471524Y-49506620D01*
X189471518Y-49506619D01*
X189466711Y-49505465D01*
X189230000Y-49486835D01*
X188993289Y-49505465D01*
X188988482Y-49506619D01*
X188988476Y-49506620D01*
X188842609Y-49541640D01*
X188762406Y-49560895D01*
X188757835Y-49562788D01*
X188757833Y-49562789D01*
X188547611Y-49649865D01*
X188547607Y-49649867D01*
X188543037Y-49651760D01*
X188538817Y-49654346D01*
X188344798Y-49773241D01*
X188344792Y-49773245D01*
X188340584Y-49775824D01*
X188160031Y-49930031D01*
X188156823Y-49933787D01*
X188156818Y-49933792D01*
X188055811Y-50052056D01*
X187996361Y-50090866D01*
X187925366Y-50091372D01*
X187864189Y-50052056D01*
X187763182Y-49933792D01*
X187763177Y-49933787D01*
X187759969Y-49930031D01*
X187579416Y-49775824D01*
X187575208Y-49773245D01*
X187575202Y-49773241D01*
X187381183Y-49654346D01*
X187376963Y-49651760D01*
X187372393Y-49649867D01*
X187372389Y-49649865D01*
X187162167Y-49562789D01*
X187162165Y-49562788D01*
X187157594Y-49560895D01*
X187077391Y-49541640D01*
X186931524Y-49506620D01*
X186931518Y-49506619D01*
X186926711Y-49505465D01*
X186690000Y-49486835D01*
X186453289Y-49505465D01*
X186448482Y-49506619D01*
X186448476Y-49506620D01*
X186302609Y-49541640D01*
X186222406Y-49560895D01*
X186217835Y-49562788D01*
X186217833Y-49562789D01*
X186007611Y-49649865D01*
X186007607Y-49649867D01*
X186003037Y-49651760D01*
X185998817Y-49654346D01*
X185804798Y-49773241D01*
X185804792Y-49773245D01*
X185800584Y-49775824D01*
X185620031Y-49930031D01*
X185616823Y-49933787D01*
X185616818Y-49933792D01*
X185515811Y-50052056D01*
X185456361Y-50090866D01*
X185385366Y-50091372D01*
X185324189Y-50052056D01*
X185223182Y-49933792D01*
X185223177Y-49933787D01*
X185219969Y-49930031D01*
X185039416Y-49775824D01*
X185035208Y-49773245D01*
X185035202Y-49773241D01*
X184841183Y-49654346D01*
X184836963Y-49651760D01*
X184832393Y-49649867D01*
X184832389Y-49649865D01*
X184622167Y-49562789D01*
X184622165Y-49562788D01*
X184617594Y-49560895D01*
X184537391Y-49541640D01*
X184391524Y-49506620D01*
X184391518Y-49506619D01*
X184386711Y-49505465D01*
X184150000Y-49486835D01*
X183913289Y-49505465D01*
X183908482Y-49506619D01*
X183908476Y-49506620D01*
X183762609Y-49541640D01*
X183682406Y-49560895D01*
X183677835Y-49562788D01*
X183677833Y-49562789D01*
X183467611Y-49649865D01*
X183467607Y-49649867D01*
X183463037Y-49651760D01*
X183458817Y-49654346D01*
X183264798Y-49773241D01*
X183264792Y-49773245D01*
X183260584Y-49775824D01*
X183080031Y-49930031D01*
X183076823Y-49933787D01*
X183076818Y-49933792D01*
X182975811Y-50052056D01*
X182916361Y-50090866D01*
X182845366Y-50091372D01*
X182784189Y-50052056D01*
X182683182Y-49933792D01*
X182683177Y-49933787D01*
X182679969Y-49930031D01*
X182499416Y-49775824D01*
X182495208Y-49773245D01*
X182495202Y-49773241D01*
X182301183Y-49654346D01*
X182296963Y-49651760D01*
X182292393Y-49649867D01*
X182292389Y-49649865D01*
X182082167Y-49562789D01*
X182082165Y-49562788D01*
X182077594Y-49560895D01*
X181997391Y-49541640D01*
X181851524Y-49506620D01*
X181851518Y-49506619D01*
X181846711Y-49505465D01*
X181610000Y-49486835D01*
X181373289Y-49505465D01*
X181368482Y-49506619D01*
X181368476Y-49506620D01*
X181222609Y-49541640D01*
X181142406Y-49560895D01*
X181137835Y-49562788D01*
X181137833Y-49562789D01*
X180927611Y-49649865D01*
X180927607Y-49649867D01*
X180923037Y-49651760D01*
X180918817Y-49654346D01*
X180724798Y-49773241D01*
X180724792Y-49773245D01*
X180720584Y-49775824D01*
X180540031Y-49930031D01*
X180536823Y-49933787D01*
X180536818Y-49933792D01*
X180435811Y-50052056D01*
X180376361Y-50090866D01*
X180305366Y-50091372D01*
X180244189Y-50052056D01*
X180143182Y-49933792D01*
X180143177Y-49933787D01*
X180139969Y-49930031D01*
X179959416Y-49775824D01*
X179955208Y-49773245D01*
X179955202Y-49773241D01*
X179761183Y-49654346D01*
X179756963Y-49651760D01*
X179752393Y-49649867D01*
X179752389Y-49649865D01*
X179542167Y-49562789D01*
X179542165Y-49562788D01*
X179537594Y-49560895D01*
X179457391Y-49541640D01*
X179311524Y-49506620D01*
X179311518Y-49506619D01*
X179306711Y-49505465D01*
X179070000Y-49486835D01*
X178833289Y-49505465D01*
X178828482Y-49506619D01*
X178828476Y-49506620D01*
X178682609Y-49541640D01*
X178602406Y-49560895D01*
X178597835Y-49562788D01*
X178597833Y-49562789D01*
X178387611Y-49649865D01*
X178387607Y-49649867D01*
X178383037Y-49651760D01*
X178378817Y-49654346D01*
X178184798Y-49773241D01*
X178184792Y-49773245D01*
X178180584Y-49775824D01*
X178000031Y-49930031D01*
X177996823Y-49933787D01*
X177996818Y-49933792D01*
X177895811Y-50052056D01*
X177836361Y-50090866D01*
X177765366Y-50091372D01*
X177704189Y-50052056D01*
X177603182Y-49933792D01*
X177603177Y-49933787D01*
X177599969Y-49930031D01*
X177419416Y-49775824D01*
X177415208Y-49773245D01*
X177415202Y-49773241D01*
X177221183Y-49654346D01*
X177216963Y-49651760D01*
X177212393Y-49649867D01*
X177212389Y-49649865D01*
X177002167Y-49562789D01*
X177002165Y-49562788D01*
X176997594Y-49560895D01*
X176917391Y-49541640D01*
X176771524Y-49506620D01*
X176771518Y-49506619D01*
X176766711Y-49505465D01*
X176530000Y-49486835D01*
X176293289Y-49505465D01*
X176288482Y-49506619D01*
X176288476Y-49506620D01*
X176142609Y-49541640D01*
X176062406Y-49560895D01*
X176057835Y-49562788D01*
X176057833Y-49562789D01*
X175847611Y-49649865D01*
X175847607Y-49649867D01*
X175843037Y-49651760D01*
X175838817Y-49654346D01*
X175644798Y-49773241D01*
X175644792Y-49773245D01*
X175640584Y-49775824D01*
X175460031Y-49930031D01*
X175456823Y-49933787D01*
X175456818Y-49933792D01*
X175355811Y-50052056D01*
X175296361Y-50090866D01*
X175225366Y-50091372D01*
X175164189Y-50052056D01*
X175063182Y-49933792D01*
X175063177Y-49933787D01*
X175059969Y-49930031D01*
X174879416Y-49775824D01*
X174875208Y-49773245D01*
X174875202Y-49773241D01*
X174681183Y-49654346D01*
X174676963Y-49651760D01*
X174672393Y-49649867D01*
X174672389Y-49649865D01*
X174462167Y-49562789D01*
X174462165Y-49562788D01*
X174457594Y-49560895D01*
X174377391Y-49541640D01*
X174231524Y-49506620D01*
X174231518Y-49506619D01*
X174226711Y-49505465D01*
X173990000Y-49486835D01*
X173753289Y-49505465D01*
X173748482Y-49506619D01*
X173748476Y-49506620D01*
X173602609Y-49541640D01*
X173522406Y-49560895D01*
X173517835Y-49562788D01*
X173517833Y-49562789D01*
X173307611Y-49649865D01*
X173307607Y-49649867D01*
X173303037Y-49651760D01*
X173298817Y-49654346D01*
X173104798Y-49773241D01*
X173104792Y-49773245D01*
X173100584Y-49775824D01*
X172920031Y-49930031D01*
X172765824Y-50110584D01*
X172763245Y-50114792D01*
X172763241Y-50114798D01*
X172657467Y-50287405D01*
X172641760Y-50313037D01*
X172639867Y-50317607D01*
X172639865Y-50317611D01*
X172580466Y-50461014D01*
X172550895Y-50532406D01*
X172495465Y-50763289D01*
X172476835Y-51000000D01*
X156313165Y-51000000D01*
X156294535Y-50763289D01*
X156239105Y-50532406D01*
X156209534Y-50461014D01*
X156150135Y-50317611D01*
X156150133Y-50317607D01*
X156148240Y-50313037D01*
X156132533Y-50287405D01*
X156026759Y-50114798D01*
X156026755Y-50114792D01*
X156024176Y-50110584D01*
X155869969Y-49930031D01*
X155689416Y-49775824D01*
X155685208Y-49773245D01*
X155685202Y-49773241D01*
X155491183Y-49654346D01*
X155486963Y-49651760D01*
X155482393Y-49649867D01*
X155482389Y-49649865D01*
X155272167Y-49562789D01*
X155272165Y-49562788D01*
X155267594Y-49560895D01*
X155187391Y-49541640D01*
X155041524Y-49506620D01*
X155041518Y-49506619D01*
X155036711Y-49505465D01*
X154800000Y-49486835D01*
X154563289Y-49505465D01*
X154558482Y-49506619D01*
X154558476Y-49506620D01*
X154412609Y-49541640D01*
X154332406Y-49560895D01*
X154327835Y-49562788D01*
X154327833Y-49562789D01*
X154117611Y-49649865D01*
X154117607Y-49649867D01*
X154113037Y-49651760D01*
X154108817Y-49654346D01*
X153914798Y-49773241D01*
X153914792Y-49773245D01*
X153910584Y-49775824D01*
X153730031Y-49930031D01*
X153726823Y-49933787D01*
X153726818Y-49933792D01*
X153625811Y-50052056D01*
X153566361Y-50090866D01*
X153495366Y-50091372D01*
X153434189Y-50052056D01*
X153333182Y-49933792D01*
X153333177Y-49933787D01*
X153329969Y-49930031D01*
X153149416Y-49775824D01*
X153145208Y-49773245D01*
X153145202Y-49773241D01*
X152951183Y-49654346D01*
X152946963Y-49651760D01*
X152942393Y-49649867D01*
X152942389Y-49649865D01*
X152732167Y-49562789D01*
X152732165Y-49562788D01*
X152727594Y-49560895D01*
X152647391Y-49541640D01*
X152501524Y-49506620D01*
X152501518Y-49506619D01*
X152496711Y-49505465D01*
X152260000Y-49486835D01*
X152023289Y-49505465D01*
X152018482Y-49506619D01*
X152018476Y-49506620D01*
X151872609Y-49541640D01*
X151792406Y-49560895D01*
X151787835Y-49562788D01*
X151787833Y-49562789D01*
X151577611Y-49649865D01*
X151577607Y-49649867D01*
X151573037Y-49651760D01*
X151568817Y-49654346D01*
X151374798Y-49773241D01*
X151374792Y-49773245D01*
X151370584Y-49775824D01*
X151190031Y-49930031D01*
X151186823Y-49933787D01*
X151186818Y-49933792D01*
X151085811Y-50052056D01*
X151026361Y-50090866D01*
X150955366Y-50091372D01*
X150894189Y-50052056D01*
X150793182Y-49933792D01*
X150793177Y-49933787D01*
X150789969Y-49930031D01*
X150609416Y-49775824D01*
X150605208Y-49773245D01*
X150605202Y-49773241D01*
X150411183Y-49654346D01*
X150406963Y-49651760D01*
X150402393Y-49649867D01*
X150402389Y-49649865D01*
X150192167Y-49562789D01*
X150192165Y-49562788D01*
X150187594Y-49560895D01*
X150107391Y-49541640D01*
X149961524Y-49506620D01*
X149961518Y-49506619D01*
X149956711Y-49505465D01*
X149720000Y-49486835D01*
X149483289Y-49505465D01*
X149478482Y-49506619D01*
X149478476Y-49506620D01*
X149332609Y-49541640D01*
X149252406Y-49560895D01*
X149247835Y-49562788D01*
X149247833Y-49562789D01*
X149037611Y-49649865D01*
X149037607Y-49649867D01*
X149033037Y-49651760D01*
X149028817Y-49654346D01*
X148834798Y-49773241D01*
X148834792Y-49773245D01*
X148830584Y-49775824D01*
X148650031Y-49930031D01*
X148646823Y-49933787D01*
X148646818Y-49933792D01*
X148545811Y-50052056D01*
X148486361Y-50090866D01*
X148415366Y-50091372D01*
X148354189Y-50052056D01*
X148253182Y-49933792D01*
X148253177Y-49933787D01*
X148249969Y-49930031D01*
X148069416Y-49775824D01*
X148065208Y-49773245D01*
X148065202Y-49773241D01*
X147871183Y-49654346D01*
X147866963Y-49651760D01*
X147862393Y-49649867D01*
X147862389Y-49649865D01*
X147652167Y-49562789D01*
X147652165Y-49562788D01*
X147647594Y-49560895D01*
X147567391Y-49541640D01*
X147421524Y-49506620D01*
X147421518Y-49506619D01*
X147416711Y-49505465D01*
X147180000Y-49486835D01*
X146943289Y-49505465D01*
X146938482Y-49506619D01*
X146938476Y-49506620D01*
X146792609Y-49541640D01*
X146712406Y-49560895D01*
X146707835Y-49562788D01*
X146707833Y-49562789D01*
X146497611Y-49649865D01*
X146497607Y-49649867D01*
X146493037Y-49651760D01*
X146488817Y-49654346D01*
X146294798Y-49773241D01*
X146294792Y-49773245D01*
X146290584Y-49775824D01*
X146110031Y-49930031D01*
X146106823Y-49933787D01*
X146106818Y-49933792D01*
X146005811Y-50052056D01*
X145946361Y-50090866D01*
X145875366Y-50091372D01*
X145814189Y-50052056D01*
X145713182Y-49933792D01*
X145713177Y-49933787D01*
X145709969Y-49930031D01*
X145529416Y-49775824D01*
X145525208Y-49773245D01*
X145525202Y-49773241D01*
X145331183Y-49654346D01*
X145326963Y-49651760D01*
X145322393Y-49649867D01*
X145322389Y-49649865D01*
X145112167Y-49562789D01*
X145112165Y-49562788D01*
X145107594Y-49560895D01*
X145027391Y-49541640D01*
X144881524Y-49506620D01*
X144881518Y-49506619D01*
X144876711Y-49505465D01*
X144640000Y-49486835D01*
X144403289Y-49505465D01*
X144398482Y-49506619D01*
X144398476Y-49506620D01*
X144252609Y-49541640D01*
X144172406Y-49560895D01*
X144167835Y-49562788D01*
X144167833Y-49562789D01*
X143957611Y-49649865D01*
X143957607Y-49649867D01*
X143953037Y-49651760D01*
X143948817Y-49654346D01*
X143754798Y-49773241D01*
X143754792Y-49773245D01*
X143750584Y-49775824D01*
X143570031Y-49930031D01*
X143566823Y-49933787D01*
X143566818Y-49933792D01*
X143465811Y-50052056D01*
X143406361Y-50090866D01*
X143335366Y-50091372D01*
X143274189Y-50052056D01*
X143173182Y-49933792D01*
X143173177Y-49933787D01*
X143169969Y-49930031D01*
X142989416Y-49775824D01*
X142985208Y-49773245D01*
X142985202Y-49773241D01*
X142791183Y-49654346D01*
X142786963Y-49651760D01*
X142782393Y-49649867D01*
X142782389Y-49649865D01*
X142572167Y-49562789D01*
X142572165Y-49562788D01*
X142567594Y-49560895D01*
X142487391Y-49541640D01*
X142341524Y-49506620D01*
X142341518Y-49506619D01*
X142336711Y-49505465D01*
X142100000Y-49486835D01*
X141863289Y-49505465D01*
X141858482Y-49506619D01*
X141858476Y-49506620D01*
X141712609Y-49541640D01*
X141632406Y-49560895D01*
X141627835Y-49562788D01*
X141627833Y-49562789D01*
X141417611Y-49649865D01*
X141417607Y-49649867D01*
X141413037Y-49651760D01*
X141408817Y-49654346D01*
X141214798Y-49773241D01*
X141214792Y-49773245D01*
X141210584Y-49775824D01*
X141030031Y-49930031D01*
X141026823Y-49933787D01*
X141026818Y-49933792D01*
X140925811Y-50052056D01*
X140866361Y-50090866D01*
X140795366Y-50091372D01*
X140734189Y-50052056D01*
X140633182Y-49933792D01*
X140633177Y-49933787D01*
X140629969Y-49930031D01*
X140449416Y-49775824D01*
X140445208Y-49773245D01*
X140445202Y-49773241D01*
X140251183Y-49654346D01*
X140246963Y-49651760D01*
X140242393Y-49649867D01*
X140242389Y-49649865D01*
X140032167Y-49562789D01*
X140032165Y-49562788D01*
X140027594Y-49560895D01*
X139947391Y-49541640D01*
X139801524Y-49506620D01*
X139801518Y-49506619D01*
X139796711Y-49505465D01*
X139560000Y-49486835D01*
X139323289Y-49505465D01*
X139318482Y-49506619D01*
X139318476Y-49506620D01*
X139172609Y-49541640D01*
X139092406Y-49560895D01*
X139087835Y-49562788D01*
X139087833Y-49562789D01*
X138877611Y-49649865D01*
X138877607Y-49649867D01*
X138873037Y-49651760D01*
X138868817Y-49654346D01*
X138674798Y-49773241D01*
X138674792Y-49773245D01*
X138670584Y-49775824D01*
X138490031Y-49930031D01*
X138486823Y-49933787D01*
X138486818Y-49933792D01*
X138385811Y-50052056D01*
X138326361Y-50090866D01*
X138255366Y-50091372D01*
X138194189Y-50052056D01*
X138093182Y-49933792D01*
X138093177Y-49933787D01*
X138089969Y-49930031D01*
X137909416Y-49775824D01*
X137905208Y-49773245D01*
X137905202Y-49773241D01*
X137711183Y-49654346D01*
X137706963Y-49651760D01*
X137702393Y-49649867D01*
X137702389Y-49649865D01*
X137492167Y-49562789D01*
X137492165Y-49562788D01*
X137487594Y-49560895D01*
X137407391Y-49541640D01*
X137261524Y-49506620D01*
X137261518Y-49506619D01*
X137256711Y-49505465D01*
X137020000Y-49486835D01*
X136783289Y-49505465D01*
X136778482Y-49506619D01*
X136778476Y-49506620D01*
X136632609Y-49541640D01*
X136552406Y-49560895D01*
X136547835Y-49562788D01*
X136547833Y-49562789D01*
X136337611Y-49649865D01*
X136337607Y-49649867D01*
X136333037Y-49651760D01*
X136328817Y-49654346D01*
X136134798Y-49773241D01*
X136134792Y-49773245D01*
X136130584Y-49775824D01*
X135950031Y-49930031D01*
X135946823Y-49933787D01*
X135946818Y-49933792D01*
X135845811Y-50052056D01*
X135786361Y-50090866D01*
X135715366Y-50091372D01*
X135654189Y-50052056D01*
X135553182Y-49933792D01*
X135553177Y-49933787D01*
X135549969Y-49930031D01*
X135369416Y-49775824D01*
X135365208Y-49773245D01*
X135365202Y-49773241D01*
X135171183Y-49654346D01*
X135166963Y-49651760D01*
X135162393Y-49649867D01*
X135162389Y-49649865D01*
X134952167Y-49562789D01*
X134952165Y-49562788D01*
X134947594Y-49560895D01*
X134867391Y-49541640D01*
X134721524Y-49506620D01*
X134721518Y-49506619D01*
X134716711Y-49505465D01*
X134480000Y-49486835D01*
X134243289Y-49505465D01*
X134238482Y-49506619D01*
X134238476Y-49506620D01*
X134092609Y-49541640D01*
X134012406Y-49560895D01*
X134007835Y-49562788D01*
X134007833Y-49562789D01*
X133797611Y-49649865D01*
X133797607Y-49649867D01*
X133793037Y-49651760D01*
X133788817Y-49654346D01*
X133594798Y-49773241D01*
X133594792Y-49773245D01*
X133590584Y-49775824D01*
X133410031Y-49930031D01*
X133406823Y-49933787D01*
X133406818Y-49933792D01*
X133305811Y-50052056D01*
X133246361Y-50090866D01*
X133175366Y-50091372D01*
X133114189Y-50052056D01*
X133013182Y-49933792D01*
X133013177Y-49933787D01*
X133009969Y-49930031D01*
X132829416Y-49775824D01*
X132825208Y-49773245D01*
X132825202Y-49773241D01*
X132631183Y-49654346D01*
X132626963Y-49651760D01*
X132622393Y-49649867D01*
X132622389Y-49649865D01*
X132412167Y-49562789D01*
X132412165Y-49562788D01*
X132407594Y-49560895D01*
X132327391Y-49541640D01*
X132181524Y-49506620D01*
X132181518Y-49506619D01*
X132176711Y-49505465D01*
X131940000Y-49486835D01*
X131703289Y-49505465D01*
X131698482Y-49506619D01*
X131698476Y-49506620D01*
X131552609Y-49541640D01*
X131472406Y-49560895D01*
X131467835Y-49562788D01*
X131467833Y-49562789D01*
X131257611Y-49649865D01*
X131257607Y-49649867D01*
X131253037Y-49651760D01*
X131248817Y-49654346D01*
X131054798Y-49773241D01*
X131054792Y-49773245D01*
X131050584Y-49775824D01*
X130870031Y-49930031D01*
X130866823Y-49933787D01*
X130866818Y-49933792D01*
X130765811Y-50052056D01*
X130706361Y-50090866D01*
X130635366Y-50091372D01*
X130574189Y-50052056D01*
X130473182Y-49933792D01*
X130473177Y-49933787D01*
X130469969Y-49930031D01*
X130289416Y-49775824D01*
X130285208Y-49773245D01*
X130285202Y-49773241D01*
X130091183Y-49654346D01*
X130086963Y-49651760D01*
X130082393Y-49649867D01*
X130082389Y-49649865D01*
X129872167Y-49562789D01*
X129872165Y-49562788D01*
X129867594Y-49560895D01*
X129787391Y-49541640D01*
X129641524Y-49506620D01*
X129641518Y-49506619D01*
X129636711Y-49505465D01*
X129400000Y-49486835D01*
X129163289Y-49505465D01*
X129158482Y-49506619D01*
X129158476Y-49506620D01*
X129012609Y-49541640D01*
X128932406Y-49560895D01*
X128927835Y-49562788D01*
X128927833Y-49562789D01*
X128717611Y-49649865D01*
X128717607Y-49649867D01*
X128713037Y-49651760D01*
X128708817Y-49654346D01*
X128514798Y-49773241D01*
X128514792Y-49773245D01*
X128510584Y-49775824D01*
X128330031Y-49930031D01*
X128326823Y-49933787D01*
X128326818Y-49933792D01*
X128225811Y-50052056D01*
X128166361Y-50090866D01*
X128095366Y-50091372D01*
X128034189Y-50052056D01*
X127933182Y-49933792D01*
X127933177Y-49933787D01*
X127929969Y-49930031D01*
X127749416Y-49775824D01*
X127745208Y-49773245D01*
X127745202Y-49773241D01*
X127551183Y-49654346D01*
X127546963Y-49651760D01*
X127542393Y-49649867D01*
X127542389Y-49649865D01*
X127332167Y-49562789D01*
X127332165Y-49562788D01*
X127327594Y-49560895D01*
X127247391Y-49541640D01*
X127101524Y-49506620D01*
X127101518Y-49506619D01*
X127096711Y-49505465D01*
X126860000Y-49486835D01*
X126623289Y-49505465D01*
X126618482Y-49506619D01*
X126618476Y-49506620D01*
X126472609Y-49541640D01*
X126392406Y-49560895D01*
X126387835Y-49562788D01*
X126387833Y-49562789D01*
X126177611Y-49649865D01*
X126177607Y-49649867D01*
X126173037Y-49651760D01*
X126168817Y-49654346D01*
X125974798Y-49773241D01*
X125974792Y-49773245D01*
X125970584Y-49775824D01*
X125790031Y-49930031D01*
X125786823Y-49933787D01*
X125786818Y-49933792D01*
X125685811Y-50052056D01*
X125626361Y-50090866D01*
X125555366Y-50091372D01*
X125494189Y-50052056D01*
X125393182Y-49933792D01*
X125393177Y-49933787D01*
X125389969Y-49930031D01*
X125209416Y-49775824D01*
X125205208Y-49773245D01*
X125205202Y-49773241D01*
X125011183Y-49654346D01*
X125006963Y-49651760D01*
X125002393Y-49649867D01*
X125002389Y-49649865D01*
X124792167Y-49562789D01*
X124792165Y-49562788D01*
X124787594Y-49560895D01*
X124707391Y-49541640D01*
X124561524Y-49506620D01*
X124561518Y-49506619D01*
X124556711Y-49505465D01*
X124320000Y-49486835D01*
X124083289Y-49505465D01*
X124078482Y-49506619D01*
X124078476Y-49506620D01*
X123932609Y-49541640D01*
X123852406Y-49560895D01*
X123847835Y-49562788D01*
X123847833Y-49562789D01*
X123637611Y-49649865D01*
X123637607Y-49649867D01*
X123633037Y-49651760D01*
X123628817Y-49654346D01*
X123434798Y-49773241D01*
X123434792Y-49773245D01*
X123430584Y-49775824D01*
X123250031Y-49930031D01*
X123246823Y-49933787D01*
X123246818Y-49933792D01*
X123145811Y-50052056D01*
X123086361Y-50090866D01*
X123015366Y-50091372D01*
X122954189Y-50052056D01*
X122853182Y-49933792D01*
X122853177Y-49933787D01*
X122849969Y-49930031D01*
X122669416Y-49775824D01*
X122665208Y-49773245D01*
X122665202Y-49773241D01*
X122471183Y-49654346D01*
X122466963Y-49651760D01*
X122462393Y-49649867D01*
X122462389Y-49649865D01*
X122252167Y-49562789D01*
X122252165Y-49562788D01*
X122247594Y-49560895D01*
X122167391Y-49541640D01*
X122021524Y-49506620D01*
X122021518Y-49506619D01*
X122016711Y-49505465D01*
X121780000Y-49486835D01*
X121543289Y-49505465D01*
X121538482Y-49506619D01*
X121538476Y-49506620D01*
X121392609Y-49541640D01*
X121312406Y-49560895D01*
X121307835Y-49562788D01*
X121307833Y-49562789D01*
X121097611Y-49649865D01*
X121097607Y-49649867D01*
X121093037Y-49651760D01*
X121088817Y-49654346D01*
X120894798Y-49773241D01*
X120894792Y-49773245D01*
X120890584Y-49775824D01*
X120710031Y-49930031D01*
X120706823Y-49933787D01*
X120706818Y-49933792D01*
X120605811Y-50052056D01*
X120546361Y-50090866D01*
X120475366Y-50091372D01*
X120414189Y-50052056D01*
X120313182Y-49933792D01*
X120313177Y-49933787D01*
X120309969Y-49930031D01*
X120129416Y-49775824D01*
X120125208Y-49773245D01*
X120125202Y-49773241D01*
X119931183Y-49654346D01*
X119926963Y-49651760D01*
X119922393Y-49649867D01*
X119922389Y-49649865D01*
X119712167Y-49562789D01*
X119712165Y-49562788D01*
X119707594Y-49560895D01*
X119627391Y-49541640D01*
X119481524Y-49506620D01*
X119481518Y-49506619D01*
X119476711Y-49505465D01*
X119240000Y-49486835D01*
X119003289Y-49505465D01*
X118998482Y-49506619D01*
X118998476Y-49506620D01*
X118852609Y-49541640D01*
X118772406Y-49560895D01*
X118767835Y-49562788D01*
X118767833Y-49562789D01*
X118557611Y-49649865D01*
X118557607Y-49649867D01*
X118553037Y-49651760D01*
X118548817Y-49654346D01*
X118354798Y-49773241D01*
X118354792Y-49773245D01*
X118350584Y-49775824D01*
X118170031Y-49930031D01*
X118166823Y-49933787D01*
X118166818Y-49933792D01*
X118065811Y-50052056D01*
X118006361Y-50090866D01*
X117935366Y-50091372D01*
X117874189Y-50052056D01*
X117773182Y-49933792D01*
X117773177Y-49933787D01*
X117769969Y-49930031D01*
X117589416Y-49775824D01*
X117585208Y-49773245D01*
X117585202Y-49773241D01*
X117391183Y-49654346D01*
X117386963Y-49651760D01*
X117382393Y-49649867D01*
X117382389Y-49649865D01*
X117172167Y-49562789D01*
X117172165Y-49562788D01*
X117167594Y-49560895D01*
X117087391Y-49541640D01*
X116941524Y-49506620D01*
X116941518Y-49506619D01*
X116936711Y-49505465D01*
X116700000Y-49486835D01*
X116463289Y-49505465D01*
X116458482Y-49506619D01*
X116458476Y-49506620D01*
X116312609Y-49541640D01*
X116232406Y-49560895D01*
X116227835Y-49562788D01*
X116227833Y-49562789D01*
X116017611Y-49649865D01*
X116017607Y-49649867D01*
X116013037Y-49651760D01*
X116008817Y-49654346D01*
X115814798Y-49773241D01*
X115814792Y-49773245D01*
X115810584Y-49775824D01*
X115630031Y-49930031D01*
X115475824Y-50110584D01*
X115473245Y-50114792D01*
X115473241Y-50114798D01*
X115367467Y-50287405D01*
X115351760Y-50313037D01*
X115349867Y-50317607D01*
X115349865Y-50317611D01*
X115290466Y-50461014D01*
X115260895Y-50532406D01*
X115205465Y-50763289D01*
X115186835Y-51000000D01*
X102801308Y-51000000D01*
X102699884Y-50807633D01*
X102699883Y-50807632D01*
X102697931Y-50803929D01*
X102524129Y-50559367D01*
X102319510Y-50339939D01*
X102160199Y-50209080D01*
X102090892Y-50152151D01*
X102087667Y-50149502D01*
X101832675Y-49991400D01*
X101815609Y-49983730D01*
X101704480Y-49933787D01*
X101559012Y-49868411D01*
X101345650Y-49804805D01*
X101275486Y-49783888D01*
X101275484Y-49783888D01*
X101271487Y-49782696D01*
X101267367Y-49782043D01*
X101267365Y-49782043D01*
X101148491Y-49763215D01*
X100975152Y-49735761D01*
X100932423Y-49733821D01*
X100882738Y-49731564D01*
X100882719Y-49731564D01*
X100881319Y-49731500D01*
X100693893Y-49731500D01*
X100470630Y-49746329D01*
X100466536Y-49747154D01*
X100466532Y-49747155D01*
X100346946Y-49771268D01*
X100176520Y-49805632D01*
X99892837Y-49903312D01*
X99889104Y-49905181D01*
X99889100Y-49905183D01*
X99628309Y-50035778D01*
X99624565Y-50037653D01*
X99522781Y-50106825D01*
X99381852Y-50202600D01*
X99376416Y-50206294D01*
X99152752Y-50406274D01*
X99150035Y-50409444D01*
X99150034Y-50409445D01*
X99024155Y-50556311D01*
X98957501Y-50634077D01*
X98955227Y-50637579D01*
X98955223Y-50637584D01*
X98844792Y-50807633D01*
X98794093Y-50885703D01*
X98665400Y-51156730D01*
X98664121Y-51160713D01*
X98664120Y-51160716D01*
X98639721Y-51236711D01*
X98573682Y-51442396D01*
X98570386Y-51460713D01*
X98523346Y-51722158D01*
X98520552Y-51737684D01*
X98520363Y-51741851D01*
X98520362Y-51741858D01*
X98507130Y-52033234D01*
X98506941Y-52037404D01*
X94090379Y-52037404D01*
X94084080Y-51973167D01*
X94073597Y-51938444D01*
X94033796Y-51806620D01*
X94026916Y-51783831D01*
X93934066Y-51609204D01*
X93863709Y-51522938D01*
X93812960Y-51460713D01*
X93812957Y-51460710D01*
X93809065Y-51455938D01*
X93797675Y-51446515D01*
X93661425Y-51333799D01*
X93661421Y-51333797D01*
X93656675Y-51329870D01*
X93482701Y-51235802D01*
X93422760Y-51217247D01*
X93376028Y-51202781D01*
X93324192Y-51171511D01*
X92553770Y-50401089D01*
X92541384Y-50386677D01*
X92532851Y-50375082D01*
X92532846Y-50375077D01*
X92528508Y-50369182D01*
X92522930Y-50364443D01*
X92522927Y-50364440D01*
X92488232Y-50334965D01*
X92480716Y-50328035D01*
X92475021Y-50322340D01*
X92458736Y-50309456D01*
X92452749Y-50304719D01*
X92449345Y-50301928D01*
X92399297Y-50259409D01*
X92399295Y-50259408D01*
X92393715Y-50254667D01*
X92387199Y-50251339D01*
X92382150Y-50247972D01*
X92377021Y-50244805D01*
X92371284Y-50240266D01*
X92305125Y-50209345D01*
X92301225Y-50207439D01*
X92236192Y-50174231D01*
X92229084Y-50172492D01*
X92223441Y-50170393D01*
X92217678Y-50168476D01*
X92211050Y-50165378D01*
X92139583Y-50150513D01*
X92135299Y-50149543D01*
X92064390Y-50132192D01*
X92058788Y-50131844D01*
X92058785Y-50131844D01*
X92053236Y-50131500D01*
X92053238Y-50131464D01*
X92049245Y-50131225D01*
X92045053Y-50130851D01*
X92037885Y-50129360D01*
X91974120Y-50131085D01*
X91960479Y-50131454D01*
X91957072Y-50131500D01*
X85737070Y-50131500D01*
X85718120Y-50130067D01*
X85703885Y-50127901D01*
X85703881Y-50127901D01*
X85696651Y-50126801D01*
X85689359Y-50127394D01*
X85689356Y-50127394D01*
X85643982Y-50131085D01*
X85633767Y-50131500D01*
X85625707Y-50131500D01*
X85622073Y-50131924D01*
X85622067Y-50131924D01*
X85609042Y-50133443D01*
X85597480Y-50134791D01*
X85593132Y-50135221D01*
X85571059Y-50137016D01*
X85527662Y-50140546D01*
X85527659Y-50140547D01*
X85520364Y-50141140D01*
X85513400Y-50143396D01*
X85507461Y-50144583D01*
X85501590Y-50145970D01*
X85494319Y-50146818D01*
X85487443Y-50149314D01*
X85487434Y-50149316D01*
X85425702Y-50171725D01*
X85421598Y-50173135D01*
X85352101Y-50195648D01*
X85345846Y-50199444D01*
X85340387Y-50201943D01*
X85334939Y-50204671D01*
X85328063Y-50207167D01*
X85267010Y-50247195D01*
X85263327Y-50249519D01*
X85218055Y-50276991D01*
X85200893Y-50287405D01*
X85192517Y-50294802D01*
X85192493Y-50294775D01*
X85189499Y-50297430D01*
X85186268Y-50300132D01*
X85180148Y-50304144D01*
X85150951Y-50334965D01*
X85126872Y-50360383D01*
X85124494Y-50362825D01*
X84350271Y-51137048D01*
X84287959Y-51171074D01*
X84272609Y-51173433D01*
X84260112Y-51174570D01*
X84254206Y-51176308D01*
X84254202Y-51176309D01*
X84195585Y-51193561D01*
X84070381Y-51230410D01*
X84064923Y-51233263D01*
X84064919Y-51233265D01*
X83974147Y-51280720D01*
X83895110Y-51322040D01*
X83740975Y-51445968D01*
X83613846Y-51597474D01*
X83610879Y-51602872D01*
X83610875Y-51602877D01*
X83574798Y-51668502D01*
X83518567Y-51770787D01*
X83516706Y-51776654D01*
X83516705Y-51776656D01*
X83465383Y-51938444D01*
X83458765Y-51959306D01*
X83441500Y-52113227D01*
X83441500Y-53319769D01*
X78599484Y-53319769D01*
X78743628Y-53097807D01*
X78743631Y-53097802D01*
X78745907Y-53094297D01*
X78874600Y-52823270D01*
X78925720Y-52664053D01*
X78965038Y-52541591D01*
X78965038Y-52541590D01*
X78966318Y-52537604D01*
X79003559Y-52330623D01*
X79018709Y-52246425D01*
X79018710Y-52246420D01*
X79019448Y-52242316D01*
X79019699Y-52236802D01*
X79032870Y-51946766D01*
X79032870Y-51946760D01*
X79033059Y-51942596D01*
X79030132Y-51909134D01*
X79007273Y-51647870D01*
X79006909Y-51643708D01*
X78999197Y-51609204D01*
X78942372Y-51354984D01*
X78942371Y-51354981D01*
X78941460Y-51350905D01*
X78837860Y-51069329D01*
X78835916Y-51065641D01*
X78835912Y-51065633D01*
X78699884Y-50807633D01*
X78699883Y-50807632D01*
X78697931Y-50803929D01*
X78524129Y-50559367D01*
X78319510Y-50339939D01*
X78160199Y-50209080D01*
X78090892Y-50152151D01*
X78087667Y-50149502D01*
X77832675Y-49991400D01*
X77815609Y-49983730D01*
X77704480Y-49933787D01*
X77559012Y-49868411D01*
X77345650Y-49804805D01*
X77275486Y-49783888D01*
X77275484Y-49783888D01*
X77271487Y-49782696D01*
X77267367Y-49782043D01*
X77267365Y-49782043D01*
X77148491Y-49763215D01*
X76975152Y-49735761D01*
X76932423Y-49733821D01*
X76882738Y-49731564D01*
X76882719Y-49731564D01*
X76881319Y-49731500D01*
X76693893Y-49731500D01*
X76470630Y-49746329D01*
X76466536Y-49747154D01*
X76466532Y-49747155D01*
X76346946Y-49771268D01*
X76176520Y-49805632D01*
X75892837Y-49903312D01*
X75889104Y-49905181D01*
X75889100Y-49905183D01*
X75628309Y-50035778D01*
X75624565Y-50037653D01*
X75522781Y-50106825D01*
X75381852Y-50202600D01*
X75376416Y-50206294D01*
X75152752Y-50406274D01*
X75150035Y-50409444D01*
X75150034Y-50409445D01*
X75024155Y-50556311D01*
X74957501Y-50634077D01*
X74955227Y-50637579D01*
X74955223Y-50637584D01*
X74844792Y-50807633D01*
X74794093Y-50885703D01*
X74665400Y-51156730D01*
X74664121Y-51160713D01*
X74664120Y-51160716D01*
X74639721Y-51236711D01*
X74573682Y-51442396D01*
X74570386Y-51460713D01*
X74523346Y-51722158D01*
X74520552Y-51737684D01*
X74520363Y-51741851D01*
X74520362Y-51741858D01*
X74507130Y-52033234D01*
X74506941Y-52037404D01*
X65770000Y-52037404D01*
X65770000Y-49994501D01*
X65770321Y-49985513D01*
X65778573Y-49870127D01*
X65789715Y-49714350D01*
X65792272Y-49696567D01*
X65849098Y-49435342D01*
X65854161Y-49418097D01*
X65858833Y-49405572D01*
X65947589Y-49167607D01*
X65955055Y-49151260D01*
X66083176Y-48916625D01*
X66092895Y-48901502D01*
X66253103Y-48687490D01*
X66264876Y-48673904D01*
X66453904Y-48484876D01*
X66467490Y-48473103D01*
X66681502Y-48312895D01*
X66696625Y-48303176D01*
X66909077Y-48187168D01*
X66931262Y-48175054D01*
X66947607Y-48167589D01*
X67198100Y-48074160D01*
X67215342Y-48069098D01*
X67476567Y-48012272D01*
X67494350Y-48009715D01*
X67716129Y-47993853D01*
X67765513Y-47990321D01*
X67774501Y-47990000D01*
X83322250Y-47990000D01*
X83390371Y-48010002D01*
G37*
%TD.AperFunction*%
%TD*%
M02*
