M48
; DRILL file {KiCad (6.0.1-0)} date 2022 January 19, Wednesday 18:39:33
; FORMAT={-:-/ absolute / inch / decimal}
; #@! TF.CreationDate,2022-01-19T18:39:33+01:00
; #@! TF.GenerationSoftware,Kicad,Pcbnew,(6.0.1-0)
; #@! TF.FileFunction,Plated,1,2,PTH
FMAT,2
INCH
; #@! TA.AperFunction,Plated,PTH,ViaDrill
T1C0.0118
; #@! TA.AperFunction,Plated,PTH,ViaDrill
T2C0.0157
; #@! TA.AperFunction,Plated,PTH,ComponentDrill
T3C0.0236
; #@! TA.AperFunction,Plated,PTH,ComponentDrill
T4C0.0394
; #@! TA.AperFunction,Plated,PTH,ComponentDrill
T5C0.0400
%
G90
G05
T1
X3.4169Y-2.5799
X3.8362Y-2.8634
X3.9988Y-2.4917
X4.0138Y-2.5748
X4.2114Y-2.4465
X4.2137Y-2.5708
X4.2283Y-2.4173
X4.2429Y-2.4465
X4.2469Y-2.5724
X4.2724Y-2.8165
X4.2744Y-2.4465
X4.2783Y-2.5724
X4.3059Y-2.4465
X4.3121Y-2.5735
X4.3374Y-2.4465
X4.5382Y-2.4465
X4.5697Y-2.4465
X4.6012Y-2.4465
X4.6327Y-2.4465
X4.6642Y-2.4465
X4.7429Y-2.5724
X4.7744Y-2.5724
X4.8098Y-2.5705
T2
X2.6378Y-2.0079
X2.6378Y-2.0866
X2.6378Y-2.1654
X2.6378Y-2.2441
X2.6378Y-2.3228
X2.6378Y-2.4016
X2.6378Y-2.4803
X2.6378Y-2.5591
X2.6378Y-2.6378
X2.6378Y-2.7165
X2.6378Y-2.9528
X2.6378Y-3.0315
X2.6378Y-3.1102
X2.6378Y-3.189
X2.7165Y-1.9291
X2.7165Y-3.2677
X2.7953Y-1.9291
X2.7953Y-3.2677
X2.874Y-1.9291
X2.874Y-3.2677
X2.9528Y-1.9291
X2.9531Y-3.2677
X3.0067Y-2.5331
X3.0067Y-2.5764
X3.0315Y-1.9291
X3.0315Y-3.2677
X3.0461Y-2.5528
X3.0461Y-2.5961
X3.1102Y-1.9291
X3.1102Y-3.2677
X3.189Y-1.9291
X3.189Y-3.2677
X3.2677Y-1.9291
X3.2677Y-3.2677
X3.3138Y-2.224
X3.3394Y-2.2654
X3.3465Y-3.2677
X3.365Y-2.8287
X3.365Y-2.8681
X3.365Y-2.9075
X3.3807Y-1.9524
X3.4154Y-2.4516
X3.4154Y-2.4909
X3.4154Y-2.5303
X3.4252Y-3.2677
X3.4547Y-2.4516
X3.4547Y-2.4909
X3.4547Y-2.5303
X3.5039Y-3.2677
X3.5155Y-2.2511
X3.5827Y-3.2677
X3.6012Y-2.2988
X3.6091Y-1.9524
X3.6327Y-2.2122
X3.6406Y-2.2516
X3.6614Y-3.2677
X3.6957Y-2.161
X3.6957Y-2.2791
X3.7362Y-2.4937
X3.7366Y-3.2673
X3.7402Y-1.9291
X3.7461Y-2.5575
X3.7992Y-2.9331
X3.7992Y-2.9921
X3.8031Y-2.4587
X3.8189Y-1.9291
X3.8228Y-2.6197
X3.8681Y-2.9331
X3.8681Y-2.9921
X3.8976Y-1.9291
X3.9626Y-2.3474
X3.9764Y-1.9291
X4.0551Y-1.9291
X4.0657Y-2.7209
X4.1051Y-2.7209
X4.1142Y-2.9035
X4.1339Y-1.9291
X4.1732Y-3.2677
X4.1831Y-2.9035
X4.2126Y-1.9291
X4.2439Y-2.6984
X4.252Y-2.3858
X4.252Y-2.9035
X4.252Y-3.2677
X4.2795Y-2.3583
X4.2913Y-1.9291
X4.3059Y-2.7161
X4.3059Y-2.7614
X4.3307Y-3.2677
X4.3701Y-1.9291
X4.4094Y-3.2677
X4.4488Y-1.9291
X4.4713Y-3.037
X4.4882Y-3.2677
X4.5106Y-3.037
X4.5276Y-1.9291
X4.5378Y-2.5764
X4.55Y-2.6256
X4.55Y-3.037
X4.5669Y-3.2677
X4.589Y-2.5764
X4.5945Y-2.626
X4.6063Y-1.9291
X4.6378Y-2.626
X4.6457Y-3.2677
X4.685Y-1.9291
X4.7244Y-2.7165
X4.7244Y-3.2677
X4.7638Y-1.9291
X4.8031Y-2.7165
X4.8031Y-3.2677
X4.8425Y-1.9291
X4.8819Y-2.7165
X4.8819Y-3.2677
X4.9213Y-1.9291
X4.9606Y-2.7165
X4.9606Y-2.7953
X4.9606Y-2.874
X4.9606Y-2.9528
X4.9606Y-3.0315
X4.9606Y-3.1102
X4.9606Y-3.189
X4.9606Y-3.2677
X5.0Y-1.9291
X5.0394Y-2.7165
X5.0394Y-3.2677
X5.0787Y-1.9291
X5.1181Y-2.7165
X5.1181Y-3.2677
X5.1575Y-1.9291
X5.1969Y-2.7165
X5.1969Y-3.2677
X5.2362Y-1.9291
X5.2756Y-2.7165
X5.2756Y-3.2677
X5.315Y-1.9291
X5.3543Y-2.7165
X5.3543Y-3.2677
X5.3937Y-1.9291
X5.4331Y-2.7165
X5.4331Y-3.2677
X5.4724Y-1.9291
X5.5118Y-2.7165
X5.5118Y-3.2677
X5.5512Y-1.9291
X5.5906Y-2.7165
X5.5906Y-3.2677
X5.6299Y-1.9291
X5.6693Y-2.7165
X5.6693Y-3.2677
X5.7087Y-1.9291
X5.748Y-2.7165
X5.748Y-3.2677
X5.7874Y-1.9291
X5.8268Y-2.7165
X5.8268Y-3.2677
X5.8661Y-1.9291
X5.8661Y-2.3228
X5.9055Y-2.7165
X5.9055Y-3.2677
X5.9449Y-1.9291
X5.9449Y-2.3228
X5.9843Y-2.7165
X5.9843Y-3.2677
X6.0236Y-1.9291
X6.0236Y-2.3228
X6.063Y-2.7165
X6.063Y-3.2677
X6.1024Y-1.9291
X6.1024Y-2.3228
X6.1417Y-2.7165
X6.1417Y-3.2677
X6.1811Y-1.9291
X6.1811Y-2.3228
X6.2205Y-2.7165
X6.2205Y-3.2677
X6.2598Y-1.9291
X6.2598Y-2.3228
X6.2992Y-2.7165
X6.2992Y-3.2677
X6.3386Y-1.9291
X6.3386Y-2.3228
X6.378Y-2.7165
X6.378Y-3.2677
X6.4173Y-1.9291
X6.4173Y-2.3228
X6.4567Y-2.7165
X6.4567Y-3.2677
X6.4961Y-1.9291
X6.5354Y-2.7165
X6.5354Y-3.2677
X6.5748Y-1.9291
X6.6142Y-2.7165
X6.6142Y-3.2677
X6.6535Y-1.9291
X6.6913Y-2.7268
X6.6929Y-3.2677
X6.7323Y-1.9291
X6.7701Y-2.7268
X6.7717Y-3.2677
X6.811Y-1.9291
X6.8488Y-2.7268
X6.8504Y-3.2677
X6.8898Y-1.9291
X6.9276Y-2.7268
X6.9291Y-3.2677
X6.9685Y-1.9291
X7.0063Y-2.7268
X7.0079Y-3.2677
X7.0472Y-1.9291
X7.085Y-2.7268
X7.0866Y-3.2677
X7.126Y-1.9291
X7.1638Y-2.7268
X7.1654Y-3.2677
X7.2047Y-1.9291
X7.2413Y-2.8055
X7.2413Y-2.8843
X7.2413Y-2.963
X7.2413Y-3.0417
X7.2413Y-3.1205
X7.2413Y-3.1992
X7.2425Y-2.7268
X7.2441Y-3.2677
X7.2835Y-1.9291
X7.3213Y-2.7268
X7.3228Y-3.2677
X7.3622Y-1.9291
X7.4016Y-3.2677
X7.4213Y-2.4697
X7.4224Y-2.5512
X7.4232Y-2.389
X7.4409Y-1.9291
X7.4803Y-3.2677
X7.5197Y-1.9291
X7.5591Y-3.2677
X7.5984Y-1.9291
X7.6378Y-3.2677
X7.6424Y-2.4286
X7.6429Y-2.4685
X7.6429Y-2.3893
X7.6772Y-1.9291
X7.7165Y-3.2677
X7.7543Y-2.5693
X7.7559Y-1.9291
X7.7953Y-3.2677
X7.8331Y-2.5693
X7.8346Y-1.9291
X7.8516Y-2.3898
X7.8516Y-2.4291
X7.874Y-3.2677
X7.9118Y-2.5693
X7.9134Y-1.9291
X7.9528Y-3.2677
X7.9906Y-2.5693
X7.9921Y-1.9291
X8.0315Y-3.2677
X8.0693Y-2.5693
X8.0709Y-1.9291
X8.1102Y-3.2677
X8.1165Y-1.9925
X8.1165Y-2.0713
X8.1165Y-2.15
X8.1496Y-1.9291
X8.189Y-3.2677
X8.2283Y-1.9291
X8.3071Y-1.9291
X8.3858Y-2.0079
X8.3858Y-2.0866
X8.3858Y-2.1654
X8.3858Y-2.2441
X8.3858Y-2.3228
X8.3858Y-2.4016
X8.3858Y-2.4803
X8.3858Y-2.5591
X8.3858Y-2.6378
X8.3858Y-2.7165
X8.3858Y-2.7953
X8.3858Y-2.874
X8.3858Y-2.9528
X8.3858Y-3.0315
X8.3858Y-3.1102
T4
X3.0972Y-2.2575
X3.499Y-2.7116
X3.499Y-2.8116
X3.599Y-2.7116
X3.599Y-2.8116
X3.699Y-2.7116
X3.699Y-2.8116
X7.7295Y-2.685
X7.7295Y-2.785
X7.7295Y-2.885
X7.7295Y-2.985
X7.7295Y-3.085
X7.8752Y-2.685
X7.8752Y-2.785
X7.8752Y-2.885
X7.8752Y-2.985
X7.8752Y-3.085
X8.0366Y-2.685
X8.0366Y-2.785
X8.0366Y-2.885
X8.0366Y-2.985
X8.0366Y-3.085
T5
X3.1406Y-3.0551
X3.1406Y-3.1551
X3.2406Y-3.0551
X3.2406Y-3.1551
X3.3406Y-3.0551
X3.3406Y-3.1551
X3.4406Y-3.0551
X3.4406Y-3.1551
X3.5406Y-3.0551
X3.5406Y-3.1551
X4.5941Y-2.0181
X4.6941Y-2.0181
X4.7941Y-2.0181
X4.8941Y-2.0181
X4.9941Y-2.0181
X5.0941Y-2.0181
X5.1941Y-2.0181
X5.2941Y-2.0181
X5.3941Y-2.0181
X5.4941Y-2.0181
X5.5941Y-2.0181
X5.6941Y-2.0181
X5.7941Y-2.0181
X5.8941Y-2.0181
X5.9941Y-2.0181
X6.0941Y-2.0181
X6.8483Y-2.0968
X6.9483Y-2.0968
X7.0483Y-2.0968
X7.1483Y-2.0968
X7.2483Y-2.0968
X7.3483Y-2.0968
X7.4483Y-2.0968
X7.5483Y-2.0968
X7.6483Y-2.0968
X7.7483Y-2.0968
X7.8483Y-2.0968
X7.9483Y-2.0968
X8.2734Y-2.1102
X8.2734Y-2.2102
X8.2734Y-2.3102
X8.2734Y-2.4102
T3
G00X3.3248Y-1.9228
M15
G01X3.3248Y-1.8992
M16
G05
G00X3.3248Y-2.0972
M15
G01X3.3248Y-2.0539
M16
G05
G00X3.665Y-1.9228
M15
G01X3.665Y-1.8992
M16
G05
G00X3.665Y-2.0972
M15
G01X3.665Y-2.0539
M16
G05
T0
M30
