%TF.GenerationSoftware,KiCad,Pcbnew,(6.0.1-0)*%
%TF.CreationDate,2022-01-17T22:32:28+01:00*%
%TF.ProjectId,modelh,6d6f6465-6c68-42e6-9b69-6361645f7063,v0.1*%
%TF.SameCoordinates,Original*%
%TF.FileFunction,Legend,Top*%
%TF.FilePolarity,Positive*%
%FSLAX46Y46*%
G04 Gerber Fmt 4.6, Leading zero omitted, Abs format (unit mm)*
G04 Created by KiCad (PCBNEW (6.0.1-0)) date 2022-01-17 22:32:28*
%MOMM*%
%LPD*%
G01*
G04 APERTURE LIST*
%ADD10C,0.150000*%
%ADD11C,0.200000*%
%ADD12C,0.120000*%
%ADD13C,0.010000*%
G04 APERTURE END LIST*
D10*
X171327142Y-77085714D02*
X171565238Y-77752380D01*
X171803333Y-77085714D01*
X172708095Y-77752380D02*
X172136666Y-77752380D01*
X172422380Y-77752380D02*
X172422380Y-76752380D01*
X172327142Y-76895238D01*
X172231904Y-76990476D01*
X172136666Y-77038095D01*
X173136666Y-77657142D02*
X173184285Y-77704761D01*
X173136666Y-77752380D01*
X173089047Y-77704761D01*
X173136666Y-77657142D01*
X173136666Y-77752380D01*
X173803333Y-76752380D02*
X173898571Y-76752380D01*
X173993809Y-76800000D01*
X174041428Y-76847619D01*
X174089047Y-76942857D01*
X174136666Y-77133333D01*
X174136666Y-77371428D01*
X174089047Y-77561904D01*
X174041428Y-77657142D01*
X173993809Y-77704761D01*
X173898571Y-77752380D01*
X173803333Y-77752380D01*
X173708095Y-77704761D01*
X173660476Y-77657142D01*
X173612857Y-77561904D01*
X173565238Y-77371428D01*
X173565238Y-77133333D01*
X173612857Y-76942857D01*
X173660476Y-76847619D01*
X173708095Y-76800000D01*
X173803333Y-76752380D01*
X174993809Y-77752380D02*
X174993809Y-77228571D01*
X174946190Y-77133333D01*
X174850952Y-77085714D01*
X174660476Y-77085714D01*
X174565238Y-77133333D01*
X174993809Y-77704761D02*
X174898571Y-77752380D01*
X174660476Y-77752380D01*
X174565238Y-77704761D01*
X174517619Y-77609523D01*
X174517619Y-77514285D01*
X174565238Y-77419047D01*
X174660476Y-77371428D01*
X174898571Y-77371428D01*
X174993809Y-77323809D01*
X176231904Y-76752380D02*
X176231904Y-77561904D01*
X176279523Y-77657142D01*
X176327142Y-77704761D01*
X176422380Y-77752380D01*
X176612857Y-77752380D01*
X176708095Y-77704761D01*
X176755714Y-77657142D01*
X176803333Y-77561904D01*
X176803333Y-76752380D01*
X177231904Y-77704761D02*
X177374761Y-77752380D01*
X177612857Y-77752380D01*
X177708095Y-77704761D01*
X177755714Y-77657142D01*
X177803333Y-77561904D01*
X177803333Y-77466666D01*
X177755714Y-77371428D01*
X177708095Y-77323809D01*
X177612857Y-77276190D01*
X177422380Y-77228571D01*
X177327142Y-77180952D01*
X177279523Y-77133333D01*
X177231904Y-77038095D01*
X177231904Y-76942857D01*
X177279523Y-76847619D01*
X177327142Y-76800000D01*
X177422380Y-76752380D01*
X177660476Y-76752380D01*
X177803333Y-76800000D01*
X178565238Y-77228571D02*
X178708095Y-77276190D01*
X178755714Y-77323809D01*
X178803333Y-77419047D01*
X178803333Y-77561904D01*
X178755714Y-77657142D01*
X178708095Y-77704761D01*
X178612857Y-77752380D01*
X178231904Y-77752380D01*
X178231904Y-76752380D01*
X178565238Y-76752380D01*
X178660476Y-76800000D01*
X178708095Y-76847619D01*
X178755714Y-76942857D01*
X178755714Y-77038095D01*
X178708095Y-77133333D01*
X178660476Y-77180952D01*
X178565238Y-77228571D01*
X178231904Y-77228571D01*
X180565238Y-77657142D02*
X180517619Y-77704761D01*
X180374761Y-77752380D01*
X180279523Y-77752380D01*
X180136666Y-77704761D01*
X180041428Y-77609523D01*
X179993809Y-77514285D01*
X179946190Y-77323809D01*
X179946190Y-77180952D01*
X179993809Y-76990476D01*
X180041428Y-76895238D01*
X180136666Y-76800000D01*
X180279523Y-76752380D01*
X180374761Y-76752380D01*
X180517619Y-76800000D01*
X180565238Y-76847619D01*
D11*
X130897619Y-80955476D02*
X130897619Y-79705476D01*
X130897619Y-80181666D02*
X131016666Y-80122142D01*
X131254761Y-80122142D01*
X131373809Y-80181666D01*
X131433333Y-80241190D01*
X131492857Y-80360238D01*
X131492857Y-80717380D01*
X131433333Y-80836428D01*
X131373809Y-80895952D01*
X131254761Y-80955476D01*
X131016666Y-80955476D01*
X130897619Y-80895952D01*
X131909523Y-80122142D02*
X132207142Y-80955476D01*
X132504761Y-80122142D02*
X132207142Y-80955476D01*
X132088095Y-81253095D01*
X132028571Y-81312619D01*
X131909523Y-81372142D01*
X134290476Y-79705476D02*
X134290476Y-80598333D01*
X134230952Y-80776904D01*
X134111904Y-80895952D01*
X133933333Y-80955476D01*
X133814285Y-80955476D01*
X135064285Y-80955476D02*
X134945238Y-80895952D01*
X134885714Y-80836428D01*
X134826190Y-80717380D01*
X134826190Y-80360238D01*
X134885714Y-80241190D01*
X134945238Y-80181666D01*
X135064285Y-80122142D01*
X135242857Y-80122142D01*
X135361904Y-80181666D01*
X135421428Y-80241190D01*
X135480952Y-80360238D01*
X135480952Y-80717380D01*
X135421428Y-80836428D01*
X135361904Y-80895952D01*
X135242857Y-80955476D01*
X135064285Y-80955476D01*
X136016666Y-80955476D02*
X136016666Y-79705476D01*
X136552380Y-80955476D02*
X136552380Y-80300714D01*
X136492857Y-80181666D01*
X136373809Y-80122142D01*
X136195238Y-80122142D01*
X136076190Y-80181666D01*
X136016666Y-80241190D01*
X137147619Y-80122142D02*
X137147619Y-80955476D01*
X137147619Y-80241190D02*
X137207142Y-80181666D01*
X137326190Y-80122142D01*
X137504761Y-80122142D01*
X137623809Y-80181666D01*
X137683333Y-80300714D01*
X137683333Y-80955476D01*
X139230952Y-80955476D02*
X139230952Y-79705476D01*
X139230952Y-80300714D02*
X139945238Y-80300714D01*
X139945238Y-80955476D02*
X139945238Y-79705476D01*
X141076190Y-80955476D02*
X141076190Y-80300714D01*
X141016666Y-80181666D01*
X140897619Y-80122142D01*
X140659523Y-80122142D01*
X140540476Y-80181666D01*
X141076190Y-80895952D02*
X140957142Y-80955476D01*
X140659523Y-80955476D01*
X140540476Y-80895952D01*
X140480952Y-80776904D01*
X140480952Y-80657857D01*
X140540476Y-80538809D01*
X140659523Y-80479285D01*
X140957142Y-80479285D01*
X141076190Y-80419761D01*
X141552380Y-80122142D02*
X141790476Y-80955476D01*
X142028571Y-80360238D01*
X142266666Y-80955476D01*
X142504761Y-80122142D01*
X142802380Y-80122142D02*
X143278571Y-80122142D01*
X142980952Y-79705476D02*
X142980952Y-80776904D01*
X143040476Y-80895952D01*
X143159523Y-80955476D01*
X143278571Y-80955476D01*
X143695238Y-80955476D02*
X143695238Y-79705476D01*
X144230952Y-80955476D02*
X144230952Y-80300714D01*
X144171428Y-80181666D01*
X144052380Y-80122142D01*
X143873809Y-80122142D01*
X143754761Y-80181666D01*
X143695238Y-80241190D01*
X145004761Y-80955476D02*
X144885714Y-80895952D01*
X144826190Y-80836428D01*
X144766666Y-80717380D01*
X144766666Y-80360238D01*
X144826190Y-80241190D01*
X144885714Y-80181666D01*
X145004761Y-80122142D01*
X145183333Y-80122142D01*
X145302380Y-80181666D01*
X145361904Y-80241190D01*
X145421428Y-80360238D01*
X145421428Y-80717380D01*
X145361904Y-80836428D01*
X145302380Y-80895952D01*
X145183333Y-80955476D01*
X145004761Y-80955476D01*
X145957142Y-80955476D02*
X145957142Y-80122142D01*
X145957142Y-80360238D02*
X146016666Y-80241190D01*
X146076190Y-80181666D01*
X146195238Y-80122142D01*
X146314285Y-80122142D01*
X146730952Y-80122142D02*
X146730952Y-80955476D01*
X146730952Y-80241190D02*
X146790476Y-80181666D01*
X146909523Y-80122142D01*
X147088095Y-80122142D01*
X147207142Y-80181666D01*
X147266666Y-80300714D01*
X147266666Y-80955476D01*
X149350000Y-80955476D02*
X149350000Y-80300714D01*
X149290476Y-80181666D01*
X149171428Y-80122142D01*
X148933333Y-80122142D01*
X148814285Y-80181666D01*
X149350000Y-80895952D02*
X149230952Y-80955476D01*
X148933333Y-80955476D01*
X148814285Y-80895952D01*
X148754761Y-80776904D01*
X148754761Y-80657857D01*
X148814285Y-80538809D01*
X148933333Y-80479285D01*
X149230952Y-80479285D01*
X149350000Y-80419761D01*
X149945238Y-80122142D02*
X149945238Y-80955476D01*
X149945238Y-80241190D02*
X150004761Y-80181666D01*
X150123809Y-80122142D01*
X150302380Y-80122142D01*
X150421428Y-80181666D01*
X150480952Y-80300714D01*
X150480952Y-80955476D01*
X151611904Y-80955476D02*
X151611904Y-79705476D01*
X151611904Y-80895952D02*
X151492857Y-80955476D01*
X151254761Y-80955476D01*
X151135714Y-80895952D01*
X151076190Y-80836428D01*
X151016666Y-80717380D01*
X151016666Y-80360238D01*
X151076190Y-80241190D01*
X151135714Y-80181666D01*
X151254761Y-80122142D01*
X151492857Y-80122142D01*
X151611904Y-80181666D01*
X153873809Y-80955476D02*
X153457142Y-80360238D01*
X153159523Y-80955476D02*
X153159523Y-79705476D01*
X153635714Y-79705476D01*
X153754761Y-79765000D01*
X153814285Y-79824523D01*
X153873809Y-79943571D01*
X153873809Y-80122142D01*
X153814285Y-80241190D01*
X153754761Y-80300714D01*
X153635714Y-80360238D01*
X153159523Y-80360238D01*
X154409523Y-80955476D02*
X154409523Y-80122142D01*
X154409523Y-79705476D02*
X154350000Y-79765000D01*
X154409523Y-79824523D01*
X154469047Y-79765000D01*
X154409523Y-79705476D01*
X154409523Y-79824523D01*
X155540476Y-80895952D02*
X155421428Y-80955476D01*
X155183333Y-80955476D01*
X155064285Y-80895952D01*
X155004761Y-80836428D01*
X154945238Y-80717380D01*
X154945238Y-80360238D01*
X155004761Y-80241190D01*
X155064285Y-80181666D01*
X155183333Y-80122142D01*
X155421428Y-80122142D01*
X155540476Y-80181666D01*
X156611904Y-80955476D02*
X156611904Y-80300714D01*
X156552380Y-80181666D01*
X156433333Y-80122142D01*
X156195238Y-80122142D01*
X156076190Y-80181666D01*
X156611904Y-80895952D02*
X156492857Y-80955476D01*
X156195238Y-80955476D01*
X156076190Y-80895952D01*
X156016666Y-80776904D01*
X156016666Y-80657857D01*
X156076190Y-80538809D01*
X156195238Y-80479285D01*
X156492857Y-80479285D01*
X156611904Y-80419761D01*
X157207142Y-80955476D02*
X157207142Y-80122142D01*
X157207142Y-80360238D02*
X157266666Y-80241190D01*
X157326190Y-80181666D01*
X157445238Y-80122142D01*
X157564285Y-80122142D01*
X158516666Y-80955476D02*
X158516666Y-79705476D01*
X158516666Y-80895952D02*
X158397619Y-80955476D01*
X158159523Y-80955476D01*
X158040476Y-80895952D01*
X157980952Y-80836428D01*
X157921428Y-80717380D01*
X157921428Y-80360238D01*
X157980952Y-80241190D01*
X158040476Y-80181666D01*
X158159523Y-80122142D01*
X158397619Y-80122142D01*
X158516666Y-80181666D01*
X159290476Y-80955476D02*
X159171428Y-80895952D01*
X159111904Y-80836428D01*
X159052380Y-80717380D01*
X159052380Y-80360238D01*
X159111904Y-80241190D01*
X159171428Y-80181666D01*
X159290476Y-80122142D01*
X159469047Y-80122142D01*
X159588095Y-80181666D01*
X159647619Y-80241190D01*
X159707142Y-80360238D01*
X159707142Y-80717380D01*
X159647619Y-80836428D01*
X159588095Y-80895952D01*
X159469047Y-80955476D01*
X159290476Y-80955476D01*
X161135714Y-80895952D02*
X161314285Y-80955476D01*
X161611904Y-80955476D01*
X161730952Y-80895952D01*
X161790476Y-80836428D01*
X161850000Y-80717380D01*
X161850000Y-80598333D01*
X161790476Y-80479285D01*
X161730952Y-80419761D01*
X161611904Y-80360238D01*
X161373809Y-80300714D01*
X161254761Y-80241190D01*
X161195238Y-80181666D01*
X161135714Y-80062619D01*
X161135714Y-79943571D01*
X161195238Y-79824523D01*
X161254761Y-79765000D01*
X161373809Y-79705476D01*
X161671428Y-79705476D01*
X161850000Y-79765000D01*
X162921428Y-80955476D02*
X162921428Y-80300714D01*
X162861904Y-80181666D01*
X162742857Y-80122142D01*
X162504761Y-80122142D01*
X162385714Y-80181666D01*
X162921428Y-80895952D02*
X162802380Y-80955476D01*
X162504761Y-80955476D01*
X162385714Y-80895952D01*
X162326190Y-80776904D01*
X162326190Y-80657857D01*
X162385714Y-80538809D01*
X162504761Y-80479285D01*
X162802380Y-80479285D01*
X162921428Y-80419761D01*
X163516666Y-80122142D02*
X163516666Y-80955476D01*
X163516666Y-80241190D02*
X163576190Y-80181666D01*
X163695238Y-80122142D01*
X163873809Y-80122142D01*
X163992857Y-80181666D01*
X164052380Y-80300714D01*
X164052380Y-80955476D01*
X164528571Y-80122142D02*
X165183333Y-80122142D01*
X164528571Y-80955476D01*
X165183333Y-80955476D01*
D10*
X98204761Y-70228571D02*
X98347619Y-70276190D01*
X98395238Y-70323809D01*
X98442857Y-70419047D01*
X98442857Y-70561904D01*
X98395238Y-70657142D01*
X98347619Y-70704761D01*
X98252380Y-70752380D01*
X97871428Y-70752380D01*
X97871428Y-69752380D01*
X98204761Y-69752380D01*
X98300000Y-69800000D01*
X98347619Y-69847619D01*
X98395238Y-69942857D01*
X98395238Y-70038095D01*
X98347619Y-70133333D01*
X98300000Y-70180952D01*
X98204761Y-70228571D01*
X97871428Y-70228571D01*
X99014285Y-70752380D02*
X98919047Y-70704761D01*
X98871428Y-70657142D01*
X98823809Y-70561904D01*
X98823809Y-70276190D01*
X98871428Y-70180952D01*
X98919047Y-70133333D01*
X99014285Y-70085714D01*
X99157142Y-70085714D01*
X99252380Y-70133333D01*
X99300000Y-70180952D01*
X99347619Y-70276190D01*
X99347619Y-70561904D01*
X99300000Y-70657142D01*
X99252380Y-70704761D01*
X99157142Y-70752380D01*
X99014285Y-70752380D01*
X99919047Y-70752380D02*
X99823809Y-70704761D01*
X99776190Y-70657142D01*
X99728571Y-70561904D01*
X99728571Y-70276190D01*
X99776190Y-70180952D01*
X99823809Y-70133333D01*
X99919047Y-70085714D01*
X100061904Y-70085714D01*
X100157142Y-70133333D01*
X100204761Y-70180952D01*
X100252380Y-70276190D01*
X100252380Y-70561904D01*
X100204761Y-70657142D01*
X100157142Y-70704761D01*
X100061904Y-70752380D01*
X99919047Y-70752380D01*
X100538095Y-70085714D02*
X100919047Y-70085714D01*
X100680952Y-69752380D02*
X100680952Y-70609523D01*
X100728571Y-70704761D01*
X100823809Y-70752380D01*
X100919047Y-70752380D01*
X101442857Y-69752380D02*
X101538095Y-69752380D01*
X101633333Y-69800000D01*
X101680952Y-69847619D01*
X101728571Y-69942857D01*
X101776190Y-70133333D01*
X101776190Y-70371428D01*
X101728571Y-70561904D01*
X101680952Y-70657142D01*
X101633333Y-70704761D01*
X101538095Y-70752380D01*
X101442857Y-70752380D01*
X101347619Y-70704761D01*
X101300000Y-70657142D01*
X101252380Y-70561904D01*
X101204761Y-70371428D01*
X101204761Y-70133333D01*
X101252380Y-69942857D01*
X101300000Y-69847619D01*
X101347619Y-69800000D01*
X101442857Y-69752380D01*
X196507023Y-81207142D02*
X196459404Y-81254761D01*
X196316547Y-81302380D01*
X196221309Y-81302380D01*
X196078452Y-81254761D01*
X195983214Y-81159523D01*
X195935595Y-81064285D01*
X195887976Y-80873809D01*
X195887976Y-80730952D01*
X195935595Y-80540476D01*
X195983214Y-80445238D01*
X196078452Y-80350000D01*
X196221309Y-80302380D01*
X196316547Y-80302380D01*
X196459404Y-80350000D01*
X196507023Y-80397619D01*
X197364166Y-80635714D02*
X197364166Y-81302380D01*
X196935595Y-80635714D02*
X196935595Y-81159523D01*
X196983214Y-81254761D01*
X197078452Y-81302380D01*
X197221309Y-81302380D01*
X197316547Y-81254761D01*
X197364166Y-81207142D01*
X197792738Y-81254761D02*
X197887976Y-81302380D01*
X198078452Y-81302380D01*
X198173690Y-81254761D01*
X198221309Y-81159523D01*
X198221309Y-81111904D01*
X198173690Y-81016666D01*
X198078452Y-80969047D01*
X197935595Y-80969047D01*
X197840357Y-80921428D01*
X197792738Y-80826190D01*
X197792738Y-80778571D01*
X197840357Y-80683333D01*
X197935595Y-80635714D01*
X198078452Y-80635714D01*
X198173690Y-80683333D01*
X198507023Y-80635714D02*
X198887976Y-80635714D01*
X198649880Y-80302380D02*
X198649880Y-81159523D01*
X198697500Y-81254761D01*
X198792738Y-81302380D01*
X198887976Y-81302380D01*
X199364166Y-81302380D02*
X199268928Y-81254761D01*
X199221309Y-81207142D01*
X199173690Y-81111904D01*
X199173690Y-80826190D01*
X199221309Y-80730952D01*
X199268928Y-80683333D01*
X199364166Y-80635714D01*
X199507023Y-80635714D01*
X199602261Y-80683333D01*
X199649880Y-80730952D01*
X199697500Y-80826190D01*
X199697500Y-81111904D01*
X199649880Y-81207142D01*
X199602261Y-81254761D01*
X199507023Y-81302380D01*
X199364166Y-81302380D01*
X200126071Y-81302380D02*
X200126071Y-80635714D01*
X200126071Y-80730952D02*
X200173690Y-80683333D01*
X200268928Y-80635714D01*
X200411785Y-80635714D01*
X200507023Y-80683333D01*
X200554642Y-80778571D01*
X200554642Y-81302380D01*
X200554642Y-80778571D02*
X200602261Y-80683333D01*
X200697500Y-80635714D01*
X200840357Y-80635714D01*
X200935595Y-80683333D01*
X200983214Y-80778571D01*
X200983214Y-81302380D01*
X202697500Y-81302380D02*
X202221309Y-81302380D01*
X202221309Y-80302380D01*
X203030833Y-80778571D02*
X203364166Y-80778571D01*
X203507023Y-81302380D02*
X203030833Y-81302380D01*
X203030833Y-80302380D01*
X203507023Y-80302380D01*
X203935595Y-81302380D02*
X203935595Y-80302380D01*
X204173690Y-80302380D01*
X204316547Y-80350000D01*
X204411785Y-80445238D01*
X204459404Y-80540476D01*
X204507023Y-80730952D01*
X204507023Y-80873809D01*
X204459404Y-81064285D01*
X204411785Y-81159523D01*
X204316547Y-81254761D01*
X204173690Y-81302380D01*
X203935595Y-81302380D01*
X87504761Y-70228571D02*
X87647619Y-70276190D01*
X87695238Y-70323809D01*
X87742857Y-70419047D01*
X87742857Y-70561904D01*
X87695238Y-70657142D01*
X87647619Y-70704761D01*
X87552380Y-70752380D01*
X87171428Y-70752380D01*
X87171428Y-69752380D01*
X87504761Y-69752380D01*
X87600000Y-69800000D01*
X87647619Y-69847619D01*
X87695238Y-69942857D01*
X87695238Y-70038095D01*
X87647619Y-70133333D01*
X87600000Y-70180952D01*
X87504761Y-70228571D01*
X87171428Y-70228571D01*
X88314285Y-70752380D02*
X88219047Y-70704761D01*
X88171428Y-70657142D01*
X88123809Y-70561904D01*
X88123809Y-70276190D01*
X88171428Y-70180952D01*
X88219047Y-70133333D01*
X88314285Y-70085714D01*
X88457142Y-70085714D01*
X88552380Y-70133333D01*
X88600000Y-70180952D01*
X88647619Y-70276190D01*
X88647619Y-70561904D01*
X88600000Y-70657142D01*
X88552380Y-70704761D01*
X88457142Y-70752380D01*
X88314285Y-70752380D01*
X89219047Y-70752380D02*
X89123809Y-70704761D01*
X89076190Y-70657142D01*
X89028571Y-70561904D01*
X89028571Y-70276190D01*
X89076190Y-70180952D01*
X89123809Y-70133333D01*
X89219047Y-70085714D01*
X89361904Y-70085714D01*
X89457142Y-70133333D01*
X89504761Y-70180952D01*
X89552380Y-70276190D01*
X89552380Y-70561904D01*
X89504761Y-70657142D01*
X89457142Y-70704761D01*
X89361904Y-70752380D01*
X89219047Y-70752380D01*
X89838095Y-70085714D02*
X90219047Y-70085714D01*
X89980952Y-69752380D02*
X89980952Y-70609523D01*
X90028571Y-70704761D01*
X90123809Y-70752380D01*
X90219047Y-70752380D01*
X91076190Y-70752380D02*
X90504761Y-70752380D01*
X90790476Y-70752380D02*
X90790476Y-69752380D01*
X90695238Y-69895238D01*
X90600000Y-69990476D01*
X90504761Y-70038095D01*
D12*
%TO.C,LEDs1*%
X208234000Y-51776000D02*
X207234000Y-51776000D01*
X210274000Y-50252000D02*
X210274000Y-63968000D01*
X207250000Y-62444000D02*
X207234000Y-51776000D01*
X208242000Y-50252000D02*
X208242000Y-51764000D01*
X208242000Y-63968000D02*
X208242000Y-62444000D01*
X208242000Y-62444000D02*
X207250000Y-62444000D01*
X208242000Y-50252000D02*
X210274000Y-50252000D01*
X210274000Y-63968000D02*
X208242000Y-63968000D01*
%TO.C,R3*%
X89260000Y-59514721D02*
X89260000Y-59840279D01*
X90280000Y-59514721D02*
X90280000Y-59840279D01*
%TO.C,C3*%
X87680000Y-67402779D02*
X87680000Y-67077221D01*
X86660000Y-67402779D02*
X86660000Y-67077221D01*
%TO.C,U2*%
X79110000Y-65390000D02*
X79110000Y-69150000D01*
X79110000Y-69150000D02*
X80370000Y-69150000D01*
X85930000Y-69150000D02*
X84670000Y-69150000D01*
X85930000Y-63140000D02*
X85930000Y-69150000D01*
%TO.C,R4*%
X87480000Y-59527221D02*
X87480000Y-59852779D01*
X86460000Y-59527221D02*
X86460000Y-59852779D01*
%TO.C,R5*%
X99107221Y-66130000D02*
X99432779Y-66130000D01*
X99107221Y-67150000D02*
X99432779Y-67150000D01*
%TO.C,R10*%
X99432779Y-65550000D02*
X99107221Y-65550000D01*
X99432779Y-64530000D02*
X99107221Y-64530000D01*
%TO.C,Debug1*%
X95280000Y-83545000D02*
X74420000Y-83545000D01*
X95280000Y-74195000D02*
X95280000Y-83545000D01*
X74170000Y-83795000D02*
X76710000Y-83795000D01*
X74170000Y-83795000D02*
X74170000Y-81255000D01*
X74420000Y-83545000D02*
X74420000Y-74195000D01*
X74420000Y-74195000D02*
X95280000Y-74195000D01*
%TO.C,C5*%
X119030000Y-73077221D02*
X119030000Y-73402779D01*
X118010000Y-73077221D02*
X118010000Y-73402779D01*
%TO.C,R6*%
X114682779Y-74750000D02*
X114357221Y-74750000D01*
X114682779Y-73730000D02*
X114357221Y-73730000D01*
%TO.C,SW1*%
X104020000Y-78940000D02*
X104020000Y-81640000D01*
X97720000Y-83390000D02*
X97720000Y-82940000D01*
X104020000Y-82940000D02*
X104020000Y-83390000D01*
X104020000Y-77190000D02*
X97720000Y-77190000D01*
X104020000Y-83390000D02*
X97720000Y-83390000D01*
X97720000Y-81640000D02*
X97720000Y-78940000D01*
X104020000Y-77640000D02*
X104020000Y-77190000D01*
X97720000Y-77190000D02*
X97720000Y-77590000D01*
%TO.C,boot_selector1*%
X96940000Y-63930000D02*
X91740000Y-63930000D01*
X96940000Y-69070000D02*
X91740000Y-69070000D01*
X96940000Y-71670000D02*
X95610000Y-71670000D01*
X96940000Y-70340000D02*
X96940000Y-71670000D01*
X91740000Y-69070000D02*
X91740000Y-63930000D01*
X96940000Y-69070000D02*
X96940000Y-63930000D01*
%TO.C,U1*%
X108270000Y-57884689D02*
X107951802Y-58202887D01*
X113057113Y-62671802D02*
X113375311Y-62990000D01*
X103164689Y-62990000D02*
X103482887Y-62671802D01*
X108588198Y-67777113D02*
X109500366Y-68689281D01*
X103482887Y-63308198D02*
X103164689Y-62990000D01*
X113375311Y-62990000D02*
X113057113Y-63308198D01*
X108588198Y-58202887D02*
X108270000Y-57884689D01*
X107951802Y-67777113D02*
X108270000Y-68095311D01*
X108270000Y-68095311D02*
X108588198Y-67777113D01*
%TO.C,C6*%
X110010000Y-73077221D02*
X110010000Y-73402779D01*
X111030000Y-73077221D02*
X111030000Y-73402779D01*
%TO.C,Y1*%
X117570000Y-69690000D02*
X111820000Y-69690000D01*
X117570000Y-73290000D02*
X117570000Y-69690000D01*
X111820000Y-73290000D02*
X117570000Y-73290000D01*
%TO.C,LED2*%
X103730000Y-75825000D02*
X103730000Y-73140000D01*
X101810000Y-73140000D02*
X101810000Y-75825000D01*
X101810000Y-75825000D02*
X103730000Y-75825000D01*
%TO.C,R2*%
X101480000Y-73777221D02*
X101480000Y-74102779D01*
X100460000Y-73777221D02*
X100460000Y-74102779D01*
%TO.C,R17*%
X99432779Y-68750000D02*
X99107221Y-68750000D01*
X99432779Y-67730000D02*
X99107221Y-67730000D01*
%TO.C,R18*%
X99432779Y-62930000D02*
X99107221Y-62930000D01*
X99432779Y-63950000D02*
X99107221Y-63950000D01*
%TO.C,Rows1*%
X170942000Y-52524000D02*
X170942000Y-50492000D01*
X204978000Y-52524000D02*
X170942000Y-52524000D01*
X204978000Y-52524000D02*
X204978000Y-50492000D01*
X170942000Y-50492000D02*
X172454000Y-50492000D01*
X193040000Y-52500000D02*
X193040000Y-49500000D01*
X203478000Y-50492000D02*
X204978000Y-50492000D01*
X203454000Y-49484000D02*
X203454000Y-50484000D01*
X172454000Y-50492000D02*
X172454000Y-49492000D01*
X172454000Y-49492000D02*
X203454000Y-49484000D01*
%TO.C,R13*%
X196140000Y-57578748D02*
X196140000Y-58101252D01*
X197560000Y-57578748D02*
X197560000Y-58101252D01*
%TO.C,R12*%
X193600000Y-57553748D02*
X193600000Y-58076252D01*
X195020000Y-57553748D02*
X195020000Y-58076252D01*
%TO.C,R15*%
X202640000Y-57523748D02*
X202640000Y-58046252D01*
X201220000Y-57523748D02*
X201220000Y-58046252D01*
%TO.C,R14*%
X200100000Y-57578748D02*
X200100000Y-58101252D01*
X198680000Y-57578748D02*
X198680000Y-58101252D01*
%TO.C,R7*%
X191058578Y-61150000D02*
X190541422Y-61150000D01*
X191058578Y-59730000D02*
X190541422Y-59730000D01*
%TO.C,R8*%
X191058578Y-61760000D02*
X190541422Y-61760000D01*
X191058578Y-63180000D02*
X190541422Y-63180000D01*
%TO.C,R9*%
X191058578Y-65250000D02*
X190541422Y-65250000D01*
X191058578Y-63830000D02*
X190541422Y-63830000D01*
%TO.C,Columns1*%
X113652000Y-51484000D02*
X113652000Y-49476000D01*
X113652000Y-49476000D02*
X157836000Y-49476000D01*
X113664000Y-51508000D02*
X115164000Y-51508000D01*
X156324000Y-52516000D02*
X115176000Y-52516000D01*
X157836000Y-51508000D02*
X156336000Y-51508000D01*
X115176000Y-51516000D02*
X115176000Y-52516000D01*
X157836000Y-49476000D02*
X157836000Y-51508000D01*
X156324000Y-51516000D02*
X156324000Y-52516000D01*
%TO.C,C1*%
X77245279Y-61030000D02*
X76919721Y-61030000D01*
X77245279Y-62050000D02*
X76919721Y-62050000D01*
%TO.C,LED1*%
X70730000Y-52740000D02*
X70730000Y-50055000D01*
X68810000Y-50055000D02*
X68810000Y-52740000D01*
X70730000Y-50055000D02*
X68810000Y-50055000D01*
%TO.C,R1*%
X76907221Y-59230000D02*
X77232779Y-59230000D01*
X76907221Y-60250000D02*
X77232779Y-60250000D01*
D13*
%TO.C,G\u002A\u002A\u002A*%
X133670367Y-72284416D02*
X133823886Y-72614104D01*
X133823886Y-72614104D02*
X133972263Y-72933090D01*
X133972263Y-72933090D02*
X134110120Y-73229784D01*
X134110120Y-73229784D02*
X134232075Y-73492595D01*
X134232075Y-73492595D02*
X134332749Y-73709931D01*
X134332749Y-73709931D02*
X134406763Y-73870201D01*
X134406763Y-73870201D02*
X134439708Y-73941967D01*
X134439708Y-73941967D02*
X134516004Y-74095170D01*
X134516004Y-74095170D02*
X134577436Y-74191061D01*
X134577436Y-74191061D02*
X134617280Y-74219460D01*
X134617280Y-74219460D02*
X134621383Y-74216883D01*
X134621383Y-74216883D02*
X134643404Y-74173939D01*
X134643404Y-74173939D02*
X134694946Y-74063298D01*
X134694946Y-74063298D02*
X134771633Y-73894851D01*
X134771633Y-73894851D02*
X134869088Y-73678485D01*
X134869088Y-73678485D02*
X134982934Y-73424088D01*
X134982934Y-73424088D02*
X135108793Y-73141549D01*
X135108793Y-73141549D02*
X135242289Y-72840756D01*
X135242289Y-72840756D02*
X135379045Y-72531599D01*
X135379045Y-72531599D02*
X135514683Y-72223964D01*
X135514683Y-72223964D02*
X135644827Y-71927742D01*
X135644827Y-71927742D02*
X135765099Y-71652819D01*
X135765099Y-71652819D02*
X135871123Y-71409085D01*
X135871123Y-71409085D02*
X135958521Y-71206428D01*
X135958521Y-71206428D02*
X136022916Y-71054736D01*
X136022916Y-71054736D02*
X136048306Y-70993250D01*
X136048306Y-70993250D02*
X136074270Y-70977342D01*
X136074270Y-70977342D02*
X136142642Y-70964707D01*
X136142642Y-70964707D02*
X136260561Y-70955050D01*
X136260561Y-70955050D02*
X136435167Y-70948079D01*
X136435167Y-70948079D02*
X136673598Y-70943499D01*
X136673598Y-70943499D02*
X136982996Y-70941016D01*
X136982996Y-70941016D02*
X137335196Y-70940333D01*
X137335196Y-70940333D02*
X138600667Y-70940333D01*
X138600667Y-70940333D02*
X138600667Y-71617667D01*
X138600667Y-71617667D02*
X137923333Y-71617667D01*
X137923333Y-71617667D02*
X137923333Y-77205667D01*
X137923333Y-77205667D02*
X138600667Y-77205667D01*
X138600667Y-77205667D02*
X138600667Y-77840667D01*
X138600667Y-77840667D02*
X135595000Y-77840667D01*
X135595000Y-77840667D02*
X135595000Y-77209091D01*
X135595000Y-77209091D02*
X135944250Y-77196795D01*
X135944250Y-77196795D02*
X136293500Y-77184500D01*
X136293500Y-77184500D02*
X136304419Y-74676250D01*
X136304419Y-74676250D02*
X136305861Y-74224157D01*
X136305861Y-74224157D02*
X136306201Y-73798252D01*
X136306201Y-73798252D02*
X136305500Y-73405897D01*
X136305500Y-73405897D02*
X136303820Y-73054452D01*
X136303820Y-73054452D02*
X136301224Y-72751278D01*
X136301224Y-72751278D02*
X136297774Y-72503738D01*
X136297774Y-72503738D02*
X136293531Y-72319192D01*
X136293531Y-72319192D02*
X136288559Y-72205001D01*
X136288559Y-72205001D02*
X136283252Y-72168389D01*
X136283252Y-72168389D02*
X136258086Y-72205926D01*
X136258086Y-72205926D02*
X136208168Y-72309809D01*
X136208168Y-72309809D02*
X136139091Y-72467344D01*
X136139091Y-72467344D02*
X136056452Y-72665834D01*
X136056452Y-72665834D02*
X135980102Y-72856306D01*
X135980102Y-72856306D02*
X135906011Y-73037129D01*
X135906011Y-73037129D02*
X135807825Y-73265960D01*
X135807825Y-73265960D02*
X135689553Y-73534284D01*
X135689553Y-73534284D02*
X135555202Y-73833586D01*
X135555202Y-73833586D02*
X135408780Y-74155351D01*
X135408780Y-74155351D02*
X135254294Y-74491064D01*
X135254294Y-74491064D02*
X135095753Y-74832211D01*
X135095753Y-74832211D02*
X134937163Y-75170277D01*
X134937163Y-75170277D02*
X134782532Y-75496747D01*
X134782532Y-75496747D02*
X134635868Y-75803105D01*
X134635868Y-75803105D02*
X134501179Y-76080838D01*
X134501179Y-76080838D02*
X134382473Y-76321429D01*
X134382473Y-76321429D02*
X134283756Y-76516366D01*
X134283756Y-76516366D02*
X134209036Y-76657132D01*
X134209036Y-76657132D02*
X134162322Y-76735212D01*
X134162322Y-76735212D02*
X134148419Y-76747999D01*
X134148419Y-76747999D02*
X134118189Y-76697071D01*
X134118189Y-76697071D02*
X134057331Y-76578096D01*
X134057331Y-76578096D02*
X133970068Y-76400186D01*
X133970068Y-76400186D02*
X133860625Y-76172455D01*
X133860625Y-76172455D02*
X133733224Y-75904016D01*
X133733224Y-75904016D02*
X133592090Y-75603982D01*
X133592090Y-75603982D02*
X133441446Y-75281467D01*
X133441446Y-75281467D02*
X133285515Y-74945584D01*
X133285515Y-74945584D02*
X133128522Y-74605445D01*
X133128522Y-74605445D02*
X132974690Y-74270165D01*
X132974690Y-74270165D02*
X132828242Y-73948856D01*
X132828242Y-73948856D02*
X132693402Y-73650631D01*
X132693402Y-73650631D02*
X132574393Y-73384605D01*
X132574393Y-73384605D02*
X132475440Y-73159890D01*
X132475440Y-73159890D02*
X132400766Y-72985599D01*
X132400766Y-72985599D02*
X132370334Y-72911432D01*
X132370334Y-72911432D02*
X132281774Y-72691314D01*
X132281774Y-72691314D02*
X132201862Y-72495967D01*
X132201862Y-72495967D02*
X132136795Y-72340287D01*
X132136795Y-72340287D02*
X132092769Y-72239171D01*
X132092769Y-72239171D02*
X132078709Y-72210333D01*
X132078709Y-72210333D02*
X132071499Y-72238982D01*
X132071499Y-72238982D02*
X132064815Y-72346563D01*
X132064815Y-72346563D02*
X132058746Y-72527346D01*
X132058746Y-72527346D02*
X132053382Y-72775599D01*
X132053382Y-72775599D02*
X132048813Y-73085588D01*
X132048813Y-73085588D02*
X132045127Y-73451581D01*
X132045127Y-73451581D02*
X132042414Y-73867848D01*
X132042414Y-73867848D02*
X132040764Y-74328655D01*
X132040764Y-74328655D02*
X132040287Y-74676250D01*
X132040287Y-74676250D02*
X132039000Y-77205667D01*
X132039000Y-77205667D02*
X132716333Y-77205667D01*
X132716333Y-77205667D02*
X132716333Y-77840667D01*
X132716333Y-77840667D02*
X130557333Y-77840667D01*
X130557333Y-77840667D02*
X130557333Y-77205667D01*
X130557333Y-77205667D02*
X131234667Y-77205667D01*
X131234667Y-77205667D02*
X131234667Y-71617667D01*
X131234667Y-71617667D02*
X130557333Y-71617667D01*
X130557333Y-71617667D02*
X130557333Y-70940333D01*
X130557333Y-70940333D02*
X133044151Y-70940333D01*
X133044151Y-70940333D02*
X133670367Y-72284416D01*
X133670367Y-72284416D02*
X133670367Y-72284416D01*
G36*
X133670367Y-72284416D02*
G01*
X133823886Y-72614104D01*
X133972263Y-72933090D01*
X134110120Y-73229784D01*
X134232075Y-73492595D01*
X134332749Y-73709931D01*
X134406763Y-73870201D01*
X134439708Y-73941967D01*
X134516004Y-74095170D01*
X134577436Y-74191061D01*
X134617280Y-74219460D01*
X134621383Y-74216883D01*
X134643404Y-74173939D01*
X134694946Y-74063298D01*
X134771633Y-73894851D01*
X134869088Y-73678485D01*
X134982934Y-73424088D01*
X135108793Y-73141549D01*
X135242289Y-72840756D01*
X135379045Y-72531599D01*
X135514683Y-72223964D01*
X135644827Y-71927742D01*
X135765099Y-71652819D01*
X135871123Y-71409085D01*
X135958521Y-71206428D01*
X136022916Y-71054736D01*
X136048306Y-70993250D01*
X136074270Y-70977342D01*
X136142642Y-70964707D01*
X136260561Y-70955050D01*
X136435167Y-70948079D01*
X136673598Y-70943499D01*
X136982996Y-70941016D01*
X137335196Y-70940333D01*
X138600667Y-70940333D01*
X138600667Y-71617667D01*
X137923333Y-71617667D01*
X137923333Y-77205667D01*
X138600667Y-77205667D01*
X138600667Y-77840667D01*
X135595000Y-77840667D01*
X135595000Y-77209091D01*
X135944250Y-77196795D01*
X136293500Y-77184500D01*
X136304419Y-74676250D01*
X136305861Y-74224157D01*
X136306201Y-73798252D01*
X136305500Y-73405897D01*
X136303820Y-73054452D01*
X136301224Y-72751278D01*
X136297774Y-72503738D01*
X136293531Y-72319192D01*
X136288559Y-72205001D01*
X136283252Y-72168389D01*
X136258086Y-72205926D01*
X136208168Y-72309809D01*
X136139091Y-72467344D01*
X136056452Y-72665834D01*
X135980102Y-72856306D01*
X135906011Y-73037129D01*
X135807825Y-73265960D01*
X135689553Y-73534284D01*
X135555202Y-73833586D01*
X135408780Y-74155351D01*
X135254294Y-74491064D01*
X135095753Y-74832211D01*
X134937163Y-75170277D01*
X134782532Y-75496747D01*
X134635868Y-75803105D01*
X134501179Y-76080838D01*
X134382473Y-76321429D01*
X134283756Y-76516366D01*
X134209036Y-76657132D01*
X134162322Y-76735212D01*
X134148419Y-76747999D01*
X134118189Y-76697071D01*
X134057331Y-76578096D01*
X133970068Y-76400186D01*
X133860625Y-76172455D01*
X133733224Y-75904016D01*
X133592090Y-75603982D01*
X133441446Y-75281467D01*
X133285515Y-74945584D01*
X133128522Y-74605445D01*
X132974690Y-74270165D01*
X132828242Y-73948856D01*
X132693402Y-73650631D01*
X132574393Y-73384605D01*
X132475440Y-73159890D01*
X132400766Y-72985599D01*
X132370334Y-72911432D01*
X132281774Y-72691314D01*
X132201862Y-72495967D01*
X132136795Y-72340287D01*
X132092769Y-72239171D01*
X132078709Y-72210333D01*
X132071499Y-72238982D01*
X132064815Y-72346563D01*
X132058746Y-72527346D01*
X132053382Y-72775599D01*
X132048813Y-73085588D01*
X132045127Y-73451581D01*
X132042414Y-73867848D01*
X132040764Y-74328655D01*
X132040287Y-74676250D01*
X132039000Y-77205667D01*
X132716333Y-77205667D01*
X132716333Y-77840667D01*
X130557333Y-77840667D01*
X130557333Y-77205667D01*
X131234667Y-77205667D01*
X131234667Y-71617667D01*
X130557333Y-71617667D01*
X130557333Y-70940333D01*
X133044151Y-70940333D01*
X133670367Y-72284416D01*
G37*
X133670367Y-72284416D02*
X133823886Y-72614104D01*
X133972263Y-72933090D01*
X134110120Y-73229784D01*
X134232075Y-73492595D01*
X134332749Y-73709931D01*
X134406763Y-73870201D01*
X134439708Y-73941967D01*
X134516004Y-74095170D01*
X134577436Y-74191061D01*
X134617280Y-74219460D01*
X134621383Y-74216883D01*
X134643404Y-74173939D01*
X134694946Y-74063298D01*
X134771633Y-73894851D01*
X134869088Y-73678485D01*
X134982934Y-73424088D01*
X135108793Y-73141549D01*
X135242289Y-72840756D01*
X135379045Y-72531599D01*
X135514683Y-72223964D01*
X135644827Y-71927742D01*
X135765099Y-71652819D01*
X135871123Y-71409085D01*
X135958521Y-71206428D01*
X136022916Y-71054736D01*
X136048306Y-70993250D01*
X136074270Y-70977342D01*
X136142642Y-70964707D01*
X136260561Y-70955050D01*
X136435167Y-70948079D01*
X136673598Y-70943499D01*
X136982996Y-70941016D01*
X137335196Y-70940333D01*
X138600667Y-70940333D01*
X138600667Y-71617667D01*
X137923333Y-71617667D01*
X137923333Y-77205667D01*
X138600667Y-77205667D01*
X138600667Y-77840667D01*
X135595000Y-77840667D01*
X135595000Y-77209091D01*
X135944250Y-77196795D01*
X136293500Y-77184500D01*
X136304419Y-74676250D01*
X136305861Y-74224157D01*
X136306201Y-73798252D01*
X136305500Y-73405897D01*
X136303820Y-73054452D01*
X136301224Y-72751278D01*
X136297774Y-72503738D01*
X136293531Y-72319192D01*
X136288559Y-72205001D01*
X136283252Y-72168389D01*
X136258086Y-72205926D01*
X136208168Y-72309809D01*
X136139091Y-72467344D01*
X136056452Y-72665834D01*
X135980102Y-72856306D01*
X135906011Y-73037129D01*
X135807825Y-73265960D01*
X135689553Y-73534284D01*
X135555202Y-73833586D01*
X135408780Y-74155351D01*
X135254294Y-74491064D01*
X135095753Y-74832211D01*
X134937163Y-75170277D01*
X134782532Y-75496747D01*
X134635868Y-75803105D01*
X134501179Y-76080838D01*
X134382473Y-76321429D01*
X134283756Y-76516366D01*
X134209036Y-76657132D01*
X134162322Y-76735212D01*
X134148419Y-76747999D01*
X134118189Y-76697071D01*
X134057331Y-76578096D01*
X133970068Y-76400186D01*
X133860625Y-76172455D01*
X133733224Y-75904016D01*
X133592090Y-75603982D01*
X133441446Y-75281467D01*
X133285515Y-74945584D01*
X133128522Y-74605445D01*
X132974690Y-74270165D01*
X132828242Y-73948856D01*
X132693402Y-73650631D01*
X132574393Y-73384605D01*
X132475440Y-73159890D01*
X132400766Y-72985599D01*
X132370334Y-72911432D01*
X132281774Y-72691314D01*
X132201862Y-72495967D01*
X132136795Y-72340287D01*
X132092769Y-72239171D01*
X132078709Y-72210333D01*
X132071499Y-72238982D01*
X132064815Y-72346563D01*
X132058746Y-72527346D01*
X132053382Y-72775599D01*
X132048813Y-73085588D01*
X132045127Y-73451581D01*
X132042414Y-73867848D01*
X132040764Y-74328655D01*
X132040287Y-74676250D01*
X132039000Y-77205667D01*
X132716333Y-77205667D01*
X132716333Y-77840667D01*
X130557333Y-77840667D01*
X130557333Y-77205667D01*
X131234667Y-77205667D01*
X131234667Y-71617667D01*
X130557333Y-71617667D01*
X130557333Y-70940333D01*
X133044151Y-70940333D01*
X133670367Y-72284416D01*
X142378681Y-72588227D02*
X142814878Y-72699425D01*
X142814878Y-72699425D02*
X143207206Y-72880949D01*
X143207206Y-72880949D02*
X143551613Y-73129688D01*
X143551613Y-73129688D02*
X143844046Y-73442529D01*
X143844046Y-73442529D02*
X144080454Y-73816359D01*
X144080454Y-73816359D02*
X144256784Y-74248065D01*
X144256784Y-74248065D02*
X144297916Y-74390500D01*
X144297916Y-74390500D02*
X144342852Y-74632014D01*
X144342852Y-74632014D02*
X144369972Y-74928898D01*
X144369972Y-74928898D02*
X144379259Y-75253748D01*
X144379259Y-75253748D02*
X144370700Y-75579160D01*
X144370700Y-75579160D02*
X144344277Y-75877730D01*
X144344277Y-75877730D02*
X144299975Y-76122053D01*
X144299975Y-76122053D02*
X144298915Y-76126167D01*
X144298915Y-76126167D02*
X144153537Y-76543630D01*
X144153537Y-76543630D02*
X143947699Y-76922943D01*
X143947699Y-76922943D02*
X143689580Y-77253431D01*
X143689580Y-77253431D02*
X143387357Y-77524420D01*
X143387357Y-77524420D02*
X143088000Y-77706865D01*
X143088000Y-77706865D02*
X142700108Y-77853421D01*
X142700108Y-77853421D02*
X142271423Y-77939509D01*
X142271423Y-77939509D02*
X141822526Y-77962985D01*
X141822526Y-77962985D02*
X141373997Y-77921705D01*
X141373997Y-77921705D02*
X141251026Y-77898196D01*
X141251026Y-77898196D02*
X140828499Y-77767402D01*
X140828499Y-77767402D02*
X140454236Y-77567927D01*
X140454236Y-77567927D02*
X140130818Y-77302371D01*
X140130818Y-77302371D02*
X139860825Y-76973338D01*
X139860825Y-76973338D02*
X139646837Y-76583430D01*
X139646837Y-76583430D02*
X139491434Y-76135248D01*
X139491434Y-76135248D02*
X139487329Y-76119476D01*
X139487329Y-76119476D02*
X139430419Y-75809130D01*
X139430419Y-75809130D02*
X139401773Y-75450726D01*
X139401773Y-75450726D02*
X139401576Y-75257761D01*
X139401576Y-75257761D02*
X140988562Y-75257761D01*
X140988562Y-75257761D02*
X140989931Y-75571308D01*
X140989931Y-75571308D02*
X140994597Y-75871207D01*
X140994597Y-75871207D02*
X141002564Y-76143654D01*
X141002564Y-76143654D02*
X141013832Y-76374845D01*
X141013832Y-76374845D02*
X141028405Y-76550976D01*
X141028405Y-76550976D02*
X141046284Y-76658245D01*
X141046284Y-76658245D02*
X141049054Y-76666992D01*
X141049054Y-76666992D02*
X141172493Y-76898746D01*
X141172493Y-76898746D02*
X141355291Y-77084216D01*
X141355291Y-77084216D02*
X141498748Y-77171109D01*
X141498748Y-77171109D02*
X141705148Y-77230011D01*
X141705148Y-77230011D02*
X141943752Y-77240013D01*
X141943752Y-77240013D02*
X142180781Y-77203458D01*
X142180781Y-77203458D02*
X142382457Y-77122684D01*
X142382457Y-77122684D02*
X142405492Y-77108282D01*
X142405492Y-77108282D02*
X142554386Y-76971549D01*
X142554386Y-76971549D02*
X142670121Y-76795710D01*
X142670121Y-76795710D02*
X142699038Y-76734291D01*
X142699038Y-76734291D02*
X142721926Y-76673814D01*
X142721926Y-76673814D02*
X142739616Y-76603703D01*
X142739616Y-76603703D02*
X142752937Y-76513382D01*
X142752937Y-76513382D02*
X142762720Y-76392273D01*
X142762720Y-76392273D02*
X142769793Y-76229801D01*
X142769793Y-76229801D02*
X142774988Y-76015389D01*
X142774988Y-76015389D02*
X142779134Y-75738461D01*
X142779134Y-75738461D02*
X142783060Y-75388440D01*
X142783060Y-75388440D02*
X142783448Y-75351384D01*
X142783448Y-75351384D02*
X142786546Y-74938772D01*
X142786546Y-74938772D02*
X142785476Y-74601212D01*
X142785476Y-74601212D02*
X142778883Y-74329134D01*
X142778883Y-74329134D02*
X142765413Y-74112968D01*
X142765413Y-74112968D02*
X142743711Y-73943145D01*
X142743711Y-73943145D02*
X142712424Y-73810098D01*
X142712424Y-73810098D02*
X142670196Y-73704255D01*
X142670196Y-73704255D02*
X142615674Y-73616050D01*
X142615674Y-73616050D02*
X142547504Y-73535911D01*
X142547504Y-73535911D02*
X142522963Y-73510786D01*
X142522963Y-73510786D02*
X142322794Y-73364694D01*
X142322794Y-73364694D02*
X142094660Y-73285798D01*
X142094660Y-73285798D02*
X141854297Y-73270338D01*
X141854297Y-73270338D02*
X141617436Y-73314556D01*
X141617436Y-73314556D02*
X141399813Y-73414692D01*
X141399813Y-73414692D02*
X141217160Y-73566985D01*
X141217160Y-73566985D02*
X141085211Y-73767678D01*
X141085211Y-73767678D02*
X141049485Y-73862868D01*
X141049485Y-73862868D02*
X141031111Y-73968428D01*
X141031111Y-73968428D02*
X141016023Y-74143162D01*
X141016023Y-74143162D02*
X141004222Y-74373266D01*
X141004222Y-74373266D02*
X140995710Y-74644936D01*
X140995710Y-74644936D02*
X140990489Y-74944369D01*
X140990489Y-74944369D02*
X140988562Y-75257761D01*
X140988562Y-75257761D02*
X139401576Y-75257761D01*
X139401576Y-75257761D02*
X139401390Y-75076016D01*
X139401390Y-75076016D02*
X139429271Y-74716752D01*
X139429271Y-74716752D02*
X139485415Y-74404686D01*
X139485415Y-74404686D02*
X139487329Y-74397190D01*
X139487329Y-74397190D02*
X139642050Y-73945793D01*
X139642050Y-73945793D02*
X139856798Y-73553180D01*
X139856798Y-73553180D02*
X140128455Y-73221738D01*
X140128455Y-73221738D02*
X140453902Y-72953850D01*
X140453902Y-72953850D02*
X140830020Y-72751900D01*
X140830020Y-72751900D02*
X141253692Y-72618273D01*
X141253692Y-72618273D02*
X141721798Y-72555353D01*
X141721798Y-72555353D02*
X141902667Y-72550470D01*
X141902667Y-72550470D02*
X142378681Y-72588227D01*
X142378681Y-72588227D02*
X142378681Y-72588227D01*
G36*
X139429271Y-74716752D02*
G01*
X139485415Y-74404686D01*
X139487329Y-74397190D01*
X139642050Y-73945793D01*
X139856798Y-73553180D01*
X140128455Y-73221738D01*
X140453902Y-72953850D01*
X140830020Y-72751900D01*
X141253692Y-72618273D01*
X141721798Y-72555353D01*
X141902667Y-72550470D01*
X142378681Y-72588227D01*
X142814878Y-72699425D01*
X143207206Y-72880949D01*
X143551613Y-73129688D01*
X143844046Y-73442529D01*
X144080454Y-73816359D01*
X144256784Y-74248065D01*
X144297916Y-74390500D01*
X144342852Y-74632014D01*
X144369972Y-74928898D01*
X144379259Y-75253748D01*
X144370700Y-75579160D01*
X144344277Y-75877730D01*
X144299975Y-76122053D01*
X144298915Y-76126167D01*
X144153537Y-76543630D01*
X143947699Y-76922943D01*
X143689580Y-77253431D01*
X143387357Y-77524420D01*
X143088000Y-77706865D01*
X142700108Y-77853421D01*
X142271423Y-77939509D01*
X141822526Y-77962985D01*
X141373997Y-77921705D01*
X141251026Y-77898196D01*
X140828499Y-77767402D01*
X140454236Y-77567927D01*
X140130818Y-77302371D01*
X139860825Y-76973338D01*
X139646837Y-76583430D01*
X139491434Y-76135248D01*
X139487329Y-76119476D01*
X139430419Y-75809130D01*
X139401773Y-75450726D01*
X139401576Y-75257761D01*
X140988562Y-75257761D01*
X140989931Y-75571308D01*
X140994597Y-75871207D01*
X141002564Y-76143654D01*
X141013832Y-76374845D01*
X141028405Y-76550976D01*
X141046284Y-76658245D01*
X141049054Y-76666992D01*
X141172493Y-76898746D01*
X141355291Y-77084216D01*
X141498748Y-77171109D01*
X141705148Y-77230011D01*
X141943752Y-77240013D01*
X142180781Y-77203458D01*
X142382457Y-77122684D01*
X142405492Y-77108282D01*
X142554386Y-76971549D01*
X142670121Y-76795710D01*
X142699038Y-76734291D01*
X142721926Y-76673814D01*
X142739616Y-76603703D01*
X142752937Y-76513382D01*
X142762720Y-76392273D01*
X142769793Y-76229801D01*
X142774988Y-76015389D01*
X142779134Y-75738461D01*
X142783060Y-75388440D01*
X142783448Y-75351384D01*
X142786546Y-74938772D01*
X142785476Y-74601212D01*
X142778883Y-74329134D01*
X142765413Y-74112968D01*
X142743711Y-73943145D01*
X142712424Y-73810098D01*
X142670196Y-73704255D01*
X142615674Y-73616050D01*
X142547504Y-73535911D01*
X142522963Y-73510786D01*
X142322794Y-73364694D01*
X142094660Y-73285798D01*
X141854297Y-73270338D01*
X141617436Y-73314556D01*
X141399813Y-73414692D01*
X141217160Y-73566985D01*
X141085211Y-73767678D01*
X141049485Y-73862868D01*
X141031111Y-73968428D01*
X141016023Y-74143162D01*
X141004222Y-74373266D01*
X140995710Y-74644936D01*
X140990489Y-74944369D01*
X140988562Y-75257761D01*
X139401576Y-75257761D01*
X139401390Y-75076016D01*
X139429271Y-74716752D01*
G37*
X139429271Y-74716752D02*
X139485415Y-74404686D01*
X139487329Y-74397190D01*
X139642050Y-73945793D01*
X139856798Y-73553180D01*
X140128455Y-73221738D01*
X140453902Y-72953850D01*
X140830020Y-72751900D01*
X141253692Y-72618273D01*
X141721798Y-72555353D01*
X141902667Y-72550470D01*
X142378681Y-72588227D01*
X142814878Y-72699425D01*
X143207206Y-72880949D01*
X143551613Y-73129688D01*
X143844046Y-73442529D01*
X144080454Y-73816359D01*
X144256784Y-74248065D01*
X144297916Y-74390500D01*
X144342852Y-74632014D01*
X144369972Y-74928898D01*
X144379259Y-75253748D01*
X144370700Y-75579160D01*
X144344277Y-75877730D01*
X144299975Y-76122053D01*
X144298915Y-76126167D01*
X144153537Y-76543630D01*
X143947699Y-76922943D01*
X143689580Y-77253431D01*
X143387357Y-77524420D01*
X143088000Y-77706865D01*
X142700108Y-77853421D01*
X142271423Y-77939509D01*
X141822526Y-77962985D01*
X141373997Y-77921705D01*
X141251026Y-77898196D01*
X140828499Y-77767402D01*
X140454236Y-77567927D01*
X140130818Y-77302371D01*
X139860825Y-76973338D01*
X139646837Y-76583430D01*
X139491434Y-76135248D01*
X139487329Y-76119476D01*
X139430419Y-75809130D01*
X139401773Y-75450726D01*
X139401576Y-75257761D01*
X140988562Y-75257761D01*
X140989931Y-75571308D01*
X140994597Y-75871207D01*
X141002564Y-76143654D01*
X141013832Y-76374845D01*
X141028405Y-76550976D01*
X141046284Y-76658245D01*
X141049054Y-76666992D01*
X141172493Y-76898746D01*
X141355291Y-77084216D01*
X141498748Y-77171109D01*
X141705148Y-77230011D01*
X141943752Y-77240013D01*
X142180781Y-77203458D01*
X142382457Y-77122684D01*
X142405492Y-77108282D01*
X142554386Y-76971549D01*
X142670121Y-76795710D01*
X142699038Y-76734291D01*
X142721926Y-76673814D01*
X142739616Y-76603703D01*
X142752937Y-76513382D01*
X142762720Y-76392273D01*
X142769793Y-76229801D01*
X142774988Y-76015389D01*
X142779134Y-75738461D01*
X142783060Y-75388440D01*
X142783448Y-75351384D01*
X142786546Y-74938772D01*
X142785476Y-74601212D01*
X142778883Y-74329134D01*
X142765413Y-74112968D01*
X142743711Y-73943145D01*
X142712424Y-73810098D01*
X142670196Y-73704255D01*
X142615674Y-73616050D01*
X142547504Y-73535911D01*
X142522963Y-73510786D01*
X142322794Y-73364694D01*
X142094660Y-73285798D01*
X141854297Y-73270338D01*
X141617436Y-73314556D01*
X141399813Y-73414692D01*
X141217160Y-73566985D01*
X141085211Y-73767678D01*
X141049485Y-73862868D01*
X141031111Y-73968428D01*
X141016023Y-74143162D01*
X141004222Y-74373266D01*
X140995710Y-74644936D01*
X140990489Y-74944369D01*
X140988562Y-75257761D01*
X139401576Y-75257761D01*
X139401390Y-75076016D01*
X139429271Y-74716752D01*
X165651667Y-71617667D02*
X164974333Y-71617667D01*
X164974333Y-71617667D02*
X164974333Y-73946000D01*
X164974333Y-73946000D02*
X167556667Y-73946000D01*
X167556667Y-73946000D02*
X167556667Y-71617667D01*
X167556667Y-71617667D02*
X166879333Y-71617667D01*
X166879333Y-71617667D02*
X166879333Y-70940333D01*
X166879333Y-70940333D02*
X169885000Y-70940333D01*
X169885000Y-70940333D02*
X169885000Y-71617667D01*
X169885000Y-71617667D02*
X169207667Y-71617667D01*
X169207667Y-71617667D02*
X169207667Y-77205667D01*
X169207667Y-77205667D02*
X169885000Y-77205667D01*
X169885000Y-77205667D02*
X169885000Y-77840667D01*
X169885000Y-77840667D02*
X166879333Y-77840667D01*
X166879333Y-77840667D02*
X166879333Y-77205667D01*
X166879333Y-77205667D02*
X167556667Y-77205667D01*
X167556667Y-77205667D02*
X167556667Y-74665667D01*
X167556667Y-74665667D02*
X164974333Y-74665667D01*
X164974333Y-74665667D02*
X164974333Y-77205667D01*
X164974333Y-77205667D02*
X165651667Y-77205667D01*
X165651667Y-77205667D02*
X165651667Y-77840667D01*
X165651667Y-77840667D02*
X162646000Y-77840667D01*
X162646000Y-77840667D02*
X162646000Y-77205667D01*
X162646000Y-77205667D02*
X163323333Y-77205667D01*
X163323333Y-77205667D02*
X163323333Y-71617667D01*
X163323333Y-71617667D02*
X162646000Y-71617667D01*
X162646000Y-71617667D02*
X162646000Y-70940333D01*
X162646000Y-70940333D02*
X165651667Y-70940333D01*
X165651667Y-70940333D02*
X165651667Y-71617667D01*
X165651667Y-71617667D02*
X165651667Y-71617667D01*
G36*
X165651667Y-71617667D02*
G01*
X164974333Y-71617667D01*
X164974333Y-73946000D01*
X167556667Y-73946000D01*
X167556667Y-71617667D01*
X166879333Y-71617667D01*
X166879333Y-70940333D01*
X169885000Y-70940333D01*
X169885000Y-71617667D01*
X169207667Y-71617667D01*
X169207667Y-77205667D01*
X169885000Y-77205667D01*
X169885000Y-77840667D01*
X166879333Y-77840667D01*
X166879333Y-77205667D01*
X167556667Y-77205667D01*
X167556667Y-74665667D01*
X164974333Y-74665667D01*
X164974333Y-77205667D01*
X165651667Y-77205667D01*
X165651667Y-77840667D01*
X162646000Y-77840667D01*
X162646000Y-77205667D01*
X163323333Y-77205667D01*
X163323333Y-71617667D01*
X162646000Y-71617667D01*
X162646000Y-70940333D01*
X165651667Y-70940333D01*
X165651667Y-71617667D01*
G37*
X165651667Y-71617667D02*
X164974333Y-71617667D01*
X164974333Y-73946000D01*
X167556667Y-73946000D01*
X167556667Y-71617667D01*
X166879333Y-71617667D01*
X166879333Y-70940333D01*
X169885000Y-70940333D01*
X169885000Y-71617667D01*
X169207667Y-71617667D01*
X169207667Y-77205667D01*
X169885000Y-77205667D01*
X169885000Y-77840667D01*
X166879333Y-77840667D01*
X166879333Y-77205667D01*
X167556667Y-77205667D01*
X167556667Y-74665667D01*
X164974333Y-74665667D01*
X164974333Y-77205667D01*
X165651667Y-77205667D01*
X165651667Y-77840667D01*
X162646000Y-77840667D01*
X162646000Y-77205667D01*
X163323333Y-77205667D01*
X163323333Y-71617667D01*
X162646000Y-71617667D01*
X162646000Y-70940333D01*
X165651667Y-70940333D01*
X165651667Y-71617667D01*
X150241911Y-70364572D02*
X150250772Y-70415242D01*
X150250772Y-70415242D02*
X150258408Y-70505590D01*
X150258408Y-70505590D02*
X150264896Y-70640304D01*
X150264896Y-70640304D02*
X150270313Y-70824073D01*
X150270313Y-70824073D02*
X150274734Y-71061586D01*
X150274734Y-71061586D02*
X150278235Y-71357532D01*
X150278235Y-71357532D02*
X150280894Y-71716598D01*
X150280894Y-71716598D02*
X150282787Y-72143474D01*
X150282787Y-72143474D02*
X150283989Y-72642849D01*
X150283989Y-72642849D02*
X150284577Y-73219411D01*
X150284577Y-73219411D02*
X150284667Y-73600975D01*
X150284667Y-73600975D02*
X150284667Y-76854284D01*
X150284667Y-76854284D02*
X150570417Y-76913559D01*
X150570417Y-76913559D02*
X150856167Y-76972833D01*
X150856167Y-76972833D02*
X150868569Y-77253537D01*
X150868569Y-77253537D02*
X150873540Y-77403648D01*
X150873540Y-77403648D02*
X150866988Y-77490211D01*
X150866988Y-77490211D02*
X150841754Y-77534231D01*
X150841754Y-77534231D02*
X150790678Y-77556714D01*
X150790678Y-77556714D02*
X150762736Y-77564048D01*
X150762736Y-77564048D02*
X150696931Y-77578691D01*
X150696931Y-77578691D02*
X150566079Y-77606300D01*
X150566079Y-77606300D02*
X150384284Y-77644012D01*
X150384284Y-77644012D02*
X150165650Y-77688962D01*
X150165650Y-77688962D02*
X149924282Y-77738285D01*
X149924282Y-77738285D02*
X149674283Y-77789117D01*
X149674283Y-77789117D02*
X149429757Y-77838594D01*
X149429757Y-77838594D02*
X149204808Y-77883851D01*
X149204808Y-77883851D02*
X149013541Y-77922024D01*
X149013541Y-77922024D02*
X148870060Y-77950248D01*
X148870060Y-77950248D02*
X148788467Y-77965660D01*
X148788467Y-77965660D02*
X148775343Y-77967667D01*
X148775343Y-77967667D02*
X148769505Y-77928222D01*
X148769505Y-77928222D02*
X148762825Y-77821410D01*
X148762825Y-77821410D02*
X148756208Y-77664510D01*
X148756208Y-77664510D02*
X148751515Y-77512583D01*
X148751515Y-77512583D02*
X148739500Y-77057500D01*
X148739500Y-77057500D02*
X148647837Y-77226833D01*
X148647837Y-77226833D02*
X148530923Y-77395368D01*
X148530923Y-77395368D02*
X148368141Y-77570260D01*
X148368141Y-77570260D02*
X148189638Y-77720586D01*
X148189638Y-77720586D02*
X148122385Y-77765806D01*
X148122385Y-77765806D02*
X147876905Y-77875647D01*
X147876905Y-77875647D02*
X147582539Y-77941227D01*
X147582539Y-77941227D02*
X147264072Y-77960009D01*
X147264072Y-77960009D02*
X146946290Y-77929456D01*
X146946290Y-77929456D02*
X146813333Y-77899800D01*
X146813333Y-77899800D02*
X146466709Y-77764112D01*
X146466709Y-77764112D02*
X146154495Y-77554387D01*
X146154495Y-77554387D02*
X145881299Y-77275834D01*
X145881299Y-77275834D02*
X145651730Y-76933664D01*
X145651730Y-76933664D02*
X145470395Y-76533087D01*
X145470395Y-76533087D02*
X145394478Y-76295500D01*
X145394478Y-76295500D02*
X145350872Y-76079197D01*
X145350872Y-76079197D02*
X145319548Y-75803316D01*
X145319548Y-75803316D02*
X145301077Y-75492131D01*
X145301077Y-75492131D02*
X145296033Y-75169918D01*
X145296033Y-75169918D02*
X145304989Y-74860952D01*
X145304989Y-74860952D02*
X145310225Y-74800534D01*
X145310225Y-74800534D02*
X146902291Y-74800534D01*
X146902291Y-74800534D02*
X146903606Y-75126182D01*
X146903606Y-75126182D02*
X146905837Y-75324547D01*
X146905837Y-75324547D02*
X146910404Y-75653451D01*
X146910404Y-75653451D02*
X146915430Y-75909164D01*
X146915430Y-75909164D02*
X146921895Y-76103161D01*
X146921895Y-76103161D02*
X146930775Y-76246916D01*
X146930775Y-76246916D02*
X146943051Y-76351904D01*
X146943051Y-76351904D02*
X146959699Y-76429598D01*
X146959699Y-76429598D02*
X146981700Y-76491474D01*
X146981700Y-76491474D02*
X147010030Y-76549005D01*
X147010030Y-76549005D02*
X147010297Y-76549500D01*
X147010297Y-76549500D02*
X147166497Y-76773002D01*
X147166497Y-76773002D02*
X147360072Y-76924978D01*
X147360072Y-76924978D02*
X147599781Y-77010463D01*
X147599781Y-77010463D02*
X147854425Y-77034676D01*
X147854425Y-77034676D02*
X148062959Y-77020528D01*
X148062959Y-77020528D02*
X148235258Y-76968652D01*
X148235258Y-76968652D02*
X148298925Y-76937796D01*
X148298925Y-76937796D02*
X148494595Y-76787831D01*
X148494595Y-76787831D02*
X148612500Y-76634340D01*
X148612500Y-76634340D02*
X148739500Y-76429420D01*
X148739500Y-76429420D02*
X148752838Y-75369194D01*
X148752838Y-75369194D02*
X148756193Y-74989850D01*
X148756193Y-74989850D02*
X148754826Y-74684359D01*
X148754826Y-74684359D02*
X148747438Y-74441976D01*
X148747438Y-74441976D02*
X148732731Y-74251955D01*
X148732731Y-74251955D02*
X148709406Y-74103552D01*
X148709406Y-74103552D02*
X148676164Y-73986022D01*
X148676164Y-73986022D02*
X148631705Y-73888620D01*
X148631705Y-73888620D02*
X148574732Y-73800601D01*
X148574732Y-73800601D02*
X148560992Y-73782219D01*
X148560992Y-73782219D02*
X148389896Y-73623218D01*
X148389896Y-73623218D02*
X148174199Y-73520637D01*
X148174199Y-73520637D02*
X147932536Y-73474594D01*
X147932536Y-73474594D02*
X147683541Y-73485209D01*
X147683541Y-73485209D02*
X147445851Y-73552600D01*
X147445851Y-73552600D02*
X147238098Y-73676886D01*
X147238098Y-73676886D02*
X147140298Y-73773138D01*
X147140298Y-73773138D02*
X147067806Y-73865176D01*
X147067806Y-73865176D02*
X147011003Y-73956547D01*
X147011003Y-73956547D02*
X146968173Y-74058598D01*
X146968173Y-74058598D02*
X146937601Y-74182676D01*
X146937601Y-74182676D02*
X146917573Y-74340127D01*
X146917573Y-74340127D02*
X146906375Y-74542297D01*
X146906375Y-74542297D02*
X146902291Y-74800534D01*
X146902291Y-74800534D02*
X145310225Y-74800534D01*
X145310225Y-74800534D02*
X145328517Y-74589508D01*
X145328517Y-74589508D02*
X145350917Y-74449496D01*
X145350917Y-74449496D02*
X145478080Y-73983235D01*
X145478080Y-73983235D02*
X145658617Y-73575189D01*
X145658617Y-73575189D02*
X145890245Y-73229314D01*
X145890245Y-73229314D02*
X146170678Y-72949567D01*
X146170678Y-72949567D02*
X146253312Y-72886711D01*
X146253312Y-72886711D02*
X146480659Y-72742887D01*
X146480659Y-72742887D02*
X146703700Y-72647458D01*
X146703700Y-72647458D02*
X146948356Y-72592905D01*
X146948356Y-72592905D02*
X147240551Y-72571706D01*
X147240551Y-72571706D02*
X147342500Y-72570728D01*
X147342500Y-72570728D02*
X147551852Y-72573957D01*
X147551852Y-72573957D02*
X147703404Y-72585990D01*
X147703404Y-72585990D02*
X147823911Y-72611329D01*
X147823911Y-72611329D02*
X147940131Y-72654476D01*
X147940131Y-72654476D02*
X147998667Y-72681141D01*
X147998667Y-72681141D02*
X148188032Y-72793033D01*
X148188032Y-72793033D02*
X148371180Y-72940066D01*
X148371180Y-72940066D02*
X148525147Y-73100875D01*
X148525147Y-73100875D02*
X148626972Y-73254093D01*
X148626972Y-73254093D02*
X148635922Y-73274112D01*
X148635922Y-73274112D02*
X148681812Y-73359128D01*
X148681812Y-73359128D02*
X148722692Y-73395641D01*
X148722692Y-73395641D02*
X148723469Y-73395667D01*
X148723469Y-73395667D02*
X148734079Y-73355310D01*
X148734079Y-73355310D02*
X148743511Y-73242143D01*
X148743511Y-73242143D02*
X148751308Y-73068019D01*
X148751308Y-73068019D02*
X148757016Y-72844791D01*
X148757016Y-72844791D02*
X148760178Y-72584312D01*
X148760178Y-72584312D02*
X148760667Y-72427896D01*
X148760667Y-72427896D02*
X148760667Y-71460125D01*
X148760667Y-71460125D02*
X148189167Y-71338261D01*
X148189167Y-71338261D02*
X148189167Y-70755285D01*
X148189167Y-70755285D02*
X149184000Y-70552700D01*
X149184000Y-70552700D02*
X149465025Y-70495858D01*
X149465025Y-70495858D02*
X149719714Y-70445073D01*
X149719714Y-70445073D02*
X149935916Y-70402710D01*
X149935916Y-70402710D02*
X150101480Y-70371132D01*
X150101480Y-70371132D02*
X150204255Y-70352703D01*
X150204255Y-70352703D02*
X150231750Y-70348891D01*
X150231750Y-70348891D02*
X150241911Y-70364572D01*
X150241911Y-70364572D02*
X150241911Y-70364572D01*
G36*
X145350917Y-74449496D02*
G01*
X145478080Y-73983235D01*
X145658617Y-73575189D01*
X145890245Y-73229314D01*
X146170678Y-72949567D01*
X146253312Y-72886711D01*
X146480659Y-72742887D01*
X146703700Y-72647458D01*
X146948356Y-72592905D01*
X147240551Y-72571706D01*
X147342500Y-72570728D01*
X147551852Y-72573957D01*
X147703404Y-72585990D01*
X147823911Y-72611329D01*
X147940131Y-72654476D01*
X147998667Y-72681141D01*
X148188032Y-72793033D01*
X148371180Y-72940066D01*
X148525147Y-73100875D01*
X148626972Y-73254093D01*
X148635922Y-73274112D01*
X148681812Y-73359128D01*
X148722692Y-73395641D01*
X148723469Y-73395667D01*
X148734079Y-73355310D01*
X148743511Y-73242143D01*
X148751308Y-73068019D01*
X148757016Y-72844791D01*
X148760178Y-72584312D01*
X148760667Y-72427896D01*
X148760667Y-71460125D01*
X148189167Y-71338261D01*
X148189167Y-70755285D01*
X149184000Y-70552700D01*
X149465025Y-70495858D01*
X149719714Y-70445073D01*
X149935916Y-70402710D01*
X150101480Y-70371132D01*
X150204255Y-70352703D01*
X150231750Y-70348891D01*
X150241911Y-70364572D01*
X150250772Y-70415242D01*
X150258408Y-70505590D01*
X150264896Y-70640304D01*
X150270313Y-70824073D01*
X150274734Y-71061586D01*
X150278235Y-71357532D01*
X150280894Y-71716598D01*
X150282787Y-72143474D01*
X150283989Y-72642849D01*
X150284577Y-73219411D01*
X150284667Y-73600975D01*
X150284667Y-76854284D01*
X150570417Y-76913559D01*
X150856167Y-76972833D01*
X150868569Y-77253537D01*
X150873540Y-77403648D01*
X150866988Y-77490211D01*
X150841754Y-77534231D01*
X150790678Y-77556714D01*
X150762736Y-77564048D01*
X150696931Y-77578691D01*
X150566079Y-77606300D01*
X150384284Y-77644012D01*
X150165650Y-77688962D01*
X149924282Y-77738285D01*
X149674283Y-77789117D01*
X149429757Y-77838594D01*
X149204808Y-77883851D01*
X149013541Y-77922024D01*
X148870060Y-77950248D01*
X148788467Y-77965660D01*
X148775343Y-77967667D01*
X148769505Y-77928222D01*
X148762825Y-77821410D01*
X148756208Y-77664510D01*
X148751515Y-77512583D01*
X148739500Y-77057500D01*
X148647837Y-77226833D01*
X148530923Y-77395368D01*
X148368141Y-77570260D01*
X148189638Y-77720586D01*
X148122385Y-77765806D01*
X147876905Y-77875647D01*
X147582539Y-77941227D01*
X147264072Y-77960009D01*
X146946290Y-77929456D01*
X146813333Y-77899800D01*
X146466709Y-77764112D01*
X146154495Y-77554387D01*
X145881299Y-77275834D01*
X145651730Y-76933664D01*
X145470395Y-76533087D01*
X145394478Y-76295500D01*
X145350872Y-76079197D01*
X145319548Y-75803316D01*
X145301077Y-75492131D01*
X145296033Y-75169918D01*
X145304989Y-74860952D01*
X145310225Y-74800534D01*
X146902291Y-74800534D01*
X146903606Y-75126182D01*
X146905837Y-75324547D01*
X146910404Y-75653451D01*
X146915430Y-75909164D01*
X146921895Y-76103161D01*
X146930775Y-76246916D01*
X146943051Y-76351904D01*
X146959699Y-76429598D01*
X146981700Y-76491474D01*
X147010030Y-76549005D01*
X147010297Y-76549500D01*
X147166497Y-76773002D01*
X147360072Y-76924978D01*
X147599781Y-77010463D01*
X147854425Y-77034676D01*
X148062959Y-77020528D01*
X148235258Y-76968652D01*
X148298925Y-76937796D01*
X148494595Y-76787831D01*
X148612500Y-76634340D01*
X148739500Y-76429420D01*
X148752838Y-75369194D01*
X148756193Y-74989850D01*
X148754826Y-74684359D01*
X148747438Y-74441976D01*
X148732731Y-74251955D01*
X148709406Y-74103552D01*
X148676164Y-73986022D01*
X148631705Y-73888620D01*
X148574732Y-73800601D01*
X148560992Y-73782219D01*
X148389896Y-73623218D01*
X148174199Y-73520637D01*
X147932536Y-73474594D01*
X147683541Y-73485209D01*
X147445851Y-73552600D01*
X147238098Y-73676886D01*
X147140298Y-73773138D01*
X147067806Y-73865176D01*
X147011003Y-73956547D01*
X146968173Y-74058598D01*
X146937601Y-74182676D01*
X146917573Y-74340127D01*
X146906375Y-74542297D01*
X146902291Y-74800534D01*
X145310225Y-74800534D01*
X145328517Y-74589508D01*
X145350917Y-74449496D01*
G37*
X145350917Y-74449496D02*
X145478080Y-73983235D01*
X145658617Y-73575189D01*
X145890245Y-73229314D01*
X146170678Y-72949567D01*
X146253312Y-72886711D01*
X146480659Y-72742887D01*
X146703700Y-72647458D01*
X146948356Y-72592905D01*
X147240551Y-72571706D01*
X147342500Y-72570728D01*
X147551852Y-72573957D01*
X147703404Y-72585990D01*
X147823911Y-72611329D01*
X147940131Y-72654476D01*
X147998667Y-72681141D01*
X148188032Y-72793033D01*
X148371180Y-72940066D01*
X148525147Y-73100875D01*
X148626972Y-73254093D01*
X148635922Y-73274112D01*
X148681812Y-73359128D01*
X148722692Y-73395641D01*
X148723469Y-73395667D01*
X148734079Y-73355310D01*
X148743511Y-73242143D01*
X148751308Y-73068019D01*
X148757016Y-72844791D01*
X148760178Y-72584312D01*
X148760667Y-72427896D01*
X148760667Y-71460125D01*
X148189167Y-71338261D01*
X148189167Y-70755285D01*
X149184000Y-70552700D01*
X149465025Y-70495858D01*
X149719714Y-70445073D01*
X149935916Y-70402710D01*
X150101480Y-70371132D01*
X150204255Y-70352703D01*
X150231750Y-70348891D01*
X150241911Y-70364572D01*
X150250772Y-70415242D01*
X150258408Y-70505590D01*
X150264896Y-70640304D01*
X150270313Y-70824073D01*
X150274734Y-71061586D01*
X150278235Y-71357532D01*
X150280894Y-71716598D01*
X150282787Y-72143474D01*
X150283989Y-72642849D01*
X150284577Y-73219411D01*
X150284667Y-73600975D01*
X150284667Y-76854284D01*
X150570417Y-76913559D01*
X150856167Y-76972833D01*
X150868569Y-77253537D01*
X150873540Y-77403648D01*
X150866988Y-77490211D01*
X150841754Y-77534231D01*
X150790678Y-77556714D01*
X150762736Y-77564048D01*
X150696931Y-77578691D01*
X150566079Y-77606300D01*
X150384284Y-77644012D01*
X150165650Y-77688962D01*
X149924282Y-77738285D01*
X149674283Y-77789117D01*
X149429757Y-77838594D01*
X149204808Y-77883851D01*
X149013541Y-77922024D01*
X148870060Y-77950248D01*
X148788467Y-77965660D01*
X148775343Y-77967667D01*
X148769505Y-77928222D01*
X148762825Y-77821410D01*
X148756208Y-77664510D01*
X148751515Y-77512583D01*
X148739500Y-77057500D01*
X148647837Y-77226833D01*
X148530923Y-77395368D01*
X148368141Y-77570260D01*
X148189638Y-77720586D01*
X148122385Y-77765806D01*
X147876905Y-77875647D01*
X147582539Y-77941227D01*
X147264072Y-77960009D01*
X146946290Y-77929456D01*
X146813333Y-77899800D01*
X146466709Y-77764112D01*
X146154495Y-77554387D01*
X145881299Y-77275834D01*
X145651730Y-76933664D01*
X145470395Y-76533087D01*
X145394478Y-76295500D01*
X145350872Y-76079197D01*
X145319548Y-75803316D01*
X145301077Y-75492131D01*
X145296033Y-75169918D01*
X145304989Y-74860952D01*
X145310225Y-74800534D01*
X146902291Y-74800534D01*
X146903606Y-75126182D01*
X146905837Y-75324547D01*
X146910404Y-75653451D01*
X146915430Y-75909164D01*
X146921895Y-76103161D01*
X146930775Y-76246916D01*
X146943051Y-76351904D01*
X146959699Y-76429598D01*
X146981700Y-76491474D01*
X147010030Y-76549005D01*
X147010297Y-76549500D01*
X147166497Y-76773002D01*
X147360072Y-76924978D01*
X147599781Y-77010463D01*
X147854425Y-77034676D01*
X148062959Y-77020528D01*
X148235258Y-76968652D01*
X148298925Y-76937796D01*
X148494595Y-76787831D01*
X148612500Y-76634340D01*
X148739500Y-76429420D01*
X148752838Y-75369194D01*
X148756193Y-74989850D01*
X148754826Y-74684359D01*
X148747438Y-74441976D01*
X148732731Y-74251955D01*
X148709406Y-74103552D01*
X148676164Y-73986022D01*
X148631705Y-73888620D01*
X148574732Y-73800601D01*
X148560992Y-73782219D01*
X148389896Y-73623218D01*
X148174199Y-73520637D01*
X147932536Y-73474594D01*
X147683541Y-73485209D01*
X147445851Y-73552600D01*
X147238098Y-73676886D01*
X147140298Y-73773138D01*
X147067806Y-73865176D01*
X147011003Y-73956547D01*
X146968173Y-74058598D01*
X146937601Y-74182676D01*
X146917573Y-74340127D01*
X146906375Y-74542297D01*
X146902291Y-74800534D01*
X145310225Y-74800534D01*
X145328517Y-74589508D01*
X145350917Y-74449496D01*
X159046994Y-70365149D02*
X159055670Y-70415343D01*
X159055670Y-70415343D02*
X159063181Y-70504860D01*
X159063181Y-70504860D02*
X159069597Y-70638273D01*
X159069597Y-70638273D02*
X159074989Y-70820154D01*
X159074989Y-70820154D02*
X159079428Y-71055076D01*
X159079428Y-71055076D02*
X159082984Y-71347612D01*
X159082984Y-71347612D02*
X159085729Y-71702335D01*
X159085729Y-71702335D02*
X159087732Y-72123817D01*
X159087732Y-72123817D02*
X159089064Y-72616631D01*
X159089064Y-72616631D02*
X159089796Y-73185350D01*
X159089796Y-73185350D02*
X159090000Y-73776667D01*
X159090000Y-73776667D02*
X159090000Y-77205667D01*
X159090000Y-77205667D02*
X159682667Y-77205667D01*
X159682667Y-77205667D02*
X159682667Y-77840667D01*
X159682667Y-77840667D02*
X156973333Y-77840667D01*
X156973333Y-77840667D02*
X156973333Y-77205667D01*
X156973333Y-77205667D02*
X157566000Y-77205667D01*
X157566000Y-77205667D02*
X157566000Y-71454336D01*
X157566000Y-71454336D02*
X157322583Y-71406501D01*
X157322583Y-71406501D02*
X157151622Y-71372457D01*
X157151622Y-71372457D02*
X157047381Y-71341432D01*
X157047381Y-71341432D02*
X156994279Y-71296569D01*
X156994279Y-71296569D02*
X156976736Y-71221012D01*
X156976736Y-71221012D02*
X156979171Y-71097904D01*
X156979171Y-71097904D02*
X156981969Y-71037992D01*
X156981969Y-71037992D02*
X156994500Y-70753488D01*
X156994500Y-70753488D02*
X157989333Y-70552615D01*
X157989333Y-70552615D02*
X158270409Y-70496209D01*
X158270409Y-70496209D02*
X158525137Y-70445753D01*
X158525137Y-70445753D02*
X158741359Y-70403601D01*
X158741359Y-70403601D02*
X158906916Y-70372107D01*
X158906916Y-70372107D02*
X159009652Y-70353627D01*
X159009652Y-70353627D02*
X159037083Y-70349704D01*
X159037083Y-70349704D02*
X159046994Y-70365149D01*
X159046994Y-70365149D02*
X159046994Y-70365149D01*
G36*
X159046994Y-70365149D02*
G01*
X159055670Y-70415343D01*
X159063181Y-70504860D01*
X159069597Y-70638273D01*
X159074989Y-70820154D01*
X159079428Y-71055076D01*
X159082984Y-71347612D01*
X159085729Y-71702335D01*
X159087732Y-72123817D01*
X159089064Y-72616631D01*
X159089796Y-73185350D01*
X159090000Y-73776667D01*
X159090000Y-77205667D01*
X159682667Y-77205667D01*
X159682667Y-77840667D01*
X156973333Y-77840667D01*
X156973333Y-77205667D01*
X157566000Y-77205667D01*
X157566000Y-71454336D01*
X157322583Y-71406501D01*
X157151622Y-71372457D01*
X157047381Y-71341432D01*
X156994279Y-71296569D01*
X156976736Y-71221012D01*
X156979171Y-71097904D01*
X156981969Y-71037992D01*
X156994500Y-70753488D01*
X157989333Y-70552615D01*
X158270409Y-70496209D01*
X158525137Y-70445753D01*
X158741359Y-70403601D01*
X158906916Y-70372107D01*
X159009652Y-70353627D01*
X159037083Y-70349704D01*
X159046994Y-70365149D01*
G37*
X159046994Y-70365149D02*
X159055670Y-70415343D01*
X159063181Y-70504860D01*
X159069597Y-70638273D01*
X159074989Y-70820154D01*
X159079428Y-71055076D01*
X159082984Y-71347612D01*
X159085729Y-71702335D01*
X159087732Y-72123817D01*
X159089064Y-72616631D01*
X159089796Y-73185350D01*
X159090000Y-73776667D01*
X159090000Y-77205667D01*
X159682667Y-77205667D01*
X159682667Y-77840667D01*
X156973333Y-77840667D01*
X156973333Y-77205667D01*
X157566000Y-77205667D01*
X157566000Y-71454336D01*
X157322583Y-71406501D01*
X157151622Y-71372457D01*
X157047381Y-71341432D01*
X156994279Y-71296569D01*
X156976736Y-71221012D01*
X156979171Y-71097904D01*
X156981969Y-71037992D01*
X156994500Y-70753488D01*
X157989333Y-70552615D01*
X158270409Y-70496209D01*
X158525137Y-70445753D01*
X158741359Y-70403601D01*
X158906916Y-70372107D01*
X159009652Y-70353627D01*
X159037083Y-70349704D01*
X159046994Y-70365149D01*
X154253954Y-72564414D02*
X154681630Y-72642712D01*
X154681630Y-72642712D02*
X155078848Y-72785466D01*
X155078848Y-72785466D02*
X155433958Y-72989730D01*
X155433958Y-72989730D02*
X155687277Y-73202778D01*
X155687277Y-73202778D02*
X155955578Y-73529301D01*
X155955578Y-73529301D02*
X156153106Y-73902189D01*
X156153106Y-73902189D02*
X156279767Y-74321193D01*
X156279767Y-74321193D02*
X156335466Y-74786063D01*
X156335466Y-74786063D02*
X156338333Y-74926438D01*
X156338333Y-74926438D02*
X156338333Y-75300667D01*
X156338333Y-75300667D02*
X153067023Y-75300667D01*
X153067023Y-75300667D02*
X153095674Y-75671083D01*
X153095674Y-75671083D02*
X153129490Y-75973448D01*
X153129490Y-75973448D02*
X153182866Y-76211146D01*
X153182866Y-76211146D02*
X153262838Y-76403247D01*
X153262838Y-76403247D02*
X153376439Y-76568817D01*
X153376439Y-76568817D02*
X153460563Y-76660262D01*
X153460563Y-76660262D02*
X153693846Y-76836713D01*
X153693846Y-76836713D02*
X153965818Y-76949107D01*
X153965818Y-76949107D02*
X154261675Y-76999012D01*
X154261675Y-76999012D02*
X154566612Y-76987997D01*
X154566612Y-76987997D02*
X154865827Y-76917632D01*
X154865827Y-76917632D02*
X155144514Y-76789486D01*
X155144514Y-76789486D02*
X155387869Y-76605129D01*
X155387869Y-76605129D02*
X155531233Y-76440768D01*
X155531233Y-76440768D02*
X155606757Y-76331679D01*
X155606757Y-76331679D02*
X155659241Y-76246938D01*
X155659241Y-76246938D02*
X155671602Y-76221360D01*
X155671602Y-76221360D02*
X155710935Y-76218615D01*
X155710935Y-76218615D02*
X155797921Y-76252796D01*
X155797921Y-76252796D02*
X155911367Y-76311548D01*
X155911367Y-76311548D02*
X156030082Y-76382514D01*
X156030082Y-76382514D02*
X156132873Y-76453338D01*
X156132873Y-76453338D02*
X156198548Y-76511663D01*
X156198548Y-76511663D02*
X156211333Y-76536056D01*
X156211333Y-76536056D02*
X156192611Y-76593946D01*
X156192611Y-76593946D02*
X156143784Y-76701430D01*
X156143784Y-76701430D02*
X156082865Y-76821013D01*
X156082865Y-76821013D02*
X155863053Y-77147294D01*
X155863053Y-77147294D02*
X155578262Y-77433842D01*
X155578262Y-77433842D02*
X155243757Y-77667935D01*
X155243757Y-77667935D02*
X154874800Y-77836850D01*
X154874800Y-77836850D02*
X154856667Y-77843040D01*
X154856667Y-77843040D02*
X154612904Y-77902511D01*
X154612904Y-77902511D02*
X154317078Y-77940514D01*
X154317078Y-77940514D02*
X153999338Y-77955805D01*
X153999338Y-77955805D02*
X153689836Y-77947142D01*
X153689836Y-77947142D02*
X153418723Y-77913282D01*
X153418723Y-77913282D02*
X153375000Y-77904115D01*
X153375000Y-77904115D02*
X152962112Y-77768647D01*
X152962112Y-77768647D02*
X152588130Y-77561663D01*
X152588130Y-77561663D02*
X152259444Y-77289822D01*
X152259444Y-77289822D02*
X151982439Y-76959781D01*
X151982439Y-76959781D02*
X151763504Y-76578198D01*
X151763504Y-76578198D02*
X151609025Y-76151729D01*
X151609025Y-76151729D02*
X151579946Y-76033143D01*
X151579946Y-76033143D02*
X151534963Y-75744353D01*
X151534963Y-75744353D02*
X151513342Y-75409922D01*
X151513342Y-75409922D02*
X151514780Y-75060336D01*
X151514780Y-75060336D02*
X151538973Y-74726080D01*
X151538973Y-74726080D02*
X151570335Y-74532149D01*
X151570335Y-74532149D02*
X153095055Y-74532149D01*
X153095055Y-74532149D02*
X153097999Y-74614202D01*
X153097999Y-74614202D02*
X153101559Y-74626125D01*
X153101559Y-74626125D02*
X153150059Y-74638728D01*
X153150059Y-74638728D02*
X153270920Y-74649553D01*
X153270920Y-74649553D02*
X153451846Y-74658031D01*
X153451846Y-74658031D02*
X153680540Y-74663592D01*
X153680540Y-74663592D02*
X153944705Y-74665664D01*
X153944705Y-74665664D02*
X153954176Y-74665667D01*
X153954176Y-74665667D02*
X154782356Y-74665667D01*
X154782356Y-74665667D02*
X154764335Y-74295250D01*
X154764335Y-74295250D02*
X154723994Y-73949741D01*
X154723994Y-73949741D02*
X154639273Y-73675489D01*
X154639273Y-73675489D02*
X154508918Y-73470890D01*
X154508918Y-73470890D02*
X154331676Y-73334342D01*
X154331676Y-73334342D02*
X154106294Y-73264240D01*
X154106294Y-73264240D02*
X153949827Y-73253399D01*
X153949827Y-73253399D02*
X153703602Y-73277105D01*
X153703602Y-73277105D02*
X153507285Y-73351178D01*
X153507285Y-73351178D02*
X153355443Y-73481986D01*
X153355443Y-73481986D02*
X153242640Y-73675896D01*
X153242640Y-73675896D02*
X153163444Y-73939275D01*
X153163444Y-73939275D02*
X153117827Y-74228343D01*
X153117827Y-74228343D02*
X153101967Y-74396141D01*
X153101967Y-74396141D02*
X153095055Y-74532149D01*
X153095055Y-74532149D02*
X151570335Y-74532149D01*
X151570335Y-74532149D02*
X151585619Y-74437639D01*
X151585619Y-74437639D02*
X151596263Y-74393379D01*
X151596263Y-74393379D02*
X151748398Y-73945438D01*
X151748398Y-73945438D02*
X151959623Y-73553870D01*
X151959623Y-73553870D02*
X152226636Y-73222021D01*
X152226636Y-73222021D02*
X152546135Y-72953237D01*
X152546135Y-72953237D02*
X152914815Y-72750865D01*
X152914815Y-72750865D02*
X153329373Y-72618249D01*
X153329373Y-72618249D02*
X153353833Y-72612962D01*
X153353833Y-72612962D02*
X153807472Y-72553515D01*
X153807472Y-72553515D02*
X154253954Y-72564414D01*
X154253954Y-72564414D02*
X154253954Y-72564414D01*
G36*
X151596263Y-74393379D02*
G01*
X151748398Y-73945438D01*
X151959623Y-73553870D01*
X152226636Y-73222021D01*
X152546135Y-72953237D01*
X152914815Y-72750865D01*
X153329373Y-72618249D01*
X153353833Y-72612962D01*
X153807472Y-72553515D01*
X154253954Y-72564414D01*
X154681630Y-72642712D01*
X155078848Y-72785466D01*
X155433958Y-72989730D01*
X155687277Y-73202778D01*
X155955578Y-73529301D01*
X156153106Y-73902189D01*
X156279767Y-74321193D01*
X156335466Y-74786063D01*
X156338333Y-74926438D01*
X156338333Y-75300667D01*
X153067023Y-75300667D01*
X153095674Y-75671083D01*
X153129490Y-75973448D01*
X153182866Y-76211146D01*
X153262838Y-76403247D01*
X153376439Y-76568817D01*
X153460563Y-76660262D01*
X153693846Y-76836713D01*
X153965818Y-76949107D01*
X154261675Y-76999012D01*
X154566612Y-76987997D01*
X154865827Y-76917632D01*
X155144514Y-76789486D01*
X155387869Y-76605129D01*
X155531233Y-76440768D01*
X155606757Y-76331679D01*
X155659241Y-76246938D01*
X155671602Y-76221360D01*
X155710935Y-76218615D01*
X155797921Y-76252796D01*
X155911367Y-76311548D01*
X156030082Y-76382514D01*
X156132873Y-76453338D01*
X156198548Y-76511663D01*
X156211333Y-76536056D01*
X156192611Y-76593946D01*
X156143784Y-76701430D01*
X156082865Y-76821013D01*
X155863053Y-77147294D01*
X155578262Y-77433842D01*
X155243757Y-77667935D01*
X154874800Y-77836850D01*
X154856667Y-77843040D01*
X154612904Y-77902511D01*
X154317078Y-77940514D01*
X153999338Y-77955805D01*
X153689836Y-77947142D01*
X153418723Y-77913282D01*
X153375000Y-77904115D01*
X152962112Y-77768647D01*
X152588130Y-77561663D01*
X152259444Y-77289822D01*
X151982439Y-76959781D01*
X151763504Y-76578198D01*
X151609025Y-76151729D01*
X151579946Y-76033143D01*
X151534963Y-75744353D01*
X151513342Y-75409922D01*
X151514780Y-75060336D01*
X151538973Y-74726080D01*
X151570335Y-74532149D01*
X153095055Y-74532149D01*
X153097999Y-74614202D01*
X153101559Y-74626125D01*
X153150059Y-74638728D01*
X153270920Y-74649553D01*
X153451846Y-74658031D01*
X153680540Y-74663592D01*
X153944705Y-74665664D01*
X153954176Y-74665667D01*
X154782356Y-74665667D01*
X154764335Y-74295250D01*
X154723994Y-73949741D01*
X154639273Y-73675489D01*
X154508918Y-73470890D01*
X154331676Y-73334342D01*
X154106294Y-73264240D01*
X153949827Y-73253399D01*
X153703602Y-73277105D01*
X153507285Y-73351178D01*
X153355443Y-73481986D01*
X153242640Y-73675896D01*
X153163444Y-73939275D01*
X153117827Y-74228343D01*
X153101967Y-74396141D01*
X153095055Y-74532149D01*
X151570335Y-74532149D01*
X151585619Y-74437639D01*
X151596263Y-74393379D01*
G37*
X151596263Y-74393379D02*
X151748398Y-73945438D01*
X151959623Y-73553870D01*
X152226636Y-73222021D01*
X152546135Y-72953237D01*
X152914815Y-72750865D01*
X153329373Y-72618249D01*
X153353833Y-72612962D01*
X153807472Y-72553515D01*
X154253954Y-72564414D01*
X154681630Y-72642712D01*
X155078848Y-72785466D01*
X155433958Y-72989730D01*
X155687277Y-73202778D01*
X155955578Y-73529301D01*
X156153106Y-73902189D01*
X156279767Y-74321193D01*
X156335466Y-74786063D01*
X156338333Y-74926438D01*
X156338333Y-75300667D01*
X153067023Y-75300667D01*
X153095674Y-75671083D01*
X153129490Y-75973448D01*
X153182866Y-76211146D01*
X153262838Y-76403247D01*
X153376439Y-76568817D01*
X153460563Y-76660262D01*
X153693846Y-76836713D01*
X153965818Y-76949107D01*
X154261675Y-76999012D01*
X154566612Y-76987997D01*
X154865827Y-76917632D01*
X155144514Y-76789486D01*
X155387869Y-76605129D01*
X155531233Y-76440768D01*
X155606757Y-76331679D01*
X155659241Y-76246938D01*
X155671602Y-76221360D01*
X155710935Y-76218615D01*
X155797921Y-76252796D01*
X155911367Y-76311548D01*
X156030082Y-76382514D01*
X156132873Y-76453338D01*
X156198548Y-76511663D01*
X156211333Y-76536056D01*
X156192611Y-76593946D01*
X156143784Y-76701430D01*
X156082865Y-76821013D01*
X155863053Y-77147294D01*
X155578262Y-77433842D01*
X155243757Y-77667935D01*
X154874800Y-77836850D01*
X154856667Y-77843040D01*
X154612904Y-77902511D01*
X154317078Y-77940514D01*
X153999338Y-77955805D01*
X153689836Y-77947142D01*
X153418723Y-77913282D01*
X153375000Y-77904115D01*
X152962112Y-77768647D01*
X152588130Y-77561663D01*
X152259444Y-77289822D01*
X151982439Y-76959781D01*
X151763504Y-76578198D01*
X151609025Y-76151729D01*
X151579946Y-76033143D01*
X151534963Y-75744353D01*
X151513342Y-75409922D01*
X151514780Y-75060336D01*
X151538973Y-74726080D01*
X151570335Y-74532149D01*
X153095055Y-74532149D01*
X153097999Y-74614202D01*
X153101559Y-74626125D01*
X153150059Y-74638728D01*
X153270920Y-74649553D01*
X153451846Y-74658031D01*
X153680540Y-74663592D01*
X153944705Y-74665664D01*
X153954176Y-74665667D01*
X154782356Y-74665667D01*
X154764335Y-74295250D01*
X154723994Y-73949741D01*
X154639273Y-73675489D01*
X154508918Y-73470890D01*
X154331676Y-73334342D01*
X154106294Y-73264240D01*
X153949827Y-73253399D01*
X153703602Y-73277105D01*
X153507285Y-73351178D01*
X153355443Y-73481986D01*
X153242640Y-73675896D01*
X153163444Y-73939275D01*
X153117827Y-74228343D01*
X153101967Y-74396141D01*
X153095055Y-74532149D01*
X151570335Y-74532149D01*
X151585619Y-74437639D01*
X151596263Y-74393379D01*
%TO.C,kibuzzard-61E18CD3*%
G36*
X115215210Y-52554276D02*
G01*
X124124790Y-52554276D01*
X123443355Y-54825724D01*
X115896645Y-54825724D01*
X115561881Y-53709844D01*
X116409275Y-53709844D01*
X116419792Y-53829105D01*
X116451344Y-53939238D01*
X116499167Y-54035281D01*
X116558500Y-54112275D01*
X116627755Y-54174584D01*
X116705344Y-54226575D01*
X116785909Y-54266659D01*
X116864094Y-54293250D01*
X116940691Y-54308133D01*
X117016494Y-54313094D01*
X117093289Y-54306744D01*
X117172862Y-54287694D01*
X117280019Y-54246419D01*
X117334787Y-54213081D01*
X117384794Y-54173394D01*
X117406225Y-54117831D01*
X117371300Y-54028931D01*
X117316134Y-53962256D01*
X117264937Y-53940031D01*
X117188737Y-53971781D01*
X117160162Y-53992419D01*
X117097456Y-54017819D01*
X117004587Y-54030519D01*
X116901797Y-54013056D01*
X116802975Y-53960669D01*
X116737433Y-53879706D01*
X117487187Y-53879706D01*
X117504055Y-54000158D01*
X117554656Y-54107513D01*
X117629864Y-54196016D01*
X117720550Y-54259913D01*
X117820562Y-54298608D01*
X117923750Y-54311506D01*
X118026739Y-54299402D01*
X118126156Y-54263088D01*
X118216445Y-54201175D01*
X118292050Y-54112275D01*
X118343247Y-54002539D01*
X118348772Y-53962256D01*
X118463500Y-53962256D01*
X118474612Y-54109100D01*
X118507950Y-54209906D01*
X118565894Y-54262691D01*
X118666700Y-54290869D01*
X118793700Y-54298013D01*
X118863550Y-54281344D01*
X118887362Y-54239672D01*
X118895300Y-54159106D01*
X118863550Y-54046394D01*
X118836562Y-54032900D01*
X118792906Y-54030519D01*
X118750837Y-54015438D01*
X118741312Y-53943206D01*
X118741312Y-53876531D01*
X118982612Y-53876531D01*
X118994342Y-53987039D01*
X119029532Y-54085728D01*
X119088181Y-54172600D01*
X119164646Y-54240069D01*
X119253281Y-54280550D01*
X119354087Y-54294044D01*
X119471562Y-54259119D01*
X119514425Y-54224194D01*
X119543000Y-54192444D01*
X119558875Y-54257531D01*
X119599753Y-54286106D01*
X119677938Y-54295631D01*
X119757709Y-54285313D01*
X119800175Y-54254356D01*
X119815256Y-54213875D01*
X119817638Y-54160694D01*
X119817638Y-54157519D01*
X119944638Y-54157519D01*
X119947019Y-54213081D01*
X119960513Y-54254356D01*
X120002184Y-54286503D01*
X120082750Y-54297219D01*
X120163713Y-54286900D01*
X120206575Y-54255944D01*
X120221656Y-54213875D01*
X120224038Y-54159106D01*
X120224038Y-53878119D01*
X120247850Y-53774534D01*
X120319288Y-53740006D01*
X120393106Y-53774534D01*
X120417713Y-53878119D01*
X120417713Y-54155931D01*
X120420094Y-54210700D01*
X120433588Y-54252769D01*
X120475259Y-54286106D01*
X120555825Y-54297219D01*
X120637581Y-54286503D01*
X120679650Y-54254356D01*
X120694731Y-54213081D01*
X120697113Y-54157519D01*
X120697113Y-53879706D01*
X120716956Y-53776519D01*
X120792363Y-53740006D01*
X120866181Y-53774534D01*
X120890788Y-53878119D01*
X120890788Y-54155931D01*
X120893169Y-54210700D01*
X120906663Y-54252769D01*
X120948334Y-54286106D01*
X121028900Y-54297219D01*
X121110259Y-54286503D01*
X121151138Y-54254356D01*
X121166219Y-54212288D01*
X121168600Y-54157519D01*
X121168600Y-54155931D01*
X121295600Y-54155931D01*
X121297981Y-54210700D01*
X121311475Y-54252769D01*
X121353147Y-54284916D01*
X121433713Y-54295631D01*
X121515072Y-54284916D01*
X121555950Y-54252769D01*
X121571031Y-54212288D01*
X121573413Y-54157519D01*
X121573413Y-53876531D01*
X121612306Y-53776519D01*
X121713906Y-53738419D01*
X121813919Y-53774931D01*
X121851225Y-53876531D01*
X121851225Y-54155931D01*
X121860750Y-54236894D01*
X121902025Y-54280947D01*
X121990925Y-54295631D01*
X122072681Y-54284916D01*
X122114750Y-54252769D01*
X122128244Y-54212288D01*
X122130418Y-54162281D01*
X122233813Y-54162281D01*
X122263975Y-54222606D01*
X122359490Y-54271995D01*
X122457650Y-54301628D01*
X122558456Y-54311506D01*
X122654853Y-54306038D01*
X122739784Y-54289634D01*
X122813250Y-54262294D01*
X122899769Y-54175775D01*
X122922986Y-54111680D01*
X122930725Y-54035281D01*
X122922986Y-53959677D01*
X122899769Y-53897963D01*
X122822775Y-53820969D01*
X122722763Y-53781281D01*
X122619575Y-53760644D01*
X122538613Y-53738022D01*
X122511625Y-53698731D01*
X122605288Y-53663806D01*
X122717206Y-53687619D01*
X122787850Y-53711431D01*
X122859288Y-53655869D01*
X122894213Y-53562206D01*
X122838650Y-53498706D01*
X122721175Y-53458225D01*
X122606875Y-53444731D01*
X122482860Y-53454764D01*
X122386403Y-53484863D01*
X122317506Y-53535028D01*
X122276167Y-53605259D01*
X122262388Y-53695556D01*
X122269928Y-53773939D01*
X122292550Y-53840813D01*
X122368750Y-53930506D01*
X122467572Y-53979322D01*
X122567188Y-54005119D01*
X122646959Y-54023375D01*
X122673550Y-54049569D01*
X122649341Y-54078144D01*
X122576713Y-54087669D01*
X122456063Y-54048775D01*
X122350494Y-54009881D01*
X122294138Y-54036869D01*
X122248894Y-54110291D01*
X122233813Y-54162281D01*
X122130418Y-54162281D01*
X122130625Y-54157519D01*
X122130625Y-53878119D01*
X122118895Y-53767611D01*
X122083706Y-53668922D01*
X122025056Y-53582050D01*
X121948768Y-53514581D01*
X121860662Y-53474100D01*
X121760738Y-53460606D01*
X121641675Y-53497119D01*
X121598813Y-53530456D01*
X121570238Y-53562206D01*
X121554363Y-53497119D01*
X121513484Y-53469734D01*
X121435300Y-53460606D01*
X121354734Y-53470528D01*
X121313063Y-53500294D01*
X121297981Y-53540775D01*
X121295600Y-53593956D01*
X121295600Y-54155931D01*
X121168600Y-54155931D01*
X121168600Y-53879706D01*
X121159075Y-53743622D01*
X121130500Y-53635937D01*
X121082875Y-53556650D01*
X120986831Y-53483427D01*
X120870150Y-53459019D01*
X120759025Y-53489975D01*
X120680444Y-53547125D01*
X120638375Y-53597131D01*
X120576286Y-53520402D01*
X120495853Y-53474365D01*
X120397075Y-53459019D01*
X120299841Y-53487197D01*
X120217688Y-53571731D01*
X120190700Y-53489181D01*
X120074813Y-53460606D01*
X120002184Y-53471322D01*
X119962100Y-53503469D01*
X119947019Y-53543950D01*
X119944638Y-53598719D01*
X119944638Y-54157519D01*
X119817638Y-54157519D01*
X119817638Y-53598719D01*
X119815256Y-53543950D01*
X119801763Y-53501881D01*
X119760091Y-53469734D01*
X119679525Y-53459019D01*
X119598166Y-53469337D01*
X119557287Y-53500294D01*
X119542206Y-53542362D01*
X119539825Y-53597131D01*
X119539825Y-53878119D01*
X119500931Y-53978131D01*
X119399331Y-54016231D01*
X119299319Y-53979719D01*
X119262012Y-53878119D01*
X119262012Y-53600306D01*
X119252487Y-53519344D01*
X119210419Y-53474100D01*
X119122312Y-53459019D01*
X119040556Y-53469734D01*
X118998487Y-53501881D01*
X118984994Y-53543156D01*
X118982612Y-53598719D01*
X118982612Y-53876531D01*
X118741312Y-53876531D01*
X118741312Y-53208194D01*
X118738931Y-53152631D01*
X118723850Y-53109769D01*
X118681781Y-53077622D01*
X118603200Y-53066906D01*
X118521444Y-53077622D01*
X118479375Y-53109769D01*
X118465881Y-53151837D01*
X118463500Y-53206606D01*
X118463500Y-53962256D01*
X118348772Y-53962256D01*
X118360312Y-53878119D01*
X118345672Y-53758615D01*
X118301751Y-53654105D01*
X118228550Y-53564587D01*
X118136299Y-53496237D01*
X118035228Y-53455226D01*
X117925337Y-53441556D01*
X117815271Y-53455315D01*
X117713671Y-53496590D01*
X117620537Y-53565381D01*
X117546454Y-53655340D01*
X117502004Y-53760115D01*
X117487187Y-53879706D01*
X116737433Y-53879706D01*
X116722012Y-53860656D01*
X116698200Y-53792989D01*
X116690262Y-53716988D01*
X116698200Y-53640986D01*
X116722012Y-53573319D01*
X116801387Y-53474894D01*
X116902194Y-53421316D01*
X117004587Y-53403456D01*
X117104600Y-53416950D01*
X117182387Y-53457431D01*
X117263350Y-53492356D01*
X117315737Y-53470925D01*
X117374475Y-53406631D01*
X117407812Y-53318525D01*
X117366537Y-53243119D01*
X117322087Y-53214544D01*
X117283987Y-53192319D01*
X117167306Y-53145487D01*
X117090908Y-53128223D01*
X117015700Y-53122469D01*
X116911101Y-53131994D01*
X116806856Y-53160569D01*
X116702962Y-53208194D01*
X116624977Y-53258002D01*
X116556119Y-53318525D01*
X116497580Y-53393137D01*
X116450550Y-53485212D01*
X116419594Y-53591773D01*
X116409275Y-53709844D01*
X115561881Y-53709844D01*
X115215210Y-52554276D01*
G37*
G36*
X118030112Y-53759056D02*
G01*
X118067022Y-53807078D01*
X118079325Y-53874944D01*
X118066228Y-53943206D01*
X118026937Y-53992419D01*
X117922162Y-54032106D01*
X117818975Y-53993213D01*
X117780875Y-53944794D01*
X117768175Y-53877325D01*
X117780478Y-53809658D01*
X117817387Y-53760644D01*
X117923750Y-53720956D01*
X118030112Y-53759056D01*
G37*
%TO.C,kibuzzard-61E18F66*%
G36*
X106698356Y-80180475D02*
G01*
X106726137Y-80239213D01*
X106665812Y-80290013D01*
X106465787Y-80290013D01*
X106516587Y-80200319D01*
X106618981Y-80158250D01*
X106698356Y-80180475D01*
G37*
G36*
X105768875Y-79914569D02*
G01*
X105814912Y-80020137D01*
X105768875Y-80124912D01*
X105676800Y-80159837D01*
X105473600Y-80159837D01*
X105473600Y-79878850D01*
X105673625Y-79878850D01*
X105768875Y-79914569D01*
G37*
G36*
X109927993Y-83758700D02*
G01*
X99239487Y-83758700D01*
X99151907Y-83757625D01*
X99064380Y-83754401D01*
X98976958Y-83749030D01*
X98889694Y-83741516D01*
X98802640Y-83731862D01*
X98715850Y-83720074D01*
X98629376Y-83706160D01*
X98543269Y-83690128D01*
X98457581Y-83671988D01*
X98372364Y-83651751D01*
X98287670Y-83629428D01*
X98203548Y-83605033D01*
X98120051Y-83578581D01*
X98037229Y-83550088D01*
X97955130Y-83519571D01*
X97873805Y-83487049D01*
X97793303Y-83452540D01*
X97713672Y-83416067D01*
X97634959Y-83377650D01*
X97557214Y-83337312D01*
X97480482Y-83295079D01*
X97404809Y-83250976D01*
X97330241Y-83205029D01*
X97256824Y-83157266D01*
X97184601Y-83107715D01*
X97113615Y-83056407D01*
X97043910Y-83003372D01*
X96975528Y-82948642D01*
X96908509Y-82892251D01*
X96842895Y-82834232D01*
X96778724Y-82774621D01*
X96716035Y-82713452D01*
X96654867Y-82650763D01*
X96595255Y-82586592D01*
X96537236Y-82520978D01*
X96480845Y-82453959D01*
X96426115Y-82385577D01*
X96373081Y-82315872D01*
X96321772Y-82244887D01*
X96272222Y-82172663D01*
X96224458Y-82099246D01*
X96178511Y-82024678D01*
X96134408Y-81949006D01*
X96092175Y-81872274D01*
X96051838Y-81794528D01*
X96013421Y-81715816D01*
X95976947Y-81636185D01*
X95942439Y-81555682D01*
X95909916Y-81474357D01*
X95879399Y-81392259D01*
X95850906Y-81309436D01*
X95824454Y-81225939D01*
X95800060Y-81141818D01*
X95777737Y-81057123D01*
X95757499Y-80971907D01*
X95739359Y-80886219D01*
X95723327Y-80800112D01*
X95709413Y-80713637D01*
X95697626Y-80626847D01*
X95696714Y-80618625D01*
X105192612Y-80618625D01*
X105202137Y-80701175D01*
X105244206Y-80745228D01*
X105332312Y-80759913D01*
X105414069Y-80749197D01*
X105456137Y-80717050D01*
X105471219Y-80674981D01*
X105473600Y-80620213D01*
X105473600Y-80440825D01*
X105673625Y-80440825D01*
X105722837Y-80437650D01*
X105784574Y-80583876D01*
X105825849Y-80679656D01*
X105846662Y-80724988D01*
X105876031Y-80755944D01*
X105926831Y-80771025D01*
X106008587Y-80748800D01*
X106082406Y-80702763D01*
X106107012Y-80647200D01*
X106083200Y-80564650D01*
X106038750Y-80463579D01*
X106002767Y-80380500D01*
X105988673Y-80347163D01*
X106170512Y-80347163D01*
X106181625Y-80449644D01*
X106214962Y-80545424D01*
X106270525Y-80634500D01*
X106331445Y-80694627D01*
X106412606Y-80741656D01*
X106510436Y-80772017D01*
X106621362Y-80782138D01*
X106769298Y-80773307D01*
X106874966Y-80746816D01*
X106938366Y-80702663D01*
X106959500Y-80640850D01*
X106955462Y-80626563D01*
X107080150Y-80626563D01*
X107110312Y-80686888D01*
X107205827Y-80736276D01*
X107303987Y-80765910D01*
X107404794Y-80775788D01*
X107501190Y-80770319D01*
X107586121Y-80753915D01*
X107659587Y-80726575D01*
X107746106Y-80640056D01*
X107769323Y-80575961D01*
X107777062Y-80499563D01*
X107769323Y-80423958D01*
X107746106Y-80362244D01*
X107731025Y-80347163D01*
X107856437Y-80347163D01*
X107867550Y-80449644D01*
X107900887Y-80545424D01*
X107956450Y-80634500D01*
X108017370Y-80694627D01*
X108098531Y-80741656D01*
X108196361Y-80772017D01*
X108307287Y-80782138D01*
X108455223Y-80773307D01*
X108560891Y-80746816D01*
X108624291Y-80702663D01*
X108645425Y-80640850D01*
X108624787Y-80567825D01*
X108537475Y-80496388D01*
X108473975Y-80513850D01*
X108456512Y-80520200D01*
X108394203Y-80534488D01*
X108312050Y-80539250D01*
X108207275Y-80509088D01*
X108154887Y-80434475D01*
X108531125Y-80434475D01*
X108638281Y-80387644D01*
X108674595Y-80328113D01*
X108686700Y-80243181D01*
X108673206Y-80149320D01*
X108643148Y-80085225D01*
X108750200Y-80085225D01*
X108773219Y-80177300D01*
X108831162Y-80204288D01*
X108896250Y-80199525D01*
X108896250Y-80434475D01*
X108905775Y-80541543D01*
X108934350Y-80625681D01*
X108981975Y-80686888D01*
X109047944Y-80728339D01*
X109131553Y-80753210D01*
X109232800Y-80761500D01*
X109285981Y-80759119D01*
X109328050Y-80745625D01*
X109361387Y-80703953D01*
X109372500Y-80623388D01*
X109335987Y-80517025D01*
X109293919Y-80501944D01*
X109236769Y-80499563D01*
X109185969Y-80480513D01*
X109172475Y-80418600D01*
X109172475Y-80199525D01*
X109275662Y-80205875D01*
X109330431Y-80203494D01*
X109372500Y-80190000D01*
X109404647Y-80148328D01*
X109415362Y-80067762D01*
X109405044Y-79986403D01*
X109374087Y-79945525D01*
X109332019Y-79930444D01*
X109278044Y-79928062D01*
X109172475Y-79934412D01*
X109172475Y-79778837D01*
X109164537Y-79697875D01*
X109122072Y-79653822D01*
X109035950Y-79639137D01*
X108954591Y-79649059D01*
X108913712Y-79678825D01*
X108898631Y-79716925D01*
X108896250Y-79770900D01*
X108896250Y-79934412D01*
X108843862Y-79928062D01*
X108780362Y-79948700D01*
X108758137Y-79990769D01*
X108750200Y-80085225D01*
X108643148Y-80085225D01*
X108632725Y-80063000D01*
X108573789Y-79994936D01*
X108500169Y-79946319D01*
X108411864Y-79917148D01*
X108308875Y-79907425D01*
X108186902Y-79920742D01*
X108079217Y-79960694D01*
X107985819Y-80027281D01*
X107913940Y-80116093D01*
X107870813Y-80222720D01*
X107856437Y-80347163D01*
X107731025Y-80347163D01*
X107669112Y-80285250D01*
X107569100Y-80245563D01*
X107465912Y-80224925D01*
X107384950Y-80202303D01*
X107357962Y-80163012D01*
X107451625Y-80128087D01*
X107563544Y-80151900D01*
X107634187Y-80175712D01*
X107705625Y-80120150D01*
X107740550Y-80026487D01*
X107684987Y-79962987D01*
X107567512Y-79922506D01*
X107453212Y-79909012D01*
X107329197Y-79919045D01*
X107232740Y-79949144D01*
X107163843Y-79999309D01*
X107122504Y-80069540D01*
X107108725Y-80159837D01*
X107116266Y-80238220D01*
X107138887Y-80305094D01*
X107215087Y-80394788D01*
X107313909Y-80443603D01*
X107413525Y-80469400D01*
X107493297Y-80487656D01*
X107519887Y-80513850D01*
X107495678Y-80542425D01*
X107423050Y-80551950D01*
X107302400Y-80513056D01*
X107196831Y-80474163D01*
X107140475Y-80501150D01*
X107095231Y-80574572D01*
X107080150Y-80626563D01*
X106955462Y-80626563D01*
X106938862Y-80567825D01*
X106851550Y-80496388D01*
X106788050Y-80513850D01*
X106770587Y-80520200D01*
X106708278Y-80534488D01*
X106626125Y-80539250D01*
X106521350Y-80509088D01*
X106468962Y-80434475D01*
X106845200Y-80434475D01*
X106952356Y-80387644D01*
X106988670Y-80328113D01*
X107000775Y-80243181D01*
X106987281Y-80149320D01*
X106946800Y-80063000D01*
X106887864Y-79994936D01*
X106814244Y-79946319D01*
X106725939Y-79917148D01*
X106622950Y-79907425D01*
X106500977Y-79920742D01*
X106393292Y-79960694D01*
X106299894Y-80027281D01*
X106228015Y-80116093D01*
X106184888Y-80222720D01*
X106170512Y-80347163D01*
X105988673Y-80347163D01*
X105975250Y-80315413D01*
X106041396Y-80231099D01*
X106081083Y-80132674D01*
X106094312Y-80020137D01*
X106083994Y-79921712D01*
X106053037Y-79832812D01*
X106006206Y-79757406D01*
X105948262Y-79699462D01*
X105859539Y-79643018D01*
X105769051Y-79609151D01*
X105676800Y-79597862D01*
X105333900Y-79597862D01*
X105252144Y-79608578D01*
X105210075Y-79640725D01*
X105194994Y-79682794D01*
X105192612Y-79737562D01*
X105192612Y-80618625D01*
X95696714Y-80618625D01*
X95687972Y-80539794D01*
X95680457Y-80452530D01*
X95675086Y-80365108D01*
X95671862Y-80277580D01*
X95670787Y-80190000D01*
X95671862Y-80102420D01*
X95675086Y-80014892D01*
X95680457Y-79927470D01*
X95687972Y-79840206D01*
X95697626Y-79753153D01*
X95709413Y-79666363D01*
X95723327Y-79579888D01*
X95739359Y-79493781D01*
X95757499Y-79408093D01*
X95777737Y-79322877D01*
X95800060Y-79238182D01*
X95824454Y-79154061D01*
X95850906Y-79070564D01*
X95879399Y-78987741D01*
X95909916Y-78905643D01*
X95942439Y-78824318D01*
X95976947Y-78743815D01*
X96013421Y-78664184D01*
X96051838Y-78585472D01*
X96092175Y-78507726D01*
X96134408Y-78430994D01*
X96178511Y-78355322D01*
X96224458Y-78280754D01*
X96272222Y-78207337D01*
X96321772Y-78135113D01*
X96373081Y-78064128D01*
X96426115Y-77994423D01*
X96480845Y-77926041D01*
X96537236Y-77859022D01*
X96595255Y-77793408D01*
X96654867Y-77729237D01*
X96716035Y-77666548D01*
X96778724Y-77605379D01*
X96842895Y-77545768D01*
X96908509Y-77487749D01*
X96975528Y-77431358D01*
X97043910Y-77376628D01*
X97113615Y-77323593D01*
X97184601Y-77272285D01*
X97256824Y-77222734D01*
X97330241Y-77174971D01*
X97404809Y-77129024D01*
X97480482Y-77084921D01*
X97557214Y-77042688D01*
X97634959Y-77002350D01*
X97713672Y-76963933D01*
X97793303Y-76927460D01*
X97873805Y-76892951D01*
X97955130Y-76860429D01*
X98037229Y-76829912D01*
X98120051Y-76801419D01*
X98203548Y-76774967D01*
X98287670Y-76750572D01*
X98372364Y-76728249D01*
X98457581Y-76708012D01*
X98543269Y-76689872D01*
X98629376Y-76673840D01*
X98715850Y-76659926D01*
X98802640Y-76648138D01*
X98889694Y-76638484D01*
X98976958Y-76630970D01*
X99064380Y-76625599D01*
X99151907Y-76622375D01*
X99239487Y-76621300D01*
X112069213Y-76621300D01*
X109927993Y-83758700D01*
G37*
G36*
X108384281Y-80180475D02*
G01*
X108412062Y-80239213D01*
X108351737Y-80290013D01*
X108151712Y-80290013D01*
X108202512Y-80200319D01*
X108304906Y-80158250D01*
X108384281Y-80180475D01*
G37*
%TO.C,kibuzzard-61E19345*%
G36*
X191895163Y-77813180D02*
G01*
X191992596Y-77878069D01*
X192059866Y-77975105D01*
X192082290Y-78093175D01*
X192059271Y-78210848D01*
X191990215Y-78306694D01*
X191892584Y-78370392D01*
X191783840Y-78391625D01*
X191629852Y-78391625D01*
X191629852Y-77791550D01*
X191782252Y-77791550D01*
X191895163Y-77813180D01*
G37*
G36*
X188535947Y-76977295D02*
G01*
X193662249Y-76977295D01*
X194404053Y-78090000D01*
X193662249Y-79202705D01*
X188535947Y-79202705D01*
X188535947Y-78080475D01*
X189048577Y-78080475D01*
X189059491Y-78202068D01*
X189092234Y-78314433D01*
X189146804Y-78417571D01*
X189223202Y-78511481D01*
X189314384Y-78589616D01*
X189413306Y-78645427D01*
X189519966Y-78678913D01*
X189634365Y-78690075D01*
X189759381Y-78681443D01*
X189867727Y-78655547D01*
X189959406Y-78612387D01*
X190034415Y-78551963D01*
X190043159Y-78532913D01*
X190205865Y-78532913D01*
X190208246Y-78588475D01*
X190223327Y-78631338D01*
X190264602Y-78663484D01*
X190343977Y-78674200D01*
X190425734Y-78663484D01*
X190467802Y-78631338D01*
X190482884Y-78590062D01*
X190485265Y-78534500D01*
X190485265Y-78012212D01*
X190529627Y-78070068D01*
X190587570Y-78146268D01*
X190659096Y-78240813D01*
X190744204Y-78353701D01*
X190842893Y-78484935D01*
X190955165Y-78634513D01*
X190994852Y-78664675D01*
X191080577Y-78674200D01*
X191162334Y-78663484D01*
X191204402Y-78631338D01*
X191219484Y-78590062D01*
X191221865Y-78534500D01*
X191221865Y-78531325D01*
X191348865Y-78531325D01*
X191367915Y-78632925D01*
X191409984Y-78662691D01*
X191488565Y-78672613D01*
X191779077Y-78672613D01*
X191896007Y-78661798D01*
X192003907Y-78629353D01*
X192102779Y-78575279D01*
X192192621Y-78499575D01*
X192267283Y-78408740D01*
X192320613Y-78309273D01*
X192352611Y-78201175D01*
X192363277Y-78084444D01*
X192352363Y-77968159D01*
X192319621Y-77861400D01*
X192265051Y-77764166D01*
X192188652Y-77676456D01*
X192097867Y-77603878D01*
X192000137Y-77552036D01*
X191895461Y-77520931D01*
X191783840Y-77510562D01*
X191490152Y-77508975D01*
X191408396Y-77519691D01*
X191366327Y-77551837D01*
X191351246Y-77593112D01*
X191348865Y-77648675D01*
X191348865Y-78531325D01*
X191221865Y-78531325D01*
X191221865Y-77653437D01*
X191212340Y-77572475D01*
X191192496Y-77539137D01*
X191151221Y-77520087D01*
X191078196Y-77512150D01*
X191002790Y-77521675D01*
X190957546Y-77558981D01*
X190942465Y-77647087D01*
X190942465Y-78183663D01*
X190898720Y-78126380D01*
X190842629Y-78051900D01*
X190774190Y-77960222D01*
X190693404Y-77851346D01*
X190600270Y-77725272D01*
X190494790Y-77582000D01*
X190458277Y-77540725D01*
X190419384Y-77520881D01*
X190343977Y-77512150D01*
X190266190Y-77521675D01*
X190220946Y-77558981D01*
X190205865Y-77647087D01*
X190205865Y-78532913D01*
X190043159Y-78532913D01*
X190078865Y-78455125D01*
X190078865Y-78105875D01*
X190062990Y-78016975D01*
X189958215Y-77972525D01*
X189678815Y-77972525D01*
X189602615Y-77986812D01*
X189576421Y-78021737D01*
X189569277Y-78089206D01*
X189575627Y-78155881D01*
X189602615Y-78193188D01*
X189672465Y-78205888D01*
X189797877Y-78205888D01*
X189797877Y-78378925D01*
X189723662Y-78400356D01*
X189640715Y-78407500D01*
X189526415Y-78383489D01*
X189424815Y-78311456D01*
X189371898Y-78242841D01*
X189340148Y-78165053D01*
X189329565Y-78078094D01*
X189352981Y-77953872D01*
X189423227Y-77855844D01*
X189523637Y-77792145D01*
X189637540Y-77770912D01*
X189723265Y-77781827D01*
X189796290Y-77814569D01*
X189893127Y-77858225D01*
X189946706Y-77837191D01*
X190005840Y-77774087D01*
X190042352Y-77684394D01*
X189999490Y-77613750D01*
X189886072Y-77544958D01*
X189768068Y-77503683D01*
X189645477Y-77489925D01*
X189528796Y-77500492D01*
X189420052Y-77532192D01*
X189319246Y-77585026D01*
X189226377Y-77658994D01*
X189148590Y-77748737D01*
X189093027Y-77848898D01*
X189059690Y-77959478D01*
X189048577Y-78080475D01*
X188535947Y-78080475D01*
X188535947Y-76977295D01*
G37*
%TO.C,kibuzzard-61E19361*%
G36*
X191539034Y-67808417D02*
G01*
X191636467Y-67873306D01*
X191703737Y-67970342D01*
X191726161Y-68088412D01*
X191703142Y-68206086D01*
X191634086Y-68301931D01*
X191536455Y-68365630D01*
X191427711Y-68386863D01*
X191273723Y-68386863D01*
X191273723Y-67786787D01*
X191426123Y-67786787D01*
X191539034Y-67808417D01*
G37*
G36*
X192600278Y-67789268D02*
G01*
X192650880Y-67849097D01*
X192681240Y-67948812D01*
X192691361Y-68088412D01*
X192691361Y-68097938D01*
X192681141Y-68234066D01*
X192650483Y-68331300D01*
X192599385Y-68389641D01*
X192527848Y-68409088D01*
X192457701Y-68389095D01*
X192407595Y-68329117D01*
X192377532Y-68229154D01*
X192367511Y-68089206D01*
X192377631Y-67949258D01*
X192407992Y-67849295D01*
X192458594Y-67789318D01*
X192529436Y-67769325D01*
X192600278Y-67789268D01*
G37*
G36*
X194404582Y-68090000D02*
G01*
X193661720Y-69204293D01*
X188535418Y-69204293D01*
X188535418Y-68528150D01*
X189048048Y-68528150D01*
X189057573Y-68609113D01*
X189099642Y-68654356D01*
X189187748Y-68669438D01*
X189759248Y-68669438D01*
X189841798Y-68653563D01*
X189868786Y-68618638D01*
X189876723Y-68551169D01*
X189874015Y-68528150D01*
X189979911Y-68528150D01*
X189989436Y-68609113D01*
X190031505Y-68654356D01*
X190119611Y-68669438D01*
X190748261Y-68669438D01*
X190830811Y-68659913D01*
X190874864Y-68617844D01*
X190889548Y-68529738D01*
X190889132Y-68526563D01*
X190992736Y-68526563D01*
X191011786Y-68628163D01*
X191053855Y-68657928D01*
X191132436Y-68667850D01*
X191422948Y-68667850D01*
X191539878Y-68657035D01*
X191647778Y-68624591D01*
X191746649Y-68570516D01*
X191836492Y-68494813D01*
X191911154Y-68403978D01*
X191964484Y-68304511D01*
X191996482Y-68196412D01*
X192006350Y-68088412D01*
X192086523Y-68088412D01*
X192091639Y-68199714D01*
X192106984Y-68302901D01*
X192132561Y-68397975D01*
X192166890Y-68477747D01*
X192209555Y-68545613D01*
X192265514Y-68602564D01*
X192339730Y-68649594D01*
X192429225Y-68681145D01*
X192531023Y-68691663D01*
X192632425Y-68681344D01*
X192720730Y-68650388D01*
X192793556Y-68603556D01*
X192848523Y-68545613D01*
X192902697Y-68454034D01*
X192941392Y-68347572D01*
X192964609Y-68226227D01*
X192972348Y-68090000D01*
X192967057Y-67985049D01*
X192951182Y-67883978D01*
X192924723Y-67786787D01*
X192891584Y-67706619D01*
X192849317Y-67637562D01*
X192793755Y-67579222D01*
X192720730Y-67531200D01*
X192632028Y-67499053D01*
X192529436Y-67488337D01*
X192426447Y-67499252D01*
X192336555Y-67531994D01*
X192262537Y-67580809D01*
X192207173Y-67639944D01*
X192163319Y-67716342D01*
X192123830Y-67816950D01*
X192103104Y-67897207D01*
X192090668Y-67987694D01*
X192086523Y-68088412D01*
X192006350Y-68088412D01*
X192007148Y-68079681D01*
X191996234Y-67963397D01*
X191963492Y-67856637D01*
X191908922Y-67759403D01*
X191832523Y-67671694D01*
X191741738Y-67599115D01*
X191644008Y-67547273D01*
X191539332Y-67516168D01*
X191427711Y-67505800D01*
X191134023Y-67504212D01*
X191052267Y-67514928D01*
X191010198Y-67547075D01*
X190995117Y-67588350D01*
X190992736Y-67643912D01*
X190992736Y-68526563D01*
X190889132Y-68526563D01*
X190878833Y-68447981D01*
X190846686Y-68405913D01*
X190804617Y-68390831D01*
X190749848Y-68388450D01*
X190260898Y-68388450D01*
X190260898Y-68228113D01*
X190572048Y-68228113D01*
X190654598Y-68218588D01*
X190699842Y-68176519D01*
X190714923Y-68088412D01*
X190704208Y-68006656D01*
X190672061Y-67964587D01*
X190629992Y-67949506D01*
X190575223Y-67947125D01*
X190260898Y-67947125D01*
X190260898Y-67786787D01*
X190748261Y-67786787D01*
X190830811Y-67777262D01*
X190874864Y-67735194D01*
X190889548Y-67647087D01*
X190878833Y-67565331D01*
X190846686Y-67523262D01*
X190804617Y-67508181D01*
X190749848Y-67505800D01*
X190124373Y-67505800D01*
X190010073Y-67535169D01*
X189979911Y-67645500D01*
X189979911Y-68528150D01*
X189874015Y-68528150D01*
X189868786Y-68483700D01*
X189837036Y-68446394D01*
X189760836Y-68434488D01*
X189329036Y-68434488D01*
X189329036Y-67647087D01*
X189321098Y-67564537D01*
X189277839Y-67520484D01*
X189189336Y-67505800D01*
X189107580Y-67516516D01*
X189065511Y-67548662D01*
X189050430Y-67590731D01*
X189048048Y-67645500D01*
X189048048Y-68528150D01*
X188535418Y-68528150D01*
X188535418Y-66975707D01*
X193661720Y-66975707D01*
X194404582Y-68090000D01*
G37*
D12*
%TO.C,USB_C1*%
X93470000Y-45690000D02*
X84070000Y-45690000D01*
X84070000Y-47590000D02*
X84070000Y-45690000D01*
X93470000Y-47590000D02*
X93470000Y-45690000D01*
X93470000Y-51490000D02*
X93470000Y-49490000D01*
X84070000Y-51490000D02*
X84070000Y-49490000D01*
%TO.C,kibuzzard-61E1928B*%
G36*
X210281040Y-63987614D02*
G01*
X209619608Y-66192386D01*
X204858960Y-66192386D01*
X204858960Y-65524181D01*
X205371590Y-65524181D01*
X205381115Y-65605144D01*
X205423184Y-65650388D01*
X205511290Y-65665469D01*
X206082790Y-65665469D01*
X206165340Y-65649594D01*
X206192328Y-65614669D01*
X206200265Y-65547200D01*
X206197557Y-65524181D01*
X206303453Y-65524181D01*
X206312978Y-65605144D01*
X206355047Y-65650388D01*
X206443153Y-65665469D01*
X207071803Y-65665469D01*
X207154353Y-65655944D01*
X207198406Y-65613875D01*
X207213090Y-65525769D01*
X207212674Y-65522594D01*
X207316278Y-65522594D01*
X207335328Y-65624194D01*
X207377397Y-65653959D01*
X207455978Y-65663881D01*
X207746490Y-65663881D01*
X207863420Y-65653066D01*
X207971320Y-65620622D01*
X208070191Y-65566548D01*
X208112935Y-65530531D01*
X208410065Y-65530531D01*
X208440228Y-65590856D01*
X208535742Y-65640245D01*
X208633903Y-65669878D01*
X208734709Y-65679756D01*
X208831106Y-65674288D01*
X208916037Y-65657884D01*
X208989503Y-65630544D01*
X209076022Y-65544025D01*
X209099239Y-65479930D01*
X209106978Y-65403531D01*
X209099239Y-65327927D01*
X209076022Y-65266213D01*
X208999028Y-65189219D01*
X208899015Y-65149531D01*
X208795828Y-65128894D01*
X208714865Y-65106272D01*
X208687878Y-65066981D01*
X208781540Y-65032056D01*
X208893459Y-65055869D01*
X208964103Y-65079681D01*
X209035540Y-65024119D01*
X209070465Y-64930456D01*
X209014903Y-64866956D01*
X208897428Y-64826475D01*
X208783128Y-64812981D01*
X208659112Y-64823014D01*
X208562656Y-64853113D01*
X208493758Y-64903278D01*
X208452420Y-64973509D01*
X208438640Y-65063806D01*
X208446181Y-65142189D01*
X208468803Y-65209063D01*
X208545003Y-65298756D01*
X208643825Y-65347572D01*
X208743440Y-65373369D01*
X208823212Y-65391625D01*
X208849803Y-65417819D01*
X208825593Y-65446394D01*
X208752965Y-65455919D01*
X208632315Y-65417025D01*
X208526747Y-65378131D01*
X208470390Y-65405119D01*
X208425147Y-65478541D01*
X208410065Y-65530531D01*
X208112935Y-65530531D01*
X208160034Y-65490844D01*
X208234696Y-65400009D01*
X208288026Y-65300542D01*
X208320024Y-65192443D01*
X208330690Y-65075712D01*
X208319776Y-64959428D01*
X208287034Y-64852669D01*
X208232464Y-64755434D01*
X208156065Y-64667725D01*
X208065280Y-64595146D01*
X207967550Y-64543305D01*
X207862874Y-64512200D01*
X207751253Y-64501831D01*
X207457565Y-64500244D01*
X207375809Y-64510959D01*
X207333740Y-64543106D01*
X207318659Y-64584381D01*
X207316278Y-64639944D01*
X207316278Y-65522594D01*
X207212674Y-65522594D01*
X207202375Y-65444013D01*
X207170228Y-65401944D01*
X207128159Y-65386863D01*
X207073390Y-65384481D01*
X206584440Y-65384481D01*
X206584440Y-65224144D01*
X206895590Y-65224144D01*
X206978140Y-65214619D01*
X207023384Y-65172550D01*
X207038465Y-65084444D01*
X207027750Y-65002687D01*
X206995603Y-64960619D01*
X206953534Y-64945537D01*
X206898765Y-64943156D01*
X206584440Y-64943156D01*
X206584440Y-64782819D01*
X207071803Y-64782819D01*
X207154353Y-64773294D01*
X207198406Y-64731225D01*
X207213090Y-64643119D01*
X207202375Y-64561362D01*
X207170228Y-64519294D01*
X207128159Y-64504212D01*
X207073390Y-64501831D01*
X206447915Y-64501831D01*
X206333615Y-64531200D01*
X206303453Y-64641531D01*
X206303453Y-65524181D01*
X206197557Y-65524181D01*
X206192328Y-65479731D01*
X206160578Y-65442425D01*
X206084378Y-65430519D01*
X205652578Y-65430519D01*
X205652578Y-64643119D01*
X205644640Y-64560569D01*
X205601381Y-64516516D01*
X205512878Y-64501831D01*
X205431122Y-64512547D01*
X205389053Y-64544694D01*
X205373972Y-64586762D01*
X205371590Y-64641531D01*
X205371590Y-65524181D01*
X204858960Y-65524181D01*
X204858960Y-63987614D01*
X210281040Y-63987614D01*
G37*
G36*
X207862576Y-64804448D02*
G01*
X207960009Y-64869337D01*
X208027279Y-64966373D01*
X208049703Y-65084444D01*
X208026684Y-65202117D01*
X207957628Y-65297963D01*
X207859997Y-65361661D01*
X207751253Y-65382894D01*
X207597265Y-65382894D01*
X207597265Y-64782819D01*
X207749665Y-64782819D01*
X207862576Y-64804448D01*
G37*
%TO.C,kibuzzard-61E18CE3*%
G36*
X173647725Y-53726513D02*
G01*
X173684634Y-53774534D01*
X173696937Y-53842400D01*
X173683841Y-53910663D01*
X173644550Y-53959875D01*
X173539775Y-53999563D01*
X173436587Y-53960669D01*
X173398487Y-53912250D01*
X173385787Y-53844781D01*
X173398091Y-53777114D01*
X173435000Y-53728100D01*
X173541362Y-53688412D01*
X173647725Y-53726513D01*
G37*
G36*
X172703162Y-53417744D02*
G01*
X172749200Y-53523312D01*
X172703162Y-53628087D01*
X172611087Y-53663012D01*
X172407887Y-53663012D01*
X172407887Y-53382025D01*
X172607912Y-53382025D01*
X172703162Y-53417744D01*
G37*
G36*
X176525730Y-54791593D02*
G01*
X171614270Y-54791593D01*
X171413332Y-54121800D01*
X172126900Y-54121800D01*
X172136425Y-54204350D01*
X172178494Y-54248403D01*
X172266600Y-54263088D01*
X172348356Y-54252372D01*
X172390425Y-54220225D01*
X172405506Y-54178156D01*
X172407887Y-54123388D01*
X172407887Y-53944000D01*
X172607912Y-53944000D01*
X172657125Y-53940825D01*
X172718861Y-54087051D01*
X172760136Y-54182831D01*
X172780950Y-54228163D01*
X172810319Y-54259119D01*
X172861119Y-54274200D01*
X172942875Y-54251975D01*
X173016694Y-54205938D01*
X173041300Y-54150375D01*
X173017487Y-54067825D01*
X172973037Y-53966754D01*
X172937054Y-53883675D01*
X172921618Y-53847163D01*
X173104800Y-53847163D01*
X173121667Y-53967614D01*
X173172269Y-54074969D01*
X173247477Y-54163472D01*
X173338162Y-54227369D01*
X173438175Y-54266064D01*
X173541362Y-54278963D01*
X173644352Y-54266858D01*
X173743769Y-54230544D01*
X173834058Y-54168631D01*
X173909662Y-54079731D01*
X173960859Y-53969995D01*
X173977925Y-53845575D01*
X173963285Y-53726072D01*
X173919364Y-53621561D01*
X173852003Y-53539187D01*
X174041425Y-53539187D01*
X174057300Y-53601100D01*
X174297013Y-54185300D01*
X174341463Y-54241656D01*
X174424013Y-54269438D01*
X174511325Y-54231338D01*
X174536725Y-54198000D01*
X174550219Y-54171806D01*
X174561331Y-54143231D01*
X174601019Y-54035281D01*
X174628205Y-53960867D01*
X174647850Y-53910663D01*
X174694240Y-54034135D01*
X174725461Y-54116685D01*
X174741513Y-54158313D01*
X174754213Y-54185300D01*
X174799456Y-54241656D01*
X174870100Y-54269438D01*
X174930425Y-54258325D01*
X174978050Y-54219431D01*
X175009800Y-54159900D01*
X175022180Y-54129738D01*
X175316188Y-54129738D01*
X175346350Y-54190062D01*
X175441865Y-54239451D01*
X175540025Y-54269085D01*
X175640831Y-54278963D01*
X175737228Y-54273494D01*
X175822159Y-54257090D01*
X175895625Y-54229750D01*
X175982144Y-54143231D01*
X176005361Y-54079136D01*
X176013100Y-54002738D01*
X176005361Y-53927133D01*
X175982144Y-53865419D01*
X175905150Y-53788425D01*
X175805138Y-53748738D01*
X175701950Y-53728100D01*
X175620988Y-53705478D01*
X175594000Y-53666187D01*
X175687663Y-53631262D01*
X175799581Y-53655075D01*
X175870225Y-53678887D01*
X175941663Y-53623325D01*
X175976588Y-53529662D01*
X175921025Y-53466162D01*
X175803550Y-53425681D01*
X175689250Y-53412187D01*
X175565235Y-53422220D01*
X175468778Y-53452319D01*
X175399881Y-53502484D01*
X175358542Y-53572715D01*
X175344763Y-53663012D01*
X175352303Y-53741395D01*
X175374925Y-53808269D01*
X175451125Y-53897963D01*
X175549947Y-53946778D01*
X175649563Y-53972575D01*
X175729334Y-53990831D01*
X175755925Y-54017025D01*
X175731716Y-54045600D01*
X175659088Y-54055125D01*
X175538438Y-54016231D01*
X175432869Y-53977338D01*
X175376513Y-54004325D01*
X175331269Y-54077747D01*
X175316188Y-54129738D01*
X175022180Y-54129738D01*
X175184425Y-53734450D01*
X175227288Y-53630469D01*
X175252688Y-53543950D01*
X175227288Y-53484022D01*
X175151088Y-53434412D01*
X175087588Y-53418537D01*
X175020913Y-53443937D01*
X174973288Y-53520137D01*
X174876450Y-53783663D01*
X174859693Y-53741329D01*
X174828472Y-53656662D01*
X174782788Y-53529662D01*
X174770088Y-53502675D01*
X174723256Y-53451875D01*
X174641500Y-53426475D01*
X174547838Y-53472512D01*
X174512913Y-53528075D01*
X174419250Y-53785250D01*
X174368626Y-53647667D01*
X174331056Y-53548183D01*
X174306538Y-53486800D01*
X174293838Y-53459019D01*
X174266056Y-53432031D01*
X174214463Y-53418537D01*
X174131913Y-53439175D01*
X174064047Y-53482434D01*
X174041425Y-53539187D01*
X173852003Y-53539187D01*
X173846162Y-53532044D01*
X173753911Y-53463693D01*
X173652840Y-53422683D01*
X173542950Y-53409012D01*
X173432883Y-53422771D01*
X173331283Y-53464046D01*
X173238150Y-53532837D01*
X173164067Y-53622796D01*
X173119617Y-53727571D01*
X173104800Y-53847163D01*
X172921618Y-53847163D01*
X172909537Y-53818588D01*
X172975683Y-53734274D01*
X173015371Y-53635849D01*
X173028600Y-53523312D01*
X173018281Y-53424887D01*
X172987325Y-53335987D01*
X172940494Y-53260581D01*
X172882550Y-53202637D01*
X172793826Y-53146193D01*
X172703339Y-53112326D01*
X172611087Y-53101037D01*
X172268187Y-53101037D01*
X172186431Y-53111753D01*
X172144362Y-53143900D01*
X172129281Y-53185969D01*
X172126900Y-53240737D01*
X172126900Y-54121800D01*
X171413332Y-54121800D01*
X170953314Y-52588407D01*
X177186686Y-52588407D01*
X176525730Y-54791593D01*
G37*
%TO.C,kibuzzard-61E19354*%
G36*
X191542209Y-72817942D02*
G01*
X191639642Y-72882831D01*
X191706912Y-72979867D01*
X191729336Y-73097938D01*
X191706317Y-73215611D01*
X191637261Y-73311456D01*
X191539630Y-73375155D01*
X191430886Y-73396388D01*
X191276898Y-73396388D01*
X191276898Y-72796312D01*
X191429298Y-72796312D01*
X191542209Y-72817942D01*
G37*
G36*
X194401407Y-73090000D02*
G01*
X193664895Y-74194768D01*
X188538593Y-74194768D01*
X188538593Y-73537675D01*
X189051223Y-73537675D01*
X189060748Y-73618638D01*
X189102817Y-73663881D01*
X189190923Y-73678963D01*
X189762423Y-73678963D01*
X189844973Y-73663088D01*
X189871961Y-73628163D01*
X189879898Y-73560694D01*
X189877190Y-73537675D01*
X189983086Y-73537675D01*
X189992611Y-73618638D01*
X190034680Y-73663881D01*
X190122786Y-73678963D01*
X190751436Y-73678963D01*
X190833986Y-73669438D01*
X190878039Y-73627369D01*
X190892723Y-73539263D01*
X190892307Y-73536088D01*
X190995911Y-73536088D01*
X191014961Y-73637688D01*
X191057030Y-73667453D01*
X191135611Y-73677375D01*
X191426123Y-73677375D01*
X191543053Y-73666560D01*
X191650953Y-73634116D01*
X191749824Y-73580041D01*
X191798219Y-73539263D01*
X192089698Y-73539263D01*
X192130973Y-73639275D01*
X192229398Y-73682138D01*
X192850111Y-73682138D01*
X192948536Y-73663088D01*
X192982667Y-73621813D01*
X192992986Y-73541644D01*
X192983461Y-73460681D01*
X192946155Y-73414644D01*
X192853286Y-73399563D01*
X192562773Y-73399563D01*
X192562773Y-73391625D01*
X192602461Y-73375750D01*
X192700886Y-73322172D01*
X192812011Y-73234463D01*
X192863605Y-73177313D01*
X192907261Y-73104288D01*
X192937026Y-73020944D01*
X192946948Y-72932837D01*
X192933719Y-72823741D01*
X192894032Y-72722935D01*
X192827886Y-72630419D01*
X192740485Y-72556776D01*
X192637033Y-72512591D01*
X192517530Y-72497862D01*
X192398114Y-72512415D01*
X192294927Y-72556071D01*
X192207967Y-72628831D01*
X192142262Y-72719936D01*
X192102839Y-72818626D01*
X192089698Y-72924900D01*
X192097636Y-73005862D01*
X192140895Y-73051106D01*
X192229398Y-73066187D01*
X192310361Y-73056662D01*
X192353223Y-73028087D01*
X192368305Y-72988400D01*
X192370686Y-72936012D01*
X192370686Y-72926487D01*
X192377036Y-72889975D01*
X192419105Y-72816156D01*
X192507211Y-72778850D01*
X192586586Y-72793137D01*
X192628655Y-72824094D01*
X192653261Y-72866956D01*
X192664373Y-72907437D01*
X192649490Y-72976891D01*
X192604842Y-73042375D01*
X192539159Y-73102502D01*
X192461173Y-73155881D01*
X192377036Y-73206284D01*
X192292898Y-73257481D01*
X192214912Y-73314234D01*
X192149230Y-73381306D01*
X192104581Y-73456911D01*
X192089698Y-73539263D01*
X191798219Y-73539263D01*
X191839667Y-73504338D01*
X191914329Y-73413503D01*
X191967659Y-73314036D01*
X191999657Y-73205937D01*
X192010323Y-73089206D01*
X191999409Y-72972922D01*
X191966667Y-72866162D01*
X191912097Y-72768928D01*
X191835698Y-72681219D01*
X191744913Y-72608640D01*
X191647183Y-72556798D01*
X191542507Y-72525693D01*
X191430886Y-72515325D01*
X191137198Y-72513737D01*
X191055442Y-72524453D01*
X191013373Y-72556600D01*
X190998292Y-72597875D01*
X190995911Y-72653437D01*
X190995911Y-73536088D01*
X190892307Y-73536088D01*
X190882008Y-73457506D01*
X190849861Y-73415438D01*
X190807792Y-73400356D01*
X190753023Y-73397975D01*
X190264073Y-73397975D01*
X190264073Y-73237638D01*
X190575223Y-73237638D01*
X190657773Y-73228113D01*
X190703017Y-73186044D01*
X190718098Y-73097938D01*
X190707383Y-73016181D01*
X190675236Y-72974112D01*
X190633167Y-72959031D01*
X190578398Y-72956650D01*
X190264073Y-72956650D01*
X190264073Y-72796312D01*
X190751436Y-72796312D01*
X190833986Y-72786787D01*
X190878039Y-72744719D01*
X190892723Y-72656612D01*
X190882008Y-72574856D01*
X190849861Y-72532787D01*
X190807792Y-72517706D01*
X190753023Y-72515325D01*
X190127548Y-72515325D01*
X190013248Y-72544694D01*
X189983086Y-72655025D01*
X189983086Y-73537675D01*
X189877190Y-73537675D01*
X189871961Y-73493225D01*
X189840211Y-73455919D01*
X189764011Y-73444013D01*
X189332211Y-73444013D01*
X189332211Y-72656612D01*
X189324273Y-72574062D01*
X189281014Y-72530009D01*
X189192511Y-72515325D01*
X189110755Y-72526041D01*
X189068686Y-72558187D01*
X189053605Y-72600256D01*
X189051223Y-72655025D01*
X189051223Y-73537675D01*
X188538593Y-73537675D01*
X188538593Y-71985232D01*
X193664895Y-71985232D01*
X194401407Y-73090000D01*
G37*
%TO.C,kibuzzard-61E1917D*%
G36*
X80117875Y-72800306D02*
G01*
X80154388Y-72893969D01*
X80116288Y-72986044D01*
X80020244Y-73028113D01*
X79921819Y-72986838D01*
X79881338Y-72893969D01*
X79919438Y-72799512D01*
X80019450Y-72756650D01*
X80117875Y-72800306D01*
G37*
G36*
X77326256Y-72742362D02*
G01*
X77354037Y-72801100D01*
X77293712Y-72851900D01*
X77093687Y-72851900D01*
X77144487Y-72762206D01*
X77246881Y-72720137D01*
X77326256Y-72742362D01*
G37*
G36*
X76250923Y-72462367D02*
G01*
X76348356Y-72527256D01*
X76415627Y-72624292D01*
X76438050Y-72742362D01*
X76415031Y-72860036D01*
X76345975Y-72955881D01*
X76248344Y-73019580D01*
X76139600Y-73040813D01*
X75985612Y-73040813D01*
X75985612Y-72440737D01*
X76138012Y-72440737D01*
X76250923Y-72462367D01*
G37*
G36*
X75191995Y-71583620D02*
G01*
X80948005Y-71583620D01*
X81731833Y-74196380D01*
X74408167Y-74196380D01*
X74712927Y-73180513D01*
X75704625Y-73180513D01*
X75723675Y-73282113D01*
X75765744Y-73311878D01*
X75844325Y-73321800D01*
X76134837Y-73321800D01*
X76251767Y-73310985D01*
X76359667Y-73278541D01*
X76458539Y-73224466D01*
X76548381Y-73148763D01*
X76623043Y-73057928D01*
X76676373Y-72958461D01*
X76690999Y-72909050D01*
X76798412Y-72909050D01*
X76809525Y-73011532D01*
X76842862Y-73107311D01*
X76898425Y-73196388D01*
X76959345Y-73256514D01*
X77040506Y-73303544D01*
X77138336Y-73333905D01*
X77249262Y-73344025D01*
X77397198Y-73335195D01*
X77502866Y-73308703D01*
X77566266Y-73264551D01*
X77587400Y-73202738D01*
X77581567Y-73182100D01*
X77731862Y-73182100D01*
X77734244Y-73236869D01*
X77747737Y-73278938D01*
X77789409Y-73311084D01*
X77869975Y-73321800D01*
X77966019Y-73302353D01*
X78006500Y-73244013D01*
X78083097Y-73301163D01*
X78198588Y-73320213D01*
X78286606Y-73306366D01*
X78370743Y-73264826D01*
X78451000Y-73195594D01*
X78516264Y-73107928D01*
X78555422Y-73011091D01*
X78568475Y-72905081D01*
X78568180Y-72902700D01*
X78671663Y-72902700D01*
X78683392Y-73013208D01*
X78718582Y-73111897D01*
X78777231Y-73198769D01*
X78853696Y-73266238D01*
X78942331Y-73306719D01*
X79043138Y-73320213D01*
X79160613Y-73285288D01*
X79203475Y-73250363D01*
X79232050Y-73218613D01*
X79247925Y-73283700D01*
X79288803Y-73312275D01*
X79366988Y-73321800D01*
X79446759Y-73311481D01*
X79489225Y-73280525D01*
X79504306Y-73240044D01*
X79506688Y-73186863D01*
X79506688Y-72893175D01*
X79609875Y-72893175D01*
X79622663Y-72996627D01*
X79661028Y-73091083D01*
X79724969Y-73176544D01*
X79803550Y-73244013D01*
X79885835Y-73284494D01*
X79971825Y-73297988D01*
X80085728Y-73278144D01*
X80163913Y-73218613D01*
X80163913Y-73266238D01*
X80125813Y-73380538D01*
X80027388Y-73428163D01*
X79941663Y-73413478D01*
X79862288Y-73369425D01*
X79816250Y-73350375D01*
X79777356Y-73363075D01*
X79730525Y-73409113D01*
X79682900Y-73518650D01*
X79710284Y-73569053D01*
X79792438Y-73625013D01*
X79904753Y-73669066D01*
X80022625Y-73683750D01*
X80124931Y-73671315D01*
X80220181Y-73634008D01*
X80308375Y-73571831D01*
X80378931Y-73489369D01*
X80421264Y-73391209D01*
X80435375Y-73277350D01*
X80435375Y-72620125D01*
X80432994Y-72566150D01*
X80418706Y-72525669D01*
X80378225Y-72493125D01*
X80287738Y-72483600D01*
X80198044Y-72506619D01*
X80165500Y-72574087D01*
X80139306Y-72543131D01*
X80078188Y-72506619D01*
X79979763Y-72486775D01*
X79890157Y-72500357D01*
X79805490Y-72541103D01*
X79725763Y-72609012D01*
X79661381Y-72694914D01*
X79622751Y-72789635D01*
X79609875Y-72893175D01*
X79506688Y-72893175D01*
X79506688Y-72624887D01*
X79504306Y-72570119D01*
X79490813Y-72528050D01*
X79449141Y-72495903D01*
X79368575Y-72485187D01*
X79287216Y-72495506D01*
X79246338Y-72526462D01*
X79231256Y-72568531D01*
X79228875Y-72623300D01*
X79228875Y-72904288D01*
X79189981Y-73004300D01*
X79088381Y-73042400D01*
X78988369Y-73005888D01*
X78951063Y-72904288D01*
X78951063Y-72626475D01*
X78941538Y-72545512D01*
X78899469Y-72500269D01*
X78811363Y-72485187D01*
X78729606Y-72495903D01*
X78687538Y-72528050D01*
X78674044Y-72569325D01*
X78671663Y-72624887D01*
X78671663Y-72902700D01*
X78568180Y-72902700D01*
X78555334Y-72798983D01*
X78515911Y-72701881D01*
X78450206Y-72613775D01*
X78368803Y-72544101D01*
X78282284Y-72502297D01*
X78190650Y-72488362D01*
X78086669Y-72507809D01*
X78009675Y-72566150D01*
X78009675Y-72235950D01*
X78007294Y-72181181D01*
X77992212Y-72139112D01*
X77951731Y-72106966D01*
X77871562Y-72096250D01*
X77789806Y-72106966D01*
X77747737Y-72139112D01*
X77734244Y-72179594D01*
X77731862Y-72234362D01*
X77731862Y-73182100D01*
X77581567Y-73182100D01*
X77566762Y-73129713D01*
X77479450Y-73058275D01*
X77415950Y-73075738D01*
X77398487Y-73082088D01*
X77336178Y-73096375D01*
X77254025Y-73101138D01*
X77149250Y-73070975D01*
X77096862Y-72996363D01*
X77473100Y-72996363D01*
X77580256Y-72949531D01*
X77616570Y-72890000D01*
X77628675Y-72805069D01*
X77615181Y-72711208D01*
X77574700Y-72624887D01*
X77515764Y-72556823D01*
X77442144Y-72508206D01*
X77353839Y-72479036D01*
X77250850Y-72469312D01*
X77128877Y-72482630D01*
X77021192Y-72522582D01*
X76927794Y-72589169D01*
X76855915Y-72677981D01*
X76812788Y-72784608D01*
X76798412Y-72909050D01*
X76690999Y-72909050D01*
X76708371Y-72850362D01*
X76719037Y-72733631D01*
X76708123Y-72617347D01*
X76675381Y-72510587D01*
X76620811Y-72413353D01*
X76544412Y-72325644D01*
X76453627Y-72253065D01*
X76355897Y-72201223D01*
X76251221Y-72170118D01*
X76139600Y-72159750D01*
X75845912Y-72158162D01*
X75764156Y-72168878D01*
X75722087Y-72201025D01*
X75707006Y-72242300D01*
X75704625Y-72297862D01*
X75704625Y-73180513D01*
X74712927Y-73180513D01*
X75191995Y-71583620D01*
G37*
G36*
X78252563Y-72809831D02*
G01*
X78290663Y-72905875D01*
X78249388Y-73001125D01*
X78149375Y-73043988D01*
X78051744Y-73001125D01*
X78012850Y-72906669D01*
X78050156Y-72810625D01*
X78150963Y-72766175D01*
X78252563Y-72809831D01*
G37*
%TO.C,kibuzzard-61E1935A*%
G36*
X191544855Y-70310005D02*
G01*
X191642288Y-70374894D01*
X191709558Y-70471930D01*
X191731982Y-70590000D01*
X191708963Y-70707673D01*
X191639907Y-70803519D01*
X191542275Y-70867217D01*
X191433532Y-70888450D01*
X191279544Y-70888450D01*
X191279544Y-70288375D01*
X191431944Y-70288375D01*
X191544855Y-70310005D01*
G37*
G36*
X194398761Y-70590000D02*
G01*
X193667541Y-71686830D01*
X188541239Y-71686830D01*
X188541239Y-71029738D01*
X189053869Y-71029738D01*
X189063394Y-71110700D01*
X189105463Y-71155944D01*
X189193569Y-71171025D01*
X189765069Y-71171025D01*
X189847619Y-71155150D01*
X189874607Y-71120225D01*
X189882544Y-71052756D01*
X189879836Y-71029738D01*
X189985732Y-71029738D01*
X189995257Y-71110700D01*
X190037325Y-71155944D01*
X190125432Y-71171025D01*
X190754082Y-71171025D01*
X190836632Y-71161500D01*
X190880685Y-71119431D01*
X190895369Y-71031325D01*
X190894953Y-71028150D01*
X190998557Y-71028150D01*
X191017607Y-71129750D01*
X191059675Y-71159516D01*
X191138257Y-71169438D01*
X191428769Y-71169438D01*
X191545698Y-71158623D01*
X191653599Y-71126178D01*
X191752470Y-71072104D01*
X191842313Y-70996400D01*
X191916975Y-70905565D01*
X191970305Y-70806098D01*
X192002303Y-70698000D01*
X192012969Y-70581269D01*
X192002055Y-70464984D01*
X191975642Y-70378862D01*
X192076469Y-70378862D01*
X192126475Y-70477287D01*
X192222519Y-70532850D01*
X192333644Y-70483637D01*
X192354282Y-70464587D01*
X192354282Y-71031325D01*
X192356663Y-71089269D01*
X192371744Y-71132925D01*
X192414210Y-71163881D01*
X192493982Y-71174200D01*
X192575738Y-71163484D01*
X192617807Y-71131338D01*
X192632888Y-71089269D01*
X192635269Y-71034500D01*
X192635269Y-70150262D01*
X192627332Y-70066125D01*
X192605107Y-70031994D01*
X192563832Y-70013737D01*
X192488425Y-70005800D01*
X192398732Y-70047075D01*
X192393969Y-70050250D01*
X192133619Y-70285200D01*
X192076469Y-70378862D01*
X191975642Y-70378862D01*
X191969313Y-70358225D01*
X191914743Y-70260991D01*
X191838344Y-70173281D01*
X191747559Y-70100703D01*
X191649828Y-70048861D01*
X191545153Y-70017756D01*
X191433532Y-70007387D01*
X191139844Y-70005800D01*
X191058088Y-70016516D01*
X191016019Y-70048662D01*
X191000938Y-70089938D01*
X190998557Y-70145500D01*
X190998557Y-71028150D01*
X190894953Y-71028150D01*
X190884653Y-70949569D01*
X190852507Y-70907500D01*
X190810438Y-70892419D01*
X190755669Y-70890038D01*
X190266719Y-70890038D01*
X190266719Y-70729700D01*
X190577869Y-70729700D01*
X190660419Y-70720175D01*
X190705663Y-70678106D01*
X190720744Y-70590000D01*
X190710028Y-70508244D01*
X190677882Y-70466175D01*
X190635813Y-70451094D01*
X190581044Y-70448712D01*
X190266719Y-70448712D01*
X190266719Y-70288375D01*
X190754082Y-70288375D01*
X190836632Y-70278850D01*
X190880685Y-70236781D01*
X190895369Y-70148675D01*
X190884653Y-70066919D01*
X190852507Y-70024850D01*
X190810438Y-70009769D01*
X190755669Y-70007387D01*
X190130194Y-70007387D01*
X190015894Y-70036756D01*
X189985732Y-70147087D01*
X189985732Y-71029738D01*
X189879836Y-71029738D01*
X189874607Y-70985288D01*
X189842857Y-70947981D01*
X189766657Y-70936075D01*
X189334857Y-70936075D01*
X189334857Y-70148675D01*
X189326919Y-70066125D01*
X189283660Y-70022072D01*
X189195157Y-70007387D01*
X189113400Y-70018103D01*
X189071332Y-70050250D01*
X189056250Y-70092319D01*
X189053869Y-70147087D01*
X189053869Y-71029738D01*
X188541239Y-71029738D01*
X188541239Y-69493170D01*
X193667541Y-69493170D01*
X194398761Y-70590000D01*
G37*
%TO.C,R11*%
X93192500Y-59827258D02*
X93192500Y-59352742D01*
X92147500Y-59827258D02*
X92147500Y-59352742D01*
%TO.C,kibuzzard-61E1934D*%
G36*
X193661985Y-74476501D02*
G01*
X194404317Y-75590000D01*
X193661985Y-76703499D01*
X188535683Y-76703499D01*
X188535683Y-75824156D01*
X189048313Y-75824156D01*
X189065775Y-75909881D01*
X189068950Y-75925756D01*
X189086413Y-75967031D01*
X189125703Y-76030134D01*
X189170550Y-76079744D01*
X189262273Y-76141480D01*
X189368106Y-76178522D01*
X189488050Y-76190869D01*
X189608877Y-76178610D01*
X189715239Y-76141833D01*
X189807138Y-76080538D01*
X189853942Y-76027356D01*
X190013513Y-76027356D01*
X190044469Y-76141656D01*
X190091697Y-76164278D01*
X190171469Y-76171819D01*
X190249455Y-76160309D01*
X190291325Y-76125781D01*
X190307994Y-76082125D01*
X190310375Y-76025769D01*
X190310375Y-76019419D01*
X190283388Y-75908294D01*
X190231993Y-75883291D01*
X190150832Y-75874956D01*
X190072846Y-75886863D01*
X190030975Y-75922581D01*
X190015894Y-75965444D01*
X190013513Y-76021006D01*
X190013513Y-76027356D01*
X189853942Y-76027356D01*
X189877693Y-76000369D01*
X189920027Y-75906971D01*
X189930987Y-75824156D01*
X190389750Y-75824156D01*
X190407213Y-75909881D01*
X190410388Y-75925756D01*
X190427850Y-75967031D01*
X190467141Y-76030134D01*
X190511988Y-76079744D01*
X190603710Y-76141480D01*
X190709543Y-76178522D01*
X190829488Y-76190869D01*
X190950314Y-76178610D01*
X191056677Y-76141833D01*
X191148575Y-76080538D01*
X191219131Y-76000369D01*
X191261464Y-75906971D01*
X191275575Y-75800344D01*
X191262478Y-75719381D01*
X191223188Y-75647944D01*
X191173182Y-75596350D01*
X191126350Y-75562219D01*
X191126350Y-75551106D01*
X191195142Y-75501276D01*
X191236417Y-75434337D01*
X191250175Y-75350287D01*
X191237652Y-75260770D01*
X191200081Y-75177426D01*
X191158073Y-75125656D01*
X191339075Y-75125656D01*
X191362888Y-75201856D01*
X191801038Y-76090856D01*
X191854219Y-76147213D01*
X191929625Y-76168644D01*
X191945500Y-76168644D01*
X192019319Y-76147213D01*
X192072500Y-76090856D01*
X192510650Y-75201856D01*
X192534463Y-75125656D01*
X192511047Y-75072475D01*
X192440800Y-75024056D01*
X192347138Y-74997069D01*
X192277288Y-75039931D01*
X192255063Y-75087556D01*
X191937563Y-75782881D01*
X191920299Y-75746170D01*
X191881207Y-75661438D01*
X191829613Y-75549320D01*
X191774844Y-75430456D01*
X191720274Y-75311592D01*
X191669275Y-75199475D01*
X191629389Y-75112162D01*
X191608157Y-75067712D01*
X191581963Y-75025644D01*
X191554975Y-75003419D01*
X191512907Y-74997069D01*
X191432738Y-75024056D01*
X191362491Y-75072475D01*
X191339075Y-75125656D01*
X191158073Y-75125656D01*
X191137463Y-75100256D01*
X191053149Y-75038520D01*
X190950491Y-75001478D01*
X190829488Y-74989131D01*
X190750708Y-74994687D01*
X190679469Y-75011356D01*
X190574694Y-75060569D01*
X190508813Y-75123275D01*
X190473888Y-75173281D01*
X190437375Y-75281231D01*
X190457219Y-75337984D01*
X190516750Y-75387594D01*
X190604063Y-75416169D01*
X190664388Y-75396325D01*
X190708838Y-75336794D01*
X190718363Y-75317744D01*
X190759638Y-75279644D01*
X190849332Y-75260594D01*
X190937438Y-75290756D01*
X190969188Y-75354256D01*
X190939025Y-75400691D01*
X190848538Y-75416169D01*
X190765988Y-75424106D01*
X190721935Y-75467366D01*
X190707250Y-75555869D01*
X190717966Y-75637228D01*
X190750113Y-75678106D01*
X190791388Y-75693981D01*
X190863619Y-75697156D01*
X190955694Y-75729700D01*
X190994588Y-75805106D01*
X190954900Y-75882100D01*
X190904100Y-75907698D01*
X190831075Y-75916231D01*
X190764400Y-75906706D01*
X190677088Y-75830506D01*
X190629463Y-75747956D01*
X190545325Y-75732081D01*
X190428644Y-75755100D01*
X190389750Y-75824156D01*
X189930987Y-75824156D01*
X189934138Y-75800344D01*
X189921041Y-75719381D01*
X189881750Y-75647944D01*
X189831744Y-75596350D01*
X189784913Y-75562219D01*
X189784913Y-75551106D01*
X189853705Y-75501276D01*
X189894980Y-75434337D01*
X189908738Y-75350287D01*
X189896214Y-75260770D01*
X189858643Y-75177426D01*
X189796025Y-75100256D01*
X189711711Y-75038520D01*
X189609053Y-75001478D01*
X189488050Y-74989131D01*
X189409271Y-74994687D01*
X189338032Y-75011356D01*
X189233257Y-75060569D01*
X189167375Y-75123275D01*
X189132450Y-75173281D01*
X189095938Y-75281231D01*
X189115782Y-75337984D01*
X189175313Y-75387594D01*
X189262625Y-75416169D01*
X189322950Y-75396325D01*
X189367400Y-75336794D01*
X189376925Y-75317744D01*
X189418200Y-75279644D01*
X189507894Y-75260594D01*
X189596000Y-75290756D01*
X189627750Y-75354256D01*
X189597588Y-75400691D01*
X189507100Y-75416169D01*
X189424550Y-75424106D01*
X189380497Y-75467366D01*
X189365813Y-75555869D01*
X189376528Y-75637228D01*
X189408675Y-75678106D01*
X189449950Y-75693981D01*
X189522182Y-75697156D01*
X189614257Y-75729700D01*
X189653150Y-75805106D01*
X189613463Y-75882100D01*
X189562663Y-75907698D01*
X189489638Y-75916231D01*
X189422963Y-75906706D01*
X189335650Y-75830506D01*
X189288025Y-75747956D01*
X189203888Y-75732081D01*
X189087207Y-75755100D01*
X189048313Y-75824156D01*
X188535683Y-75824156D01*
X188535683Y-74476501D01*
X193661985Y-74476501D01*
G37*
%TO.C,kibuzzard-61E19404*%
G36*
X77071119Y-57390000D02*
G01*
X76330903Y-58500324D01*
X73268881Y-58500324D01*
X73268881Y-57776556D01*
X73781511Y-57776556D01*
X73841836Y-57871806D01*
X73854536Y-57882919D01*
X73894223Y-57913081D01*
X73976773Y-57954533D01*
X74065673Y-57979403D01*
X74160923Y-57987694D01*
X74267991Y-57974553D01*
X74362712Y-57935130D01*
X74445086Y-57869425D01*
X74508586Y-57785464D01*
X74546686Y-57691272D01*
X74559386Y-57586850D01*
X74545980Y-57482957D01*
X74505764Y-57390353D01*
X74438736Y-57309037D01*
X74354951Y-57245978D01*
X74264464Y-57208143D01*
X74167273Y-57195531D01*
X74111711Y-57198706D01*
X74127586Y-57078056D01*
X74405398Y-57078056D01*
X74456992Y-57075675D01*
X74495886Y-57060594D01*
X74525651Y-57021303D01*
X74535573Y-56944706D01*
X74532540Y-56920894D01*
X74622886Y-56920894D01*
X74646698Y-56997094D01*
X75084848Y-57886094D01*
X75138030Y-57942450D01*
X75213436Y-57963881D01*
X75229311Y-57963881D01*
X75303130Y-57942450D01*
X75356311Y-57886094D01*
X75794461Y-56997094D01*
X75818273Y-56920894D01*
X75794858Y-56867712D01*
X75724611Y-56819294D01*
X75630948Y-56792306D01*
X75561098Y-56835169D01*
X75538873Y-56882794D01*
X75221373Y-57578119D01*
X75204109Y-57541408D01*
X75165017Y-57456675D01*
X75113423Y-57344558D01*
X75058655Y-57225694D01*
X75004084Y-57106830D01*
X74953086Y-56994712D01*
X74913200Y-56907400D01*
X74891967Y-56862950D01*
X74865773Y-56820881D01*
X74838786Y-56798656D01*
X74796717Y-56792306D01*
X74716548Y-56819294D01*
X74646301Y-56867712D01*
X74622886Y-56920894D01*
X74532540Y-56920894D01*
X74524858Y-56860569D01*
X74492711Y-56817706D01*
X74451436Y-56802625D01*
X74395873Y-56800244D01*
X74246648Y-56800244D01*
X74005348Y-56798656D01*
X73941055Y-56813737D01*
X73899780Y-56847869D01*
X73876761Y-56890731D01*
X73865648Y-56924069D01*
X73856520Y-56989950D01*
X73832311Y-57168544D01*
X73808498Y-57349916D01*
X73800561Y-57424131D01*
X73818023Y-57463025D01*
X73891842Y-57511444D01*
X73991855Y-57541606D01*
X74078373Y-57505094D01*
X74154573Y-57476519D01*
X74239505Y-57507475D01*
X74276811Y-57591613D01*
X74242680Y-57674956D01*
X74137905Y-57705119D01*
X74038686Y-57671781D01*
X73932323Y-57620981D01*
X73840248Y-57673369D01*
X73781511Y-57776556D01*
X73268881Y-57776556D01*
X73268881Y-56279676D01*
X76330903Y-56279676D01*
X77071119Y-57390000D01*
G37*
%TD*%
M02*
