%TF.GenerationSoftware,KiCad,Pcbnew,(6.0.2-0)*%
%TF.CreationDate,2022-05-09T22:27:37+02:00*%
%TF.ProjectId,modelh,6d6f6465-6c68-42e6-9b69-6361645f7063,v0.1*%
%TF.SameCoordinates,PX3dc4fd0PY2cd02b0*%
%TF.FileFunction,Paste,Top*%
%TF.FilePolarity,Positive*%
%FSLAX46Y46*%
G04 Gerber Fmt 4.6, Leading zero omitted, Abs format (unit mm)*
G04 Created by KiCad (PCBNEW (6.0.2-0)) date 2022-05-09 22:27:37*
%MOMM*%
%LPD*%
G01*
G04 APERTURE LIST*
G04 Aperture macros list*
%AMRoundRect*
0 Rectangle with rounded corners*
0 $1 Rounding radius*
0 $2 $3 $4 $5 $6 $7 $8 $9 X,Y pos of 4 corners*
0 Add a 4 corners polygon primitive as box body*
4,1,4,$2,$3,$4,$5,$6,$7,$8,$9,$2,$3,0*
0 Add four circle primitives for the rounded corners*
1,1,$1+$1,$2,$3*
1,1,$1+$1,$4,$5*
1,1,$1+$1,$6,$7*
1,1,$1+$1,$8,$9*
0 Add four rect primitives between the rounded corners*
20,1,$1+$1,$2,$3,$4,$5,0*
20,1,$1+$1,$4,$5,$6,$7,0*
20,1,$1+$1,$6,$7,$8,$9,0*
20,1,$1+$1,$8,$9,$2,$3,0*%
G04 Aperture macros list end*
%ADD10RoundRect,0.218750X-0.256250X0.218750X-0.256250X-0.218750X0.256250X-0.218750X0.256250X0.218750X0*%
%ADD11R,1.500000X2.000000*%
%ADD12R,3.800000X2.000000*%
%ADD13RoundRect,0.218750X-0.218750X-0.256250X0.218750X-0.256250X0.218750X0.256250X-0.218750X0.256250X0*%
%ADD14RoundRect,0.218750X0.218750X0.256250X-0.218750X0.256250X-0.218750X-0.256250X0.218750X-0.256250X0*%
%ADD15RoundRect,0.147500X0.172500X-0.147500X0.172500X0.147500X-0.172500X0.147500X-0.172500X-0.147500X0*%
%ADD16RoundRect,0.147500X0.147500X0.172500X-0.147500X0.172500X-0.147500X-0.172500X0.147500X-0.172500X0*%
%ADD17R,2.750000X1.000000*%
%ADD18RoundRect,0.147500X-0.172500X0.147500X-0.172500X-0.147500X0.172500X-0.147500X0.172500X0.147500X0*%
%ADD19RoundRect,0.075000X0.521491X-0.415425X-0.415425X0.521491X-0.521491X0.415425X0.415425X-0.521491X0*%
%ADD20RoundRect,0.075000X0.521491X0.415425X0.415425X0.521491X-0.521491X-0.415425X-0.415425X-0.521491X0*%
%ADD21R,2.000000X2.400000*%
%ADD22RoundRect,0.243750X0.456250X-0.243750X0.456250X0.243750X-0.456250X0.243750X-0.456250X-0.243750X0*%
%ADD23RoundRect,0.250000X-0.450000X0.325000X-0.450000X-0.325000X0.450000X-0.325000X0.450000X0.325000X0*%
%ADD24RoundRect,0.243750X0.243750X0.456250X-0.243750X0.456250X-0.243750X-0.456250X0.243750X-0.456250X0*%
%ADD25RoundRect,0.147500X-0.147500X-0.172500X0.147500X-0.172500X0.147500X0.172500X-0.147500X0.172500X0*%
%ADD26RoundRect,0.243750X-0.456250X0.243750X-0.456250X-0.243750X0.456250X-0.243750X0.456250X0.243750X0*%
%ADD27RoundRect,0.200000X0.275000X-0.200000X0.275000X0.200000X-0.275000X0.200000X-0.275000X-0.200000X0*%
%ADD28R,0.600000X1.450000*%
%ADD29R,0.300000X1.450000*%
G04 APERTURE END LIST*
D10*
%TO.C,R3*%
X89030000Y-58892500D03*
X89030000Y-60467500D03*
%TD*%
%TO.C,C3*%
X82660000Y-71822500D03*
X82660000Y-73397500D03*
%TD*%
D11*
%TO.C,U2*%
X84860000Y-63490000D03*
D12*
X82560000Y-69790000D03*
D11*
X82560000Y-63490000D03*
X80260000Y-63490000D03*
%TD*%
D10*
%TO.C,R4*%
X87010000Y-58892500D03*
X87010000Y-60467500D03*
%TD*%
D13*
%TO.C,R5*%
X98332500Y-64940000D03*
X99907500Y-64940000D03*
%TD*%
D14*
%TO.C,R10*%
X99907500Y-63340000D03*
X98332500Y-63340000D03*
%TD*%
D10*
%TO.C,C5*%
X118520000Y-72452500D03*
X118520000Y-74027500D03*
%TD*%
D14*
%TO.C,R6*%
X115307500Y-74240000D03*
X113732500Y-74240000D03*
%TD*%
D15*
%TO.C,C10*%
X101870000Y-61325000D03*
X101870000Y-60355000D03*
%TD*%
D16*
%TO.C,C12*%
X108505000Y-69440000D03*
X107535000Y-69440000D03*
%TD*%
D17*
%TO.C,SW1*%
X97980000Y-82460000D03*
X103740000Y-82460000D03*
X103740000Y-78460000D03*
X97980000Y-78460000D03*
%TD*%
D16*
%TO.C,C2*%
X78040000Y-63240000D03*
X77070000Y-63240000D03*
%TD*%
D18*
%TO.C,C4*%
X84040000Y-72275000D03*
X84040000Y-73245000D03*
%TD*%
D19*
%TO.C,U1*%
X109268788Y-67877876D03*
X109622342Y-67524322D03*
X109975895Y-67170769D03*
X110329449Y-66817215D03*
X110683002Y-66463662D03*
X111036555Y-66110109D03*
X111390109Y-65756555D03*
X111743662Y-65403002D03*
X112097215Y-65049449D03*
X112450769Y-64695895D03*
X112804322Y-64342342D03*
X113157876Y-63988788D03*
D20*
X113157876Y-61991212D03*
X112804322Y-61637658D03*
X112450769Y-61284105D03*
X112097215Y-60930551D03*
X111743662Y-60576998D03*
X111390109Y-60223445D03*
X111036555Y-59869891D03*
X110683002Y-59516338D03*
X110329449Y-59162785D03*
X109975895Y-58809231D03*
X109622342Y-58455678D03*
X109268788Y-58102124D03*
D19*
X107271212Y-58102124D03*
X106917658Y-58455678D03*
X106564105Y-58809231D03*
X106210551Y-59162785D03*
X105856998Y-59516338D03*
X105503445Y-59869891D03*
X105149891Y-60223445D03*
X104796338Y-60576998D03*
X104442785Y-60930551D03*
X104089231Y-61284105D03*
X103735678Y-61637658D03*
X103382124Y-61991212D03*
D20*
X103382124Y-63988788D03*
X103735678Y-64342342D03*
X104089231Y-64695895D03*
X104442785Y-65049449D03*
X104796338Y-65403002D03*
X105149891Y-65756555D03*
X105503445Y-66110109D03*
X105856998Y-66463662D03*
X106210551Y-66817215D03*
X106564105Y-67170769D03*
X106917658Y-67524322D03*
X107271212Y-67877876D03*
%TD*%
D16*
%TO.C,C14*%
X106355000Y-69440000D03*
X105385000Y-69440000D03*
%TD*%
D10*
%TO.C,C6*%
X110520000Y-72452500D03*
X110520000Y-74027500D03*
%TD*%
D21*
%TO.C,Y1*%
X116370000Y-71490000D03*
X112670000Y-71490000D03*
%TD*%
D22*
%TO.C,LED2*%
X102940000Y-75917500D03*
X102940000Y-74042500D03*
%TD*%
D10*
%TO.C,R2*%
X100960000Y-74052500D03*
X100960000Y-75627500D03*
%TD*%
D14*
%TO.C,R17*%
X99907500Y-66540000D03*
X98332500Y-66540000D03*
%TD*%
%TO.C,R18*%
X99907500Y-61740000D03*
X98332500Y-61740000D03*
%TD*%
D18*
%TO.C,C9*%
X99500000Y-73815000D03*
X99500000Y-74785000D03*
%TD*%
D23*
%TO.C,R13*%
X196810000Y-57075000D03*
X196810000Y-59125000D03*
%TD*%
%TO.C,R12*%
X194270000Y-57050000D03*
X194270000Y-59100000D03*
%TD*%
%TO.C,R15*%
X201890000Y-57020000D03*
X201890000Y-59070000D03*
%TD*%
%TO.C,R14*%
X199350000Y-57075000D03*
X199350000Y-59125000D03*
%TD*%
D24*
%TO.C,R7*%
X191697500Y-60700000D03*
X189822500Y-60700000D03*
%TD*%
%TO.C,R8*%
X191697500Y-62730000D03*
X189822500Y-62730000D03*
%TD*%
%TO.C,R9*%
X191697500Y-64800000D03*
X189822500Y-64800000D03*
%TD*%
D25*
%TO.C,C13*%
X110385000Y-56740000D03*
X111355000Y-56740000D03*
%TD*%
D14*
%TO.C,C1*%
X77870000Y-61540000D03*
X76295000Y-61540000D03*
%TD*%
D26*
%TO.C,LED1*%
X69770000Y-50802500D03*
X69770000Y-52677500D03*
%TD*%
D13*
%TO.C,R1*%
X76282500Y-59740000D03*
X77857500Y-59740000D03*
%TD*%
D18*
%TO.C,C11*%
X113800000Y-65815000D03*
X113800000Y-66785000D03*
%TD*%
D27*
%TO.C,R16*%
X90800000Y-60505000D03*
X90800000Y-58855000D03*
%TD*%
D28*
%TO.C,USB_C1*%
X92045000Y-54965000D03*
X91245000Y-54965000D03*
D29*
X90045000Y-54965000D03*
X89045000Y-54965000D03*
X88545000Y-54965000D03*
X87545000Y-54965000D03*
D28*
X86345000Y-54965000D03*
X85545000Y-54965000D03*
X85545000Y-54965000D03*
X86345000Y-54965000D03*
D29*
X87045000Y-54965000D03*
X88045000Y-54965000D03*
X89545000Y-54965000D03*
X90545000Y-54965000D03*
D28*
X91245000Y-54965000D03*
X92045000Y-54965000D03*
%TD*%
D27*
%TO.C,R11*%
X92690000Y-60505000D03*
X92690000Y-58855000D03*
%TD*%
M02*
