G04 #@! TF.GenerationSoftware,KiCad,Pcbnew,(6.0.0-0)*
G04 #@! TF.CreationDate,2022-01-14T02:26:36+01:00*
G04 #@! TF.ProjectId,modelh,6d6f6465-6c68-42e6-9b69-6361645f7063,v0.1*
G04 #@! TF.SameCoordinates,Original*
G04 #@! TF.FileFunction,Paste,Top*
G04 #@! TF.FilePolarity,Positive*
%FSLAX46Y46*%
G04 Gerber Fmt 4.6, Leading zero omitted, Abs format (unit mm)*
G04 Created by KiCad (PCBNEW (6.0.0-0)) date 2022-01-14 02:26:36*
%MOMM*%
%LPD*%
G01*
G04 APERTURE LIST*
G04 Aperture macros list*
%AMRoundRect*
0 Rectangle with rounded corners*
0 $1 Rounding radius*
0 $2 $3 $4 $5 $6 $7 $8 $9 X,Y pos of 4 corners*
0 Add a 4 corners polygon primitive as box body*
4,1,4,$2,$3,$4,$5,$6,$7,$8,$9,$2,$3,0*
0 Add four circle primitives for the rounded corners*
1,1,$1+$1,$2,$3*
1,1,$1+$1,$4,$5*
1,1,$1+$1,$6,$7*
1,1,$1+$1,$8,$9*
0 Add four rect primitives between the rounded corners*
20,1,$1+$1,$2,$3,$4,$5,0*
20,1,$1+$1,$4,$5,$6,$7,0*
20,1,$1+$1,$6,$7,$8,$9,0*
20,1,$1+$1,$8,$9,$2,$3,0*%
G04 Aperture macros list end*
%ADD10RoundRect,0.218750X-0.256250X0.218750X-0.256250X-0.218750X0.256250X-0.218750X0.256250X0.218750X0*%
%ADD11RoundRect,0.218750X0.256250X-0.218750X0.256250X0.218750X-0.256250X0.218750X-0.256250X-0.218750X0*%
%ADD12R,1.500000X2.000000*%
%ADD13R,3.800000X2.000000*%
%ADD14RoundRect,0.218750X-0.218750X-0.256250X0.218750X-0.256250X0.218750X0.256250X-0.218750X0.256250X0*%
%ADD15RoundRect,0.218750X0.218750X0.256250X-0.218750X0.256250X-0.218750X-0.256250X0.218750X-0.256250X0*%
%ADD16RoundRect,0.147500X0.172500X-0.147500X0.172500X0.147500X-0.172500X0.147500X-0.172500X-0.147500X0*%
%ADD17RoundRect,0.147500X0.147500X0.172500X-0.147500X0.172500X-0.147500X-0.172500X0.147500X-0.172500X0*%
%ADD18R,2.750000X1.000000*%
%ADD19RoundRect,0.075000X0.521491X-0.415425X-0.415425X0.521491X-0.521491X0.415425X0.415425X-0.521491X0*%
%ADD20RoundRect,0.075000X0.521491X0.415425X0.415425X0.521491X-0.521491X-0.415425X-0.415425X-0.521491X0*%
%ADD21R,2.000000X2.400000*%
%ADD22RoundRect,0.243750X0.456250X-0.243750X0.456250X0.243750X-0.456250X0.243750X-0.456250X-0.243750X0*%
%ADD23RoundRect,0.147500X-0.172500X0.147500X-0.172500X-0.147500X0.172500X-0.147500X0.172500X0.147500X0*%
%ADD24RoundRect,0.250000X-0.450000X0.325000X-0.450000X-0.325000X0.450000X-0.325000X0.450000X0.325000X0*%
%ADD25RoundRect,0.243750X0.243750X0.456250X-0.243750X0.456250X-0.243750X-0.456250X0.243750X-0.456250X0*%
%ADD26RoundRect,0.147500X-0.147500X-0.172500X0.147500X-0.172500X0.147500X0.172500X-0.147500X0.172500X0*%
%ADD27RoundRect,0.243750X-0.456250X0.243750X-0.456250X-0.243750X0.456250X-0.243750X0.456250X0.243750X0*%
%ADD28R,0.600000X1.450000*%
%ADD29R,0.300000X1.450000*%
%ADD30RoundRect,0.200000X0.275000X-0.200000X0.275000X0.200000X-0.275000X0.200000X-0.275000X-0.200000X0*%
G04 APERTURE END LIST*
D10*
X90170000Y-58902500D03*
X90170000Y-60477500D03*
D11*
X87170000Y-68027500D03*
X87170000Y-66452500D03*
D12*
X84820000Y-64090000D03*
D13*
X82520000Y-70390000D03*
D12*
X82520000Y-64090000D03*
X80220000Y-64090000D03*
D10*
X87630000Y-58902500D03*
X87630000Y-60477500D03*
D14*
X98482500Y-66640000D03*
X100057500Y-66640000D03*
D15*
X100057500Y-65040000D03*
X98482500Y-65040000D03*
D10*
X118520000Y-72452500D03*
X118520000Y-74027500D03*
D15*
X115307500Y-74240000D03*
X113732500Y-74240000D03*
D16*
X101870000Y-61325000D03*
X101870000Y-60355000D03*
D17*
X108505000Y-69440000D03*
X107535000Y-69440000D03*
D18*
X97990000Y-82290000D03*
X103750000Y-82290000D03*
X103750000Y-78290000D03*
X97990000Y-78290000D03*
D17*
X78040000Y-63240000D03*
X77070000Y-63240000D03*
D16*
X88470000Y-67675000D03*
X88470000Y-66705000D03*
D19*
X109268788Y-67877876D03*
X109622342Y-67524322D03*
X109975895Y-67170769D03*
X110329449Y-66817215D03*
X110683002Y-66463662D03*
X111036555Y-66110109D03*
X111390109Y-65756555D03*
X111743662Y-65403002D03*
X112097215Y-65049449D03*
X112450769Y-64695895D03*
X112804322Y-64342342D03*
X113157876Y-63988788D03*
D20*
X113157876Y-61991212D03*
X112804322Y-61637658D03*
X112450769Y-61284105D03*
X112097215Y-60930551D03*
X111743662Y-60576998D03*
X111390109Y-60223445D03*
X111036555Y-59869891D03*
X110683002Y-59516338D03*
X110329449Y-59162785D03*
X109975895Y-58809231D03*
X109622342Y-58455678D03*
X109268788Y-58102124D03*
D19*
X107271212Y-58102124D03*
X106917658Y-58455678D03*
X106564105Y-58809231D03*
X106210551Y-59162785D03*
X105856998Y-59516338D03*
X105503445Y-59869891D03*
X105149891Y-60223445D03*
X104796338Y-60576998D03*
X104442785Y-60930551D03*
X104089231Y-61284105D03*
X103735678Y-61637658D03*
X103382124Y-61991212D03*
D20*
X103382124Y-63988788D03*
X103735678Y-64342342D03*
X104089231Y-64695895D03*
X104442785Y-65049449D03*
X104796338Y-65403002D03*
X105149891Y-65756555D03*
X105503445Y-66110109D03*
X105856998Y-66463662D03*
X106210551Y-66817215D03*
X106564105Y-67170769D03*
X106917658Y-67524322D03*
X107271212Y-67877876D03*
D17*
X106355000Y-69440000D03*
X105385000Y-69440000D03*
D10*
X110520000Y-72452500D03*
X110520000Y-74027500D03*
D21*
X116370000Y-71490000D03*
X112670000Y-71490000D03*
D22*
X102770000Y-75077500D03*
X102770000Y-73202500D03*
D10*
X100970000Y-73152500D03*
X100970000Y-74727500D03*
D15*
X100057500Y-68240000D03*
X98482500Y-68240000D03*
X100057500Y-63440000D03*
X98482500Y-63440000D03*
D23*
X99470000Y-72905000D03*
X99470000Y-73875000D03*
D24*
X196850000Y-58865000D03*
X196850000Y-56815000D03*
X194310000Y-58840000D03*
X194310000Y-56790000D03*
X201930000Y-58810000D03*
X201930000Y-56760000D03*
X199390000Y-56815000D03*
X199390000Y-58865000D03*
D25*
X191737500Y-60440000D03*
X189862500Y-60440000D03*
X191737500Y-62470000D03*
X189862500Y-62470000D03*
X191737500Y-64540000D03*
X189862500Y-64540000D03*
D26*
X110385000Y-56740000D03*
X111355000Y-56740000D03*
D15*
X77870000Y-61540000D03*
X76295000Y-61540000D03*
D27*
X69770000Y-50802500D03*
X69770000Y-52677500D03*
D14*
X76282500Y-59740000D03*
X77857500Y-59740000D03*
D23*
X113800000Y-65815000D03*
X113800000Y-66785000D03*
D28*
X92020000Y-54585000D03*
X91220000Y-54585000D03*
D29*
X90020000Y-54585000D03*
X89020000Y-54585000D03*
X88520000Y-54585000D03*
X87520000Y-54585000D03*
D28*
X86320000Y-54585000D03*
X85520000Y-54585000D03*
X85520000Y-54585000D03*
X86320000Y-54585000D03*
D29*
X87020000Y-54585000D03*
X88020000Y-54585000D03*
X89520000Y-54585000D03*
X90520000Y-54585000D03*
D28*
X91220000Y-54585000D03*
X92020000Y-54585000D03*
D30*
X92670000Y-60415000D03*
X92670000Y-58765000D03*
M02*
