G04 #@! TF.GenerationSoftware,KiCad,Pcbnew,(6.0.0-0)*
G04 #@! TF.CreationDate,2022-01-14T02:26:36+01:00*
G04 #@! TF.ProjectId,modelh,6d6f6465-6c68-42e6-9b69-6361645f7063,v0.1*
G04 #@! TF.SameCoordinates,Original*
G04 #@! TF.FileFunction,Copper,L1,Top*
G04 #@! TF.FilePolarity,Positive*
%FSLAX46Y46*%
G04 Gerber Fmt 4.6, Leading zero omitted, Abs format (unit mm)*
G04 Created by KiCad (PCBNEW (6.0.0-0)) date 2022-01-14 02:26:36*
%MOMM*%
%LPD*%
G01*
G04 APERTURE LIST*
G04 Aperture macros list*
%AMRoundRect*
0 Rectangle with rounded corners*
0 $1 Rounding radius*
0 $2 $3 $4 $5 $6 $7 $8 $9 X,Y pos of 4 corners*
0 Add a 4 corners polygon primitive as box body*
4,1,4,$2,$3,$4,$5,$6,$7,$8,$9,$2,$3,0*
0 Add four circle primitives for the rounded corners*
1,1,$1+$1,$2,$3*
1,1,$1+$1,$4,$5*
1,1,$1+$1,$6,$7*
1,1,$1+$1,$8,$9*
0 Add four rect primitives between the rounded corners*
20,1,$1+$1,$2,$3,$4,$5,0*
20,1,$1+$1,$4,$5,$6,$7,0*
20,1,$1+$1,$6,$7,$8,$9,0*
20,1,$1+$1,$8,$9,$2,$3,0*%
G04 Aperture macros list end*
G04 #@! TA.AperFunction,ComponentPad*
%ADD10C,2.000000*%
G04 #@! TD*
G04 #@! TA.AperFunction,SMDPad,CuDef*
%ADD11RoundRect,0.218750X-0.256250X0.218750X-0.256250X-0.218750X0.256250X-0.218750X0.256250X0.218750X0*%
G04 #@! TD*
G04 #@! TA.AperFunction,SMDPad,CuDef*
%ADD12RoundRect,0.218750X0.256250X-0.218750X0.256250X0.218750X-0.256250X0.218750X-0.256250X-0.218750X0*%
G04 #@! TD*
G04 #@! TA.AperFunction,SMDPad,CuDef*
%ADD13R,1.500000X2.000000*%
G04 #@! TD*
G04 #@! TA.AperFunction,SMDPad,CuDef*
%ADD14R,3.800000X2.000000*%
G04 #@! TD*
G04 #@! TA.AperFunction,SMDPad,CuDef*
%ADD15RoundRect,0.218750X-0.218750X-0.256250X0.218750X-0.256250X0.218750X0.256250X-0.218750X0.256250X0*%
G04 #@! TD*
G04 #@! TA.AperFunction,SMDPad,CuDef*
%ADD16RoundRect,0.218750X0.218750X0.256250X-0.218750X0.256250X-0.218750X-0.256250X0.218750X-0.256250X0*%
G04 #@! TD*
G04 #@! TA.AperFunction,ComponentPad*
%ADD17R,1.727200X1.727200*%
G04 #@! TD*
G04 #@! TA.AperFunction,ComponentPad*
%ADD18O,1.727200X1.727200*%
G04 #@! TD*
G04 #@! TA.AperFunction,SMDPad,CuDef*
%ADD19RoundRect,0.147500X0.172500X-0.147500X0.172500X0.147500X-0.172500X0.147500X-0.172500X-0.147500X0*%
G04 #@! TD*
G04 #@! TA.AperFunction,SMDPad,CuDef*
%ADD20RoundRect,0.147500X0.147500X0.172500X-0.147500X0.172500X-0.147500X-0.172500X0.147500X-0.172500X0*%
G04 #@! TD*
G04 #@! TA.AperFunction,SMDPad,CuDef*
%ADD21R,2.750000X1.000000*%
G04 #@! TD*
G04 #@! TA.AperFunction,ComponentPad*
%ADD22R,1.700000X1.700000*%
G04 #@! TD*
G04 #@! TA.AperFunction,ComponentPad*
%ADD23O,1.700000X1.700000*%
G04 #@! TD*
G04 #@! TA.AperFunction,SMDPad,CuDef*
%ADD24RoundRect,0.075000X0.521491X-0.415425X-0.415425X0.521491X-0.521491X0.415425X0.415425X-0.521491X0*%
G04 #@! TD*
G04 #@! TA.AperFunction,SMDPad,CuDef*
%ADD25RoundRect,0.075000X0.521491X0.415425X0.415425X0.521491X-0.521491X-0.415425X-0.415425X-0.521491X0*%
G04 #@! TD*
G04 #@! TA.AperFunction,ComponentPad*
%ADD26C,1.700000*%
G04 #@! TD*
G04 #@! TA.AperFunction,SMDPad,CuDef*
%ADD27R,2.000000X2.400000*%
G04 #@! TD*
G04 #@! TA.AperFunction,SMDPad,CuDef*
%ADD28RoundRect,0.243750X0.456250X-0.243750X0.456250X0.243750X-0.456250X0.243750X-0.456250X-0.243750X0*%
G04 #@! TD*
G04 #@! TA.AperFunction,SMDPad,CuDef*
%ADD29RoundRect,0.147500X-0.172500X0.147500X-0.172500X-0.147500X0.172500X-0.147500X0.172500X0.147500X0*%
G04 #@! TD*
G04 #@! TA.AperFunction,SMDPad,CuDef*
%ADD30RoundRect,0.250000X-0.450000X0.325000X-0.450000X-0.325000X0.450000X-0.325000X0.450000X0.325000X0*%
G04 #@! TD*
G04 #@! TA.AperFunction,SMDPad,CuDef*
%ADD31RoundRect,0.243750X0.243750X0.456250X-0.243750X0.456250X-0.243750X-0.456250X0.243750X-0.456250X0*%
G04 #@! TD*
G04 #@! TA.AperFunction,SMDPad,CuDef*
%ADD32RoundRect,0.147500X-0.147500X-0.172500X0.147500X-0.172500X0.147500X0.172500X-0.147500X0.172500X0*%
G04 #@! TD*
G04 #@! TA.AperFunction,SMDPad,CuDef*
%ADD33RoundRect,0.243750X-0.456250X0.243750X-0.456250X-0.243750X0.456250X-0.243750X0.456250X0.243750X0*%
G04 #@! TD*
G04 #@! TA.AperFunction,SMDPad,CuDef*
%ADD34R,0.600000X1.450000*%
G04 #@! TD*
G04 #@! TA.AperFunction,SMDPad,CuDef*
%ADD35R,0.300000X1.450000*%
G04 #@! TD*
G04 #@! TA.AperFunction,ComponentPad*
%ADD36O,1.000000X1.600000*%
G04 #@! TD*
G04 #@! TA.AperFunction,ComponentPad*
%ADD37O,1.000000X2.100000*%
G04 #@! TD*
G04 #@! TA.AperFunction,SMDPad,CuDef*
%ADD38RoundRect,0.200000X0.275000X-0.200000X0.275000X0.200000X-0.275000X0.200000X-0.275000X-0.200000X0*%
G04 #@! TD*
G04 #@! TA.AperFunction,ViaPad*
%ADD39C,0.800000*%
G04 #@! TD*
G04 #@! TA.AperFunction,ViaPad*
%ADD40C,0.600000*%
G04 #@! TD*
G04 #@! TA.AperFunction,Conductor*
%ADD41C,0.500000*%
G04 #@! TD*
G04 #@! TA.AperFunction,Conductor*
%ADD42C,0.250000*%
G04 #@! TD*
G04 #@! TA.AperFunction,Conductor*
%ADD43C,0.800000*%
G04 #@! TD*
G04 #@! TA.AperFunction,Conductor*
%ADD44C,1.000000*%
G04 #@! TD*
G04 #@! TA.AperFunction,Conductor*
%ADD45C,0.300000*%
G04 #@! TD*
G04 #@! TA.AperFunction,Conductor*
%ADD46C,0.200000*%
G04 #@! TD*
G04 APERTURE END LIST*
D10*
X208750000Y-60920000D03*
X208750000Y-58380000D03*
X208750000Y-55840000D03*
X208750000Y-53300000D03*
X201930000Y-51000000D03*
X199390000Y-51000000D03*
X196850000Y-51000000D03*
X194310000Y-51000000D03*
X191770000Y-51000000D03*
X189230000Y-51000000D03*
X186690000Y-51000000D03*
X184150000Y-51000000D03*
X181610000Y-51000000D03*
X179070000Y-51000000D03*
X176530000Y-51000000D03*
X173990000Y-51000000D03*
X154800000Y-51000000D03*
X152260000Y-51000000D03*
X149720000Y-51000000D03*
X147180000Y-51000000D03*
X144640000Y-51000000D03*
X142100000Y-51000000D03*
X139560000Y-51000000D03*
X137020000Y-51000000D03*
X134480000Y-51000000D03*
X131940000Y-51000000D03*
X129400000Y-51000000D03*
X126860000Y-51000000D03*
X124320000Y-51000000D03*
X121780000Y-51000000D03*
X119240000Y-51000000D03*
X116700000Y-51000000D03*
D11*
X90170000Y-58902500D03*
X90170000Y-60477500D03*
D12*
X87170000Y-68027500D03*
X87170000Y-66452500D03*
D13*
X84820000Y-64090000D03*
D14*
X82520000Y-70390000D03*
D13*
X82520000Y-64090000D03*
X80220000Y-64090000D03*
D11*
X87630000Y-58902500D03*
X87630000Y-60477500D03*
D15*
X98482500Y-66640000D03*
X100057500Y-66640000D03*
D16*
X100057500Y-65040000D03*
X98482500Y-65040000D03*
D17*
X79770000Y-80140000D03*
D18*
X79770000Y-77600000D03*
X82310000Y-80140000D03*
X82310000Y-77600000D03*
X84850000Y-80140000D03*
X84850000Y-77600000D03*
X87390000Y-80140000D03*
X87390000Y-77600000D03*
X89930000Y-80140000D03*
X89930000Y-77600000D03*
D11*
X118520000Y-72452500D03*
X118520000Y-74027500D03*
D16*
X115307500Y-74240000D03*
X113732500Y-74240000D03*
D19*
X101870000Y-61325000D03*
X101870000Y-60355000D03*
D20*
X108505000Y-69440000D03*
X107535000Y-69440000D03*
D21*
X97990000Y-82290000D03*
X103750000Y-82290000D03*
X103750000Y-78290000D03*
X97990000Y-78290000D03*
D22*
X95610000Y-70340000D03*
X93070000Y-70340000D03*
D23*
X95610000Y-67800000D03*
X93070000Y-67800000D03*
X95610000Y-65260000D03*
X93070000Y-65260000D03*
D20*
X78040000Y-63240000D03*
X77070000Y-63240000D03*
D19*
X88470000Y-67675000D03*
X88470000Y-66705000D03*
D24*
X109268788Y-67877876D03*
X109622342Y-67524322D03*
X109975895Y-67170769D03*
X110329449Y-66817215D03*
X110683002Y-66463662D03*
X111036555Y-66110109D03*
X111390109Y-65756555D03*
X111743662Y-65403002D03*
X112097215Y-65049449D03*
X112450769Y-64695895D03*
X112804322Y-64342342D03*
X113157876Y-63988788D03*
D25*
X113157876Y-61991212D03*
X112804322Y-61637658D03*
X112450769Y-61284105D03*
X112097215Y-60930551D03*
X111743662Y-60576998D03*
X111390109Y-60223445D03*
X111036555Y-59869891D03*
X110683002Y-59516338D03*
X110329449Y-59162785D03*
X109975895Y-58809231D03*
X109622342Y-58455678D03*
X109268788Y-58102124D03*
D24*
X107271212Y-58102124D03*
X106917658Y-58455678D03*
X106564105Y-58809231D03*
X106210551Y-59162785D03*
X105856998Y-59516338D03*
X105503445Y-59869891D03*
X105149891Y-60223445D03*
X104796338Y-60576998D03*
X104442785Y-60930551D03*
X104089231Y-61284105D03*
X103735678Y-61637658D03*
X103382124Y-61991212D03*
D25*
X103382124Y-63988788D03*
X103735678Y-64342342D03*
X104089231Y-64695895D03*
X104442785Y-65049449D03*
X104796338Y-65403002D03*
X105149891Y-65756555D03*
X105503445Y-66110109D03*
X105856998Y-66463662D03*
X106210551Y-66817215D03*
X106564105Y-67170769D03*
X106917658Y-67524322D03*
X107271212Y-67877876D03*
D20*
X106355000Y-69440000D03*
X105385000Y-69440000D03*
D26*
X204170000Y-67940000D03*
D23*
X204170000Y-70480000D03*
X204170000Y-73020000D03*
X204170000Y-75560000D03*
X204170000Y-78100000D03*
D11*
X110520000Y-72452500D03*
X110520000Y-74027500D03*
D26*
X200070000Y-67940000D03*
D23*
X200070000Y-70480000D03*
X200070000Y-73020000D03*
X200070000Y-75560000D03*
X200070000Y-78100000D03*
D26*
X196370000Y-67940000D03*
D23*
X196370000Y-70480000D03*
X196370000Y-73020000D03*
X196370000Y-75560000D03*
X196370000Y-78100000D03*
D27*
X116370000Y-71490000D03*
X112670000Y-71490000D03*
D28*
X102770000Y-75077500D03*
X102770000Y-73202500D03*
D11*
X100970000Y-73152500D03*
X100970000Y-74727500D03*
D16*
X100057500Y-68240000D03*
X98482500Y-68240000D03*
X100057500Y-63440000D03*
X98482500Y-63440000D03*
D29*
X99470000Y-72905000D03*
X99470000Y-73875000D03*
D30*
X196850000Y-58865000D03*
X196850000Y-56815000D03*
X194310000Y-58840000D03*
X194310000Y-56790000D03*
X201930000Y-58810000D03*
X201930000Y-56760000D03*
X199390000Y-56815000D03*
X199390000Y-58865000D03*
D31*
X191737500Y-60440000D03*
X189862500Y-60440000D03*
X191737500Y-62470000D03*
X189862500Y-62470000D03*
X191737500Y-64540000D03*
X189862500Y-64540000D03*
D32*
X110385000Y-56740000D03*
X111355000Y-56740000D03*
D26*
X78670000Y-57340000D03*
D16*
X77870000Y-61540000D03*
X76295000Y-61540000D03*
D33*
X69770000Y-50802500D03*
X69770000Y-52677500D03*
D15*
X76282500Y-59740000D03*
X77857500Y-59740000D03*
D29*
X113800000Y-65815000D03*
X113800000Y-66785000D03*
D34*
X92020000Y-54585000D03*
X91220000Y-54585000D03*
D35*
X90020000Y-54585000D03*
X89020000Y-54585000D03*
X88520000Y-54585000D03*
X87520000Y-54585000D03*
D34*
X86320000Y-54585000D03*
X85520000Y-54585000D03*
X85520000Y-54585000D03*
X86320000Y-54585000D03*
D35*
X87020000Y-54585000D03*
X88020000Y-54585000D03*
X89520000Y-54585000D03*
X90520000Y-54585000D03*
D34*
X91220000Y-54585000D03*
X92020000Y-54585000D03*
D36*
X84450000Y-49490000D03*
D37*
X84450000Y-53670000D03*
X93090000Y-53670000D03*
D36*
X93090000Y-49490000D03*
D38*
X92670000Y-60415000D03*
X92670000Y-58765000D03*
D39*
X102270000Y-69110000D03*
X138000000Y-69000000D03*
X136000000Y-69000000D03*
X134000000Y-69000000D03*
X130000000Y-69000000D03*
X132000000Y-69000000D03*
X148000000Y-69000000D03*
X146000000Y-69000000D03*
X150000000Y-69000000D03*
X158000000Y-69000000D03*
X156000000Y-69000000D03*
X152000000Y-69000000D03*
X154000000Y-69000000D03*
X144000000Y-69000000D03*
X140000000Y-69000000D03*
X142000000Y-69000000D03*
X178000000Y-69000000D03*
X170000000Y-69000000D03*
X176000000Y-69000000D03*
X164000000Y-69000000D03*
X172000000Y-69000000D03*
X174000000Y-69000000D03*
X166000000Y-69000000D03*
X168000000Y-69000000D03*
X162000000Y-69000000D03*
X160000000Y-69000000D03*
X148000000Y-83000000D03*
X170000000Y-83000000D03*
X154000000Y-83000000D03*
X168000000Y-83000000D03*
X156000000Y-83000000D03*
X116000000Y-83000000D03*
X162000000Y-83000000D03*
X166000000Y-83000000D03*
X160000000Y-83000000D03*
X114000000Y-83000000D03*
X152000000Y-83000000D03*
X150000000Y-83000000D03*
X164000000Y-83000000D03*
X158000000Y-83000000D03*
X172000000Y-83000000D03*
X118000000Y-83000000D03*
X146000000Y-83000000D03*
X138000000Y-83000000D03*
X144000000Y-83000000D03*
X132000000Y-83000000D03*
X140000000Y-83000000D03*
X126000000Y-83000000D03*
X142000000Y-83000000D03*
X174000000Y-83000000D03*
X134000000Y-83000000D03*
X124000000Y-83000000D03*
X120000000Y-83000000D03*
X122000000Y-83000000D03*
X136000000Y-83000000D03*
X130000000Y-83000000D03*
X128000000Y-83000000D03*
X112000000Y-83000000D03*
X176000000Y-83000000D03*
X108000000Y-83000000D03*
X110000000Y-83000000D03*
X178000000Y-83000000D03*
X182000000Y-83000000D03*
X186000000Y-83000000D03*
X190000000Y-83000000D03*
X184000000Y-83000000D03*
X194000000Y-83000000D03*
X192000000Y-83000000D03*
X188000000Y-83000000D03*
X180000000Y-83000000D03*
X211000000Y-49000000D03*
X199000000Y-49000000D03*
X207000000Y-49000000D03*
X203000000Y-49000000D03*
X209000000Y-49000000D03*
X205000000Y-49000000D03*
X201000000Y-49000000D03*
X195000000Y-49000000D03*
X193000000Y-49000000D03*
X197000000Y-49000000D03*
X181000000Y-49000000D03*
X177000000Y-49000000D03*
X185000000Y-49000000D03*
X183000000Y-49000000D03*
X187000000Y-49000000D03*
X179000000Y-49000000D03*
X191000000Y-49000000D03*
X175000000Y-49000000D03*
X189000000Y-49000000D03*
X173000000Y-49000000D03*
X171000000Y-49000000D03*
X167000000Y-49000000D03*
X163000000Y-49000000D03*
X159000000Y-49000000D03*
X153000000Y-49000000D03*
X161000000Y-49000000D03*
X155000000Y-49000000D03*
X157000000Y-49000000D03*
X169000000Y-49000000D03*
X165000000Y-49000000D03*
X143000000Y-49000000D03*
X151000000Y-49000000D03*
X133000000Y-49000000D03*
X145000000Y-49000000D03*
X139000000Y-49000000D03*
X149000000Y-49000000D03*
X141000000Y-49000000D03*
X135000000Y-49000000D03*
X147000000Y-49000000D03*
X137000000Y-49000000D03*
X113000000Y-49000000D03*
X131000000Y-49000000D03*
X115000000Y-49000000D03*
X123000000Y-49000000D03*
X117000000Y-49000000D03*
X127000000Y-49000000D03*
X121000000Y-49000000D03*
X129000000Y-49000000D03*
X119000000Y-49000000D03*
X125000000Y-49000000D03*
X67000000Y-81000000D03*
X67000000Y-79000000D03*
X89000000Y-83000000D03*
X180000000Y-69000000D03*
X86870000Y-64440000D03*
X95000000Y-49000000D03*
X67000000Y-77000000D03*
X67000000Y-61000000D03*
X183970000Y-81000000D03*
X71000000Y-83000000D03*
X77000000Y-49000000D03*
X83000000Y-49000000D03*
X186000000Y-69000000D03*
X86870000Y-63440000D03*
X103270000Y-69110010D03*
X205000000Y-53000000D03*
X151000000Y-59000000D03*
X122000000Y-69000000D03*
X67000000Y-55000000D03*
X128000000Y-69000000D03*
X201000000Y-65000000D03*
X71000000Y-49000000D03*
X198000000Y-83000000D03*
X157000000Y-59000000D03*
X213000000Y-71000000D03*
X213000000Y-59000000D03*
X117800000Y-66700000D03*
X67000000Y-75000000D03*
X213000000Y-79000000D03*
X81000000Y-49000000D03*
X213000000Y-73000000D03*
X97000000Y-49000000D03*
X213000000Y-63000000D03*
X87870000Y-64440000D03*
X98250000Y-76000000D03*
X87870000Y-63440000D03*
X67000000Y-65000000D03*
X98250000Y-74500000D03*
X67000000Y-67000000D03*
X67000000Y-69000000D03*
X115570000Y-77140000D03*
X213000000Y-57000000D03*
X109000000Y-49000000D03*
X124000000Y-69000000D03*
X196000000Y-83000000D03*
X81000000Y-83000000D03*
X213000000Y-65000000D03*
X203000000Y-65000000D03*
X100670000Y-60459990D03*
X120000000Y-69000000D03*
X107794990Y-68540000D03*
X126000000Y-81000000D03*
X79000000Y-49000000D03*
X126000000Y-79000000D03*
X108700000Y-59900004D03*
X67000000Y-51000000D03*
X79000000Y-83000000D03*
X213000000Y-69000000D03*
X126000000Y-75000000D03*
X96500000Y-74500000D03*
X213000000Y-53000000D03*
X83000000Y-83000000D03*
X103000000Y-49000000D03*
X205000000Y-55000000D03*
X108000000Y-73750000D03*
X126000000Y-73000000D03*
X208000000Y-83000000D03*
X213000000Y-61000000D03*
X202000000Y-83000000D03*
X116700000Y-66700000D03*
X114570000Y-77140000D03*
X84170000Y-56490000D03*
X92270000Y-56190000D03*
X106000000Y-83000000D03*
X213000000Y-77000000D03*
X161000000Y-59000000D03*
X85000000Y-83000000D03*
X197000000Y-65000000D03*
X213000000Y-55000000D03*
X107000000Y-49000000D03*
X88870000Y-64440000D03*
X77370000Y-65940000D03*
X183970000Y-71000000D03*
X149000000Y-59000000D03*
X155000000Y-59000000D03*
X159000000Y-59000000D03*
X183970000Y-73000000D03*
X115570000Y-66690000D03*
X67000000Y-57000000D03*
X182000000Y-69000000D03*
X184000000Y-69000000D03*
X75000000Y-49000000D03*
X88870000Y-63440000D03*
X85870000Y-50390000D03*
X126000000Y-71000000D03*
X126000000Y-69000000D03*
X188000000Y-69000000D03*
X101000000Y-49000000D03*
X111000000Y-49000000D03*
X67000000Y-53000000D03*
X96500000Y-76000000D03*
X76370000Y-64340000D03*
X213000000Y-67000000D03*
X199000000Y-65000000D03*
X91000000Y-83000000D03*
X73000000Y-83000000D03*
X87000000Y-83000000D03*
X206000000Y-83000000D03*
X126000000Y-77000000D03*
X183970000Y-75000000D03*
X76370000Y-65440000D03*
X205000000Y-65000000D03*
X77000000Y-83000000D03*
X183970000Y-77000000D03*
X104270000Y-69110010D03*
X69000000Y-83000000D03*
X99000000Y-49000000D03*
X200000000Y-83000000D03*
X204000000Y-83000000D03*
X77370000Y-64840000D03*
X213000000Y-51000000D03*
X67000000Y-59000000D03*
X213000000Y-75000000D03*
X163000000Y-59000000D03*
X91670000Y-50390000D03*
X190000000Y-69000000D03*
X104500000Y-73750000D03*
X67000000Y-63000000D03*
X153000000Y-59000000D03*
X73000000Y-49000000D03*
X69000000Y-49000000D03*
X108000000Y-60600000D03*
X93000000Y-83000000D03*
X205000000Y-51000000D03*
X106250000Y-73750000D03*
X105000000Y-49000000D03*
X113570000Y-77140000D03*
X183970000Y-79000000D03*
X91470000Y-58390000D03*
X84820000Y-57540000D03*
X194170000Y-62440000D03*
X199470000Y-61440000D03*
X194157340Y-61427340D03*
X199470000Y-60440000D03*
X194170161Y-60427411D03*
X109370000Y-70140000D03*
X114770000Y-65439499D03*
X115720000Y-65440000D03*
X109370000Y-68990000D03*
D40*
X108520000Y-71540004D03*
X109528158Y-65366699D03*
X107770000Y-62140000D03*
X117670000Y-62140000D03*
X106970000Y-62140000D03*
X118470000Y-62140000D03*
X108570000Y-62140000D03*
X116870000Y-62140000D03*
X109370000Y-62140000D03*
X116070000Y-62140000D03*
X110170000Y-62140000D03*
X115270000Y-62140000D03*
X101270000Y-67215000D03*
X98020000Y-72490000D03*
X89800000Y-66300000D03*
X89200000Y-69300000D03*
D39*
X89570000Y-57190000D03*
X92470000Y-57190000D03*
D40*
X120470000Y-65340000D03*
X108670000Y-65340000D03*
D39*
X188590000Y-60420000D03*
D40*
X107870000Y-65340000D03*
D39*
X188540000Y-62470000D03*
D40*
X121270000Y-65340000D03*
X122170000Y-65290000D03*
D39*
X188570000Y-64540000D03*
D40*
X107028051Y-65298051D03*
X107400000Y-61400000D03*
X102100000Y-62700000D03*
D39*
X93870000Y-57890000D03*
X93870000Y-54890000D03*
D41*
X84170000Y-56490000D02*
X84770000Y-56490000D01*
X84770000Y-56490000D02*
X85520000Y-55740000D01*
X85520000Y-55740000D02*
X85520000Y-54585000D01*
X91470000Y-58390000D02*
X91470000Y-56664614D01*
X91470000Y-56664614D02*
X91220000Y-56414614D01*
X91220000Y-56414614D02*
X91220000Y-54235000D01*
X76282500Y-59740000D02*
X75720000Y-59740000D01*
X75720000Y-59740000D02*
X75170000Y-60290000D01*
X75170000Y-60290000D02*
X75170000Y-65940000D01*
X75170000Y-65940000D02*
X79620000Y-70390000D01*
X92710000Y-60477500D02*
X90170000Y-60477500D01*
X114570000Y-75740000D02*
X114570000Y-77140000D01*
X111795000Y-75740000D02*
X114570000Y-75740000D01*
D42*
X111355000Y-56758232D02*
X111355000Y-56740000D01*
X109622342Y-58455678D02*
X108700000Y-59378020D01*
D41*
X107535000Y-69490000D02*
X107535000Y-68799990D01*
D43*
X87170000Y-66452500D02*
X87170000Y-64990000D01*
D42*
X108700000Y-59378020D02*
X108700000Y-59900004D01*
D41*
X118520000Y-74465000D02*
X117245000Y-75740000D01*
X87630000Y-60477500D02*
X87630000Y-61280000D01*
X118520000Y-74027500D02*
X118520000Y-74465000D01*
X77070000Y-63240000D02*
X77070000Y-63640000D01*
D42*
X113125660Y-66785000D02*
X113800000Y-66785000D01*
X105385000Y-69056980D02*
X105385000Y-69240000D01*
X111743662Y-65403002D02*
X113125660Y-66785000D01*
D41*
X110520000Y-74465000D02*
X111795000Y-75740000D01*
D42*
X106917658Y-67524322D02*
X105385000Y-69056980D01*
D41*
X87630000Y-61280000D02*
X84820000Y-64090000D01*
X100774990Y-60355000D02*
X100670000Y-60459990D01*
D42*
X109657554Y-58455678D02*
X111355000Y-56758232D01*
X103735678Y-61637658D02*
X102453020Y-60355000D01*
X102453020Y-60355000D02*
X101870000Y-60355000D01*
X109622342Y-58455678D02*
X109657554Y-58455678D01*
D41*
X110520000Y-74027500D02*
X110520000Y-74465000D01*
X107535000Y-68799990D02*
X107794990Y-68540000D01*
X114570000Y-75740000D02*
X117245000Y-75740000D01*
X92020000Y-55940000D02*
X92020000Y-54585000D01*
X76295000Y-64265000D02*
X76370000Y-64340000D01*
X87630000Y-60477500D02*
X90170000Y-60477500D01*
X77070000Y-63640000D02*
X76370000Y-64340000D01*
X92270000Y-56190000D02*
X92020000Y-55940000D01*
X101870000Y-60355000D02*
X100774990Y-60355000D01*
X76295000Y-61540000D02*
X76295000Y-64265000D01*
X86320000Y-56040000D02*
X86320000Y-54235000D01*
D44*
X79570000Y-61240000D02*
X78170000Y-61240000D01*
X83245000Y-59115000D02*
X83245000Y-61240000D01*
X77870000Y-62015000D02*
X78065010Y-62210010D01*
X78065010Y-63685010D02*
X78470000Y-64090000D01*
D41*
X84820000Y-57540000D02*
X86320000Y-56040000D01*
D43*
X79570000Y-58240000D02*
X78670000Y-57340000D01*
D44*
X78065010Y-62210010D02*
X78065010Y-63685010D01*
X78170000Y-61240000D02*
X77870000Y-61540000D01*
X78470000Y-64090000D02*
X80220000Y-64090000D01*
X83245000Y-61240000D02*
X79570000Y-61240000D01*
D43*
X79570000Y-61240000D02*
X79570000Y-58240000D01*
D44*
X77870000Y-61540000D02*
X77870000Y-62015000D01*
X84820000Y-57540000D02*
X83245000Y-59115000D01*
D42*
X192670000Y-64540000D02*
X194170000Y-63040000D01*
X194870000Y-62440000D02*
X195370000Y-61940000D01*
X194170000Y-63040000D02*
X194170000Y-62440000D01*
X194370000Y-59415000D02*
X194370000Y-58840000D01*
X195370000Y-61940000D02*
X195370000Y-60415000D01*
X191737500Y-64540000D02*
X192670000Y-64540000D01*
X195370000Y-60415000D02*
X194370000Y-59415000D01*
X194170000Y-62440000D02*
X194870000Y-62440000D01*
X198370000Y-59265000D02*
X198770000Y-58865000D01*
X198904315Y-61440000D02*
X198370000Y-60905685D01*
X198770000Y-58865000D02*
X199470000Y-58865000D01*
X198370000Y-60905685D02*
X198370000Y-59265000D01*
X203170000Y-61440000D02*
X208770000Y-55840000D01*
X199470000Y-61440000D02*
X203170000Y-61440000D01*
X199470000Y-61440000D02*
X198904315Y-61440000D01*
X191737500Y-62470000D02*
X192240000Y-62470000D01*
X192240000Y-62470000D02*
X193282660Y-61427340D01*
X193282660Y-61427340D02*
X194157340Y-61427340D01*
X201070000Y-60440000D02*
X202070000Y-59440000D01*
X202070000Y-59440000D02*
X202070000Y-58865000D01*
X199470000Y-60440000D02*
X201070000Y-60440000D01*
X208760000Y-53300000D02*
X203195000Y-58865000D01*
X191587500Y-60420000D02*
X194162750Y-60420000D01*
X203195000Y-58865000D02*
X202070000Y-58865000D01*
X194162750Y-60420000D02*
X194170161Y-60427411D01*
D41*
X77857500Y-59265000D02*
X75532500Y-56940000D01*
X75532500Y-56940000D02*
X74032500Y-56940000D01*
X77857500Y-59740000D02*
X77857500Y-59265000D01*
X74032500Y-56940000D02*
X69770000Y-52677500D01*
D43*
X115720000Y-65440000D02*
X118970000Y-65440000D01*
D42*
X104822244Y-62548668D02*
X109268788Y-58102124D01*
D44*
X91770000Y-70340000D02*
X91770000Y-70265000D01*
X79620000Y-70390000D02*
X82520000Y-70390000D01*
X97399989Y-70510011D02*
X106349990Y-70510010D01*
D43*
X193370000Y-66240000D02*
X196970000Y-62640000D01*
D45*
X114394499Y-65815000D02*
X114770000Y-65439499D01*
X112862766Y-65815000D02*
X113800000Y-65815000D01*
D42*
X102715912Y-61325000D02*
X103382124Y-61991212D01*
D43*
X120109999Y-66240000D02*
X193370000Y-66240000D01*
D44*
X108999990Y-70510010D02*
X109370000Y-70140000D01*
X88092510Y-68027500D02*
X87170000Y-68027500D01*
X89532500Y-68027500D02*
X88092510Y-68027500D01*
D45*
X106355000Y-69440000D02*
X106355000Y-70505000D01*
D43*
X119770001Y-66240001D02*
X120109999Y-66240001D01*
D44*
X95610000Y-70340000D02*
X93070000Y-70340000D01*
D42*
X110385000Y-56740000D02*
X110385000Y-56985912D01*
D44*
X91770000Y-70265000D02*
X89532500Y-68027500D01*
X82520000Y-64090000D02*
X82520000Y-70390000D01*
D42*
X110385000Y-56985912D02*
X109268788Y-58102124D01*
D43*
X196970000Y-62640000D02*
X196970000Y-58865000D01*
X114770000Y-65439499D02*
X114770501Y-65440000D01*
D45*
X108920000Y-69440000D02*
X109370000Y-68990000D01*
D44*
X82520000Y-70390000D02*
X84807500Y-70390000D01*
D41*
X90900000Y-66660000D02*
X89532500Y-68027500D01*
D45*
X106355000Y-68794088D02*
X106355000Y-69440000D01*
D43*
X114770501Y-65440000D02*
X115720000Y-65440000D01*
D44*
X106349990Y-70510010D02*
X108999990Y-70510010D01*
D45*
X113800000Y-65815000D02*
X114394499Y-65815000D01*
D43*
X196970000Y-62640000D02*
X204510000Y-62640000D01*
X193370000Y-72560000D02*
X196370000Y-75560000D01*
D44*
X78206399Y-78576399D02*
X78206399Y-71803601D01*
X84807500Y-70390000D02*
X87170000Y-68027500D01*
D41*
X94710998Y-61325000D02*
X90900000Y-65135998D01*
D44*
X97229978Y-70340000D02*
X97399989Y-70510011D01*
D42*
X103939580Y-62548668D02*
X103382124Y-61991212D01*
D41*
X101870000Y-61325000D02*
X94710998Y-61325000D01*
D42*
X104822244Y-62548668D02*
X103939580Y-62548668D01*
D43*
X193370000Y-66240000D02*
X193370000Y-72560000D01*
X118970000Y-65440000D02*
X119770001Y-66240001D01*
D44*
X93070000Y-70340000D02*
X91770000Y-70340000D01*
X78206399Y-71803601D02*
X79620000Y-70390000D01*
D45*
X107271212Y-67877876D02*
X106355000Y-68794088D01*
D42*
X106355000Y-70505000D02*
X106349990Y-70510010D01*
D45*
X112097215Y-65049449D02*
X112862766Y-65815000D01*
X109268788Y-67877876D02*
X109268788Y-68888788D01*
X108505000Y-69440000D02*
X108920000Y-69440000D01*
D42*
X109268788Y-68888788D02*
X109370000Y-68990000D01*
D43*
X204510000Y-62640000D02*
X208770000Y-58380000D01*
D42*
X101870000Y-61325000D02*
X102715912Y-61325000D01*
D44*
X79770000Y-80140000D02*
X78206399Y-78576399D01*
D41*
X90900000Y-65135998D02*
X90900000Y-66660000D01*
D44*
X95610000Y-70340000D02*
X97229978Y-70340000D01*
D42*
X102407500Y-73202500D02*
X102770000Y-73202500D01*
X100970000Y-74640000D02*
X102407500Y-73202500D01*
X100970000Y-74727500D02*
X100970000Y-74640000D01*
X93070000Y-67800000D02*
X93870998Y-67800000D01*
X98045000Y-65040000D02*
X98482500Y-65040000D01*
X95235997Y-66435001D02*
X96174999Y-66435001D01*
X96174999Y-66435001D02*
X97570000Y-65040000D01*
X97570000Y-65040000D02*
X98045000Y-65040000D01*
X93870998Y-67800000D02*
X95235997Y-66435001D01*
X98482500Y-66640000D02*
X96770000Y-66640000D01*
X96770000Y-66640000D02*
X95610000Y-67800000D01*
D41*
X115307500Y-74240000D02*
X115307500Y-72552500D01*
D42*
X111036555Y-66110109D02*
X114966446Y-70040000D01*
X115120000Y-70040000D02*
X116370000Y-71290000D01*
D41*
X117557500Y-71490000D02*
X118520000Y-72452500D01*
X116370000Y-71490000D02*
X117557500Y-71490000D01*
D42*
X116370000Y-71290000D02*
X116370000Y-71490000D01*
X114966446Y-70040000D02*
X115120000Y-70040000D01*
D41*
X115307500Y-72552500D02*
X116370000Y-71490000D01*
D42*
X110683002Y-66463662D02*
X112670000Y-68450660D01*
X112670000Y-68450660D02*
X112670000Y-71490000D01*
D41*
X113732500Y-74240000D02*
X113732500Y-72552500D01*
X112670000Y-71490000D02*
X111482500Y-71490000D01*
X111482500Y-71490000D02*
X110520000Y-72452500D01*
X113732500Y-72552500D02*
X112670000Y-71490000D01*
D42*
X90620000Y-78290000D02*
X89930000Y-77600000D01*
X99150000Y-72905000D02*
X98939999Y-73115001D01*
X100319996Y-71540004D02*
X99470000Y-72390000D01*
X97990000Y-78290000D02*
X90620000Y-78290000D01*
X108520000Y-71540004D02*
X100319996Y-71540004D01*
X97990000Y-78290000D02*
X103750000Y-78290000D01*
X99470000Y-72390000D02*
X99470000Y-72905000D01*
X111390109Y-65756555D02*
X110723554Y-65090000D01*
X110723554Y-65090000D02*
X109804857Y-65090000D01*
X98939999Y-73115001D02*
X91544999Y-73115001D01*
X109804857Y-65090000D02*
X109528158Y-65366699D01*
X89930000Y-74730000D02*
X89930000Y-77600000D01*
X91544999Y-73115001D02*
X89930000Y-74730000D01*
X99470000Y-72905000D02*
X99150000Y-72905000D01*
X145718920Y-60145080D02*
X154810000Y-51054000D01*
X113370008Y-61991212D02*
X115216140Y-60145080D01*
X115216140Y-60145080D02*
X145718920Y-60145080D01*
X113157876Y-61991212D02*
X113370008Y-61991212D01*
X143628930Y-59695070D02*
X152270000Y-51054000D01*
X114746910Y-59695070D02*
X143628930Y-59695070D01*
X112804322Y-61637658D02*
X114746910Y-59695070D01*
X141538940Y-59245060D02*
X149730000Y-51054000D01*
X112450769Y-61284105D02*
X112486109Y-61284105D01*
X112486109Y-61284105D02*
X114525154Y-59245060D01*
X114525154Y-59245060D02*
X141538940Y-59245060D01*
X139448950Y-58795050D02*
X147190000Y-51054000D01*
X112097215Y-60930551D02*
X114232716Y-58795050D01*
X114232716Y-58795050D02*
X139448950Y-58795050D01*
X137358960Y-58345040D02*
X144650000Y-51054000D01*
X113975620Y-58345040D02*
X137358960Y-58345040D01*
X111743662Y-60576998D02*
X113975620Y-58345040D01*
X111390109Y-60223445D02*
X113718524Y-57895030D01*
X135268970Y-57895030D02*
X142110000Y-51054000D01*
X113718524Y-57895030D02*
X135268970Y-57895030D01*
X113461426Y-57445020D02*
X133178980Y-57445020D01*
X133178980Y-57445020D02*
X139570000Y-51054000D01*
X111036555Y-59869891D02*
X113461426Y-57445020D01*
X136180001Y-51903999D02*
X137030000Y-51054000D01*
X113214990Y-56995010D02*
X131088990Y-56995010D01*
X110329449Y-59162785D02*
X110897397Y-58594837D01*
X110897397Y-58594837D02*
X111615163Y-58594837D01*
X111615163Y-58594837D02*
X113214990Y-56995010D01*
X131088990Y-56995010D02*
X136180001Y-51903999D01*
X128999000Y-56545000D02*
X134490000Y-51054000D01*
X110950106Y-57835020D02*
X111348212Y-57835020D01*
X112638232Y-56545000D02*
X128999000Y-56545000D01*
X111348212Y-57835020D02*
X112638232Y-56545000D01*
X109975895Y-58809231D02*
X110950106Y-57835020D01*
X108415010Y-56094990D02*
X126909010Y-56094990D01*
X131100001Y-51903999D02*
X131950000Y-51054000D01*
X107271212Y-58102124D02*
X107271212Y-57238788D01*
X126909010Y-56094990D02*
X131100001Y-51903999D01*
X107271212Y-57238788D02*
X108415010Y-56094990D01*
X124819020Y-55644980D02*
X129410000Y-51054000D01*
X106349711Y-57521007D02*
X108225738Y-55644980D01*
X108225738Y-55644980D02*
X124819020Y-55644980D01*
X106917658Y-58455678D02*
X106349711Y-57887731D01*
X106349711Y-57887731D02*
X106349711Y-57521007D01*
X106564105Y-58809231D02*
X105899702Y-58144828D01*
X108039338Y-55194970D02*
X122729030Y-55194970D01*
X122729030Y-55194970D02*
X126870000Y-51054000D01*
X105899702Y-58144828D02*
X105899702Y-57334606D01*
X105899702Y-57334606D02*
X108039338Y-55194970D01*
X105449692Y-58366584D02*
X105449693Y-57148205D01*
X120644000Y-54740000D02*
X124330000Y-51054000D01*
X105449693Y-57148205D02*
X107857898Y-54740000D01*
X106210551Y-59127443D02*
X105449692Y-58366584D01*
X106210551Y-59162785D02*
X106210551Y-59127443D01*
X107857898Y-54740000D02*
X120644000Y-54740000D01*
X107721488Y-54240000D02*
X118604000Y-54240000D01*
X104999684Y-56961804D02*
X107721488Y-54240000D01*
X118604000Y-54240000D02*
X121790000Y-51054000D01*
X104999684Y-58659024D02*
X104999684Y-56961804D01*
X105856998Y-59516338D02*
X104999684Y-58659024D01*
X104549675Y-58916121D02*
X104549675Y-56775403D01*
X104549675Y-56775403D02*
X107535088Y-53789990D01*
X107535088Y-53789990D02*
X116514010Y-53789990D01*
X105503445Y-59869891D02*
X104549675Y-58916121D01*
X116514010Y-53789990D02*
X119250000Y-51054000D01*
X114670000Y-53339980D02*
X114670000Y-53330000D01*
X116710000Y-51290000D02*
X116710000Y-51054000D01*
X114670000Y-53330000D02*
X116710000Y-51290000D01*
X105149891Y-60223445D02*
X104099665Y-59173219D01*
X104099665Y-59173219D02*
X104099666Y-56589002D01*
X104099666Y-56589002D02*
X107348688Y-53339980D01*
X107348688Y-53339980D02*
X114670000Y-53339980D01*
X179024840Y-63745160D02*
X191770000Y-51000000D01*
X119764840Y-63745160D02*
X179024840Y-63745160D01*
X114684971Y-64115029D02*
X119394971Y-64115029D01*
X112804322Y-64342342D02*
X113372269Y-64910289D01*
X113889711Y-64910289D02*
X114684971Y-64115029D01*
X113372269Y-64910289D02*
X113889711Y-64910289D01*
X119394971Y-64115029D02*
X119764840Y-63745160D01*
X176934850Y-63295150D02*
X189230000Y-51000000D01*
X119512672Y-63295150D02*
X176934850Y-63295150D01*
X113157876Y-63988788D02*
X113481645Y-63665019D01*
X113481645Y-63665019D02*
X119142803Y-63665019D01*
X119142803Y-63665019D02*
X119512672Y-63295150D01*
X112597287Y-62912713D02*
X117681301Y-62912713D01*
X111882821Y-63627179D02*
X112597287Y-62912713D01*
X117983599Y-63215011D02*
X118956402Y-63215010D01*
X119326272Y-62845140D02*
X174844860Y-62845140D01*
X118956402Y-63215010D02*
X119326272Y-62845140D01*
X112450769Y-64660555D02*
X111882821Y-64092607D01*
X111882821Y-64092607D02*
X111882821Y-63627179D01*
X112450769Y-64695895D02*
X112450769Y-64660555D01*
X174844860Y-62845140D02*
X186690000Y-51000000D01*
X117681301Y-62912713D02*
X117983599Y-63215011D01*
X172754870Y-62395130D02*
X184150000Y-51000000D01*
X118169999Y-62765001D02*
X118770001Y-62765001D01*
X117670000Y-62140000D02*
X117844999Y-62314999D01*
X107134264Y-63200000D02*
X107770000Y-62564264D01*
X117844999Y-62314999D02*
X117844999Y-62440001D01*
X118770001Y-62765001D02*
X119139872Y-62395130D01*
X119139872Y-62395130D02*
X172754870Y-62395130D01*
X104089231Y-64695895D02*
X105585126Y-63200000D01*
X117844999Y-62440001D02*
X118169999Y-62765001D01*
X107770000Y-62564264D02*
X107770000Y-62140000D01*
X105585126Y-63200000D02*
X107134264Y-63200000D01*
X106410000Y-62700000D02*
X106970000Y-62140000D01*
X118470000Y-62140000D02*
X118670000Y-62140000D01*
X162670490Y-61945610D02*
X170664390Y-61945610D01*
X162670000Y-61945120D02*
X162670490Y-61945610D01*
X103735678Y-64342342D02*
X105378020Y-62700000D01*
X118670000Y-62140000D02*
X118864880Y-61945120D01*
X118864880Y-61945120D02*
X162670000Y-61945120D01*
X170664390Y-61945610D02*
X181610000Y-51000000D01*
X105378020Y-62700000D02*
X106410000Y-62700000D01*
X168574890Y-61495110D02*
X117014890Y-61495110D01*
X108570000Y-62564264D02*
X108570000Y-62140000D01*
X179070000Y-51000000D02*
X168574890Y-61495110D01*
X107434264Y-63700000D02*
X108570000Y-62564264D01*
X104442785Y-65049449D02*
X105792234Y-63700000D01*
X105792234Y-63700000D02*
X107434264Y-63700000D01*
X116870000Y-61640000D02*
X116870000Y-62140000D01*
X117014890Y-61495110D02*
X116870000Y-61640000D01*
X166484410Y-61045590D02*
X162514410Y-61045590D01*
X104796338Y-65403002D02*
X105999340Y-64200000D01*
X176530000Y-51000000D02*
X166484410Y-61045590D01*
X162514410Y-61045590D02*
X162514900Y-61045100D01*
X116070000Y-61715736D02*
X116070000Y-62140000D01*
X105999340Y-64200000D02*
X107734264Y-64200000D01*
X162514900Y-61045100D02*
X116740636Y-61045100D01*
X116740636Y-61045100D02*
X116070000Y-61715736D01*
X109370000Y-62564264D02*
X109370000Y-62140000D01*
X107734264Y-64200000D02*
X109370000Y-62564264D01*
X108061214Y-64673050D02*
X110170000Y-62564264D01*
X115270000Y-61715736D02*
X116390646Y-60595090D01*
X115270000Y-62140000D02*
X115270000Y-61715736D01*
X110170000Y-62564264D02*
X110170000Y-62140000D01*
X116390646Y-60595090D02*
X162670000Y-60595090D01*
X173990000Y-51000000D02*
X164394420Y-60595580D01*
X105149891Y-65756555D02*
X106233396Y-64673050D01*
X106233396Y-64673050D02*
X108061214Y-64673050D01*
X164394420Y-60595580D02*
X162270000Y-60595580D01*
X103169992Y-63988788D02*
X101270000Y-65888780D01*
X87420000Y-72490000D02*
X82310000Y-77600000D01*
X101270000Y-65888780D02*
X101270000Y-67215000D01*
X103382124Y-63988788D02*
X103169992Y-63988788D01*
X98020000Y-72490000D02*
X87420000Y-72490000D01*
X104089231Y-61284105D02*
X102520125Y-59714999D01*
X89800000Y-64975736D02*
X89800000Y-65875736D01*
X102520125Y-59714999D02*
X95060737Y-59714999D01*
X95060737Y-59714999D02*
X89800000Y-64975736D01*
X89800000Y-65875736D02*
X89800000Y-66300000D01*
X79770000Y-77600000D02*
X88070000Y-69300000D01*
X88070000Y-69300000D02*
X89200000Y-69300000D01*
X110270000Y-68171980D02*
X110270000Y-70715006D01*
X100970000Y-72715000D02*
X100970000Y-73152500D01*
X109622342Y-67524322D02*
X110270000Y-68171980D01*
X108745006Y-72240000D02*
X101445000Y-72240000D01*
X110270000Y-70715006D02*
X108745006Y-72240000D01*
X101445000Y-72240000D02*
X100970000Y-72715000D01*
X88020000Y-56940000D02*
X88020000Y-54235000D01*
X88870000Y-59215000D02*
X88870000Y-57790000D01*
X94070000Y-59190000D02*
X93570000Y-59690000D01*
X89020000Y-55940000D02*
X88070000Y-56890000D01*
X89345000Y-59690000D02*
X88870000Y-59215000D01*
X104442785Y-60930551D02*
X102702234Y-59190000D01*
X89020000Y-54235000D02*
X89020000Y-55940000D01*
X93570000Y-59690000D02*
X89345000Y-59690000D01*
X102702234Y-59190000D02*
X94070000Y-59190000D01*
X88870000Y-57790000D02*
X88020000Y-56940000D01*
X89520000Y-53260978D02*
X89520000Y-54235000D01*
X92570000Y-57090000D02*
X101309340Y-57090000D01*
X89469511Y-53210489D02*
X89520000Y-53260978D01*
X92470000Y-57190000D02*
X92570000Y-57090000D01*
X88520000Y-54235000D02*
X88520000Y-53260978D01*
X101309340Y-57090000D02*
X104796338Y-60576998D01*
X88520000Y-53260978D02*
X88570489Y-53210489D01*
D46*
X89520000Y-57140000D02*
X89520000Y-54235000D01*
X89570000Y-57190000D02*
X89520000Y-57140000D01*
D42*
X88570489Y-53210489D02*
X89469511Y-53210489D01*
X102378392Y-67031610D02*
X101170002Y-68240000D01*
X100057500Y-66640000D02*
X100057500Y-68240000D01*
X105289050Y-67031610D02*
X102378392Y-67031610D01*
X101170002Y-68240000D02*
X100495000Y-68240000D01*
X105856998Y-66463662D02*
X105289050Y-67031610D01*
X100495000Y-68240000D02*
X100057500Y-68240000D01*
X187740000Y-60420000D02*
X188590000Y-60420000D01*
X188590000Y-60420000D02*
X190012500Y-60420000D01*
X187690000Y-60420000D02*
X187740000Y-60420000D01*
X183914830Y-64195170D02*
X187690000Y-60420000D01*
X108670000Y-65990000D02*
X108670000Y-65340000D01*
X107117393Y-66652821D02*
X107167393Y-66602821D01*
X107082053Y-66652821D02*
X107117393Y-66652821D01*
X106564105Y-67170769D02*
X107082053Y-66652821D01*
X120470000Y-65340000D02*
X120470000Y-64915736D01*
X107511596Y-66590000D02*
X108070000Y-66590000D01*
X107498775Y-66602821D02*
X107511596Y-66590000D01*
X121190566Y-64195170D02*
X183914830Y-64195170D01*
X108070000Y-66590000D02*
X108670000Y-65990000D01*
X107167393Y-66602821D02*
X107498775Y-66602821D01*
X120470000Y-64915736D02*
X121190566Y-64195170D01*
X188540000Y-62470000D02*
X189862500Y-62470000D01*
X121270000Y-64840000D02*
X121464820Y-64645180D01*
X185939820Y-64645180D02*
X188115000Y-62470000D01*
X188115000Y-62470000D02*
X188540000Y-62470000D01*
X121270000Y-65340000D02*
X121270000Y-64840000D01*
X106912765Y-66115001D02*
X107094999Y-66115001D01*
X107094999Y-66115001D02*
X107870000Y-65340000D01*
X106210551Y-66817215D02*
X106912765Y-66115001D01*
X121464820Y-64645180D02*
X185939820Y-64645180D01*
X188570000Y-64540000D02*
X189862500Y-64540000D01*
X106315503Y-65298051D02*
X106603787Y-65298051D01*
X122170000Y-65290000D02*
X122364810Y-65095190D01*
X188170000Y-64540000D02*
X188570000Y-64540000D01*
X105503445Y-66110109D02*
X106315503Y-65298051D01*
X187614810Y-65095190D02*
X188170000Y-64540000D01*
X106603787Y-65298051D02*
X107028051Y-65298051D01*
X122364810Y-65095190D02*
X187614810Y-65095190D01*
X110683002Y-59516338D02*
X108799340Y-61400000D01*
X100057500Y-65040000D02*
X100057500Y-63440000D01*
X101360000Y-63440000D02*
X102100000Y-62700000D01*
X107824264Y-61400000D02*
X107400000Y-61400000D01*
X100057500Y-63440000D02*
X101360000Y-63440000D01*
X108799340Y-61400000D02*
X107824264Y-61400000D01*
D45*
X90170000Y-57790000D02*
X90370000Y-57590000D01*
X90370000Y-55959022D02*
X90020000Y-55609022D01*
X90370000Y-57590000D02*
X90370000Y-55959022D01*
X90020000Y-55609022D02*
X90020000Y-54235000D01*
X90170000Y-58902500D02*
X90170000Y-57790000D01*
X87020000Y-54235000D02*
X87020000Y-58292500D01*
X87020000Y-58292500D02*
X87630000Y-58902500D01*
D41*
X84664511Y-49275489D02*
X92875489Y-49275489D01*
X93870000Y-54890000D02*
X93870000Y-54450000D01*
X93090000Y-49490000D02*
X93090000Y-53670000D01*
X93870000Y-54450000D02*
X93090000Y-53670000D01*
X93722500Y-57890000D02*
X92710000Y-58902500D01*
X84450000Y-49490000D02*
X84450000Y-53670000D01*
D42*
X84450000Y-49490000D02*
X84664511Y-49275489D01*
X92875489Y-49275489D02*
X93090000Y-49490000D01*
X93870000Y-57890000D02*
X93722500Y-57890000D01*
X93090000Y-49140000D02*
X92860000Y-49140000D01*
D44*
X201930000Y-51000000D02*
X201930000Y-56760000D01*
D43*
X204160000Y-78090000D02*
X204170000Y-78100000D01*
X200060000Y-78090000D02*
X204160000Y-78090000D01*
X204100000Y-75490000D02*
X204170000Y-75560000D01*
X200070000Y-75490000D02*
X204100000Y-75490000D01*
X200060000Y-73040000D02*
X204150000Y-73040000D01*
X204150000Y-73040000D02*
X204170000Y-73020000D01*
X200070000Y-70490000D02*
X204160000Y-70490000D01*
X204160000Y-70490000D02*
X204170000Y-70480000D01*
X200060000Y-67940000D02*
X204170000Y-67940000D01*
D44*
X199390000Y-51000000D02*
X199390000Y-56815000D01*
X196850000Y-51000000D02*
X196850000Y-56815000D01*
X194310000Y-51000000D02*
X194310000Y-56790000D01*
G04 #@! TA.AperFunction,Conductor*
G36*
X84174738Y-48010002D02*
G01*
X84221231Y-48063658D01*
X84231335Y-48133932D01*
X84201841Y-48198512D01*
X84150126Y-48234249D01*
X84009148Y-48286119D01*
X84003728Y-48289479D01*
X84003727Y-48289480D01*
X83841824Y-48389863D01*
X83841820Y-48389866D01*
X83836401Y-48393226D01*
X83831763Y-48397612D01*
X83697066Y-48524989D01*
X83688720Y-48532881D01*
X83572137Y-48699379D01*
X83491414Y-48885919D01*
X83449849Y-49084880D01*
X83449500Y-49091539D01*
X83449500Y-49840800D01*
X83449823Y-49843979D01*
X83463661Y-49980211D01*
X83464880Y-49992216D01*
X83525662Y-50186172D01*
X83624203Y-50363944D01*
X83669170Y-50416408D01*
X83698312Y-50481145D01*
X83699500Y-50498403D01*
X83699500Y-52407758D01*
X83676713Y-52480029D01*
X83572137Y-52629379D01*
X83491414Y-52815919D01*
X83485024Y-52846507D01*
X83452819Y-53000664D01*
X83449849Y-53014880D01*
X83449500Y-53021539D01*
X83449500Y-54270800D01*
X83464880Y-54422216D01*
X83525662Y-54616172D01*
X83624203Y-54793944D01*
X83628359Y-54798792D01*
X83628359Y-54798793D01*
X83638794Y-54810968D01*
X83756477Y-54948271D01*
X83761514Y-54952178D01*
X83761516Y-54952180D01*
X83822493Y-54999478D01*
X83917081Y-55072848D01*
X84099455Y-55162587D01*
X84105633Y-55164196D01*
X84105635Y-55164197D01*
X84289966Y-55212212D01*
X84289969Y-55212212D01*
X84296148Y-55213822D01*
X84377328Y-55218076D01*
X84492744Y-55224125D01*
X84492748Y-55224125D01*
X84499126Y-55224459D01*
X84700097Y-55194065D01*
X84890852Y-55123881D01*
X84954313Y-55084534D01*
X85058176Y-55020137D01*
X85058180Y-55020134D01*
X85063599Y-55016774D01*
X85168566Y-54917512D01*
X85206639Y-54881508D01*
X85206640Y-54881507D01*
X85211280Y-54877119D01*
X85275713Y-54785100D01*
X85290288Y-54764284D01*
X85345745Y-54719956D01*
X85416364Y-54712647D01*
X85479725Y-54744678D01*
X85515710Y-54805879D01*
X85519501Y-54836552D01*
X85519501Y-55357376D01*
X85526149Y-55418580D01*
X85537736Y-55449488D01*
X85561482Y-55512833D01*
X85569500Y-55557062D01*
X85569500Y-55676943D01*
X85549498Y-55745064D01*
X85532595Y-55766038D01*
X84792948Y-56505685D01*
X84725732Y-56540676D01*
X84552460Y-56571228D01*
X84552457Y-56571229D01*
X84546178Y-56572336D01*
X84534171Y-56577090D01*
X84363134Y-56644808D01*
X84363129Y-56644810D01*
X84357195Y-56647160D01*
X84351848Y-56650659D01*
X84240736Y-56723369D01*
X84187117Y-56758456D01*
X84182162Y-56762917D01*
X84180982Y-56764097D01*
X82548986Y-58396094D01*
X82546464Y-58398547D01*
X82491846Y-58450197D01*
X82483720Y-58457881D01*
X82449120Y-58507295D01*
X82443550Y-58514660D01*
X82412364Y-58552898D01*
X82405427Y-58561403D01*
X82402472Y-58567055D01*
X82402469Y-58567060D01*
X82392092Y-58586910D01*
X82383643Y-58600807D01*
X82367137Y-58624379D01*
X82364605Y-58630230D01*
X82364599Y-58630241D01*
X82343181Y-58679736D01*
X82339205Y-58688072D01*
X82314215Y-58735872D01*
X82314212Y-58735880D01*
X82311258Y-58741530D01*
X82304672Y-58764500D01*
X82303323Y-58769203D01*
X82297844Y-58784506D01*
X82286414Y-58810919D01*
X82285110Y-58817163D01*
X82285108Y-58817168D01*
X82282043Y-58831842D01*
X82275940Y-58861058D01*
X82274080Y-58869960D01*
X82271864Y-58878917D01*
X82255234Y-58936913D01*
X82254745Y-58943273D01*
X82253026Y-58965610D01*
X82250735Y-58981705D01*
X82244849Y-59009880D01*
X82244500Y-59016539D01*
X82244500Y-59071565D01*
X82244129Y-59081232D01*
X82239640Y-59139571D01*
X82240440Y-59145903D01*
X82243506Y-59170173D01*
X82244500Y-59185965D01*
X82244500Y-60113500D01*
X82224498Y-60181621D01*
X82170842Y-60228114D01*
X82118500Y-60239500D01*
X80596500Y-60239500D01*
X80528379Y-60219498D01*
X80481886Y-60165842D01*
X80470500Y-60113500D01*
X80470500Y-58320787D01*
X80472051Y-58301076D01*
X80473187Y-58293904D01*
X80474219Y-58287388D01*
X80473203Y-58267987D01*
X80470673Y-58219727D01*
X80470500Y-58213133D01*
X80470500Y-58192808D01*
X80468804Y-58176672D01*
X80468375Y-58172585D01*
X80467858Y-58166011D01*
X80464658Y-58104955D01*
X80464658Y-58104954D01*
X80464312Y-58098354D01*
X80460726Y-58084971D01*
X80457123Y-58065533D01*
X80456364Y-58058312D01*
X80455674Y-58051744D01*
X80434729Y-57987281D01*
X80432860Y-57980973D01*
X80428360Y-57964179D01*
X80415320Y-57915512D01*
X80412323Y-57909629D01*
X80409027Y-57903160D01*
X80401464Y-57884903D01*
X80400693Y-57882532D01*
X80397179Y-57871716D01*
X80381771Y-57845028D01*
X80363297Y-57813029D01*
X80360151Y-57807234D01*
X80332381Y-57752734D01*
X80332379Y-57752731D01*
X80329383Y-57746851D01*
X80320661Y-57736080D01*
X80309466Y-57719791D01*
X80302533Y-57707784D01*
X80295108Y-57699538D01*
X80257185Y-57657420D01*
X80252901Y-57652404D01*
X80242195Y-57639184D01*
X80240119Y-57636620D01*
X80225770Y-57622271D01*
X80221229Y-57617487D01*
X80180286Y-57572015D01*
X80180284Y-57572014D01*
X80175871Y-57567112D01*
X80164649Y-57558959D01*
X80149621Y-57546122D01*
X80060595Y-57457096D01*
X80026569Y-57394784D01*
X80024169Y-57357025D01*
X80025659Y-57340000D01*
X80023399Y-57314161D01*
X80013049Y-57195872D01*
X80005063Y-57104592D01*
X79974360Y-56990004D01*
X79945326Y-56881647D01*
X79945325Y-56881645D01*
X79943903Y-56876337D01*
X79913734Y-56811640D01*
X79846358Y-56667152D01*
X79846356Y-56667149D01*
X79844035Y-56662171D01*
X79708495Y-56468599D01*
X79541401Y-56301505D01*
X79536893Y-56298348D01*
X79536890Y-56298346D01*
X79352339Y-56169122D01*
X79352336Y-56169120D01*
X79347830Y-56165965D01*
X79342848Y-56163642D01*
X79342843Y-56163639D01*
X79138645Y-56068420D01*
X79138644Y-56068419D01*
X79133663Y-56066097D01*
X79128355Y-56064675D01*
X79128353Y-56064674D01*
X78910723Y-56006361D01*
X78910722Y-56006361D01*
X78905408Y-56004937D01*
X78670000Y-55984341D01*
X78434592Y-56004937D01*
X78429278Y-56006361D01*
X78429277Y-56006361D01*
X78211647Y-56064674D01*
X78211645Y-56064675D01*
X78206337Y-56066097D01*
X78201357Y-56068419D01*
X78201355Y-56068420D01*
X77997152Y-56163642D01*
X77997149Y-56163644D01*
X77992171Y-56165965D01*
X77798599Y-56301505D01*
X77631505Y-56468599D01*
X77495965Y-56662171D01*
X77493644Y-56667149D01*
X77493642Y-56667152D01*
X77426266Y-56811640D01*
X77396097Y-56876337D01*
X77394675Y-56881645D01*
X77394674Y-56881647D01*
X77365640Y-56990004D01*
X77334937Y-57104592D01*
X77314341Y-57340000D01*
X77314820Y-57345472D01*
X77314820Y-57345482D01*
X77314895Y-57346340D01*
X77314820Y-57346713D01*
X77314820Y-57350982D01*
X77313962Y-57350982D01*
X77300903Y-57415944D01*
X77251502Y-57466935D01*
X77182376Y-57483122D01*
X77115471Y-57459368D01*
X77100279Y-57446412D01*
X76110178Y-56456311D01*
X76097791Y-56441898D01*
X76089459Y-56430575D01*
X76089455Y-56430571D01*
X76085117Y-56424676D01*
X76045300Y-56390849D01*
X76037796Y-56383929D01*
X76032197Y-56378330D01*
X76010149Y-56360886D01*
X76006773Y-56358117D01*
X75957325Y-56316108D01*
X75957322Y-56316106D01*
X75951745Y-56311368D01*
X75945226Y-56308040D01*
X75940316Y-56304765D01*
X75935296Y-56301664D01*
X75929551Y-56297119D01*
X75916119Y-56290841D01*
X75879963Y-56273943D01*
X75864151Y-56266553D01*
X75860205Y-56264625D01*
X75795884Y-56231781D01*
X75788775Y-56230042D01*
X75783240Y-56227983D01*
X75777632Y-56226117D01*
X75771007Y-56223021D01*
X75763847Y-56221532D01*
X75763845Y-56221531D01*
X75700307Y-56208315D01*
X75696018Y-56207344D01*
X75667860Y-56200454D01*
X75625894Y-56190185D01*
X75620294Y-56189838D01*
X75620290Y-56189837D01*
X75614852Y-56189500D01*
X75614854Y-56189468D01*
X75610724Y-56189221D01*
X75606844Y-56188875D01*
X75599669Y-56187382D01*
X75592348Y-56187580D01*
X75592347Y-56187580D01*
X75523100Y-56189454D01*
X75519692Y-56189500D01*
X74395557Y-56189500D01*
X74327436Y-56169498D01*
X74306462Y-56152595D01*
X71007405Y-52853538D01*
X70973379Y-52791226D01*
X70970500Y-52764443D01*
X70970499Y-52387565D01*
X70970499Y-52384298D01*
X70959732Y-52280518D01*
X70957553Y-52273987D01*
X70957552Y-52273982D01*
X70924223Y-52174083D01*
X70904808Y-52115890D01*
X70856136Y-52037236D01*
X74514958Y-52037236D01*
X74515321Y-52041384D01*
X74515321Y-52041389D01*
X74518866Y-52081909D01*
X74541014Y-52335065D01*
X74582111Y-52518922D01*
X74599361Y-52596091D01*
X74606232Y-52626832D01*
X74607676Y-52630756D01*
X74607676Y-52630757D01*
X74644163Y-52729927D01*
X74709464Y-52907410D01*
X74711415Y-52911110D01*
X74711417Y-52911115D01*
X74828796Y-53133744D01*
X74848898Y-53171870D01*
X75022084Y-53415565D01*
X75104901Y-53504376D01*
X75207594Y-53614500D01*
X75225979Y-53634216D01*
X75457000Y-53823979D01*
X75711090Y-53981521D01*
X75983783Y-54104074D01*
X76112402Y-54142417D01*
X76266290Y-54188293D01*
X76266292Y-54188293D01*
X76270289Y-54189485D01*
X76274409Y-54190138D01*
X76274411Y-54190138D01*
X76362791Y-54204136D01*
X76565575Y-54236254D01*
X76608135Y-54238187D01*
X76657659Y-54240436D01*
X76657678Y-54240436D01*
X76659078Y-54240500D01*
X76845834Y-54240500D01*
X77068309Y-54225723D01*
X77361377Y-54166630D01*
X77644056Y-54069296D01*
X77647789Y-54067427D01*
X77647793Y-54067425D01*
X77907640Y-53937303D01*
X77907642Y-53937302D01*
X77911378Y-53935431D01*
X78158647Y-53767387D01*
X78381520Y-53568117D01*
X78576079Y-53341120D01*
X78660032Y-53211844D01*
X78736629Y-53093896D01*
X78736632Y-53093891D01*
X78738908Y-53090386D01*
X78758523Y-53049078D01*
X78821381Y-52916698D01*
X78867145Y-52820319D01*
X78868861Y-52814976D01*
X78957258Y-52539651D01*
X78957258Y-52539650D01*
X78958538Y-52535664D01*
X78976852Y-52433877D01*
X79010741Y-52245531D01*
X79010742Y-52245526D01*
X79011480Y-52241422D01*
X79014322Y-52178852D01*
X79024853Y-51946934D01*
X79024853Y-51946929D01*
X79025042Y-51942764D01*
X79024497Y-51936527D01*
X79010405Y-51775463D01*
X78998986Y-51644935D01*
X78933768Y-51353168D01*
X78830536Y-51072590D01*
X78794038Y-51003364D01*
X78693055Y-50811834D01*
X78693054Y-50811833D01*
X78691102Y-50808130D01*
X78517916Y-50564435D01*
X78340972Y-50374685D01*
X78316871Y-50348840D01*
X78316869Y-50348838D01*
X78314021Y-50345784D01*
X78083000Y-50156021D01*
X77828910Y-49998479D01*
X77556217Y-49875926D01*
X77343603Y-49812543D01*
X77273710Y-49791707D01*
X77273708Y-49791707D01*
X77269711Y-49790515D01*
X77265591Y-49789862D01*
X77265589Y-49789862D01*
X77147577Y-49771171D01*
X76974425Y-49743746D01*
X76931865Y-49741813D01*
X76882341Y-49739564D01*
X76882322Y-49739564D01*
X76880922Y-49739500D01*
X76694166Y-49739500D01*
X76471691Y-49754277D01*
X76178623Y-49813370D01*
X75895944Y-49910704D01*
X75892211Y-49912573D01*
X75892207Y-49912575D01*
X75716268Y-50000679D01*
X75628622Y-50044569D01*
X75381353Y-50212613D01*
X75378239Y-50215397D01*
X75378238Y-50215398D01*
X75204589Y-50370657D01*
X75158480Y-50411883D01*
X74963921Y-50638880D01*
X74801092Y-50889614D01*
X74672855Y-51159681D01*
X74581462Y-51444336D01*
X74580721Y-51448455D01*
X74535021Y-51702448D01*
X74528520Y-51738578D01*
X74528331Y-51742745D01*
X74528330Y-51742752D01*
X74515471Y-52025935D01*
X74514958Y-52037236D01*
X70856136Y-52037236D01*
X70813485Y-51968313D01*
X70690661Y-51845704D01*
X70583523Y-51779663D01*
X70549155Y-51758478D01*
X70549153Y-51758477D01*
X70542925Y-51754638D01*
X70430363Y-51717303D01*
X70384730Y-51702167D01*
X70384728Y-51702167D01*
X70378202Y-51700002D01*
X70371365Y-51699302D01*
X70371363Y-51699301D01*
X70329289Y-51694990D01*
X70275703Y-51689500D01*
X69773900Y-51689500D01*
X69264298Y-51689501D01*
X69160518Y-51700268D01*
X69153987Y-51702447D01*
X69153982Y-51702448D01*
X69073456Y-51729314D01*
X68995890Y-51755192D01*
X68848313Y-51846515D01*
X68725704Y-51969339D01*
X68721864Y-51975569D01*
X68639203Y-52109670D01*
X68634638Y-52117075D01*
X68614490Y-52177821D01*
X68594779Y-52237248D01*
X68580002Y-52281798D01*
X68579302Y-52288635D01*
X68579301Y-52288637D01*
X68576504Y-52315935D01*
X68569500Y-52384297D01*
X68569501Y-52970702D01*
X68580268Y-53074482D01*
X68582447Y-53081013D01*
X68582448Y-53081018D01*
X68596756Y-53123904D01*
X68635192Y-53239110D01*
X68726515Y-53386687D01*
X68849339Y-53509296D01*
X68855569Y-53513136D01*
X68987562Y-53594498D01*
X68997075Y-53600362D01*
X69099142Y-53634216D01*
X69155270Y-53652833D01*
X69155272Y-53652833D01*
X69161798Y-53654998D01*
X69168635Y-53655698D01*
X69168637Y-53655699D01*
X69210711Y-53660010D01*
X69264297Y-53665500D01*
X69644443Y-53665500D01*
X69712564Y-53685502D01*
X69733538Y-53702405D01*
X73454822Y-57423689D01*
X73467209Y-57438102D01*
X73475541Y-57449425D01*
X73475545Y-57449429D01*
X73479883Y-57455324D01*
X73519700Y-57489151D01*
X73527204Y-57496071D01*
X73532803Y-57501670D01*
X73554851Y-57519114D01*
X73558227Y-57521883D01*
X73607675Y-57563892D01*
X73607678Y-57563894D01*
X73613255Y-57568632D01*
X73619774Y-57571960D01*
X73624684Y-57575235D01*
X73629704Y-57578336D01*
X73635449Y-57582881D01*
X73692073Y-57609345D01*
X73700843Y-57613444D01*
X73704789Y-57615372D01*
X73769116Y-57648219D01*
X73776225Y-57649958D01*
X73781760Y-57652017D01*
X73787368Y-57653883D01*
X73793993Y-57656979D01*
X73801153Y-57658468D01*
X73801155Y-57658469D01*
X73864684Y-57671683D01*
X73868968Y-57672653D01*
X73939106Y-57689815D01*
X73944706Y-57690162D01*
X73944710Y-57690163D01*
X73950148Y-57690500D01*
X73950146Y-57690531D01*
X73954270Y-57690780D01*
X73958172Y-57691128D01*
X73965330Y-57692617D01*
X74041878Y-57690546D01*
X74045286Y-57690500D01*
X75169443Y-57690500D01*
X75237564Y-57710502D01*
X75258538Y-57727405D01*
X76082232Y-58551099D01*
X76116258Y-58613411D01*
X76111193Y-58684226D01*
X76068646Y-58741062D01*
X76006141Y-58765520D01*
X75915665Y-58774907D01*
X75909134Y-58777086D01*
X75909129Y-58777087D01*
X75807724Y-58810919D01*
X75756568Y-58827986D01*
X75613948Y-58916242D01*
X75608775Y-58921424D01*
X75533861Y-58996468D01*
X75487678Y-59025889D01*
X75478304Y-59029292D01*
X75474147Y-59030719D01*
X75419223Y-59048512D01*
X75405454Y-59052973D01*
X75399200Y-59056768D01*
X75393821Y-59059231D01*
X75388545Y-59061873D01*
X75381669Y-59064369D01*
X75355949Y-59081232D01*
X75321267Y-59103970D01*
X75317554Y-59106312D01*
X75255840Y-59143762D01*
X75251641Y-59147470D01*
X75251636Y-59147474D01*
X75247548Y-59151085D01*
X75247526Y-59151060D01*
X75244435Y-59153803D01*
X75241439Y-59156308D01*
X75235315Y-59160323D01*
X75230281Y-59165637D01*
X75182617Y-59215952D01*
X75180239Y-59218394D01*
X74686311Y-59712322D01*
X74671898Y-59724709D01*
X74660575Y-59733041D01*
X74660571Y-59733045D01*
X74654676Y-59737383D01*
X74620849Y-59777200D01*
X74613929Y-59784704D01*
X74608330Y-59790303D01*
X74590886Y-59812351D01*
X74588117Y-59815727D01*
X74546108Y-59865175D01*
X74546106Y-59865178D01*
X74541368Y-59870755D01*
X74538040Y-59877274D01*
X74534765Y-59882184D01*
X74531664Y-59887204D01*
X74527119Y-59892949D01*
X74524017Y-59899587D01*
X74524016Y-59899588D01*
X74496556Y-59958343D01*
X74494628Y-59962289D01*
X74461781Y-60026616D01*
X74460042Y-60033725D01*
X74457983Y-60039260D01*
X74456117Y-60044868D01*
X74453021Y-60051493D01*
X74451532Y-60058653D01*
X74451531Y-60058655D01*
X74438315Y-60122193D01*
X74437344Y-60126482D01*
X74420185Y-60196606D01*
X74419838Y-60202206D01*
X74419837Y-60202210D01*
X74419500Y-60207646D01*
X74419500Y-60207648D01*
X74419468Y-60207646D01*
X74419221Y-60211776D01*
X74418875Y-60215656D01*
X74417382Y-60222831D01*
X74417580Y-60230152D01*
X74417580Y-60230153D01*
X74419454Y-60299400D01*
X74419500Y-60302808D01*
X74419500Y-65873546D01*
X74418067Y-65892496D01*
X74414852Y-65913630D01*
X74415445Y-65920922D01*
X74415445Y-65920925D01*
X74419085Y-65965675D01*
X74419500Y-65975889D01*
X74419500Y-65983822D01*
X74419925Y-65987466D01*
X74422754Y-66011736D01*
X74423187Y-66016111D01*
X74429039Y-66088059D01*
X74431294Y-66095021D01*
X74432452Y-66100816D01*
X74433809Y-66106558D01*
X74434657Y-66113828D01*
X74459306Y-66181736D01*
X74460723Y-66185864D01*
X74475974Y-66232940D01*
X74482973Y-66254546D01*
X74486768Y-66260800D01*
X74489231Y-66266179D01*
X74491873Y-66271455D01*
X74494369Y-66278331D01*
X74533948Y-66338699D01*
X74536295Y-66342419D01*
X74570848Y-66399361D01*
X74570853Y-66399368D01*
X74573761Y-66404160D01*
X74577473Y-66408362D01*
X74577474Y-66408364D01*
X74581085Y-66412452D01*
X74581060Y-66412474D01*
X74583806Y-66415569D01*
X74586309Y-66418563D01*
X74590323Y-66424685D01*
X74635045Y-66467051D01*
X74645952Y-66477383D01*
X74648394Y-66479761D01*
X78292761Y-70124128D01*
X78326787Y-70186440D01*
X78321722Y-70257255D01*
X78292761Y-70302318D01*
X77510367Y-71084712D01*
X77507845Y-71087165D01*
X77445119Y-71146482D01*
X77415397Y-71188930D01*
X77410519Y-71195896D01*
X77404949Y-71203261D01*
X77397747Y-71212092D01*
X77366826Y-71250004D01*
X77363871Y-71255656D01*
X77363868Y-71255661D01*
X77353491Y-71275511D01*
X77345042Y-71289408D01*
X77328536Y-71312980D01*
X77326004Y-71318831D01*
X77325998Y-71318842D01*
X77304580Y-71368337D01*
X77300604Y-71376673D01*
X77275614Y-71424473D01*
X77275611Y-71424481D01*
X77272657Y-71430131D01*
X77270899Y-71436262D01*
X77264722Y-71457804D01*
X77259243Y-71473107D01*
X77247813Y-71499520D01*
X77246509Y-71505764D01*
X77246507Y-71505769D01*
X77239280Y-71540365D01*
X77237774Y-71547577D01*
X77235479Y-71558561D01*
X77233263Y-71567518D01*
X77216633Y-71625514D01*
X77214425Y-71654211D01*
X77212134Y-71670306D01*
X77206248Y-71698481D01*
X77205899Y-71705140D01*
X77205899Y-71760166D01*
X77205528Y-71769833D01*
X77201039Y-71828172D01*
X77203268Y-71845818D01*
X77204905Y-71858774D01*
X77205899Y-71874566D01*
X77205899Y-78560229D01*
X77205850Y-78563748D01*
X77204525Y-78611193D01*
X77203439Y-78650052D01*
X77204547Y-78656337D01*
X77204548Y-78656347D01*
X77213915Y-78709465D01*
X77215184Y-78718607D01*
X77221279Y-78778615D01*
X77229890Y-78806092D01*
X77233738Y-78821880D01*
X77237626Y-78843934D01*
X77237628Y-78843940D01*
X77238735Y-78850220D01*
X77241085Y-78856155D01*
X77260937Y-78906297D01*
X77264019Y-78915000D01*
X77277854Y-78959146D01*
X77282061Y-78972571D01*
X77288872Y-78984857D01*
X77296014Y-78997742D01*
X77302966Y-79012448D01*
X77313559Y-79039204D01*
X77317056Y-79044548D01*
X77346585Y-79089673D01*
X77351355Y-79097580D01*
X77375786Y-79141654D01*
X77380602Y-79150343D01*
X77384754Y-79155187D01*
X77399332Y-79172196D01*
X77409095Y-79185199D01*
X77424854Y-79209281D01*
X77429316Y-79214237D01*
X77468228Y-79253149D01*
X77474801Y-79260247D01*
X77512876Y-79304670D01*
X77517913Y-79308577D01*
X77517915Y-79308579D01*
X77537256Y-79323581D01*
X77549125Y-79334046D01*
X78368996Y-80153917D01*
X78403022Y-80216229D01*
X78405901Y-80243012D01*
X78405901Y-81050976D01*
X78412549Y-81112180D01*
X78462874Y-81246424D01*
X78468254Y-81253603D01*
X78468256Y-81253606D01*
X78524770Y-81329011D01*
X78548854Y-81361146D01*
X78556035Y-81366528D01*
X78656394Y-81441744D01*
X78656397Y-81441746D01*
X78663576Y-81447126D01*
X78748238Y-81478864D01*
X78790425Y-81494679D01*
X78790427Y-81494679D01*
X78797820Y-81497451D01*
X78805670Y-81498304D01*
X78805671Y-81498304D01*
X78855617Y-81503730D01*
X78859023Y-81504100D01*
X79769866Y-81504100D01*
X80680976Y-81504099D01*
X80684370Y-81503730D01*
X80684376Y-81503730D01*
X80734322Y-81498305D01*
X80734326Y-81498304D01*
X80742180Y-81497451D01*
X80876424Y-81447126D01*
X80883603Y-81441746D01*
X80883606Y-81441744D01*
X80983965Y-81366528D01*
X80991146Y-81361146D01*
X81015230Y-81329011D01*
X81071744Y-81253606D01*
X81071746Y-81253603D01*
X81077126Y-81246424D01*
X81127451Y-81112180D01*
X81134100Y-81050977D01*
X81134099Y-79229024D01*
X81133730Y-79225624D01*
X81128305Y-79175678D01*
X81128304Y-79175674D01*
X81127451Y-79167820D01*
X81077126Y-79033576D01*
X81071746Y-79026397D01*
X81071744Y-79026394D01*
X80996528Y-78926035D01*
X80991146Y-78918854D01*
X80982776Y-78912581D01*
X80883606Y-78838256D01*
X80883603Y-78838254D01*
X80876424Y-78832874D01*
X80761371Y-78789743D01*
X80704608Y-78747103D01*
X80679907Y-78680542D01*
X80695114Y-78611193D01*
X80716661Y-78582511D01*
X80808714Y-78490778D01*
X80812375Y-78487130D01*
X80939899Y-78309661D01*
X80995894Y-78266013D01*
X81066597Y-78259567D01*
X81129562Y-78292370D01*
X81149655Y-78317352D01*
X81205453Y-78408406D01*
X81352318Y-78577952D01*
X81524903Y-78721235D01*
X81718572Y-78834406D01*
X81928124Y-78914426D01*
X81933190Y-78915457D01*
X81933191Y-78915457D01*
X82008404Y-78930759D01*
X82147932Y-78959146D01*
X82274012Y-78963769D01*
X82366928Y-78967177D01*
X82366932Y-78967177D01*
X82372092Y-78967366D01*
X82377212Y-78966710D01*
X82377214Y-78966710D01*
X82446864Y-78957787D01*
X82594584Y-78938864D01*
X82599532Y-78937379D01*
X82599539Y-78937378D01*
X82788738Y-78880615D01*
X82809434Y-78874406D01*
X83010871Y-78775723D01*
X83034046Y-78759193D01*
X83189283Y-78648463D01*
X83193486Y-78645465D01*
X83352375Y-78487130D01*
X83479899Y-78309661D01*
X83535894Y-78266013D01*
X83606597Y-78259567D01*
X83669562Y-78292370D01*
X83689655Y-78317352D01*
X83745453Y-78408406D01*
X83892318Y-78577952D01*
X84064903Y-78721235D01*
X84129862Y-78759194D01*
X84178584Y-78810832D01*
X84191655Y-78880615D01*
X84164923Y-78946387D01*
X84129127Y-78975902D01*
X84129573Y-78976610D01*
X84125200Y-78979364D01*
X84120612Y-78981752D01*
X84116479Y-78984855D01*
X84116476Y-78984857D01*
X83945369Y-79113328D01*
X83941234Y-79116433D01*
X83937662Y-79120171D01*
X83829338Y-79233526D01*
X83786262Y-79278602D01*
X83783348Y-79282874D01*
X83783347Y-79282875D01*
X83748441Y-79334046D01*
X83659857Y-79463905D01*
X83565414Y-79667364D01*
X83505470Y-79883517D01*
X83481634Y-80106558D01*
X83481931Y-80111710D01*
X83481931Y-80111714D01*
X83487224Y-80203514D01*
X83494546Y-80330497D01*
X83495683Y-80335543D01*
X83495684Y-80335549D01*
X83515647Y-80424129D01*
X83543860Y-80549320D01*
X83545802Y-80554102D01*
X83545803Y-80554106D01*
X83626307Y-80752363D01*
X83628251Y-80757150D01*
X83745453Y-80948406D01*
X83892318Y-81117952D01*
X84064903Y-81261235D01*
X84258572Y-81374406D01*
X84468124Y-81454426D01*
X84473190Y-81455457D01*
X84473191Y-81455457D01*
X84570856Y-81475327D01*
X84687932Y-81499146D01*
X84812938Y-81503730D01*
X84906928Y-81507177D01*
X84906932Y-81507177D01*
X84912092Y-81507366D01*
X84917212Y-81506710D01*
X84917214Y-81506710D01*
X85011129Y-81494679D01*
X85134584Y-81478864D01*
X85139532Y-81477379D01*
X85139539Y-81477378D01*
X85344484Y-81415891D01*
X85344483Y-81415891D01*
X85349434Y-81414406D01*
X85550871Y-81315723D01*
X85623602Y-81263845D01*
X85729283Y-81188463D01*
X85733486Y-81185465D01*
X85892375Y-81027130D01*
X86023269Y-80844971D01*
X86063177Y-80764225D01*
X86120361Y-80648522D01*
X86120362Y-80648520D01*
X86122655Y-80643880D01*
X86187862Y-80429256D01*
X86217141Y-80206864D01*
X86218596Y-80147318D01*
X207269500Y-80147318D01*
X207281589Y-80243012D01*
X207305742Y-80434202D01*
X207308934Y-80459473D01*
X207309920Y-80463312D01*
X207386194Y-80760383D01*
X207386197Y-80760391D01*
X207387181Y-80764225D01*
X207388638Y-80767905D01*
X207388639Y-80767908D01*
X207420813Y-80849171D01*
X207503006Y-81056766D01*
X207504907Y-81060225D01*
X207504909Y-81060228D01*
X207536643Y-81117952D01*
X207654584Y-81332484D01*
X207656912Y-81335688D01*
X207656915Y-81335693D01*
X207837194Y-81583826D01*
X207839522Y-81587030D01*
X208054906Y-81816390D01*
X208297337Y-82016947D01*
X208562993Y-82185537D01*
X208566572Y-82187221D01*
X208566579Y-82187225D01*
X208844095Y-82317814D01*
X208844099Y-82317816D01*
X208847685Y-82319503D01*
X209146921Y-82416731D01*
X209455985Y-82475688D01*
X209549489Y-82481571D01*
X209689422Y-82490375D01*
X209689438Y-82490376D01*
X209691417Y-82490500D01*
X209848583Y-82490500D01*
X209850562Y-82490376D01*
X209850578Y-82490375D01*
X209990511Y-82481571D01*
X210084015Y-82475688D01*
X210393079Y-82416731D01*
X210692315Y-82319503D01*
X210695901Y-82317816D01*
X210695905Y-82317814D01*
X210973421Y-82187225D01*
X210973428Y-82187221D01*
X210977007Y-82185537D01*
X211242663Y-82016947D01*
X211485094Y-81816390D01*
X211700478Y-81587030D01*
X211702806Y-81583826D01*
X211883085Y-81335693D01*
X211883088Y-81335688D01*
X211885416Y-81332484D01*
X212003357Y-81117952D01*
X212035091Y-81060228D01*
X212035093Y-81060225D01*
X212036994Y-81056766D01*
X212119187Y-80849171D01*
X212151361Y-80767908D01*
X212151362Y-80767905D01*
X212152819Y-80764225D01*
X212153803Y-80760391D01*
X212153806Y-80760383D01*
X212230080Y-80463312D01*
X212231066Y-80459473D01*
X212234259Y-80434202D01*
X212258411Y-80243012D01*
X212270500Y-80147318D01*
X212270500Y-79832682D01*
X212231066Y-79520527D01*
X212183186Y-79334046D01*
X212153806Y-79219617D01*
X212153803Y-79219609D01*
X212152819Y-79215775D01*
X212136944Y-79175678D01*
X212100106Y-79082637D01*
X212036994Y-78923234D01*
X212034623Y-78918920D01*
X211957151Y-78778000D01*
X211885416Y-78647516D01*
X211838188Y-78582511D01*
X211702806Y-78396174D01*
X211702805Y-78396172D01*
X211700478Y-78392970D01*
X211485094Y-78163610D01*
X211242663Y-77963053D01*
X210977007Y-77794463D01*
X210973428Y-77792779D01*
X210973421Y-77792775D01*
X210695905Y-77662186D01*
X210695901Y-77662184D01*
X210692315Y-77660497D01*
X210617959Y-77636337D01*
X210477940Y-77590842D01*
X210393079Y-77563269D01*
X210084015Y-77504312D01*
X209990511Y-77498429D01*
X209850578Y-77489625D01*
X209850562Y-77489624D01*
X209848583Y-77489500D01*
X209691417Y-77489500D01*
X209689438Y-77489624D01*
X209689422Y-77489625D01*
X209549489Y-77498429D01*
X209455985Y-77504312D01*
X209146921Y-77563269D01*
X209062060Y-77590842D01*
X208922042Y-77636337D01*
X208847685Y-77660497D01*
X208844099Y-77662184D01*
X208844095Y-77662186D01*
X208566579Y-77792775D01*
X208566572Y-77792779D01*
X208562993Y-77794463D01*
X208297337Y-77963053D01*
X208054906Y-78163610D01*
X207839522Y-78392970D01*
X207837195Y-78396172D01*
X207837194Y-78396174D01*
X207701813Y-78582511D01*
X207654584Y-78647516D01*
X207582849Y-78778000D01*
X207505378Y-78918920D01*
X207503006Y-78923234D01*
X207439894Y-79082637D01*
X207403057Y-79175678D01*
X207387181Y-79215775D01*
X207386197Y-79219609D01*
X207386194Y-79219617D01*
X207356814Y-79334046D01*
X207308934Y-79520527D01*
X207269500Y-79832682D01*
X207269500Y-80147318D01*
X86218596Y-80147318D01*
X86218775Y-80140000D01*
X86212693Y-80066030D01*
X86200819Y-79921595D01*
X86200818Y-79921589D01*
X86200395Y-79916444D01*
X86145750Y-79698891D01*
X86143691Y-79694155D01*
X86058366Y-79497921D01*
X86058364Y-79497918D01*
X86056306Y-79493184D01*
X86053500Y-79488846D01*
X85937277Y-79309193D01*
X85937272Y-79309187D01*
X85934466Y-79304849D01*
X85921410Y-79290500D01*
X85847506Y-79209281D01*
X85783502Y-79138941D01*
X85779451Y-79135742D01*
X85779447Y-79135738D01*
X85611524Y-79003120D01*
X85611520Y-79003118D01*
X85607469Y-78999918D01*
X85602945Y-78997421D01*
X85602941Y-78997418D01*
X85573546Y-78981191D01*
X85523576Y-78930759D01*
X85508804Y-78861316D01*
X85533920Y-78794911D01*
X85561272Y-78768304D01*
X85729278Y-78648467D01*
X85729283Y-78648463D01*
X85733486Y-78645465D01*
X85892375Y-78487130D01*
X86019899Y-78309661D01*
X86075894Y-78266013D01*
X86146597Y-78259567D01*
X86209562Y-78292370D01*
X86229655Y-78317352D01*
X86285453Y-78408406D01*
X86432318Y-78577952D01*
X86604903Y-78721235D01*
X86798572Y-78834406D01*
X87008124Y-78914426D01*
X87013190Y-78915457D01*
X87013191Y-78915457D01*
X87088404Y-78930759D01*
X87227932Y-78959146D01*
X87354012Y-78963769D01*
X87446928Y-78967177D01*
X87446932Y-78967177D01*
X87452092Y-78967366D01*
X87457212Y-78966710D01*
X87457214Y-78966710D01*
X87526864Y-78957787D01*
X87674584Y-78938864D01*
X87679532Y-78937379D01*
X87679539Y-78937378D01*
X87868738Y-78880615D01*
X87889434Y-78874406D01*
X88090871Y-78775723D01*
X88114046Y-78759193D01*
X88269283Y-78648463D01*
X88273486Y-78645465D01*
X88432375Y-78487130D01*
X88559899Y-78309661D01*
X88615894Y-78266013D01*
X88686597Y-78259567D01*
X88749562Y-78292370D01*
X88769655Y-78317352D01*
X88825453Y-78408406D01*
X88972318Y-78577952D01*
X89144903Y-78721235D01*
X89338572Y-78834406D01*
X89548124Y-78914426D01*
X89553190Y-78915457D01*
X89553191Y-78915457D01*
X89628404Y-78930759D01*
X89767932Y-78959146D01*
X89894012Y-78963769D01*
X89986928Y-78967177D01*
X89986932Y-78967177D01*
X89992092Y-78967366D01*
X89997212Y-78966710D01*
X89997214Y-78966710D01*
X90209456Y-78939521D01*
X90209457Y-78939521D01*
X90214584Y-78938864D01*
X90276928Y-78920160D01*
X90367156Y-78893090D01*
X90437967Y-78892781D01*
X90444104Y-78895437D01*
X90487148Y-78902254D01*
X90498771Y-78904662D01*
X90533304Y-78913529D01*
X90533305Y-78913529D01*
X90540981Y-78915500D01*
X90560856Y-78915500D01*
X90580566Y-78917051D01*
X90600196Y-78920160D01*
X90643580Y-78916059D01*
X90655437Y-78915500D01*
X96040164Y-78915500D01*
X96108285Y-78935502D01*
X96154778Y-78989158D01*
X96158146Y-78997271D01*
X96171474Y-79032824D01*
X96176854Y-79040003D01*
X96176856Y-79040006D01*
X96251005Y-79138941D01*
X96257454Y-79147546D01*
X96264635Y-79152928D01*
X96364994Y-79228144D01*
X96364997Y-79228146D01*
X96372176Y-79233526D01*
X96461561Y-79267034D01*
X96499025Y-79281079D01*
X96499027Y-79281079D01*
X96506420Y-79283851D01*
X96514270Y-79284704D01*
X96514271Y-79284704D01*
X96564217Y-79290130D01*
X96567623Y-79290500D01*
X97989791Y-79290500D01*
X99412376Y-79290499D01*
X99415770Y-79290130D01*
X99415776Y-79290130D01*
X99465722Y-79284705D01*
X99465726Y-79284704D01*
X99473580Y-79283851D01*
X99607824Y-79233526D01*
X99615003Y-79228146D01*
X99615006Y-79228144D01*
X99715365Y-79152928D01*
X99722546Y-79147546D01*
X99728995Y-79138941D01*
X99803144Y-79040006D01*
X99803146Y-79040003D01*
X99808526Y-79032824D01*
X99821854Y-78997271D01*
X99864495Y-78940506D01*
X99931056Y-78915806D01*
X99939836Y-78915500D01*
X101800164Y-78915500D01*
X101868285Y-78935502D01*
X101914778Y-78989158D01*
X101918146Y-78997271D01*
X101931474Y-79032824D01*
X101936854Y-79040003D01*
X101936856Y-79040006D01*
X102011005Y-79138941D01*
X102017454Y-79147546D01*
X102024635Y-79152928D01*
X102124994Y-79228144D01*
X102124997Y-79228146D01*
X102132176Y-79233526D01*
X102221561Y-79267034D01*
X102259025Y-79281079D01*
X102259027Y-79281079D01*
X102266420Y-79283851D01*
X102274270Y-79284704D01*
X102274271Y-79284704D01*
X102324217Y-79290130D01*
X102327623Y-79290500D01*
X103749791Y-79290500D01*
X105172376Y-79290499D01*
X105175770Y-79290130D01*
X105175776Y-79290130D01*
X105225722Y-79284705D01*
X105225726Y-79284704D01*
X105233580Y-79283851D01*
X105367824Y-79233526D01*
X105375003Y-79228146D01*
X105375006Y-79228144D01*
X105475365Y-79152928D01*
X105482546Y-79147546D01*
X105488995Y-79138941D01*
X105563144Y-79040006D01*
X105563146Y-79040003D01*
X105568526Y-79032824D01*
X105612299Y-78916059D01*
X105616079Y-78905975D01*
X105616079Y-78905973D01*
X105618851Y-78898580D01*
X105621725Y-78872130D01*
X105625131Y-78840774D01*
X105625131Y-78840773D01*
X105625500Y-78837377D01*
X105625499Y-78100000D01*
X198714341Y-78100000D01*
X198734937Y-78335408D01*
X198736361Y-78340722D01*
X198736361Y-78340723D01*
X198754497Y-78408406D01*
X198796097Y-78563663D01*
X198798419Y-78568643D01*
X198798420Y-78568645D01*
X198870792Y-78723845D01*
X198895965Y-78777829D01*
X199031505Y-78971401D01*
X199198599Y-79138495D01*
X199203107Y-79141652D01*
X199203110Y-79141654D01*
X199387661Y-79270878D01*
X199392170Y-79274035D01*
X199397152Y-79276358D01*
X199397157Y-79276361D01*
X199601355Y-79371580D01*
X199606337Y-79373903D01*
X199611645Y-79375325D01*
X199611647Y-79375326D01*
X199829277Y-79433639D01*
X199834592Y-79435063D01*
X200070000Y-79455659D01*
X200305408Y-79435063D01*
X200310723Y-79433639D01*
X200528353Y-79375326D01*
X200528355Y-79375325D01*
X200533663Y-79373903D01*
X200538645Y-79371580D01*
X200742843Y-79276361D01*
X200742848Y-79276358D01*
X200747830Y-79274035D01*
X200752339Y-79270878D01*
X200936890Y-79141654D01*
X200936893Y-79141652D01*
X200941401Y-79138495D01*
X201052491Y-79027405D01*
X201114803Y-78993379D01*
X201141586Y-78990500D01*
X203098414Y-78990500D01*
X203166535Y-79010502D01*
X203187509Y-79027405D01*
X203298599Y-79138495D01*
X203303107Y-79141652D01*
X203303110Y-79141654D01*
X203487661Y-79270878D01*
X203492170Y-79274035D01*
X203497152Y-79276358D01*
X203497157Y-79276361D01*
X203701355Y-79371580D01*
X203706337Y-79373903D01*
X203711645Y-79375325D01*
X203711647Y-79375326D01*
X203929277Y-79433639D01*
X203934592Y-79435063D01*
X204170000Y-79455659D01*
X204405408Y-79435063D01*
X204410723Y-79433639D01*
X204628353Y-79375326D01*
X204628355Y-79375325D01*
X204633663Y-79373903D01*
X204638645Y-79371580D01*
X204842843Y-79276361D01*
X204842848Y-79276358D01*
X204847830Y-79274035D01*
X204852339Y-79270878D01*
X205036890Y-79141654D01*
X205036893Y-79141652D01*
X205041401Y-79138495D01*
X205208495Y-78971401D01*
X205344035Y-78777829D01*
X205369209Y-78723845D01*
X205441580Y-78568645D01*
X205441581Y-78568643D01*
X205443903Y-78563663D01*
X205485504Y-78408406D01*
X205503639Y-78340723D01*
X205503639Y-78340722D01*
X205505063Y-78335408D01*
X205525659Y-78100000D01*
X205505063Y-77864592D01*
X205471471Y-77739224D01*
X205445326Y-77641647D01*
X205445325Y-77641645D01*
X205443903Y-77636337D01*
X205382685Y-77505056D01*
X205346358Y-77427152D01*
X205346356Y-77427149D01*
X205344035Y-77422171D01*
X205208495Y-77228599D01*
X205041401Y-77061505D01*
X205036893Y-77058348D01*
X205036890Y-77058346D01*
X204860022Y-76934502D01*
X204858181Y-76933213D01*
X204813853Y-76877756D01*
X204806544Y-76807137D01*
X204838575Y-76743776D01*
X204858181Y-76726787D01*
X205036890Y-76601654D01*
X205036893Y-76601652D01*
X205041401Y-76598495D01*
X205208495Y-76431401D01*
X205344035Y-76237829D01*
X205354666Y-76215032D01*
X205441580Y-76028645D01*
X205441581Y-76028643D01*
X205443903Y-76023663D01*
X205505063Y-75795408D01*
X205525659Y-75560000D01*
X205505063Y-75324592D01*
X205443903Y-75096337D01*
X205441580Y-75091355D01*
X205346358Y-74887152D01*
X205346356Y-74887149D01*
X205344035Y-74882171D01*
X205208495Y-74688599D01*
X205041401Y-74521505D01*
X205036893Y-74518348D01*
X205036890Y-74518346D01*
X204891768Y-74416731D01*
X204858181Y-74393213D01*
X204813853Y-74337756D01*
X204806544Y-74267137D01*
X204838575Y-74203776D01*
X204858181Y-74186787D01*
X205036890Y-74061654D01*
X205036893Y-74061652D01*
X205041401Y-74058495D01*
X205208495Y-73891401D01*
X205344035Y-73697829D01*
X205393682Y-73591363D01*
X205441580Y-73488645D01*
X205441581Y-73488643D01*
X205443903Y-73483663D01*
X205485342Y-73329011D01*
X205503639Y-73260723D01*
X205503639Y-73260722D01*
X205505063Y-73255408D01*
X205525659Y-73020000D01*
X205505063Y-72784592D01*
X205495327Y-72748256D01*
X205445326Y-72561647D01*
X205445325Y-72561645D01*
X205443903Y-72556337D01*
X205441580Y-72551355D01*
X205346358Y-72347152D01*
X205346356Y-72347149D01*
X205344035Y-72342171D01*
X205208495Y-72148599D01*
X205041401Y-71981505D01*
X205036893Y-71978348D01*
X205036890Y-71978346D01*
X204895489Y-71879336D01*
X204858181Y-71853213D01*
X204813853Y-71797756D01*
X204806544Y-71727137D01*
X204838575Y-71663776D01*
X204858181Y-71646787D01*
X204890125Y-71624420D01*
X204947609Y-71584169D01*
X205036890Y-71521654D01*
X205036893Y-71521652D01*
X205041401Y-71518495D01*
X205208495Y-71351401D01*
X205344035Y-71157829D01*
X205349327Y-71146482D01*
X205441580Y-70948645D01*
X205441581Y-70948643D01*
X205443903Y-70943663D01*
X205450305Y-70919772D01*
X205503639Y-70720723D01*
X205503639Y-70720722D01*
X205505063Y-70715408D01*
X205525659Y-70480000D01*
X205505063Y-70244592D01*
X205496658Y-70213223D01*
X205445326Y-70021647D01*
X205445325Y-70021645D01*
X205443903Y-70016337D01*
X205411136Y-69946068D01*
X205346358Y-69807152D01*
X205346356Y-69807149D01*
X205344035Y-69802171D01*
X205208495Y-69608599D01*
X205041401Y-69441505D01*
X205036893Y-69438348D01*
X205036890Y-69438346D01*
X204867157Y-69319498D01*
X204858181Y-69313213D01*
X204813853Y-69257756D01*
X204806544Y-69187137D01*
X204838575Y-69123776D01*
X204858181Y-69106787D01*
X205036890Y-68981654D01*
X205036893Y-68981652D01*
X205041401Y-68978495D01*
X205208495Y-68811401D01*
X205344035Y-68617829D01*
X205378447Y-68544034D01*
X205441580Y-68408645D01*
X205441581Y-68408643D01*
X205443903Y-68403663D01*
X205451453Y-68375488D01*
X205503639Y-68180723D01*
X205503639Y-68180722D01*
X205505063Y-68175408D01*
X205525659Y-67940000D01*
X205505063Y-67704592D01*
X205492357Y-67657172D01*
X205445326Y-67481647D01*
X205445325Y-67481645D01*
X205443903Y-67476337D01*
X205441580Y-67471355D01*
X205346358Y-67267152D01*
X205346356Y-67267149D01*
X205344035Y-67262171D01*
X205208495Y-67068599D01*
X205041401Y-66901505D01*
X205036893Y-66898348D01*
X205036890Y-66898346D01*
X204852339Y-66769122D01*
X204852336Y-66769120D01*
X204847830Y-66765965D01*
X204842848Y-66763642D01*
X204842843Y-66763639D01*
X204638645Y-66668420D01*
X204638644Y-66668419D01*
X204633663Y-66666097D01*
X204628355Y-66664675D01*
X204628353Y-66664674D01*
X204410723Y-66606361D01*
X204410722Y-66606361D01*
X204405408Y-66604937D01*
X204170000Y-66584341D01*
X203934592Y-66604937D01*
X203929278Y-66606361D01*
X203929277Y-66606361D01*
X203711647Y-66664674D01*
X203711645Y-66664675D01*
X203706337Y-66666097D01*
X203701357Y-66668419D01*
X203701355Y-66668420D01*
X203497152Y-66763642D01*
X203497149Y-66763644D01*
X203492171Y-66765965D01*
X203298599Y-66901505D01*
X203197509Y-67002595D01*
X203135197Y-67036621D01*
X203108414Y-67039500D01*
X201131586Y-67039500D01*
X201063465Y-67019498D01*
X201042491Y-67002595D01*
X200941401Y-66901505D01*
X200936893Y-66898348D01*
X200936890Y-66898346D01*
X200752339Y-66769122D01*
X200752336Y-66769120D01*
X200747830Y-66765965D01*
X200742848Y-66763642D01*
X200742843Y-66763639D01*
X200538645Y-66668420D01*
X200538644Y-66668419D01*
X200533663Y-66666097D01*
X200528355Y-66664675D01*
X200528353Y-66664674D01*
X200310723Y-66606361D01*
X200310722Y-66606361D01*
X200305408Y-66604937D01*
X200070000Y-66584341D01*
X199834592Y-66604937D01*
X199829278Y-66606361D01*
X199829277Y-66606361D01*
X199611647Y-66664674D01*
X199611645Y-66664675D01*
X199606337Y-66666097D01*
X199601357Y-66668419D01*
X199601355Y-66668420D01*
X199397152Y-66763642D01*
X199397149Y-66763644D01*
X199392171Y-66765965D01*
X199198599Y-66901505D01*
X199031505Y-67068599D01*
X198895965Y-67262171D01*
X198893644Y-67267149D01*
X198893642Y-67267152D01*
X198798420Y-67471355D01*
X198796097Y-67476337D01*
X198794675Y-67481645D01*
X198794674Y-67481647D01*
X198747643Y-67657172D01*
X198734937Y-67704592D01*
X198714341Y-67940000D01*
X198734937Y-68175408D01*
X198736361Y-68180722D01*
X198736361Y-68180723D01*
X198788548Y-68375488D01*
X198796097Y-68403663D01*
X198798419Y-68408643D01*
X198798420Y-68408645D01*
X198861554Y-68544034D01*
X198895965Y-68617829D01*
X199031505Y-68811401D01*
X199198599Y-68978495D01*
X199203107Y-68981652D01*
X199203110Y-68981654D01*
X199381820Y-69106788D01*
X199426148Y-69162245D01*
X199433457Y-69232865D01*
X199401426Y-69296225D01*
X199381822Y-69313211D01*
X199198599Y-69441505D01*
X199031505Y-69608599D01*
X198895965Y-69802171D01*
X198893644Y-69807149D01*
X198893642Y-69807152D01*
X198828864Y-69946068D01*
X198796097Y-70016337D01*
X198794675Y-70021645D01*
X198794674Y-70021647D01*
X198743342Y-70213223D01*
X198734937Y-70244592D01*
X198714341Y-70480000D01*
X198734937Y-70715408D01*
X198736361Y-70720722D01*
X198736361Y-70720723D01*
X198789696Y-70919772D01*
X198796097Y-70943663D01*
X198798419Y-70948643D01*
X198798420Y-70948645D01*
X198890674Y-71146482D01*
X198895965Y-71157829D01*
X199031505Y-71351401D01*
X199198599Y-71518495D01*
X199203107Y-71521652D01*
X199203110Y-71521654D01*
X199381820Y-71646788D01*
X199426148Y-71702245D01*
X199433457Y-71772865D01*
X199401426Y-71836225D01*
X199381822Y-71853211D01*
X199198599Y-71981505D01*
X199031505Y-72148599D01*
X198895965Y-72342171D01*
X198893644Y-72347149D01*
X198893642Y-72347152D01*
X198798420Y-72551355D01*
X198796097Y-72556337D01*
X198794675Y-72561645D01*
X198794674Y-72561647D01*
X198744673Y-72748256D01*
X198734937Y-72784592D01*
X198714341Y-73020000D01*
X198734937Y-73255408D01*
X198736361Y-73260722D01*
X198736361Y-73260723D01*
X198754659Y-73329011D01*
X198796097Y-73483663D01*
X198798419Y-73488643D01*
X198798420Y-73488645D01*
X198846319Y-73591363D01*
X198895965Y-73697829D01*
X199031505Y-73891401D01*
X199198599Y-74058495D01*
X199203107Y-74061652D01*
X199203110Y-74061654D01*
X199381820Y-74186788D01*
X199426148Y-74242245D01*
X199433457Y-74312865D01*
X199401426Y-74376225D01*
X199381822Y-74393211D01*
X199198599Y-74521505D01*
X199031505Y-74688599D01*
X198895965Y-74882171D01*
X198893644Y-74887149D01*
X198893642Y-74887152D01*
X198798420Y-75091355D01*
X198796097Y-75096337D01*
X198734937Y-75324592D01*
X198714341Y-75560000D01*
X198734937Y-75795408D01*
X198796097Y-76023663D01*
X198798419Y-76028643D01*
X198798420Y-76028645D01*
X198885335Y-76215032D01*
X198895965Y-76237829D01*
X199031505Y-76431401D01*
X199198599Y-76598495D01*
X199203107Y-76601652D01*
X199203110Y-76601654D01*
X199381820Y-76726788D01*
X199426148Y-76782245D01*
X199433457Y-76852865D01*
X199401426Y-76916225D01*
X199381822Y-76933211D01*
X199198599Y-77061505D01*
X199031505Y-77228599D01*
X198895965Y-77422171D01*
X198893644Y-77427149D01*
X198893642Y-77427152D01*
X198857315Y-77505056D01*
X198796097Y-77636337D01*
X198794675Y-77641645D01*
X198794674Y-77641647D01*
X198768529Y-77739224D01*
X198734937Y-77864592D01*
X198714341Y-78100000D01*
X105625499Y-78100000D01*
X105625499Y-77742624D01*
X105618851Y-77681420D01*
X105568526Y-77547176D01*
X105563146Y-77539997D01*
X105563144Y-77539994D01*
X105487928Y-77439635D01*
X105482546Y-77432454D01*
X105462815Y-77417666D01*
X105375006Y-77351856D01*
X105375003Y-77351854D01*
X105367824Y-77346474D01*
X105278439Y-77312966D01*
X105240975Y-77298921D01*
X105240973Y-77298921D01*
X105233580Y-77296149D01*
X105225730Y-77295296D01*
X105225729Y-77295296D01*
X105175774Y-77289869D01*
X105175773Y-77289869D01*
X105172377Y-77289500D01*
X103750209Y-77289500D01*
X102327624Y-77289501D01*
X102324230Y-77289870D01*
X102324224Y-77289870D01*
X102274278Y-77295295D01*
X102274274Y-77295296D01*
X102266420Y-77296149D01*
X102132176Y-77346474D01*
X102124997Y-77351854D01*
X102124994Y-77351856D01*
X102037185Y-77417666D01*
X102017454Y-77432454D01*
X102012072Y-77439635D01*
X101936856Y-77539994D01*
X101936854Y-77539997D01*
X101931474Y-77547176D01*
X101928324Y-77555579D01*
X101918146Y-77582729D01*
X101875505Y-77639494D01*
X101808944Y-77664194D01*
X101800164Y-77664500D01*
X99939836Y-77664500D01*
X99871715Y-77644498D01*
X99825222Y-77590842D01*
X99821854Y-77582729D01*
X99811676Y-77555579D01*
X99808526Y-77547176D01*
X99803146Y-77539997D01*
X99803144Y-77539994D01*
X99727928Y-77439635D01*
X99722546Y-77432454D01*
X99702815Y-77417666D01*
X99615006Y-77351856D01*
X99615003Y-77351854D01*
X99607824Y-77346474D01*
X99518439Y-77312966D01*
X99480975Y-77298921D01*
X99480973Y-77298921D01*
X99473580Y-77296149D01*
X99465730Y-77295296D01*
X99465729Y-77295296D01*
X99415774Y-77289869D01*
X99415773Y-77289869D01*
X99412377Y-77289500D01*
X97990209Y-77289500D01*
X96567624Y-77289501D01*
X96564230Y-77289870D01*
X96564224Y-77289870D01*
X96514278Y-77295295D01*
X96514274Y-77295296D01*
X96506420Y-77296149D01*
X96372176Y-77346474D01*
X96364997Y-77351854D01*
X96364994Y-77351856D01*
X96277185Y-77417666D01*
X96257454Y-77432454D01*
X96252072Y-77439635D01*
X96176856Y-77539994D01*
X96176854Y-77539997D01*
X96171474Y-77547176D01*
X96168324Y-77555579D01*
X96158146Y-77582729D01*
X96115505Y-77639494D01*
X96048944Y-77664194D01*
X96040164Y-77664500D01*
X91420143Y-77664500D01*
X91352022Y-77644498D01*
X91305529Y-77590842D01*
X91294567Y-77548824D01*
X91294432Y-77547176D01*
X91280395Y-77376444D01*
X91242281Y-77224704D01*
X91227009Y-77163902D01*
X91227008Y-77163898D01*
X91225750Y-77158891D01*
X91223691Y-77154155D01*
X91138366Y-76957921D01*
X91138364Y-76957918D01*
X91136306Y-76953184D01*
X91123387Y-76933214D01*
X91017277Y-76769193D01*
X91017272Y-76769187D01*
X91014466Y-76764849D01*
X90863502Y-76598941D01*
X90859451Y-76595742D01*
X90859447Y-76595738D01*
X90691524Y-76463120D01*
X90691520Y-76463118D01*
X90687469Y-76459918D01*
X90620606Y-76423008D01*
X90570636Y-76372577D01*
X90555500Y-76312700D01*
X90555500Y-75041280D01*
X90575502Y-74973159D01*
X90592405Y-74952185D01*
X91767185Y-73777406D01*
X91829497Y-73743380D01*
X91856280Y-73740501D01*
X98862296Y-73740501D01*
X98873256Y-73741018D01*
X98880666Y-73742674D01*
X98888592Y-73742425D01*
X98888593Y-73742425D01*
X98947840Y-73740563D01*
X98951798Y-73740501D01*
X98979349Y-73740501D01*
X98983272Y-73740005D01*
X98983387Y-73739998D01*
X98995067Y-73739078D01*
X99038626Y-73737710D01*
X99057715Y-73732164D01*
X99077061Y-73728157D01*
X99096791Y-73725665D01*
X99137322Y-73709617D01*
X99148530Y-73705780D01*
X99158540Y-73702872D01*
X99203572Y-73698258D01*
X99210722Y-73698821D01*
X99229604Y-73700307D01*
X99229611Y-73700307D01*
X99232060Y-73700500D01*
X99707940Y-73700500D01*
X99710387Y-73700307D01*
X99710398Y-73700307D01*
X99730595Y-73698717D01*
X99744675Y-73697609D01*
X99823390Y-73674740D01*
X99894288Y-73654142D01*
X99894290Y-73654141D01*
X99901897Y-73651931D01*
X99908715Y-73647899D01*
X99911652Y-73646628D01*
X99982114Y-73637932D01*
X100046092Y-73668712D01*
X100068834Y-73695963D01*
X100096084Y-73739998D01*
X100146242Y-73821052D01*
X100151424Y-73826225D01*
X100176119Y-73850877D01*
X100210198Y-73913160D01*
X100205195Y-73983980D01*
X100176274Y-74029067D01*
X100150630Y-74054755D01*
X100150622Y-74054765D01*
X100145457Y-74059939D01*
X100057451Y-74202713D01*
X100055146Y-74209661D01*
X100055146Y-74209662D01*
X100044836Y-74240747D01*
X100004650Y-74361902D01*
X100003950Y-74368735D01*
X100003949Y-74368739D01*
X99999818Y-74409064D01*
X99994500Y-74460965D01*
X99994501Y-74994034D01*
X100004907Y-75094335D01*
X100007086Y-75100866D01*
X100007087Y-75100871D01*
X100007346Y-75101647D01*
X100057986Y-75253432D01*
X100146242Y-75396052D01*
X100264939Y-75514543D01*
X100407713Y-75602549D01*
X100566902Y-75655350D01*
X100573735Y-75656050D01*
X100573739Y-75656051D01*
X100626346Y-75661441D01*
X100665965Y-75665500D01*
X100967655Y-75665500D01*
X101274034Y-75665499D01*
X101374335Y-75655093D01*
X101380866Y-75652914D01*
X101380871Y-75652913D01*
X101526484Y-75604332D01*
X101533432Y-75602014D01*
X101676052Y-75513758D01*
X101794543Y-75395061D01*
X101882549Y-75252287D01*
X101935350Y-75093098D01*
X101945500Y-74994035D01*
X101945499Y-74601282D01*
X101965501Y-74533162D01*
X101982404Y-74512186D01*
X102267187Y-74227404D01*
X102329499Y-74193379D01*
X102356282Y-74190500D01*
X103218465Y-74190499D01*
X103275702Y-74190499D01*
X103379482Y-74179732D01*
X103386013Y-74177553D01*
X103386018Y-74177552D01*
X103479126Y-74146488D01*
X103544110Y-74124808D01*
X103691687Y-74033485D01*
X103814296Y-73910661D01*
X103905362Y-73762925D01*
X103959998Y-73598202D01*
X103970500Y-73495703D01*
X103970499Y-72991500D01*
X103990501Y-72923379D01*
X104044156Y-72876886D01*
X104096499Y-72865500D01*
X108667303Y-72865500D01*
X108678263Y-72866017D01*
X108685673Y-72867673D01*
X108693599Y-72867424D01*
X108693600Y-72867424D01*
X108752847Y-72865562D01*
X108756805Y-72865500D01*
X108784356Y-72865500D01*
X108788279Y-72865004D01*
X108788394Y-72864997D01*
X108800074Y-72864077D01*
X108843633Y-72862709D01*
X108862722Y-72857163D01*
X108882068Y-72853156D01*
X108901798Y-72850664D01*
X108942329Y-72834616D01*
X108953530Y-72830781D01*
X108995396Y-72818618D01*
X108996762Y-72817810D01*
X109064423Y-72809460D01*
X109128401Y-72840239D01*
X109165582Y-72900721D01*
X109170000Y-72933794D01*
X109170000Y-74840000D01*
X110770000Y-76440000D01*
X110780925Y-76440151D01*
X110780926Y-76440151D01*
X115709517Y-76508131D01*
X118020000Y-76540000D01*
X119920000Y-74740000D01*
X119920000Y-70740000D01*
X117630435Y-68924138D01*
X117034195Y-68451258D01*
X117020000Y-68440000D01*
X114303227Y-68440000D01*
X114235106Y-68419998D01*
X114214132Y-68403095D01*
X112399148Y-66588111D01*
X112365122Y-66525799D01*
X112370187Y-66454984D01*
X112412734Y-66398148D01*
X112479254Y-66373337D01*
X112538283Y-66383379D01*
X112570811Y-66397455D01*
X112581472Y-66402677D01*
X112612893Y-66419951D01*
X112621398Y-66424627D01*
X112641803Y-66429866D01*
X112660508Y-66436270D01*
X112679840Y-66444636D01*
X112687666Y-66445876D01*
X112687671Y-66445877D01*
X112724842Y-66451765D01*
X112736462Y-66454171D01*
X112772908Y-66463528D01*
X112780589Y-66465500D01*
X112801650Y-66465500D01*
X112821361Y-66467051D01*
X112828344Y-66468157D01*
X112842171Y-66470347D01*
X112850063Y-66469601D01*
X112877039Y-66467051D01*
X112887534Y-66466059D01*
X112899391Y-66465500D01*
X113170576Y-66465500D01*
X113234715Y-66483046D01*
X113368103Y-66561931D01*
X113375715Y-66564142D01*
X113375716Y-66564143D01*
X113424506Y-66578318D01*
X113525325Y-66607609D01*
X113539405Y-66608717D01*
X113559602Y-66610307D01*
X113559613Y-66610307D01*
X113562060Y-66610500D01*
X114037940Y-66610500D01*
X114040387Y-66610307D01*
X114040398Y-66610307D01*
X114060595Y-66608717D01*
X114074675Y-66607609D01*
X114175494Y-66578318D01*
X114224284Y-66564143D01*
X114224285Y-66564142D01*
X114231897Y-66561931D01*
X114365285Y-66483046D01*
X114427531Y-66466018D01*
X114427514Y-66465749D01*
X114428812Y-66465667D01*
X114429424Y-66465500D01*
X114435424Y-66465500D01*
X114439695Y-66464961D01*
X114451523Y-66464029D01*
X114497068Y-66462597D01*
X114504682Y-66460385D01*
X114504687Y-66460384D01*
X114517291Y-66456722D01*
X114536655Y-66452711D01*
X114557557Y-66450071D01*
X114564928Y-66447152D01*
X114564930Y-66447152D01*
X114599919Y-66433298D01*
X114611130Y-66429459D01*
X114654897Y-66416744D01*
X114673035Y-66406018D01*
X114690780Y-66397324D01*
X114710370Y-66389568D01*
X114716783Y-66384909D01*
X114716786Y-66384907D01*
X114740112Y-66367959D01*
X114807583Y-66344067D01*
X114811287Y-66343873D01*
X114817890Y-66344219D01*
X114831579Y-66342051D01*
X114851289Y-66340500D01*
X118544811Y-66340500D01*
X118612932Y-66360502D01*
X118633906Y-66377405D01*
X119076123Y-66819622D01*
X119088960Y-66834650D01*
X119097113Y-66845872D01*
X119102015Y-66850285D01*
X119102016Y-66850287D01*
X119147488Y-66891230D01*
X119152272Y-66895771D01*
X119166621Y-66910120D01*
X119169185Y-66912196D01*
X119182405Y-66922902D01*
X119187421Y-66927186D01*
X119201263Y-66939649D01*
X119237785Y-66972534D01*
X119249792Y-66979467D01*
X119266081Y-66990662D01*
X119276852Y-66999384D01*
X119282732Y-67002380D01*
X119282735Y-67002382D01*
X119337235Y-67030152D01*
X119343030Y-67033298D01*
X119373666Y-67050985D01*
X119401717Y-67067180D01*
X119413548Y-67071024D01*
X119414904Y-67071465D01*
X119433161Y-67079028D01*
X119439630Y-67082324D01*
X119439634Y-67082325D01*
X119445513Y-67085321D01*
X119510981Y-67102863D01*
X119517282Y-67104730D01*
X119581745Y-67125675D01*
X119595088Y-67127077D01*
X119595534Y-67127124D01*
X119614972Y-67130727D01*
X119616541Y-67131147D01*
X119628355Y-67134313D01*
X119634955Y-67134659D01*
X119634956Y-67134659D01*
X119696012Y-67137859D01*
X119702586Y-67138376D01*
X119719535Y-67140157D01*
X119719537Y-67140157D01*
X119722809Y-67140501D01*
X119743134Y-67140501D01*
X119749728Y-67140674D01*
X119810797Y-67143875D01*
X119810802Y-67143875D01*
X119817389Y-67144220D01*
X119831078Y-67142052D01*
X119850788Y-67140501D01*
X120157191Y-67140501D01*
X120157198Y-67140500D01*
X192343500Y-67140500D01*
X192411621Y-67160502D01*
X192458114Y-67214158D01*
X192469500Y-67266500D01*
X192469500Y-72479213D01*
X192467949Y-72498923D01*
X192465781Y-72512612D01*
X192466126Y-72519200D01*
X192466126Y-72519204D01*
X192469327Y-72580280D01*
X192469500Y-72586874D01*
X192469500Y-72607192D01*
X192469843Y-72610459D01*
X192469844Y-72610470D01*
X192471624Y-72627400D01*
X192472141Y-72633966D01*
X192475687Y-72701646D01*
X192479274Y-72715031D01*
X192482878Y-72734479D01*
X192484326Y-72748256D01*
X192486366Y-72754533D01*
X192486366Y-72754535D01*
X192505265Y-72812701D01*
X192507138Y-72819025D01*
X192522970Y-72878109D01*
X192522972Y-72878115D01*
X192524680Y-72884488D01*
X192527676Y-72890367D01*
X192527677Y-72890371D01*
X192530973Y-72896840D01*
X192538536Y-72915097D01*
X192542821Y-72928284D01*
X192546121Y-72933999D01*
X192546121Y-72934000D01*
X192576703Y-72986971D01*
X192579849Y-72992766D01*
X192596516Y-73025475D01*
X192610617Y-73053149D01*
X192614771Y-73058278D01*
X192614771Y-73058279D01*
X192619339Y-73063920D01*
X192630534Y-73080209D01*
X192637467Y-73092216D01*
X192641888Y-73097126D01*
X192682815Y-73142580D01*
X192687099Y-73147596D01*
X192693842Y-73155922D01*
X192699881Y-73163380D01*
X192714230Y-73177729D01*
X192718771Y-73182513D01*
X192764129Y-73232888D01*
X192775351Y-73241041D01*
X192790379Y-73253878D01*
X194979405Y-75442905D01*
X195013431Y-75505217D01*
X195015830Y-75542982D01*
X195014341Y-75560000D01*
X195014820Y-75565475D01*
X195014820Y-75565478D01*
X195018265Y-75604854D01*
X195034937Y-75795408D01*
X195096097Y-76023663D01*
X195098419Y-76028643D01*
X195098420Y-76028645D01*
X195185335Y-76215032D01*
X195195965Y-76237829D01*
X195331505Y-76431401D01*
X195498599Y-76598495D01*
X195503107Y-76601652D01*
X195503110Y-76601654D01*
X195681820Y-76726788D01*
X195692170Y-76734035D01*
X195697152Y-76736358D01*
X195697157Y-76736361D01*
X195767566Y-76769193D01*
X195906337Y-76833903D01*
X195911645Y-76835325D01*
X195911647Y-76835326D01*
X196129277Y-76893639D01*
X196134592Y-76895063D01*
X196370000Y-76915659D01*
X196605408Y-76895063D01*
X196610723Y-76893639D01*
X196828353Y-76835326D01*
X196828355Y-76835325D01*
X196833663Y-76833903D01*
X196972434Y-76769193D01*
X197042843Y-76736361D01*
X197042848Y-76736358D01*
X197047830Y-76734035D01*
X197058180Y-76726788D01*
X197236890Y-76601654D01*
X197236893Y-76601652D01*
X197241401Y-76598495D01*
X197408495Y-76431401D01*
X197544035Y-76237829D01*
X197554666Y-76215032D01*
X197641580Y-76028645D01*
X197641581Y-76028643D01*
X197643903Y-76023663D01*
X197705063Y-75795408D01*
X197725659Y-75560000D01*
X197705063Y-75324592D01*
X197643903Y-75096337D01*
X197641580Y-75091355D01*
X197546358Y-74887152D01*
X197546356Y-74887149D01*
X197544035Y-74882171D01*
X197408495Y-74688599D01*
X197241401Y-74521505D01*
X197236893Y-74518348D01*
X197236890Y-74518346D01*
X197091768Y-74416731D01*
X197058181Y-74393213D01*
X197013853Y-74337756D01*
X197006544Y-74267137D01*
X197038575Y-74203776D01*
X197058181Y-74186787D01*
X197236890Y-74061654D01*
X197236893Y-74061652D01*
X197241401Y-74058495D01*
X197408495Y-73891401D01*
X197544035Y-73697829D01*
X197593682Y-73591363D01*
X197641580Y-73488645D01*
X197641581Y-73488643D01*
X197643903Y-73483663D01*
X197685342Y-73329011D01*
X197703639Y-73260723D01*
X197703639Y-73260722D01*
X197705063Y-73255408D01*
X197725659Y-73020000D01*
X197705063Y-72784592D01*
X197695327Y-72748256D01*
X197645326Y-72561647D01*
X197645325Y-72561645D01*
X197643903Y-72556337D01*
X197641580Y-72551355D01*
X197546358Y-72347152D01*
X197546356Y-72347149D01*
X197544035Y-72342171D01*
X197408495Y-72148599D01*
X197241401Y-71981505D01*
X197236893Y-71978348D01*
X197236890Y-71978346D01*
X197095489Y-71879336D01*
X197058181Y-71853213D01*
X197013853Y-71797756D01*
X197006544Y-71727137D01*
X197038575Y-71663776D01*
X197058181Y-71646787D01*
X197090125Y-71624420D01*
X197147609Y-71584169D01*
X197236890Y-71521654D01*
X197236893Y-71521652D01*
X197241401Y-71518495D01*
X197408495Y-71351401D01*
X197544035Y-71157829D01*
X197549327Y-71146482D01*
X197641580Y-70948645D01*
X197641581Y-70948643D01*
X197643903Y-70943663D01*
X197650305Y-70919772D01*
X197703639Y-70720723D01*
X197703639Y-70720722D01*
X197705063Y-70715408D01*
X197725659Y-70480000D01*
X197705063Y-70244592D01*
X197696658Y-70213223D01*
X197645326Y-70021647D01*
X197645325Y-70021645D01*
X197643903Y-70016337D01*
X197611136Y-69946068D01*
X197546358Y-69807152D01*
X197546356Y-69807149D01*
X197544035Y-69802171D01*
X197408495Y-69608599D01*
X197241401Y-69441505D01*
X197236893Y-69438348D01*
X197236890Y-69438346D01*
X197067157Y-69319498D01*
X197058181Y-69313213D01*
X197013853Y-69257756D01*
X197006544Y-69187137D01*
X197038575Y-69123776D01*
X197058181Y-69106787D01*
X197236890Y-68981654D01*
X197236893Y-68981652D01*
X197241401Y-68978495D01*
X197408495Y-68811401D01*
X197544035Y-68617829D01*
X197578447Y-68544034D01*
X197641580Y-68408645D01*
X197641581Y-68408643D01*
X197643903Y-68403663D01*
X197651453Y-68375488D01*
X197703639Y-68180723D01*
X197703639Y-68180722D01*
X197705063Y-68175408D01*
X197725659Y-67940000D01*
X197705063Y-67704592D01*
X197692357Y-67657172D01*
X197645326Y-67481647D01*
X197645325Y-67481645D01*
X197643903Y-67476337D01*
X197641580Y-67471355D01*
X197546358Y-67267152D01*
X197546356Y-67267149D01*
X197544035Y-67262171D01*
X197408495Y-67068599D01*
X197241401Y-66901505D01*
X197236893Y-66898348D01*
X197236890Y-66898346D01*
X197052339Y-66769122D01*
X197052336Y-66769120D01*
X197047830Y-66765965D01*
X197042848Y-66763642D01*
X197042843Y-66763639D01*
X196838645Y-66668420D01*
X196838644Y-66668419D01*
X196833663Y-66666097D01*
X196828355Y-66664675D01*
X196828353Y-66664674D01*
X196610723Y-66606361D01*
X196610722Y-66606361D01*
X196605408Y-66604937D01*
X196370000Y-66584341D01*
X196134592Y-66604937D01*
X196129278Y-66606361D01*
X196129277Y-66606361D01*
X195911647Y-66664674D01*
X195911645Y-66664675D01*
X195906337Y-66666097D01*
X195901357Y-66668419D01*
X195901355Y-66668420D01*
X195697152Y-66763642D01*
X195697149Y-66763644D01*
X195692171Y-66765965D01*
X195498599Y-66901505D01*
X195331505Y-67068599D01*
X195195965Y-67262171D01*
X195193644Y-67267149D01*
X195193642Y-67267152D01*
X195098420Y-67471355D01*
X195096097Y-67476337D01*
X195094675Y-67481645D01*
X195094674Y-67481647D01*
X195047643Y-67657172D01*
X195034937Y-67704592D01*
X195014341Y-67940000D01*
X195034937Y-68175408D01*
X195036361Y-68180722D01*
X195036361Y-68180723D01*
X195088548Y-68375488D01*
X195096097Y-68403663D01*
X195098419Y-68408643D01*
X195098420Y-68408645D01*
X195161554Y-68544034D01*
X195195965Y-68617829D01*
X195331505Y-68811401D01*
X195498599Y-68978495D01*
X195503107Y-68981652D01*
X195503110Y-68981654D01*
X195681820Y-69106788D01*
X195726148Y-69162245D01*
X195733457Y-69232865D01*
X195701426Y-69296225D01*
X195681822Y-69313211D01*
X195498599Y-69441505D01*
X195331505Y-69608599D01*
X195195965Y-69802171D01*
X195193644Y-69807149D01*
X195193642Y-69807152D01*
X195128864Y-69946068D01*
X195096097Y-70016337D01*
X195094675Y-70021645D01*
X195094674Y-70021647D01*
X195043342Y-70213223D01*
X195034937Y-70244592D01*
X195014341Y-70480000D01*
X195034937Y-70715408D01*
X195036361Y-70720722D01*
X195036361Y-70720723D01*
X195089696Y-70919772D01*
X195096097Y-70943663D01*
X195098419Y-70948643D01*
X195098420Y-70948645D01*
X195190674Y-71146482D01*
X195195965Y-71157829D01*
X195331505Y-71351401D01*
X195498599Y-71518495D01*
X195503107Y-71521652D01*
X195503110Y-71521654D01*
X195681820Y-71646788D01*
X195726148Y-71702245D01*
X195733457Y-71772865D01*
X195701426Y-71836225D01*
X195681822Y-71853211D01*
X195498599Y-71981505D01*
X195331505Y-72148599D01*
X195195965Y-72342171D01*
X195193644Y-72347149D01*
X195193642Y-72347152D01*
X195098420Y-72551355D01*
X195096097Y-72556337D01*
X195094675Y-72561645D01*
X195094674Y-72561647D01*
X195056162Y-72705377D01*
X195019210Y-72766000D01*
X194955350Y-72797021D01*
X194884855Y-72788593D01*
X194845360Y-72761861D01*
X194307405Y-72223906D01*
X194273379Y-72161594D01*
X194270500Y-72134811D01*
X194270500Y-66665189D01*
X194290502Y-66597068D01*
X194307405Y-66576094D01*
X197306095Y-63577405D01*
X197368407Y-63543379D01*
X197395190Y-63540500D01*
X204429213Y-63540500D01*
X204448923Y-63542051D01*
X204462612Y-63544219D01*
X204469200Y-63543874D01*
X204469204Y-63543874D01*
X204530280Y-63540673D01*
X204536874Y-63540500D01*
X204557192Y-63540500D01*
X204560459Y-63540157D01*
X204560470Y-63540156D01*
X204577400Y-63538376D01*
X204583966Y-63537859D01*
X204613627Y-63536305D01*
X204645052Y-63534659D01*
X204645057Y-63534658D01*
X204651646Y-63534313D01*
X204665037Y-63530725D01*
X204684479Y-63527122D01*
X204691693Y-63526364D01*
X204691695Y-63526364D01*
X204698256Y-63525674D01*
X204704533Y-63523634D01*
X204704535Y-63523634D01*
X204762701Y-63504735D01*
X204769025Y-63502862D01*
X204828109Y-63487030D01*
X204828115Y-63487028D01*
X204834488Y-63485320D01*
X204840367Y-63482324D01*
X204840371Y-63482323D01*
X204846840Y-63479027D01*
X204865097Y-63471464D01*
X204866453Y-63471023D01*
X204878284Y-63467179D01*
X204887402Y-63461915D01*
X204936971Y-63433297D01*
X204942766Y-63430151D01*
X204997266Y-63402381D01*
X204997269Y-63402379D01*
X205003149Y-63399383D01*
X205013920Y-63390661D01*
X205030209Y-63379466D01*
X205042216Y-63372533D01*
X205059107Y-63357324D01*
X205092580Y-63327185D01*
X205097596Y-63322901D01*
X205107268Y-63315068D01*
X205113380Y-63310119D01*
X205127729Y-63295770D01*
X205132513Y-63291229D01*
X205177985Y-63250286D01*
X205177986Y-63250284D01*
X205182888Y-63245871D01*
X205191041Y-63234649D01*
X205203878Y-63219621D01*
X207104441Y-61319059D01*
X207166753Y-61285033D01*
X207237569Y-61290098D01*
X207294404Y-61332645D01*
X207312942Y-61368861D01*
X207313255Y-61370249D01*
X207315199Y-61375036D01*
X207315200Y-61375040D01*
X207369359Y-61508418D01*
X207406084Y-61598861D01*
X207408789Y-61603276D01*
X207408790Y-61603277D01*
X207428002Y-61634627D01*
X207535006Y-61809241D01*
X207696557Y-61995741D01*
X207700532Y-61999041D01*
X207700535Y-61999044D01*
X207715924Y-62011820D01*
X207886399Y-62153351D01*
X208099433Y-62277838D01*
X208104253Y-62279678D01*
X208104258Y-62279681D01*
X208218547Y-62323323D01*
X208329939Y-62365859D01*
X208335007Y-62366890D01*
X208335010Y-62366891D01*
X208441875Y-62388633D01*
X208571726Y-62415052D01*
X208576899Y-62415242D01*
X208576902Y-62415242D01*
X208813136Y-62423904D01*
X208813140Y-62423904D01*
X208818300Y-62424093D01*
X208823420Y-62423437D01*
X208823422Y-62423437D01*
X208919164Y-62411172D01*
X209063041Y-62392741D01*
X209067990Y-62391256D01*
X209067996Y-62391255D01*
X209294424Y-62323323D01*
X209294423Y-62323323D01*
X209299374Y-62321838D01*
X209411312Y-62267000D01*
X209516303Y-62215566D01*
X209516308Y-62215563D01*
X209520954Y-62213287D01*
X209525164Y-62210284D01*
X209525169Y-62210281D01*
X209717617Y-62073009D01*
X209717622Y-62073005D01*
X209721829Y-62070004D01*
X209896605Y-61895837D01*
X209939293Y-61836431D01*
X210037570Y-61699663D01*
X210040588Y-61695463D01*
X210043422Y-61689730D01*
X210102149Y-61570903D01*
X210149911Y-61474264D01*
X210170435Y-61406713D01*
X210220135Y-61243132D01*
X210220136Y-61243126D01*
X210221639Y-61238180D01*
X210239128Y-61105336D01*
X210253408Y-60996872D01*
X210253409Y-60996866D01*
X210253845Y-60993550D01*
X210255643Y-60920000D01*
X210243935Y-60777595D01*
X210235849Y-60679240D01*
X210235848Y-60679234D01*
X210235425Y-60674089D01*
X210175316Y-60434783D01*
X210081707Y-60219498D01*
X210078993Y-60213256D01*
X210078993Y-60213255D01*
X210076928Y-60208507D01*
X209942905Y-60001339D01*
X209776846Y-59818842D01*
X209772795Y-59815643D01*
X209772791Y-59815639D01*
X209723882Y-59777014D01*
X209690265Y-59750465D01*
X209649203Y-59692550D01*
X209645971Y-59621627D01*
X209681596Y-59560215D01*
X209695186Y-59549008D01*
X209721829Y-59530004D01*
X209896605Y-59355837D01*
X209905666Y-59343228D01*
X210037570Y-59159663D01*
X210040588Y-59155463D01*
X210044537Y-59147474D01*
X210134419Y-58965610D01*
X210149911Y-58934264D01*
X210195410Y-58784511D01*
X210220135Y-58703132D01*
X210220136Y-58703126D01*
X210221639Y-58698180D01*
X210239238Y-58564500D01*
X210253408Y-58456872D01*
X210253409Y-58456866D01*
X210253845Y-58453550D01*
X210254307Y-58434657D01*
X210255561Y-58383364D01*
X210255561Y-58383360D01*
X210255643Y-58380000D01*
X210246196Y-58265096D01*
X210235849Y-58139240D01*
X210235848Y-58139234D01*
X210235425Y-58134089D01*
X210175316Y-57894783D01*
X210097660Y-57716188D01*
X210078993Y-57673256D01*
X210078993Y-57673255D01*
X210076928Y-57668507D01*
X209942905Y-57461339D01*
X209918333Y-57434334D01*
X209886870Y-57399757D01*
X209776846Y-57278842D01*
X209772795Y-57275643D01*
X209772791Y-57275639D01*
X209727054Y-57239519D01*
X209690265Y-57210465D01*
X209649203Y-57152550D01*
X209645971Y-57081627D01*
X209681596Y-57020215D01*
X209695186Y-57009008D01*
X209721829Y-56990004D01*
X209896605Y-56815837D01*
X209908332Y-56799518D01*
X210037570Y-56619663D01*
X210040588Y-56615463D01*
X210046044Y-56604425D01*
X210095774Y-56503803D01*
X210149911Y-56394264D01*
X210167771Y-56335481D01*
X210220135Y-56163132D01*
X210220136Y-56163126D01*
X210221639Y-56158180D01*
X210239608Y-56021689D01*
X210253408Y-55916872D01*
X210253409Y-55916866D01*
X210253845Y-55913550D01*
X210254861Y-55872004D01*
X210255561Y-55843364D01*
X210255561Y-55843360D01*
X210255643Y-55840000D01*
X210244495Y-55704405D01*
X210235849Y-55599240D01*
X210235848Y-55599234D01*
X210235425Y-55594089D01*
X210175316Y-55354783D01*
X210092447Y-55164197D01*
X210078993Y-55133256D01*
X210078993Y-55133255D01*
X210076928Y-55128507D01*
X209942905Y-54921339D01*
X209920363Y-54896565D01*
X209890243Y-54863464D01*
X209776846Y-54738842D01*
X209772795Y-54735643D01*
X209772791Y-54735639D01*
X209721922Y-54695466D01*
X209690265Y-54670465D01*
X209649203Y-54612550D01*
X209645971Y-54541627D01*
X209681596Y-54480215D01*
X209695186Y-54469008D01*
X209721829Y-54450004D01*
X209896605Y-54275837D01*
X209900225Y-54270800D01*
X210037570Y-54079663D01*
X210040588Y-54075463D01*
X210149911Y-53854264D01*
X210176306Y-53767387D01*
X210220135Y-53623132D01*
X210220136Y-53623126D01*
X210221639Y-53618180D01*
X210236655Y-53504124D01*
X210253408Y-53376872D01*
X210253409Y-53376866D01*
X210253845Y-53373550D01*
X210254089Y-53363576D01*
X210255561Y-53303364D01*
X210255561Y-53303360D01*
X210255643Y-53300000D01*
X210245938Y-53181959D01*
X210235849Y-53059240D01*
X210235848Y-53059234D01*
X210235425Y-53054089D01*
X210175316Y-52814783D01*
X210092426Y-52624150D01*
X210078993Y-52593256D01*
X210078993Y-52593255D01*
X210076928Y-52588507D01*
X209942905Y-52381339D01*
X209916635Y-52352468D01*
X209858553Y-52288637D01*
X209776846Y-52198842D01*
X209772795Y-52195643D01*
X209772791Y-52195639D01*
X209587264Y-52049119D01*
X209587259Y-52049116D01*
X209583210Y-52045918D01*
X209578694Y-52043425D01*
X209578691Y-52043423D01*
X209371722Y-51929170D01*
X209371718Y-51929168D01*
X209367198Y-51926673D01*
X209362329Y-51924949D01*
X209362325Y-51924947D01*
X209139485Y-51846035D01*
X209139481Y-51846034D01*
X209134610Y-51844309D01*
X209129517Y-51843402D01*
X209129514Y-51843401D01*
X208896783Y-51801945D01*
X208896777Y-51801944D01*
X208891694Y-51801039D01*
X208812324Y-51800069D01*
X208650142Y-51798088D01*
X208650140Y-51798088D01*
X208644972Y-51798025D01*
X208401070Y-51835347D01*
X208166540Y-51912003D01*
X207947679Y-52025935D01*
X207943546Y-52029038D01*
X207943543Y-52029040D01*
X207782434Y-52150004D01*
X207750364Y-52174083D01*
X207746792Y-52177821D01*
X207602320Y-52329003D01*
X207579896Y-52352468D01*
X207576982Y-52356740D01*
X207576981Y-52356741D01*
X207483626Y-52493594D01*
X207440851Y-52556300D01*
X207413201Y-52615868D01*
X207344235Y-52764443D01*
X207336965Y-52780104D01*
X207271026Y-53017871D01*
X207244806Y-53263214D01*
X207245103Y-53268366D01*
X207245103Y-53268370D01*
X207250048Y-53354120D01*
X207259010Y-53509545D01*
X207260147Y-53514591D01*
X207260148Y-53514597D01*
X207283492Y-53618180D01*
X207313255Y-53750249D01*
X207315199Y-53755036D01*
X207316747Y-53759977D01*
X207314952Y-53760540D01*
X207321233Y-53823060D01*
X207286489Y-53888920D01*
X203154503Y-58020906D01*
X203092191Y-58054932D01*
X203021376Y-58049867D01*
X202973077Y-58014742D01*
X202972166Y-58015655D01*
X202908588Y-57952188D01*
X202848311Y-57892016D01*
X202842079Y-57888175D01*
X202836555Y-57883812D01*
X202795492Y-57825895D01*
X202792260Y-57754972D01*
X202827885Y-57693561D01*
X202837715Y-57685979D01*
X202837385Y-57685563D01*
X202843117Y-57681020D01*
X202849345Y-57677166D01*
X202972984Y-57553311D01*
X202977416Y-57546122D01*
X203021200Y-57475090D01*
X203064814Y-57404334D01*
X203080827Y-57356057D01*
X203117744Y-57244759D01*
X203117745Y-57244757D01*
X203119910Y-57238228D01*
X203130500Y-57134866D01*
X203130500Y-56385134D01*
X203129568Y-56376154D01*
X203120353Y-56287339D01*
X203120352Y-56287335D01*
X203119641Y-56280481D01*
X203116380Y-56270705D01*
X203066574Y-56121419D01*
X203064256Y-56114471D01*
X202972166Y-55965655D01*
X202966984Y-55960482D01*
X202962437Y-55954745D01*
X202963576Y-55953842D01*
X202933402Y-55898694D01*
X202930500Y-55871806D01*
X202930500Y-52173753D01*
X202950502Y-52105632D01*
X202967560Y-52084502D01*
X203072944Y-51979485D01*
X203076605Y-51975837D01*
X203098407Y-51945497D01*
X203217570Y-51779663D01*
X203220588Y-51775463D01*
X203228983Y-51758478D01*
X203327617Y-51558905D01*
X203329911Y-51554264D01*
X203360059Y-51455035D01*
X203400135Y-51323132D01*
X203400136Y-51323126D01*
X203401639Y-51318180D01*
X203433845Y-51073550D01*
X203435643Y-51000000D01*
X203419588Y-50804718D01*
X203415849Y-50759240D01*
X203415848Y-50759234D01*
X203415425Y-50754089D01*
X203355316Y-50514783D01*
X203256928Y-50288507D01*
X203122905Y-50081339D01*
X203096635Y-50052468D01*
X203043889Y-49994501D01*
X202956846Y-49898842D01*
X202952795Y-49895643D01*
X202952791Y-49895639D01*
X202767264Y-49749119D01*
X202767259Y-49749116D01*
X202763210Y-49745918D01*
X202758694Y-49743425D01*
X202758691Y-49743423D01*
X202551722Y-49629170D01*
X202551718Y-49629168D01*
X202547198Y-49626673D01*
X202542329Y-49624949D01*
X202542325Y-49624947D01*
X202319485Y-49546035D01*
X202319481Y-49546034D01*
X202314610Y-49544309D01*
X202309517Y-49543402D01*
X202309514Y-49543401D01*
X202076783Y-49501945D01*
X202076777Y-49501944D01*
X202071694Y-49501039D01*
X201992324Y-49500069D01*
X201830142Y-49498088D01*
X201830140Y-49498088D01*
X201824972Y-49498025D01*
X201581070Y-49535347D01*
X201346540Y-49612003D01*
X201341948Y-49614393D01*
X201341949Y-49614393D01*
X201149934Y-49714350D01*
X201127679Y-49725935D01*
X201123546Y-49729038D01*
X201123543Y-49729040D01*
X200934499Y-49870978D01*
X200930364Y-49874083D01*
X200842428Y-49966103D01*
X200766086Y-50045991D01*
X200759896Y-50052468D01*
X200756983Y-50056739D01*
X200756823Y-50056936D01*
X200698408Y-50097288D01*
X200627451Y-50099652D01*
X200565710Y-50062441D01*
X200420325Y-49902665D01*
X200420323Y-49902663D01*
X200416846Y-49898842D01*
X200412795Y-49895643D01*
X200412791Y-49895639D01*
X200227264Y-49749119D01*
X200227259Y-49749116D01*
X200223210Y-49745918D01*
X200218694Y-49743425D01*
X200218691Y-49743423D01*
X200011722Y-49629170D01*
X200011718Y-49629168D01*
X200007198Y-49626673D01*
X200002329Y-49624949D01*
X200002325Y-49624947D01*
X199779485Y-49546035D01*
X199779481Y-49546034D01*
X199774610Y-49544309D01*
X199769517Y-49543402D01*
X199769514Y-49543401D01*
X199536783Y-49501945D01*
X199536777Y-49501944D01*
X199531694Y-49501039D01*
X199452324Y-49500069D01*
X199290142Y-49498088D01*
X199290140Y-49498088D01*
X199284972Y-49498025D01*
X199041070Y-49535347D01*
X198806540Y-49612003D01*
X198801948Y-49614393D01*
X198801949Y-49614393D01*
X198609934Y-49714350D01*
X198587679Y-49725935D01*
X198583546Y-49729038D01*
X198583543Y-49729040D01*
X198394499Y-49870978D01*
X198390364Y-49874083D01*
X198302428Y-49966103D01*
X198226086Y-50045991D01*
X198219896Y-50052468D01*
X198216983Y-50056739D01*
X198216823Y-50056936D01*
X198158408Y-50097288D01*
X198087451Y-50099652D01*
X198025710Y-50062441D01*
X197880325Y-49902665D01*
X197880323Y-49902663D01*
X197876846Y-49898842D01*
X197872795Y-49895643D01*
X197872791Y-49895639D01*
X197687264Y-49749119D01*
X197687259Y-49749116D01*
X197683210Y-49745918D01*
X197678694Y-49743425D01*
X197678691Y-49743423D01*
X197471722Y-49629170D01*
X197471718Y-49629168D01*
X197467198Y-49626673D01*
X197462329Y-49624949D01*
X197462325Y-49624947D01*
X197239485Y-49546035D01*
X197239481Y-49546034D01*
X197234610Y-49544309D01*
X197229517Y-49543402D01*
X197229514Y-49543401D01*
X196996783Y-49501945D01*
X196996777Y-49501944D01*
X196991694Y-49501039D01*
X196912324Y-49500069D01*
X196750142Y-49498088D01*
X196750140Y-49498088D01*
X196744972Y-49498025D01*
X196501070Y-49535347D01*
X196266540Y-49612003D01*
X196261948Y-49614393D01*
X196261949Y-49614393D01*
X196069934Y-49714350D01*
X196047679Y-49725935D01*
X196043546Y-49729038D01*
X196043543Y-49729040D01*
X195854499Y-49870978D01*
X195850364Y-49874083D01*
X195762428Y-49966103D01*
X195686086Y-50045991D01*
X195679896Y-50052468D01*
X195676983Y-50056739D01*
X195676823Y-50056936D01*
X195618408Y-50097288D01*
X195547451Y-50099652D01*
X195485710Y-50062441D01*
X195340325Y-49902665D01*
X195340323Y-49902663D01*
X195336846Y-49898842D01*
X195332795Y-49895643D01*
X195332791Y-49895639D01*
X195147264Y-49749119D01*
X195147259Y-49749116D01*
X195143210Y-49745918D01*
X195138694Y-49743425D01*
X195138691Y-49743423D01*
X194931722Y-49629170D01*
X194931718Y-49629168D01*
X194927198Y-49626673D01*
X194922329Y-49624949D01*
X194922325Y-49624947D01*
X194699485Y-49546035D01*
X194699481Y-49546034D01*
X194694610Y-49544309D01*
X194689517Y-49543402D01*
X194689514Y-49543401D01*
X194456783Y-49501945D01*
X194456777Y-49501944D01*
X194451694Y-49501039D01*
X194372324Y-49500069D01*
X194210142Y-49498088D01*
X194210140Y-49498088D01*
X194204972Y-49498025D01*
X193961070Y-49535347D01*
X193726540Y-49612003D01*
X193721948Y-49614393D01*
X193721949Y-49614393D01*
X193529934Y-49714350D01*
X193507679Y-49725935D01*
X193503546Y-49729038D01*
X193503543Y-49729040D01*
X193314499Y-49870978D01*
X193310364Y-49874083D01*
X193222428Y-49966103D01*
X193146086Y-50045991D01*
X193139896Y-50052468D01*
X193136983Y-50056739D01*
X193136823Y-50056936D01*
X193078408Y-50097288D01*
X193007451Y-50099652D01*
X192945710Y-50062441D01*
X192800325Y-49902665D01*
X192800323Y-49902663D01*
X192796846Y-49898842D01*
X192792795Y-49895643D01*
X192792791Y-49895639D01*
X192607264Y-49749119D01*
X192607259Y-49749116D01*
X192603210Y-49745918D01*
X192598694Y-49743425D01*
X192598691Y-49743423D01*
X192391722Y-49629170D01*
X192391718Y-49629168D01*
X192387198Y-49626673D01*
X192382329Y-49624949D01*
X192382325Y-49624947D01*
X192159485Y-49546035D01*
X192159481Y-49546034D01*
X192154610Y-49544309D01*
X192149517Y-49543402D01*
X192149514Y-49543401D01*
X191916783Y-49501945D01*
X191916777Y-49501944D01*
X191911694Y-49501039D01*
X191832324Y-49500069D01*
X191670142Y-49498088D01*
X191670140Y-49498088D01*
X191664972Y-49498025D01*
X191421070Y-49535347D01*
X191186540Y-49612003D01*
X191181948Y-49614393D01*
X191181949Y-49614393D01*
X190989934Y-49714350D01*
X190967679Y-49725935D01*
X190963546Y-49729038D01*
X190963543Y-49729040D01*
X190774499Y-49870978D01*
X190770364Y-49874083D01*
X190682428Y-49966103D01*
X190606086Y-50045991D01*
X190599896Y-50052468D01*
X190596983Y-50056739D01*
X190596823Y-50056936D01*
X190538408Y-50097288D01*
X190467451Y-50099652D01*
X190405710Y-50062441D01*
X190260325Y-49902665D01*
X190260323Y-49902663D01*
X190256846Y-49898842D01*
X190252795Y-49895643D01*
X190252791Y-49895639D01*
X190067264Y-49749119D01*
X190067259Y-49749116D01*
X190063210Y-49745918D01*
X190058694Y-49743425D01*
X190058691Y-49743423D01*
X189851722Y-49629170D01*
X189851718Y-49629168D01*
X189847198Y-49626673D01*
X189842329Y-49624949D01*
X189842325Y-49624947D01*
X189619485Y-49546035D01*
X189619481Y-49546034D01*
X189614610Y-49544309D01*
X189609517Y-49543402D01*
X189609514Y-49543401D01*
X189376783Y-49501945D01*
X189376777Y-49501944D01*
X189371694Y-49501039D01*
X189292324Y-49500069D01*
X189130142Y-49498088D01*
X189130140Y-49498088D01*
X189124972Y-49498025D01*
X188881070Y-49535347D01*
X188646540Y-49612003D01*
X188641948Y-49614393D01*
X188641949Y-49614393D01*
X188449934Y-49714350D01*
X188427679Y-49725935D01*
X188423546Y-49729038D01*
X188423543Y-49729040D01*
X188234499Y-49870978D01*
X188230364Y-49874083D01*
X188142428Y-49966103D01*
X188066086Y-50045991D01*
X188059896Y-50052468D01*
X188056983Y-50056739D01*
X188056823Y-50056936D01*
X187998408Y-50097288D01*
X187927451Y-50099652D01*
X187865710Y-50062441D01*
X187720325Y-49902665D01*
X187720323Y-49902663D01*
X187716846Y-49898842D01*
X187712795Y-49895643D01*
X187712791Y-49895639D01*
X187527264Y-49749119D01*
X187527259Y-49749116D01*
X187523210Y-49745918D01*
X187518694Y-49743425D01*
X187518691Y-49743423D01*
X187311722Y-49629170D01*
X187311718Y-49629168D01*
X187307198Y-49626673D01*
X187302329Y-49624949D01*
X187302325Y-49624947D01*
X187079485Y-49546035D01*
X187079481Y-49546034D01*
X187074610Y-49544309D01*
X187069517Y-49543402D01*
X187069514Y-49543401D01*
X186836783Y-49501945D01*
X186836777Y-49501944D01*
X186831694Y-49501039D01*
X186752324Y-49500069D01*
X186590142Y-49498088D01*
X186590140Y-49498088D01*
X186584972Y-49498025D01*
X186341070Y-49535347D01*
X186106540Y-49612003D01*
X186101948Y-49614393D01*
X186101949Y-49614393D01*
X185909934Y-49714350D01*
X185887679Y-49725935D01*
X185883546Y-49729038D01*
X185883543Y-49729040D01*
X185694499Y-49870978D01*
X185690364Y-49874083D01*
X185602428Y-49966103D01*
X185526086Y-50045991D01*
X185519896Y-50052468D01*
X185516983Y-50056739D01*
X185516823Y-50056936D01*
X185458408Y-50097288D01*
X185387451Y-50099652D01*
X185325710Y-50062441D01*
X185180325Y-49902665D01*
X185180323Y-49902663D01*
X185176846Y-49898842D01*
X185172795Y-49895643D01*
X185172791Y-49895639D01*
X184987264Y-49749119D01*
X184987259Y-49749116D01*
X184983210Y-49745918D01*
X184978694Y-49743425D01*
X184978691Y-49743423D01*
X184771722Y-49629170D01*
X184771718Y-49629168D01*
X184767198Y-49626673D01*
X184762329Y-49624949D01*
X184762325Y-49624947D01*
X184539485Y-49546035D01*
X184539481Y-49546034D01*
X184534610Y-49544309D01*
X184529517Y-49543402D01*
X184529514Y-49543401D01*
X184296783Y-49501945D01*
X184296777Y-49501944D01*
X184291694Y-49501039D01*
X184212324Y-49500069D01*
X184050142Y-49498088D01*
X184050140Y-49498088D01*
X184044972Y-49498025D01*
X183801070Y-49535347D01*
X183566540Y-49612003D01*
X183561948Y-49614393D01*
X183561949Y-49614393D01*
X183369934Y-49714350D01*
X183347679Y-49725935D01*
X183343546Y-49729038D01*
X183343543Y-49729040D01*
X183154499Y-49870978D01*
X183150364Y-49874083D01*
X183062428Y-49966103D01*
X182986086Y-50045991D01*
X182979896Y-50052468D01*
X182976983Y-50056739D01*
X182976823Y-50056936D01*
X182918408Y-50097288D01*
X182847451Y-50099652D01*
X182785710Y-50062441D01*
X182640325Y-49902665D01*
X182640323Y-49902663D01*
X182636846Y-49898842D01*
X182632795Y-49895643D01*
X182632791Y-49895639D01*
X182447264Y-49749119D01*
X182447259Y-49749116D01*
X182443210Y-49745918D01*
X182438694Y-49743425D01*
X182438691Y-49743423D01*
X182231722Y-49629170D01*
X182231718Y-49629168D01*
X182227198Y-49626673D01*
X182222329Y-49624949D01*
X182222325Y-49624947D01*
X181999485Y-49546035D01*
X181999481Y-49546034D01*
X181994610Y-49544309D01*
X181989517Y-49543402D01*
X181989514Y-49543401D01*
X181756783Y-49501945D01*
X181756777Y-49501944D01*
X181751694Y-49501039D01*
X181672324Y-49500069D01*
X181510142Y-49498088D01*
X181510140Y-49498088D01*
X181504972Y-49498025D01*
X181261070Y-49535347D01*
X181026540Y-49612003D01*
X181021948Y-49614393D01*
X181021949Y-49614393D01*
X180829934Y-49714350D01*
X180807679Y-49725935D01*
X180803546Y-49729038D01*
X180803543Y-49729040D01*
X180614499Y-49870978D01*
X180610364Y-49874083D01*
X180522428Y-49966103D01*
X180446086Y-50045991D01*
X180439896Y-50052468D01*
X180436983Y-50056739D01*
X180436823Y-50056936D01*
X180378408Y-50097288D01*
X180307451Y-50099652D01*
X180245710Y-50062441D01*
X180100325Y-49902665D01*
X180100323Y-49902663D01*
X180096846Y-49898842D01*
X180092795Y-49895643D01*
X180092791Y-49895639D01*
X179907264Y-49749119D01*
X179907259Y-49749116D01*
X179903210Y-49745918D01*
X179898694Y-49743425D01*
X179898691Y-49743423D01*
X179691722Y-49629170D01*
X179691718Y-49629168D01*
X179687198Y-49626673D01*
X179682329Y-49624949D01*
X179682325Y-49624947D01*
X179459485Y-49546035D01*
X179459481Y-49546034D01*
X179454610Y-49544309D01*
X179449517Y-49543402D01*
X179449514Y-49543401D01*
X179216783Y-49501945D01*
X179216777Y-49501944D01*
X179211694Y-49501039D01*
X179132324Y-49500069D01*
X178970142Y-49498088D01*
X178970140Y-49498088D01*
X178964972Y-49498025D01*
X178721070Y-49535347D01*
X178486540Y-49612003D01*
X178481948Y-49614393D01*
X178481949Y-49614393D01*
X178289934Y-49714350D01*
X178267679Y-49725935D01*
X178263546Y-49729038D01*
X178263543Y-49729040D01*
X178074499Y-49870978D01*
X178070364Y-49874083D01*
X177982428Y-49966103D01*
X177906086Y-50045991D01*
X177899896Y-50052468D01*
X177896983Y-50056739D01*
X177896823Y-50056936D01*
X177838408Y-50097288D01*
X177767451Y-50099652D01*
X177705710Y-50062441D01*
X177560325Y-49902665D01*
X177560323Y-49902663D01*
X177556846Y-49898842D01*
X177552795Y-49895643D01*
X177552791Y-49895639D01*
X177367264Y-49749119D01*
X177367259Y-49749116D01*
X177363210Y-49745918D01*
X177358694Y-49743425D01*
X177358691Y-49743423D01*
X177151722Y-49629170D01*
X177151718Y-49629168D01*
X177147198Y-49626673D01*
X177142329Y-49624949D01*
X177142325Y-49624947D01*
X176919485Y-49546035D01*
X176919481Y-49546034D01*
X176914610Y-49544309D01*
X176909517Y-49543402D01*
X176909514Y-49543401D01*
X176676783Y-49501945D01*
X176676777Y-49501944D01*
X176671694Y-49501039D01*
X176592324Y-49500069D01*
X176430142Y-49498088D01*
X176430140Y-49498088D01*
X176424972Y-49498025D01*
X176181070Y-49535347D01*
X175946540Y-49612003D01*
X175941948Y-49614393D01*
X175941949Y-49614393D01*
X175749934Y-49714350D01*
X175727679Y-49725935D01*
X175723546Y-49729038D01*
X175723543Y-49729040D01*
X175534499Y-49870978D01*
X175530364Y-49874083D01*
X175442428Y-49966103D01*
X175366086Y-50045991D01*
X175359896Y-50052468D01*
X175356983Y-50056739D01*
X175356823Y-50056936D01*
X175298408Y-50097288D01*
X175227451Y-50099652D01*
X175165710Y-50062441D01*
X175020325Y-49902665D01*
X175020323Y-49902663D01*
X175016846Y-49898842D01*
X175012795Y-49895643D01*
X175012791Y-49895639D01*
X174827264Y-49749119D01*
X174827259Y-49749116D01*
X174823210Y-49745918D01*
X174818694Y-49743425D01*
X174818691Y-49743423D01*
X174611722Y-49629170D01*
X174611718Y-49629168D01*
X174607198Y-49626673D01*
X174602329Y-49624949D01*
X174602325Y-49624947D01*
X174379485Y-49546035D01*
X174379481Y-49546034D01*
X174374610Y-49544309D01*
X174369517Y-49543402D01*
X174369514Y-49543401D01*
X174136783Y-49501945D01*
X174136777Y-49501944D01*
X174131694Y-49501039D01*
X174052324Y-49500069D01*
X173890142Y-49498088D01*
X173890140Y-49498088D01*
X173884972Y-49498025D01*
X173641070Y-49535347D01*
X173406540Y-49612003D01*
X173401948Y-49614393D01*
X173401949Y-49614393D01*
X173209934Y-49714350D01*
X173187679Y-49725935D01*
X173183546Y-49729038D01*
X173183543Y-49729040D01*
X172994499Y-49870978D01*
X172990364Y-49874083D01*
X172986792Y-49877821D01*
X172826086Y-50045991D01*
X172819896Y-50052468D01*
X172816982Y-50056740D01*
X172816981Y-50056741D01*
X172750758Y-50153820D01*
X172680851Y-50256300D01*
X172629665Y-50366571D01*
X172589270Y-50453596D01*
X172576965Y-50480104D01*
X172511026Y-50717871D01*
X172484806Y-50963214D01*
X172499010Y-51209545D01*
X172500147Y-51214591D01*
X172500148Y-51214597D01*
X172522336Y-51313051D01*
X172553255Y-51450249D01*
X172555091Y-51454769D01*
X172556373Y-51525670D01*
X172523950Y-51581459D01*
X164172234Y-59933175D01*
X164109922Y-59967201D01*
X164083139Y-59970080D01*
X162752897Y-59970080D01*
X162750288Y-59969916D01*
X162749019Y-59969590D01*
X147083190Y-59969590D01*
X147015069Y-59949588D01*
X146968576Y-59895932D01*
X146958472Y-59825658D01*
X146987966Y-59761078D01*
X146994095Y-59754495D01*
X154267911Y-52480679D01*
X154330223Y-52446653D01*
X154382126Y-52446304D01*
X154621726Y-52495052D01*
X154626899Y-52495242D01*
X154626902Y-52495242D01*
X154863136Y-52503904D01*
X154863140Y-52503904D01*
X154868300Y-52504093D01*
X154873420Y-52503437D01*
X154873422Y-52503437D01*
X154950258Y-52493594D01*
X155113041Y-52472741D01*
X155117990Y-52471256D01*
X155117996Y-52471255D01*
X155321085Y-52410325D01*
X155349374Y-52401838D01*
X155493605Y-52331180D01*
X155566303Y-52295566D01*
X155566308Y-52295563D01*
X155570954Y-52293287D01*
X155575164Y-52290284D01*
X155575169Y-52290281D01*
X155767617Y-52153009D01*
X155767622Y-52153005D01*
X155771829Y-52150004D01*
X155946605Y-51975837D01*
X155968407Y-51945497D01*
X156087570Y-51779663D01*
X156090588Y-51775463D01*
X156098983Y-51758478D01*
X156197617Y-51558905D01*
X156199911Y-51554264D01*
X156230059Y-51455035D01*
X156270135Y-51323132D01*
X156270136Y-51323126D01*
X156271639Y-51318180D01*
X156303845Y-51073550D01*
X156305643Y-51000000D01*
X156289588Y-50804718D01*
X156285849Y-50759240D01*
X156285848Y-50759234D01*
X156285425Y-50754089D01*
X156225316Y-50514783D01*
X156126928Y-50288507D01*
X155992905Y-50081339D01*
X155966635Y-50052468D01*
X155913889Y-49994501D01*
X155826846Y-49898842D01*
X155822795Y-49895643D01*
X155822791Y-49895639D01*
X155637264Y-49749119D01*
X155637259Y-49749116D01*
X155633210Y-49745918D01*
X155628694Y-49743425D01*
X155628691Y-49743423D01*
X155421722Y-49629170D01*
X155421718Y-49629168D01*
X155417198Y-49626673D01*
X155412329Y-49624949D01*
X155412325Y-49624947D01*
X155189485Y-49546035D01*
X155189481Y-49546034D01*
X155184610Y-49544309D01*
X155179517Y-49543402D01*
X155179514Y-49543401D01*
X154946783Y-49501945D01*
X154946777Y-49501944D01*
X154941694Y-49501039D01*
X154862324Y-49500069D01*
X154700142Y-49498088D01*
X154700140Y-49498088D01*
X154694972Y-49498025D01*
X154451070Y-49535347D01*
X154216540Y-49612003D01*
X154211948Y-49614393D01*
X154211949Y-49614393D01*
X154019934Y-49714350D01*
X153997679Y-49725935D01*
X153993546Y-49729038D01*
X153993543Y-49729040D01*
X153804499Y-49870978D01*
X153800364Y-49874083D01*
X153712428Y-49966103D01*
X153636086Y-50045991D01*
X153629896Y-50052468D01*
X153626983Y-50056739D01*
X153626823Y-50056936D01*
X153568408Y-50097288D01*
X153497451Y-50099652D01*
X153435710Y-50062441D01*
X153290325Y-49902665D01*
X153290323Y-49902663D01*
X153286846Y-49898842D01*
X153282795Y-49895643D01*
X153282791Y-49895639D01*
X153097264Y-49749119D01*
X153097259Y-49749116D01*
X153093210Y-49745918D01*
X153088694Y-49743425D01*
X153088691Y-49743423D01*
X152881722Y-49629170D01*
X152881718Y-49629168D01*
X152877198Y-49626673D01*
X152872329Y-49624949D01*
X152872325Y-49624947D01*
X152649485Y-49546035D01*
X152649481Y-49546034D01*
X152644610Y-49544309D01*
X152639517Y-49543402D01*
X152639514Y-49543401D01*
X152406783Y-49501945D01*
X152406777Y-49501944D01*
X152401694Y-49501039D01*
X152322324Y-49500069D01*
X152160142Y-49498088D01*
X152160140Y-49498088D01*
X152154972Y-49498025D01*
X151911070Y-49535347D01*
X151676540Y-49612003D01*
X151671948Y-49614393D01*
X151671949Y-49614393D01*
X151479934Y-49714350D01*
X151457679Y-49725935D01*
X151453546Y-49729038D01*
X151453543Y-49729040D01*
X151264499Y-49870978D01*
X151260364Y-49874083D01*
X151172428Y-49966103D01*
X151096086Y-50045991D01*
X151089896Y-50052468D01*
X151086983Y-50056739D01*
X151086823Y-50056936D01*
X151028408Y-50097288D01*
X150957451Y-50099652D01*
X150895710Y-50062441D01*
X150750325Y-49902665D01*
X150750323Y-49902663D01*
X150746846Y-49898842D01*
X150742795Y-49895643D01*
X150742791Y-49895639D01*
X150557264Y-49749119D01*
X150557259Y-49749116D01*
X150553210Y-49745918D01*
X150548694Y-49743425D01*
X150548691Y-49743423D01*
X150341722Y-49629170D01*
X150341718Y-49629168D01*
X150337198Y-49626673D01*
X150332329Y-49624949D01*
X150332325Y-49624947D01*
X150109485Y-49546035D01*
X150109481Y-49546034D01*
X150104610Y-49544309D01*
X150099517Y-49543402D01*
X150099514Y-49543401D01*
X149866783Y-49501945D01*
X149866777Y-49501944D01*
X149861694Y-49501039D01*
X149782324Y-49500069D01*
X149620142Y-49498088D01*
X149620140Y-49498088D01*
X149614972Y-49498025D01*
X149371070Y-49535347D01*
X149136540Y-49612003D01*
X149131948Y-49614393D01*
X149131949Y-49614393D01*
X148939934Y-49714350D01*
X148917679Y-49725935D01*
X148913546Y-49729038D01*
X148913543Y-49729040D01*
X148724499Y-49870978D01*
X148720364Y-49874083D01*
X148632428Y-49966103D01*
X148556086Y-50045991D01*
X148549896Y-50052468D01*
X148546983Y-50056739D01*
X148546823Y-50056936D01*
X148488408Y-50097288D01*
X148417451Y-50099652D01*
X148355710Y-50062441D01*
X148210325Y-49902665D01*
X148210323Y-49902663D01*
X148206846Y-49898842D01*
X148202795Y-49895643D01*
X148202791Y-49895639D01*
X148017264Y-49749119D01*
X148017259Y-49749116D01*
X148013210Y-49745918D01*
X148008694Y-49743425D01*
X148008691Y-49743423D01*
X147801722Y-49629170D01*
X147801718Y-49629168D01*
X147797198Y-49626673D01*
X147792329Y-49624949D01*
X147792325Y-49624947D01*
X147569485Y-49546035D01*
X147569481Y-49546034D01*
X147564610Y-49544309D01*
X147559517Y-49543402D01*
X147559514Y-49543401D01*
X147326783Y-49501945D01*
X147326777Y-49501944D01*
X147321694Y-49501039D01*
X147242324Y-49500069D01*
X147080142Y-49498088D01*
X147080140Y-49498088D01*
X147074972Y-49498025D01*
X146831070Y-49535347D01*
X146596540Y-49612003D01*
X146591948Y-49614393D01*
X146591949Y-49614393D01*
X146399934Y-49714350D01*
X146377679Y-49725935D01*
X146373546Y-49729038D01*
X146373543Y-49729040D01*
X146184499Y-49870978D01*
X146180364Y-49874083D01*
X146092428Y-49966103D01*
X146016086Y-50045991D01*
X146009896Y-50052468D01*
X146006983Y-50056739D01*
X146006823Y-50056936D01*
X145948408Y-50097288D01*
X145877451Y-50099652D01*
X145815710Y-50062441D01*
X145670325Y-49902665D01*
X145670323Y-49902663D01*
X145666846Y-49898842D01*
X145662795Y-49895643D01*
X145662791Y-49895639D01*
X145477264Y-49749119D01*
X145477259Y-49749116D01*
X145473210Y-49745918D01*
X145468694Y-49743425D01*
X145468691Y-49743423D01*
X145261722Y-49629170D01*
X145261718Y-49629168D01*
X145257198Y-49626673D01*
X145252329Y-49624949D01*
X145252325Y-49624947D01*
X145029485Y-49546035D01*
X145029481Y-49546034D01*
X145024610Y-49544309D01*
X145019517Y-49543402D01*
X145019514Y-49543401D01*
X144786783Y-49501945D01*
X144786777Y-49501944D01*
X144781694Y-49501039D01*
X144702324Y-49500069D01*
X144540142Y-49498088D01*
X144540140Y-49498088D01*
X144534972Y-49498025D01*
X144291070Y-49535347D01*
X144056540Y-49612003D01*
X144051948Y-49614393D01*
X144051949Y-49614393D01*
X143859934Y-49714350D01*
X143837679Y-49725935D01*
X143833546Y-49729038D01*
X143833543Y-49729040D01*
X143644499Y-49870978D01*
X143640364Y-49874083D01*
X143552428Y-49966103D01*
X143476086Y-50045991D01*
X143469896Y-50052468D01*
X143466983Y-50056739D01*
X143466823Y-50056936D01*
X143408408Y-50097288D01*
X143337451Y-50099652D01*
X143275710Y-50062441D01*
X143130325Y-49902665D01*
X143130323Y-49902663D01*
X143126846Y-49898842D01*
X143122795Y-49895643D01*
X143122791Y-49895639D01*
X142937264Y-49749119D01*
X142937259Y-49749116D01*
X142933210Y-49745918D01*
X142928694Y-49743425D01*
X142928691Y-49743423D01*
X142721722Y-49629170D01*
X142721718Y-49629168D01*
X142717198Y-49626673D01*
X142712329Y-49624949D01*
X142712325Y-49624947D01*
X142489485Y-49546035D01*
X142489481Y-49546034D01*
X142484610Y-49544309D01*
X142479517Y-49543402D01*
X142479514Y-49543401D01*
X142246783Y-49501945D01*
X142246777Y-49501944D01*
X142241694Y-49501039D01*
X142162324Y-49500069D01*
X142000142Y-49498088D01*
X142000140Y-49498088D01*
X141994972Y-49498025D01*
X141751070Y-49535347D01*
X141516540Y-49612003D01*
X141511948Y-49614393D01*
X141511949Y-49614393D01*
X141319934Y-49714350D01*
X141297679Y-49725935D01*
X141293546Y-49729038D01*
X141293543Y-49729040D01*
X141104499Y-49870978D01*
X141100364Y-49874083D01*
X141012428Y-49966103D01*
X140936086Y-50045991D01*
X140929896Y-50052468D01*
X140926983Y-50056739D01*
X140926823Y-50056936D01*
X140868408Y-50097288D01*
X140797451Y-50099652D01*
X140735710Y-50062441D01*
X140590325Y-49902665D01*
X140590323Y-49902663D01*
X140586846Y-49898842D01*
X140582795Y-49895643D01*
X140582791Y-49895639D01*
X140397264Y-49749119D01*
X140397259Y-49749116D01*
X140393210Y-49745918D01*
X140388694Y-49743425D01*
X140388691Y-49743423D01*
X140181722Y-49629170D01*
X140181718Y-49629168D01*
X140177198Y-49626673D01*
X140172329Y-49624949D01*
X140172325Y-49624947D01*
X139949485Y-49546035D01*
X139949481Y-49546034D01*
X139944610Y-49544309D01*
X139939517Y-49543402D01*
X139939514Y-49543401D01*
X139706783Y-49501945D01*
X139706777Y-49501944D01*
X139701694Y-49501039D01*
X139622324Y-49500069D01*
X139460142Y-49498088D01*
X139460140Y-49498088D01*
X139454972Y-49498025D01*
X139211070Y-49535347D01*
X138976540Y-49612003D01*
X138971948Y-49614393D01*
X138971949Y-49614393D01*
X138779934Y-49714350D01*
X138757679Y-49725935D01*
X138753546Y-49729038D01*
X138753543Y-49729040D01*
X138564499Y-49870978D01*
X138560364Y-49874083D01*
X138472428Y-49966103D01*
X138396086Y-50045991D01*
X138389896Y-50052468D01*
X138386983Y-50056739D01*
X138386823Y-50056936D01*
X138328408Y-50097288D01*
X138257451Y-50099652D01*
X138195710Y-50062441D01*
X138050325Y-49902665D01*
X138050323Y-49902663D01*
X138046846Y-49898842D01*
X138042795Y-49895643D01*
X138042791Y-49895639D01*
X137857264Y-49749119D01*
X137857259Y-49749116D01*
X137853210Y-49745918D01*
X137848694Y-49743425D01*
X137848691Y-49743423D01*
X137641722Y-49629170D01*
X137641718Y-49629168D01*
X137637198Y-49626673D01*
X137632329Y-49624949D01*
X137632325Y-49624947D01*
X137409485Y-49546035D01*
X137409481Y-49546034D01*
X137404610Y-49544309D01*
X137399517Y-49543402D01*
X137399514Y-49543401D01*
X137166783Y-49501945D01*
X137166777Y-49501944D01*
X137161694Y-49501039D01*
X137082324Y-49500069D01*
X136920142Y-49498088D01*
X136920140Y-49498088D01*
X136914972Y-49498025D01*
X136671070Y-49535347D01*
X136436540Y-49612003D01*
X136431948Y-49614393D01*
X136431949Y-49614393D01*
X136239934Y-49714350D01*
X136217679Y-49725935D01*
X136213546Y-49729038D01*
X136213543Y-49729040D01*
X136024499Y-49870978D01*
X136020364Y-49874083D01*
X135932428Y-49966103D01*
X135856086Y-50045991D01*
X135849896Y-50052468D01*
X135846983Y-50056739D01*
X135846823Y-50056936D01*
X135788408Y-50097288D01*
X135717451Y-50099652D01*
X135655710Y-50062441D01*
X135510325Y-49902665D01*
X135510323Y-49902663D01*
X135506846Y-49898842D01*
X135502795Y-49895643D01*
X135502791Y-49895639D01*
X135317264Y-49749119D01*
X135317259Y-49749116D01*
X135313210Y-49745918D01*
X135308694Y-49743425D01*
X135308691Y-49743423D01*
X135101722Y-49629170D01*
X135101718Y-49629168D01*
X135097198Y-49626673D01*
X135092329Y-49624949D01*
X135092325Y-49624947D01*
X134869485Y-49546035D01*
X134869481Y-49546034D01*
X134864610Y-49544309D01*
X134859517Y-49543402D01*
X134859514Y-49543401D01*
X134626783Y-49501945D01*
X134626777Y-49501944D01*
X134621694Y-49501039D01*
X134542324Y-49500069D01*
X134380142Y-49498088D01*
X134380140Y-49498088D01*
X134374972Y-49498025D01*
X134131070Y-49535347D01*
X133896540Y-49612003D01*
X133891948Y-49614393D01*
X133891949Y-49614393D01*
X133699934Y-49714350D01*
X133677679Y-49725935D01*
X133673546Y-49729038D01*
X133673543Y-49729040D01*
X133484499Y-49870978D01*
X133480364Y-49874083D01*
X133392428Y-49966103D01*
X133316086Y-50045991D01*
X133309896Y-50052468D01*
X133306983Y-50056739D01*
X133306823Y-50056936D01*
X133248408Y-50097288D01*
X133177451Y-50099652D01*
X133115710Y-50062441D01*
X132970325Y-49902665D01*
X132970323Y-49902663D01*
X132966846Y-49898842D01*
X132962795Y-49895643D01*
X132962791Y-49895639D01*
X132777264Y-49749119D01*
X132777259Y-49749116D01*
X132773210Y-49745918D01*
X132768694Y-49743425D01*
X132768691Y-49743423D01*
X132561722Y-49629170D01*
X132561718Y-49629168D01*
X132557198Y-49626673D01*
X132552329Y-49624949D01*
X132552325Y-49624947D01*
X132329485Y-49546035D01*
X132329481Y-49546034D01*
X132324610Y-49544309D01*
X132319517Y-49543402D01*
X132319514Y-49543401D01*
X132086783Y-49501945D01*
X132086777Y-49501944D01*
X132081694Y-49501039D01*
X132002324Y-49500069D01*
X131840142Y-49498088D01*
X131840140Y-49498088D01*
X131834972Y-49498025D01*
X131591070Y-49535347D01*
X131356540Y-49612003D01*
X131351948Y-49614393D01*
X131351949Y-49614393D01*
X131159934Y-49714350D01*
X131137679Y-49725935D01*
X131133546Y-49729038D01*
X131133543Y-49729040D01*
X130944499Y-49870978D01*
X130940364Y-49874083D01*
X130852428Y-49966103D01*
X130776086Y-50045991D01*
X130769896Y-50052468D01*
X130766983Y-50056739D01*
X130766823Y-50056936D01*
X130708408Y-50097288D01*
X130637451Y-50099652D01*
X130575710Y-50062441D01*
X130430325Y-49902665D01*
X130430323Y-49902663D01*
X130426846Y-49898842D01*
X130422795Y-49895643D01*
X130422791Y-49895639D01*
X130237264Y-49749119D01*
X130237259Y-49749116D01*
X130233210Y-49745918D01*
X130228694Y-49743425D01*
X130228691Y-49743423D01*
X130021722Y-49629170D01*
X130021718Y-49629168D01*
X130017198Y-49626673D01*
X130012329Y-49624949D01*
X130012325Y-49624947D01*
X129789485Y-49546035D01*
X129789481Y-49546034D01*
X129784610Y-49544309D01*
X129779517Y-49543402D01*
X129779514Y-49543401D01*
X129546783Y-49501945D01*
X129546777Y-49501944D01*
X129541694Y-49501039D01*
X129462324Y-49500069D01*
X129300142Y-49498088D01*
X129300140Y-49498088D01*
X129294972Y-49498025D01*
X129051070Y-49535347D01*
X128816540Y-49612003D01*
X128811948Y-49614393D01*
X128811949Y-49614393D01*
X128619934Y-49714350D01*
X128597679Y-49725935D01*
X128593546Y-49729038D01*
X128593543Y-49729040D01*
X128404499Y-49870978D01*
X128400364Y-49874083D01*
X128312428Y-49966103D01*
X128236086Y-50045991D01*
X128229896Y-50052468D01*
X128226983Y-50056739D01*
X128226823Y-50056936D01*
X128168408Y-50097288D01*
X128097451Y-50099652D01*
X128035710Y-50062441D01*
X127890325Y-49902665D01*
X127890323Y-49902663D01*
X127886846Y-49898842D01*
X127882795Y-49895643D01*
X127882791Y-49895639D01*
X127697264Y-49749119D01*
X127697259Y-49749116D01*
X127693210Y-49745918D01*
X127688694Y-49743425D01*
X127688691Y-49743423D01*
X127481722Y-49629170D01*
X127481718Y-49629168D01*
X127477198Y-49626673D01*
X127472329Y-49624949D01*
X127472325Y-49624947D01*
X127249485Y-49546035D01*
X127249481Y-49546034D01*
X127244610Y-49544309D01*
X127239517Y-49543402D01*
X127239514Y-49543401D01*
X127006783Y-49501945D01*
X127006777Y-49501944D01*
X127001694Y-49501039D01*
X126922324Y-49500069D01*
X126760142Y-49498088D01*
X126760140Y-49498088D01*
X126754972Y-49498025D01*
X126511070Y-49535347D01*
X126276540Y-49612003D01*
X126271948Y-49614393D01*
X126271949Y-49614393D01*
X126079934Y-49714350D01*
X126057679Y-49725935D01*
X126053546Y-49729038D01*
X126053543Y-49729040D01*
X125864499Y-49870978D01*
X125860364Y-49874083D01*
X125772428Y-49966103D01*
X125696086Y-50045991D01*
X125689896Y-50052468D01*
X125686983Y-50056739D01*
X125686823Y-50056936D01*
X125628408Y-50097288D01*
X125557451Y-50099652D01*
X125495710Y-50062441D01*
X125350325Y-49902665D01*
X125350323Y-49902663D01*
X125346846Y-49898842D01*
X125342795Y-49895643D01*
X125342791Y-49895639D01*
X125157264Y-49749119D01*
X125157259Y-49749116D01*
X125153210Y-49745918D01*
X125148694Y-49743425D01*
X125148691Y-49743423D01*
X124941722Y-49629170D01*
X124941718Y-49629168D01*
X124937198Y-49626673D01*
X124932329Y-49624949D01*
X124932325Y-49624947D01*
X124709485Y-49546035D01*
X124709481Y-49546034D01*
X124704610Y-49544309D01*
X124699517Y-49543402D01*
X124699514Y-49543401D01*
X124466783Y-49501945D01*
X124466777Y-49501944D01*
X124461694Y-49501039D01*
X124382324Y-49500069D01*
X124220142Y-49498088D01*
X124220140Y-49498088D01*
X124214972Y-49498025D01*
X123971070Y-49535347D01*
X123736540Y-49612003D01*
X123731948Y-49614393D01*
X123731949Y-49614393D01*
X123539934Y-49714350D01*
X123517679Y-49725935D01*
X123513546Y-49729038D01*
X123513543Y-49729040D01*
X123324499Y-49870978D01*
X123320364Y-49874083D01*
X123232428Y-49966103D01*
X123156086Y-50045991D01*
X123149896Y-50052468D01*
X123146983Y-50056739D01*
X123146823Y-50056936D01*
X123088408Y-50097288D01*
X123017451Y-50099652D01*
X122955710Y-50062441D01*
X122810325Y-49902665D01*
X122810323Y-49902663D01*
X122806846Y-49898842D01*
X122802795Y-49895643D01*
X122802791Y-49895639D01*
X122617264Y-49749119D01*
X122617259Y-49749116D01*
X122613210Y-49745918D01*
X122608694Y-49743425D01*
X122608691Y-49743423D01*
X122401722Y-49629170D01*
X122401718Y-49629168D01*
X122397198Y-49626673D01*
X122392329Y-49624949D01*
X122392325Y-49624947D01*
X122169485Y-49546035D01*
X122169481Y-49546034D01*
X122164610Y-49544309D01*
X122159517Y-49543402D01*
X122159514Y-49543401D01*
X121926783Y-49501945D01*
X121926777Y-49501944D01*
X121921694Y-49501039D01*
X121842324Y-49500069D01*
X121680142Y-49498088D01*
X121680140Y-49498088D01*
X121674972Y-49498025D01*
X121431070Y-49535347D01*
X121196540Y-49612003D01*
X121191948Y-49614393D01*
X121191949Y-49614393D01*
X120999934Y-49714350D01*
X120977679Y-49725935D01*
X120973546Y-49729038D01*
X120973543Y-49729040D01*
X120784499Y-49870978D01*
X120780364Y-49874083D01*
X120692428Y-49966103D01*
X120616086Y-50045991D01*
X120609896Y-50052468D01*
X120606983Y-50056739D01*
X120606823Y-50056936D01*
X120548408Y-50097288D01*
X120477451Y-50099652D01*
X120415710Y-50062441D01*
X120270325Y-49902665D01*
X120270323Y-49902663D01*
X120266846Y-49898842D01*
X120262795Y-49895643D01*
X120262791Y-49895639D01*
X120077264Y-49749119D01*
X120077259Y-49749116D01*
X120073210Y-49745918D01*
X120068694Y-49743425D01*
X120068691Y-49743423D01*
X119861722Y-49629170D01*
X119861718Y-49629168D01*
X119857198Y-49626673D01*
X119852329Y-49624949D01*
X119852325Y-49624947D01*
X119629485Y-49546035D01*
X119629481Y-49546034D01*
X119624610Y-49544309D01*
X119619517Y-49543402D01*
X119619514Y-49543401D01*
X119386783Y-49501945D01*
X119386777Y-49501944D01*
X119381694Y-49501039D01*
X119302324Y-49500069D01*
X119140142Y-49498088D01*
X119140140Y-49498088D01*
X119134972Y-49498025D01*
X118891070Y-49535347D01*
X118656540Y-49612003D01*
X118651948Y-49614393D01*
X118651949Y-49614393D01*
X118459934Y-49714350D01*
X118437679Y-49725935D01*
X118433546Y-49729038D01*
X118433543Y-49729040D01*
X118244499Y-49870978D01*
X118240364Y-49874083D01*
X118152428Y-49966103D01*
X118076086Y-50045991D01*
X118069896Y-50052468D01*
X118066983Y-50056739D01*
X118066823Y-50056936D01*
X118008408Y-50097288D01*
X117937451Y-50099652D01*
X117875710Y-50062441D01*
X117730325Y-49902665D01*
X117730323Y-49902663D01*
X117726846Y-49898842D01*
X117722795Y-49895643D01*
X117722791Y-49895639D01*
X117537264Y-49749119D01*
X117537259Y-49749116D01*
X117533210Y-49745918D01*
X117528694Y-49743425D01*
X117528691Y-49743423D01*
X117321722Y-49629170D01*
X117321718Y-49629168D01*
X117317198Y-49626673D01*
X117312329Y-49624949D01*
X117312325Y-49624947D01*
X117089485Y-49546035D01*
X117089481Y-49546034D01*
X117084610Y-49544309D01*
X117079517Y-49543402D01*
X117079514Y-49543401D01*
X116846783Y-49501945D01*
X116846777Y-49501944D01*
X116841694Y-49501039D01*
X116762324Y-49500069D01*
X116600142Y-49498088D01*
X116600140Y-49498088D01*
X116594972Y-49498025D01*
X116351070Y-49535347D01*
X116116540Y-49612003D01*
X116111948Y-49614393D01*
X116111949Y-49614393D01*
X115919934Y-49714350D01*
X115897679Y-49725935D01*
X115893546Y-49729038D01*
X115893543Y-49729040D01*
X115704499Y-49870978D01*
X115700364Y-49874083D01*
X115696792Y-49877821D01*
X115536086Y-50045991D01*
X115529896Y-50052468D01*
X115526982Y-50056740D01*
X115526981Y-50056741D01*
X115460758Y-50153820D01*
X115390851Y-50256300D01*
X115339665Y-50366571D01*
X115299270Y-50453596D01*
X115286965Y-50480104D01*
X115221026Y-50717871D01*
X115194806Y-50963214D01*
X115209010Y-51209545D01*
X115210147Y-51214591D01*
X115210148Y-51214597D01*
X115232336Y-51313051D01*
X115263255Y-51450249D01*
X115292684Y-51522725D01*
X115347886Y-51658673D01*
X115354982Y-51729314D01*
X115320239Y-51795171D01*
X114437832Y-52677577D01*
X114375522Y-52711601D01*
X114348739Y-52714480D01*
X107426391Y-52714480D01*
X107415431Y-52713963D01*
X107408021Y-52712307D01*
X107400095Y-52712556D01*
X107400094Y-52712556D01*
X107340847Y-52714418D01*
X107336889Y-52714480D01*
X107309338Y-52714480D01*
X107305415Y-52714976D01*
X107305300Y-52714983D01*
X107293620Y-52715903D01*
X107250061Y-52717271D01*
X107230972Y-52722817D01*
X107211626Y-52726824D01*
X107191896Y-52729316D01*
X107151365Y-52745364D01*
X107140164Y-52749199D01*
X107098298Y-52761362D01*
X107081189Y-52771480D01*
X107063443Y-52780175D01*
X107044956Y-52787494D01*
X107013923Y-52810041D01*
X107009700Y-52813109D01*
X106999778Y-52819626D01*
X106969098Y-52837770D01*
X106969094Y-52837773D01*
X106962268Y-52841810D01*
X106948218Y-52855860D01*
X106933184Y-52868701D01*
X106917101Y-52880386D01*
X106912048Y-52886494D01*
X106889319Y-52913969D01*
X106881329Y-52922749D01*
X103712317Y-56091760D01*
X103704197Y-56099149D01*
X103697789Y-56103216D01*
X103692363Y-56108994D01*
X103651781Y-56152209D01*
X103649026Y-56155051D01*
X103629546Y-56174531D01*
X103627123Y-56177655D01*
X103627010Y-56177783D01*
X103619430Y-56186659D01*
X103601978Y-56205243D01*
X103589604Y-56218420D01*
X103585785Y-56225367D01*
X103580031Y-56235834D01*
X103569174Y-56252363D01*
X103556993Y-56268066D01*
X103544969Y-56295852D01*
X103539686Y-56308060D01*
X103534464Y-56318720D01*
X103513469Y-56356910D01*
X103508525Y-56376166D01*
X103502126Y-56394855D01*
X103494228Y-56413106D01*
X103489900Y-56440437D01*
X103487410Y-56456156D01*
X103485006Y-56467765D01*
X103474166Y-56509983D01*
X103474166Y-56529858D01*
X103472615Y-56549568D01*
X103469506Y-56569198D01*
X103470252Y-56577090D01*
X103473607Y-56612581D01*
X103474166Y-56624439D01*
X103474165Y-58066045D01*
X103454163Y-58134166D01*
X103400507Y-58180659D01*
X103330233Y-58190762D01*
X103265652Y-58161269D01*
X103259070Y-58155140D01*
X102625814Y-57521883D01*
X101806582Y-56702651D01*
X101799193Y-56694531D01*
X101795126Y-56688123D01*
X101746133Y-56642115D01*
X101743291Y-56639360D01*
X101723811Y-56619880D01*
X101720681Y-56617452D01*
X101720599Y-56617380D01*
X101711691Y-56609771D01*
X101679922Y-56579938D01*
X101662507Y-56570364D01*
X101645978Y-56559507D01*
X101636540Y-56552186D01*
X101630276Y-56547327D01*
X101590282Y-56530020D01*
X101579622Y-56524798D01*
X101574381Y-56521917D01*
X101541432Y-56503803D01*
X101522176Y-56498859D01*
X101503487Y-56492460D01*
X101485236Y-56484562D01*
X101442181Y-56477743D01*
X101430577Y-56475340D01*
X101388359Y-56464500D01*
X101368484Y-56464500D01*
X101348774Y-56462949D01*
X101336973Y-56461080D01*
X101329144Y-56459840D01*
X101321252Y-56460586D01*
X101285761Y-56463941D01*
X101273903Y-56464500D01*
X93044397Y-56464500D01*
X92970337Y-56440437D01*
X92935510Y-56415134D01*
X92922730Y-56405849D01*
X92916698Y-56403163D01*
X92916694Y-56403161D01*
X92767582Y-56336772D01*
X92749803Y-56328856D01*
X92639460Y-56305402D01*
X92571103Y-56290872D01*
X92571099Y-56290872D01*
X92564646Y-56289500D01*
X92375354Y-56289500D01*
X92354108Y-56294016D01*
X92236921Y-56318924D01*
X92166131Y-56313522D01*
X92109498Y-56270705D01*
X92103007Y-56261043D01*
X92069154Y-56205257D01*
X92069151Y-56205254D01*
X92066239Y-56200454D01*
X92058915Y-56192162D01*
X92058940Y-56192140D01*
X92056194Y-56189045D01*
X92053691Y-56186051D01*
X92049677Y-56179929D01*
X92009846Y-56142197D01*
X91974149Y-56080829D01*
X91970500Y-56050725D01*
X91970500Y-55557062D01*
X91978518Y-55512833D01*
X92011079Y-55425975D01*
X92011079Y-55425973D01*
X92013851Y-55418580D01*
X92020500Y-55357377D01*
X92020500Y-54841497D01*
X92040502Y-54773376D01*
X92094158Y-54726883D01*
X92164432Y-54716779D01*
X92229012Y-54746273D01*
X92256701Y-54780411D01*
X92264203Y-54793944D01*
X92268359Y-54798792D01*
X92268359Y-54798793D01*
X92278794Y-54810968D01*
X92396477Y-54948271D01*
X92401514Y-54952178D01*
X92401516Y-54952180D01*
X92462493Y-54999478D01*
X92557081Y-55072848D01*
X92739455Y-55162587D01*
X92745633Y-55164196D01*
X92745635Y-55164197D01*
X92929966Y-55212212D01*
X92929969Y-55212212D01*
X92936148Y-55213822D01*
X92951358Y-55214619D01*
X93018339Y-55238158D01*
X93053884Y-55277446D01*
X93101995Y-55360776D01*
X93137467Y-55422216D01*
X93141885Y-55427123D01*
X93141886Y-55427124D01*
X93177441Y-55466611D01*
X93264129Y-55562888D01*
X93417270Y-55674151D01*
X93590197Y-55751144D01*
X93688212Y-55771978D01*
X93768897Y-55789128D01*
X93768901Y-55789128D01*
X93775354Y-55790500D01*
X93964646Y-55790500D01*
X93971099Y-55789128D01*
X93971103Y-55789128D01*
X94051788Y-55771978D01*
X94149803Y-55751144D01*
X94322730Y-55674151D01*
X94475871Y-55562888D01*
X94562560Y-55466611D01*
X94598114Y-55427124D01*
X94598115Y-55427123D01*
X94602533Y-55422216D01*
X94638005Y-55360776D01*
X94693875Y-55264007D01*
X94693876Y-55264006D01*
X94697179Y-55258284D01*
X94755674Y-55078256D01*
X94761783Y-55020137D01*
X94774770Y-54896565D01*
X94775460Y-54890000D01*
X94764778Y-54788364D01*
X94756364Y-54708307D01*
X94756364Y-54708305D01*
X94755674Y-54701744D01*
X94697179Y-54521716D01*
X94631798Y-54408473D01*
X94615333Y-54355691D01*
X94611555Y-54309238D01*
X94611554Y-54309234D01*
X94610961Y-54301941D01*
X94608705Y-54294976D01*
X94607545Y-54289173D01*
X94606191Y-54283444D01*
X94605343Y-54276172D01*
X94580694Y-54208264D01*
X94579277Y-54204136D01*
X94559283Y-54142417D01*
X94559282Y-54142415D01*
X94557027Y-54135454D01*
X94553232Y-54129200D01*
X94550769Y-54123821D01*
X94548126Y-54118543D01*
X94545631Y-54111669D01*
X94541435Y-54105268D01*
X94506047Y-54051294D01*
X94503700Y-54047574D01*
X94469148Y-53990634D01*
X94469145Y-53990630D01*
X94466239Y-53985841D01*
X94458916Y-53977548D01*
X94458940Y-53977527D01*
X94456195Y-53974432D01*
X94453690Y-53971436D01*
X94449677Y-53965315D01*
X94394065Y-53912633D01*
X94391624Y-53910256D01*
X94127405Y-53646037D01*
X94093379Y-53583725D01*
X94090500Y-53556942D01*
X94090500Y-53069200D01*
X94083854Y-53003769D01*
X94075765Y-52924132D01*
X94075765Y-52924130D01*
X94075120Y-52917784D01*
X94014338Y-52723828D01*
X94008730Y-52713710D01*
X93970556Y-52644843D01*
X93915797Y-52546056D01*
X93870830Y-52493592D01*
X93841688Y-52428855D01*
X93840500Y-52411597D01*
X93840500Y-52037236D01*
X98514958Y-52037236D01*
X98515321Y-52041384D01*
X98515321Y-52041389D01*
X98518866Y-52081909D01*
X98541014Y-52335065D01*
X98582111Y-52518922D01*
X98599361Y-52596091D01*
X98606232Y-52626832D01*
X98607676Y-52630756D01*
X98607676Y-52630757D01*
X98644163Y-52729927D01*
X98709464Y-52907410D01*
X98711415Y-52911110D01*
X98711417Y-52911115D01*
X98828796Y-53133744D01*
X98848898Y-53171870D01*
X99022084Y-53415565D01*
X99104901Y-53504376D01*
X99207594Y-53614500D01*
X99225979Y-53634216D01*
X99457000Y-53823979D01*
X99711090Y-53981521D01*
X99983783Y-54104074D01*
X100112402Y-54142417D01*
X100266290Y-54188293D01*
X100266292Y-54188293D01*
X100270289Y-54189485D01*
X100274409Y-54190138D01*
X100274411Y-54190138D01*
X100362791Y-54204136D01*
X100565575Y-54236254D01*
X100608135Y-54238187D01*
X100657659Y-54240436D01*
X100657678Y-54240436D01*
X100659078Y-54240500D01*
X100845834Y-54240500D01*
X101068309Y-54225723D01*
X101361377Y-54166630D01*
X101644056Y-54069296D01*
X101647789Y-54067427D01*
X101647793Y-54067425D01*
X101907640Y-53937303D01*
X101907642Y-53937302D01*
X101911378Y-53935431D01*
X102158647Y-53767387D01*
X102381520Y-53568117D01*
X102576079Y-53341120D01*
X102660032Y-53211844D01*
X102736629Y-53093896D01*
X102736632Y-53093891D01*
X102738908Y-53090386D01*
X102758523Y-53049078D01*
X102821381Y-52916698D01*
X102867145Y-52820319D01*
X102868861Y-52814976D01*
X102957258Y-52539651D01*
X102957258Y-52539650D01*
X102958538Y-52535664D01*
X102976852Y-52433877D01*
X103010741Y-52245531D01*
X103010742Y-52245526D01*
X103011480Y-52241422D01*
X103014322Y-52178852D01*
X103024853Y-51946934D01*
X103024853Y-51946929D01*
X103025042Y-51942764D01*
X103024497Y-51936527D01*
X103010405Y-51775463D01*
X102998986Y-51644935D01*
X102933768Y-51353168D01*
X102830536Y-51072590D01*
X102794038Y-51003364D01*
X102693055Y-50811834D01*
X102693054Y-50811833D01*
X102691102Y-50808130D01*
X102517916Y-50564435D01*
X102340972Y-50374685D01*
X102316871Y-50348840D01*
X102316869Y-50348838D01*
X102314021Y-50345784D01*
X102083000Y-50156021D01*
X101828910Y-49998479D01*
X101556217Y-49875926D01*
X101343603Y-49812543D01*
X101273710Y-49791707D01*
X101273708Y-49791707D01*
X101269711Y-49790515D01*
X101265591Y-49789862D01*
X101265589Y-49789862D01*
X101147577Y-49771171D01*
X100974425Y-49743746D01*
X100931865Y-49741813D01*
X100882341Y-49739564D01*
X100882322Y-49739564D01*
X100880922Y-49739500D01*
X100694166Y-49739500D01*
X100471691Y-49754277D01*
X100178623Y-49813370D01*
X99895944Y-49910704D01*
X99892211Y-49912573D01*
X99892207Y-49912575D01*
X99716268Y-50000679D01*
X99628622Y-50044569D01*
X99381353Y-50212613D01*
X99378239Y-50215397D01*
X99378238Y-50215398D01*
X99204589Y-50370657D01*
X99158480Y-50411883D01*
X98963921Y-50638880D01*
X98801092Y-50889614D01*
X98672855Y-51159681D01*
X98581462Y-51444336D01*
X98580721Y-51448455D01*
X98535021Y-51702448D01*
X98528520Y-51738578D01*
X98528331Y-51742745D01*
X98528330Y-51742752D01*
X98515471Y-52025935D01*
X98514958Y-52037236D01*
X93840500Y-52037236D01*
X93840500Y-50502242D01*
X93863287Y-50429971D01*
X93899218Y-50378656D01*
X93967863Y-50280621D01*
X94048586Y-50094081D01*
X94058439Y-50046918D01*
X94089162Y-49899856D01*
X94089163Y-49899851D01*
X94090151Y-49895120D01*
X94090500Y-49888461D01*
X94090500Y-49139200D01*
X94075120Y-48987784D01*
X94014338Y-48793828D01*
X93915797Y-48616056D01*
X93783523Y-48461729D01*
X93622919Y-48337152D01*
X93440545Y-48247413D01*
X93434367Y-48245804D01*
X93434365Y-48245803D01*
X93404143Y-48237931D01*
X93343264Y-48201404D01*
X93311797Y-48137762D01*
X93319734Y-48067210D01*
X93364553Y-48012149D01*
X93435904Y-47990000D01*
X211765499Y-47990000D01*
X211774487Y-47990321D01*
X211823871Y-47993853D01*
X212045650Y-48009715D01*
X212063433Y-48012272D01*
X212324658Y-48069098D01*
X212341900Y-48074160D01*
X212592393Y-48167589D01*
X212608740Y-48175055D01*
X212843375Y-48303176D01*
X212858498Y-48312895D01*
X213072510Y-48473103D01*
X213086096Y-48484876D01*
X213275124Y-48673904D01*
X213286897Y-48687490D01*
X213447105Y-48901502D01*
X213456824Y-48916625D01*
X213584945Y-49151260D01*
X213592411Y-49167607D01*
X213685839Y-49418097D01*
X213690902Y-49435342D01*
X213747728Y-49696567D01*
X213750285Y-49714350D01*
X213766147Y-49936129D01*
X213769679Y-49985513D01*
X213770000Y-49994501D01*
X213770000Y-81985499D01*
X213769679Y-81994487D01*
X213755895Y-82187225D01*
X213750286Y-82265645D01*
X213747728Y-82283433D01*
X213690903Y-82544654D01*
X213685840Y-82561900D01*
X213592411Y-82812393D01*
X213584945Y-82828740D01*
X213456824Y-83063375D01*
X213447105Y-83078498D01*
X213286897Y-83292510D01*
X213275124Y-83306096D01*
X213086096Y-83495124D01*
X213072510Y-83506897D01*
X212858498Y-83667105D01*
X212843375Y-83676824D01*
X212608740Y-83804945D01*
X212592393Y-83812411D01*
X212341900Y-83905840D01*
X212324658Y-83910902D01*
X212063433Y-83967728D01*
X212045650Y-83970285D01*
X211823871Y-83986147D01*
X211774487Y-83989679D01*
X211765499Y-83990000D01*
X67774501Y-83990000D01*
X67765513Y-83989679D01*
X67716129Y-83986147D01*
X67494350Y-83970285D01*
X67476567Y-83967728D01*
X67215342Y-83910902D01*
X67198100Y-83905840D01*
X66947607Y-83812411D01*
X66931260Y-83804945D01*
X66696625Y-83676824D01*
X66681502Y-83667105D01*
X66467490Y-83506897D01*
X66453904Y-83495124D01*
X66264876Y-83306096D01*
X66253103Y-83292510D01*
X66092895Y-83078498D01*
X66083176Y-83063375D01*
X65955055Y-82828740D01*
X65947589Y-82812393D01*
X65854160Y-82561900D01*
X65849097Y-82544654D01*
X65792272Y-82283433D01*
X65789714Y-82265645D01*
X65784106Y-82187225D01*
X65770321Y-81994487D01*
X65770000Y-81985499D01*
X65770000Y-72147318D01*
X67269500Y-72147318D01*
X67308934Y-72459473D01*
X67320905Y-72506096D01*
X67386194Y-72760383D01*
X67386197Y-72760391D01*
X67387181Y-72764225D01*
X67388638Y-72767905D01*
X67388639Y-72767908D01*
X67427303Y-72865562D01*
X67503006Y-73056766D01*
X67504907Y-73060225D01*
X67504909Y-73060228D01*
X67519350Y-73086495D01*
X67654584Y-73332484D01*
X67656912Y-73335688D01*
X67656915Y-73335693D01*
X67833833Y-73579200D01*
X67839522Y-73587030D01*
X68054906Y-73816390D01*
X68297337Y-74016947D01*
X68562993Y-74185537D01*
X68566572Y-74187221D01*
X68566579Y-74187225D01*
X68844095Y-74317814D01*
X68844099Y-74317816D01*
X68847685Y-74319503D01*
X68851457Y-74320729D01*
X68851458Y-74320729D01*
X68970530Y-74359418D01*
X69146921Y-74416731D01*
X69455985Y-74475688D01*
X69549489Y-74481571D01*
X69689422Y-74490375D01*
X69689438Y-74490376D01*
X69691417Y-74490500D01*
X69848583Y-74490500D01*
X69850562Y-74490376D01*
X69850578Y-74490375D01*
X69990511Y-74481571D01*
X70084015Y-74475688D01*
X70393079Y-74416731D01*
X70569470Y-74359418D01*
X70688542Y-74320729D01*
X70688543Y-74320729D01*
X70692315Y-74319503D01*
X70695901Y-74317816D01*
X70695905Y-74317814D01*
X70973421Y-74187225D01*
X70973428Y-74187221D01*
X70977007Y-74185537D01*
X71242663Y-74016947D01*
X71485094Y-73816390D01*
X71700478Y-73587030D01*
X71706167Y-73579200D01*
X71883085Y-73335693D01*
X71883088Y-73335688D01*
X71885416Y-73332484D01*
X72020650Y-73086495D01*
X72035091Y-73060228D01*
X72035093Y-73060225D01*
X72036994Y-73056766D01*
X72112697Y-72865562D01*
X72151361Y-72767908D01*
X72151362Y-72767905D01*
X72152819Y-72764225D01*
X72153803Y-72760391D01*
X72153806Y-72760383D01*
X72219095Y-72506096D01*
X72231066Y-72459473D01*
X72270500Y-72147318D01*
X72270500Y-71832682D01*
X72245482Y-71634640D01*
X72231563Y-71524459D01*
X72231562Y-71524455D01*
X72231066Y-71520527D01*
X72187642Y-71351401D01*
X72153806Y-71219617D01*
X72153803Y-71219609D01*
X72152819Y-71215775D01*
X72147865Y-71203261D01*
X72072145Y-71012015D01*
X72036994Y-70923234D01*
X72028817Y-70908359D01*
X71933542Y-70735056D01*
X71885416Y-70647516D01*
X71700478Y-70392970D01*
X71485094Y-70163610D01*
X71242663Y-69963053D01*
X70977007Y-69794463D01*
X70973428Y-69792779D01*
X70973421Y-69792775D01*
X70695905Y-69662186D01*
X70695901Y-69662184D01*
X70692315Y-69660497D01*
X70393079Y-69563269D01*
X70084015Y-69504312D01*
X69985659Y-69498124D01*
X69850578Y-69489625D01*
X69850562Y-69489624D01*
X69848583Y-69489500D01*
X69691417Y-69489500D01*
X69689438Y-69489624D01*
X69689422Y-69489625D01*
X69554341Y-69498124D01*
X69455985Y-69504312D01*
X69146921Y-69563269D01*
X68847685Y-69660497D01*
X68844099Y-69662184D01*
X68844095Y-69662186D01*
X68566579Y-69792775D01*
X68566572Y-69792779D01*
X68562993Y-69794463D01*
X68297337Y-69963053D01*
X68054906Y-70163610D01*
X67839522Y-70392970D01*
X67654584Y-70647516D01*
X67606458Y-70735056D01*
X67511184Y-70908359D01*
X67503006Y-70923234D01*
X67467855Y-71012015D01*
X67392136Y-71203261D01*
X67387181Y-71215775D01*
X67386197Y-71219609D01*
X67386194Y-71219617D01*
X67352358Y-71351401D01*
X67308934Y-71520527D01*
X67308438Y-71524455D01*
X67308437Y-71524459D01*
X67294518Y-71634640D01*
X67269500Y-71832682D01*
X67269500Y-72147318D01*
X65770000Y-72147318D01*
X65770000Y-49994501D01*
X65770321Y-49985513D01*
X65773853Y-49936129D01*
X65789715Y-49714350D01*
X65792272Y-49696567D01*
X65849098Y-49435342D01*
X65854161Y-49418097D01*
X65947589Y-49167607D01*
X65955055Y-49151260D01*
X66083176Y-48916625D01*
X66092895Y-48901502D01*
X66253103Y-48687490D01*
X66264876Y-48673904D01*
X66453904Y-48484876D01*
X66467490Y-48473103D01*
X66681502Y-48312895D01*
X66696625Y-48303176D01*
X66931260Y-48175055D01*
X66947607Y-48167589D01*
X67198100Y-48074160D01*
X67215342Y-48069098D01*
X67476567Y-48012272D01*
X67494350Y-48009715D01*
X67716129Y-47993853D01*
X67765513Y-47990321D01*
X67774501Y-47990000D01*
X84106617Y-47990000D01*
X84174738Y-48010002D01*
G37*
G04 #@! TD.AperFunction*
G04 #@! TA.AperFunction,Conductor*
G36*
X97644314Y-67285502D02*
G01*
X97683337Y-67325198D01*
X97696242Y-67346052D01*
X97814939Y-67464543D01*
X97821169Y-67468383D01*
X97821170Y-67468384D01*
X97842687Y-67481647D01*
X97957713Y-67552549D01*
X97964661Y-67554854D01*
X97964662Y-67554854D01*
X98051227Y-67583566D01*
X98116902Y-67605350D01*
X98123735Y-67606050D01*
X98123739Y-67606051D01*
X98176346Y-67611441D01*
X98215965Y-67615500D01*
X98480444Y-67615500D01*
X98749034Y-67615499D01*
X98849335Y-67605093D01*
X98855866Y-67602914D01*
X98855871Y-67602913D01*
X99008432Y-67552014D01*
X99009083Y-67553966D01*
X99069116Y-67544746D01*
X99133977Y-67573618D01*
X99172932Y-67632973D01*
X99171975Y-67709297D01*
X99129650Y-67836902D01*
X99128950Y-67843735D01*
X99128949Y-67843739D01*
X99125490Y-67877506D01*
X99119500Y-67935965D01*
X99119501Y-68544034D01*
X99129907Y-68644335D01*
X99132086Y-68650866D01*
X99132087Y-68650871D01*
X99175630Y-68781383D01*
X99182986Y-68803432D01*
X99271242Y-68946052D01*
X99389939Y-69064543D01*
X99532713Y-69152549D01*
X99691902Y-69205350D01*
X99698735Y-69206050D01*
X99698739Y-69206051D01*
X99751346Y-69211441D01*
X99790965Y-69215500D01*
X100055444Y-69215500D01*
X100324034Y-69215499D01*
X100424335Y-69205093D01*
X100430866Y-69202914D01*
X100430871Y-69202913D01*
X100576484Y-69154332D01*
X100583432Y-69152014D01*
X100726052Y-69063758D01*
X100844543Y-68945061D01*
X100848382Y-68938833D01*
X100848385Y-68938829D01*
X100856671Y-68925386D01*
X100909442Y-68877892D01*
X100963932Y-68865500D01*
X101092299Y-68865500D01*
X101103259Y-68866017D01*
X101110669Y-68867673D01*
X101118595Y-68867424D01*
X101118596Y-68867424D01*
X101177843Y-68865562D01*
X101181801Y-68865500D01*
X101209352Y-68865500D01*
X101213275Y-68865004D01*
X101213390Y-68864997D01*
X101225070Y-68864077D01*
X101268629Y-68862709D01*
X101287718Y-68857163D01*
X101307064Y-68853156D01*
X101326794Y-68850664D01*
X101367325Y-68834616D01*
X101378526Y-68830781D01*
X101420392Y-68818618D01*
X101437501Y-68808500D01*
X101455247Y-68799805D01*
X101473734Y-68792486D01*
X101508993Y-68766869D01*
X101518912Y-68760354D01*
X101549592Y-68742210D01*
X101549596Y-68742207D01*
X101556422Y-68738170D01*
X101570472Y-68724120D01*
X101585506Y-68711279D01*
X101595175Y-68704254D01*
X101601589Y-68699594D01*
X101629372Y-68666010D01*
X101637361Y-68657231D01*
X102600577Y-67694015D01*
X102662889Y-67659989D01*
X102689672Y-67657110D01*
X105211347Y-67657110D01*
X105222307Y-67657627D01*
X105229717Y-67659283D01*
X105237643Y-67659034D01*
X105237644Y-67659034D01*
X105296891Y-67657172D01*
X105300849Y-67657110D01*
X105328400Y-67657110D01*
X105332323Y-67656614D01*
X105332438Y-67656607D01*
X105344118Y-67655687D01*
X105387677Y-67654319D01*
X105406766Y-67648773D01*
X105426112Y-67644766D01*
X105445842Y-67642274D01*
X105486373Y-67626226D01*
X105497574Y-67622391D01*
X105539440Y-67610228D01*
X105556549Y-67600110D01*
X105574295Y-67591415D01*
X105592782Y-67584096D01*
X105592783Y-67584095D01*
X105594041Y-67587271D01*
X105648174Y-67575328D01*
X105683933Y-67583722D01*
X105691533Y-67588801D01*
X105703701Y-67591221D01*
X105715168Y-67595971D01*
X105713583Y-67599798D01*
X105756101Y-67622039D01*
X105781140Y-67667893D01*
X105785348Y-67666150D01*
X105790099Y-67677619D01*
X105792519Y-67689787D01*
X105799411Y-67700102D01*
X105799412Y-67700104D01*
X105832952Y-67750300D01*
X105836388Y-67755442D01*
X105979432Y-67898484D01*
X106045087Y-67942355D01*
X106048465Y-67943027D01*
X106098912Y-67983681D01*
X106121332Y-68051045D01*
X106103773Y-68119836D01*
X106084507Y-68144635D01*
X105952302Y-68276840D01*
X105943685Y-68284681D01*
X105937060Y-68288886D01*
X105931633Y-68294665D01*
X105931632Y-68294666D01*
X105889151Y-68339904D01*
X105886396Y-68342746D01*
X105866089Y-68363053D01*
X105863660Y-68366184D01*
X105863655Y-68366190D01*
X105863442Y-68366465D01*
X105855745Y-68375478D01*
X105824552Y-68408695D01*
X105820733Y-68415642D01*
X105814404Y-68427154D01*
X105803550Y-68443678D01*
X105790638Y-68460324D01*
X105772546Y-68502133D01*
X105767330Y-68512781D01*
X105745373Y-68552720D01*
X105743402Y-68560399D01*
X105743401Y-68560400D01*
X105740133Y-68573129D01*
X105733727Y-68591838D01*
X105728512Y-68603888D01*
X105728510Y-68603893D01*
X105725365Y-68611162D01*
X105718239Y-68656153D01*
X105715831Y-68667778D01*
X105706472Y-68704228D01*
X105706471Y-68704233D01*
X105704500Y-68711911D01*
X105704500Y-68732972D01*
X105702949Y-68752684D01*
X105699653Y-68773493D01*
X105701827Y-68796484D01*
X105702300Y-68801492D01*
X105688798Y-68871193D01*
X105685317Y-68877483D01*
X105656987Y-68925386D01*
X105615139Y-68996149D01*
X105608069Y-69008103D01*
X105562391Y-69165325D01*
X105559500Y-69202060D01*
X105559500Y-69383510D01*
X105539498Y-69451631D01*
X105485842Y-69498124D01*
X105433500Y-69509510D01*
X99564150Y-69509511D01*
X97831900Y-69509511D01*
X97773526Y-69495173D01*
X97758068Y-69487092D01*
X97744170Y-69478642D01*
X97725827Y-69465798D01*
X97720599Y-69462137D01*
X97714748Y-69459605D01*
X97714737Y-69459599D01*
X97665242Y-69438181D01*
X97656906Y-69434205D01*
X97609106Y-69409215D01*
X97609098Y-69409212D01*
X97603448Y-69406258D01*
X97575774Y-69398323D01*
X97560472Y-69392844D01*
X97534059Y-69381414D01*
X97527815Y-69380110D01*
X97527810Y-69380108D01*
X97492773Y-69372789D01*
X97475011Y-69369078D01*
X97466061Y-69366864D01*
X97408065Y-69350234D01*
X97379366Y-69348026D01*
X97363273Y-69345735D01*
X97335098Y-69339849D01*
X97330259Y-69339595D01*
X97330256Y-69339595D01*
X97330107Y-69339587D01*
X97330091Y-69339587D01*
X97328439Y-69339500D01*
X97273413Y-69339500D01*
X97263746Y-69339129D01*
X97211767Y-69335129D01*
X97211763Y-69335129D01*
X97205407Y-69334640D01*
X97180147Y-69337831D01*
X97174805Y-69338506D01*
X97159013Y-69339500D01*
X97025464Y-69339500D01*
X96957343Y-69319498D01*
X96910850Y-69265842D01*
X96907488Y-69257745D01*
X96903526Y-69247176D01*
X96898146Y-69239997D01*
X96898144Y-69239994D01*
X96822928Y-69139635D01*
X96817546Y-69132454D01*
X96792970Y-69114035D01*
X96710006Y-69051856D01*
X96710003Y-69051854D01*
X96702824Y-69046474D01*
X96651069Y-69027072D01*
X96573752Y-68998088D01*
X96516987Y-68955447D01*
X96492286Y-68888886D01*
X96507493Y-68819537D01*
X96528885Y-68791011D01*
X96648495Y-68671401D01*
X96784035Y-68477829D01*
X96795119Y-68454061D01*
X96881580Y-68268645D01*
X96881581Y-68268643D01*
X96883903Y-68263663D01*
X96897843Y-68211640D01*
X96943639Y-68040723D01*
X96943639Y-68040722D01*
X96945063Y-68035408D01*
X96965659Y-67800000D01*
X96945063Y-67564592D01*
X96928483Y-67502713D01*
X96918443Y-67465240D01*
X96920133Y-67394264D01*
X96951055Y-67343535D01*
X96992185Y-67302405D01*
X97054497Y-67268379D01*
X97081280Y-67265500D01*
X97576193Y-67265500D01*
X97644314Y-67285502D01*
G37*
G04 #@! TD.AperFunction*
G04 #@! TA.AperFunction,Conductor*
G36*
X108496327Y-67173172D02*
G01*
X108531589Y-67234793D01*
X108527938Y-67305696D01*
X108513791Y-67334031D01*
X108497202Y-67358858D01*
X108494781Y-67371027D01*
X108494781Y-67371028D01*
X108481073Y-67439939D01*
X108476595Y-67462451D01*
X108497202Y-67566043D01*
X108509617Y-67584624D01*
X108537631Y-67626550D01*
X108541071Y-67631699D01*
X108585263Y-67675891D01*
X108619289Y-67738203D01*
X108621174Y-67780778D01*
X108620259Y-67788024D01*
X108618288Y-67795699D01*
X108618288Y-68457242D01*
X108601408Y-68520241D01*
X108582656Y-68552720D01*
X108580473Y-68556501D01*
X108529090Y-68605494D01*
X108471354Y-68619500D01*
X108292060Y-68619500D01*
X108289613Y-68619693D01*
X108289602Y-68619693D01*
X108269405Y-68621283D01*
X108255325Y-68622391D01*
X108203393Y-68637479D01*
X108105716Y-68665857D01*
X108105715Y-68665858D01*
X108098103Y-68668069D01*
X108091281Y-68672104D01*
X108091280Y-68672104D01*
X107989056Y-68732559D01*
X107957180Y-68751410D01*
X107841410Y-68867180D01*
X107837376Y-68874000D01*
X107837376Y-68874001D01*
X107763992Y-68998088D01*
X107758069Y-69008103D01*
X107712391Y-69165325D01*
X107709500Y-69202060D01*
X107709500Y-69383510D01*
X107689498Y-69451631D01*
X107635842Y-69498124D01*
X107583500Y-69509510D01*
X107276500Y-69509510D01*
X107208379Y-69489508D01*
X107161886Y-69435852D01*
X107150500Y-69383510D01*
X107150500Y-69202060D01*
X107147609Y-69165325D01*
X107113490Y-69047889D01*
X107113692Y-68976894D01*
X107145392Y-68923642D01*
X107760123Y-68308911D01*
X107835574Y-68211640D01*
X107900847Y-68060803D01*
X107926558Y-67898472D01*
X107915348Y-67779884D01*
X107928851Y-67710184D01*
X107951694Y-67678932D01*
X107998927Y-67631699D01*
X108005152Y-67622384D01*
X108035902Y-67576364D01*
X108035903Y-67576362D01*
X108042798Y-67566043D01*
X108063405Y-67462451D01*
X108058927Y-67439939D01*
X108043701Y-67363397D01*
X108050029Y-67292682D01*
X108093583Y-67236615D01*
X108153208Y-67216317D01*
X108152872Y-67214198D01*
X108160700Y-67212958D01*
X108168627Y-67212709D01*
X108187716Y-67207163D01*
X108207062Y-67203156D01*
X108226792Y-67200664D01*
X108267323Y-67184616D01*
X108278524Y-67180781D01*
X108320390Y-67168618D01*
X108337499Y-67158500D01*
X108355256Y-67149801D01*
X108362647Y-67146875D01*
X108433348Y-67140398D01*
X108496327Y-67173172D01*
G37*
G04 #@! TD.AperFunction*
G04 #@! TA.AperFunction,Conductor*
G36*
X77113980Y-60504805D02*
G01*
X77159067Y-60533725D01*
X77182379Y-60556996D01*
X77216459Y-60619278D01*
X77211456Y-60690099D01*
X77182535Y-60735188D01*
X77082957Y-60834939D01*
X76994951Y-60977713D01*
X76992646Y-60984661D01*
X76992646Y-60984662D01*
X76944315Y-61130373D01*
X76944314Y-61130378D01*
X76942150Y-61136902D01*
X76941449Y-61143744D01*
X76940007Y-61150472D01*
X76939526Y-61150369D01*
X76935596Y-61166341D01*
X76936258Y-61166531D01*
X76928323Y-61194203D01*
X76922844Y-61209506D01*
X76911414Y-61235919D01*
X76910110Y-61242163D01*
X76910108Y-61242168D01*
X76905731Y-61263120D01*
X76900096Y-61290098D01*
X76899080Y-61294960D01*
X76896864Y-61303917D01*
X76880234Y-61361913D01*
X76878267Y-61387472D01*
X76878026Y-61390610D01*
X76875735Y-61406705D01*
X76869849Y-61434880D01*
X76869500Y-61441539D01*
X76869500Y-61496565D01*
X76869129Y-61506232D01*
X76865161Y-61557804D01*
X76864640Y-61564571D01*
X76865440Y-61570903D01*
X76868506Y-61595173D01*
X76869500Y-61610965D01*
X76869500Y-61998830D01*
X76869451Y-62002349D01*
X76867402Y-62075708D01*
X76867040Y-62088653D01*
X76868148Y-62094938D01*
X76868149Y-62094948D01*
X76877516Y-62148066D01*
X76878785Y-62157208D01*
X76884880Y-62217216D01*
X76893491Y-62244693D01*
X76897339Y-62260481D01*
X76901227Y-62282535D01*
X76901229Y-62282541D01*
X76902336Y-62288821D01*
X76904686Y-62294756D01*
X76924538Y-62344898D01*
X76927620Y-62353601D01*
X76938818Y-62389332D01*
X76945662Y-62411172D01*
X76958042Y-62433504D01*
X76959615Y-62436343D01*
X76966567Y-62451049D01*
X76977160Y-62477805D01*
X77009998Y-62527986D01*
X77010186Y-62528274D01*
X77014954Y-62536178D01*
X77042206Y-62585341D01*
X77044203Y-62588944D01*
X77043463Y-62589354D01*
X77064510Y-62656518D01*
X77064510Y-63668840D01*
X77064461Y-63672359D01*
X77062459Y-63744034D01*
X77062050Y-63758663D01*
X77063158Y-63764948D01*
X77063159Y-63764958D01*
X77072526Y-63818076D01*
X77073795Y-63827218D01*
X77079890Y-63887226D01*
X77088501Y-63914703D01*
X77092349Y-63930491D01*
X77096237Y-63952545D01*
X77096239Y-63952551D01*
X77097346Y-63958831D01*
X77099696Y-63964766D01*
X77119548Y-64014908D01*
X77122630Y-64023611D01*
X77138706Y-64074907D01*
X77140672Y-64081182D01*
X77143765Y-64086761D01*
X77154625Y-64106353D01*
X77161577Y-64121059D01*
X77172170Y-64147815D01*
X77200583Y-64191234D01*
X77205196Y-64198284D01*
X77209966Y-64206191D01*
X77233917Y-64249399D01*
X77239213Y-64258954D01*
X77243365Y-64263798D01*
X77257943Y-64280807D01*
X77267706Y-64293810D01*
X77283465Y-64317892D01*
X77287927Y-64322848D01*
X77326839Y-64361760D01*
X77333412Y-64368858D01*
X77371487Y-64413281D01*
X77376524Y-64417188D01*
X77376526Y-64417190D01*
X77395867Y-64432192D01*
X77407736Y-64442657D01*
X77751111Y-64786032D01*
X77753563Y-64788553D01*
X77812881Y-64851280D01*
X77818111Y-64854942D01*
X77818112Y-64854943D01*
X77862292Y-64885878D01*
X77869657Y-64891448D01*
X77911456Y-64925539D01*
X77911460Y-64925542D01*
X77916403Y-64929573D01*
X77941913Y-64942910D01*
X77955800Y-64951353D01*
X77979379Y-64967863D01*
X78034740Y-64991820D01*
X78043072Y-64995795D01*
X78090873Y-65020784D01*
X78090876Y-65020785D01*
X78096530Y-65023741D01*
X78102657Y-65025498D01*
X78102660Y-65025499D01*
X78116358Y-65029426D01*
X78124201Y-65031675D01*
X78139505Y-65037155D01*
X78165919Y-65048586D01*
X78209281Y-65057645D01*
X78224967Y-65060922D01*
X78233930Y-65063140D01*
X78235517Y-65063595D01*
X78291913Y-65079766D01*
X78320612Y-65081974D01*
X78336705Y-65084265D01*
X78364880Y-65090151D01*
X78369719Y-65090405D01*
X78369722Y-65090405D01*
X78369871Y-65090413D01*
X78369887Y-65090413D01*
X78371539Y-65090500D01*
X78426564Y-65090500D01*
X78436231Y-65090871D01*
X78488210Y-65094871D01*
X78488214Y-65094871D01*
X78494570Y-65095360D01*
X78525172Y-65091494D01*
X78540965Y-65090500D01*
X78851912Y-65090500D01*
X78920033Y-65110502D01*
X78966526Y-65164158D01*
X78974495Y-65187356D01*
X78975296Y-65190723D01*
X78976149Y-65198580D01*
X79026474Y-65332824D01*
X79031854Y-65340003D01*
X79031856Y-65340006D01*
X79091236Y-65419235D01*
X79112454Y-65447546D01*
X79119635Y-65452928D01*
X79219994Y-65528144D01*
X79219997Y-65528146D01*
X79227176Y-65533526D01*
X79316561Y-65567034D01*
X79354025Y-65581079D01*
X79354027Y-65581079D01*
X79361420Y-65583851D01*
X79369270Y-65584704D01*
X79369271Y-65584704D01*
X79419217Y-65590130D01*
X79422623Y-65590500D01*
X80219883Y-65590500D01*
X81017376Y-65590499D01*
X81020770Y-65590130D01*
X81020776Y-65590130D01*
X81070722Y-65584705D01*
X81070726Y-65584704D01*
X81078580Y-65583851D01*
X81212824Y-65533526D01*
X81294437Y-65472360D01*
X81360940Y-65447513D01*
X81430323Y-65462565D01*
X81445558Y-65472356D01*
X81469067Y-65489975D01*
X81511581Y-65546835D01*
X81519500Y-65590800D01*
X81519500Y-68763501D01*
X81499498Y-68831622D01*
X81445842Y-68878115D01*
X81393500Y-68889501D01*
X80572624Y-68889501D01*
X80569230Y-68889870D01*
X80569224Y-68889870D01*
X80519278Y-68895295D01*
X80519274Y-68895296D01*
X80511420Y-68896149D01*
X80377176Y-68946474D01*
X80369997Y-68951854D01*
X80369994Y-68951856D01*
X80270904Y-69026121D01*
X80262454Y-69032454D01*
X80257072Y-69039635D01*
X80181856Y-69139994D01*
X80181854Y-69139997D01*
X80176474Y-69147176D01*
X80155477Y-69203186D01*
X80135031Y-69257728D01*
X80126149Y-69281420D01*
X80125296Y-69289272D01*
X80124493Y-69292649D01*
X80089275Y-69354294D01*
X80026319Y-69387113D01*
X80001911Y-69389500D01*
X79733057Y-69389500D01*
X79664936Y-69369498D01*
X79643962Y-69352595D01*
X75957405Y-65666038D01*
X75923379Y-65603726D01*
X75920500Y-65576943D01*
X75920500Y-60841500D01*
X75940502Y-60773379D01*
X75994158Y-60726886D01*
X76046500Y-60715500D01*
X76497512Y-60715499D01*
X76549034Y-60715499D01*
X76649335Y-60705093D01*
X76655866Y-60702914D01*
X76655871Y-60702913D01*
X76792585Y-60657301D01*
X76808432Y-60652014D01*
X76951052Y-60563758D01*
X76980877Y-60533881D01*
X77043160Y-60499802D01*
X77113980Y-60504805D01*
G37*
G04 #@! TD.AperFunction*
G04 #@! TA.AperFunction,Conductor*
G36*
X101387097Y-62095502D02*
G01*
X101433590Y-62149158D01*
X101443694Y-62219432D01*
X101424887Y-62269755D01*
X101378446Y-62341817D01*
X101376037Y-62348437D01*
X101376035Y-62348440D01*
X101361406Y-62388633D01*
X101317022Y-62510578D01*
X101316139Y-62517569D01*
X101316137Y-62517577D01*
X101309731Y-62568285D01*
X101281349Y-62633362D01*
X101273820Y-62641588D01*
X101137813Y-62777595D01*
X101075501Y-62811621D01*
X101048718Y-62814500D01*
X100963807Y-62814500D01*
X100895686Y-62794498D01*
X100856662Y-62754801D01*
X100843758Y-62733948D01*
X100725061Y-62615457D01*
X100692354Y-62595296D01*
X100622551Y-62552270D01*
X100582287Y-62527451D01*
X100423098Y-62474650D01*
X100416265Y-62473950D01*
X100416261Y-62473949D01*
X100363654Y-62468559D01*
X100324035Y-62464500D01*
X100059556Y-62464500D01*
X99790966Y-62464501D01*
X99690665Y-62474907D01*
X99684134Y-62477086D01*
X99684129Y-62477087D01*
X99550925Y-62521528D01*
X99531568Y-62527986D01*
X99388948Y-62616242D01*
X99270457Y-62734939D01*
X99266617Y-62741169D01*
X99266616Y-62741170D01*
X99244465Y-62777107D01*
X99182451Y-62877713D01*
X99180146Y-62884661D01*
X99180146Y-62884662D01*
X99172764Y-62906919D01*
X99129650Y-63036902D01*
X99128950Y-63043735D01*
X99128949Y-63043739D01*
X99124098Y-63091088D01*
X99119500Y-63135965D01*
X99119501Y-63744034D01*
X99129907Y-63844335D01*
X99132086Y-63850866D01*
X99132087Y-63850871D01*
X99172021Y-63970566D01*
X99174605Y-64041515D01*
X99138422Y-64102599D01*
X99074957Y-64134424D01*
X99007851Y-64125750D01*
X99007287Y-64127451D01*
X98867791Y-64081182D01*
X98848098Y-64074650D01*
X98841265Y-64073950D01*
X98841261Y-64073949D01*
X98788654Y-64068559D01*
X98749035Y-64064500D01*
X98484556Y-64064500D01*
X98215966Y-64064501D01*
X98115665Y-64074907D01*
X98109134Y-64077086D01*
X98109129Y-64077087D01*
X97984830Y-64118557D01*
X97956568Y-64127986D01*
X97813948Y-64216242D01*
X97695457Y-64334939D01*
X97691617Y-64341169D01*
X97691616Y-64341170D01*
X97683680Y-64354044D01*
X97630907Y-64401538D01*
X97580378Y-64413866D01*
X97565199Y-64414343D01*
X97562176Y-64414438D01*
X97558219Y-64414500D01*
X97530650Y-64414500D01*
X97526715Y-64414997D01*
X97526605Y-64415004D01*
X97514934Y-64415922D01*
X97479297Y-64417042D01*
X97471373Y-64417291D01*
X97452291Y-64422835D01*
X97432929Y-64426845D01*
X97413208Y-64429336D01*
X97405841Y-64432253D01*
X97405836Y-64432254D01*
X97372683Y-64445380D01*
X97361456Y-64449224D01*
X97327223Y-64459170D01*
X97327215Y-64459173D01*
X97319610Y-64461383D01*
X97312794Y-64465414D01*
X97312791Y-64465415D01*
X97302504Y-64471499D01*
X97284752Y-64480195D01*
X97277335Y-64483132D01*
X97266268Y-64487514D01*
X97259853Y-64492175D01*
X97259849Y-64492177D01*
X97231013Y-64513127D01*
X97221094Y-64519643D01*
X97190402Y-64537794D01*
X97190397Y-64537798D01*
X97183579Y-64541830D01*
X97169526Y-64555883D01*
X97154493Y-64568723D01*
X97138413Y-64580406D01*
X97133360Y-64586514D01*
X97110635Y-64613984D01*
X97102645Y-64622764D01*
X95952813Y-65772596D01*
X95890501Y-65806622D01*
X95863718Y-65809501D01*
X95313696Y-65809501D01*
X95302735Y-65808984D01*
X95295330Y-65807329D01*
X95233471Y-65809273D01*
X95228174Y-65809439D01*
X95224217Y-65809501D01*
X95196647Y-65809501D01*
X95192712Y-65809998D01*
X95192602Y-65810005D01*
X95180931Y-65810923D01*
X95149863Y-65811899D01*
X95137370Y-65812292D01*
X95118281Y-65817838D01*
X95098935Y-65821845D01*
X95079205Y-65824337D01*
X95038674Y-65840385D01*
X95027473Y-65844220D01*
X94985607Y-65856383D01*
X94968498Y-65866501D01*
X94950752Y-65875196D01*
X94932265Y-65882515D01*
X94897009Y-65908130D01*
X94887087Y-65914647D01*
X94856407Y-65932791D01*
X94856403Y-65932794D01*
X94849577Y-65936831D01*
X94835527Y-65950881D01*
X94820493Y-65963722D01*
X94804410Y-65975407D01*
X94799357Y-65981515D01*
X94776628Y-66008990D01*
X94768638Y-66017770D01*
X94065274Y-66721134D01*
X94002962Y-66755160D01*
X93932147Y-66750095D01*
X93903908Y-66735252D01*
X93752339Y-66629122D01*
X93752336Y-66629120D01*
X93747830Y-66625965D01*
X93742848Y-66623642D01*
X93742843Y-66623639D01*
X93538645Y-66528420D01*
X93538644Y-66528419D01*
X93533663Y-66526097D01*
X93528355Y-66524675D01*
X93528353Y-66524674D01*
X93310723Y-66466361D01*
X93310722Y-66466361D01*
X93305408Y-66464937D01*
X93070000Y-66444341D01*
X92834592Y-66464937D01*
X92829278Y-66466361D01*
X92829277Y-66466361D01*
X92611647Y-66524674D01*
X92611645Y-66524675D01*
X92606337Y-66526097D01*
X92601357Y-66528419D01*
X92601355Y-66528420D01*
X92397152Y-66623642D01*
X92397149Y-66623644D01*
X92392171Y-66625965D01*
X92198599Y-66761505D01*
X92031505Y-66928599D01*
X91895965Y-67122171D01*
X91893644Y-67127149D01*
X91893642Y-67127152D01*
X91819802Y-67285502D01*
X91796097Y-67336337D01*
X91794675Y-67341645D01*
X91794674Y-67341647D01*
X91736362Y-67559274D01*
X91734937Y-67564592D01*
X91714341Y-67800000D01*
X91734937Y-68035408D01*
X91736361Y-68040722D01*
X91736361Y-68040723D01*
X91782158Y-68211640D01*
X91796097Y-68263663D01*
X91798419Y-68268643D01*
X91798420Y-68268645D01*
X91884882Y-68454061D01*
X91895965Y-68477829D01*
X92031505Y-68671401D01*
X92151115Y-68791011D01*
X92185141Y-68853323D01*
X92180076Y-68924138D01*
X92137529Y-68980974D01*
X92106248Y-68998088D01*
X92045294Y-69020938D01*
X91974487Y-69026121D01*
X91911971Y-68992051D01*
X90859739Y-67939818D01*
X90825713Y-67877506D01*
X90830778Y-67806690D01*
X90859739Y-67761628D01*
X91383689Y-67237678D01*
X91398102Y-67225291D01*
X91409425Y-67216959D01*
X91409429Y-67216955D01*
X91415324Y-67212617D01*
X91449151Y-67172800D01*
X91456071Y-67165296D01*
X91461670Y-67159697D01*
X91479114Y-67137649D01*
X91481883Y-67134273D01*
X91523892Y-67084825D01*
X91523894Y-67084822D01*
X91528632Y-67079245D01*
X91531960Y-67072726D01*
X91535235Y-67067816D01*
X91538336Y-67062796D01*
X91542881Y-67057051D01*
X91548847Y-67044287D01*
X91573444Y-66991657D01*
X91575375Y-66987705D01*
X91575452Y-66987554D01*
X91608219Y-66923384D01*
X91609959Y-66916272D01*
X91612013Y-66910749D01*
X91613879Y-66905140D01*
X91616979Y-66898507D01*
X91631685Y-66827810D01*
X91632653Y-66823530D01*
X91633610Y-66819622D01*
X91649815Y-66753394D01*
X91650500Y-66742352D01*
X91650532Y-66742354D01*
X91650779Y-66738225D01*
X91651125Y-66734345D01*
X91652618Y-66727170D01*
X91650546Y-66650601D01*
X91650500Y-66647193D01*
X91650500Y-65499055D01*
X91670502Y-65430934D01*
X91687405Y-65409960D01*
X94984960Y-62112405D01*
X95047272Y-62078379D01*
X95074055Y-62075500D01*
X101318976Y-62075500D01*
X101387097Y-62095502D01*
G37*
G04 #@! TD.AperFunction*
G04 #@! TA.AperFunction,Conductor*
G36*
X86287532Y-57238001D02*
G01*
X86344368Y-57280548D01*
X86369179Y-57347068D01*
X86369500Y-57356057D01*
X86369500Y-58211500D01*
X86368951Y-58223140D01*
X86367240Y-58230796D01*
X86367489Y-58238719D01*
X86369438Y-58300730D01*
X86369500Y-58304688D01*
X86369500Y-58333425D01*
X86369995Y-58337342D01*
X86370039Y-58337691D01*
X86370971Y-58349524D01*
X86372403Y-58395069D01*
X86374615Y-58402683D01*
X86374616Y-58402688D01*
X86378278Y-58415292D01*
X86382289Y-58434656D01*
X86384929Y-58455558D01*
X86387848Y-58462929D01*
X86387848Y-58462931D01*
X86401702Y-58497920D01*
X86405541Y-58509131D01*
X86418256Y-58552898D01*
X86428981Y-58571033D01*
X86437676Y-58588781D01*
X86440711Y-58596447D01*
X86442438Y-58600808D01*
X86445432Y-58608371D01*
X86472218Y-58645238D01*
X86478725Y-58655146D01*
X86497883Y-58687542D01*
X86497887Y-58687547D01*
X86501919Y-58694365D01*
X86516812Y-58709258D01*
X86529653Y-58724292D01*
X86542037Y-58741337D01*
X86548145Y-58746390D01*
X86577143Y-58770379D01*
X86585923Y-58778369D01*
X86617595Y-58810041D01*
X86651621Y-58872353D01*
X86654500Y-58899136D01*
X86654501Y-59032665D01*
X86654501Y-59169034D01*
X86664907Y-59269335D01*
X86667086Y-59275866D01*
X86667087Y-59275871D01*
X86707067Y-59395704D01*
X86717986Y-59428432D01*
X86806242Y-59571052D01*
X86924939Y-59689543D01*
X86931169Y-59693383D01*
X86931170Y-59693384D01*
X86960263Y-59711317D01*
X87067713Y-59777549D01*
X87074661Y-59779854D01*
X87074662Y-59779854D01*
X87126479Y-59797041D01*
X87226902Y-59830350D01*
X87233735Y-59831050D01*
X87233739Y-59831051D01*
X87286346Y-59836441D01*
X87325965Y-59840500D01*
X87627655Y-59840500D01*
X87934034Y-59840499D01*
X88034335Y-59830093D01*
X88040866Y-59827914D01*
X88040871Y-59827913D01*
X88186484Y-59779332D01*
X88193432Y-59777014D01*
X88327260Y-59694199D01*
X88395711Y-59675361D01*
X88463481Y-59696522D01*
X88482658Y-59712248D01*
X88666341Y-59895932D01*
X88847762Y-60077353D01*
X88855148Y-60085470D01*
X88859214Y-60091877D01*
X88864989Y-60097300D01*
X88864993Y-60097305D01*
X88908223Y-60137901D01*
X88911065Y-60140656D01*
X88930529Y-60160120D01*
X88933659Y-60162548D01*
X88933741Y-60162620D01*
X88942649Y-60170229D01*
X88974418Y-60200062D01*
X88981365Y-60203881D01*
X88991832Y-60209635D01*
X89008361Y-60220492D01*
X89024064Y-60232673D01*
X89064057Y-60249979D01*
X89074713Y-60255200D01*
X89105955Y-60272376D01*
X89105964Y-60272380D01*
X89112908Y-60276197D01*
X89120584Y-60278168D01*
X89120587Y-60278169D01*
X89132160Y-60281140D01*
X89150864Y-60287544D01*
X89156041Y-60289784D01*
X89169104Y-60295437D01*
X89212148Y-60302254D01*
X89223771Y-60304662D01*
X89258304Y-60313529D01*
X89258305Y-60313529D01*
X89265981Y-60315500D01*
X89285856Y-60315500D01*
X89305566Y-60317051D01*
X89325196Y-60320160D01*
X89368580Y-60316059D01*
X89380437Y-60315500D01*
X93271456Y-60315500D01*
X93339577Y-60335502D01*
X93386070Y-60389158D01*
X93396174Y-60459432D01*
X93366680Y-60524012D01*
X93360552Y-60530594D01*
X91382923Y-62508222D01*
X89412651Y-64478494D01*
X89404531Y-64485883D01*
X89398123Y-64489950D01*
X89392697Y-64495728D01*
X89352115Y-64538943D01*
X89349360Y-64541785D01*
X89329880Y-64561265D01*
X89327452Y-64564395D01*
X89327380Y-64564477D01*
X89319771Y-64573385D01*
X89289938Y-64605154D01*
X89286119Y-64612101D01*
X89280365Y-64622568D01*
X89269508Y-64639097D01*
X89257327Y-64654800D01*
X89254179Y-64662075D01*
X89240020Y-64694794D01*
X89234798Y-64705454D01*
X89213803Y-64743644D01*
X89208859Y-64762900D01*
X89202460Y-64781589D01*
X89194562Y-64799840D01*
X89189132Y-64834129D01*
X89187744Y-64842890D01*
X89185340Y-64854499D01*
X89174500Y-64896717D01*
X89174500Y-64916592D01*
X89172949Y-64936302D01*
X89169840Y-64955932D01*
X89170586Y-64963824D01*
X89173941Y-64999315D01*
X89174500Y-65011173D01*
X89174500Y-65755688D01*
X89154411Y-65823943D01*
X89078446Y-65941817D01*
X89076037Y-65948437D01*
X89076035Y-65948440D01*
X89051405Y-66016111D01*
X89017022Y-66110578D01*
X88994514Y-66288753D01*
X88995201Y-66295760D01*
X88995201Y-66295763D01*
X89000073Y-66345448D01*
X89012039Y-66467486D01*
X89014262Y-66474168D01*
X89014262Y-66474169D01*
X89065807Y-66629120D01*
X89068726Y-66637896D01*
X89072373Y-66643918D01*
X89144879Y-66763639D01*
X89161759Y-66791512D01*
X89167886Y-66797856D01*
X89168418Y-66798873D01*
X89170951Y-66802162D01*
X89170373Y-66802607D01*
X89200821Y-66860749D01*
X89194526Y-66931466D01*
X89150998Y-66987554D01*
X89084057Y-67011204D01*
X89013116Y-66993842D01*
X88908724Y-66932106D01*
X88908721Y-66932105D01*
X88901897Y-66928069D01*
X88894285Y-66925858D01*
X88894284Y-66925857D01*
X88823871Y-66905400D01*
X88744675Y-66882391D01*
X88730595Y-66881283D01*
X88710398Y-66879693D01*
X88710387Y-66879693D01*
X88707940Y-66879500D01*
X88232060Y-66879500D01*
X88229613Y-66879693D01*
X88229602Y-66879693D01*
X88209405Y-66881283D01*
X88195325Y-66882391D01*
X88116129Y-66905400D01*
X88045716Y-66925857D01*
X88045715Y-66925858D01*
X88038103Y-66928069D01*
X88031281Y-66932104D01*
X88031280Y-66932104D01*
X87900487Y-67009454D01*
X87836348Y-67027000D01*
X87186185Y-67027000D01*
X87182667Y-67026951D01*
X87102730Y-67024718D01*
X87102727Y-67024718D01*
X87096347Y-67024540D01*
X87056035Y-67031648D01*
X87036933Y-67035016D01*
X87027787Y-67036285D01*
X86974133Y-67041735D01*
X86974132Y-67041735D01*
X86967784Y-67042380D01*
X86940320Y-67050987D01*
X86924529Y-67054836D01*
X86902460Y-67058727D01*
X86902455Y-67058728D01*
X86896179Y-67059835D01*
X86859071Y-67074527D01*
X86840083Y-67082045D01*
X86831398Y-67085121D01*
X86805469Y-67093246D01*
X86780808Y-67098336D01*
X86765665Y-67099907D01*
X86606568Y-67152986D01*
X86463948Y-67241242D01*
X86345457Y-67359939D01*
X86257451Y-67502713D01*
X86255146Y-67509663D01*
X86252052Y-67516297D01*
X86250891Y-67515756D01*
X86225223Y-67557356D01*
X84839117Y-68943462D01*
X84776805Y-68977488D01*
X84705990Y-68972423D01*
X84674458Y-68955193D01*
X84662824Y-68946474D01*
X84573439Y-68912966D01*
X84535975Y-68898921D01*
X84535973Y-68898921D01*
X84528580Y-68896149D01*
X84520730Y-68895296D01*
X84520729Y-68895296D01*
X84470774Y-68889869D01*
X84470773Y-68889869D01*
X84467377Y-68889500D01*
X83646500Y-68889500D01*
X83578379Y-68869498D01*
X83531886Y-68815842D01*
X83520500Y-68763500D01*
X83520500Y-65590800D01*
X83540502Y-65522679D01*
X83570933Y-65489975D01*
X83627546Y-65447546D01*
X83648764Y-65419235D01*
X83708144Y-65340006D01*
X83708146Y-65340003D01*
X83713526Y-65332824D01*
X83763851Y-65198580D01*
X83769436Y-65147176D01*
X83770131Y-65140774D01*
X83770131Y-65140773D01*
X83770500Y-65137377D01*
X83770499Y-63042624D01*
X83768566Y-63024831D01*
X83764705Y-62989278D01*
X83764704Y-62989274D01*
X83763851Y-62981420D01*
X83713526Y-62847176D01*
X83708146Y-62839997D01*
X83708144Y-62839994D01*
X83632928Y-62739635D01*
X83627546Y-62732454D01*
X83608970Y-62718532D01*
X83520006Y-62651856D01*
X83520003Y-62651854D01*
X83512824Y-62646474D01*
X83397453Y-62603224D01*
X83385975Y-62598921D01*
X83385973Y-62598921D01*
X83378580Y-62596149D01*
X83370730Y-62595296D01*
X83370729Y-62595296D01*
X83320774Y-62589869D01*
X83320773Y-62589869D01*
X83317377Y-62589500D01*
X82520117Y-62589500D01*
X81722624Y-62589501D01*
X81719230Y-62589870D01*
X81719224Y-62589870D01*
X81669278Y-62595295D01*
X81669274Y-62595296D01*
X81661420Y-62596149D01*
X81527176Y-62646474D01*
X81445563Y-62707640D01*
X81379060Y-62732487D01*
X81309677Y-62717435D01*
X81294446Y-62707647D01*
X81212824Y-62646474D01*
X81097453Y-62603224D01*
X81085975Y-62598921D01*
X81085973Y-62598921D01*
X81078580Y-62596149D01*
X81070730Y-62595296D01*
X81070729Y-62595296D01*
X81020774Y-62589869D01*
X81020773Y-62589869D01*
X81017377Y-62589500D01*
X80220117Y-62589500D01*
X79422624Y-62589501D01*
X79419230Y-62589870D01*
X79419224Y-62589870D01*
X79369278Y-62595295D01*
X79369274Y-62595296D01*
X79361420Y-62596149D01*
X79240210Y-62641588D01*
X79235739Y-62643264D01*
X79164932Y-62648447D01*
X79102563Y-62614526D01*
X79068434Y-62552270D01*
X79065510Y-62525282D01*
X79065510Y-62366500D01*
X79085512Y-62298379D01*
X79139168Y-62251886D01*
X79191510Y-62240500D01*
X83215286Y-62240500D01*
X83221880Y-62240673D01*
X83287745Y-62244125D01*
X83287749Y-62244125D01*
X83294126Y-62244459D01*
X83367373Y-62233381D01*
X83373484Y-62232609D01*
X83374679Y-62232488D01*
X83447216Y-62225120D01*
X83453308Y-62223211D01*
X83453312Y-62223210D01*
X83461490Y-62220647D01*
X83480324Y-62216299D01*
X83495097Y-62214065D01*
X83564644Y-62188477D01*
X83570438Y-62186505D01*
X83593727Y-62179206D01*
X83635082Y-62166247D01*
X83635086Y-62166245D01*
X83641172Y-62164338D01*
X83646749Y-62161247D01*
X83646755Y-62161244D01*
X83654246Y-62157091D01*
X83671835Y-62149038D01*
X83672159Y-62148919D01*
X83685852Y-62143881D01*
X83748825Y-62104836D01*
X83754130Y-62101724D01*
X83813359Y-62068893D01*
X83813360Y-62068892D01*
X83818944Y-62065797D01*
X83830296Y-62056067D01*
X83845898Y-62044649D01*
X83853176Y-62040137D01*
X83853180Y-62040134D01*
X83858599Y-62036774D01*
X83863229Y-62032396D01*
X83863239Y-62032388D01*
X83912441Y-61985860D01*
X83917015Y-61981741D01*
X83945580Y-61957257D01*
X83973271Y-61933523D01*
X83977181Y-61928482D01*
X83977185Y-61928478D01*
X83982436Y-61921708D01*
X83995422Y-61907387D01*
X84001641Y-61901506D01*
X84001641Y-61901505D01*
X84006280Y-61897119D01*
X84010117Y-61891640D01*
X84048774Y-61836431D01*
X84052428Y-61831475D01*
X84093930Y-61777971D01*
X84093933Y-61777966D01*
X84097848Y-61772919D01*
X84104453Y-61759496D01*
X84114289Y-61742866D01*
X84119198Y-61735855D01*
X84122863Y-61730621D01*
X84152292Y-61662613D01*
X84154874Y-61657026D01*
X84171422Y-61623396D01*
X84187587Y-61590545D01*
X84189197Y-61584364D01*
X84189199Y-61584359D01*
X84191354Y-61576085D01*
X84197648Y-61557804D01*
X84201052Y-61549938D01*
X84201053Y-61549934D01*
X84203586Y-61544081D01*
X84204891Y-61537835D01*
X84218739Y-61471549D01*
X84220145Y-61465556D01*
X84237211Y-61400037D01*
X84237211Y-61400036D01*
X84238822Y-61393852D01*
X84239604Y-61378928D01*
X84242094Y-61359754D01*
X84244162Y-61349855D01*
X84244162Y-61349853D01*
X84245151Y-61345120D01*
X84245500Y-61338461D01*
X84245500Y-61269714D01*
X84245673Y-61263120D01*
X84249125Y-61197256D01*
X84249125Y-61197252D01*
X84249459Y-61190874D01*
X84246917Y-61174064D01*
X84245500Y-61155225D01*
X84245500Y-59581611D01*
X84265502Y-59513490D01*
X84282405Y-59492516D01*
X85563381Y-58211540D01*
X85577302Y-58194471D01*
X85655541Y-58098541D01*
X85655542Y-58098540D01*
X85659573Y-58093597D01*
X85674245Y-58065533D01*
X85694153Y-58027451D01*
X85753741Y-57913470D01*
X85809766Y-57718087D01*
X85815067Y-57649193D01*
X85840237Y-57582809D01*
X85851601Y-57569766D01*
X86154405Y-57266962D01*
X86216717Y-57232936D01*
X86287532Y-57238001D01*
G37*
G04 #@! TD.AperFunction*
G04 #@! TA.AperFunction,Conductor*
G36*
X109124800Y-59234869D02*
G01*
X109181636Y-59277416D01*
X109197176Y-59304704D01*
X109201888Y-59316079D01*
X109204309Y-59328249D01*
X109219938Y-59351640D01*
X109244486Y-59388378D01*
X109248178Y-59393904D01*
X109391222Y-59536946D01*
X109396366Y-59540383D01*
X109441273Y-59570390D01*
X109456877Y-59580817D01*
X109469050Y-59583238D01*
X109480420Y-59587948D01*
X109535701Y-59632497D01*
X109558122Y-59699860D01*
X109540564Y-59768651D01*
X109521297Y-59793452D01*
X108577154Y-60737595D01*
X108514842Y-60771621D01*
X108488059Y-60774500D01*
X107945011Y-60774500D01*
X107877497Y-60754885D01*
X107850252Y-60737595D01*
X107779725Y-60692837D01*
X107732927Y-60639449D01*
X107722422Y-60569234D01*
X107751546Y-60504486D01*
X107758145Y-60497358D01*
X108991673Y-59263830D01*
X109053985Y-59229804D01*
X109124800Y-59234869D01*
G37*
G04 #@! TD.AperFunction*
G04 #@! TA.AperFunction,Conductor*
G36*
X92091029Y-50045991D02*
G01*
X92137522Y-50099647D01*
X92143142Y-50114309D01*
X92165662Y-50186172D01*
X92264203Y-50363944D01*
X92309170Y-50416408D01*
X92338312Y-50481145D01*
X92339500Y-50498403D01*
X92339500Y-52365432D01*
X92319498Y-52433553D01*
X92265842Y-52480046D01*
X92195568Y-52490150D01*
X92136971Y-52465528D01*
X92095574Y-52433877D01*
X92095570Y-52433874D01*
X92090153Y-52429733D01*
X91927599Y-52353933D01*
X91752560Y-52314807D01*
X91747069Y-52314500D01*
X91615190Y-52314500D01*
X91481691Y-52329003D01*
X91311700Y-52386211D01*
X91157960Y-52478587D01*
X91153000Y-52483278D01*
X91152998Y-52483279D01*
X91097603Y-52535664D01*
X91027643Y-52601822D01*
X91023807Y-52607467D01*
X91023805Y-52607469D01*
X90949184Y-52717271D01*
X90926829Y-52750166D01*
X90924297Y-52756496D01*
X90924295Y-52756500D01*
X90862755Y-52910361D01*
X90862754Y-52910366D01*
X90860221Y-52916698D01*
X90859107Y-52923425D01*
X90859106Y-52923430D01*
X90832042Y-53086910D01*
X90830927Y-53093648D01*
X90837178Y-53212920D01*
X90837911Y-53226905D01*
X90821502Y-53295980D01*
X90770353Y-53345217D01*
X90712084Y-53359500D01*
X90477516Y-53359501D01*
X90322624Y-53359501D01*
X90319233Y-53359869D01*
X90319221Y-53359870D01*
X90285105Y-53363576D01*
X90215223Y-53351047D01*
X90163208Y-53302725D01*
X90145500Y-53238313D01*
X90145500Y-53221628D01*
X90145003Y-53217693D01*
X90144996Y-53217583D01*
X90144078Y-53205912D01*
X90142958Y-53170278D01*
X90142709Y-53162351D01*
X90137163Y-53143262D01*
X90133156Y-53123916D01*
X90130664Y-53104186D01*
X90114616Y-53063655D01*
X90110781Y-53052454D01*
X90098618Y-53010588D01*
X90088498Y-52993475D01*
X90079805Y-52975730D01*
X90072486Y-52957246D01*
X90046864Y-52921981D01*
X90040357Y-52912073D01*
X90022206Y-52881380D01*
X90022202Y-52881375D01*
X90018170Y-52874557D01*
X90004117Y-52860504D01*
X89991276Y-52845470D01*
X89989992Y-52843702D01*
X89979594Y-52829391D01*
X89962167Y-52814974D01*
X89955543Y-52808350D01*
X89955297Y-52808612D01*
X89906304Y-52762604D01*
X89903462Y-52759849D01*
X89883982Y-52740369D01*
X89880852Y-52737941D01*
X89880770Y-52737869D01*
X89871862Y-52730260D01*
X89840093Y-52700427D01*
X89822678Y-52690853D01*
X89806149Y-52679996D01*
X89796711Y-52672675D01*
X89790447Y-52667816D01*
X89750453Y-52650509D01*
X89739793Y-52645287D01*
X89722725Y-52635904D01*
X89701603Y-52624292D01*
X89682347Y-52619348D01*
X89663658Y-52612949D01*
X89645407Y-52605051D01*
X89602352Y-52598232D01*
X89590748Y-52595829D01*
X89548530Y-52584989D01*
X89528655Y-52584989D01*
X89508945Y-52583438D01*
X89497144Y-52581569D01*
X89489315Y-52580329D01*
X89448799Y-52584159D01*
X89445932Y-52584430D01*
X89434074Y-52584989D01*
X88648187Y-52584989D01*
X88637226Y-52584472D01*
X88629821Y-52582817D01*
X88567962Y-52584761D01*
X88562665Y-52584927D01*
X88558708Y-52584989D01*
X88531139Y-52584989D01*
X88527204Y-52585486D01*
X88527094Y-52585493D01*
X88515423Y-52586411D01*
X88484355Y-52587387D01*
X88471862Y-52587780D01*
X88452773Y-52593326D01*
X88433427Y-52597333D01*
X88413697Y-52599825D01*
X88373166Y-52615873D01*
X88361965Y-52619708D01*
X88320099Y-52631871D01*
X88302986Y-52641991D01*
X88285241Y-52650684D01*
X88266757Y-52658003D01*
X88231492Y-52683625D01*
X88221584Y-52690132D01*
X88190891Y-52708283D01*
X88190886Y-52708287D01*
X88184068Y-52712319D01*
X88170015Y-52726372D01*
X88154982Y-52739212D01*
X88138902Y-52750895D01*
X88126906Y-52765396D01*
X88124487Y-52768320D01*
X88117861Y-52774946D01*
X88118123Y-52775192D01*
X88072115Y-52824185D01*
X88069360Y-52827027D01*
X88049880Y-52846507D01*
X88047452Y-52849637D01*
X88047380Y-52849719D01*
X88039771Y-52858627D01*
X88009938Y-52890396D01*
X88006119Y-52897343D01*
X88000365Y-52907810D01*
X87989508Y-52924339D01*
X87977327Y-52940042D01*
X87974179Y-52947317D01*
X87960020Y-52980036D01*
X87954798Y-52990696D01*
X87933803Y-53028886D01*
X87928859Y-53048142D01*
X87922460Y-53066831D01*
X87914562Y-53085082D01*
X87907831Y-53127585D01*
X87907744Y-53128132D01*
X87905340Y-53139741D01*
X87894500Y-53181959D01*
X87894500Y-53201834D01*
X87892949Y-53221544D01*
X87889840Y-53241174D01*
X87890109Y-53244019D01*
X87868680Y-53309335D01*
X87813591Y-53354120D01*
X87751266Y-53363182D01*
X87717377Y-53359500D01*
X87520058Y-53359500D01*
X87322624Y-53359501D01*
X87319228Y-53359870D01*
X87319226Y-53359870D01*
X87309827Y-53360891D01*
X87283608Y-53363739D01*
X87256396Y-53363739D01*
X87217377Y-53359500D01*
X87079411Y-53359500D01*
X86828982Y-53359501D01*
X86760862Y-53339499D01*
X86714369Y-53285844D01*
X86704674Y-53212922D01*
X86709073Y-53186352D01*
X86707928Y-53164490D01*
X86700043Y-53014053D01*
X86699686Y-53007240D01*
X86697875Y-53000664D01*
X86653870Y-52840902D01*
X86653869Y-52840899D01*
X86652057Y-52834321D01*
X86568406Y-52675664D01*
X86564001Y-52670451D01*
X86563998Y-52670447D01*
X86457044Y-52543885D01*
X86452638Y-52538671D01*
X86428972Y-52520577D01*
X86315574Y-52433877D01*
X86315570Y-52433874D01*
X86310153Y-52429733D01*
X86147599Y-52353933D01*
X85972560Y-52314807D01*
X85967069Y-52314500D01*
X85835190Y-52314500D01*
X85701691Y-52329003D01*
X85531700Y-52386211D01*
X85525847Y-52389728D01*
X85525843Y-52389730D01*
X85391394Y-52470514D01*
X85322702Y-52488454D01*
X85255215Y-52466407D01*
X85210361Y-52411374D01*
X85200500Y-52362511D01*
X85200500Y-50502242D01*
X85223287Y-50429971D01*
X85259218Y-50378656D01*
X85327863Y-50280621D01*
X85389715Y-50137689D01*
X85405182Y-50101948D01*
X85450593Y-50047374D01*
X85520819Y-50025989D01*
X92022908Y-50025989D01*
X92091029Y-50045991D01*
G37*
G04 #@! TD.AperFunction*
M02*
